<?xml version="1.0" encoding="UTF-8" standalone="no"?>
<svg
   xmlns:dc="http://purl.org/dc/elements/1.1/"
   xmlns:cc="http://creativecommons.org/ns#"
   xmlns:rdf="http://www.w3.org/1999/02/22-rdf-syntax-ns#"
   xmlns:svg="http://www.w3.org/2000/svg"
   xmlns="http://www.w3.org/2000/svg"
   xmlns:sodipodi="http://sodipodi.sourceforge.net/DTD/sodipodi-0.dtd"
   xmlns:inkscape="http://www.inkscape.org/namespaces/inkscape"
   sodipodi:docname="demed3.5.svg"
   inkscape:version="1.0 (4035a4f, 2020-05-01)"
   id="svg8"
   version="1.1"
   viewBox="0 0 169.33333 169.33334"
   height="640"
   width="640"
   inkscape:export-filename="/Users/monoidmusician/Documents/demed/demed3.5.png"
   inkscape:export-xdpi="192"
   inkscape:export-ydpi="192">
  <defs
     id="defs2" />
  <sodipodi:namedview
     inkscape:window-maximized="0"
     inkscape:window-y="23"
     inkscape:window-x="0"
     inkscape:window-height="855"
     inkscape:window-width="1305"
     inkscape:snap-bbox="true"
     inkscape:snap-page="true"
     inkscape:guide-bbox="true"
     showguides="true"
     inkscape:snap-global="true"
     units="px"
     showgrid="false"
     inkscape:document-rotation="0"
     inkscape:current-layer="layer1"
     inkscape:document-units="px"
     inkscape:cy="295.00257"
     inkscape:cx="369.26613"
     inkscape:zoom="0.70988243"
     inkscape:pageshadow="2"
     inkscape:pageopacity="0.0"
     borderopacity="1.0"
     bordercolor="#666666"
     pagecolor="#ffffff"
     id="base" />
  <metadata
     id="metadata5">
    <rdf:RDF>
      <cc:Work
         rdf:about="">
        <dc:format>image/svg+xml</dc:format>
        <dc:type
           rdf:resource="http://purl.org/dc/dcmitype/StillImage" />
        <dc:title></dc:title>
      </cc:Work>
    </rdf:RDF>
  </metadata>
  <g
     id="layer1"
     inkscape:groupmode="layer"
     inkscape:label="Layer 1">
    <rect
       y="0"
       x="0"
       height="169.33334"
       width="169.33334"
       id="rect889"
       style="fill:#298e46;fill-opacity:1;stroke-width:1.32292" />
    <text
       xml:space="preserve"
       style="font-style:normal;font-variant:normal;font-weight:normal;font-stretch:normal;font-size:162.40999999999999659px;font-family:'Rouge Script';-inkscape-font-specification:'Rouge Script';fill:#30baa3;fill-opacity:0.68951601;stroke:none;stroke-width:1.32292;"
       x="33.573994"
       y="118.76161"
       id="text861"
       transform="scale(0.83870263,1.1923177)"><tspan
         sodipodi:role="line"
         id="tspan859"
         x="33.573994"
         y="118.76161"
         style="font-style:normal;font-variant:normal;font-weight:normal;font-stretch:normal;font-family:'EB Garamond';-inkscape-font-specification:'EB Garamond';fill:#30baa3;fill-opacity:0.68951601;stroke-width:1.32292;">Ω</tspan></text>
    <g
       aria-label="&lt;&gt;"
       transform="matrix(3.0132952,-0.39628689,0.52207071,3.9697333,-89.617611,-304.02808)"
       id="text848"
       style="font-size:76.33310000000000173px;font-family:'EB Garamond';-inkscape-font-specification:'EB Garamond';fill:#224670;fill-opacity:1;stroke:#68989c;stroke-width:0.379235">
      <path
         d="m 20.259569,104.26218 q -2.518992,-2.21366 -4.656319,-2.21366 -2.060993,0 -2.060993,-0.15267 0,-0.38166 2.97699,-2.060988 5.037985,-3.053325 9.465305,-6.564648 4.503653,-3.587656 5.572316,-5.953982 0.381665,-0.915997 1.373996,-0.915997 1.068663,0 1.068663,0.228999 0,0.152667 -0.07633,0.229 -2.366326,5.114317 -13.892624,12.213296 1.984661,0.839662 3.892988,3.12965 1.908328,2.29 2.671659,5.26699 0.152666,0.687 0.152666,1.37399 0,2.13733 -1.602995,3.96933 -1.602995,1.83199 -1.831995,1.83199 -0.457998,0 0.152666,-0.99233 0.534332,-1.145 0.534332,-2.28999 0,-3.81666 -3.740322,-7.09898 z"
         style="font-style:normal;font-variant:normal;font-weight:normal;font-stretch:normal;font-family:Arizonia;-inkscape-font-specification:Arizonia;fill:#224670;fill-opacity:1;stroke:none;stroke-width:0.379235"
         id="path850" />
      <path
         d="m 59.379425,98.918145 q 2.518992,2.213655 4.579986,2.213655 2.060993,0 2.060993,0.15266 0,0.38167 -0.686998,0.83967 -0.610664,0.38166 -3.816655,2.36632 -3.20599,1.90833 -7.785976,5.49599 -4.579986,3.58765 -5.648649,5.87764 -0.381666,0.83967 -1.831994,0.916 -0.686998,-0.0763 -0.610665,-0.458 2.518992,-5.03798 13.968957,-12.13696 -1.908328,-0.83966 -3.892988,-3.12965 -1.908328,-2.289991 -2.671659,-5.266982 -0.152666,-0.763331 -0.152666,-1.450329 0,-2.21366 1.602995,-3.969321 1.602995,-1.831994 1.831995,-1.831994 0.457998,0 -0.152667,0.99233 -0.534331,1.144997 -0.534331,2.289993 0,3.816655 3.740322,7.098978 z"
         style="font-style:normal;font-variant:normal;font-weight:normal;font-stretch:normal;font-family:Arizonia;-inkscape-font-specification:Arizonia;fill:#224670;fill-opacity:1;stroke:none;stroke-width:0.379235"
         id="path852" />
    </g>
    <text
       xml:space="preserve"
       style="font-style:normal;font-variant:normal;font-weight:normal;font-stretch:normal;font-size:152.54300000000000637px;font-family:Arizonia;-inkscape-font-specification:Arizonia;fill:#224670;fill-opacity:1;stroke:none;stroke-width:1.32292;"
       x="70.205772"
       y="131.521"
       id="text857"
       transform="rotate(18.331033)"><tspan
         sodipodi:role="line"
         id="tspan855"
         x="70.205772"
         y="131.521"
         style="font-style:normal;font-variant:normal;font-weight:normal;font-stretch:normal;font-family:'Rouge Script';-inkscape-font-specification:'Rouge Script';fill:#224670;fill-opacity:1;stroke-width:1.32292;">*</tspan></text>
    <g
       style="fill:#a4114f;fill-opacity:1"
       id="g64">
      <path
         d="m 41.225362,151.74263 q -0.64676,0 -0.97014,-0.40423 -0.24253,-0.40422 -0.24253,-0.97014 0,-0.32337 0.16169,-0.80845 l 20.85801,-43.89882 q 0.24253,-0.56592 0.40422,-1.13183 0.24254,-0.56592 0.40423,-1.29352 0.16169,-0.64676 0.16169,-1.37437 0.0808,-0.80845 0.16169,-0.88929 0.7276,-0.24254 1.21267,-0.32338 0.56592,-0.16169 1.21268,-0.48507 0.88929,-0.404227 1.45521,-1.455201 0.64676,-1.131824 0.97014,-1.131824 0.32338,0 0.48507,0.323377 0.16169,0.24253 0.32338,0.808447 l 19.24111,50.851481 q 0.0808,0.16169 0.0808,0.56592 0,0.56592 -0.32338,1.13184 -0.32338,0.48506 -0.8893,0.48506 z m 8.32704,-4.44647 h 27.00223 q 1.37436,0 1.37436,-0.97014 0,-0.64676 -0.40422,-1.69775 -0.32338,-1.05098 -0.8893,-2.58704 l -11.80337,-33.87405 q -0.48507,-1.45521 -0.7276,-1.45521 -0.16169,0 -0.80845,1.37437 l -15.92647,35.24842 q -0.32338,0.80845 -0.56591,1.4552 -0.16169,0.56592 -0.16169,0.97014 0,1.05098 0.88929,1.29353 0.8893,0.24253 2.02113,0.24253 z"
         style="font-size:80.84499999999999886px;font-family:'EB Garamond';-inkscape-font-specification:'EB Garamond';fill:#a4114f;fill-opacity:1;stroke-width:1.32292"
         id="path14-1" />
      <path
         d="m 38.252082,115.24693 q -1.05099,0 -1.69775,-0.32338 -0.64676,-0.24253 -0.64676,-0.7276 0,-0.80845 2.58704,-1.29352 3.07211,-0.56592 3.96141,-1.85944 0.97014,-1.29352 0.97014,-4.20394 V 70.297142 q 0,-2.829575 -0.64676,-3.961405 -0.56592,-1.212675 -3.63803,-1.77859 -2.66789,-0.485068 -2.66789,-1.455211 0,-0.485068 0.56592,-0.727604 0.56592,-0.323379 1.77859,-0.323379 2.18282,0 3.39549,0.08084 1.21268,0.08085 2.26366,0.161689 1.05098,0 2.66789,0 1.69774,0 2.74873,0 1.13182,-0.08084 2.3445,-0.161689 1.29352,-0.08084 3.47633,-0.08084 2.34451,0 2.34451,1.050983 0,0.565918 -0.64676,0.889297 -0.64676,0.323379 -2.02113,0.565914 -2.99126,0.565915 -4.28478,2.021126 -1.21267,1.374365 -1.21267,3.718869 v 15.926467 q 0,0.48507 0.40422,0.64676 0.40423,0.0808 0.7276,0.0808 h 29.9935 q 0.56591,0 0.56591,-0.97014 V 70.216296 q 0,-2.182815 -1.13183,-3.638023 -1.13182,-1.455211 -4.20394,-2.021126 -1.37436,-0.242535 -2.02112,-0.565914 -0.64676,-0.323379 -0.64676,-0.889297 0,-1.050983 2.34451,-1.050983 2.18281,0 3.55718,0.08084 1.4552,0.08085 2.74872,0.161689 1.29352,0 3.07211,0 1.45521,0 2.26367,0 0.80845,-0.08084 1.85943,-0.161689 1.05098,-0.08084 3.2338,-0.08084 1.13183,0 1.69775,0.323379 0.64676,0.242536 0.64676,0.727604 0,0.970143 -2.66789,1.455211 -2.99126,0.565915 -3.63803,1.94028 -0.64676,1.374365 -0.64676,3.718869 v 36.541914 q 0,2.99126 0.72761,4.28478 0.80845,1.29352 3.79972,1.85944 2.58704,0.48507 2.58704,1.29352 0,0.48507 -0.64676,0.7276 -0.64677,0.32338 -1.69775,0.32338 -2.18281,0 -3.39549,-0.16169 -1.21267,-0.0808 -2.26366,-0.16169 -1.05099,-0.0808 -2.74873,-0.0808 -1.69775,0 -2.82958,0.0808 -1.05098,0.0809 -2.3445,0.16169 -1.29352,0.16169 -3.47633,0.16169 -1.05099,0 -1.69775,-0.32338 -0.64676,-0.24253 -0.64676,-0.7276 0,-0.56592 0.56592,-0.80845 0.64675,-0.24254 2.02112,-0.48507 2.58704,-0.48507 4.04225,-1.85944 1.53605,-1.45521 1.53605,-4.04225 V 91.235999 q 0,-0.40423 0,-0.80845 0,-0.40423 -0.40422,-0.40423 h -30.88279 q -0.40422,0 -0.40422,0.8893 v 15.360521 q 0,2.50619 1.85943,4.36563 1.85943,1.77859 4.60816,2.26366 1.37437,0.24253 1.94028,0.48507 0.64676,0.24253 0.64676,0.80845 0,0.48507 -0.64676,0.7276 -0.64675,0.32338 -1.69774,0.32338 -2.18281,0 -3.63803,-0.16169 -1.37436,-0.0808 -2.66788,-0.16169 -1.29352,-0.0808 -3.15295,-0.0808 -1.69775,0 -2.91042,0.0808 -1.13184,0.0809 -2.5062,0.16169 -1.29352,0.16169 -3.47633,0.16169 z"
         style="font-size:80.84499999999999886px;font-family:'EB Garamond';-inkscape-font-specification:'EB Garamond';fill:#a4114f;fill-opacity:1;stroke-width:1.32292"
         id="path16-8" />
      <path
         d="m 54.370092,64.679313 q -1.05098,0 -1.69774,-0.24253 -0.64676,-0.16169 -0.64676,-0.64676 0,-0.56592 0.64676,-0.8893 0.64676,-0.32338 2.02112,-0.56591 2.02113,-0.40423 3.31465,-1.94028 1.29352,-1.53606 1.69774,-4.36563 0.97014,-7.27605 1.69775,-13.8245 0.7276,-6.62928 1.13183,-11.88421 0.48507,-5.33577 0.48507,-8.731261 0,-0.64676 0,-1.37436 0,-0.72761 -0.0808,-1.29352 -0.0808,-0.64676 -0.24254,-1.29352 -0.16169,-0.72761 -0.97014,-1.37437 -1.45521,-1.21267 -2.82957,-1.6169 -1.37437,-0.48507 -3.2338,-0.80845 -0.80845,-0.16169 -1.29352,-0.56591 -0.48507,-0.48507 -0.48507,-1.05099 0,-0.646764 0.7276,-0.727604 0.80845,-0.16169 2.02113,-0.16169 0.80845,0 2.42535,0.0808 1.69774,0.0808 3.63802,0.24253 1.94028,0.161694 3.55718,0.242544 1.69775,0.0808 2.5062,0.0808 0.56591,0 0.97014,0.32338 0.40422,0.32338 0.56591,0.97014 0.40423,1.45521 0.80845,3.07211 0.40423,1.6169 0.97014,3.15295 l 12.77351,32.418841 q 0.24254,0.56592 0.8893,0.72761 0.64676,0.0808 0.97014,-0.48507 L 102.6346,19.001802 q 0.40423,-1.37436 0.80845,-3.07211 0.40423,-1.69774 0.64676,-2.99126 0.24254,-1.05099 0.80845,-1.05099 h 2.91042 q 2.42535,0 5.09325,-0.323384 2.74873,-0.32338 4.12309,-0.32338 0.40423,0 1.05099,0.16169 0.64676,0.0808 0.64676,0.646764 0,0.56592 -0.48507,0.8893 -0.40423,0.32338 -1.6169,0.80845 -1.05099,0.40422 -2.34451,0.88929 -1.29352,0.48507 -2.42535,0.97014 -0.80845,0.32338 -1.37436,1.13183 -0.56592,0.72761 -0.56592,1.6169 0,5.65915 0.16168,10.671541 0.24255,4.93155 0.48507,9.53971 0.24255,4.52732 0.56593,8.97379 0.32338,4.44648 0.56591,9.05464 0.16169,2.5062 1.6169,3.88056 1.45521,1.29352 4.44648,1.85944 1.37436,0.24253 2.02112,0.56591 0.64676,0.32338 0.64676,0.8893 0,0.48507 -0.64676,0.64676 -0.64676,0.24253 -1.69774,0.24253 -2.18282,0 -3.63803,-0.16169 -1.37436,-0.0808 -2.66788,-0.16169 -1.29352,-0.0808 -3.15297,-0.0808 -1.6169,0 -2.74873,0.0808 -1.05098,0.0809 -2.3445,0.16169 -1.21268,0.16169 -3.39549,0.16169 -1.050988,0 -1.697748,-0.24253 -0.64676,-0.16169 -0.64676,-0.64676 0,-0.56592 0.64676,-0.8893 0.64676,-0.40422 2.021128,-0.56591 2.3445,-0.32338 3.2338,-1.6169 0.8893,-1.37437 0.8893,-4.20394 0,-5.82084 -0.16169,-10.50985 -0.0808,-4.68901 -0.32339,-9.21633 -0.24253,-4.60816 -0.48507,-10.02478 -0.0808,-0.88929 -0.48507,-0.80845 -0.40422,0 -0.80845,0.80845 l -18.594348,37.9163 q -0.16169,0.40423 -0.72761,0.40423 -0.56591,0.0808 -0.7276,-0.48507 -3.15296,-9.45887 -6.79098,-18.59435 -3.55718,-9.21633 -8.0845,-19.80702 -0.16169,-0.40423 -0.56592,-0.40423 -0.40422,0 -0.48507,0.40423 -0.7276,5.65915 -1.37436,10.429 -0.56592,4.68901 -0.8893,9.29717 -0.32338,4.60817 -0.32338,10.10563 0,2.18281 1.37437,4.04225 1.37436,1.77859 3.88056,2.26366 1.37436,0.24253 2.02112,0.56591 0.64676,0.32338 0.64676,0.8893 0,0.48507 -0.64676,0.64676 -0.64676,0.24253 -1.69774,0.24253 -2.18282,0 -3.31465,-0.16169 -1.05098,-0.0808 -1.94028,-0.16169 -0.80845,-0.0808 -2.3445,-0.0808 -1.45521,0 -2.26366,0.0808 -0.80845,0.0809 -1.85944,0.16169 -1.05098,0.16169 -3.2338,0.16169 z"
         style="font-size:80.84499999999999886px;font-family:'EB Garamond';-inkscape-font-specification:'EB Garamond';fill:#a4114f;fill-opacity:1;stroke-width:1.32292"
         id="path18-8" />
      <path
         d="m 76.510882,115.24694 q -1.05099,0 -1.69775,-0.32338 -0.64676,-0.24253 -0.64676,-0.7276 0,-0.80845 2.58704,-1.29352 3.07211,-0.56592 3.96141,-1.85944 0.97014,-1.29352 0.97014,-4.20394 V 70.297142 q 0,-2.829575 -0.64676,-3.961405 -0.56592,-1.212675 -3.63803,-1.77859 -2.66788,-0.485068 -2.66788,-1.455211 0,-0.485068 0.56591,-0.727604 0.56592,-0.323379 1.77859,-0.323379 2.18282,0 3.39549,0.08084 1.21268,0.08085 2.26366,0.161689 1.05099,0 2.66789,0 1.69774,0 2.74873,0 1.13183,-0.08084 2.3445,-0.161689 1.29352,-0.08084 3.47634,-0.08084 2.3445,0 2.3445,1.050983 0,0.565918 -0.64676,0.889297 -0.64676,0.323379 -2.02112,0.565914 -2.99127,0.565915 -4.28479,2.021126 -1.21267,1.374365 -1.21267,3.718869 v 15.926467 q 0,0.48507 0.40422,0.64676 0.40423,0.0808 0.72761,0.0808 h 29.993488 q 0.56592,0 0.56592,-0.97014 V 70.216296 q 0,-2.182815 -1.13183,-3.638023 -1.13183,-1.455211 -4.20394,-2.021126 -1.37437,-0.242535 -2.02113,-0.565914 -0.64676,-0.323379 -0.64676,-0.889297 0,-1.050983 2.34451,-1.050983 2.18281,0 3.55718,0.08084 1.45521,0.08085 2.74873,0.161689 1.29352,0 3.07211,0 1.45521,0 2.26366,0 0.80845,-0.08084 1.85943,-0.161689 1.05099,-0.08084 3.2338,-0.08084 1.13183,0 1.69775,0.323379 0.64676,0.242536 0.64676,0.727604 0,0.970143 -2.66789,1.455211 -2.99126,0.565915 -3.63802,1.94028 -0.64676,1.374365 -0.64676,3.718869 v 36.541924 q 0,2.99126 0.7276,4.28478 0.80845,1.29352 3.79972,1.85944 2.58704,0.48507 2.58704,1.29352 0,0.48507 -0.64676,0.7276 -0.64676,0.32338 -1.69775,0.32338 -2.18281,0 -3.39549,-0.16169 -1.21267,-0.0808 -2.26366,-0.16169 -1.05098,-0.0808 -2.74873,-0.0808 -1.69774,0 -2.82957,0.0808 -1.05099,0.0809 -2.34451,0.16169 -1.29352,0.16169 -3.47633,0.16169 -1.05099,0 -1.69775,-0.32338 -0.64676,-0.24253 -0.64676,-0.7276 0,-0.56592 0.56592,-0.80845 0.64676,-0.24254 2.02112,-0.48507 2.58704,-0.48507 4.04225,-1.85944 1.53606,-1.45521 1.53606,-4.04225 V 91.235999 q 0,-0.40423 0,-0.80845 0,-0.40423 -0.40423,-0.40423 H 88.556783 q -0.40422,0 -0.40422,0.8893 v 15.360531 q 0,2.50619 1.85943,4.36563 1.85944,1.77859 4.60817,2.26366 1.37436,0.24253 1.94028,0.48507 0.646759,0.24253 0.646759,0.80845 0,0.48507 -0.646759,0.7276 -0.64676,0.32338 -1.69775,0.32338 -2.18281,0 -3.63802,-0.16169 -1.37437,-0.0808 -2.66789,-0.16169 -1.29352,-0.0808 -3.15295,-0.0808 -1.69775,0 -2.91042,0.0808 -1.13183,0.0809 -2.5062,0.16169 -1.29352,0.16169 -3.476331,0.16169 z"
         style="font-size:80.84499999999999886px;font-family:'EB Garamond';-inkscape-font-specification:'EB Garamond';fill:#a4114f;fill-opacity:1;stroke-width:1.32292"
         id="path20-3" />
      <path
         d="m 79.721622,151.74263 q -0.64676,0 -0.97014,-0.40423 -0.24253,-0.40422 -0.24253,-0.97014 0,-0.32338 0.16169,-0.80845 l 20.85801,-43.89882 q 0.24253,-0.56592 0.40422,-1.13183 0.242538,-0.56592 0.404228,-1.29352 0.16169,-0.64676 0.16169,-1.37437 0.0808,-0.80845 0.16169,-0.88929 0.7276,-0.24254 1.21267,-0.32338 0.56592,-0.16169 1.21268,-0.48507 0.88929,-0.404227 1.45521,-1.455201 0.64676,-1.131824 0.97014,-1.131824 0.32338,0 0.48507,0.323377 0.16169,0.24253 0.32338,0.808447 l 19.24111,50.851481 q 0.0808,0.16169 0.0808,0.56592 0,0.56591 -0.32338,1.13183 -0.32338,0.48507 -0.88929,0.48507 z m 8.32704,-4.44648 h 27.002228 q 1.37436,0 1.37436,-0.97014 0,-0.64676 -0.40422,-1.69774 -0.32338,-1.05099 -0.8893,-2.58704 l -11.80337,-33.87405 q -0.48507,-1.45521 -0.7276,-1.45521 -0.16169,0 -0.80845,1.37437 l -15.926468,35.24841 q -0.32338,0.80845 -0.56591,1.45521 -0.16169,0.56591 -0.16169,0.97014 0,1.05098 0.88929,1.29352 0.8893,0.24253 2.02113,0.24253 z"
         style="font-size:80.84499999999999886px;font-family:'EB Garamond';-inkscape-font-specification:'EB Garamond';fill:#a4114f;fill-opacity:1;stroke-width:1.32292"
         id="path22-5" />
    </g>
  </g>
  <g
     style="display:none"
     inkscape:label="Frame"
     id="layer2"
     inkscape:groupmode="layer">
    <circle
       r="83.34375"
       cy="84.666664"
       cx="84.666664"
       id="path3885"
       style="opacity:1;fill:none;fill-opacity:1;stroke:#ffffff;stroke-width:2.64583;stroke-linecap:round;stroke-linejoin:round;stroke-miterlimit:4;stroke-dasharray:none;stroke-opacity:1" />
  </g>
</svg>
