<?xml version="1.0" encoding="UTF-8" standalone="no"?>
<svg
   xmlns:dc="http://purl.org/dc/elements/1.1/"
   xmlns:cc="http://creativecommons.org/ns#"
   xmlns:rdf="http://www.w3.org/1999/02/22-rdf-syntax-ns#"
   xmlns:svg="http://www.w3.org/2000/svg"
   xmlns="http://www.w3.org/2000/svg"
   xmlns:xlink="http://www.w3.org/1999/xlink"
   xmlns:sodipodi="http://sodipodi.sourceforge.net/DTD/sodipodi-0.dtd"
   xmlns:inkscape="http://www.inkscape.org/namespaces/inkscape"
   inkscape:version="1.0 (4035a4f, 2020-05-01)"
   inkscape:export-ydpi="96"
   inkscape:export-xdpi="96"
   inkscape:export-filename="/Users/monoidmusician/Documents/demed/butterfly5tilt.png"
   sodipodi:docname="butterfly5tilt.svg"
   id="svg8"
   version="1.1"
   viewBox="0 0 200 200"
   height="200mm"
   width="200mm">
  <defs
     id="defs2">
    <inkscape:perspective
       id="perspective5947"
       inkscape:persp3d-origin="100 : 66.666667 : 1"
       inkscape:vp_z="200 : 100 : 1"
       inkscape:vp_y="0 : 1000 : 0"
       inkscape:vp_x="0 : 100 : 1"
       sodipodi:type="inkscape:persp3d" />
    <linearGradient
       inkscape:collect="always"
       id="linearGradient5793">
      <stop
         style="stop-color:#cbf7f1;stop-opacity:1"
         offset="0"
         id="stop5787" />
      <stop
         id="stop5789"
         offset="0.61068529"
         style="stop-color:#8ef5e2;stop-opacity:1" />
      <stop
         style="stop-color:#0ade5c;stop-opacity:1"
         offset="1"
         id="stop5791" />
    </linearGradient>
    <linearGradient
       id="linearGradient3861"
       inkscape:collect="always">
      <stop
         id="stop3857"
         offset="0"
         style="stop-color:#e3f7f4;stop-opacity:1" />
      <stop
         style="stop-color:#d4f5e3;stop-opacity:1"
         offset="0.5"
         id="stop5777" />
      <stop
         id="stop3859"
         offset="1"
         style="stop-color:#a0f1be;stop-opacity:1" />
    </linearGradient>
    <radialGradient
       gradientUnits="userSpaceOnUse"
       r="100"
       fy="141.45972"
       fx="102.01811"
       cy="141.45972"
       cx="102.01811"
       id="radialGradient3863"
       xlink:href="#linearGradient3861"
       inkscape:collect="always" />
    <radialGradient
       gradientTransform="matrix(1,0,0,1.127147,-18.487284,-8.101208)"
       r="100"
       fy="155.30461"
       fx="102.01811"
       cy="155.30461"
       cx="102.01811"
       gradientUnits="userSpaceOnUse"
       id="radialGradient5785"
       xlink:href="#linearGradient5793"
       inkscape:collect="always" />
  </defs>
  <sodipodi:namedview
     inkscape:snap-page="true"
     showborder="false"
     inkscape:object-nodes="false"
     inkscape:snap-nodes="true"
     inkscape:guide-bbox="true"
     showguides="false"
     inkscape:window-maximized="0"
     inkscape:window-y="23"
     inkscape:window-x="369"
     inkscape:window-height="855"
     inkscape:window-width="1071"
     inkscape:snap-center="true"
     inkscape:snap-smooth-nodes="false"
     inkscape:object-paths="false"
     inkscape:snap-bbox="false"
     fit-margin-bottom="20"
     fit-margin-right="20"
     fit-margin-top="20"
     fit-margin-left="20"
     inkscape:snap-global="false"
     showgrid="false"
     inkscape:document-rotation="0"
     inkscape:current-layer="g936"
     inkscape:document-units="mm"
     inkscape:cy="337.13013"
     inkscape:cx="359.63033"
     inkscape:zoom="0.61267949"
     inkscape:pageshadow="2"
     inkscape:pageopacity="0.0"
     borderopacity="1.0"
     bordercolor="#666666"
     pagecolor="#ffffff"
     id="base">
    <sodipodi:guide
       inkscape:color="rgb(0,0,255)"
       inkscape:locked="false"
       inkscape:label=""
       id="guide3793"
       orientation="-1,0"
       position="99.999999,99.999999" />
  </sodipodi:namedview>
  <metadata
     id="metadata5">
    <rdf:RDF>
      <cc:Work
         rdf:about="">
        <dc:format>image/svg+xml</dc:format>
        <dc:type
           rdf:resource="http://purl.org/dc/dcmitype/StillImage" />
        <dc:title></dc:title>
      </cc:Work>
    </rdf:RDF>
  </metadata>
  <g
     transform="translate(-2.0181094,-41.459724)"
     id="layer1"
     inkscape:groupmode="layer"
     inkscape:label="Layer 1">
    <rect
       y="41.459724"
       x="2.0181093"
       height="200"
       width="200"
       id="rect5873"
       style="opacity:0;fill:#1f6e3e;fill-opacity:1;stroke:none;stroke-width:2;stroke-linecap:round;stroke-miterlimit:4;stroke-dasharray:none;stroke-opacity:1" />
    <circle
       transform="rotate(-7.1825001)"
       r="99"
       cy="153.10503"
       cx="83.53083"
       id="path1002"
       style="opacity:1;fill:url(#radialGradient5785);fill-opacity:1;stroke:#3bf142;stroke-width:2;stroke-linecap:round;stroke-miterlimit:4;stroke-dasharray:none;stroke-opacity:1" />
    <g
       transform="matrix(1.124433,-0.14170002,0.14170002,1.124433,-32.474623,-1.0462381)"
       id="g1039">
      <path
         sodipodi:nodetypes="scscscscs"
         style="fill:#9a74a3;fill-opacity:1;stroke-width:0.00702919"
         inkscape:connector-curvature="0"
         id="path5893"
         d="m 102.03171,103.5038 c 1.60832,0 2.8426,1.30914 3.62806,2.73043 1.12207,1.98229 1.53351,4.22644 1.53351,6.50804 0,2.28154 -0.41143,4.5631 -1.53351,6.54539 -0.78546,1.42131 -2.01974,2.73044 -3.62806,2.73044 -1.6083,0 -2.84259,-1.30913 -3.628049,-2.73044 -1.122076,-1.98229 -1.533503,-4.26385 -1.533503,-6.54539 0,-2.2816 0.411423,-4.52575 1.533503,-6.50804 0.785459,-1.42129 2.019749,-2.73043 3.628049,-2.73043 z" />
      <g
         id="g3824">
        <g
           id="g3789"
           inkscape:transform-center-x="36.059139"
           inkscape:transform-center-y="38.746665"
           transform="rotate(3.304056,-517.34667,123.91893)">
          <g
             id="g3749"
             transform="matrix(-6.1150702,0.35302701,0.66844052,11.578605,102.06961,96.808108)"
             style="fill:#9a74a3;fill-opacity:1;stroke-width:0.208494">
            <path
               sodipodi:nodetypes="cscccccccsscc"
               style="fill:#9a74a3;fill-opacity:1;stroke-width:0.208494"
               inkscape:connector-curvature="0"
               id="path3741"
               d="m 247.10429,587.79115 c 17.04319,-36.53546 26.62998,-76.29464 26.62998,-117.1284 C 273.73427,276.16513 1.0431927,194.49762 1.0431927,0 H -16 L 7.5024531,433.58885 Z M -5.9604554e-7,773.33615 1.0431927,537.28625 V 462.06617 C 105.43275,514.72023 242.84349,598.53688 242.84349,712.44156 c 0,21.45277 -5.77616,42.90553 -13.66767,63.43505 -0.40952,1.06534 -3.86989,9.09732 -4.29029,10.15757 z"
               transform="matrix(0.004,0,0,-0.004,0.13,4.0119994)" />
            <rect
               style="fill:#9a74a3;fill-opacity:1;stroke-width:0.208494"
               id="rect3743"
               ry="0.0053561539"
               height="3.3122001"
               width="0.13"
               y="-0.31220001"
               x="-0.064999998"
               transform="translate(0.065,1.0519994)"
               rx="0.01009577" />
            <a
               transform="translate(-55.9933,-7.2933006)"
               id="a3747"
               style="fill:#9a74a3;fill-opacity:1;stroke-width:0.208494">
              <path
                 sodipodi:nodetypes="sscssccs"
                 style="fill:#9a74a3;fill-opacity:1;stroke-width:0.208494"
                 inkscape:connector-curvature="0"
                 id="path3745"
                 d="m 220,138 c 56,0 109,-29 109,-91 0,-72 -56,-121 -103,-149 -36,-21 -76,-36 -117,-36 -56,0 -122.384955,29.40432 -109,91 L 23.85167,16.646938 2.7151204,419.80495 C 167.22978,460.07718 91.000233,138 220,138 Z"
                 transform="matrix(0.004,0,0,-0.004,55.9933,7.8453)" />
            </a>
          </g>
          <text
             transform="rotate(-3.3040553)"
             id="text3781"
             y="96.886284"
             x="66.194397"
             style="font-style:normal;font-variant:normal;font-weight:bold;font-stretch:normal;font-size:7.47063px;font-family:'Amatic SC';-inkscape-font-specification:'Amatic SC Bold';text-align:center;text-anchor:middle;opacity:1;fill:#dc268b;fill-opacity:1;stroke:none;stroke-width:1.76472;stroke-linecap:round;stroke-miterlimit:4;stroke-dasharray:none;stroke-opacity:1"
             xml:space="preserve"><tspan
               style="stroke-width:1.76472"
               y="96.886284"
               x="66.194397"
               id="tspan3779"
               sodipodi:role="line" /></text>
          <path
             sodipodi:nodetypes="ccccccccssccccccccc"
             style="fill:#86cad1;fill-opacity:1;stroke-width:0.264583"
             d="m 98.153173,97.279379 c 1.373413,-5.01209 1.971927,-10.711732 -0.19022,-15.586792 -3.914518,-0.655196 -7.751487,3.262019 -10.491505,5.609672 -13.39108,15.101411 -24.267271,25.262691 -27.600214,40.621221 -0.100547,0.47535 -0.182126,0.95855 -0.243557,1.44964 -1.438132,7.63748 2.277743,15.98109 9.252567,19.59634 2.640634,1.40375 5.602829,2.20622 8.588329,2.34859 -0.752996,5.20781 -0.251654,11.03306 -3.576201,15.45047 -2.471681,3.22249 -7.747406,4.96378 -11.195445,2.81569 -2.76788,-1.72436 -3.903268,-2.8865 -3.574615,-6.68095 0.09393,-1.08446 1.186336,-3.03083 2.347972,-4.01656 l -0.735553,-0.68862 c -2.70234,1.7947 -4.03903,5.84398 -2.347358,8.8381 2.199522,4.18391 7.934525,5.09513 12.096755,3.73556 4.752258,-1.66004 6.578809,-6.87706 7.232276,-11.55323 0.218644,-1.57132 0.572626,-6.25878 0.878337,-7.90218 1.713816,-0.17568 0.505166,-0.0171 2.945961,-0.352 6.59727,-0.90202 12.21426,-7.20549 12.08042,-14.10047 -0.522862,-23.97726 -2.305229,-17.87562 4.532051,-39.584481 z"
             id="path3755" />
          <path
             d="m 41.947826,82.888569 c 5.896108,-6.463262 14.567271,-9.976567 23.248754,-10.165095 10.895526,-0.323663 21.599159,3.025074 31.329274,7.691656 1.503725,0.398648 2.606523,4.429203 0.347911,3.684396 -16.563461,15.890734 -22.07441,19.753094 -32.586101,29.981044 -3.070073,2.92892 -7.392871,4.58825 -11.653782,4.15292 -7.242409,-0.45501 -13.297458,-5.90984 -16.454574,-12.14956 -3.199637,-6.470202 -1.328439,-14.338265 2.95748,-19.840041 0.8645,-1.17667 1.810293,-2.292853 2.811018,-3.355341 z"
             style="fill:#7bba87;fill-opacity:0.991936;stroke-width:0.264583"
             id="path3751"
             sodipodi:nodetypes="cccccccccc" />
        </g>
        <use
           x="0"
           y="0"
           xlink:href="#g3789"
           inkscape:transform-center-x="-43.065409"
           inkscape:transform-center-y="-66.344533"
           id="use3791"
           width="100%"
           height="100%"
           transform="matrix(-1,0,0,1,204.03622,0)" />
      </g>
      <g
         id="g936"
         inkscape:transform-center-x="36.059139"
         inkscape:transform-center-y="38.746665"
         transform="rotate(3.304056,-517.34667,123.91893)">
        <g
           style="font-size:42.52669999999999817px;font-family:sans-serif;-inkscape-font-specification:sans-serif;text-align:center;text-anchor:middle;opacity:1;fill:#0a7d91;fill-opacity:1;stroke:none;stroke-width:7.97124;stroke-linecap:round"
           id="text1043"
           transform="rotate(-44.581002,-1.6785566,-10.879327)"
           aria-label="++">
          <path
             id="path3577"
             style="font-style:normal;font-variant:normal;font-weight:bold;font-stretch:normal;font-family:'Amatic SC';-inkscape-font-specification:'Amatic SC Bold';fill:#0a7d91;fill-opacity:1;stroke:none;stroke-width:7.97124"
             d="m -45.770249,84.058413 q -0.552848,0 -0.978115,-0.297687 -0.38274,-0.297687 -0.38274,-0.765481 0,-0.680427 -0.12758,-2.083808 -0.170107,-1.190747 -0.170107,-2.041281 v -0.297687 l -1.105694,0.04253 q -0.850534,0.127581 -1.233274,0.127581 -1.828648,0 -1.828648,-1.360855 0,-0.425267 0.25516,-0.76548 0.297687,-0.340214 0.722954,-0.340214 l 1.233274,0.08505 1.275801,0.08505 q 0.38274,0 0.978114,-0.08505 l -0.12758,-1.488434 q -0.12758,-1.105694 -0.12758,-1.616015 0,-2.381495 1.360854,-2.381495 0.467794,0 0.765481,0.382741 0.297687,0.340213 0.297687,0.850534 v 0.51032 l 0.04253,1.063167 q 0,0.425267 0.04253,0.680428 0,0.808007 0.12758,1.445907 0.08505,0.340214 0.170107,0.467794 0.08505,0.170107 0.212634,0.170107 l 1.063167,-0.08505 q 0.552847,-0.08505 1.403381,-0.08505 2.168862,0 2.168862,1.275801 0,0.51032 -0.340214,0.850534 -0.340213,0.297687 -0.850534,0.297687 -0.38274,0 -1.233274,-0.12758 l -1.275801,-0.08505 q -1.360854,0 -1.360854,1.020641 0,0.425267 0.212633,1.701068 0.212634,1.275801 0.212634,1.701068 0,0.51032 -0.425267,0.850534 -0.425267,0.297687 -0.978114,0.297687 z" />
          <path
             id="path3579"
             style="font-style:normal;font-variant:normal;font-weight:bold;font-stretch:normal;font-family:'Amatic SC';-inkscape-font-specification:'Amatic SC Bold';fill:#0a7d91;fill-opacity:1;stroke:none;stroke-width:7.97124"
             d="m -27.08176,84.058413 q -0.552847,0 -0.978114,-0.297687 -0.38274,-0.297687 -0.38274,-0.765481 0,-0.680427 -0.12758,-2.083808 -0.170107,-1.190747 -0.170107,-2.041281 v -0.297687 l -1.105694,0.04253 q -0.850534,0.127581 -1.233274,0.127581 -1.828648,0 -1.828648,-1.360855 0,-0.425267 0.25516,-0.76548 0.297687,-0.340214 0.722954,-0.340214 l 1.233274,0.08505 1.275801,0.08505 q 0.38274,0 0.978114,-0.08505 l -0.12758,-1.488434 q -0.12758,-1.105694 -0.12758,-1.616015 0,-2.381495 1.360854,-2.381495 0.467794,0 0.765481,0.382741 0.297687,0.340213 0.297687,0.850534 v 0.51032 l 0.04253,1.063167 q 0,0.425267 0.04253,0.680428 0,0.808007 0.12758,1.445907 0.08505,0.340214 0.170107,0.467794 0.08505,0.170107 0.212634,0.170107 l 1.063167,-0.08505 q 0.552847,-0.08505 1.403381,-0.08505 2.168862,0 2.168862,1.275801 0,0.51032 -0.340214,0.850534 -0.340213,0.297687 -0.850534,0.297687 -0.38274,0 -1.233274,-0.12758 l -1.275801,-0.08505 q -1.360854,0 -1.360854,1.020641 0,0.425267 0.212633,1.701068 0.212634,1.275801 0.212634,1.701068 0,0.51032 -0.425267,0.850534 -0.425267,0.297687 -0.978115,0.297687 z" />
        </g>
        <g
           id="g968"
           transform="matrix(-6.1150702,0.35302701,0.66844052,11.578605,102.06961,96.808108)"
           style="fill:#532a6e;fill-opacity:1;stroke-width:0.208494">
          <path
             sodipodi:nodetypes="cscscscscccccsscsss"
             style="fill:#532a6e;fill-opacity:1;stroke-width:0.208494"
             inkscape:connector-curvature="0"
             id="path102"
             d="m 1.0431927,220.28736 c 97.9983573,54.8032 227.9526973,140.769 227.9526973,250.37539 0,25.78974 -5.32599,51.57948 -14.91279,75.22008 C 128.86714,450.24588 1.0431927,373.95076 1.0431927,241.77881 Z M 287.58187,712.44156 c 0,-47.28119 -15.978,-88.11494 -40.47758,-124.65041 17.04319,-36.53546 26.62998,-76.29464 26.62998,-117.1284 C 273.73427,276.16513 1.0431927,194.49762 1.0431927,0 H -16 V 537.28625 H 1.0431927 V 462.06617 C 105.43275,514.72023 242.84349,598.53688 242.84349,712.44156 c 0,21.45277 -5.77616,42.90553 -13.66767,63.43505 -0.40952,1.06534 -3.86989,9.09732 -4.29029,10.15757 -3.19559,17.19316 14.71221,30.62172 27.8831,26.69042 5.90349,-1.76209 11.92875,-7.69446 16.364,-12.76445 16.46596,-18.82244 18.44924,-65.50835 18.44924,-87.51859 z"
             transform="matrix(0.004,0,0,-0.004,0.13,4.0119994)" />
          <rect
             style="fill:#532a6e;fill-opacity:1;stroke-width:0.208494"
             id="rect104"
             ry="0.0053561539"
             height="3.3122001"
             width="0.13"
             y="-0.31220001"
             x="-0.064999998"
             transform="translate(0.065,1.0519994)"
             rx="0.01009577" />
          <a
             transform="translate(-55.9933,-7.2933006)"
             id="a106"
             style="fill:#532a6e;fill-opacity:1;stroke-width:0.208494">
            <path
               style="fill:#532a6e;fill-opacity:1;stroke-width:0.208494"
               inkscape:connector-curvature="0"
               id="path108"
               d="m 220,138 c 56,0 109,-29 109,-91 0,-72 -56,-121 -103,-149 -36,-21 -76,-36 -117,-36 -56,0 -109,29 -109,91 0,72 56,121 103,149 36,21 76,36 117,36 z"
               transform="matrix(0.004,0,0,-0.004,55.9933,7.8453)" />
          </a>
        </g>
        <path
           d="m 41.947826,82.888569 c 5.896108,-6.463262 14.567271,-9.976567 23.248754,-10.165095 10.895526,-0.323663 21.599159,3.025074 31.329274,7.691656 1.503725,0.398648 2.335872,2.524262 0.07726,1.779455 -4.308417,-1.469028 -8.550598,-3.242218 -13.069497,-4.011202 -9.711401,-1.985652 -20.51868,-0.887636 -28.63016,5.206059 -4.904875,3.739984 -9.044339,8.543566 -12.031098,13.938755 -2.197582,3.965233 -3.090567,9.354253 -0.02605,13.132453 2.725883,3.48746 7.150815,5.57295 11.593645,5.41016 1.168394,-0.0428 3.912737,-0.62472 5.53282,-2.72958 -2.361068,-0.21244 -2.156664,-0.24386 -3.737146,-0.79589 -3.638848,-1.271 -5.507538,-6.09729 -3.48897,-9.52101 1.761292,-3.234487 5.395235,-6.037621 9.256335,-5.009775 4.040527,1.063641 7.417033,5.378695 6.214664,9.643705 -1.680694,6.7319 -8.712593,11.47726 -15.58378,10.77523 -7.242409,-0.45501 -13.297458,-5.90984 -16.454574,-12.14956 -3.199637,-6.470202 -1.328439,-14.338265 2.95748,-19.840041 0.8645,-1.17667 1.810293,-2.292853 2.811018,-3.355341 z"
           style="fill:#21653c;fill-opacity:1;stroke-width:0.264583"
           id="path2893" />
        <path
           sodipodi:nodetypes="cccccccccccccccccccssccccccccccccccccccccccccccccc"
           style="fill:#2f568d;fill-opacity:1;stroke-width:0.264583"
           d="m 98.022254,90.167966 c -1.047648,7.235591 -7.706245,11.662734 -13.494529,15.141574 -2.611502,1.50796 -0.432572,0.24877 -1.785018,0.98488 0.03548,-1.1393 0.286914,-4.07834 0.539356,-4.92471 1.791524,-6.016382 8.903478,-13.600337 14.037229,-15.780421 0.378349,1.475299 0.926298,1.721154 0.703225,4.578741 z m -7.497523,36.846414 c -2.281243,-2.7323 -5.806019,-4.16921 -9.303256,-4.40813 0.265067,-2.94292 0.529696,-5.88587 0.794021,-8.82652 6.606966,-3.958 13.88614,-8.64767 16.137677,-16.500351 1.373413,-5.01209 1.971927,-10.711732 -0.19022,-15.586792 -3.914518,-0.655196 -7.751487,3.262019 -10.491505,5.609672 -4.849079,5.20869 -5.867449,12.739361 -6.175866,19.565411 -2.35845,1.70207 -5.329811,2.86746 -7.683715,4.66413 -6.607672,3.90745 -12.98124,9.82356 -13.98419,17.84132 -1.438132,7.63748 2.277743,15.98109 9.252567,19.59634 2.640634,1.40375 5.602829,2.20622 8.588329,2.34859 -0.752996,5.20781 -0.251654,11.03306 -3.576201,15.45047 -2.471681,3.22249 -7.747406,4.96378 -11.195445,2.81569 -2.76788,-1.72436 -3.903268,-2.8865 -3.574615,-6.68095 0.09393,-1.08446 1.186336,-3.03083 2.347972,-4.01656 l -0.735553,-0.68862 c -2.70234,1.7947 -4.03903,5.84398 -2.347358,8.8381 2.199522,4.18391 7.934525,5.09513 12.096755,3.73556 4.752258,-1.66004 6.578809,-6.87706 7.232276,-11.55323 0.218644,-1.57132 0.572626,-6.25878 0.878337,-7.90218 1.713816,-0.17568 0.505166,-0.0171 2.945961,-0.352 6.59727,-0.90202 12.21426,-7.20549 12.08042,-14.10047 0.09778,-3.49688 -0.740547,-7.16635 -3.09611,-9.84987 z M 88.59397,140.3383 c -0.622774,4.61894 -4.780833,9.18138 -9.715156,9.49997 0.134181,-1.87245 0.173043,-2.38061 0.225835,-3.4798 0.276968,-5.82806 1.089299,-11.6852 1.634184,-17.52893 3.765284,0.5234 7.51334,3.14847 7.878602,7.17143 0.231241,1.43987 0.109741,2.89601 -0.02364,4.33728 z m -14.524051,8.88346 c -5.828632,-1.09495 -10.413881,-6.38294 -10.467338,-12.35455 -0.496707,-5.28249 1.378458,-10.75843 5.46874,-14.24459 3.466096,-3.22734 7.61656,-5.56978 11.629793,-8.02985 -0.21271,2.64889 -0.425451,5.29786 -0.638223,7.94918 -7.194013,0.10579 -13.936957,7.89886 -11.406672,15.05465 0.778819,2.02262 3.232205,6.12272 5.342837,5.22983 -2.111372,-2.15605 -3.495026,-5.31485 -2.29695,-8.29919 0.526942,-2.94323 4.713723,-5.81847 7.769466,-5.75512 -0.603156,6.72822 -1.246771,14.24938 -1.850484,20.97992 -1.19797,-0.0545 -2.387339,-0.2445 -3.551109,-0.53054 z"
           id="path897" />
        <path
           d="m 57.741888,164.16765 0.111015,-0.10812 q 0.487218,-0.38824 2.754314,-1.12614 2.112804,-0.67427 2.685437,-0.88599 l -2.552578,-2.61927 q -0.36775,-0.37735 -0.408182,-0.64089 0.0034,-0.26298 0.358546,-0.60909 0.199756,-0.19472 0.462728,-0.19134 0.306794,0.004 0.501494,0.20374 l 2.574211,2.64146 0.27258,-0.7417 q 0.56963,-1.68036 0.81889,-2.31277 0.183236,-0.61135 0.430221,-1.06845 0.180398,-0.3922 0.357974,-0.56526 0.22198,-0.21632 0.528197,-0.16856 0.306242,0.0478 0.544192,0.29195 0.25958,0.26636 -0.03745,1.20503 -0.296484,0.89482 -0.860446,2.13689 -0.494554,0.95803 -0.631141,1.35079 l 0.772377,-0.40651 q 1.235685,-0.64163 2.337656,-1.10957 1.409908,-0.55164 1.842521,-0.10775 0.237954,0.24417 0.211235,0.61643 0.01709,0.37283 -0.204863,0.58916 -0.532727,0.51917 -3.263162,1.49215 -0.594257,0.18952 -0.968765,0.33819 -0.330702,0.14916 -0.506565,0.19077 0.518042,0.62039 0.929045,1.04213 l 0.671722,0.60045 0.844778,0.77804 q 1.103239,1.13206 0.437323,1.78101 -0.554938,0.5408 -1.312053,-0.2361 l -1.361682,-1.48608 q -0.582933,-0.68698 -1.361687,-1.48607 -0.248129,0.54475 -0.887164,2.50915 -0.775054,2.31334 -1.219001,2.74598 -0.24417,0.23795 -0.572603,0.21181 -0.306795,-0.004 -0.544753,-0.24812 -0.367745,-0.37736 -0.206716,-0.96707 0.204862,-0.58916 0.69433,-1.15272 l 1.155793,-2.94405 q -0.440559,0.16962 -0.661397,0.29831 l -0.81559,0.3622 q -2.22719,1.04534 -3.43562,1.27081 l -0.497544,-0.51055 z"
           style="font-style:normal;font-variant:normal;font-weight:bold;font-stretch:normal;font-size:30.9945px;font-family:'Amatic SC';-inkscape-font-specification:'Amatic SC Bold';text-align:center;text-anchor:middle;fill:#e39928;fill-opacity:1;stroke:none;stroke-width:5.80964;stroke-linecap:round"
           id="path1115" />
        <g
           id="g11025"
           transform="matrix(-0.6281225,0.37817101,0.37817101,0.6281225,159.25067,-251.21949)"
           inkscape:transform-center-x="9.8989152"
           inkscape:transform-center-y="-13.197054">
          <path
             id="path11017"
             style="opacity:1;fill:#1f1f1f;fill-opacity:1;fill-rule:evenodd;stroke:none;stroke-width:0.136432;stroke-miterlimit:4;stroke-dashoffset:0;stroke-opacity:1"
             d="m 301.76984,301.77411 c -2.31651,1.24152 -3.55084,3.48894 -2.79156,5.17962 0.8099,1.80339 3.59296,2.31233 6.21216,1.13605 2.61919,-1.17629 4.08762,-3.59458 3.27771,-5.39796 -0.8099,-1.80339 -3.59295,-2.31233 -6.21215,-1.13605 -0.16369,0.0735 -0.33172,0.13557 -0.48616,0.21834 z"
             inkscape:transform-center-y="-0.69841948"
             inkscape:transform-center-x="2.4333935" />
          <path
             id="path11019"
             style="fill:none;fill-opacity:0.75;fill-rule:evenodd;stroke:#1f1f1f;stroke-width:1.5;stroke-linecap:butt;stroke-linejoin:miter;stroke-miterlimit:4;stroke-dasharray:none;stroke-opacity:1"
             d="m 299.50465,305.98445 v 26.57342"
             sodipodi:nodetypes="cc" />
        </g>
        <g
           style="font-style:normal;font-variant:normal;font-weight:bold;font-stretch:normal;font-size:32.3822px;font-family:'Amatic SC';-inkscape-font-specification:'Amatic SC Bold';text-align:center;letter-spacing:-3.50186px;text-anchor:middle;opacity:1;fill:#dc268b;fill-opacity:1;stroke:none;stroke-width:7.64936;stroke-linecap:round;stroke-miterlimit:4;stroke-dasharray:none;stroke-opacity:1"
           id="text1069"
           transform="rotate(-29.67023,10.819091,36.837763)"
           aria-label="&lt;&lt;&lt;">
          <path
             sodipodi:nodetypes="sccccccsccaccsccass"
             id="path1075"
             style="font-style:normal;font-variant:normal;font-weight:bold;font-stretch:normal;font-family:'Amatic SC';-inkscape-font-specification:'Amatic SC Bold';fill:#ffa2d4;fill-opacity:1;stroke:none;stroke-width:7.64936"
             d="m -3.3846402,164.92662 c -0.431763,0 -0.917496,-0.31303 -1.457199,-0.93909 -0.518115,-0.64764 -1.03623,-1.50037 -1.554345,-2.55819 -0.777173,-1.57593 -1.61911,-3.58363 -2.525812,-6.02309 -0.431763,-1.07941 -0.69082,-1.70546 -0.777172,-1.87817 0.02159,-0.36699 0.388585,-1.54355 1.100994,-3.52966 0.733997,-1.98611 1.500375,-3.83189 2.299136,-5.53735 0.841937,-1.85658 1.414023,-2.78487 1.716257,-2.78487 h 0.03238 l 0.06476,0.0324 c 0,0 0.618331,0.26552 0.712409,0.5505 0.298864,0.90531 -0.34541,1.6299 -0.777173,2.75249 -0.410175,1.10099 -0.885114,2.15881 -1.424817,3.17345 -1.252111,2.50423 -1.878167,4.26366 -1.878167,5.2783 0,0.15112 0.712408,1.72705 2.137225,4.7278 1.446405,2.97916 2.374694,4.84653 2.784869,5.60212 0,0 0.249019,0.56378 0.129529,0.80956 -0.09718,0.19989 -0.323822,0.32382 -0.58288,0.32382 z" />
          <path
             sodipodi:nodetypes="sccccccsccaccsccass"
             id="path1077"
             style="font-style:normal;font-variant:normal;font-weight:bold;font-stretch:normal;font-family:'Amatic SC';-inkscape-font-specification:'Amatic SC Bold';fill:#f26db7;fill-opacity:1;stroke:none;stroke-width:7.64936"
             d="m -0.51427477,164.85232 c -0.4317627,0 -0.91749563,-0.31303 -1.45719893,-0.93909 -0.5181152,-0.64764 -1.0362304,-1.50037 -1.5543455,-2.55819 -0.7771725,-1.57593 -1.6191105,-3.58363 -2.5258115,-6.02309 -0.431763,-1.07941 -0.69082,-1.70546 -0.777173,-1.87817 0.02159,-0.36699 0.388585,-1.54355 1.100995,-3.52966 0.733997,-1.98611 1.500375,-3.83189 2.2991361,-5.53735 0.8419371,-1.85658 1.4140226,-2.78487 1.7162565,-2.78487 h 0.032382 l 0.064764,0.0324 c 0,0 0.61833013,0.26552 0.71240833,0.5505 0.2988643,0.90531 -0.34541013,1.6299 -0.77717273,2.75249 -0.4101745,1.10099 -0.8851135,2.15881 -1.4248168,3.17345 -1.2521114,2.50423 -1.8781674,4.26366 -1.8781674,5.2783 0,0.15112 0.712409,1.72705 2.137225,4.7278 1.4464049,2.97916 2.37469463,4.84653 2.78486913,5.60212 0,0 0.2490191,0.56378 0.1295288,0.80956 -0.097181,0.19989 -0.323822,0.32382 -0.5828796,0.32382 z" />
          <path
             sodipodi:nodetypes="sccccccsccaccsccass"
             id="path1079"
             style="font-style:normal;font-variant:normal;font-weight:bold;font-stretch:normal;font-family:'Amatic SC';-inkscape-font-specification:'Amatic SC Bold';fill:#dc268b;fill-opacity:1;stroke:none;stroke-width:7.64936"
             d="m 2.1997076,164.72524 c -0.4317627,0 -0.9174956,-0.31303 -1.45719894,-0.93909 -0.51811517,-0.64764 -1.03623035,-1.50037 -1.55434552,-2.55819 -0.77717274,-1.57593 -1.61910994,-3.58363 -2.52581144,-6.02309 -0.4317627,-1.07941 -0.6908203,-1.70546 -0.7771728,-1.87817 0.021588,-0.36699 0.3885863,-1.54355 1.1009948,-3.52966 0.7339965,-1.98611 1.5003751,-3.83189 2.29913604,-5.53735 0.84193715,-1.85658 1.41402267,-2.78487 1.71625656,-2.78487 h 0.032382 l 0.064764,0.0324 c 0,0 0.6183302,0.26552 0.7124084,0.5505 0.2988643,0.90531 -0.3454101,1.6299 -0.7771728,2.75249 -0.41017448,1.10099 -0.88511337,2.15881 -1.42481668,3.17345 -1.25211172,2.50423 -1.87816752,4.26366 -1.87816752,5.2783 0,0.15112 0.7124084,1.72705 2.13722511,4.7278 1.44640489,2.97916 2.37469459,4.84653 2.78486909,5.60212 0,0 0.2490191,0.56378 0.1295288,0.80956 -0.097181,0.19989 -0.323822,0.32382 -0.5828796,0.32382 z" />
        </g>
        <text
           transform="rotate(-3.3040553)"
           id="text1091"
           y="96.886284"
           x="66.194397"
           style="font-style:normal;font-variant:normal;font-weight:bold;font-stretch:normal;font-size:7.47063px;font-family:'Amatic SC';-inkscape-font-specification:'Amatic SC Bold';text-align:center;text-anchor:middle;opacity:1;fill:#dc268b;fill-opacity:1;stroke:none;stroke-width:1.76472;stroke-linecap:round;stroke-miterlimit:4;stroke-dasharray:none;stroke-opacity:1"
           xml:space="preserve"><tspan
             style="stroke-width:1.76472"
             y="96.886284"
             x="66.194397"
             id="tspan1089"
             sodipodi:role="line" /></text>
        <g
           style="font-style:normal;font-variant:normal;font-weight:bold;font-stretch:normal;font-size:24.5764px;font-family:'Amatic SC';-inkscape-font-specification:'Amatic SC Bold';text-align:center;letter-spacing:-4.22409px;text-anchor:middle;opacity:1;fill:#83f5b8;fill-opacity:1;stroke:none;stroke-width:5.80547;stroke-linecap:round;stroke-miterlimit:4;stroke-dasharray:none;stroke-opacity:1"
           id="text5813"
           transform="rotate(-31.405772,0.03408036,-0.15502148)"
           aria-label="~~~~~">
          <path
             id="path5815"
             style="font-style:normal;font-variant:normal;font-weight:bold;font-stretch:normal;font-family:Arial;-inkscape-font-specification:'Arial Bold';fill:#83f5b8;fill-opacity:1;stroke-width:5.80547"
             d="m 15.353149,79.411974 v -3.108051 q 1.524025,-1.656027 3.552058,-1.656027 0.756012,0 1.392023,0.156003 0.63601,0.144002 2.280037,0.816013 1.656027,0.660011 2.244036,0.660011 0.672011,0 1.548026,-0.408007 0.888014,-0.420006 1.728028,-1.320021 v 3.240053 q -0.552009,0.576009 -1.548026,1.080017 -0.984016,0.504009 -2.040033,0.504009 -0.60001,0 -1.176019,-0.144003 -0.564009,-0.144002 -1.800029,-0.684011 -1.84803,-0.804013 -2.904048,-0.804013 -1.680027,0 -3.276053,1.668027 z" />
          <path
             id="path5817"
             style="font-style:normal;font-variant:normal;font-weight:bold;font-stretch:normal;font-family:Arial;-inkscape-font-specification:'Arial Bold';fill:#83f5b8;fill-opacity:1;stroke-width:5.80547"
             d="m 25.481292,79.411974 v -3.108051 q 1.524025,-1.656027 3.552058,-1.656027 0.756012,0 1.392023,0.156003 0.63601,0.144002 2.280037,0.816013 1.656027,0.660011 2.244037,0.660011 0.672011,0 1.548025,-0.408007 0.888014,-0.420006 1.728028,-1.320021 v 3.240053 q -0.552009,0.576009 -1.548025,1.080017 -0.984016,0.504009 -2.040033,0.504009 -0.60001,0 -1.17602,-0.144003 -0.564009,-0.144002 -1.800029,-0.684011 -1.84803,-0.804013 -2.904047,-0.804013 -1.680028,0 -3.276054,1.668027 z" />
          <path
             id="path5819"
             style="font-style:normal;font-variant:normal;font-weight:bold;font-stretch:normal;font-family:Arial;-inkscape-font-specification:'Arial Bold';fill:#83f5b8;fill-opacity:1;stroke-width:5.80547"
             d="m 35.609436,79.411974 v -3.108051 q 1.524024,-1.656027 3.552057,-1.656027 0.756013,0 1.392023,0.156003 0.636011,0.144002 2.280037,0.816013 1.656027,0.660011 2.244037,0.660011 0.672011,0 1.548025,-0.408007 0.888015,-0.420006 1.728028,-1.320021 v 3.240053 q -0.552009,0.576009 -1.548025,1.080017 -0.984016,0.504009 -2.040033,0.504009 -0.60001,0 -1.176019,-0.144003 -0.56401,-0.144002 -1.80003,-0.684011 -1.84803,-0.804013 -2.904047,-0.804013 -1.680027,0 -3.276053,1.668027 z" />
          <path
             id="path5821"
             style="font-style:normal;font-variant:normal;font-weight:bold;font-stretch:normal;font-family:Arial;-inkscape-font-specification:'Arial Bold';fill:#83f5b8;fill-opacity:1;stroke-width:5.80547"
             d="m 45.737581,79.411974 v -3.108051 q 1.524025,-1.656027 3.552058,-1.656027 0.756012,0 1.392022,0.156003 0.636011,0.144002 2.280038,0.816013 1.656027,0.660011 2.244036,0.660011 0.672011,0 1.548025,-0.408007 0.888015,-0.420006 1.728029,-1.320021 v 3.240053 q -0.552009,0.576009 -1.548026,1.080017 -0.984016,0.504009 -2.040033,0.504009 -0.60001,0 -1.176019,-0.144003 -0.564009,-0.144002 -1.800029,-0.684011 -1.848031,-0.804013 -2.904048,-0.804013 -1.680027,0 -3.276053,1.668027 z" />
          <path
             id="path5823"
             style="font-style:normal;font-variant:normal;font-weight:bold;font-stretch:normal;font-family:Arial;-inkscape-font-specification:'Arial Bold';fill:#83f5b8;fill-opacity:1;stroke-width:5.80547"
             d="m 55.865722,79.411974 v -3.108051 q 1.524025,-1.656027 3.552058,-1.656027 0.756012,0 1.392023,0.156003 0.63601,0.144002 2.280037,0.816013 1.656027,0.660011 2.244037,0.660011 0.67201,0 1.548025,-0.408007 0.888014,-0.420006 1.728028,-1.320021 v 3.240053 q -0.552009,0.576009 -1.548025,1.080017 -0.984016,0.504009 -2.040034,0.504009 -0.600009,0 -1.176019,-0.144003 -0.564009,-0.144002 -1.800029,-0.684011 -1.84803,-0.804013 -2.904047,-0.804013 -1.680028,0 -3.276054,1.668027 z" />
        </g>
        <g
           transform="rotate(-3.0495915,35.249784,111.42256)"
           id="g5903">
          <path
             sodipodi:nodetypes="cccccccscccccsccacc"
             id="path1086"
             style="font-style:normal;font-variant:normal;font-weight:bold;font-stretch:normal;font-size:32.3822px;font-family:'Amatic SC';-inkscape-font-specification:'Amatic SC Bold';text-align:center;letter-spacing:-6.00686px;text-anchor:middle;fill:#2d72c0;fill-opacity:1;stroke:none;stroke-width:10.1251;stroke-linecap:round;stroke-miterlimit:4;stroke-dasharray:none;stroke-opacity:1"
             d="m 27.93413,96.423335 c -0.48098,0.30867 -0.798293,1.004637 -0.951942,2.087896 -0.114166,1.091874 -0.08171,2.412219 0.09736,3.961019 0.260889,2.31118 0.758303,5.14964 1.492241,8.51538 0.290703,1.51112 0.449689,2.39374 0.476967,2.64787 0.286452,0.39339 1.536375,1.44169 3.749885,3.14489 2.237558,1.68776 4.410864,3.19605 6.519923,4.52487 2.265194,1.4663 3.566142,2.09142 3.902823,1.87535 l 0.03609,-0.0231 0.04899,-0.0824 0.400059,-1.12256 c -0.605509,-0.73188 -1.550012,-1.56875 -2.833537,-2.51062 -1.244036,-0.93325 -2.529362,-1.77211 -3.855966,-2.51658 -3.185136,-1.89453 -5.140389,-3.40693 -5.865775,-4.53725 -0.108009,-0.16835 -0.441076,-2.43323 -0.999111,-6.79464 -0.518554,-4.35281 -0.819456,-7.09668 -0.902702,-8.231633 0,0 -0.125647,-0.806066 -0.434465,-0.994435 -0.251162,-0.153202 -0.592238,-0.129231 -0.880825,0.05597 z" />
          <path
             d="m 29.045345,116.09843 c -1.101009,1.23414 -0.894423,1.63915 -0.649256,2.12997 0.286452,0.39339 1.536375,1.44169 3.749885,3.14489 2.237558,1.68776 3.377437,2.49203 5.486496,3.82085 2.265194,1.4663 3.566142,2.09142 3.902823,1.87535 l 0.03609,-0.0231 0.04899,-0.0824 0.400059,-1.12256 c -0.605509,-0.73188 -1.549602,-1.49337 -2.929513,-2.28735 -1.405492,-0.8087 -2.623933,-1.72817 -3.75999,-2.73985 -2.026911,-1.51867 -3.96872,-3.57672 -6.285584,-4.7158 z"
             style="font-style:normal;font-variant:normal;font-weight:bold;font-stretch:normal;font-size:32.3822px;font-family:'Amatic SC';-inkscape-font-specification:'Amatic SC Bold';text-align:center;letter-spacing:-6.00686px;text-anchor:middle;fill:#2d72c0;fill-opacity:1;stroke:none;stroke-width:10.1251;stroke-linecap:round;stroke-miterlimit:4;stroke-dasharray:none;stroke-opacity:1"
             id="path5895"
             sodipodi:nodetypes="ccccscccscc" />
        </g>
      </g>
      <use
         x="0"
         y="0"
         xlink:href="#g936"
         id="use938"
         transform="matrix(-1,0,0,1,204.03622,4.1783712e-8)"
         width="100%"
         height="100%" />
      <path
         d="m 97.842624,113.97654 c 0,1.87012 1.60831,2.58075 3.291436,2.58075 2.87999,0 5.08674,-2.13193 5.08674,-5.01192 0,-1.87014 -1.60831,-2.58076 -3.29143,-2.58076 -2.87999,0 -5.086746,2.13193 -5.086746,5.01193 z m 4.189086,-10.47274 c 1.60832,0 2.8426,1.30914 3.62806,2.73043 1.12207,1.98229 1.53351,4.22644 1.53351,6.50804 0,2.28154 -0.41143,4.5631 -1.53351,6.54539 -0.78546,1.42131 -2.01974,2.73044 -3.62806,2.73044 -1.6083,0 -2.84259,-1.30913 -3.628049,-2.73044 -1.122076,-1.98229 -1.533503,-4.26385 -1.533503,-6.54539 0,-2.2816 0.411423,-4.52575 1.533503,-6.50804 0.785459,-1.42129 2.019749,-2.73043 3.628049,-2.73043 z"
         id="path94"
         inkscape:connector-curvature="0"
         style="fill:#532a6e;fill-opacity:1;stroke-width:0.00702919" />
      <g
         transform="rotate(0.32652566,108.24639,142.63339)"
         style="font-style:normal;font-variant:normal;font-weight:bold;font-stretch:normal;font-size:28.5328px;font-family:Arial;-inkscape-font-specification:'Arial Bold';text-align:center;letter-spacing:-4.81491px;text-anchor:middle;opacity:1;fill:#e9f5ee;fill-opacity:0.875;stroke:none;stroke-width:6.74005;stroke-linecap:round;stroke-miterlimit:4;stroke-dasharray:none;stroke-opacity:1"
         id="text5840"
         aria-label="~~~">
        <path
           id="path5859"
           style="fill:#e9f5ee;fill-opacity:0.875;stroke-width:6.74005"
           d="m 82.772404,195.63987 v -3.6084 q 1.769368,-1.92262 4.123881,-1.92262 0.877718,0 1.616116,0.18112 0.738397,0.16718 2.647086,0.94737 1.92262,0.76627 2.605289,0.76627 0.780194,0 1.797233,-0.47369 1.03097,-0.48762 2.006212,-1.53253 v 3.76165 q -0.640873,0.66874 -1.797232,1.25388 -1.142427,0.58515 -2.368445,0.58515 -0.696602,0 -1.365339,-0.16718 -0.654806,-0.16719 -2.089805,-0.79413 -2.145533,-0.93345 -3.371552,-0.93345 -1.950484,0 -3.803444,1.93656 z" />
        <path
           id="path5861"
           style="fill:#e9f5ee;fill-opacity:0.875;stroke-width:6.74005"
           d="m 94.620204,195.63987 v -3.6084 q 1.769368,-1.92262 4.123881,-1.92262 0.877718,0 1.616115,0.18112 0.7384,0.16718 2.64709,0.94737 1.92262,0.76627 2.60529,0.76627 0.78019,0 1.79723,-0.47369 1.03097,-0.48762 2.00621,-1.53253 v 3.76165 q -0.64087,0.66874 -1.79723,1.25388 -1.14243,0.58515 -2.36845,0.58515 -0.6966,0 -1.36534,-0.16718 -0.6548,-0.16719 -2.0898,-0.79413 -2.145533,-0.93345 -3.371552,-0.93345 -1.950484,0 -3.803444,1.93656 z" />
        <path
           id="path5863"
           style="fill:#e9f5ee;fill-opacity:0.875;stroke-width:6.74005"
           d="m 106.468,195.63987 v -3.6084 q 1.76937,-1.92262 4.12389,-1.92262 0.87771,0 1.61611,0.18112 0.7384,0.16718 2.64709,0.94737 1.92262,0.76627 2.60529,0.76627 0.78019,0 1.79723,-0.47369 1.03097,-0.48762 2.00621,-1.53253 v 3.76165 q -0.64087,0.66874 -1.79723,1.25388 -1.14243,0.58515 -2.36845,0.58515 -0.6966,0 -1.36533,-0.16718 -0.65481,-0.16719 -2.08981,-0.79413 -2.14553,-0.93345 -3.37155,-0.93345 -1.95049,0 -3.80345,1.93656 z" />
      </g>
      <g
         transform="matrix(1.0526321,0.08723273,-0.07767478,0.99709676,10.037326,-8.3594531)"
         style="font-style:normal;font-variant:normal;font-weight:bold;font-stretch:normal;font-size:28.5328px;font-family:Arial;-inkscape-font-specification:'Arial Bold';text-align:center;letter-spacing:-4.81491px;text-anchor:middle;opacity:1;fill:#defceb;fill-opacity:0.689516;stroke:none;stroke-width:6.74005;stroke-linecap:round;stroke-miterlimit:4;stroke-dasharray:none;stroke-opacity:1"
         id="text5846"
         aria-label="~~~">
        <path
           id="path5866"
           style="fill:#defceb;fill-opacity:0.689516;stroke-width:6.74005"
           d="m 82.772404,206.29486 v -3.60839 q 1.769368,-1.92262 4.123881,-1.92262 0.877718,0 1.616116,0.18111 0.738397,0.16719 2.647086,0.94738 1.92262,0.76626 2.605289,0.76626 0.780194,0 1.797233,-0.47368 1.03097,-0.48763 2.006212,-1.53253 v 3.76165 q -0.640873,0.66874 -1.797232,1.25388 -1.142427,0.58515 -2.368445,0.58515 -0.696602,0 -1.365339,-0.16719 -0.654806,-0.16718 -2.089805,-0.79412 -2.145533,-0.93345 -3.371552,-0.93345 -1.950484,0 -3.803444,1.93655 z" />
        <path
           id="path5868"
           style="fill:#defceb;fill-opacity:0.689516;stroke-width:6.74005"
           d="m 94.620204,206.29486 v -3.60839 q 1.769368,-1.92262 4.123881,-1.92262 0.877718,0 1.616115,0.18111 0.7384,0.16719 2.64709,0.94738 1.92262,0.76626 2.60529,0.76626 0.78019,0 1.79723,-0.47368 1.03097,-0.48763 2.00621,-1.53253 v 3.76165 q -0.64087,0.66874 -1.79723,1.25388 -1.14243,0.58515 -2.36845,0.58515 -0.6966,0 -1.36534,-0.16719 -0.6548,-0.16718 -2.0898,-0.79412 -2.145533,-0.93345 -3.371552,-0.93345 -1.950484,0 -3.803444,1.93655 z" />
        <path
           id="path5870"
           style="fill:#defceb;fill-opacity:0.689516;stroke-width:6.74005"
           d="m 106.468,206.29486 v -3.60839 q 1.76937,-1.92262 4.12389,-1.92262 0.87771,0 1.61611,0.18111 0.7384,0.16719 2.64709,0.94738 1.92262,0.76626 2.60529,0.76626 0.78019,0 1.79723,-0.47368 1.03097,-0.48763 2.00621,-1.53253 v 3.76165 q -0.64087,0.66874 -1.79723,1.25388 -1.14243,0.58515 -2.36845,0.58515 -0.6966,0 -1.36533,-0.16719 -0.65481,-0.16718 -2.08981,-0.79412 -2.14553,-0.93345 -3.37155,-0.93345 -1.95049,0 -3.80345,1.93655 z" />
      </g>
      <g
         transform="matrix(1.1040384,0.13945949,-0.12539122,0.99210739,14.928048,-13.376966)"
         style="font-style:normal;font-variant:normal;font-weight:bold;font-stretch:normal;font-size:28.5328px;font-family:Arial;-inkscape-font-specification:'Arial Bold';text-align:center;letter-spacing:-4.81491px;text-anchor:middle;opacity:1;fill:#d5fae5;fill-opacity:0.717742;stroke:none;stroke-width:6.74005;stroke-linecap:round;stroke-miterlimit:4;stroke-dasharray:none;stroke-opacity:1"
         id="text5850"
         aria-label="~~~">
        <path
           id="path5852"
           style="fill:#d5fae5;fill-opacity:0.717742;stroke-width:6.74005"
           d="m 82.772404,216.94988 v -3.6084 q 1.769368,-1.92262 4.123881,-1.92262 0.877718,0 1.616116,0.18112 0.738397,0.16718 2.647086,0.94738 1.92262,0.76626 2.605289,0.76626 0.780194,0 1.797233,-0.47369 1.03097,-0.48762 2.006212,-1.53252 v 3.76164 q -0.640873,0.66874 -1.797232,1.25389 -1.142427,0.58514 -2.368445,0.58514 -0.696602,0 -1.365339,-0.16718 -0.654806,-0.16719 -2.089805,-0.79413 -2.145533,-0.93344 -3.371552,-0.93344 -1.950484,0 -3.803444,1.93655 z" />
        <path
           id="path5854"
           style="fill:#d5fae5;fill-opacity:0.717742;stroke-width:6.74005"
           d="m 94.620204,216.94988 v -3.6084 q 1.769368,-1.92262 4.123881,-1.92262 0.877718,0 1.616115,0.18112 0.7384,0.16718 2.64709,0.94738 1.92262,0.76626 2.60529,0.76626 0.78019,0 1.79723,-0.47369 1.03097,-0.48762 2.00621,-1.53252 v 3.76164 q -0.64087,0.66874 -1.79723,1.25389 -1.14243,0.58514 -2.36845,0.58514 -0.6966,0 -1.36534,-0.16718 -0.6548,-0.16719 -2.0898,-0.79413 -2.145533,-0.93344 -3.371552,-0.93344 -1.950484,0 -3.803444,1.93655 z" />
        <path
           id="path5856"
           style="fill:#d5fae5;fill-opacity:0.717742;stroke-width:6.74005"
           d="m 106.468,216.94988 v -3.6084 q 1.76937,-1.92262 4.12389,-1.92262 0.87771,0 1.61611,0.18112 0.7384,0.16718 2.64709,0.94738 1.92262,0.76626 2.60529,0.76626 0.78019,0 1.79723,-0.47369 1.03097,-0.48762 2.00621,-1.53252 v 3.76164 q -0.64087,0.66874 -1.79723,1.25389 -1.14243,0.58514 -2.36845,0.58514 -0.6966,0 -1.36533,-0.16718 -0.65481,-0.16719 -2.08981,-0.79413 -2.14553,-0.93344 -3.37155,-0.93344 -1.95049,0 -3.80345,1.93655 z" />
      </g>
    </g>
  </g>
</svg>
