<?xml version="1.0" standalone="no"?>
<!DOCTYPE svg PUBLIC "-//W3C//DTD SVG 20010904//EN"
 "http://www.w3.org/TR/2001/REC-SVG-20010904/DTD/svg10.dtd">
<svg version="1.0" xmlns="http://www.w3.org/2000/svg"
 width="700.000000pt" height="700.000000pt" viewBox="0 0 700.000000 700.000000"
 preserveAspectRatio="xMidYMid meet">
<metadata>
Created by potrace 1.14, written by Peter Selinger 2001-2017
</metadata>
<g transform="translate(0.000000,700.000000) scale(0.100000,-0.100000)"
fill="#000000" stroke="none">
<path d="M3796 5625 c-22 -7 -50 -24 -62 -37 -13 -13 -57 -115 -104 -243 -147
-395 -171 -458 -176 -467 -3 -4 -19 1 -35 13 -63 44 -141 33 -189 -28 -20 -25
-23 -26 -33 -11 -268 386 -424 602 -443 615 -39 25 -114 25 -170 -1 -129 -61
-95 -189 50 -189 53 0 93 15 135 52 14 12 28 18 31 14 7 -8 181 -257 279 -398
30 -44 67 -97 82 -118 26 -36 27 -39 13 -89 -14 -54 -13 -213 1 -275 l7 -31
-93 33 c-552 198 -1086 233 -1460 95 -285 -105 -495 -275 -664 -538 -92 -144
-134 -273 -141 -433 -8 -210 64 -378 237 -550 149 -148 309 -225 496 -236 118
-8 194 8 303 60 119 58 212 151 271 273 42 85 44 93 44 179 0 106 -17 146 -91
219 -136 135 -319 134 -446 -2 -69 -74 -100 -133 -105 -206 -14 -172 112 -300
300 -305 39 -1 34 -14 -22 -55 -85 -63 -169 -80 -298 -63 -140 19 -298 118
-375 235 -29 44 -50 131 -50 213 0 43 2 81 5 87 4 5 9 24 12 43 9 49 66 176
121 269 161 270 398 499 625 604 94 43 252 91 349 106 41 6 89 14 105 17 33 5
272 5 320 -1 182 -22 222 -29 365 -67 63 -17 135 -35 159 -41 l44 -10 -31 -14
c-57 -24 -125 -77 -217 -169 -189 -188 -250 -389 -255 -833 0 -17 -24 -38
-107 -93 -434 -286 -620 -503 -678 -794 -12 -56 -14 -230 -4 -283 16 -87 54
-188 98 -262 42 -70 139 -177 198 -218 115 -79 302 -137 435 -135 l27 1 -4
-168 c-6 -202 -23 -309 -64 -396 -82 -175 -297 -273 -453 -205 -27 11 -48 23
-48 26 0 4 4 4 9 0 17 -10 38 34 62 126 13 49 26 89 29 89 4 0 35 -27 71 -60
35 -33 67 -60 71 -60 4 0 14 7 22 16 21 21 10 39 -58 98 -54 46 -68 66 -46 66
13 0 129 57 154 75 27 20 14 67 -17 61 -35 -7 -73 -23 -116 -51 -22 -14 -43
-25 -45 -25 -3 0 6 29 19 65 14 36 25 79 25 95 0 25 -4 30 -23 30 -28 0 -37
-17 -63 -117 -10 -40 -21 -73 -24 -73 -3 1 -30 23 -60 50 -30 28 -60 50 -67
50 -16 0 -78 -74 -99 -118 -9 -19 -19 -63 -22 -98 -4 -51 0 -70 20 -115 58
-125 180 -190 342 -183 160 7 276 76 340 203 22 41 46 108 52 141 3 14 7 32 9
40 11 40 20 159 25 353 3 80 8 89 50 95 47 6 137 32 183 52 151 67 285 236
317 400 41 206 -25 432 -159 553 -80 71 -219 127 -316 127 l-41 0 2 133 c1 72
3 152 4 177 l1 45 109 79 c120 86 277 229 325 295 17 22 33 41 38 41 17 0 29
-62 31 -170 3 -112 21 -212 51 -270 7 -15 14 -80 17 -165 8 -207 31 -270 189
-507 123 -183 153 -250 165 -363 7 -61 16 -77 40 -68 11 4 12 20 7 72 -14 131
-8 167 53 342 113 325 124 445 59 657 -10 34 -14 69 -10 100 16 124 -3 287
-39 347 -9 15 -9 31 -1 62 l10 41 65 -49 c73 -55 281 -161 412 -210 76 -28 87
-35 92 -60 3 -16 5 -30 5 -32 0 -1 5 -15 11 -32 7 -16 13 -37 15 -45 2 -8 15
-55 29 -105 13 -49 21 -93 18 -96 -4 -4 -25 -12 -47 -19 -191 -61 -329 -244
-338 -445 -11 -237 82 -430 263 -550 106 -69 174 -89 319 -91 l124 -1 12 -39
c7 -22 23 -73 35 -114 78 -269 138 -383 247 -470 102 -82 254 -98 401 -42 125
48 202 140 216 261 4 38 -16 122 -37 154 -46 69 -116 122 -150 113 -12 -3 -37
-30 -55 -61 -18 -30 -36 -55 -40 -55 -4 0 -28 35 -53 78 -31 52 -53 78 -68 80
-47 7 -31 -55 37 -146 13 -17 22 -32 20 -32 -3 0 -39 9 -82 20 -91 23 -131 16
-117 -22 9 -24 46 -38 154 -59 l57 -10 -50 -72 c-27 -39 -50 -77 -50 -84 0
-15 37 -36 49 -28 5 3 29 37 52 75 24 39 46 70 50 70 3 0 30 -40 59 -89 36
-62 59 -91 74 -93 18 -3 15 -7 -21 -35 -103 -82 -283 -78 -409 8 -107 73 -170
187 -240 436 -52 186 -51 170 -12 178 54 12 198 82 257 127 194 146 294 356
287 598 -4 123 -7 145 -36 231 -107 318 -344 505 -879 690 -63 21 -120 44
-127 50 -7 5 -17 32 -23 58 -18 83 -72 242 -111 327 -83 180 -189 298 -348
388 -96 55 -235 110 -246 98 -3 -3 -6 -1 -6 4 0 15 271 162 385 209 251 103
422 139 660 139 126 -1 182 -6 263 -23 235 -50 472 -182 686 -382 217 -203
306 -366 294 -540 -16 -222 -277 -445 -509 -434 -61 3 -180 49 -163 64 5 4 31
16 57 25 71 27 128 75 161 136 39 72 43 171 9 240 -32 65 -107 136 -182 173
-84 41 -180 45 -252 9 -131 -64 -217 -224 -190 -354 34 -160 209 -323 399
-373 353 -91 712 147 852 564 87 259 -19 580 -262 793 -214 188 -436 294 -693
331 -120 18 -322 15 -435 -7 -163 -30 -322 -77 -465 -137 -171 -71 -335 -158
-495 -263 -58 -38 -114 -75 -125 -82 -18 -12 -20 -11 -21 14 -5 120 -25 200
-66 275 l-25 44 63 169 c35 93 72 192 83 219 10 28 36 95 56 150 21 55 39 101
40 103 2 2 18 -6 36 -17 45 -28 119 -28 176 0 45 22 59 39 67 82 13 72 -111
127 -208 92z m-328 -926 c93 -32 70 -207 -36 -267 -78 -44 -175 -37 -209 14
-23 36 -14 132 18 178 45 67 150 102 227 75z m154 -478 c66 -23 230 -112 258
-141 3 -3 30 -24 60 -47 76 -58 180 -167 228 -238 53 -79 108 -245 82 -245 -6
0 -63 20 -125 44 -326 128 -493 262 -565 454 -29 76 -29 192 -1 192 4 0 33 -9
63 -19z m-144 -23 c1 -83 44 -245 98 -365 l24 -55 -31 -35 c-28 -32 -59 -89
-74 -138 -6 -18 -7 -17 -23 6 -29 44 -65 83 -103 112 -35 26 -36 30 -28 65 20
92 27 246 15 347 l-7 60 51 1 c28 0 56 6 62 12 16 16 15 16 16 -10z m-183 -53
c51 -153 -35 -369 -217 -541 -85 -81 -301 -244 -322 -244 -4 0 -6 42 -5 93 1
72 7 108 29 168 49 136 148 287 274 418 76 79 205 176 217 164 4 -5 15 -30 24
-58z m465 -799 c29 -91 14 -259 -32 -356 -19 -38 -110 -181 -114 -178 -2 2
-10 55 -18 118 -8 63 -17 131 -20 150 -3 19 -8 58 -11 85 -3 28 -8 69 -11 92
l-6 43 31 -11 c25 -9 37 -7 69 11 22 12 50 39 63 60 27 43 31 42 49 -14z
m-376 -70 c42 -20 65 -20 93 -1 26 18 28 13 38 -75 3 -30 7 -66 9 -80 2 -14 7
-52 11 -85 4 -32 8 -67 10 -76 2 -10 6 -46 10 -80 4 -35 9 -68 12 -73 11 -17
-39 22 -90 71 -126 120 -195 266 -190 401 1 12 1 33 2 46 l1 24 30 -28 c16
-15 45 -35 64 -44z m1178 -102 c383 -151 528 -263 617 -479 60 -143 73 -323
32 -444 -55 -160 -160 -264 -333 -331 -86 -33 -108 -37 -108 -16 0 8 -41 160
-91 338 -124 440 -124 439 -110 448 18 11 100 0 156 -21 81 -31 137 -79 174
-149 29 -55 34 -74 34 -135 1 -59 -4 -82 -31 -139 l-32 -68 27 7 c68 17 135
149 147 290 3 42 -21 142 -45 190 -80 155 -262 265 -442 269 l-72 1 -23 85
c-13 47 -25 95 -28 107 -2 12 -9 34 -14 48 -11 28 -13 55 -5 55 3 0 69 -25
147 -56z m-1874 -316 l-3 -152 -50 -11 c-161 -37 -309 -171 -367 -333 -15 -40
-21 -82 -21 -139 0 -72 4 -89 35 -155 43 -90 109 -164 163 -183 22 -7 44 -11
48 -8 4 2 -8 22 -27 43 -127 141 -117 326 24 447 46 40 109 72 153 80 l36 5
-5 -248 c-4 -208 -11 -493 -13 -568 -1 -17 -7 -18 -82 -12 -142 13 -253 58
-339 139 -117 109 -168 232 -174 415 -7 240 81 413 308 607 64 54 298 225 309
225 4 0 7 -68 5 -152z m1113 60 c21 -76 20 -208 -1 -282 -30 -105 -135 -300
-137 -255 -1 8 -4 52 -8 99 -6 72 -4 98 14 164 20 74 110 316 117 316 2 0 9
-19 15 -42z m-350 -138 c90 -127 146 -234 153 -295 3 -22 8 -57 10 -77 3 -21
2 -38 -3 -38 -16 0 -130 127 -170 190 -23 35 -51 93 -62 129 -21 66 -35 231
-19 215 5 -5 46 -61 91 -124z m1094 -236 c19 -65 48 -166 65 -224 18 -58 50
-175 71 -260 22 -85 43 -163 46 -174 5 -17 0 -18 -58 -13 -92 8 -172 41 -242
101 -119 101 -172 219 -172 381 0 78 4 97 27 140 14 28 44 67 65 87 44 43 144
101 155 90 5 -5 24 -62 43 -128z m-1669 -128 c71 -32 128 -87 160 -153 23 -46
28 -72 32 -159 5 -117 -5 -168 -51 -256 -55 -107 -177 -206 -275 -223 l-33 -5
5 302 c6 305 13 503 21 525 5 15 72 0 141 -31z m2677 -843 c34 -47 47 -74 37
-82 -7 -5 -149 14 -156 22 -6 5 66 107 75 107 5 0 25 -21 44 -47z m1 -154 l58
-13 -6 -34 c-3 -19 -15 -49 -28 -67 -22 -33 -22 -33 -33 -11 -7 12 -19 31 -29
42 -9 11 -29 40 -43 63 l-26 44 24 -6 c13 -3 50 -11 83 -18z m-3476 -280 c24
-23 41 -44 38 -47 -13 -12 -139 -61 -147 -56 -16 9 36 144 55 144 6 0 30 -19
54 -41z m42 -123 c0 -17 -43 -137 -51 -141 -5 -4 -7 -16 -3 -27 5 -17 3 -18
-15 -9 -25 14 -71 80 -70 101 0 18 139 94 139 76z"/>
<path d="M5694 5465 c-10 -7 -39 -40 -64 -74 -25 -33 -51 -63 -58 -66 -8 -3
-33 10 -56 29 -60 49 -93 60 -122 41 -43 -28 -29 -54 59 -105 40 -24 57 -40
57 -55 -1 -11 -23 -44 -50 -74 -53 -58 -61 -88 -32 -114 34 -31 56 -20 122 58
35 41 64 75 65 75 1 0 22 -16 46 -35 63 -50 119 -45 119 11 0 16 -17 33 -66
63 l-66 41 40 48 c42 51 69 99 66 120 -1 6 -2 16 -3 22 -2 20 -37 29 -57 15z"/>
<path d="M6269 5008 c-23 -29 -48 -63 -56 -75 -21 -31 -36 -29 -90 12 -77 59
-128 58 -128 -1 0 -24 8 -33 54 -59 30 -16 60 -40 68 -51 13 -20 10 -26 -42
-86 -30 -36 -55 -72 -55 -81 0 -17 46 -57 66 -57 7 0 42 36 77 79 l64 80 34
-28 c69 -57 100 -64 124 -27 22 33 11 51 -51 86 -29 17 -56 35 -59 41 -4 5 14
36 40 68 54 71 67 117 40 138 -30 21 -42 16 -86 -39z"/>
<path d="M864 4860 c-54 -21 -34 -74 53 -140 l63 -48 -55 -61 c-45 -51 -53
-65 -45 -80 9 -18 31 -31 53 -31 6 0 32 23 58 52 l48 51 76 -57 c82 -62 113
-67 136 -25 18 35 2 62 -66 107 -36 23 -65 48 -65 56 0 16 36 64 68 90 50 40
45 96 -7 96 -28 0 -69 -36 -113 -98 -19 -28 -35 -23 -108 37 -73 59 -74 59
-96 51z"/>
<path d="M618 4268 c-26 -28 -48 -55 -48 -60 0 -21 -37 -3 -102 47 -38 30 -76
55 -83 55 -13 0 -45 -26 -45 -37 0 -24 40 -75 85 -107 30 -22 55 -45 55 -51 0
-6 -18 -29 -41 -50 -58 -57 -62 -68 -39 -98 18 -22 24 -25 49 -16 16 6 43 30
60 55 l32 44 32 -22 c18 -12 50 -36 72 -53 58 -46 72 -49 101 -20 41 41 33 58
-66 129 -25 17 -46 40 -48 49 -2 10 17 39 47 69 55 56 65 90 32 108 -32 17
-42 12 -93 -42z"/>
</g>
</svg>
