<?xml version="1.0" encoding="UTF-8" standalone="no"?>
<svg
   xmlns:dc="http://purl.org/dc/elements/1.1/"
   xmlns:cc="http://creativecommons.org/ns#"
   xmlns:rdf="http://www.w3.org/1999/02/22-rdf-syntax-ns#"
   xmlns:svg="http://www.w3.org/2000/svg"
   xmlns="http://www.w3.org/2000/svg"
   xmlns:sodipodi="http://sodipodi.sourceforge.net/DTD/sodipodi-0.dtd"
   xmlns:inkscape="http://www.inkscape.org/namespaces/inkscape"
   inkscape:version="1.0 (4035a4f, 2020-05-01)"
   sodipodi:docname="snippet15.svg"
   id="svg27892"
   version="1.2"
   viewBox="0 0 2340 373.90817"
   height="373.90817"
   width="2340">
  <metadata
     id="metadata27898">
    <rdf:RDF>
      <cc:Work
         rdf:about="">
        <dc:format>image/svg+xml</dc:format>
        <dc:type
           rdf:resource="http://purl.org/dc/dcmitype/StillImage" />
        <dc:title>Batches2Partita5</dc:title>
      </cc:Work>
    </rdf:RDF>
  </metadata>
  <defs
     id="defs27896" />
  <sodipodi:namedview
     inkscape:current-layer="svg27892"
     inkscape:window-maximized="0"
     inkscape:window-y="23"
     inkscape:window-x="0"
     inkscape:cy="335.08326"
     inkscape:cx="682.74275"
     inkscape:zoom="0.15689774"
     showgrid="false"
     id="namedview27894"
     inkscape:window-height="855"
     inkscape:window-width="1073"
     inkscape:pageshadow="2"
     inkscape:pageopacity="0"
     guidetolerance="10"
     gridtolerance="10"
     objecttolerance="10"
     borderopacity="1"
     bordercolor="#666666"
     pagecolor="#ffffff" />
  <title
     id="title25242">Batches2Partita5</title>
  <desc
     id="desc25244">Generated by MuseScore 3.6.2</desc>
  <polyline
     transform="translate(-360,-2142.4918)"
     id="polyline25276"
     points="360,2295.49 2700,2295.49"
     stroke-linejoin="bevel"
     stroke-width="2.34"
     stroke="#000000"
     fill="none"
     class="StaffLines" />
  <polyline
     transform="translate(-360,-2142.4918)"
     id="polyline25278"
     points="360,2316.73 2700,2316.73"
     stroke-linejoin="bevel"
     stroke-width="2.34"
     stroke="#000000"
     fill="none"
     class="StaffLines" />
  <polyline
     transform="translate(-360,-2142.4918)"
     id="polyline25280"
     points="360,2337.97 2700,2337.97"
     stroke-linejoin="bevel"
     stroke-width="2.34"
     stroke="#000000"
     fill="none"
     class="StaffLines" />
  <polyline
     transform="translate(-360,-2142.4918)"
     id="polyline25282"
     points="360,2359.21 2700,2359.21"
     stroke-linejoin="bevel"
     stroke-width="2.34"
     stroke="#000000"
     fill="none"
     class="StaffLines" />
  <polyline
     transform="translate(-360,-2142.4918)"
     id="polyline25284"
     points="360,2380.45 2700,2380.45"
     stroke-linejoin="bevel"
     stroke-width="2.34"
     stroke="#000000"
     fill="none"
     class="StaffLines" />
  <polyline
     transform="translate(-360,-2142.4918)"
     id="polyline25428"
     points="868.975,2294.32 868.975,2381.62"
     stroke-linejoin="bevel"
     stroke-width="3.82"
     stroke="#000000"
     class="BarLine" />
  <polyline
     transform="translate(-360,-2142.4918)"
     id="polyline25430"
     points="1172.72,2294.32 1172.72,2381.62"
     stroke-linejoin="bevel"
     stroke-width="3.82"
     stroke="#000000"
     class="BarLine" />
  <polyline
     transform="translate(-360,-2142.4918)"
     id="polyline25432"
     points="1474.06,2294.32 1474.06,2381.62"
     stroke-linejoin="bevel"
     stroke-width="3.82"
     stroke="#000000"
     class="BarLine" />
  <polyline
     transform="translate(-360,-2142.4918)"
     id="polyline25434"
     points="1823.5,2294.32 1823.5,2381.62"
     stroke-linejoin="bevel"
     stroke-width="3.82"
     stroke="#000000"
     class="BarLine" />
  <polyline
     transform="translate(-360,-2142.4918)"
     id="polyline25436"
     points="2181.77,2294.32 2181.77,2381.62"
     stroke-linejoin="bevel"
     stroke-width="3.82"
     stroke="#000000"
     class="BarLine" />
  <polyline
     transform="translate(-360,-2142.4918)"
     id="polyline25438"
     points="2545.18,2294.32 2545.18,2381.62"
     stroke-linejoin="bevel"
     stroke-width="3.82"
     stroke="#000000"
     class="BarLine" />
  <path
     style="stroke-width:0.8496"
     id="path25468"
     d="m 378.67768,250.1924 c 0.50976,-0.085 0.93456,-0.67968 0.93456,-1.18944 v -5.01264 c 0,-0.67968 -0.50976,-1.18944 -1.18944,-1.18944 h -0.16992 l -2.80368,0.59472 v -12.65904 h -2.37888 v 13.1688 l -7.56144,1.52928 V 233.45528 H 363.13 v 12.48912 l -3.31344,0.67968 c -0.50976,0.085 -0.93456,0.67968 -0.93456,1.18944 v 0.16992 4.92768 -0.16992 c 0,0.67968 0.50976,1.18944 1.18944,1.18944 h 0.25488 l 2.80368,-0.59472 v 14.0184 l -3.31344,0.67968 c -0.50976,0.085 -0.93456,0.67968 -0.93456,1.18944 v 4.92768 c 0,0.67968 0.50976,1.18944 1.18944,1.18944 h 0.25488 l 2.80368,-0.59472 v 12.65904 h 2.37888 v -13.1688 l 7.56144,-1.52928 v 11.97936 h 2.37888 v -12.48912 l 3.22848,-0.59472 c 0.50976,-0.085 0.93456,-0.67968 0.93456,-1.18944 v -5.01264 c 0,-0.67968 -0.50976,-1.18944 -1.18944,-1.18944 h -0.16992 l -2.80368,0.59472 v -14.0184 l 3.22848,-0.59472 m -13.1688,16.73712 v -14.10336 l 7.56144,-1.52928 v 14.0184 l -7.56144,1.61424"
     class="Accidental" />
  <path
     style="stroke-width:0.8496"
     id="path25470"
     d="m 1963.9457,175.8524 c 0.5097,-0.085 0.9345,-0.67968 0.9345,-1.18944 v -5.01264 c 0,-0.67968 -0.5097,-1.18944 -1.1894,-1.18944 h -0.1699 l -2.8037,0.59472 v -12.65904 h -2.3789 v 13.1688 l -7.5614,1.52928 v -11.97936 h -2.3789 v 12.48912 l -3.3134,0.67968 c -0.5098,0.085 -0.9346,0.67968 -0.9346,1.18944 v 0.16992 4.92768 -0.16992 c 0,0.67968 0.5098,1.18944 1.1894,1.18944 h 0.2549 l 2.8037,-0.59472 v 14.0184 l -3.3134,0.67968 c -0.5098,0.085 -0.9346,0.67968 -0.9346,1.18944 v 4.92768 c 0,0.67968 0.5098,1.18944 1.1894,1.18944 h 0.2549 l 2.8037,-0.59472 v 12.65904 h 2.3789 v -13.1688 l 7.5614,-1.52928 v 11.97936 h 2.3789 v -12.48912 l 3.2285,-0.59472 c 0.5097,-0.085 0.9345,-0.67968 0.9345,-1.18944 v -5.01264 c 0,-0.67968 -0.5097,-1.18944 -1.1894,-1.18944 h -0.1699 l -2.8037,0.59472 v -14.0184 l 3.2285,-0.59472 m -13.1688,16.73712 v -14.10336 l 7.5614,-1.52928 v 14.0184 l -7.5614,1.61424"
     class="Accidental" />
  <path
     style="stroke-width:0.8496"
     id="path25500"
     d="m 271.91636,137.45048 c -0.16992,-0.16992 -0.4248,-0.25488 -0.67968,-0.25488 -0.085,0 -0.25488,0.085 -0.33984,0.085 l -10.70496,2.9736 v -14.868 H 257.813 v 42.0552 c 0,0.67968 0.50976,1.10448 1.18944,1.10448 h 0.33984 l 10.70496,-2.9736 v 14.868 h 2.29392 v -42.0552 c 0,-0.33984 -0.16992,-0.76464 -0.4248,-0.93456 m -1.86912,21.07008 -9.85536,2.71872 v -13.93344 l 9.85536,-2.80368 v 14.0184"
     class="Accidental" />
  <path
     style="stroke-width:0.8496"
     id="path25502"
     d="m 646.68668,175.8524 c 0.50976,-0.085 0.93456,-0.67968 0.93456,-1.18944 v -5.01264 c 0,-0.67968 -0.50976,-1.18944 -1.18944,-1.18944 h -0.16992 l -2.80368,0.59472 v -12.65904 h -2.37888 v 13.1688 l -7.56144,1.52928 V 159.11528 H 631.139 v 12.48912 l -3.31344,0.67968 c -0.50976,0.085 -0.93456,0.67968 -0.93456,1.18944 v 0.16992 4.92768 -0.16992 c 0,0.67968 0.50976,1.18944 1.18944,1.18944 h 0.25488 l 2.80368,-0.59472 v 14.0184 l -3.31344,0.67968 c -0.50976,0.085 -0.93456,0.67968 -0.93456,1.18944 v 4.92768 c 0,0.67968 0.50976,1.18944 1.18944,1.18944 h 0.25488 l 2.80368,-0.59472 v 12.65904 h 2.37888 v -13.1688 l 7.56144,-1.52928 v 11.97936 h 2.37888 v -12.48912 l 3.22848,-0.59472 c 0.50976,-0.085 0.93456,-0.67968 0.93456,-1.18944 v -5.01264 c 0,-0.67968 -0.50976,-1.18944 -1.18944,-1.18944 h -0.16992 l -2.80368,0.59472 v -14.0184 l 3.22848,-0.59472 m -13.1688,16.73712 v -14.10336 l 7.56144,-1.52928 v 14.0184 l -7.56144,1.61424"
     class="Accidental" />
  <path
     style="stroke-width:0.8496"
     id="path25504"
     d="m 1361.637,156.90632 c -0.5098,-3.31344 -2.5488,-6.45696 -6.8818,-6.45696 -4.248,0 -6.7118,2.63376 -7.1366,3.14352 l 0.3398,-27.27216 c 0,-0.67968 -0.5098,-1.18944 -1.1894,-1.18944 h -1.0196 c -0.6796,0 -1.1894,0.50976 -1.1894,1.18944 l 0.4248,51.06096 c 0,0.67968 0.5098,1.18944 1.1894,1.18944 0.17,0 0.5098,-0.085 0.6797,-0.16992 0.3399,-0.16992 5.8623,-2.88864 10.4501,-8.0712 3.2285,-3.65328 4.5029,-7.81632 4.5029,-11.29968 0,-0.76464 -0.085,-1.44432 -0.1699,-2.124 m -5.8623,3.31344 c 0,1.2744 -0.3398,5.18256 -2.4638,8.41104 -1.4443,2.20896 -4.333,4.50288 -5.9472,5.77728 l 0.2549,-16.5672 c 0.1699,-0.76464 1.4443,-3.22848 4.8427,-3.22848 3.0585,0 3.3134,2.88864 3.3134,4.6728 v 0.93456"
     class="Accidental" />
  <path
     style="stroke-width:0.8496"
     id="path25506"
     d="m 1500.967,156.90632 c -0.5098,-3.31344 -2.5488,-6.45696 -6.8818,-6.45696 -4.248,0 -6.7118,2.63376 -7.1366,3.14352 l 0.3398,-27.27216 c 0,-0.67968 -0.5098,-1.18944 -1.1894,-1.18944 h -1.0196 c -0.6796,0 -1.1894,0.50976 -1.1894,1.18944 l 0.4248,51.06096 c 0,0.67968 0.5098,1.18944 1.1894,1.18944 0.17,0 0.5098,-0.085 0.6797,-0.16992 0.3399,-0.16992 5.8623,-2.88864 10.4501,-8.0712 3.2285,-3.65328 4.5029,-7.81632 4.5029,-11.29968 0,-0.76464 -0.085,-1.44432 -0.1699,-2.124 m -5.8623,3.31344 c 0,1.2744 -0.3398,5.18256 -2.4638,8.41104 -1.4443,2.20896 -4.333,4.50288 -5.9472,5.77728 l 0.2549,-16.5672 c 0.1699,-0.76464 1.4443,-3.22848 4.8427,-3.22848 3.0585,0 3.3134,2.88864 3.3134,4.6728 v 0.93456"
     class="Accidental" />
  <path
     style="stroke-width:0.8496"
     id="path25508"
     d="m 1709.6634,148.07048 c -0.17,-0.16992 -0.4248,-0.25488 -0.6797,-0.25488 -0.085,0 -0.2549,0.085 -0.3399,0.085 l -10.7049,2.9736 v -14.868 h -2.3789 v 42.0552 c 0,0.67968 0.5098,1.10448 1.1894,1.10448 h 0.3399 l 10.7049,-2.9736 v 14.868 h 2.294 v -42.0552 c 0,-0.33984 -0.17,-0.76464 -0.4248,-0.93456 m -1.8692,21.07008 -9.8553,2.71872 v -13.93344 l 9.8553,-2.80368 v 14.0184"
     class="Accidental" />
  <polyline
     transform="translate(-360,-2142.4918)"
     id="polyline25598"
     points="744.921,2401.69 787.394,2401.69"
     stroke-linejoin="bevel"
     stroke-width="3.4"
     stroke="#000000"
     class="LedgerLine" />
  <polyline
     transform="translate(-360,-2142.4918)"
     id="polyline25600"
     points="1005.5,2422.93 1047.97,2422.93"
     stroke-linejoin="bevel"
     stroke-width="3.4"
     stroke="#000000"
     class="LedgerLine" />
  <polyline
     transform="translate(-360,-2142.4918)"
     id="polyline25602"
     points="1005.5,2401.69 1047.97,2401.69"
     stroke-linejoin="bevel"
     stroke-width="3.4"
     stroke="#000000"
     class="LedgerLine" />
  <polyline
     transform="translate(-360,-2142.4918)"
     id="polyline25604"
     points="1530.72,2422.93 1573.2,2422.93"
     stroke-linejoin="bevel"
     stroke-width="3.4"
     stroke="#000000"
     class="LedgerLine" />
  <polyline
     transform="translate(-360,-2142.4918)"
     id="polyline25606"
     points="1530.72,2401.69 1573.2,2401.69"
     stroke-linejoin="bevel"
     stroke-width="3.4"
     stroke="#000000"
     class="LedgerLine" />
  <polyline
     transform="translate(-360,-2142.4918)"
     id="polyline25608"
     points="1719.68,2422.93 1762.15,2422.93"
     stroke-linejoin="bevel"
     stroke-width="3.4"
     stroke="#000000"
     class="LedgerLine" />
  <polyline
     transform="translate(-360,-2142.4918)"
     id="polyline25610"
     points="1719.68,2401.69 1762.15,2401.69"
     stroke-linejoin="bevel"
     stroke-width="3.4"
     stroke="#000000"
     class="LedgerLine" />
  <polyline
     transform="translate(-360,-2142.4918)"
     id="polyline25612"
     points="1859.01,2401.69 1901.49,2401.69"
     stroke-linejoin="bevel"
     stroke-width="3.4"
     stroke="#000000"
     class="LedgerLine" />
  <polyline
     transform="translate(-360,-2142.4918)"
     id="polyline25614"
     points="1963.48,2274.25 2005.96,2274.25"
     stroke-linejoin="bevel"
     stroke-width="3.4"
     stroke="#000000"
     class="LedgerLine" />
  <polyline
     transform="translate(-360,-2142.4918)"
     id="polyline25616"
     points="2067.95,2401.69 2110.43,2401.69"
     stroke-linejoin="bevel"
     stroke-width="3.4"
     stroke="#000000"
     class="LedgerLine" />
  <polyline
     transform="translate(-360,-2142.4918)"
     id="polyline25618"
     points="2216.21,2422.93 2258.69,2422.93"
     stroke-linejoin="bevel"
     stroke-width="3.4"
     stroke="#000000"
     class="LedgerLine" />
  <polyline
     transform="translate(-360,-2142.4918)"
     id="polyline25620"
     points="2216.21,2401.69 2258.69,2401.69"
     stroke-linejoin="bevel"
     stroke-width="3.4"
     stroke="#000000"
     class="LedgerLine" />
  <polyline
     transform="translate(-360,-2142.4918)"
     id="polyline25622"
     points="2322.75,2274.25 2365.23,2274.25"
     stroke-linejoin="bevel"
     stroke-width="3.4"
     stroke="#000000"
     class="LedgerLine" />
  <polyline
     transform="translate(-360,-2142.4918)"
     id="polyline25624"
     points="2322.75,2422.93 2365.23,2422.93"
     stroke-linejoin="bevel"
     stroke-width="3.4"
     stroke="#000000"
     class="LedgerLine" />
  <polyline
     transform="translate(-360,-2142.4918)"
     id="polyline25626"
     points="2322.75,2401.69 2365.23,2401.69"
     stroke-linejoin="bevel"
     stroke-width="3.4"
     stroke="#000000"
     class="LedgerLine" />
  <polyline
     transform="translate(-360,-2142.4918)"
     id="polyline25758"
     points="524.106,2393.92 524.106,2444.17"
     stroke-linejoin="bevel"
     stroke-width="2.34"
     stroke="#000000"
     class="Stem" />
  <polyline
     transform="translate(-360,-2142.4918)"
     id="polyline25760"
     points="753.523,2404.54 753.523,2452.13"
     stroke-linejoin="bevel"
     stroke-width="2.34"
     stroke="#000000"
     class="Stem" />
  <polyline
     transform="translate(-360,-2142.4918)"
     id="polyline25762"
     points="915.425,2393.92 915.425,2444.17"
     stroke-linejoin="bevel"
     stroke-width="2.34"
     stroke="#000000"
     class="Stem" />
  <polyline
     transform="translate(-360,-2142.4918)"
     id="polyline25764"
     points="1014.1,2425.78 1014.1,2470.72"
     stroke-linejoin="bevel"
     stroke-width="2.34"
     stroke="#000000"
     class="Stem" />
  <polyline
     transform="translate(-360,-2142.4918)"
     id="polyline25766"
     points="1201.29,2393.92 1201.29,2444.17"
     stroke-linejoin="bevel"
     stroke-width="2.34"
     stroke="#000000"
     class="Stem" />
  <polyline
     transform="translate(-360,-2142.4918)"
     id="polyline25768"
     points="1291.96,2393.92 1291.96,2444.17"
     stroke-linejoin="bevel"
     stroke-width="2.34"
     stroke="#000000"
     class="Stem" />
  <polyline
     transform="translate(-360,-2142.4918)"
     id="polyline25770"
     points="1382.64,2393.92 1382.64,2444.17"
     stroke-linejoin="bevel"
     stroke-width="2.34"
     stroke="#000000"
     class="Stem" />
  <polyline
     transform="translate(-360,-2142.4918)"
     id="polyline25772"
     points="1539.33,2340.82 1539.33,2481.34"
     stroke-linejoin="bevel"
     stroke-width="2.34"
     stroke="#000000"
     class="Stem" />
  <polyline
     transform="translate(-360,-2142.4918)"
     id="polyline25774"
     points="1728.28,2372.68 1728.28,2470.72"
     stroke-linejoin="bevel"
     stroke-width="2.34"
     stroke="#000000"
     class="Stem" />
  <polyline
     transform="translate(-360,-2142.4918)"
     id="polyline25776"
     points="1867.61,2372.68 1867.61,2460.1"
     stroke-linejoin="bevel"
     stroke-width="2.34"
     stroke="#000000"
     class="Stem" />
  <polyline
     transform="translate(-360,-2142.4918)"
     id="polyline25778"
     points="2076.56,2362.06 2076.56,2460.1"
     stroke-linejoin="bevel"
     stroke-width="2.34"
     stroke="#000000"
     class="Stem" />
  <polyline
     transform="translate(-360,-2142.4918)"
     id="polyline25780"
     points="2224.81,2351.44 2224.81,2470.72"
     stroke-linejoin="bevel"
     stroke-width="2.34"
     stroke="#000000"
     class="Stem" />
  <polyline
     transform="translate(-360,-2142.4918)"
     id="polyline25782"
     points="2331.35,2330.2 2331.35,2470.72"
     stroke-linejoin="bevel"
     stroke-width="2.34"
     stroke="#000000"
     class="Stem" />
  <polyline
     transform="translate(-360,-2142.4918)"
     id="polyline25784"
     points="2573.75,2351.44 2573.75,2444.17"
     stroke-linejoin="bevel"
     stroke-width="2.34"
     stroke="#000000"
     class="Stem" />
  <polyline
     transform="translate(-360,-2142.4918)"
     id="polyline26084"
     points="549.375,2335.25 549.375,2231.77"
     stroke-linejoin="bevel"
     stroke-width="2.34"
     stroke="#000000"
     class="Stem" />
  <polyline
     transform="translate(-360,-2142.4918)"
     id="polyline26086"
     points="664.083,2345.87 664.083,2239.73"
     stroke-linejoin="bevel"
     stroke-width="2.34"
     stroke="#000000"
     class="Stem" />
  <polyline
     transform="translate(-360,-2142.4918)"
     id="polyline26088"
     points="778.792,2356.49 778.792,2247.7"
     stroke-linejoin="bevel"
     stroke-width="2.34"
     stroke="#000000"
     class="Stem" />
  <polyline
     transform="translate(-360,-2142.4918)"
     id="polyline26090"
     points="940.694,2367.11 940.694,2239.73"
     stroke-linejoin="bevel"
     stroke-width="2.34"
     stroke="#000000"
     class="Stem" />
  <polyline
     transform="translate(-360,-2142.4918)"
     id="polyline26092"
     points="1039.37,2377.73 1039.37,2263.63"
     stroke-linejoin="bevel"
     stroke-width="2.34"
     stroke="#000000"
     class="Stem" />
  <polyline
     transform="translate(-360,-2142.4918)"
     id="polyline26094"
     points="1226.56,2367.11 1226.56,2255.66"
     stroke-linejoin="bevel"
     stroke-width="2.34"
     stroke="#000000"
     class="Stem" />
  <polyline
     transform="translate(-360,-2142.4918)"
     id="polyline26096"
     points="1317.23,2345.87 1317.23,2239.73"
     stroke-linejoin="bevel"
     stroke-width="2.34"
     stroke="#000000"
     class="Stem" />
  <polyline
     transform="translate(-360,-2142.4918)"
     id="polyline26098"
     points="1407.91,2345.87 1407.91,2239.73"
     stroke-linejoin="bevel"
     stroke-width="2.34"
     stroke="#000000"
     class="Stem" />
  <polyline
     transform="translate(-360,-2142.4918)"
     id="polyline26100"
     points="1564.59,2292.77 1564.59,2239.73"
     stroke-linejoin="bevel"
     stroke-width="2.34"
     stroke="#000000"
     class="Stem" />
  <polyline
     transform="translate(-360,-2142.4918)"
     id="polyline26102"
     points="1659.07,2303.39 1659.07,2247.7"
     stroke-linejoin="bevel"
     stroke-width="2.34"
     stroke="#000000"
     class="Stem" />
  <polyline
     transform="translate(-360,-2142.4918)"
     id="polyline26104"
     points="1753.55,2303.39 1753.55,2247.7"
     stroke-linejoin="bevel"
     stroke-width="2.34"
     stroke="#000000"
     class="Stem" />
  <polyline
     transform="translate(-360,-2142.4918)"
     id="polyline26106"
     points="1892.88,2303.39 1892.88,2247.7"
     stroke-linejoin="bevel"
     stroke-width="2.34"
     stroke="#000000"
     class="Stem" />
  <polyline
     transform="translate(-360,-2142.4918)"
     id="polyline26108"
     points="1997.35,2314.01 1997.35,2215.84"
     stroke-linejoin="bevel"
     stroke-width="2.34"
     stroke="#000000"
     class="Stem" />
  <polyline
     transform="translate(-360,-2142.4918)"
     id="polyline26110"
     points="2101.83,2314.01 2101.83,2247.7"
     stroke-linejoin="bevel"
     stroke-width="2.34"
     stroke="#000000"
     class="Stem" />
  <polyline
     transform="translate(-360,-2142.4918)"
     id="polyline26112"
     points="2250.08,2314.01 2250.08,2247.7"
     stroke-linejoin="bevel"
     stroke-width="2.34"
     stroke="#000000"
     class="Stem" />
  <polyline
     transform="translate(-360,-2142.4918)"
     id="polyline26114"
     points="2356.62,2271.53 2356.62,2223.8"
     stroke-linejoin="bevel"
     stroke-width="2.34"
     stroke="#000000"
     class="Stem" />
  <polyline
     transform="translate(-360,-2142.4918)"
     id="polyline26116"
     points="2463.16,2282.15 2463.16,2231.77"
     stroke-linejoin="bevel"
     stroke-width="2.34"
     stroke="#000000"
     class="Stem" />
  <polyline
     transform="translate(-360,-2142.4918)"
     id="polyline26118"
     points="2599.02,2292.77 2599.02,2239.73"
     stroke-linejoin="bevel"
     stroke-width="2.34"
     stroke="#000000"
     class="Stem" />
  <path
     style="stroke-width:0.8496"
     id="path26322"
     d="m 189.6994,241.6964 c -1.52928,-2.80368 -4.75776,-4.33296 -8.66592,-4.33296 -2.88864,0 -6.03216,0.8496 -9.09072,2.46384 -5.60736,2.9736 -9.00576,7.98624 -9.00576,12.3192 0,1.18944 0.25488,2.37888 0.8496,3.48336 1.52928,2.80368 4.75776,4.248 8.66592,4.248 2.88864,0 6.03216,-0.76464 9.09072,-2.37888 5.60736,-2.9736 9.00576,-7.98624 9.00576,-12.3192 0,-1.18944 -0.25488,-2.37888 -0.8496,-3.48336 m -3.65328,5.77728 c -1.44432,1.44432 -4.33296,3.22848 -7.39152,4.92768 -3.05856,1.6992 -6.11712,2.9736 -8.15616,3.3984 -0.4248,0.085 -0.8496,0.16992 -1.2744,0.16992 -1.35936,0 -2.37888,-0.50976 -2.9736,-1.61424 -0.25488,-0.4248 -0.4248,-0.93456 -0.4248,-1.44432 0,-0.93456 0.59472,-2.03904 1.52928,-2.9736 1.44432,-1.44432 4.248,-3.22848 7.30656,-4.92768 3.05856,-1.6992 6.11712,-2.9736 8.15616,-3.3984 0.4248,-0.085 0.8496,-0.16992 1.2744,-0.16992 1.35936,0 2.46384,0.50976 3.05856,1.61424 0.25488,0.4248 0.33984,0.93456 0.33984,1.44432 0,0.93456 -0.50976,1.95408 -1.44432,2.9736"
     class="Note" />
  <path
     style="stroke-width:0.8496"
     id="path26324"
     d="m 419.1174,252.3164 c -1.52928,-2.80368 -4.75776,-4.33296 -8.66592,-4.33296 -2.88864,0 -6.03216,0.8496 -9.09072,2.46384 -5.60736,2.9736 -9.00576,7.98624 -9.00576,12.3192 0,1.18944 0.25488,2.37888 0.8496,3.48336 1.52928,2.80368 4.75776,4.248 8.66592,4.248 2.88864,0 6.03216,-0.76464 9.09072,-2.37888 5.60736,-2.9736 9.00576,-7.98624 9.00576,-12.3192 0,-1.18944 -0.25488,-2.37888 -0.8496,-3.48336"
     class="Note" />
  <path
     style="stroke-width:0.8496"
     id="path26326"
     d="m 581.0194,241.6964 c -1.52928,-2.80368 -4.75776,-4.33296 -8.66592,-4.33296 -2.88864,0 -6.03216,0.8496 -9.09072,2.46384 -5.60736,2.9736 -9.00576,7.98624 -9.00576,12.3192 0,1.18944 0.25488,2.37888 0.8496,3.48336 1.52928,2.80368 4.75776,4.248 8.66592,4.248 2.88864,0 6.03216,-0.76464 9.09072,-2.37888 5.60736,-2.9736 9.00576,-7.98624 9.00576,-12.3192 0,-1.18944 -0.25488,-2.37888 -0.8496,-3.48336"
     class="Note" />
  <path
     style="stroke-width:0.8496"
     id="path26328"
     d="m 679.6924,273.5564 c -1.52928,-2.80368 -4.75776,-4.33296 -8.66592,-4.33296 -2.88864,0 -6.03216,0.8496 -9.09072,2.46384 -5.60736,2.9736 -9.00576,7.98624 -9.00576,12.3192 0,1.18944 0.25488,2.37888 0.8496,3.48336 1.52928,2.80368 4.75776,4.248 8.66592,4.248 2.88864,0 6.03216,-0.76464 9.09072,-2.37888 5.60736,-2.9736 9.00576,-7.98624 9.00576,-12.3192 0,-1.18944 -0.25488,-2.37888 -0.8496,-3.48336 m -3.65328,5.77728 c -1.44432,1.44432 -4.33296,3.22848 -7.39152,4.92768 -3.05856,1.6992 -6.11712,2.9736 -8.15616,3.3984 -0.4248,0.085 -0.8496,0.16992 -1.2744,0.16992 -1.35936,0 -2.37888,-0.50976 -2.9736,-1.61424 -0.25488,-0.4248 -0.4248,-0.93456 -0.4248,-1.44432 0,-0.93456 0.59472,-2.03904 1.52928,-2.9736 1.44432,-1.44432 4.248,-3.22848 7.30656,-4.92768 3.05856,-1.6992 6.11712,-2.9736 8.15616,-3.3984 0.4248,-0.085 0.8496,-0.16992 1.2744,-0.16992 1.35936,0 2.46384,0.50976 3.05856,1.61424 0.25488,0.4248 0.33984,0.93456 0.33984,1.44432 0,0.93456 -0.50976,1.95408 -1.44432,2.9736"
     class="Note" />
  <path
     style="stroke-width:0.8496"
     id="path26330"
     d="m 866.8824,241.6964 c -1.52928,-2.80368 -4.75776,-4.33296 -8.66592,-4.33296 -2.88864,0 -6.03216,0.8496 -9.09072,2.46384 -5.60736,2.9736 -9.00576,7.98624 -9.00576,12.3192 0,1.18944 0.25488,2.37888 0.8496,3.48336 1.52928,2.80368 4.75776,4.248 8.66592,4.248 2.88864,0 6.03216,-0.76464 9.09072,-2.37888 5.60736,-2.9736 9.00576,-7.98624 9.00576,-12.3192 0,-1.18944 -0.25488,-2.37888 -0.8496,-3.48336"
     class="Note" />
  <path
     style="stroke-width:0.8496"
     id="path26332"
     d="m 957.5524,241.6964 c -1.52928,-2.80368 -4.75776,-4.33296 -8.66592,-4.33296 -2.88864,0 -6.03216,0.8496 -9.09072,2.46384 -5.60736,2.9736 -9.00576,7.98624 -9.00576,12.3192 0,1.18944 0.25488,2.37888 0.8496,3.48336 1.52928,2.80368 4.75776,4.248 8.66592,4.248 2.88864,0 6.03216,-0.76464 9.09072,-2.37888 5.60736,-2.9736 9.00576,-7.98624 9.00576,-12.3192 0,-1.18944 -0.25488,-2.37888 -0.8496,-3.48336"
     class="Note" />
  <path
     style="stroke-width:0.8496"
     id="path26334"
     d="m 1048.2324,241.6964 c -1.5293,-2.80368 -4.7578,-4.33296 -8.6659,-4.33296 -2.8887,0 -6.0322,0.8496 -9.0907,2.46384 -5.6074,2.9736 -9.0058,7.98624 -9.0058,12.3192 0,1.18944 0.2549,2.37888 0.8496,3.48336 1.5293,2.80368 4.7578,4.248 8.6659,4.248 2.8887,0 6.0322,-0.76464 9.0907,-2.37888 5.6074,-2.9736 9.0058,-7.98624 9.0058,-12.3192 0,-1.18944 -0.2549,-2.37888 -0.8496,-3.48336"
     class="Note" />
  <path
     style="stroke-width:0.8496"
     id="path26336"
     d="m 1204.9224,284.1764 c -1.5293,-2.80368 -4.7578,-4.33296 -8.6659,-4.33296 -2.8887,0 -6.0322,0.8496 -9.0907,2.46384 -5.6074,2.9736 -9.0058,7.98624 -9.0058,12.3192 0,1.18944 0.2549,2.37888 0.8496,3.48336 1.5293,2.80368 4.7578,4.248 8.6659,4.248 2.8887,0 6.0322,-0.76464 9.0907,-2.37888 5.6074,-2.9736 9.0058,-7.98624 9.0058,-12.3192 0,-1.18944 -0.2549,-2.37888 -0.8496,-3.48336 m -3.6533,5.77728 c -1.4443,1.44432 -4.3329,3.22848 -7.3915,4.92768 -3.0586,1.6992 -6.1171,2.9736 -8.1562,3.3984 -0.4248,0.085 -0.8496,0.16992 -1.2744,0.16992 -1.3593,0 -2.3788,-0.50976 -2.9736,-1.61424 -0.2548,-0.4248 -0.4248,-0.93456 -0.4248,-1.44432 0,-0.93456 0.5948,-2.03904 1.5293,-2.9736 1.4443,-1.44432 4.248,-3.22848 7.3066,-4.92768 3.0585,-1.6992 6.1171,-2.9736 8.1561,-3.3984 0.4248,-0.085 0.8496,-0.16992 1.2744,-0.16992 1.3594,0 2.4639,0.50976 3.0586,1.61424 0.2549,0.4248 0.3398,0.93456 0.3398,1.44432 0,0.93456 -0.5097,1.95408 -1.4443,2.9736"
     class="Note" />
  <path
     style="stroke-width:0.8496"
     id="path26338"
     d="m 1204.9224,209.8364 c -1.5293,-2.80368 -4.7578,-4.33296 -8.6659,-4.33296 -2.8887,0 -6.0322,0.8496 -9.0907,2.46384 -5.6074,2.9736 -9.0058,7.98624 -9.0058,12.3192 0,1.18944 0.2549,2.37888 0.8496,3.48336 1.5293,2.80368 4.7578,4.248 8.6659,4.248 2.8887,0 6.0322,-0.76464 9.0907,-2.37888 5.6074,-2.9736 9.0058,-7.98624 9.0058,-12.3192 0,-1.18944 -0.2549,-2.37888 -0.8496,-3.48336 m -3.6533,5.77728 c -1.4443,1.44432 -4.3329,3.22848 -7.3915,4.92768 -3.0586,1.6992 -6.1171,2.9736 -8.1562,3.3984 -0.4248,0.085 -0.8496,0.16992 -1.2744,0.16992 -1.3593,0 -2.3788,-0.50976 -2.9736,-1.61424 -0.2548,-0.4248 -0.4248,-0.93456 -0.4248,-1.44432 0,-0.93456 0.5948,-2.03904 1.5293,-2.9736 1.4443,-1.44432 4.248,-3.22848 7.3066,-4.92768 3.0585,-1.6992 6.1171,-2.9736 8.1561,-3.3984 0.4248,-0.085 0.8496,-0.16992 1.2744,-0.16992 1.3594,0 2.4639,0.50976 3.0586,1.61424 0.2549,0.4248 0.3398,0.93456 0.3398,1.44432 0,0.93456 -0.5097,1.95408 -1.4443,2.9736"
     class="Note" />
  <path
     style="stroke-width:0.8496"
     id="path26340"
     d="m 1204.9224,188.5964 c -1.5293,-2.80368 -4.7578,-4.33296 -8.6659,-4.33296 -2.8887,0 -6.0322,0.8496 -9.0907,2.46384 -5.6074,2.9736 -9.0058,7.98624 -9.0058,12.3192 0,1.18944 0.2549,2.37888 0.8496,3.48336 1.5293,2.80368 4.7578,4.248 8.6659,4.248 2.8887,0 6.0322,-0.76464 9.0907,-2.37888 5.6074,-2.9736 9.0058,-7.98624 9.0058,-12.3192 0,-1.18944 -0.2549,-2.37888 -0.8496,-3.48336 m -3.6533,5.77728 c -1.4443,1.44432 -4.3329,3.22848 -7.3915,4.92768 -3.0586,1.6992 -6.1171,2.9736 -8.1562,3.3984 -0.4248,0.085 -0.8496,0.16992 -1.2744,0.16992 -1.3593,0 -2.3788,-0.50976 -2.9736,-1.61424 -0.2548,-0.4248 -0.4248,-0.93456 -0.4248,-1.44432 0,-0.93456 0.5948,-2.03904 1.5293,-2.9736 1.4443,-1.44432 4.248,-3.22848 7.3066,-4.92768 3.0585,-1.6992 6.1171,-2.9736 8.1561,-3.3984 0.4248,-0.085 0.8496,-0.16992 1.2744,-0.16992 1.3594,0 2.4639,0.50976 3.0586,1.61424 0.2549,0.4248 0.3398,0.93456 0.3398,1.44432 0,0.93456 -0.5097,1.95408 -1.4443,2.9736"
     class="Note" />
  <path
     style="stroke-width:0.8496"
     id="path26342"
     d="m 1393.8724,273.5564 c -1.5293,-2.80368 -4.7578,-4.33296 -8.6659,-4.33296 -2.8887,0 -6.0322,0.8496 -9.0907,2.46384 -5.6074,2.9736 -9.0058,7.98624 -9.0058,12.3192 0,1.18944 0.2549,2.37888 0.8496,3.48336 1.5293,2.80368 4.7578,4.248 8.6659,4.248 2.8887,0 6.0322,-0.76464 9.0907,-2.37888 5.6074,-2.9736 9.0058,-7.98624 9.0058,-12.3192 0,-1.18944 -0.2549,-2.37888 -0.8496,-3.48336"
     class="Note" />
  <path
     style="stroke-width:0.8496"
     id="path26344"
     d="m 1393.8724,220.4564 c -1.5293,-2.80368 -4.7578,-4.33296 -8.6659,-4.33296 -2.8887,0 -6.0322,0.8496 -9.0907,2.46384 -5.6074,2.9736 -9.0058,7.98624 -9.0058,12.3192 0,1.18944 0.2549,2.37888 0.8496,3.48336 1.5293,2.80368 4.7578,4.248 8.6659,4.248 2.8887,0 6.0322,-0.76464 9.0907,-2.37888 5.6074,-2.9736 9.0058,-7.98624 9.0058,-12.3192 0,-1.18944 -0.2549,-2.37888 -0.8496,-3.48336"
     class="Note" />
  <path
     style="stroke-width:0.8496"
     id="path26346"
     d="m 1533.2124,262.9364 c -1.5293,-2.80368 -4.7578,-4.33296 -8.6659,-4.33296 -2.8887,0 -6.0322,0.8496 -9.0907,2.46384 -5.6074,2.9736 -9.0058,7.98624 -9.0058,12.3192 0,1.18944 0.2549,2.37888 0.8496,3.48336 1.5293,2.80368 4.7578,4.248 8.6659,4.248 2.8887,0 6.0322,-0.76464 9.0907,-2.37888 5.6074,-2.9736 9.0058,-7.98624 9.0058,-12.3192 0,-1.18944 -0.2549,-2.37888 -0.8496,-3.48336 m -3.6533,5.77728 c -1.4443,1.44432 -4.3329,3.22848 -7.3915,4.92768 -3.0586,1.6992 -6.1171,2.9736 -8.1562,3.3984 -0.4248,0.085 -0.8496,0.16992 -1.2744,0.16992 -1.3593,0 -2.3788,-0.50976 -2.9736,-1.61424 -0.2548,-0.4248 -0.4248,-0.93456 -0.4248,-1.44432 0,-0.93456 0.5948,-2.03904 1.5293,-2.9736 1.4443,-1.44432 4.248,-3.22848 7.3066,-4.92768 3.0585,-1.6992 6.1171,-2.9736 8.1561,-3.3984 0.4248,-0.085 0.8496,-0.16992 1.2744,-0.16992 1.3594,0 2.4639,0.50976 3.0586,1.61424 0.2549,0.4248 0.3398,0.93456 0.3398,1.44432 0,0.93456 -0.5097,1.95408 -1.4443,2.9736"
     class="Note" />
  <path
     style="stroke-width:0.8496"
     id="path26348"
     d="m 1533.2124,220.4564 c -1.5293,-2.80368 -4.7578,-4.33296 -8.6659,-4.33296 -2.8887,0 -6.0322,0.8496 -9.0907,2.46384 -5.6074,2.9736 -9.0058,7.98624 -9.0058,12.3192 0,1.18944 0.2549,2.37888 0.8496,3.48336 1.5293,2.80368 4.7578,4.248 8.6659,4.248 2.8887,0 6.0322,-0.76464 9.0907,-2.37888 5.6074,-2.9736 9.0058,-7.98624 9.0058,-12.3192 0,-1.18944 -0.2549,-2.37888 -0.8496,-3.48336 m -3.6533,5.77728 c -1.4443,1.44432 -4.3329,3.22848 -7.3915,4.92768 -3.0586,1.6992 -6.1171,2.9736 -8.1562,3.3984 -0.4248,0.085 -0.8496,0.16992 -1.2744,0.16992 -1.3593,0 -2.3788,-0.50976 -2.9736,-1.61424 -0.2548,-0.4248 -0.4248,-0.93456 -0.4248,-1.44432 0,-0.93456 0.5948,-2.03904 1.5293,-2.9736 1.4443,-1.44432 4.248,-3.22848 7.3066,-4.92768 3.0585,-1.6992 6.1171,-2.9736 8.1561,-3.3984 0.4248,-0.085 0.8496,-0.16992 1.2744,-0.16992 1.3594,0 2.4639,0.50976 3.0586,1.61424 0.2549,0.4248 0.3398,0.93456 0.3398,1.44432 0,0.93456 -0.5097,1.95408 -1.4443,2.9736"
     class="Note" />
  <path
     style="stroke-width:0.8496"
     id="path26350"
     d="m 1742.1524,262.9364 c -1.5293,-2.80368 -4.7578,-4.33296 -8.6659,-4.33296 -2.8887,0 -6.0322,0.8496 -9.0907,2.46384 -5.6074,2.9736 -9.0058,7.98624 -9.0058,12.3192 0,1.18944 0.2549,2.37888 0.8496,3.48336 1.5293,2.80368 4.7578,4.248 8.6659,4.248 2.8887,0 6.0322,-0.76464 9.0907,-2.37888 5.6074,-2.9736 9.0058,-7.98624 9.0058,-12.3192 0,-1.18944 -0.2549,-2.37888 -0.8496,-3.48336"
     class="Note" />
  <path
     style="stroke-width:0.8496"
     id="path26352"
     d="m 1742.1524,209.8364 c -1.5293,-2.80368 -4.7578,-4.33296 -8.6659,-4.33296 -2.8887,0 -6.0322,0.8496 -9.0907,2.46384 -5.6074,2.9736 -9.0058,7.98624 -9.0058,12.3192 0,1.18944 0.2549,2.37888 0.8496,3.48336 1.5293,2.80368 4.7578,4.248 8.6659,4.248 2.8887,0 6.0322,-0.76464 9.0907,-2.37888 5.6074,-2.9736 9.0058,-7.98624 9.0058,-12.3192 0,-1.18944 -0.2549,-2.37888 -0.8496,-3.48336"
     class="Note" />
  <path
     style="stroke-width:0.8496"
     id="path26354"
     d="m 1890.4124,273.5564 c -1.5293,-2.80368 -4.7578,-4.33296 -8.6659,-4.33296 -2.8887,0 -6.0322,0.8496 -9.0907,2.46384 -5.6074,2.9736 -9.0058,7.98624 -9.0058,12.3192 0,1.18944 0.2549,2.37888 0.8496,3.48336 1.5293,2.80368 4.7578,4.248 8.6659,4.248 2.8887,0 6.0322,-0.76464 9.0907,-2.37888 5.6074,-2.9736 9.0058,-7.98624 9.0058,-12.3192 0,-1.18944 -0.2549,-2.37888 -0.8496,-3.48336"
     class="Note" />
  <path
     style="stroke-width:0.8496"
     id="path26356"
     d="m 1890.4124,199.2164 c -1.5293,-2.80368 -4.7578,-4.33296 -8.6659,-4.33296 -2.8887,0 -6.0322,0.8496 -9.0907,2.46384 -5.6074,2.9736 -9.0058,7.98624 -9.0058,12.3192 0,1.18944 0.2549,2.37888 0.8496,3.48336 1.5293,2.80368 4.7578,4.248 8.6659,4.248 2.8887,0 6.0322,-0.76464 9.0907,-2.37888 5.6074,-2.9736 9.0058,-7.98624 9.0058,-12.3192 0,-1.18944 -0.2549,-2.37888 -0.8496,-3.48336"
     class="Note" />
  <path
     style="stroke-width:0.8496"
     id="path26358"
     d="m 1996.9524,273.5564 c -1.5293,-2.80368 -4.7578,-4.33296 -8.6659,-4.33296 -2.8887,0 -6.0322,0.8496 -9.0907,2.46384 -5.6074,2.9736 -9.0058,7.98624 -9.0058,12.3192 0,1.18944 0.2549,2.37888 0.8496,3.48336 1.5293,2.80368 4.7578,4.248 8.6659,4.248 2.8887,0 6.0322,-0.76464 9.0907,-2.37888 5.6074,-2.9736 9.0058,-7.98624 9.0058,-12.3192 0,-1.18944 -0.2549,-2.37888 -0.8496,-3.48336 m -3.6533,5.77728 c -1.4443,1.44432 -4.3329,3.22848 -7.3915,4.92768 -3.0586,1.6992 -6.1171,2.9736 -8.1562,3.3984 -0.4248,0.085 -0.8496,0.16992 -1.2744,0.16992 -1.3593,0 -2.3788,-0.50976 -2.9736,-1.61424 -0.2548,-0.4248 -0.4248,-0.93456 -0.4248,-1.44432 0,-0.93456 0.5948,-2.03904 1.5293,-2.9736 1.4443,-1.44432 4.248,-3.22848 7.3066,-4.92768 3.0585,-1.6992 6.1171,-2.9736 8.1561,-3.3984 0.4248,-0.085 0.8496,-0.16992 1.2744,-0.16992 1.3594,0 2.4639,0.50976 3.0586,1.61424 0.2549,0.4248 0.3398,0.93456 0.3398,1.44432 0,0.93456 -0.5097,1.95408 -1.4443,2.9736"
     class="Note" />
  <path
     style="stroke-width:0.8496"
     id="path26360"
     d="m 1996.9524,231.0764 c -1.5293,-2.80368 -4.7578,-4.33296 -8.6659,-4.33296 -2.8887,0 -6.0322,0.8496 -9.0907,2.46384 -5.6074,2.9736 -9.0058,7.98624 -9.0058,12.3192 0,1.18944 0.2549,2.37888 0.8496,3.48336 1.5293,2.80368 4.7578,4.248 8.6659,4.248 2.8887,0 6.0322,-0.76464 9.0907,-2.37888 5.6074,-2.9736 9.0058,-7.98624 9.0058,-12.3192 0,-1.18944 -0.2549,-2.37888 -0.8496,-3.48336 m -3.6533,5.77728 c -1.4443,1.44432 -4.3329,3.22848 -7.3915,4.92768 -3.0586,1.6992 -6.1171,2.9736 -8.1562,3.3984 -0.4248,0.085 -0.8496,0.16992 -1.2744,0.16992 -1.3593,0 -2.3788,-0.50976 -2.9736,-1.61424 -0.2548,-0.4248 -0.4248,-0.93456 -0.4248,-1.44432 0,-0.93456 0.5948,-2.03904 1.5293,-2.9736 1.4443,-1.44432 4.248,-3.22848 7.3066,-4.92768 3.0585,-1.6992 6.1171,-2.9736 8.1561,-3.3984 0.4248,-0.085 0.8496,-0.16992 1.2744,-0.16992 1.3594,0 2.4639,0.50976 3.0586,1.61424 0.2549,0.4248 0.3398,0.93456 0.3398,1.44432 0,0.93456 -0.5097,1.95408 -1.4443,2.9736"
     class="Note" />
  <path
     style="stroke-width:0.8496"
     id="path26362"
     d="m 1996.9524,177.9764 c -1.5293,-2.80368 -4.7578,-4.33296 -8.6659,-4.33296 -2.8887,0 -6.0322,0.8496 -9.0907,2.46384 -5.6074,2.9736 -9.0058,7.98624 -9.0058,12.3192 0,1.18944 0.2549,2.37888 0.8496,3.48336 1.5293,2.80368 4.7578,4.248 8.6659,4.248 2.8887,0 6.0322,-0.76464 9.0907,-2.37888 5.6074,-2.9736 9.0058,-7.98624 9.0058,-12.3192 0,-1.18944 -0.2549,-2.37888 -0.8496,-3.48336 m -3.6533,5.77728 c -1.4443,1.44432 -4.3329,3.22848 -7.3915,4.92768 -3.0586,1.6992 -6.1171,2.9736 -8.1562,3.3984 -0.4248,0.085 -0.8496,0.16992 -1.2744,0.16992 -1.3593,0 -2.3788,-0.50976 -2.9736,-1.61424 -0.2548,-0.4248 -0.4248,-0.93456 -0.4248,-1.44432 0,-0.93456 0.5948,-2.03904 1.5293,-2.9736 1.4443,-1.44432 4.248,-3.22848 7.3066,-4.92768 3.0585,-1.6992 6.1171,-2.9736 8.1561,-3.3984 0.4248,-0.085 0.8496,-0.16992 1.2744,-0.16992 1.3594,0 2.4639,0.50976 3.0586,1.61424 0.2549,0.4248 0.3398,0.93456 0.3398,1.44432 0,0.93456 -0.5097,1.95408 -1.4443,2.9736"
     class="Note" />
  <path
     style="stroke-width:0.8496"
     id="path26364"
     d="m 2239.3424,241.6964 c -1.5293,-2.80368 -4.7578,-4.33296 -8.6659,-4.33296 -2.8887,0 -6.0322,0.8496 -9.0907,2.46384 -5.6074,2.9736 -9.0058,7.98624 -9.0058,12.3192 0,1.18944 0.2549,2.37888 0.8496,3.48336 1.5293,2.80368 4.7578,4.248 8.6659,4.248 2.8887,0 6.0322,-0.76464 9.0907,-2.37888 5.6074,-2.9736 9.0058,-7.98624 9.0058,-12.3192 0,-1.18944 -0.2549,-2.37888 -0.8496,-3.48336"
     class="Note" />
  <path
     style="stroke-width:0.8496"
     id="path26366"
     d="m 2239.3424,199.2164 c -1.5293,-2.80368 -4.7578,-4.33296 -8.6659,-4.33296 -2.8887,0 -6.0322,0.8496 -9.0907,2.46384 -5.6074,2.9736 -9.0058,7.98624 -9.0058,12.3192 0,1.18944 0.2549,2.37888 0.8496,3.48336 1.5293,2.80368 4.7578,4.248 8.6659,4.248 2.8887,0 6.0322,-0.76464 9.0907,-2.37888 5.6074,-2.9736 9.0058,-7.98624 9.0058,-12.3192 0,-1.18944 -0.2549,-2.37888 -0.8496,-3.48336"
     class="Note" />
  <path
     style="stroke-width:0.8496"
     id="path26722"
     d="m 189.6994,188.5964 c -1.52928,-2.80368 -4.75776,-4.33296 -8.66592,-4.33296 -2.88864,0 -6.03216,0.8496 -9.09072,2.46384 -5.60736,2.9736 -9.00576,7.98624 -9.00576,12.3192 0,1.18944 0.25488,2.37888 0.8496,3.48336 1.52928,2.80368 4.75776,4.248 8.66592,4.248 2.88864,0 6.03216,-0.76464 9.09072,-2.37888 5.60736,-2.9736 9.00576,-7.98624 9.00576,-12.3192 0,-1.18944 -0.25488,-2.37888 -0.8496,-3.48336"
     class="Note" />
  <path
     style="stroke-width:0.8496"
     id="path26724"
     d="m 189.6994,135.4964 c -1.52928,-2.80368 -4.75776,-4.33296 -8.66592,-4.33296 -2.88864,0 -6.03216,0.8496 -9.09072,2.46384 -5.60736,2.9736 -9.00576,7.98624 -9.00576,12.3192 0,1.18944 0.25488,2.37888 0.8496,3.48336 1.52928,2.80368 4.75776,4.248 8.66592,4.248 2.88864,0 6.03216,-0.76464 9.09072,-2.37888 5.60736,-2.9736 9.00576,-7.98624 9.00576,-12.3192 0,-1.18944 -0.25488,-2.37888 -0.8496,-3.48336"
     class="Note" />
  <path
     style="stroke-width:0.8496"
     id="path26726"
     d="m 304.4084,199.2164 c -1.52928,-2.80368 -4.75776,-4.33296 -8.66592,-4.33296 -2.88864,0 -6.03216,0.8496 -9.09072,2.46384 -5.60736,2.9736 -9.00576,7.98624 -9.00576,12.3192 0,1.18944 0.25488,2.37888 0.8496,3.48336 1.52928,2.80368 4.75776,4.248 8.66592,4.248 2.88864,0 6.03216,-0.76464 9.09072,-2.37888 5.60736,-2.9736 9.00576,-7.98624 9.00576,-12.3192 0,-1.18944 -0.25488,-2.37888 -0.8496,-3.48336"
     class="Note" />
  <path
     style="stroke-width:0.8496"
     id="path26728"
     d="m 304.4084,146.1164 c -1.52928,-2.80368 -4.75776,-4.33296 -8.66592,-4.33296 -2.88864,0 -6.03216,0.8496 -9.09072,2.46384 -5.60736,2.9736 -9.00576,7.98624 -9.00576,12.3192 0,1.18944 0.25488,2.37888 0.8496,3.48336 1.52928,2.80368 4.75776,4.248 8.66592,4.248 2.88864,0 6.03216,-0.76464 9.09072,-2.37888 5.60736,-2.9736 9.00576,-7.98624 9.00576,-12.3192 0,-1.18944 -0.25488,-2.37888 -0.8496,-3.48336"
     class="Note" />
  <path
     style="stroke-width:0.8496"
     id="path26730"
     d="m 419.1174,209.8364 c -1.52928,-2.80368 -4.75776,-4.33296 -8.66592,-4.33296 -2.88864,0 -6.03216,0.8496 -9.09072,2.46384 -5.60736,2.9736 -9.00576,7.98624 -9.00576,12.3192 0,1.18944 0.25488,2.37888 0.8496,3.48336 1.52928,2.80368 4.75776,4.248 8.66592,4.248 2.88864,0 6.03216,-0.76464 9.09072,-2.37888 5.60736,-2.9736 9.00576,-7.98624 9.00576,-12.3192 0,-1.18944 -0.25488,-2.37888 -0.8496,-3.48336"
     class="Note" />
  <path
     style="stroke-width:0.8496"
     id="path26732"
     d="m 444.3864,199.2164 c -1.52928,-2.80368 -4.75776,-4.33296 -8.66592,-4.33296 -2.88864,0 -6.03216,0.8496 -9.09072,2.46384 -5.60736,2.9736 -9.00576,7.98624 -9.00576,12.3192 0,1.18944 0.25488,2.37888 0.8496,3.48336 1.52928,2.80368 4.75776,4.248 8.66592,4.248 2.88864,0 6.03216,-0.76464 9.09072,-2.37888 5.60736,-2.9736 9.00576,-7.98624 9.00576,-12.3192 0,-1.18944 -0.25488,-2.37888 -0.8496,-3.48336"
     class="Note" />
  <path
     style="stroke-width:0.8496"
     id="path26734"
     d="m 419.1174,156.7364 c -1.52928,-2.80368 -4.75776,-4.33296 -8.66592,-4.33296 -2.88864,0 -6.03216,0.8496 -9.09072,2.46384 -5.60736,2.9736 -9.00576,7.98624 -9.00576,12.3192 0,1.18944 0.25488,2.37888 0.8496,3.48336 1.52928,2.80368 4.75776,4.248 8.66592,4.248 2.88864,0 6.03216,-0.76464 9.09072,-2.37888 5.60736,-2.9736 9.00576,-7.98624 9.00576,-12.3192 0,-1.18944 -0.25488,-2.37888 -0.8496,-3.48336"
     class="Note" />
  <path
     style="stroke-width:0.8496"
     id="path26736"
     d="m 581.0194,220.4564 c -1.52928,-2.80368 -4.75776,-4.33296 -8.66592,-4.33296 -2.88864,0 -6.03216,0.8496 -9.09072,2.46384 -5.60736,2.9736 -9.00576,7.98624 -9.00576,12.3192 0,1.18944 0.25488,2.37888 0.8496,3.48336 1.52928,2.80368 4.75776,4.248 8.66592,4.248 2.88864,0 6.03216,-0.76464 9.09072,-2.37888 5.60736,-2.9736 9.00576,-7.98624 9.00576,-12.3192 0,-1.18944 -0.25488,-2.37888 -0.8496,-3.48336"
     class="Note" />
  <path
     style="stroke-width:0.8496"
     id="path26738"
     d="m 581.0194,199.2164 c -1.52928,-2.80368 -4.75776,-4.33296 -8.66592,-4.33296 -2.88864,0 -6.03216,0.8496 -9.09072,2.46384 -5.60736,2.9736 -9.00576,7.98624 -9.00576,12.3192 0,1.18944 0.25488,2.37888 0.8496,3.48336 1.52928,2.80368 4.75776,4.248 8.66592,4.248 2.88864,0 6.03216,-0.76464 9.09072,-2.37888 5.60736,-2.9736 9.00576,-7.98624 9.00576,-12.3192 0,-1.18944 -0.25488,-2.37888 -0.8496,-3.48336"
     class="Note" />
  <path
     style="stroke-width:0.8496"
     id="path26740"
     d="m 581.0194,146.1164 c -1.52928,-2.80368 -4.75776,-4.33296 -8.66592,-4.33296 -2.88864,0 -6.03216,0.8496 -9.09072,2.46384 -5.60736,2.9736 -9.00576,7.98624 -9.00576,12.3192 0,1.18944 0.25488,2.37888 0.8496,3.48336 1.52928,2.80368 4.75776,4.248 8.66592,4.248 2.88864,0 6.03216,-0.76464 9.09072,-2.37888 5.60736,-2.9736 9.00576,-7.98624 9.00576,-12.3192 0,-1.18944 -0.25488,-2.37888 -0.8496,-3.48336"
     class="Note" />
  <path
     style="stroke-width:0.8496"
     id="path26742"
     d="m 679.6924,231.0764 c -1.52928,-2.80368 -4.75776,-4.33296 -8.66592,-4.33296 -2.88864,0 -6.03216,0.8496 -9.09072,2.46384 -5.60736,2.9736 -9.00576,7.98624 -9.00576,12.3192 0,1.18944 0.25488,2.37888 0.8496,3.48336 1.52928,2.80368 4.75776,4.248 8.66592,4.248 2.88864,0 6.03216,-0.76464 9.09072,-2.37888 5.60736,-2.9736 9.00576,-7.98624 9.00576,-12.3192 0,-1.18944 -0.25488,-2.37888 -0.8496,-3.48336 m -3.65328,5.77728 c -1.44432,1.44432 -4.33296,3.22848 -7.39152,4.92768 -3.05856,1.6992 -6.11712,2.9736 -8.15616,3.3984 -0.4248,0.085 -0.8496,0.16992 -1.2744,0.16992 -1.35936,0 -2.37888,-0.50976 -2.9736,-1.61424 -0.25488,-0.4248 -0.4248,-0.93456 -0.4248,-1.44432 0,-0.93456 0.59472,-2.03904 1.52928,-2.9736 1.44432,-1.44432 4.248,-3.22848 7.30656,-4.92768 3.05856,-1.6992 6.11712,-2.9736 8.15616,-3.3984 0.4248,-0.085 0.8496,-0.16992 1.2744,-0.16992 1.35936,0 2.46384,0.50976 3.05856,1.61424 0.25488,0.4248 0.33984,0.93456 0.33984,1.44432 0,0.93456 -0.50976,1.95408 -1.44432,2.9736"
     class="Note" />
  <path
     style="stroke-width:0.8496"
     id="path26744"
     d="m 679.6924,177.9764 c -1.52928,-2.80368 -4.75776,-4.33296 -8.66592,-4.33296 -2.88864,0 -6.03216,0.8496 -9.09072,2.46384 -5.60736,2.9736 -9.00576,7.98624 -9.00576,12.3192 0,1.18944 0.25488,2.37888 0.8496,3.48336 1.52928,2.80368 4.75776,4.248 8.66592,4.248 2.88864,0 6.03216,-0.76464 9.09072,-2.37888 5.60736,-2.9736 9.00576,-7.98624 9.00576,-12.3192 0,-1.18944 -0.25488,-2.37888 -0.8496,-3.48336 m -3.65328,5.77728 c -1.44432,1.44432 -4.33296,3.22848 -7.39152,4.92768 -3.05856,1.6992 -6.11712,2.9736 -8.15616,3.3984 -0.4248,0.085 -0.8496,0.16992 -1.2744,0.16992 -1.35936,0 -2.37888,-0.50976 -2.9736,-1.61424 -0.25488,-0.4248 -0.4248,-0.93456 -0.4248,-1.44432 0,-0.93456 0.59472,-2.03904 1.52928,-2.9736 1.44432,-1.44432 4.248,-3.22848 7.30656,-4.92768 3.05856,-1.6992 6.11712,-2.9736 8.15616,-3.3984 0.4248,-0.085 0.8496,-0.16992 1.2744,-0.16992 1.35936,0 2.46384,0.50976 3.05856,1.61424 0.25488,0.4248 0.33984,0.93456 0.33984,1.44432 0,0.93456 -0.50976,1.95408 -1.44432,2.9736"
     class="Note" />
  <path
     style="stroke-width:0.8496"
     id="path26746"
     d="m 866.8824,220.4564 c -1.52928,-2.80368 -4.75776,-4.33296 -8.66592,-4.33296 -2.88864,0 -6.03216,0.8496 -9.09072,2.46384 -5.60736,2.9736 -9.00576,7.98624 -9.00576,12.3192 0,1.18944 0.25488,2.37888 0.8496,3.48336 1.52928,2.80368 4.75776,4.248 8.66592,4.248 2.88864,0 6.03216,-0.76464 9.09072,-2.37888 5.60736,-2.9736 9.00576,-7.98624 9.00576,-12.3192 0,-1.18944 -0.25488,-2.37888 -0.8496,-3.48336"
     class="Note" />
  <path
     style="stroke-width:0.8496"
     id="path26748"
     d="m 866.8824,167.3564 c -1.52928,-2.80368 -4.75776,-4.33296 -8.66592,-4.33296 -2.88864,0 -6.03216,0.8496 -9.09072,2.46384 -5.60736,2.9736 -9.00576,7.98624 -9.00576,12.3192 0,1.18944 0.25488,2.37888 0.8496,3.48336 1.52928,2.80368 4.75776,4.248 8.66592,4.248 2.88864,0 6.03216,-0.76464 9.09072,-2.37888 5.60736,-2.9736 9.00576,-7.98624 9.00576,-12.3192 0,-1.18944 -0.25488,-2.37888 -0.8496,-3.48336"
     class="Note" />
  <path
     style="stroke-width:0.8496"
     id="path26750"
     d="m 957.5524,199.2164 c -1.52928,-2.80368 -4.75776,-4.33296 -8.66592,-4.33296 -2.88864,0 -6.03216,0.8496 -9.09072,2.46384 -5.60736,2.9736 -9.00576,7.98624 -9.00576,12.3192 0,1.18944 0.25488,2.37888 0.8496,3.48336 1.52928,2.80368 4.75776,4.248 8.66592,4.248 2.88864,0 6.03216,-0.76464 9.09072,-2.37888 5.60736,-2.9736 9.00576,-7.98624 9.00576,-12.3192 0,-1.18944 -0.25488,-2.37888 -0.8496,-3.48336"
     class="Note" />
  <path
     style="stroke-width:0.8496"
     id="path26752"
     d="m 957.5524,146.1164 c -1.52928,-2.80368 -4.75776,-4.33296 -8.66592,-4.33296 -2.88864,0 -6.03216,0.8496 -9.09072,2.46384 -5.60736,2.9736 -9.00576,7.98624 -9.00576,12.3192 0,1.18944 0.25488,2.37888 0.8496,3.48336 1.52928,2.80368 4.75776,4.248 8.66592,4.248 2.88864,0 6.03216,-0.76464 9.09072,-2.37888 5.60736,-2.9736 9.00576,-7.98624 9.00576,-12.3192 0,-1.18944 -0.25488,-2.37888 -0.8496,-3.48336"
     class="Note" />
  <path
     style="stroke-width:0.8496"
     id="path26754"
     d="m 1048.2324,199.2164 c -1.5293,-2.80368 -4.7578,-4.33296 -8.6659,-4.33296 -2.8887,0 -6.0322,0.8496 -9.0907,2.46384 -5.6074,2.9736 -9.0058,7.98624 -9.0058,12.3192 0,1.18944 0.2549,2.37888 0.8496,3.48336 1.5293,2.80368 4.7578,4.248 8.6659,4.248 2.8887,0 6.0322,-0.76464 9.0907,-2.37888 5.6074,-2.9736 9.0058,-7.98624 9.0058,-12.3192 0,-1.18944 -0.2549,-2.37888 -0.8496,-3.48336"
     class="Note" />
  <path
     style="stroke-width:0.8496"
     id="path26756"
     d="m 1048.2324,177.9764 c -1.5293,-2.80368 -4.7578,-4.33296 -8.6659,-4.33296 -2.8887,0 -6.0322,0.8496 -9.0907,2.46384 -5.6074,2.9736 -9.0058,7.98624 -9.0058,12.3192 0,1.18944 0.2549,2.37888 0.8496,3.48336 1.5293,2.80368 4.7578,4.248 8.6659,4.248 2.8887,0 6.0322,-0.76464 9.0907,-2.37888 5.6074,-2.9736 9.0058,-7.98624 9.0058,-12.3192 0,-1.18944 -0.2549,-2.37888 -0.8496,-3.48336"
     class="Note" />
  <path
     style="stroke-width:0.8496"
     id="path26758"
     d="m 1048.2324,146.1164 c -1.5293,-2.80368 -4.7578,-4.33296 -8.6659,-4.33296 -2.8887,0 -6.0322,0.8496 -9.0907,2.46384 -5.6074,2.9736 -9.0058,7.98624 -9.0058,12.3192 0,1.18944 0.2549,2.37888 0.8496,3.48336 1.5293,2.80368 4.7578,4.248 8.6659,4.248 2.8887,0 6.0322,-0.76464 9.0907,-2.37888 5.6074,-2.9736 9.0058,-7.98624 9.0058,-12.3192 0,-1.18944 -0.2549,-2.37888 -0.8496,-3.48336"
     class="Note" />
  <path
     style="stroke-width:0.8496"
     id="path26760"
     d="m 1204.9224,146.1164 c -1.5293,-2.80368 -4.7578,-4.33296 -8.6659,-4.33296 -2.8887,0 -6.0322,0.8496 -9.0907,2.46384 -5.6074,2.9736 -9.0058,7.98624 -9.0058,12.3192 0,1.18944 0.2549,2.37888 0.8496,3.48336 1.5293,2.80368 4.7578,4.248 8.6659,4.248 2.8887,0 6.0322,-0.76464 9.0907,-2.37888 5.6074,-2.9736 9.0058,-7.98624 9.0058,-12.3192 0,-1.18944 -0.2549,-2.37888 -0.8496,-3.48336"
     class="Note" />
  <path
     style="stroke-width:0.8496"
     id="path26762"
     d="m 1299.3924,156.7364 c -1.5293,-2.80368 -4.7578,-4.33296 -8.6659,-4.33296 -2.8887,0 -6.0322,0.8496 -9.0907,2.46384 -5.6074,2.9736 -9.0058,7.98624 -9.0058,12.3192 0,1.18944 0.2549,2.37888 0.8496,3.48336 1.5293,2.80368 4.7578,4.248 8.6659,4.248 2.8887,0 6.0322,-0.76464 9.0907,-2.37888 5.6074,-2.9736 9.0058,-7.98624 9.0058,-12.3192 0,-1.18944 -0.2549,-2.37888 -0.8496,-3.48336"
     class="Note" />
  <path
     style="stroke-width:0.8496"
     id="path26764"
     d="m 1393.8724,156.7364 c -1.5293,-2.80368 -4.7578,-4.33296 -8.6659,-4.33296 -2.8887,0 -6.0322,0.8496 -9.0907,2.46384 -5.6074,2.9736 -9.0058,7.98624 -9.0058,12.3192 0,1.18944 0.2549,2.37888 0.8496,3.48336 1.5293,2.80368 4.7578,4.248 8.6659,4.248 2.8887,0 6.0322,-0.76464 9.0907,-2.37888 5.6074,-2.9736 9.0058,-7.98624 9.0058,-12.3192 0,-1.18944 -0.2549,-2.37888 -0.8496,-3.48336"
     class="Note" />
  <path
     style="stroke-width:0.8496"
     id="path26766"
     d="m 1533.2124,156.7364 c -1.5293,-2.80368 -4.7578,-4.33296 -8.6659,-4.33296 -2.8887,0 -6.0322,0.8496 -9.0907,2.46384 -5.6074,2.9736 -9.0058,7.98624 -9.0058,12.3192 0,1.18944 0.2549,2.37888 0.8496,3.48336 1.5293,2.80368 4.7578,4.248 8.6659,4.248 2.8887,0 6.0322,-0.76464 9.0907,-2.37888 5.6074,-2.9736 9.0058,-7.98624 9.0058,-12.3192 0,-1.18944 -0.2549,-2.37888 -0.8496,-3.48336"
     class="Note" />
  <path
     style="stroke-width:0.8496"
     id="path26768"
     d="m 1637.6824,167.3564 c -1.5293,-2.80368 -4.7578,-4.33296 -8.6659,-4.33296 -2.8887,0 -6.0322,0.8496 -9.0907,2.46384 -5.6074,2.9736 -9.0058,7.98624 -9.0058,12.3192 0,1.18944 0.2549,2.37888 0.8496,3.48336 1.5293,2.80368 4.7578,4.248 8.6659,4.248 2.8887,0 6.0322,-0.76464 9.0907,-2.37888 5.6074,-2.9736 9.0058,-7.98624 9.0058,-12.3192 0,-1.18944 -0.2549,-2.37888 -0.8496,-3.48336"
     class="Note" />
  <path
     style="stroke-width:0.8496"
     id="path26770"
     d="m 1637.6824,114.2564 c -1.5293,-2.80368 -4.7578,-4.33296 -8.6659,-4.33296 -2.8887,0 -6.0322,0.8496 -9.0907,2.46384 -5.6074,2.9736 -9.0058,7.98624 -9.0058,12.3192 0,1.18944 0.2549,2.37888 0.8496,3.48336 1.5293,2.80368 4.7578,4.248 8.6659,4.248 2.8887,0 6.0322,-0.76464 9.0907,-2.37888 5.6074,-2.9736 9.0058,-7.98624 9.0058,-12.3192 0,-1.18944 -0.2549,-2.37888 -0.8496,-3.48336"
     class="Note" />
  <path
     style="stroke-width:0.8496"
     id="path26772"
     d="m 1742.1524,167.3564 c -1.5293,-2.80368 -4.7578,-4.33296 -8.6659,-4.33296 -2.8887,0 -6.0322,0.8496 -9.0907,2.46384 -5.6074,2.9736 -9.0058,7.98624 -9.0058,12.3192 0,1.18944 0.2549,2.37888 0.8496,3.48336 1.5293,2.80368 4.7578,4.248 8.6659,4.248 2.8887,0 6.0322,-0.76464 9.0907,-2.37888 5.6074,-2.9736 9.0058,-7.98624 9.0058,-12.3192 0,-1.18944 -0.2549,-2.37888 -0.8496,-3.48336"
     class="Note" />
  <path
     style="stroke-width:0.8496"
     id="path26774"
     d="m 1767.4224,156.7364 c -1.5293,-2.80368 -4.7578,-4.33296 -8.6659,-4.33296 -2.8887,0 -6.0322,0.8496 -9.0907,2.46384 -5.6074,2.9736 -9.0058,7.98624 -9.0058,12.3192 0,1.18944 0.2549,2.37888 0.8496,3.48336 1.5293,2.80368 4.7578,4.248 8.6659,4.248 2.8887,0 6.0322,-0.76464 9.0907,-2.37888 5.6074,-2.9736 9.0058,-7.98624 9.0058,-12.3192 0,-1.18944 -0.2549,-2.37888 -0.8496,-3.48336"
     class="Note" />
  <path
     style="stroke-width:0.8496"
     id="path26776"
     d="m 1890.4124,167.3564 c -1.5293,-2.80368 -4.7578,-4.33296 -8.6659,-4.33296 -2.8887,0 -6.0322,0.8496 -9.0907,2.46384 -5.6074,2.9736 -9.0058,7.98624 -9.0058,12.3192 0,1.18944 0.2549,2.37888 0.8496,3.48336 1.5293,2.80368 4.7578,4.248 8.6659,4.248 2.8887,0 6.0322,-0.76464 9.0907,-2.37888 5.6074,-2.9736 9.0058,-7.98624 9.0058,-12.3192 0,-1.18944 -0.2549,-2.37888 -0.8496,-3.48336"
     class="Note" />
  <path
     style="stroke-width:0.8496"
     id="path26778"
     d="m 1915.6824,156.7364 c -1.5293,-2.80368 -4.7578,-4.33296 -8.6659,-4.33296 -2.8887,0 -6.0322,0.8496 -9.0907,2.46384 -5.6074,2.9736 -9.0058,7.98624 -9.0058,12.3192 0,1.18944 0.2549,2.37888 0.8496,3.48336 1.5293,2.80368 4.7578,4.248 8.6659,4.248 2.8887,0 6.0322,-0.76464 9.0907,-2.37888 5.6074,-2.9736 9.0058,-7.98624 9.0058,-12.3192 0,-1.18944 -0.2549,-2.37888 -0.8496,-3.48336"
     class="Note" />
  <path
     style="stroke-width:0.8496"
     id="path26780"
     d="m 1996.9524,124.8764 c -1.5293,-2.80368 -4.7578,-4.33296 -8.6659,-4.33296 -2.8887,0 -6.0322,0.8496 -9.0907,2.46384 -5.6074,2.9736 -9.0058,7.98624 -9.0058,12.3192 0,1.18944 0.2549,2.37888 0.8496,3.48336 1.5293,2.80368 4.7578,4.248 8.6659,4.248 2.8887,0 6.0322,-0.76464 9.0907,-2.37888 5.6074,-2.9736 9.0058,-7.98624 9.0058,-12.3192 0,-1.18944 -0.2549,-2.37888 -0.8496,-3.48336"
     class="Note" />
  <path
     style="stroke-width:0.8496"
     id="path26782"
     d="m 2103.4924,135.4964 c -1.5293,-2.80368 -4.7578,-4.33296 -8.6659,-4.33296 -2.8887,0 -6.0322,0.8496 -9.0907,2.46384 -5.6074,2.9736 -9.0058,7.98624 -9.0058,12.3192 0,1.18944 0.2549,2.37888 0.8496,3.48336 1.5293,2.80368 4.7578,4.248 8.6659,4.248 2.8887,0 6.0322,-0.76464 9.0907,-2.37888 5.6074,-2.9736 9.0058,-7.98624 9.0058,-12.3192 0,-1.18944 -0.2549,-2.37888 -0.8496,-3.48336"
     class="Note" />
  <path
     style="stroke-width:0.8496"
     id="path26784"
     d="m 2239.3424,146.1164 c -1.5293,-2.80368 -4.7578,-4.33296 -8.6659,-4.33296 -2.8887,0 -6.0322,0.8496 -9.0907,2.46384 -5.6074,2.9736 -9.0058,7.98624 -9.0058,12.3192 0,1.18944 0.2549,2.37888 0.8496,3.48336 1.5293,2.80368 4.7578,4.248 8.6659,4.248 2.8887,0 6.0322,-0.76464 9.0907,-2.37888 5.6074,-2.9736 9.0058,-7.98624 9.0058,-12.3192 0,-1.18944 -0.2549,-2.37888 -0.8496,-3.48336"
     class="Note" />
  <path
     style="stroke-width:0.8496"
     id="path26926"
     d="m 52.683696,277.69395 c 0.01699,-1.28281 -0.569317,-2.50632 -1.597248,-3.28795 -1.028016,-0.80712 -2.438352,-1.23192 -4.07808,-1.23192 -1.971072,0 -3.755232,0.6033 -5.021136,1.6992 -1.265904,1.09598 -1.979653,2.65933 -1.979653,4.38402 0,1.58875 0.526837,2.75262 1.792741,3.93356 -0.968544,0.39082 -1.6992,0.79871 -2.344981,1.29148 -1.308299,0.99403 -2.08152,2.46384 -2.08152,3.93356 0,2.7697 2.514901,4.62191 6.270133,4.62191 4.596336,0 7.807824,-2.5488 7.807824,-6.18517 0,-1.89461 -0.8496,-3.54275 -2.404368,-4.68971 2.480832,-1.01952 3.636288,-2.44693 3.636288,-4.46898 m -8.470597,13.5936 c -1.86912,0 -3.109451,-1.20643 -3.109451,-2.99909 0,-1.61424 0.781632,-2.98201 2.200464,-3.85718 0.305856,0.16142 0.38232,0.2039 0.671184,0.34842 1.011024,0.50976 1.011024,0.50976 1.223424,0.6372 h 0.0085 c 1.622736,0.92598 2.276843,1.80115 2.276843,3.0075 0,1.62282 -1.410251,2.86315 -3.27096,2.86315 m 3.203077,-10.20361 c -1.214928,-0.6372 -1.546357,-0.8242 -1.86912,-1.01111 l -0.08496,-0.0509 c -1.31688,-0.79871 -1.724688,-1.37644 -1.724688,-2.44685 0,-1.52928 1.172448,-2.59986 2.837664,-2.59986 1.682208,0 2.650667,1.01952 2.650667,2.78669 0,1.41042 -0.492683,2.31949 -1.809563,3.32202 m 7.111152,-8.74247 -0.33984,-0.17833 v 1.85204 l 0.101952,0.068 c 1.31688,0.93456 1.886112,1.60583 2.455259,2.84616 0.815701,1.75867 1.248997,4.22251 1.248997,7.11965 0,2.65075 -0.348336,4.8852 -1.036597,6.62688 -0.611627,1.59733 -1.23192,2.37888 -2.667659,3.37291 l -0.101952,0.068 v 1.85221 l 0.33984,-0.1785 c 1.852128,-0.96846 2.88864,-1.76717 4.112064,-3.186 2.08152,-2.44685 3.186,-5.40337 3.186,-8.56397 0.0085,-2.90563 -0.968544,-5.7348 -2.769696,-8.01164 -1.265904,-1.63132 -2.489328,-2.63376 -4.528368,-3.68735 M 70.81416,211.73108 c -1.045008,-4.6134 -3.287952,-7.85879 -3.95064,-8.74246 -2.710224,-3.62779 -6.11712,-6.04915 -10.101744,-7.19611 -2.642256,-0.75606 -5.191056,-0.8496 -7.247088,-0.69667 -0.883669,-5.1061 -1.733269,-10.10166 -2.50632,-14.73198 4.63032,-5.24212 7.705872,-10.1698 9.64296,-13.82308 2.948112,-5.59028 3.925152,-9.48145 3.967632,-9.65137 1.461312,-4.4265 1.767168,-10.96842 0.832608,-17.94355 -0.858096,-6.41448 -2.63376,-12.11538 -4.63032,-14.87658 -0.875088,-1.21493 -1.767168,-1.83514 -2.650752,-1.83514 -1.036597,0 -3.169008,1.05351 -5.624437,3.4069 -1.95408,1.86912 -4.732187,5.17406 -6.907163,10.28016 -2.5488,5.99826 -2.727216,14.06088 -2.429856,19.77019 0.322848,6.17659 1.265819,11.0109 1.2744,11.05338 0.01699,0.0764 0.237888,1.35078 0.620208,3.53425 -0.195408,0.19541 -0.399312,0.38232 -0.611712,0.58631 -0.883584,0.8496 -1.894608,1.81806 -3.067056,2.99051 -0.730741,0.73074 -1.537861,1.50379 -2.387461,2.3279 -7.17912,6.91583 -18.045419,17.38282 -18.045419,33.65266 0,3.99312 0.76464,7.74837 2.276911,11.15532 1.350898,3.05856 3.304978,5.84526 5.794289,8.28361 6.567408,6.41448 15.564672,9.14161 21.562848,9.00576 2.50632,-0.0595 4.740768,-0.26346 6.771312,-0.64578 1.554768,8.15616 2.523312,14.12885 2.557296,18.66571 0.03398,5.5309 -1.367856,8.90381 -4.681296,11.2572 -2.064528,1.46981 -4.451904,2.27693 -7.085664,2.40437 -2.200464,0.10195 -4.12056,-0.29736 -5.335488,-0.64561 h -0.0085 c 0,0 -0.246384,-0.068 -0.25488,-0.23789 -0.0085,-0.15301 0.288864,-0.19549 0.29736,-0.19549 h 0.01691 c 1.631317,-0.37374 4.664389,-1.41875 6.66936,-4.22243 1.52928,-2.14099 2.268517,-6.06623 0.705253,-9.41365 -0.943056,-2.03046 -3.075552,-4.53678 -7.850304,-4.9191 -2.115589,-0.16992 -4.044096,0.26329 -5.743296,1.28281 -1.537776,0.91757 -2.812176,2.31091 -3.704256,4.01011 -2.090016,3.99312 -1.6992,8.86133 0.959963,12.12388 1.622821,1.98798 3.840277,3.50876 6.448549,4.46881 l -0.03407,0.017 -0.220811,0.11903 c -1.852128,0.96846 -2.88864,1.76717 -4.112149,3.186 -2.03904,2.37888 -3.168923,5.40337 -3.186,8.5299 -0.0084,2.91413 0.968629,5.75179 2.769781,8.0373 1.299888,1.65672 2.523312,2.65925 4.519872,3.70417 l 0.33984,0.17842 v -1.85213 l -0.09346,-0.068 c -1.31688,-0.93456 -1.894608,-1.59716 -2.46384,-2.84616 -0.815616,-1.75867 -1.248997,-4.23092 -1.248997,-7.15363 0,-2.63376 0.348421,-4.85971 1.036597,-6.60139 0.59472,-1.55477 1.223424,-2.3449 2.667744,-3.37283 l 0.101952,-0.068 v -1.77558 c 1.410336,0.50976 2.922624,0.85801 4.528368,1.02793 0.72216,0.0765 1.44432,0.11045 2.16648,0.11045 3.763728,0 7.501968,-1.01952 10.53504,-2.89714 3.109536,-2.18347 4.910688,-5.56488 5.488416,-10.34804 0.475776,-3.94223 0.144432,-8.96328 -1.045008,-15.81964 -0.305856,-1.77566 -0.76464,-4.34995 -1.325376,-7.54436 4.8852,-1.63132 8.419536,-4.66439 11.622528,-9.63455 2.795099,-4.88518 3.593808,-10.06774 2.37888,-15.41167 m -25.666501,-66.2094 c 1.512373,-4.87662 3.840277,-7.63782 5.530981,-9.10763 1.4868,-1.29139 2.88864,-1.89469 3.670272,-1.89469 0.118944,0 0.220896,0.017 0.305856,0.0425 0.390731,0.11894 0.841104,0.6033 1.240331,1.34245 1.962661,3.6447 1.333957,9.3456 0.195493,13.11774 -1.384933,4.58784 -3.86568,9.36259 -11.34216,17.52725 -0.144432,-0.94306 -0.280453,-1.83514 -0.407893,-2.66766 -1.062,-7.04327 -0.790043,-13.21986 0.80712,-18.35994 m -3.3984,88.45194 c -3.942059,-1.0366 -7.705787,-3.1606 -10.900283,-6.1342 -1.112976,-1.04492 -2.701728,-2.8886 -3.95064,-5.76878 -1.164037,-2.6847 -1.724705,-5.59881 -1.682225,-8.64891 0.05949,-3.98457 1.172465,-8.07963 3.304961,-12.1493 2.480747,-4.74077 6.355008,-9.43897 11.503584,-13.96734 1.23192,-1.08757 2.395872,-2.17506 3.491856,-3.26255 0.645696,3.6193 1.350864,7.60392 2.098427,11.74997 -3.27096,1.07899 -7.30656,3.75523 -9.948731,8.55547 -3.007669,5.59039 -2.88864,10.27174 -2.268432,13.22833 0.798624,3.78918 2.948112,6.98373 5.887643,8.75932 0.790213,0.47586 4.299061,2.28551 5.86224,1.79274 0.314437,-0.10195 0.543829,-0.28895 0.662773,-0.56923 0.433296,-0.99412 -0.433296,-1.53786 -1.758672,-2.35344 -0.50976,-0.31437 -1.078992,-0.67122 -1.6992,-1.12149 -2.820672,-2.11545 -4.052592,-5.89617 -3.14352,-9.61749 0.492768,-2.03904 1.580256,-3.87414 3.14352,-5.31846 1.418832,-1.31692 3.152016,-2.25148 5.173979,-2.79522 1.733269,9.54954 3.48336,19.02254 4.876789,26.1252 0.110448,0.58622 0.229392,1.15554 0.33984,1.72477 -3.721248,0.79013 -7.417008,0.71358 -10.993909,-0.22939 m 21.8772,-8.66592 c -0.993947,2.70164 -3.083963,6.1596 -7.442411,7.90969 -0.05947,-0.35683 -0.12744,-0.72216 -0.195408,-1.08749 -1.308384,-7.45097 -2.956608,-16.78802 -4.621824,-26.3376 8.79336,-0.39931 12.421152,5.92177 13.177296,10.02532 0.399227,2.14101 0.390816,5.91318 -0.917653,9.49008"
     class="Clef" />
  <path
     style="stroke-width:0.8496"
     id="path26938"
     d="m 109.66996,188.76632 c -0.50976,-3.31344 -2.5488,-6.45696 -6.88176,-6.45696 -4.248,0 -6.71184,2.63376 -7.13664,3.14352 l 0.33984,-27.27216 c 0,-0.67968 -0.50976,-1.18944 -1.18944,-1.18944 h -1.01952 c -0.67968,0 -1.18944,0.50976 -1.18944,1.18944 l 0.4248,51.06096 c 0,0.67968 0.50976,1.18944 1.18944,1.18944 0.16992,0 0.50976,-0.085 0.67968,-0.16992 0.33984,-0.16992 5.86224,-2.88864 10.45008,-8.0712 3.22848,-3.65328 4.50288,-7.81632 4.50288,-11.29968 0,-0.76464 -0.085,-1.44432 -0.16992,-2.124 m -5.86224,3.31344 c 0,1.2744 -0.33984,5.18256 -2.46384,8.41104 -1.44432,2.20896 -4.33296,4.50288 -5.9472,5.77728 l 0.25488,-16.5672 c 0.16992,-0.76464 1.44432,-3.22848 4.84272,-3.22848 3.05856,0 3.31344,2.88864 3.31344,4.6728 v 0.93456"
     class="KeySig" />
  <path
     style="stroke-width:0.8496"
     id="path26968"
     d="m 401.0232,16.992 v 8.15616 h 2.71872 V 16.992 c 3.3984,-0.76464 5.9472,-4.33296 5.9472,-8.41104 C 409.68912,3.90816 406.46064,0 402.38256,0 398.30448,0 395.076,3.90816 395.076,8.58096 c 0,4.07808 2.5488,7.6464 5.9472,8.41104 m 1.35936,-15.88752 c 1.44432,0 3.22848,3.22848 3.22848,7.2216 0,3.99312 -1.78416,7.30656 -3.22848,7.30656 -1.44432,0 -3.22848,-3.31344 -3.22848,-7.30656 0,-3.99312 1.78416,-7.2216 3.22848,-7.2216"
     class="Articulation" />
  <path
     style="stroke-width:0.8496"
     id="path26970"
     d="m 1180.4772,85.022 v 8.15616 h 2.7187 V 85.022 c 3.3984,-0.76464 5.9472,-4.33296 5.9472,-8.41104 0,-4.6728 -3.2285,-8.58096 -7.3065,-8.58096 -4.0781,0 -7.3066,3.90816 -7.3066,8.58096 0,4.07808 2.5488,7.6464 5.9472,8.41104 m 1.3594,-15.88752 c 1.4443,0 3.2284,3.22848 3.2284,7.2216 0,3.99312 -1.7841,7.30656 -3.2284,7.30656 -1.4444,0 -3.2285,-3.31344 -3.2285,-7.30656 0,-3.99312 1.7841,-7.2216 3.2285,-7.2216"
     class="Articulation" />
  <path
     style="stroke-width:0.8496"
     id="path27052"
     d="m 401.2222,48.352 v 8.15616 h 2.71872 V 48.352 c 3.3984,-0.76464 5.9472,-4.33296 5.9472,-8.41104 0,-4.6728 -3.22848,-8.58096 -7.30656,-8.58096 -4.07808,0 -7.30656,3.90816 -7.30656,8.58096 0,4.07808 2.5488,7.6464 5.9472,8.41104 m 1.35936,-15.88752 c 1.44432,0 3.22848,3.22848 3.22848,7.2216 0,3.99312 -1.78416,7.30656 -3.22848,7.30656 -1.44432,0 -3.22848,-3.31344 -3.22848,-7.30656 0,-3.99312 1.78416,-7.2216 3.22848,-7.2216"
     class="Articulation" />
  <path
     style="stroke-width:0.8496"
     id="path27054"
     d="m 1180.4772,51.102 v 8.15616 h 2.7187 V 51.102 c 3.3984,-0.76464 5.9472,-4.33296 5.9472,-8.41104 0,-4.6728 -3.2285,-8.58096 -7.3065,-8.58096 -4.0781,0 -7.3066,3.90816 -7.3066,8.58096 0,4.07808 2.5488,7.6464 5.9472,8.41104 m 1.3594,-15.88752 c 1.4443,0 3.2284,3.22848 3.2284,7.2216 0,3.99312 -1.7841,7.30656 -3.2284,7.30656 -1.4444,0 -3.2285,-3.31344 -3.2285,-7.30656 0,-3.99312 1.7841,-7.2216 3.2285,-7.2216"
     class="Articulation" />
  <path
     style="stroke-width:0.8496"
     id="path27056"
     d="m 1281.4072,49.252 v 8.15616 h 2.7187 V 49.252 c 3.3984,-0.76464 5.9472,-4.33296 5.9472,-8.41104 0,-4.6728 -3.2285,-8.58096 -7.3065,-8.58096 -4.0781,0 -7.3066,3.90816 -7.3066,8.58096 0,4.07808 2.5488,7.6464 5.9472,8.41104 m 1.3594,-15.88752 c 1.4443,0 3.2284,3.22848 3.2284,7.2216 0,3.99312 -1.7841,7.30656 -3.2284,7.30656 -1.4444,0 -3.2285,-3.31344 -3.2285,-7.30656 0,-3.99312 1.7841,-7.2216 3.2285,-7.2216"
     class="Articulation" />
  <path
     style="stroke-width:0.8496"
     id="path27058"
     d="m 1725.4972,30.202 v 8.15616 h 2.7187 V 30.202 c 3.3984,-0.76464 5.9472,-4.33296 5.9472,-8.41104 0,-4.6728 -3.2285,-8.58096 -7.3065,-8.58096 -4.0781,0 -7.3066,3.90816 -7.3066,8.58096 0,4.07808 2.5488,7.6464 5.9472,8.41104 m 1.3594,-15.88752 c 1.4443,0 3.2284,3.22848 3.2284,7.2216 0,3.99312 -1.7841,7.30656 -3.2284,7.30656 -1.4444,0 -3.2285,-3.31344 -3.2285,-7.30656 0,-3.99312 1.7841,-7.2216 3.2285,-7.2216"
     class="Articulation" />
  <path
     style="stroke-width:0.8496"
     id="path27060"
     d="m 1875.6372,35.832 v 8.15616 h 2.7187 V 35.832 c 3.3984,-0.76464 5.9472,-4.33296 5.9472,-8.41104 0,-4.6728 -3.2285,-8.58096 -7.3065,-8.58096 -4.0781,0 -7.3066,3.90816 -7.3066,8.58096 0,4.07808 2.5488,7.6464 5.9472,8.41104 m 1.3594,-15.88752 c 1.4443,0 3.2284,3.22848 3.2284,7.2216 0,3.99312 -1.7841,7.30656 -3.2284,7.30656 -1.4444,0 -3.2285,-3.31344 -3.2285,-7.30656 0,-3.99312 1.7841,-7.2216 3.2285,-7.2216"
     class="Articulation" />
  <path
     id="path27420"
     d="m 176.624,87.50816 c -1.156,1.4 -4.284,2.45 -7.412,2.52 v 1.46 h 2.992 c 1.972,0.03 2.176,0.24 2.108,2.14 v 13.64 c 0,1.73 0,1.8 -0.204,2.1 -0.272,0.34 -0.918,0.48 -2.822,0.48 h -2.21 v 1.6 h 13.464 v -1.6 h -1.87 c -1.904,0 -2.55,-0.14 -2.822,-0.48 -0.238,-0.3 -0.238,-0.34 -0.238,-2.1 v -14.05 c 0,-1.9 0.068,-3.5 0.238,-5.71 h -1.224"
     class="Fingering" />
  <path
     id="path27422"
     d="m 405.67,106.16816 c 3.094,-1.13 4.522,-2.86 4.522,-5.58 0,-3.57 -2.72,-5.85 -6.936,-5.85 -3.978,0 -7.004,2.35 -7.004,5.44 0,1.4 0.918,2.38 2.244,2.38 1.19,0 2.006,-0.81 2.006,-2.04 0,-0.75 -0.272,-1.19 -1.054,-1.73 -0.34,-0.24 -0.442,-0.38 -0.442,-0.61 0,-0.96 1.972,-1.98 3.91,-1.98 2.448,0 3.74,1.53 3.74,4.42 0,3.17 -1.292,4.83 -3.706,4.83 -0.306,0 -0.884,-0.03 -1.394,-0.07 -0.272,-0.03 -0.544,-0.03 -0.748,-0.03 -0.714,0 -1.088,0.31 -1.088,0.92 0,0.58 0.34,0.85 1.088,0.85 0.204,0 0.476,0 0.782,-0.04 0.68,-0.03 1.224,-0.03 1.598,-0.03 2.516,0 3.876,1.8 3.876,5.17 0,3.53 -1.7,5.51 -4.76,5.51 -2.142,0 -4.454,-1.16 -4.454,-2.21 0,-0.31 0.068,-0.38 0.714,-0.75 0.952,-0.58 1.326,-1.16 1.326,-2.01 0,-1.22 -0.918,-2.14 -2.142,-2.14 -1.462,0 -2.414,1.19 -2.414,2.99 0,3.3 3.026,5.58 7.378,5.58 4.93,0 8.126,-2.72 8.126,-6.9 0,-3.2 -1.632,-5.14 -5.168,-6.12"
     class="Fingering" />
  <path
     id="path27424"
     d="m 543.94,97.26816 c -1.156,1.4 -4.284,2.45 -7.412,2.52 v 1.46 h 2.992 c 1.972,0.03 2.176,0.24 2.108,2.14 v 13.64 c 0,1.73 0,1.8 -0.204,2.1 -0.272,0.34 -0.918,0.48 -2.822,0.48 h -2.21 v 1.6 h 13.464 v -1.6 h -1.87 c -1.904,0 -2.55,-0.14 -2.822,-0.48 -0.238,-0.3 -0.238,-0.34 -0.238,-2.1 v -14.05 c 0,-1.9 0.068,-3.5 0.238,-5.71 h -1.224"
     class="Fingering" />
  <path
     id="path27426"
     d="m 853.04,119.71816 -11.56,16.09 v 1.9 h 9.56 v 1.77 c 0,1.73 0,1.8 -0.21,2.11 -0.27,0.37 -0.92,0.47 -2.85,0.47 h -0.38 v 1.6 h 9.93 v -1.6 h -0.14 c -1.93,0 -2.58,-0.1 -2.85,-0.47 -0.21,-0.31 -0.21,-0.34 -0.21,-2.11 v -1.77 h 4.12 v -1.9 h -4.12 v -9.29 c 0,-4.25 0,-4.35 0.17,-6.8 h -1.46 m -2,16.09 h -7.48 l 7.48,-10.31 v 10.31"
     class="Fingering" />
  <path
     id="path27428"
     d="m 1013.21,93.73816 c -1.15,1.4 -4.28,2.45 -7.41,2.52 v 1.46 h 2.99 c 1.98,0.04 2.18,0.24 2.11,2.14 v 13.64 c 0,1.73 0,1.8 -0.2,2.11 -0.27,0.34 -0.92,0.47 -2.82,0.47 h -2.21 v 1.6 h 13.46 v -1.6 h -1.87 c -1.9,0 -2.55,-0.13 -2.82,-0.47 -0.24,-0.31 -0.24,-0.34 -0.24,-2.11 v -14.04 c 0,-1.91 0.07,-3.51 0.24,-5.72 h -1.23"
     class="Fingering" />
  <path
     id="path27430"
     d="m 1149.69,105.55816 c -4.76,0 -8.23,5.17 -8.23,12.31 0,7.01 3.37,12.14 7.96,12.14 4.76,0 8.09,-4.96 8.09,-12.04 0,-3.6 -0.75,-6.59 -2.18,-8.94 -1.32,-2.14 -3.5,-3.47 -5.64,-3.47 m -0.24,1.47 c 1.12,0 2.21,0.74 3.03,2.1 0.92,1.6 1.22,3.54 1.22,8.2 0,4.79 -0.24,7.04 -0.92,8.53 -0.78,1.67 -2,2.69 -3.29,2.69 -1.16,0 -2.21,-0.75 -3.03,-2.11 -0.95,-1.6 -1.22,-3.71 -1.22,-9.28 0,-3.98 0.23,-5.95 0.91,-7.45 0.79,-1.7 2.01,-2.68 3.3,-2.68"
     class="Fingering" />
  <path
     id="path27432"
     d="m 1200.53,116.51816 c 0,9.69 -7.86,17.54 -17.55,17.54 -9.68,0 -17.54,-7.85 -17.54,-17.54 0,-9.69 7.86,-17.55 17.54,-17.55 9.69,0 17.55,7.86 17.55,17.55"
     fill-rule="evenodd"
     stroke-miterlimit="2"
     stroke-linejoin="miter"
     stroke-linecap="square"
     stroke-width="2.12"
     stroke="#000000"
     fill="none"
     class="Fingering" />
  <path
     id="path27434"
     d="m 1185.56,115.70816 c 3.1,-1.12 4.52,-2.86 4.52,-5.58 0,-3.57 -2.72,-5.85 -6.93,-5.85 -3.98,0 -7.01,2.35 -7.01,5.44 0,1.4 0.92,2.38 2.25,2.38 1.19,0 2,-0.81 2,-2.04 0,-0.74 -0.27,-1.19 -1.05,-1.73 -0.34,-0.24 -0.44,-0.37 -0.44,-0.61 0,-0.95 1.97,-1.97 3.91,-1.97 2.45,0 3.74,1.53 3.74,4.42 0,3.16 -1.29,4.82 -3.71,4.82 -0.3,0 -0.88,-0.03 -1.39,-0.06 -0.27,-0.04 -0.55,-0.04 -0.75,-0.04 -0.71,0 -1.09,0.31 -1.09,0.92 0,0.58 0.34,0.85 1.09,0.85 0.2,0 0.48,0 0.78,-0.03 0.68,-0.04 1.23,-0.04 1.6,-0.04 2.52,0 3.88,1.8 3.88,5.17 0,3.54 -1.7,5.51 -4.76,5.51 -2.15,0 -4.46,-1.16 -4.46,-2.21 0,-0.31 0.07,-0.38 0.72,-0.75 0.95,-0.58 1.32,-1.16 1.32,-2.01 0,-1.22 -0.92,-2.14 -2.14,-2.14 -1.46,0 -2.41,1.19 -2.41,2.99 0,3.3 3.02,5.58 7.37,5.58 4.93,0 8.13,-2.72 8.13,-6.9 0,-3.2 -1.63,-5.14 -5.17,-6.12"
     class="Fingering" />
  <path
     id="path27436"
     d="m 1284.47,68.26816 c -1.16,1.39 -4.29,2.45 -7.41,2.51 v 1.47 h 2.99 c 1.97,0.03 2.17,0.23 2.11,2.14 v 13.63 c 0,1.74 0,1.8 -0.21,2.11 -0.27,0.34 -0.92,0.48 -2.82,0.48 h -2.21 v 1.59 h 13.46 v -1.59 h -1.87 c -1.9,0 -2.55,-0.14 -2.82,-0.48 -0.24,-0.31 -0.24,-0.34 -0.24,-2.11 v -14.04 c 0,-1.9 0.07,-3.5 0.24,-5.71 h -1.22"
     class="Fingering" />
  <path
     id="path27438"
     d="m 1381.07,104.46816 c -1.16,1.4 -4.29,2.45 -7.41,2.52 v 1.46 h 2.99 c 1.97,0.03 2.17,0.24 2.11,2.14 v 13.64 c 0,1.73 0,1.8 -0.21,2.1 -0.27,0.34 -0.92,0.48 -2.82,0.48 h -2.21 v 1.6 h 13.46 v -1.6 h -1.87 c -1.9,0 -2.55,-0.14 -2.82,-0.48 -0.24,-0.3 -0.24,-0.34 -0.24,-2.1 v -14.05 c 0,-1.9 0.07,-3.5 0.24,-5.71 h -1.22"
     class="Fingering" />
  <path
     id="path27440"
     d="m 1386.89,90.28816 h -1.5 l -0.34,1.73 c -0.44,2.21 -0.71,2.41 -2.82,2.41 h -7.61 c 2.34,-2.44 3.12,-3.16 5.3,-4.86 3.09,-2.38 4.42,-3.57 5.2,-4.59 1.09,-1.49 1.63,-2.99 1.63,-4.66 0,-3.87 -3.19,-6.63 -7.65,-6.63 -4.31,0 -7.61,2.76 -7.61,6.4 0,2.14 1.09,3.6 2.68,3.6 1.26,0 2.11,-0.85 2.11,-2.07 0,-0.85 -0.47,-1.64 -1.19,-1.94 -1.26,-0.51 -1.32,-0.58 -1.32,-1.02 0,-0.51 0.34,-1.29 0.81,-1.87 0.85,-1.06 2.25,-1.63 3.84,-1.63 2.83,0 4.49,1.73 4.49,4.59 0,2.51 -1.19,4.79 -4.01,7.78 -2.52,2.65 -4.08,4.32 -4.66,4.97 -1.22,1.42 -1.83,2.21 -3.33,4.18 v 0.95 h 15.33 l 0.65,-7.34"
     class="Fingering" />
  <path
     id="path27442"
     d="m 1495.65,127.55816 v -21.18 l 2.76,7.14 1.8,-0.81 -4.35,-9.73 -2.62,0.04 -4.32,9.69 1.77,0.81 2.79,-7.14 v 21.18 h 2.17 m 22.2,-23.93 c -1.15,1.39 -4.28,2.45 -7.41,2.51 v 1.47 h 2.99 c 1.98,0.03 2.18,0.23 2.11,2.14 v 13.63 c 0,1.74 0,1.8 -0.2,2.11 -0.27,0.34 -0.92,0.48 -2.82,0.48 h -2.21 v 1.59 h 13.46 v -1.59 h -1.87 c -1.9,0 -2.55,-0.14 -2.82,-0.48 -0.24,-0.31 -0.24,-0.34 -0.24,-2.11 v -14.04 c 0,-1.9 0.07,-3.5 0.24,-5.71 h -1.23"
     class="Fingering" />
  <path
     id="path27444"
     d="m 1517.91,71.12816 c -1.15,1.4 -4.28,2.45 -7.41,2.52 v 1.46 h 2.99 c 1.97,0.03 2.18,0.24 2.11,2.14 v 13.64 c 0,1.73 0,1.8 -0.2,2.1 -0.28,0.34 -0.92,0.48 -2.83,0.48 h -2.21 v 1.6 h 13.47 v -1.6 h -1.87 c -1.91,0 -2.55,-0.14 -2.82,-0.48 -0.24,-0.3 -0.24,-0.34 -0.24,-2.1 v -14.05 c 0,-1.9 0.07,-3.5 0.24,-5.71 h -1.23"
     class="Fingering" />
  <path
     id="path27446"
     d="m 1730.01,118.40816 c -1.15,1.4 -4.28,2.45 -7.41,2.52 v 1.46 h 2.99 c 1.98,0.03 2.18,0.24 2.11,2.14 v 13.64 c 0,1.73 0,1.8 -0.2,2.1 -0.27,0.34 -0.92,0.48 -2.82,0.48 h -2.21 v 1.6 h 13.46 v -1.6 h -1.87 c -1.9,0 -2.55,-0.14 -2.82,-0.48 -0.24,-0.3 -0.24,-0.34 -0.24,-2.1 v -14.05 c 0,-1.9 0.07,-3.5 0.24,-5.71 h -1.23"
     class="Fingering" />
  <path
     id="path27448"
     d="m 1744.86,98.90816 c 0,9.69 -7.85,17.54 -17.54,17.54 -9.69,0 -17.55,-7.85 -17.55,-17.54 0,-9.69 7.86,-17.55 17.55,-17.55 9.69,0 17.54,7.86 17.54,17.55"
     fill-rule="evenodd"
     stroke-miterlimit="2"
     stroke-linejoin="miter"
     stroke-linecap="square"
     stroke-width="2.12"
     stroke="#000000"
     fill="none"
     class="Fingering" />
  <path
     id="path27450"
     d="m 1729.89,98.09816 c 3.1,-1.12 4.53,-2.86 4.53,-5.58 0,-3.57 -2.72,-5.85 -6.94,-5.85 -3.98,0 -7,2.35 -7,5.44 0,1.4 0.91,2.38 2.24,2.38 1.19,0 2.01,-0.81 2.01,-2.04 0,-0.74 -0.28,-1.19 -1.06,-1.73 -0.34,-0.24 -0.44,-0.37 -0.44,-0.61 0,-0.95 1.97,-1.97 3.91,-1.97 2.45,0 3.74,1.53 3.74,4.42 0,3.16 -1.29,4.82 -3.71,4.82 -0.3,0 -0.88,-0.03 -1.39,-0.06 -0.27,-0.04 -0.54,-0.04 -0.75,-0.04 -0.71,0 -1.09,0.31 -1.09,0.92 0,0.58 0.34,0.85 1.09,0.85 0.21,0 0.48,0 0.78,-0.03 0.68,-0.04 1.23,-0.04 1.6,-0.04 2.52,0 3.88,1.8 3.88,5.17 0,3.54 -1.7,5.51 -4.76,5.51 -2.14,0 -4.46,-1.16 -4.46,-2.21 0,-0.31 0.07,-0.38 0.72,-0.75 0.95,-0.58 1.32,-1.16 1.32,-2.01 0,-1.22 -0.91,-2.14 -2.14,-2.14 -1.46,0 -2.41,1.19 -2.41,2.99 0,3.3 3.02,5.58 7.38,5.58 4.93,0 8.12,-2.72 8.12,-6.9 0,-3.2 -1.63,-5.14 -5.17,-6.12"
     class="Fingering" />
  <path
     id="path27452"
     d="m 1856.45,120.13816 -2.18,0.03 v 21.18 l -2.78,-7.14 -1.77,0.78 4.32,9.73 h 2.61 l 4.36,-9.73 -1.81,-0.78 -2.75,7.14 v -21.21 m 22.2,0.64 c -1.16,1.4 -4.28,2.45 -7.41,2.52 v 1.46 h 2.99 c 1.97,0.03 2.18,0.24 2.11,2.14 v 13.64 c 0,1.73 0,1.8 -0.21,2.1 -0.27,0.34 -0.91,0.48 -2.82,0.48 h -2.21 v 1.6 h 13.47 v -1.6 h -1.87 c -1.91,0 -2.55,-0.14 -2.83,-0.48 -0.23,-0.3 -0.23,-0.34 -0.23,-2.1 v -14.05 c 0,-1.9 0.06,-3.5 0.23,-5.71 h -1.22"
     class="Fingering" />
  <path
     id="path27454"
     d="m 1855.92,111.91816 v -21.19 l 2.75,7.14 1.8,-0.81 -4.35,-9.73 -2.62,0.04 -4.31,9.69 1.76,0.81 2.79,-7.14 v 21.19 h 2.18 m 23.76,-23.94 -11.56,16.08 v 1.91 h 9.56 v 1.76 c 0,1.74 0,1.81 -0.21,2.11 -0.27,0.38 -0.91,0.48 -2.85,0.48 h -0.38 v 1.6 h 9.93 v -1.6 h -0.13 c -1.94,0 -2.59,-0.1 -2.86,-0.48 -0.2,-0.3 -0.2,-0.34 -0.2,-2.11 v -1.76 h 4.11 v -1.91 h -4.11 v -9.28 c 0,-4.25 0,-4.35 0.17,-6.8 h -1.47 m -2,16.08 h -7.48 l 7.48,-10.3 v 10.3"
     class="Fingering" />
  <path
     id="path27672"
     d="m 183.092,72.58816 h -1.496 l -0.34,1.73 c -0.442,2.21 -0.714,2.41 -2.822,2.41 h -7.616 c 2.346,-2.44 3.128,-3.16 5.304,-4.86 3.094,-2.38 4.42,-3.57 5.202,-4.59 1.088,-1.49 1.632,-2.99 1.632,-4.66 0,-3.87 -3.196,-6.63 -7.65,-6.63 -4.318,0 -7.616,2.76 -7.616,6.4 0,2.14 1.088,3.6 2.686,3.6 1.258,0 2.108,-0.85 2.108,-2.07 0,-0.85 -0.476,-1.64 -1.19,-1.94 -1.258,-0.51 -1.326,-0.58 -1.326,-1.02 0,-0.51 0.34,-1.29 0.816,-1.87 0.85,-1.06 2.244,-1.63 3.842,-1.63 2.822,0 4.488,1.73 4.488,4.59 0,2.51 -1.19,4.79 -4.012,7.78 -2.516,2.65 -4.08,4.32 -4.658,4.97 -1.224,1.42 -1.836,2.21 -3.332,4.18 v 0.95 h 15.334 l 0.646,-7.34"
     class="Fingering" />
  <path
     id="path27674"
     d="m 176.554,24.39816 -11.56,16.09 v 1.9 h 9.554 v 1.77 c 0,1.73 0,1.8 -0.204,2.11 -0.272,0.37 -0.918,0.47 -2.856,0.47 h -0.374 v 1.6 h 9.928 v -1.6 h -0.136 c -1.938,0 -2.584,-0.1 -2.856,-0.47 -0.204,-0.31 -0.204,-0.34 -0.204,-2.11 v -1.77 h 4.114 v -1.9 h -4.114 v -9.29 c 0,-4.25 0,-4.35 0.17,-6.8 h -1.462 m -2.006,16.09 h -7.48 l 7.48,-10.31 v 10.31"
     class="Fingering" />
  <path
     id="path27676"
     d="m 410.558,80.13816 h -1.496 l -0.34,1.74 c -0.442,2.21 -0.714,2.41 -2.822,2.41 h -7.616 c 2.346,-2.45 3.128,-3.16 5.304,-4.86 3.094,-2.38 4.42,-3.57 5.202,-4.59 1.088,-1.5 1.632,-2.99 1.632,-4.66 0,-3.88 -3.196,-6.63 -7.65,-6.63 -4.318,0 -7.616,2.75 -7.616,6.39 0,2.14 1.088,3.61 2.686,3.61 1.258,0 2.108,-0.85 2.108,-2.08 0,-0.85 -0.476,-1.63 -1.19,-1.94 -1.258,-0.51 -1.326,-0.57 -1.326,-1.02 0,-0.51 0.34,-1.29 0.816,-1.87 0.85,-1.05 2.244,-1.63 3.842,-1.63 2.822,0 4.488,1.74 4.488,4.59 0,2.52 -1.19,4.8 -4.012,7.79 -2.516,2.65 -4.08,4.32 -4.658,4.96 -1.224,1.43 -1.836,2.21 -3.332,4.18 v 0.96 h 15.334 l 0.646,-7.35"
     class="Fingering" />
  <path
     id="path27678"
     d="m 568.262,97.02816 -11.56,16.08 v 1.9 h 9.554 v 1.77 c 0,1.74 0,1.8 -0.204,2.11 -0.272,0.37 -0.918,0.48 -2.856,0.48 h -0.374 v 1.59 h 9.928 v -1.59 h -0.136 c -1.938,0 -2.584,-0.11 -2.856,-0.48 -0.204,-0.31 -0.204,-0.34 -0.204,-2.11 v -1.77 h 4.114 v -1.9 h -4.114 v -9.28 c 0,-4.25 0,-4.35 0.17,-6.8 h -1.462 m -2.006,16.08 h -7.48 l 7.48,-10.3 v 10.3"
     class="Fingering" />
  <path
     id="path27680"
     d="m 566.591,64.35816 c -1.156,1.4 -4.284,2.45 -7.412,2.52 v 1.46 h 2.992 c 1.972,0.03 2.176,0.24 2.108,2.14 v 13.64 c 0,1.73 0,1.8 -0.204,2.1 -0.272,0.34 -0.918,0.48 -2.822,0.48 h -2.21 v 1.6 h 13.464 v -1.6 h -1.87 c -1.904,0 -2.55,-0.14 -2.822,-0.48 -0.238,-0.3 -0.238,-0.34 -0.238,-2.1 v -14.05 c 0,-1.9 0.068,-3.5 0.238,-5.71 h -1.224"
     class="Fingering" />
  <path
     id="path27682"
     d="m 572.754,49.04816 h -1.496 l -0.34,1.73 c -0.442,2.21 -0.714,2.42 -2.822,2.42 h -7.616 c 2.346,-2.45 3.128,-3.16 5.304,-4.86 3.094,-2.38 4.42,-3.57 5.202,-4.59 1.088,-1.5 1.632,-3 1.632,-4.66 0,-3.88 -3.196,-6.63 -7.65,-6.63 -4.318,0 -7.616,2.75 -7.616,6.39 0,2.14 1.088,3.6 2.686,3.6 1.258,0 2.108,-0.85 2.108,-2.07 0,-0.85 -0.476,-1.63 -1.19,-1.94 -1.258,-0.51 -1.326,-0.58 -1.326,-1.02 0,-0.51 0.34,-1.29 0.816,-1.87 0.85,-1.05 2.244,-1.63 3.842,-1.63 2.822,0 4.488,1.73 4.488,4.59 0,2.52 -1.19,4.79 -4.012,7.79 -2.516,2.65 -4.08,4.31 -4.658,4.96 -1.224,1.43 -1.836,2.21 -3.332,4.18 v 0.95 h 15.334 l 0.646,-7.34"
     class="Fingering" />
  <path
     id="path27684"
     d="m 852.75,89.75816 c -1.16,1.4 -4.29,2.45 -7.42,2.52 v 1.46 h 3 c 1.97,0.03 2.17,0.24 2.1,2.14 v 13.64 c 0,1.73 0,1.8 -0.2,2.1 -0.27,0.34 -0.92,0.48 -2.82,0.48 h -2.21 v 1.6 h 13.46 v -1.6 h -1.87 c -1.9,0 -2.55,-0.14 -2.82,-0.48 -0.24,-0.3 -0.24,-0.34 -0.24,-2.1 v -14.05 c 0,-1.9 0.07,-3.5 0.24,-5.71 h -1.22"
     class="Fingering" />
  <path
     id="path27686"
     d="m 858.91,76.38816 h -1.5 l -0.34,1.74 c -0.44,2.21 -0.71,2.41 -2.82,2.41 h -7.62 c 2.35,-2.45 3.13,-3.16 5.31,-4.86 3.09,-2.38 4.42,-3.57 5.2,-4.59 1.09,-1.5 1.63,-2.99 1.63,-4.66 0,-3.87 -3.19,-6.63 -7.65,-6.63 -4.32,0 -7.61,2.76 -7.61,6.39 0,2.15 1.08,3.61 2.68,3.61 1.26,0 2.11,-0.85 2.11,-2.08 0,-0.85 -0.48,-1.63 -1.19,-1.93 -1.26,-0.51 -1.33,-0.58 -1.33,-1.02 0,-0.51 0.34,-1.3 0.82,-1.87 0.85,-1.06 2.24,-1.64 3.84,-1.64 2.82,0 4.49,1.74 4.49,4.59 0,2.52 -1.19,4.8 -4.01,7.79 -2.52,2.65 -4.08,4.32 -4.66,4.96 -1.22,1.43 -1.84,2.21 -3.33,4.19 v 0.95 h 15.33 l 0.65,-7.35"
     class="Fingering" />
  <path
     id="path27688"
     d="m 1012.9,63.86816 c -1.16,1.4 -4.29,2.45 -7.42,2.52 v 1.46 h 3 c 1.97,0.03 2.17,0.24 2.1,2.14 v 13.64 c 0,1.73 0,1.8 -0.2,2.1 -0.27,0.34 -0.92,0.48 -2.82,0.48 h -2.21 v 1.6 h 13.46 v -1.6 h -1.87 c -1.9,0 -2.55,-0.14 -2.82,-0.48 -0.24,-0.3 -0.24,-0.34 -0.24,-2.1 v -14.05 c 0,-1.9 0.07,-3.5 0.24,-5.71 h -1.22"
     class="Fingering" />
  <path
     id="path27690"
     d="m 1038.35,63.86816 -11.56,16.08 v 1.91 h 9.55 v 1.77 c 0,1.73 0,1.8 -0.2,2.1 -0.28,0.38 -0.92,0.48 -2.86,0.48 h -0.37 v 1.6 h 9.92 v -1.6 h -0.13 c -1.94,0 -2.59,-0.1 -2.86,-0.48 -0.2,-0.3 -0.2,-0.34 -0.2,-2.1 v -1.77 h 4.11 v -1.91 h -4.11 v -9.28 c 0,-4.25 0,-4.35 0.17,-6.8 h -1.46 m -2.01,16.08 h -7.48 l 7.48,-10.3 v 10.3"
     class="Fingering" />
  <path
     id="path27692"
     d="m 1043.98,49.04816 h -1.5 l -0.34,1.74 c -0.44,2.21 -0.71,2.41 -2.82,2.41 h -7.61 c 2.34,-2.45 3.12,-3.16 5.3,-4.86 3.09,-2.38 4.42,-3.57 5.2,-4.59 1.09,-1.5 1.63,-2.99 1.63,-4.66 0,-3.88 -3.19,-6.63 -7.65,-6.63 -4.31,0 -7.61,2.75 -7.61,6.39 0,2.14 1.09,3.61 2.68,3.61 1.26,0 2.11,-0.85 2.11,-2.08 0,-0.85 -0.47,-1.63 -1.19,-1.94 -1.26,-0.51 -1.32,-0.57 -1.32,-1.02 0,-0.51 0.34,-1.29 0.81,-1.87 0.85,-1.05 2.25,-1.63 3.84,-1.63 2.83,0 4.49,1.74 4.49,4.59 0,2.52 -1.19,4.8 -4.01,7.79 -2.52,2.65 -4.08,4.32 -4.66,4.96 -1.22,1.43 -1.83,2.21 -3.33,4.18 v 0.96 h 15.33 l 0.65,-7.35"
     class="Fingering" />
  <path
     id="path27694"
     d="m 1267.09,33.09816 -2.18,0.03 v 21.19 l -2.79,-7.14 -1.77,0.78 4.32,9.72 h 2.62 l 4.35,-9.72 -1.8,-0.78 -2.75,7.14 v -21.22"
     class="Fingering" />
  <path
     id="path27696"
     d="m 1382.23,40.55816 -11.56,16.09 v 1.9 h 9.55 v 1.77 c 0,1.73 0,1.8 -0.2,2.11 -0.27,0.37 -0.92,0.47 -2.86,0.47 h -0.37 v 1.6 h 9.93 v -1.6 h -0.14 c -1.94,0 -2.58,-0.1 -2.85,-0.47 -0.21,-0.31 -0.21,-0.34 -0.21,-2.11 v -1.77 h 4.12 v -1.9 h -4.12 v -9.29 c 0,-4.25 0,-4.35 0.17,-6.8 h -1.46 m -2.01,16.09 h -7.48 l 7.48,-10.31 v 10.31"
     class="Fingering" />
  <path
     id="path27698"
     d="m 1517.08,40.13816 -11.56,16.08 v 1.91 h 9.55 v 1.76 c 0,1.74 0,1.81 -0.2,2.11 -0.28,0.38 -0.92,0.48 -2.86,0.48 h -0.37 v 1.6 h 9.92 v -1.6 h -0.13 c -1.94,0 -2.59,-0.1 -2.86,-0.48 -0.2,-0.3 -0.2,-0.34 -0.2,-2.11 v -1.76 h 4.11 v -1.91 h -4.11 v -9.28 c 0,-4.25 0,-4.35 0.17,-6.8 h -1.46 m -2.01,16.08 h -7.48 l 7.48,-10.3 v 10.3"
     class="Fingering" />
  <path
     id="path27700"
     d="m 1627.3,86.42816 c 3.09,-1.12 4.52,-2.85 4.52,-5.57 0,-3.57 -2.72,-5.85 -6.94,-5.85 -3.98,0 -7,2.34 -7,5.44 0,1.39 0.92,2.38 2.24,2.38 1.19,0 2.01,-0.82 2.01,-2.04 0,-0.75 -0.27,-1.19 -1.06,-1.74 -0.34,-0.23 -0.44,-0.37 -0.44,-0.61 0,-0.95 1.97,-1.97 3.91,-1.97 2.45,0 3.74,1.53 3.74,4.42 0,3.16 -1.29,4.83 -3.7,4.83 -0.31,0 -0.89,-0.04 -1.4,-0.07 -0.27,-0.03 -0.54,-0.03 -0.75,-0.03 -0.71,0 -1.08,0.3 -1.08,0.91 0,0.58 0.34,0.85 1.08,0.85 0.21,0 0.48,0 0.79,-0.03 0.68,-0.03 1.22,-0.03 1.59,-0.03 2.52,0 3.88,1.8 3.88,5.16 0,3.54 -1.7,5.51 -4.76,5.51 -2.14,0 -4.45,-1.15 -4.45,-2.21 0,-0.3 0.06,-0.37 0.71,-0.75 0.95,-0.57 1.33,-1.15 1.33,-2 0,-1.23 -0.92,-2.14 -2.15,-2.14 -1.46,0 -2.41,1.19 -2.41,2.99 0,3.3 3.03,5.57 7.38,5.57 4.93,0 8.12,-2.72 8.12,-6.9 0,-3.19 -1.63,-5.13 -5.16,-6.12"
     class="Fingering" />
  <path
     id="path27702"
     d="m 1627.79,45.04816 -11.56,16.08 v 1.9 h 9.56 v 1.77 c 0,1.73 0,1.8 -0.21,2.11 -0.27,0.37 -0.91,0.47 -2.85,0.47 h -0.38 v 1.6 h 9.93 v -1.6 h -0.13 c -1.94,0 -2.59,-0.1 -2.86,-0.47 -0.2,-0.31 -0.2,-0.34 -0.2,-2.11 v -1.77 h 4.11 v -1.9 h -4.11 v -9.28 c 0,-4.25 0,-4.36 0.17,-6.8 h -1.47 m -2,16.08 h -7.48 l 7.48,-10.3 v 10.3"
     class="Fingering" />
  <path
     id="path27704"
     d="m 1743.93,60.61816 c 0,9.55 -7.74,17.29 -17.29,17.29 -9.56,0 -17.3,-7.74 -17.3,-17.29 0,-9.55 7.74,-17.3 17.3,-17.3 9.55,0 17.29,7.75 17.29,17.3"
     fill-rule="evenodd"
     stroke-miterlimit="2"
     stroke-linejoin="miter"
     stroke-linecap="square"
     stroke-width="2.12"
     stroke="#000000"
     fill="none"
     class="Fingering" />
  <path
     id="path27706"
     d="m 1729.71,48.63816 -11.56,16.08 v 1.9 h 9.55 v 1.77 c 0,1.73 0,1.8 -0.2,2.11 -0.27,0.37 -0.92,0.47 -2.86,0.47 h -0.37 v 1.6 h 9.93 v -1.6 h -0.14 c -1.94,0 -2.58,-0.1 -2.85,-0.47 -0.21,-0.31 -0.21,-0.34 -0.21,-2.11 v -1.77 h 4.12 v -1.9 H 1731 v -9.28 c 0,-4.25 0,-4.36 0.17,-6.8 h -1.46 m -2.01,16.08 h -7.48 l 7.48,-10.3 v 10.3"
     class="Fingering" />
  <path
     id="path27708"
     d="m 1895.25,68.33816 c 0,9.69 -7.86,17.54 -17.55,17.54 -9.69,0 -17.54,-7.85 -17.54,-17.54 0,-9.69 7.85,-17.55 17.54,-17.55 9.69,0 17.55,7.86 17.55,17.55"
     fill-rule="evenodd"
     stroke-miterlimit="2"
     stroke-linejoin="miter"
     stroke-linecap="square"
     stroke-width="2.12"
     stroke="#000000"
     fill="none"
     class="Fingering" />
  <path
     id="path27710"
     d="m 1880.28,67.52816 c 3.09,-1.12 4.52,-2.86 4.52,-5.58 0,-3.57 -2.72,-5.84 -6.93,-5.84 -3.98,0 -7.01,2.34 -7.01,5.44 0,1.39 0.92,2.38 2.25,2.38 1.19,0 2,-0.82 2,-2.04 0,-0.75 -0.27,-1.19 -1.05,-1.74 -0.34,-0.24 -0.44,-0.37 -0.44,-0.61 0,-0.95 1.97,-1.97 3.91,-1.97 2.44,0 3.74,1.53 3.74,4.42 0,3.16 -1.3,4.83 -3.71,4.83 -0.31,0 -0.88,-0.04 -1.39,-0.07 -0.28,-0.04 -0.55,-0.04 -0.75,-0.04 -0.72,0 -1.09,0.31 -1.09,0.92 0,0.58 0.34,0.85 1.09,0.85 0.2,0 0.47,0 0.78,-0.03 0.68,-0.04 1.22,-0.04 1.6,-0.04 2.51,0 3.87,1.81 3.87,5.17 0,3.54 -1.7,5.51 -4.76,5.51 -2.14,0 -4.45,-1.16 -4.45,-2.21 0,-0.31 0.07,-0.37 0.71,-0.75 0.96,-0.58 1.33,-1.15 1.33,-2 0,-1.23 -0.92,-2.15 -2.14,-2.15 -1.46,0 -2.42,1.19 -2.42,3 0,3.29 3.03,5.57 7.38,5.57 4.93,0 8.13,-2.72 8.13,-6.9 0,-3.2 -1.63,-5.13 -5.17,-6.12"
     class="Fingering" />
  <path
     id="path27802"
     d="m 1367.12,373.12816 h 14.19 v -0.93 h -1.2 c -0.29,0 -0.59,-0.04 -0.9,-0.11 -0.31,-0.07 -0.61,-0.16 -0.89,-0.27 -0.29,-0.1 -0.54,-0.23 -0.75,-0.36 -0.21,-0.14 -0.36,-0.28 -0.44,-0.41 -0.18,-0.29 -0.31,-0.73 -0.41,-1.32 -0.1,-0.58 -0.15,-1.41 -0.15,-2.49 v -21.38 c 0,-1 0.06,-1.8 0.17,-2.42 0.12,-0.62 0.26,-1.07 0.44,-1.34 0.65,-0.8 1.63,-1.2 2.93,-1.2 h 1.2 v -0.88 h -14.19 v 0.88 h 1.2 c 0.57,0 1.13,0.11 1.68,0.33 0.56,0.22 0.99,0.53 1.3,0.92 0.13,0.14 0.23,0.31 0.3,0.51 0.08,0.19 0.13,0.43 0.16,0.72 0.03,0.28 0.05,0.63 0.06,1.02 0.01,0.4 0.01,0.89 0.01,1.46 v 21.38 c 0,2.05 -0.19,3.31 -0.58,3.76 -0.33,0.43 -0.73,0.73 -1.2,0.92 -0.47,0.19 -1.05,0.28 -1.73,0.28 h -1.2 v 0.93 m 16.64,0 h 14.19 v -0.93 h -1.2 c -0.29,0 -0.59,-0.04 -0.9,-0.11 -0.31,-0.07 -0.61,-0.16 -0.89,-0.27 -0.29,-0.1 -0.54,-0.23 -0.75,-0.36 -0.21,-0.14 -0.36,-0.28 -0.44,-0.41 -0.18,-0.29 -0.31,-0.73 -0.41,-1.32 -0.1,-0.58 -0.15,-1.41 -0.15,-2.49 v -21.38 c 0,-1 0.06,-1.8 0.17,-2.42 0.12,-0.62 0.26,-1.07 0.44,-1.34 0.65,-0.8 1.63,-1.2 2.93,-1.2 h 1.2 v -0.88 h -14.19 v 0.88 h 1.2 c 0.57,0 1.13,0.11 1.68,0.33 0.56,0.22 0.99,0.53 1.3,0.92 0.13,0.14 0.23,0.31 0.3,0.51 0.08,0.19 0.13,0.43 0.16,0.72 0.03,0.28 0.06,0.63 0.06,1.02 0.01,0.4 0.02,0.89 0.02,1.46 v 21.38 c 0,2.05 -0.2,3.31 -0.59,3.76 -0.33,0.43 -0.72,0.73 -1.2,0.92 -0.47,0.19 -1.05,0.28 -1.73,0.28 h -1.2 v 0.93"
     class="Harmony" />
  <path
     id="path27804"
     d="m 1424.13,360.64816 v 2.42 h -25.09 v -2.42 h 25.09"
     class="Harmony" />
  <path
     id="path27806"
     d="m 1425.4,373.12816 h 14.19 v -0.93 h -1.2 c -0.29,0 -0.59,-0.04 -0.9,-0.11 -0.31,-0.07 -0.61,-0.16 -0.89,-0.27 -0.29,-0.1 -0.54,-0.23 -0.75,-0.36 -0.21,-0.14 -0.35,-0.28 -0.44,-0.41 -0.18,-0.29 -0.31,-0.73 -0.41,-1.32 -0.1,-0.58 -0.15,-1.41 -0.15,-2.49 v -21.38 c 0,-1 0.06,-1.8 0.17,-2.42 0.12,-0.62 0.26,-1.07 0.44,-1.34 0.65,-0.8 1.63,-1.2 2.93,-1.2 h 1.2 v -0.88 h -14.19 v 0.88 h 1.2 c 0.57,0 1.13,0.11 1.68,0.33 0.56,0.22 0.99,0.53 1.3,0.92 0.13,0.14 0.23,0.31 0.3,0.51 0.08,0.19 0.13,0.43 0.16,0.72 0.04,0.28 0.06,0.63 0.06,1.02 0.01,0.4 0.02,0.89 0.02,1.46 v 21.38 c 0,2.05 -0.2,3.31 -0.59,3.76 -0.33,0.43 -0.72,0.73 -1.2,0.92 -0.47,0.19 -1.05,0.28 -1.73,0.28 h -1.2 v 0.93 m 50.9,-32.23 v -0.88 h -10.18 v 0.88 c 0.6,0.1 1.09,0.21 1.47,0.33 0.39,0.12 0.7,0.25 0.93,0.38 0.24,0.13 0.42,0.26 0.55,0.39 0.13,0.13 0.24,0.27 0.32,0.41 0.26,0.44 0.29,1.04 0.1,1.79 -0.2,0.75 -0.53,1.73 -1,2.95 l -7.82,19.24 -8.47,-19.43 c -0.55,-1.27 -0.9,-2.3 -1.04,-3.07 -0.13,-0.77 -0.06,-1.37 0.24,-1.79 0.21,-0.34 0.58,-0.61 1.11,-0.8 0.53,-0.18 1.28,-0.32 2.25,-0.4 v -0.88 h -13.55 v 0.88 c 0.79,0.07 1.41,0.18 1.88,0.33 0.48,0.16 0.9,0.38 1.27,0.67 0.15,0.12 0.29,0.23 0.42,0.33 0.13,0.11 0.28,0.27 0.44,0.49 0.16,0.22 0.35,0.53 0.56,0.93 0.21,0.4 0.46,0.95 0.76,1.67 l 12.35,28.59 h 0.93 l 11.52,-28.25 c 0.7,-1.66 1.47,-2.88 2.32,-3.66 0.28,-0.29 0.64,-0.53 1.1,-0.71 0.46,-0.18 0.97,-0.31 1.54,-0.39"
     class="Harmony" />
  <path
     id="path27808"
     d="m 1520.89,360.64816 v 2.42 h -38.08 v -2.42 h 38.08"
     class="Harmony" />
</svg>
