<?xml version="1.0" encoding="UTF-8" standalone="no"?>
<svg
   xmlns:dc="http://purl.org/dc/elements/1.1/"
   xmlns:cc="http://creativecommons.org/ns#"
   xmlns:rdf="http://www.w3.org/1999/02/22-rdf-syntax-ns#"
   xmlns:svg="http://www.w3.org/2000/svg"
   xmlns="http://www.w3.org/2000/svg"
   xmlns:sodipodi="http://sodipodi.sourceforge.net/DTD/sodipodi-0.dtd"
   xmlns:inkscape="http://www.inkscape.org/namespaces/inkscape"
   inkscape:version="1.0 (4035a4f, 2020-05-01)"
   sodipodi:docname="snippet21.svg"
   id="svg6894"
   version="1.2"
   viewBox="0 0 2340 352.996"
   height="352.996"
   width="2340">
  <metadata
     id="metadata6900">
    <rdf:RDF>
      <cc:Work
         rdf:about="">
        <dc:format>image/svg+xml</dc:format>
        <dc:type
           rdf:resource="http://purl.org/dc/dcmitype/StillImage" />
        <dc:title>Batches2Partita1</dc:title>
      </cc:Work>
    </rdf:RDF>
  </metadata>
  <defs
     id="defs6898" />
  <sodipodi:namedview
     inkscape:current-layer="svg6894"
     inkscape:window-maximized="0"
     inkscape:window-y="23"
     inkscape:window-x="0"
     inkscape:cy="1619.998"
     inkscape:cx="1170"
     inkscape:zoom="0.071596957"
     showgrid="false"
     id="namedview6896"
     inkscape:window-height="480"
     inkscape:window-width="689"
     inkscape:pageshadow="2"
     inkscape:pageopacity="0"
     guidetolerance="10"
     gridtolerance="10"
     objecttolerance="10"
     borderopacity="1"
     bordercolor="#666666"
     pagecolor="#ffffff" />
  <title
     id="title5774">Batches2Partita1</title>
  <desc
     id="desc5776">Generated by MuseScore 3.6.2</desc>
  <polyline
     transform="translate(-360,-360.002)"
     id="polyline5778"
     points="360,537.768 2700,537.768"
     stroke-linejoin="bevel"
     stroke-width="2.34"
     stroke="#000000"
     fill="none"
     class="StaffLines" />
  <polyline
     transform="translate(-360,-360.002)"
     id="polyline5780"
     points="360,559.008 2700,559.008"
     stroke-linejoin="bevel"
     stroke-width="2.34"
     stroke="#000000"
     fill="none"
     class="StaffLines" />
  <polyline
     transform="translate(-360,-360.002)"
     id="polyline5782"
     points="360,580.248 2700,580.248"
     stroke-linejoin="bevel"
     stroke-width="2.34"
     stroke="#000000"
     fill="none"
     class="StaffLines" />
  <polyline
     transform="translate(-360,-360.002)"
     id="polyline5784"
     points="360,601.488 2700,601.488"
     stroke-linejoin="bevel"
     stroke-width="2.34"
     stroke="#000000"
     fill="none"
     class="StaffLines" />
  <polyline
     transform="translate(-360,-360.002)"
     id="polyline5786"
     points="360,622.728 2700,622.728"
     stroke-linejoin="bevel"
     stroke-width="2.34"
     stroke="#000000"
     fill="none"
     class="StaffLines" />
  <path
     id="path5808"
     d="m 261.969,119.738 c 47.344,4.226 88.219,55.542 81.75,102.632 1.818,-43.385 -39.057,-94.701 -81.75,-102.632"
     fill-rule="evenodd"
     stroke-linejoin="round"
     stroke-linecap="round"
     stroke-width="1.49"
     stroke="#000000"
     class="SlurSegment" />
  <path
     id="path5810"
     d="m 397.009,201.13 c 2.754,-25.642 29.399,-41.572 53.29,-31.86 -20.839,-4.607 -47.484,11.323 -53.29,31.86"
     fill-rule="evenodd"
     stroke-linejoin="round"
     stroke-linecap="round"
     stroke-width="1.49"
     stroke="#000000"
     class="SlurSegment" />
  <path
     id="path5812"
     d="M 680.26,105.55 C 711.12,81.99 760.38,92.61 778.79,126.79 759.13,98.424 709.86,87.804 680.26,105.55"
     fill-rule="evenodd"
     stroke-linejoin="round"
     stroke-linecap="round"
     stroke-width="1.49"
     stroke="#000000"
     class="SlurSegment" />
  <path
     id="path5814"
     d="m 875,116.17 c 50.72,-31.309 137.79,-15.379 174.14,31.86 C 1011.72,106.641 924.65,90.711 875,116.17"
     fill-rule="evenodd"
     stroke-linejoin="round"
     stroke-linecap="round"
     stroke-width="1.49"
     stroke="#000000"
     class="SlurSegment" />
  <path
     id="path5816"
     d="m 1138.85,190.51 c 10.65,-27.922 45.67,-38.542 70.04,-21.24 -22.64,-11.611 -57.66,-0.991 -70.04,21.24"
     fill-rule="evenodd"
     stroke-linejoin="round"
     stroke-linecap="round"
     stroke-width="1.49"
     stroke="#000000"
     class="SlurSegment" />
  <path
     id="path5818"
     d="m 1243.91,179.89 c 28.89,-21.865 73.83,-11.245 89.89,21.24 -17.42,-26.697 -62.37,-37.317 -89.89,-21.24"
     fill-rule="evenodd"
     stroke-linejoin="round"
     stroke-linecap="round"
     stroke-width="1.49"
     stroke="#000000"
     class="SlurSegment" />
  <path
     id="path5820"
     d="m 1490.92,169.86 c 36.68,-43.113 118.82,-52.507 164.28,-18.789 -44.79,-27.81 -126.93,-18.415 -164.28,18.789"
     fill-rule="evenodd"
     stroke-linejoin="round"
     stroke-linecap="round"
     stroke-width="1.49"
     stroke="#000000"
     class="SlurSegment" />
  <path
     id="path5822"
     d="m 1801.47,144.857 c 49.39,-48.421 202.43,-53.748 255.07,-8.878 -52.43,-38.927 -205.47,-33.6 -255.07,8.878"
     fill-rule="evenodd"
     stroke-linejoin="round"
     stroke-linecap="round"
     stroke-width="1.49"
     stroke="#000000"
     class="SlurSegment" />
  <polyline
     transform="translate(-360,-360.002)"
     id="polyline5854"
     points="1186.36,536.6 1186.36,623.896"
     stroke-linejoin="bevel"
     stroke-width="3.82"
     stroke="#000000"
     class="BarLine" />
  <polyline
     transform="translate(-360,-360.002)"
     id="polyline5856"
     points="2107.63,536.6 2107.63,623.896"
     stroke-linejoin="bevel"
     stroke-width="3.82"
     stroke="#000000"
     class="BarLine" />
  <path
     style="stroke-width:0.8496"
     id="path5858"
     d="m 2308.0558,209.626 c 0,-2.46384 -1.954,-4.50288 -4.4179,-4.50288 -2.4638,0 -4.4179,2.03904 -4.4179,4.50288 0,2.46384 1.9541,4.50288 4.4179,4.50288 2.4639,0 4.4179,-2.03904 4.4179,-4.50288"
     class="BarLine" />
  <path
     style="stroke-width:0.8496"
     id="path5860"
     d="m 2308.0558,230.866 c 0,-2.46384 -1.954,-4.50288 -4.4179,-4.50288 -2.4638,0 -4.4179,2.03904 -4.4179,4.50288 0,2.46384 1.9541,4.50288 4.4179,4.50288 2.4639,0 4.4179,-2.03904 4.4179,-4.50288"
     class="BarLine" />
  <polyline
     transform="translate(-360,-360.002)"
     id="polyline5862"
     points="2678.51,536.6 2678.51,623.896"
     stroke-linejoin="bevel"
     stroke-width="3.82"
     stroke="#000000"
     class="BarLine" />
  <polyline
     transform="translate(-360,-360.002)"
     id="polyline5864"
     points="2693.38,536.6 2693.38,623.896"
     stroke-linejoin="bevel"
     stroke-width="11.68"
     stroke="#000000"
     class="BarLine" />
  <path
     style="stroke-width:0.8496"
     id="path5880"
     d="m 2138.8957,200.62024 c 0.5097,-0.085 0.9345,-0.67968 0.9345,-1.18944 v -5.01264 c 0,-0.67968 -0.5097,-1.18944 -1.1894,-1.18944 h -0.1699 l -2.8037,0.59472 V 181.1644 h -2.3789 v 13.1688 l -7.5614,1.52928 v -11.97936 h -2.3789 v 12.48912 l -3.3134,0.67968 c -0.5098,0.085 -0.9346,0.67968 -0.9346,1.18944 v 0.16992 4.92768 -0.16992 c 0,0.67968 0.5098,1.18944 1.1894,1.18944 h 0.2549 l 2.8037,-0.59472 v 14.0184 l -3.3134,0.67968 c -0.5098,0.085 -0.9346,0.67968 -0.9346,1.18944 v 4.92768 c 0,0.67968 0.5098,1.18944 1.1894,1.18944 h 0.2549 l 2.8037,-0.59472 v 12.65904 h 2.3789 v -13.1688 l 7.5614,-1.52928 V 235.114 h 2.3789 v -12.48912 l 3.2285,-0.59472 c 0.5097,-0.085 0.9345,-0.67968 0.9345,-1.18944 v -5.01264 c 0,-0.67968 -0.5097,-1.18944 -1.1894,-1.18944 h -0.1699 l -2.8037,0.59472 v -14.0184 l 3.2285,-0.59472 m -13.1688,16.73712 V 203.254 l 7.5614,-1.52928 v 14.0184 l -7.5614,1.61424"
     class="Accidental" />
  <path
     style="stroke-width:0.8496"
     id="path5882"
     d="m 229.80236,204.69832 c -0.16992,-0.16992 -0.4248,-0.25488 -0.67968,-0.25488 -0.085,0 -0.25488,0.085 -0.33984,0.085 l -10.70496,2.9736 V 192.634 H 215.699 v 42.0552 c 0,0.67968 0.50976,1.10448 1.18944,1.10448 h 0.33984 l 10.70496,-2.9736 v 14.868 h 2.29392 v -42.0552 c 0,-0.33984 -0.16992,-0.76464 -0.4248,-0.93456 m -1.86912,21.07008 -9.85536,2.71872 v -13.93344 l 9.85536,-2.80368 v 14.0184"
     class="Accidental" />
  <path
     style="stroke-width:0.8496"
     id="path5884"
     d="m 323.67268,232.48024 c 0.50976,-0.085 0.93456,-0.67968 0.93456,-1.18944 v -5.01264 c 0,-0.67968 -0.50976,-1.18944 -1.18944,-1.18944 h -0.16992 l -2.80368,0.59472 V 213.0244 h -2.37888 v 13.1688 l -7.56144,1.52928 V 215.74312 H 308.125 v 12.48912 l -3.31344,0.67968 c -0.50976,0.085 -0.93456,0.67968 -0.93456,1.18944 v 0.16992 4.92768 -0.16992 c 0,0.67968 0.50976,1.18944 1.18944,1.18944 h 0.25488 l 2.80368,-0.59472 v 14.0184 l -3.31344,0.67968 c -0.50976,0.085 -0.93456,0.67968 -0.93456,1.18944 v 4.92768 c 0,0.67968 0.50976,1.18944 1.18944,1.18944 h 0.25488 l 2.80368,-0.59472 v 12.65904 h 2.37888 v -13.1688 l 7.56144,-1.52928 V 266.974 h 2.37888 v -12.48912 l 3.22848,-0.59472 c 0.50976,-0.085 0.93456,-0.67968 0.93456,-1.18944 v -5.01264 c 0,-0.67968 -0.50976,-1.18944 -1.18944,-1.18944 h -0.16992 l -2.80368,0.59472 v -14.0184 l 3.22848,-0.59472 m -13.1688,16.73712 V 235.114 l 7.56144,-1.52928 v 14.0184 l -7.56144,1.61424"
     class="Accidental" />
  <path
     style="stroke-width:0.8496"
     id="path5886"
     d="m 491.33068,158.14024 c 0.50976,-0.085 0.93456,-0.67968 0.93456,-1.18944 v -5.01264 c 0,-0.67968 -0.50976,-1.18944 -1.18944,-1.18944 h -0.16992 l -2.80368,0.59472 V 138.6844 h -2.37888 v 13.1688 l -7.56144,1.52928 V 141.40312 H 475.783 v 12.48912 l -3.31344,0.67968 c -0.50976,0.085 -0.93456,0.67968 -0.93456,1.18944 v 0.16992 4.92768 -0.16992 c 0,0.67968 0.50976,1.18944 1.18944,1.18944 h 0.25488 l 2.80368,-0.59472 v 14.0184 l -3.31344,0.67968 c -0.50976,0.085 -0.93456,0.67968 -0.93456,1.18944 v 4.92768 c 0,0.67968 0.50976,1.18944 1.18944,1.18944 h 0.25488 l 2.80368,-0.59472 v 12.65904 h 2.37888 v -13.1688 l 7.56144,-1.52928 V 192.634 h 2.37888 v -12.48912 l 3.22848,-0.59472 c 0.50976,-0.085 0.93456,-0.67968 0.93456,-1.18944 v -5.01264 c 0,-0.67968 -0.50976,-1.18944 -1.18944,-1.18944 h -0.16992 l -2.80368,0.59472 v -14.0184 l 3.22848,-0.59472 m -13.1688,16.73712 V 160.774 l 7.56144,-1.52928 v 14.0184 l -7.56144,1.61424"
     class="Accidental" />
  <path
     style="stroke-width:0.8496"
     id="path5888"
     d="m 546.71736,130.35832 c -0.16992,-0.16992 -0.4248,-0.25488 -0.67968,-0.25488 -0.085,0 -0.25488,0.085 -0.33984,0.085 l -10.70496,2.9736 V 118.294 H 532.614 v 42.0552 c 0,0.67968 0.50976,1.10448 1.18944,1.10448 h 0.33984 l 10.70496,-2.9736 v 14.868 h 2.29392 v -42.0552 c 0,-0.33984 -0.16992,-0.76464 -0.4248,-0.93456 m -1.86912,21.07008 -9.85536,2.71872 v -13.93344 l 9.85536,-2.80368 v 14.0184"
     class="Accidental" />
  <path
     style="stroke-width:0.8496"
     id="path5890"
     d="m 913.10336,130.35832 c -0.16992,-0.16992 -0.4248,-0.25488 -0.67968,-0.25488 -0.085,0 -0.25488,0.085 -0.33984,0.085 l -10.70496,2.9736 V 118.294 H 899 v 42.0552 c 0,0.67968 0.50976,1.10448 1.18944,1.10448 h 0.33984 l 10.70496,-2.9736 v 14.868 h 2.29392 v -42.0552 c 0,-0.33984 -0.16992,-0.76464 -0.4248,-0.93456 m -1.86912,21.07008 -9.85536,2.71872 v -13.93344 l 9.85536,-2.80368 v 14.0184"
     class="Accidental" />
  <path
     style="stroke-width:0.8496"
     id="path5892"
     d="m 1029.0957,158.14024 c 0.5097,-0.085 0.9345,-0.67968 0.9345,-1.18944 v -5.01264 c 0,-0.67968 -0.5097,-1.18944 -1.1894,-1.18944 h -0.1699 l -2.8037,0.59472 V 138.6844 h -2.3789 v 13.1688 l -7.5614,1.52928 v -11.97936 h -2.3789 v 12.48912 l -3.3134,0.67968 c -0.5098,0.085 -0.9346,0.67968 -0.9346,1.18944 v 0.16992 4.92768 -0.16992 c 0,0.67968 0.5098,1.18944 1.1894,1.18944 h 0.2549 l 2.8037,-0.59472 v 14.0184 l -3.3134,0.67968 c -0.5098,0.085 -0.9346,0.67968 -0.9346,1.18944 v 4.92768 c 0,0.67968 0.5098,1.18944 1.1894,1.18944 h 0.2549 l 2.8037,-0.59472 v 12.65904 h 2.3789 v -13.1688 l 7.5614,-1.52928 V 192.634 h 2.3789 v -12.48912 l 3.2285,-0.59472 c 0.5097,-0.085 0.9345,-0.67968 0.9345,-1.18944 v -5.01264 c 0,-0.67968 -0.5097,-1.18944 -1.1894,-1.18944 h -0.1699 l -2.8037,0.59472 v -14.0184 l 3.2285,-0.59472 m -13.1688,16.73712 V 160.774 l 7.5614,-1.52928 v 14.0184 l -7.5614,1.61424"
     class="Accidental" />
  <path
     style="stroke-width:0.8496"
     id="path5894"
     d="m 1314.2634,204.69832 c -0.17,-0.16992 -0.4248,-0.25488 -0.6797,-0.25488 -0.085,0 -0.2549,0.085 -0.3399,0.085 l -10.7049,2.9736 v -14.868 h -2.3789 v 42.0552 c 0,0.67968 0.5098,1.10448 1.1894,1.10448 h 0.3399 l 10.7049,-2.9736 v 14.868 h 2.294 v -42.0552 c 0,-0.33984 -0.17,-0.76464 -0.4248,-0.93456 m -1.8692,21.07008 -9.8553,2.71872 v -13.93344 l 9.8553,-2.80368 v 14.0184"
     class="Accidental" />
  <path
     style="stroke-width:0.8496"
     id="path5896"
     d="m 1481.3657,200.62024 c 0.5097,-0.085 0.9345,-0.67968 0.9345,-1.18944 v -5.01264 c 0,-0.67968 -0.5097,-1.18944 -1.1894,-1.18944 h -0.1699 l -2.8037,0.59472 V 181.1644 h -2.3789 v 13.1688 l -7.5614,1.52928 v -11.97936 h -2.3789 v 12.48912 l -3.3134,0.67968 c -0.5098,0.085 -0.9346,0.67968 -0.9346,1.18944 v 0.16992 4.92768 -0.16992 c 0,0.67968 0.5098,1.18944 1.1894,1.18944 h 0.2549 l 2.8037,-0.59472 v 14.0184 l -3.3134,0.67968 c -0.5098,0.085 -0.9346,0.67968 -0.9346,1.18944 v 4.92768 c 0,0.67968 0.5098,1.18944 1.1894,1.18944 h 0.2549 l 2.8037,-0.59472 v 12.65904 h 2.3789 v -13.1688 l 7.5614,-1.52928 V 235.114 h 2.3789 v -12.48912 l 3.2285,-0.59472 c 0.5097,-0.085 0.9345,-0.67968 0.9345,-1.18944 v -5.01264 c 0,-0.67968 -0.5097,-1.18944 -1.1894,-1.18944 h -0.1699 l -2.8037,0.59472 v -14.0184 l 3.2285,-0.59472 m -13.1688,16.73712 V 203.254 l 7.5614,-1.52928 v 14.0184 l -7.5614,1.61424"
     class="Accidental" />
  <path
     style="stroke-width:0.8496"
     id="path5898"
     d="m 2036.4857,158.14024 c 0.5097,-0.085 0.9345,-0.67968 0.9345,-1.18944 v -5.01264 c 0,-0.67968 -0.5097,-1.18944 -1.1894,-1.18944 h -0.1699 l -2.8037,0.59472 V 138.6844 h -2.3789 v 13.1688 l -7.5614,1.52928 v -11.97936 h -2.3789 v 12.48912 l -3.3134,0.67968 c -0.5098,0.085 -0.9346,0.67968 -0.9346,1.18944 v 0.16992 4.92768 -0.16992 c 0,0.67968 0.5098,1.18944 1.1894,1.18944 h 0.2549 l 2.8037,-0.59472 v 14.0184 l -3.3134,0.67968 c -0.5098,0.085 -0.9346,0.67968 -0.9346,1.18944 v 4.92768 c 0,0.67968 0.5098,1.18944 1.1894,1.18944 h 0.2549 l 2.8037,-0.59472 v 12.65904 h 2.3789 v -13.1688 l 7.5614,-1.52928 V 192.634 h 2.3789 v -12.48912 l 3.2285,-0.59472 c 0.5097,-0.085 0.9345,-0.67968 0.9345,-1.18944 v -5.01264 c 0,-0.67968 -0.5097,-1.18944 -1.1894,-1.18944 h -0.1699 l -2.8037,0.59472 v -14.0184 l 3.2285,-0.59472 m -13.1688,16.73712 V 160.774 l 7.5614,-1.52928 v 14.0184 l -7.5614,1.61424"
     class="Accidental" />
  <polyline
     transform="translate(-360,-360.002)"
     id="polyline5928"
     points="912.446,516.528 954.92,516.528"
     stroke-linejoin="bevel"
     stroke-width="3.4"
     stroke="#000000"
     class="LedgerLine" />
  <polyline
     transform="translate(-360,-360.002)"
     id="polyline5930"
     points="1019.03,516.528 1061.5,516.528"
     stroke-linejoin="bevel"
     stroke-width="3.4"
     stroke="#000000"
     class="LedgerLine" />
  <polyline
     transform="translate(-360,-360.002)"
     id="polyline5932"
     points="1019.03,495.288 1061.5,495.288"
     stroke-linejoin="bevel"
     stroke-width="3.4"
     stroke="#000000"
     class="LedgerLine" />
  <polyline
     transform="translate(-360,-360.002)"
     id="polyline5934"
     points="1072.32,516.528 1114.79,516.528"
     stroke-linejoin="bevel"
     stroke-width="3.4"
     stroke="#000000"
     class="LedgerLine" />
  <polyline
     transform="translate(-360,-360.002)"
     id="polyline5936"
     points="1072.32,495.288 1114.79,495.288"
     stroke-linejoin="bevel"
     stroke-width="3.4"
     stroke="#000000"
     class="LedgerLine" />
  <polyline
     transform="translate(-360,-360.002)"
     id="polyline5938"
     points="1117.55,516.528 1160.02,516.528"
     stroke-linejoin="bevel"
     stroke-width="3.4"
     stroke="#000000"
     class="LedgerLine" />
  <polyline
     transform="translate(-360,-360.002)"
     id="polyline5940"
     points="1213.76,516.528 1256.23,516.528"
     stroke-linejoin="bevel"
     stroke-width="3.4"
     stroke="#000000"
     class="LedgerLine" />
  <polyline
     transform="translate(-360,-360.002)"
     id="polyline5942"
     points="1213.76,495.288 1256.23,495.288"
     stroke-linejoin="bevel"
     stroke-width="3.4"
     stroke="#000000"
     class="LedgerLine" />
  <polyline
     transform="translate(-360,-360.002)"
     id="polyline5944"
     points="1278.83,516.528 1321.3,516.528"
     stroke-linejoin="bevel"
     stroke-width="3.4"
     stroke="#000000"
     class="LedgerLine" />
  <polyline
     transform="translate(-360,-360.002)"
     id="polyline5946"
     points="1324.06,516.528 1366.54,516.528"
     stroke-linejoin="bevel"
     stroke-width="3.4"
     stroke="#000000"
     class="LedgerLine" />
  <polyline
     transform="translate(-360,-360.002)"
     id="polyline5948"
     points="1432.76,516.528 1475.23,516.528"
     stroke-linejoin="bevel"
     stroke-width="3.4"
     stroke="#000000"
     class="LedgerLine" />
  <polyline
     transform="translate(-360,-360.002)"
     id="polyline5950"
     points="2485.3,516.528 2527.77,516.528"
     stroke-linejoin="bevel"
     stroke-width="3.4"
     stroke="#000000"
     class="LedgerLine" />
  <polyline
     transform="translate(-360,-360.002)"
     id="polyline5952"
     points="2485.3,665.208 2527.77,665.208"
     stroke-linejoin="bevel"
     stroke-width="3.4"
     stroke="#000000"
     class="LedgerLine" />
  <polyline
     transform="translate(-360,-360.002)"
     id="polyline5954"
     points="2485.3,643.968 2527.77,643.968"
     stroke-linejoin="bevel"
     stroke-width="3.4"
     stroke="#000000"
     class="LedgerLine" />
  <polyline
     transform="translate(-360,-360.002)"
     id="polyline5968"
     points="2493.9,668.063 2493.9,712.998"
     stroke-linejoin="bevel"
     stroke-width="2.34"
     stroke="#000000"
     class="Stem" />
  <polyline
     transform="translate(-360,-360.002)"
     id="polyline5970"
     points="2543.97,620.009 2543.97,580.444"
     stroke-linejoin="bevel"
     stroke-width="2.34"
     stroke="#000000"
     class="Stem" />
  <polyline
     transform="translate(-360,-360.002)"
     id="polyline5972"
     points="1716.18,593.723 1716.18,665.208"
     stroke-linejoin="bevel"
     stroke-width="2.34"
     stroke="#000000"
     class="Stem" />
  <polyline
     transform="translate(-360,-360.002)"
     id="polyline5974"
     points="2531.57,566.909 2531.57,518.308"
     stroke-linejoin="bevel"
     stroke-width="2.34"
     stroke="#000000"
     class="Stem" />
  <polyline
     transform="translate(-360,-360.002)"
     id="polyline5978"
     points="621.969,577.529 621.969,500.598"
     stroke-linejoin="bevel"
     stroke-width="2.34"
     stroke="#000000"
     class="Stem" />
  <polyline
     transform="translate(-360,-360.002)"
     id="polyline5980"
     points="655.275,588.149 655.275,505.908"
     stroke-linejoin="bevel"
     stroke-width="2.34"
     stroke="#000000"
     class="Stem" />
  <polyline
     transform="translate(-360,-360.002)"
     id="polyline5982"
     points="691.084,604.343 691.084,665.208"
     stroke-linejoin="bevel"
     stroke-width="2.34"
     stroke="#000000"
     class="Stem" />
  <polyline
     transform="translate(-360,-360.002)"
     id="polyline5984"
     points="744.374,583.103 744.374,656.769"
     stroke-linejoin="bevel"
     stroke-width="2.34"
     stroke="#000000"
     class="Stem" />
  <polyline
     transform="translate(-360,-360.002)"
     id="polyline5986"
     points="797.664,551.243 797.664,648.33"
     stroke-linejoin="bevel"
     stroke-width="2.34"
     stroke="#000000"
     class="Stem" />
  <polyline
     transform="translate(-360,-360.002)"
     id="polyline5988"
     points="858.742,530.003 858.742,638.658"
     stroke-linejoin="bevel"
     stroke-width="2.34"
     stroke="#000000"
     class="Stem" />
  <polyline
     transform="translate(-360,-360.002)"
     id="polyline5990"
     points="921.049,508.763 921.049,638.658"
     stroke-linejoin="bevel"
     stroke-width="2.34"
     stroke="#000000"
     class="Stem" />
  <polyline
     transform="translate(-360,-360.002)"
     id="polyline5992"
     points="974.338,551.243 974.338,638.658"
     stroke-linejoin="bevel"
     stroke-width="2.34"
     stroke="#000000"
     class="Stem" />
  <polyline
     transform="translate(-360,-360.002)"
     id="polyline5994"
     points="1027.63,487.523 1027.63,638.658"
     stroke-linejoin="bevel"
     stroke-width="2.34"
     stroke="#000000"
     class="Stem" />
  <polyline
     transform="translate(-360,-360.002)"
     id="polyline5996"
     points="1080.92,498.143 1080.92,638.658"
     stroke-linejoin="bevel"
     stroke-width="2.34"
     stroke="#000000"
     class="Stem" />
  <polyline
     transform="translate(-360,-360.002)"
     id="polyline5998"
     points="1126.15,508.763 1126.15,638.658"
     stroke-linejoin="bevel"
     stroke-width="2.34"
     stroke="#000000"
     class="Stem" />
  <polyline
     transform="translate(-360,-360.002)"
     id="polyline6000"
     points="1222.36,498.143 1222.36,617.418"
     stroke-linejoin="bevel"
     stroke-width="2.34"
     stroke="#000000"
     class="Stem" />
  <polyline
     transform="translate(-360,-360.002)"
     id="polyline6002"
     points="1287.43,508.763 1287.43,617.418"
     stroke-linejoin="bevel"
     stroke-width="2.34"
     stroke="#000000"
     class="Stem" />
  <polyline
     transform="translate(-360,-360.002)"
     id="polyline6004"
     points="1332.67,519.383 1332.67,617.418"
     stroke-linejoin="bevel"
     stroke-width="2.34"
     stroke="#000000"
     class="Stem" />
  <polyline
     transform="translate(-360,-360.002)"
     id="polyline6006"
     points="1396.5,530.003 1396.5,617.418"
     stroke-linejoin="bevel"
     stroke-width="2.34"
     stroke="#000000"
     class="Stem" />
  <polyline
     transform="translate(-360,-360.002)"
     id="polyline6008"
     points="1441.36,519.383 1441.36,617.418"
     stroke-linejoin="bevel"
     stroke-width="2.34"
     stroke="#000000"
     class="Stem" />
  <polyline
     transform="translate(-360,-360.002)"
     id="polyline6010"
     points="1486.22,572.483 1486.22,638.658"
     stroke-linejoin="bevel"
     stroke-width="2.34"
     stroke="#000000"
     class="Stem" />
  <polyline
     transform="translate(-360,-360.002)"
     id="polyline6012"
     points="1521.24,561.863 1521.24,630.693"
     stroke-linejoin="bevel"
     stroke-width="2.34"
     stroke="#000000"
     class="Stem" />
  <polyline
     transform="translate(-360,-360.002)"
     id="polyline6014"
     points="1556.25,551.243 1556.25,622.728"
     stroke-linejoin="bevel"
     stroke-width="2.34"
     stroke="#000000"
     class="Stem" />
  <polyline
     transform="translate(-360,-360.002)"
     id="polyline6016"
     points="1591.27,561.863 1591.27,622.728"
     stroke-linejoin="bevel"
     stroke-width="2.34"
     stroke="#000000"
     class="Stem" />
  <polyline
     transform="translate(-360,-360.002)"
     id="polyline6018"
     points="1626.29,572.483 1626.29,631.002"
     stroke-linejoin="bevel"
     stroke-width="2.34"
     stroke="#000000"
     class="Stem" />
  <polyline
     transform="translate(-360,-360.002)"
     id="polyline6020"
     points="1681.16,583.103 1681.16,643.968"
     stroke-linejoin="bevel"
     stroke-width="2.34"
     stroke="#000000"
     class="Stem" />
  <polyline
     transform="translate(-360,-360.002)"
     id="polyline6022"
     points="1741.45,588.149 1741.45,521.838"
     stroke-linejoin="bevel"
     stroke-width="2.34"
     stroke="#000000"
     class="Stem" />
  <polyline
     transform="translate(-360,-360.002)"
     id="polyline6024"
     points="1812.97,577.529 1812.97,516.528"
     stroke-linejoin="bevel"
     stroke-width="2.34"
     stroke="#000000"
     class="Stem" />
  <polyline
     transform="translate(-360,-360.002)"
     id="polyline6026"
     points="1848.77,572.483 1848.77,643.968"
     stroke-linejoin="bevel"
     stroke-width="2.34"
     stroke="#000000"
     class="Stem" />
  <polyline
     transform="translate(-360,-360.002)"
     id="polyline6028"
     points="1898.41,578.345 1898.41,528.21"
     stroke-linejoin="bevel"
     stroke-width="1.64"
     stroke="#000000"
     class="Stem" />
  <polyline
     transform="translate(-360,-360.002)"
     id="polyline6030"
     points="1957.71,561.863 1957.71,655.615"
     stroke-linejoin="bevel"
     stroke-width="2.34"
     stroke="#000000"
     class="Stem" />
  <polyline
     transform="translate(-360,-360.002)"
     id="polyline6032"
     points="1936.32,567.725 1936.32,517.59"
     stroke-linejoin="bevel"
     stroke-width="1.64"
     stroke="#000000"
     class="Stem" />
  <polyline
     transform="translate(-360,-360.002)"
     id="polyline6034"
     points="2002.57,551.243 2002.57,660.412"
     stroke-linejoin="bevel"
     stroke-width="2.34"
     stroke="#000000"
     class="Stem" />
  <polyline
     transform="translate(-360,-360.002)"
     id="polyline6036"
     points="2047.43,604.343 2047.43,665.208"
     stroke-linejoin="bevel"
     stroke-width="2.34"
     stroke="#000000"
     class="Stem" />
  <polyline
     transform="translate(-360,-360.002)"
     id="polyline6038"
     points="2161.47,609.389 2161.47,537.768"
     stroke-linejoin="bevel"
     stroke-width="2.34"
     stroke="#000000"
     class="Stem" />
  <polyline
     transform="translate(-360,-360.002)"
     id="polyline6040"
     points="2202.8,630.629 2202.8,532.458"
     stroke-linejoin="bevel"
     stroke-width="2.34"
     stroke="#000000"
     class="Stem" />
  <polyline
     transform="translate(-360,-360.002)"
     id="polyline6042"
     points="2244.12,609.389 2244.12,527.148"
     stroke-linejoin="bevel"
     stroke-width="2.34"
     stroke="#000000"
     class="Stem" />
  <polyline
     transform="translate(-360,-360.002)"
     id="polyline6044"
     points="2285.44,588.149 2285.44,521.838"
     stroke-linejoin="bevel"
     stroke-width="2.34"
     stroke="#000000"
     class="Stem" />
  <polyline
     transform="translate(-360,-360.002)"
     id="polyline6046"
     points="2301.5,561.863 2301.5,665.208"
     stroke-linejoin="bevel"
     stroke-width="2.34"
     stroke="#000000"
     class="Stem" />
  <polyline
     transform="translate(-360,-360.002)"
     id="polyline6048"
     points="2342.82,540.623 2342.82,675.895"
     stroke-linejoin="bevel"
     stroke-width="2.34"
     stroke="#000000"
     class="Stem" />
  <polyline
     transform="translate(-360,-360.002)"
     id="polyline6050"
     points="2403.9,530.003 2403.9,691.691"
     stroke-linejoin="bevel"
     stroke-width="2.34"
     stroke="#000000"
     class="Stem" />
  <polyline
     transform="translate(-360,-360.002)"
     id="polyline6052"
     points="2445.23,636.203 2445.23,702.378"
     stroke-linejoin="bevel"
     stroke-width="2.34"
     stroke="#000000"
     class="Stem" />
  <polyline
     transform="translate(-360,-360.002)"
     id="polyline6054"
     points="2519.17,513.809 2519.17,466.083"
     stroke-linejoin="bevel"
     stroke-width="2.34"
     stroke="#000000"
     class="Stem" />
  <path
     style="stroke-width:0.8496"
     id="path6246"
     d="m 2159.5024,298.32424 c -1.5293,-2.80368 -4.7578,-4.33296 -8.6659,-4.33296 -2.8887,0 -6.0322,0.8496 -9.0907,2.46384 -5.6074,2.9736 -9.0058,7.98624 -9.0058,12.3192 0,1.18944 0.2549,2.37888 0.8496,3.48336 1.5293,2.80368 4.7578,4.248 8.6659,4.248 2.8887,0 6.0322,-0.76464 9.0907,-2.37888 5.6074,-2.9736 9.0058,-7.98624 9.0058,-12.3192 0,-1.18944 -0.2549,-2.37888 -0.8496,-3.48336"
     class="Note" />
  <path
     style="stroke-width:0.8496"
     id="path6248"
     d="m 2184.3024,255.84424 c -1.5293,-2.80368 -4.7578,-4.33296 -8.6659,-4.33296 -2.8887,0 -6.0322,0.8496 -9.0907,2.46384 -5.6074,2.9736 -9.0058,7.98624 -9.0058,12.3192 0,1.18944 0.2549,2.37888 0.8496,3.48336 1.5293,2.80368 4.7578,4.248 8.6659,4.248 2.8887,0 6.0322,-0.76464 9.0907,-2.37888 5.6074,-2.9736 9.0058,-7.98624 9.0058,-12.3192 0,-1.18944 -0.2549,-2.37888 -0.8496,-3.48336"
     class="Note" />
  <path
     style="stroke-width:0.8496"
     id="path6250"
     d="m 1381.7724,223.98424 c -1.5293,-2.80368 -4.7578,-4.33296 -8.6659,-4.33296 -2.8887,0 -6.0322,0.8496 -9.0907,2.46384 -5.6074,2.9736 -9.0058,7.98624 -9.0058,12.3192 0,1.18944 0.2549,2.37888 0.8496,3.48336 1.5293,2.80368 4.7578,4.248 8.6659,4.248 2.8887,0 6.0322,-0.76464 9.0907,-2.37888 5.6074,-2.9736 9.0058,-7.98624 9.0058,-12.3192 0,-1.18944 -0.2549,-2.37888 -0.8496,-3.48336"
     class="Note" />
  <path
     style="stroke-width:0.8496"
     id="path6252"
     d="m 2171.9024,202.74424 c -1.5293,-2.80368 -4.7578,-4.33296 -8.6659,-4.33296 -2.8887,0 -6.0322,0.8496 -9.0907,2.46384 -5.6074,2.9736 -9.0058,7.98624 -9.0058,12.3192 0,1.18944 0.2549,2.37888 0.8496,3.48336 1.5293,2.80368 4.7578,4.248 8.6659,4.248 2.8887,0 6.0322,-0.76464 9.0907,-2.37888 5.6074,-2.9736 9.0058,-7.98624 9.0058,-12.3192 0,-1.18944 -0.2549,-2.37888 -0.8496,-3.48336"
     class="Note" />
  <path
     style="stroke-width:0.8496"
     id="path6256"
     d="m 262.2944,213.36424 c -1.52928,-2.80368 -4.75776,-4.33296 -8.66592,-4.33296 -2.88864,0 -6.03216,0.8496 -9.09072,2.46384 -5.60736,2.9736 -9.00576,7.98624 -9.00576,12.3192 0,1.18944 0.25488,2.37888 0.8496,3.48336 1.52928,2.80368 4.75776,4.248 8.66592,4.248 2.88864,0 6.03216,-0.76464 9.09072,-2.37888 5.60736,-2.9736 9.00576,-7.98624 9.00576,-12.3192 0,-1.18944 -0.25488,-2.37888 -0.8496,-3.48336"
     class="Note" />
  <path
     style="stroke-width:0.8496"
     id="path6258"
     d="m 295.6004,223.98424 c -1.52928,-2.80368 -4.75776,-4.33296 -8.66592,-4.33296 -2.88864,0 -6.03216,0.8496 -9.09072,2.46384 -5.60736,2.9736 -9.00576,7.98624 -9.00576,12.3192 0,1.18944 0.25488,2.37888 0.8496,3.48336 1.52928,2.80368 4.75776,4.248 8.66592,4.248 2.88864,0 6.03216,-0.76464 9.09072,-2.37888 5.60736,-2.9736 9.00576,-7.98624 9.00576,-12.3192 0,-1.18944 -0.25488,-2.37888 -0.8496,-3.48336"
     class="Note" />
  <path
     style="stroke-width:0.8496"
     id="path6260"
     d="m 356.6784,234.60424 c -1.52928,-2.80368 -4.75776,-4.33296 -8.66592,-4.33296 -2.88864,0 -6.03216,0.8496 -9.09072,2.46384 -5.60736,2.9736 -9.00576,7.98624 -9.00576,12.3192 0,1.18944 0.25488,2.37888 0.8496,3.48336 1.52928,2.80368 4.75776,4.248 8.66592,4.248 2.88864,0 6.03216,-0.76464 9.09072,-2.37888 5.60736,-2.9736 9.00576,-7.98624 9.00576,-12.3192 0,-1.18944 -0.25488,-2.37888 -0.8496,-3.48336"
     class="Note" />
  <path
     style="stroke-width:0.8496"
     id="path6262"
     d="m 409.9684,213.36424 c -1.52928,-2.80368 -4.75776,-4.33296 -8.66592,-4.33296 -2.88864,0 -6.03216,0.8496 -9.09072,2.46384 -5.60736,2.9736 -9.00576,7.98624 -9.00576,12.3192 0,1.18944 0.25488,2.37888 0.8496,3.48336 1.52928,2.80368 4.75776,4.248 8.66592,4.248 2.88864,0 6.03216,-0.76464 9.09072,-2.37888 5.60736,-2.9736 9.00576,-7.98624 9.00576,-12.3192 0,-1.18944 -0.25488,-2.37888 -0.8496,-3.48336"
     class="Note" />
  <path
     style="stroke-width:0.8496"
     id="path6264"
     d="m 463.2584,181.50424 c -1.52928,-2.80368 -4.75776,-4.33296 -8.66592,-4.33296 -2.88864,0 -6.03216,0.8496 -9.09072,2.46384 -5.60736,2.9736 -9.00576,7.98624 -9.00576,12.3192 0,1.18944 0.25488,2.37888 0.8496,3.48336 1.52928,2.80368 4.75776,4.248 8.66592,4.248 2.88864,0 6.03216,-0.76464 9.09072,-2.37888 5.60736,-2.9736 9.00576,-7.98624 9.00576,-12.3192 0,-1.18944 -0.25488,-2.37888 -0.8496,-3.48336"
     class="Note" />
  <path
     style="stroke-width:0.8496"
     id="path6266"
     d="m 524.3364,160.26424 c -1.52928,-2.80368 -4.75776,-4.33296 -8.66592,-4.33296 -2.88864,0 -6.03216,0.8496 -9.09072,2.46384 -5.60736,2.9736 -9.00576,7.98624 -9.00576,12.3192 0,1.18944 0.25488,2.37888 0.8496,3.48336 1.52928,2.80368 4.75776,4.248 8.66592,4.248 2.88864,0 6.03216,-0.76464 9.09072,-2.37888 5.60736,-2.9736 9.00576,-7.98624 9.00576,-12.3192 0,-1.18944 -0.25488,-2.37888 -0.8496,-3.48336"
     class="Note" />
  <path
     style="stroke-width:0.8496"
     id="path6268"
     d="m 586.6424,139.02424 c -1.52928,-2.80368 -4.75776,-4.33296 -8.66592,-4.33296 -2.88864,0 -6.03216,0.8496 -9.09072,2.46384 -5.60736,2.9736 -9.00576,7.98624 -9.00576,12.3192 0,1.18944 0.25488,2.37888 0.8496,3.48336 1.52928,2.80368 4.75776,4.248 8.66592,4.248 2.88864,0 6.03216,-0.76464 9.09072,-2.37888 5.60736,-2.9736 9.00576,-7.98624 9.00576,-12.3192 0,-1.18944 -0.25488,-2.37888 -0.8496,-3.48336"
     class="Note" />
  <path
     style="stroke-width:0.8496"
     id="path6270"
     d="m 639.9324,181.50424 c -1.52928,-2.80368 -4.75776,-4.33296 -8.66592,-4.33296 -2.88864,0 -6.03216,0.8496 -9.09072,2.46384 -5.60736,2.9736 -9.00576,7.98624 -9.00576,12.3192 0,1.18944 0.25488,2.37888 0.8496,3.48336 1.52928,2.80368 4.75776,4.248 8.66592,4.248 2.88864,0 6.03216,-0.76464 9.09072,-2.37888 5.60736,-2.9736 9.00576,-7.98624 9.00576,-12.3192 0,-1.18944 -0.25488,-2.37888 -0.8496,-3.48336"
     class="Note" />
  <path
     style="stroke-width:0.8496"
     id="path6272"
     d="m 693.2224,117.78424 c -1.52928,-2.80368 -4.75776,-4.33296 -8.66592,-4.33296 -2.88864,0 -6.03216,0.8496 -9.09072,2.46384 -5.60736,2.9736 -9.00576,7.98624 -9.00576,12.3192 0,1.18944 0.25488,2.37888 0.8496,3.48336 1.52928,2.80368 4.75776,4.248 8.66592,4.248 2.88864,0 6.03216,-0.76464 9.09072,-2.37888 5.60736,-2.9736 9.00576,-7.98624 9.00576,-12.3192 0,-1.18944 -0.25488,-2.37888 -0.8496,-3.48336"
     class="Note" />
  <path
     style="stroke-width:0.8496"
     id="path6274"
     d="m 746.5124,128.40424 c -1.52928,-2.80368 -4.75776,-4.33296 -8.66592,-4.33296 -2.88864,0 -6.03216,0.8496 -9.09072,2.46384 -5.60736,2.9736 -9.00576,7.98624 -9.00576,12.3192 0,1.18944 0.25488,2.37888 0.8496,3.48336 1.52928,2.80368 4.75776,4.248 8.66592,4.248 2.88864,0 6.03216,-0.76464 9.09072,-2.37888 5.60736,-2.9736 9.00576,-7.98624 9.00576,-12.3192 0,-1.18944 -0.25488,-2.37888 -0.8496,-3.48336"
     class="Note" />
  <path
     style="stroke-width:0.8496"
     id="path6276"
     d="m 791.7424,139.02424 c -1.52928,-2.80368 -4.75776,-4.33296 -8.66592,-4.33296 -2.88864,0 -6.03216,0.8496 -9.09072,2.46384 -5.60736,2.9736 -9.00576,7.98624 -9.00576,12.3192 0,1.18944 0.25488,2.37888 0.8496,3.48336 1.52928,2.80368 4.75776,4.248 8.66592,4.248 2.88864,0 6.03216,-0.76464 9.09072,-2.37888 5.60736,-2.9736 9.00576,-7.98624 9.00576,-12.3192 0,-1.18944 -0.25488,-2.37888 -0.8496,-3.48336"
     class="Note" />
  <path
     style="stroke-width:0.8496"
     id="path6278"
     d="m 887.9624,128.40424 c -1.52928,-2.80368 -4.75776,-4.33296 -8.66592,-4.33296 -2.88864,0 -6.03216,0.8496 -9.09072,2.46384 -5.60736,2.9736 -9.00576,7.98624 -9.00576,12.3192 0,1.18944 0.25488,2.37888 0.8496,3.48336 1.52928,2.80368 4.75776,4.248 8.66592,4.248 2.88864,0 6.03216,-0.76464 9.09072,-2.37888 5.60736,-2.9736 9.00576,-7.98624 9.00576,-12.3192 0,-1.18944 -0.25488,-2.37888 -0.8496,-3.48336"
     class="Note" />
  <path
     style="stroke-width:0.8496"
     id="path6280"
     d="m 953.0224,139.02424 c -1.52928,-2.80368 -4.75776,-4.33296 -8.66592,-4.33296 -2.88864,0 -6.03216,0.8496 -9.09072,2.46384 -5.60736,2.9736 -9.00576,7.98624 -9.00576,12.3192 0,1.18944 0.25488,2.37888 0.8496,3.48336 1.52928,2.80368 4.75776,4.248 8.66592,4.248 2.88864,0 6.03216,-0.76464 9.09072,-2.37888 5.60736,-2.9736 9.00576,-7.98624 9.00576,-12.3192 0,-1.18944 -0.25488,-2.37888 -0.8496,-3.48336"
     class="Note" />
  <path
     style="stroke-width:0.8496"
     id="path6282"
     d="m 998.2624,149.64424 c -1.52928,-2.80368 -4.75776,-4.33296 -8.66592,-4.33296 -2.88864,0 -6.03216,0.8496 -9.09072,2.46384 -5.60736,2.9736 -9.00576,7.98624 -9.00576,12.3192 0,1.18944 0.25488,2.37888 0.8496,3.48336 1.52928,2.80368 4.75776,4.248 8.66592,4.248 2.88864,0 6.03216,-0.76464 9.09072,-2.37888 5.60736,-2.9736 9.00576,-7.98624 9.00576,-12.3192 0,-1.18944 -0.25488,-2.37888 -0.8496,-3.48336"
     class="Note" />
  <path
     style="stroke-width:0.8496"
     id="path6284"
     d="m 1062.1024,160.26424 c -1.5293,-2.80368 -4.7578,-4.33296 -8.6659,-4.33296 -2.8887,0 -6.0322,0.8496 -9.0907,2.46384 -5.6074,2.9736 -9.0058,7.98624 -9.0058,12.3192 0,1.18944 0.2549,2.37888 0.8496,3.48336 1.5293,2.80368 4.7578,4.248 8.6659,4.248 2.8887,0 6.0322,-0.76464 9.0907,-2.37888 5.6074,-2.9736 9.0058,-7.98624 9.0058,-12.3192 0,-1.18944 -0.2549,-2.37888 -0.8496,-3.48336"
     class="Note" />
  <path
     style="stroke-width:0.8496"
     id="path6286"
     d="m 1106.9524,149.64424 c -1.5293,-2.80368 -4.7578,-4.33296 -8.6659,-4.33296 -2.8887,0 -6.0322,0.8496 -9.0907,2.46384 -5.6074,2.9736 -9.0058,7.98624 -9.0058,12.3192 0,1.18944 0.2549,2.37888 0.8496,3.48336 1.5293,2.80368 4.7578,4.248 8.6659,4.248 2.8887,0 6.0322,-0.76464 9.0907,-2.37888 5.6074,-2.9736 9.0058,-7.98624 9.0058,-12.3192 0,-1.18944 -0.2549,-2.37888 -0.8496,-3.48336"
     class="Note" />
  <path
     style="stroke-width:0.8496"
     id="path6288"
     d="m 1151.8124,202.74424 c -1.5293,-2.80368 -4.7578,-4.33296 -8.6659,-4.33296 -2.8887,0 -6.0322,0.8496 -9.0907,2.46384 -5.6074,2.9736 -9.0058,7.98624 -9.0058,12.3192 0,1.18944 0.2549,2.37888 0.8496,3.48336 1.5293,2.80368 4.7578,4.248 8.6659,4.248 2.8887,0 6.0322,-0.76464 9.0907,-2.37888 5.6074,-2.9736 9.0058,-7.98624 9.0058,-12.3192 0,-1.18944 -0.2549,-2.37888 -0.8496,-3.48336"
     class="Note" />
  <path
     style="stroke-width:0.8496"
     id="path6290"
     d="m 1186.8324,192.12424 c -1.5293,-2.80368 -4.7578,-4.33296 -8.6659,-4.33296 -2.8887,0 -6.0322,0.8496 -9.0907,2.46384 -5.6074,2.9736 -9.0058,7.98624 -9.0058,12.3192 0,1.18944 0.2549,2.37888 0.8496,3.48336 1.5293,2.80368 4.7578,4.248 8.6659,4.248 2.8887,0 6.0322,-0.76464 9.0907,-2.37888 5.6074,-2.9736 9.0058,-7.98624 9.0058,-12.3192 0,-1.18944 -0.2549,-2.37888 -0.8496,-3.48336"
     class="Note" />
  <path
     style="stroke-width:0.8496"
     id="path6292"
     d="m 1221.8524,181.50424 c -1.5293,-2.80368 -4.7578,-4.33296 -8.6659,-4.33296 -2.8887,0 -6.0322,0.8496 -9.0907,2.46384 -5.6074,2.9736 -9.0058,7.98624 -9.0058,12.3192 0,1.18944 0.2549,2.37888 0.8496,3.48336 1.5293,2.80368 4.7578,4.248 8.6659,4.248 2.8887,0 6.0322,-0.76464 9.0907,-2.37888 5.6074,-2.9736 9.0058,-7.98624 9.0058,-12.3192 0,-1.18944 -0.2549,-2.37888 -0.8496,-3.48336"
     class="Note" />
  <path
     style="stroke-width:0.8496"
     id="path6294"
     d="m 1256.8624,192.12424 c -1.5293,-2.80368 -4.7578,-4.33296 -8.6659,-4.33296 -2.8887,0 -6.0322,0.8496 -9.0907,2.46384 -5.6074,2.9736 -9.0058,7.98624 -9.0058,12.3192 0,1.18944 0.2549,2.37888 0.8496,3.48336 1.5293,2.80368 4.7578,4.248 8.6659,4.248 2.8887,0 6.0322,-0.76464 9.0907,-2.37888 5.6074,-2.9736 9.0058,-7.98624 9.0058,-12.3192 0,-1.18944 -0.2549,-2.37888 -0.8496,-3.48336"
     class="Note" />
  <path
     style="stroke-width:0.8496"
     id="path6296"
     d="m 1291.8824,202.74424 c -1.5293,-2.80368 -4.7578,-4.33296 -8.6659,-4.33296 -2.8887,0 -6.0322,0.8496 -9.0907,2.46384 -5.6074,2.9736 -9.0058,7.98624 -9.0058,12.3192 0,1.18944 0.2549,2.37888 0.8496,3.48336 1.5293,2.80368 4.7578,4.248 8.6659,4.248 2.8887,0 6.0322,-0.76464 9.0907,-2.37888 5.6074,-2.9736 9.0058,-7.98624 9.0058,-12.3192 0,-1.18944 -0.2549,-2.37888 -0.8496,-3.48336"
     class="Note" />
  <path
     style="stroke-width:0.8496"
     id="path6298"
     d="m 1346.7524,213.36424 c -1.5293,-2.80368 -4.7578,-4.33296 -8.6659,-4.33296 -2.8887,0 -6.0322,0.8496 -9.0907,2.46384 -5.6074,2.9736 -9.0058,7.98624 -9.0058,12.3192 0,1.18944 0.2549,2.37888 0.8496,3.48336 1.5293,2.80368 4.7578,4.248 8.6659,4.248 2.8887,0 6.0322,-0.76464 9.0907,-2.37888 5.6074,-2.9736 9.0058,-7.98624 9.0058,-12.3192 0,-1.18944 -0.2549,-2.37888 -0.8496,-3.48336"
     class="Note" />
  <path
     style="stroke-width:0.8496"
     id="path6300"
     d="m 1381.7724,223.98424 c -1.5293,-2.80368 -4.7578,-4.33296 -8.6659,-4.33296 -2.8887,0 -6.0322,0.8496 -9.0907,2.46384 -5.6074,2.9736 -9.0058,7.98624 -9.0058,12.3192 0,1.18944 0.2549,2.37888 0.8496,3.48336 1.5293,2.80368 4.7578,4.248 8.6659,4.248 2.8887,0 6.0322,-0.76464 9.0907,-2.37888 5.6074,-2.9736 9.0058,-7.98624 9.0058,-12.3192 0,-1.18944 -0.2549,-2.37888 -0.8496,-3.48336"
     class="Note" />
  <path
     style="stroke-width:0.8496"
     id="path6302"
     d="m 1453.2924,213.36424 c -1.5293,-2.80368 -4.7578,-4.33296 -8.6659,-4.33296 -2.8887,0 -6.0322,0.8496 -9.0907,2.46384 -5.6074,2.9736 -9.0058,7.98624 -9.0058,12.3192 0,1.18944 0.2549,2.37888 0.8496,3.48336 1.5293,2.80368 4.7578,4.248 8.6659,4.248 2.8887,0 6.0322,-0.76464 9.0907,-2.37888 5.6074,-2.9736 9.0058,-7.98624 9.0058,-12.3192 0,-1.18944 -0.2549,-2.37888 -0.8496,-3.48336"
     class="Note" />
  <path
     style="stroke-width:0.8496"
     id="path6304"
     d="m 1514.3724,202.74424 c -1.5293,-2.80368 -4.7578,-4.33296 -8.6659,-4.33296 -2.8887,0 -6.0322,0.8496 -9.0907,2.46384 -5.6074,2.9736 -9.0058,7.98624 -9.0058,12.3192 0,1.18944 0.2549,2.37888 0.8496,3.48336 1.5293,2.80368 4.7578,4.248 8.6659,4.248 2.8887,0 6.0322,-0.76464 9.0907,-2.37888 5.6074,-2.9736 9.0058,-7.98624 9.0058,-12.3192 0,-1.18944 -0.2549,-2.37888 -0.8496,-3.48336"
     class="Note" />
  <path
     style="stroke-width:0.59472"
     id="path6306"
     d="m 1538.6437,215.42877 c -1.0705,-1.96258 -3.3305,-3.03307 -6.0662,-3.03307 -2.022,0 -4.2225,0.59472 -6.3635,1.72468 -3.9251,2.08152 -6.304,5.59037 -6.304,8.62344 0,0.83261 0.1784,1.66522 0.5947,2.43836 1.0705,1.96257 3.3305,2.9736 6.0662,2.9736 2.022,0 4.2225,-0.53525 6.3635,-1.66522 3.9251,-2.08152 6.304,-5.59037 6.304,-8.62344 0,-0.83261 -0.1784,-1.66522 -0.5947,-2.43835"
     class="Note" />
  <path
     style="stroke-width:0.8496"
     id="path6308"
     d="m 1623.3024,192.12424 c -1.5293,-2.80368 -4.7578,-4.33296 -8.6659,-4.33296 -2.8887,0 -6.0322,0.8496 -9.0907,2.46384 -5.6074,2.9736 -9.0058,7.98624 -9.0058,12.3192 0,1.18944 0.2549,2.37888 0.8496,3.48336 1.5293,2.80368 4.7578,4.248 8.6659,4.248 2.8887,0 6.0322,-0.76464 9.0907,-2.37888 5.6074,-2.9736 9.0058,-7.98624 9.0058,-12.3192 0,-1.18944 -0.2549,-2.37888 -0.8496,-3.48336"
     class="Note" />
  <path
     style="stroke-width:0.59472"
     id="path6310"
     d="m 1576.5437,204.80877 c -1.0705,-1.96258 -3.3305,-3.03307 -6.0662,-3.03307 -2.022,0 -4.2225,0.59472 -6.3635,1.72468 -3.9251,2.08152 -6.304,5.59037 -6.304,8.62344 0,0.83261 0.1784,1.66522 0.5947,2.43836 1.0705,1.96257 3.3305,2.9736 6.0662,2.9736 2.022,0 4.2225,-0.53525 6.3635,-1.66522 3.9251,-2.08152 6.304,-5.59037 6.304,-8.62344 0,-0.83261 -0.1784,-1.66522 -0.5947,-2.43835"
     class="Note" />
  <path
     style="stroke-width:0.8496"
     id="path6312"
     d="m 1668.1624,181.50424 c -1.5293,-2.80368 -4.7578,-4.33296 -8.6659,-4.33296 -2.8887,0 -6.0322,0.8496 -9.0907,2.46384 -5.6074,2.9736 -9.0058,7.98624 -9.0058,12.3192 0,1.18944 0.2549,2.37888 0.8496,3.48336 1.5293,2.80368 4.7578,4.248 8.6659,4.248 2.8887,0 6.0322,-0.76464 9.0907,-2.37888 5.6074,-2.9736 9.0058,-7.98624 9.0058,-12.3192 0,-1.18944 -0.2549,-2.37888 -0.8496,-3.48336"
     class="Note" />
  <path
     style="stroke-width:0.8496"
     id="path6314"
     d="m 1713.0224,234.60424 c -1.5293,-2.80368 -4.7578,-4.33296 -8.6659,-4.33296 -2.8887,0 -6.0322,0.8496 -9.0907,2.46384 -5.6074,2.9736 -9.0058,7.98624 -9.0058,12.3192 0,1.18944 0.2549,2.37888 0.8496,3.48336 1.5293,2.80368 4.7578,4.248 8.6659,4.248 2.8887,0 6.0322,-0.76464 9.0907,-2.37888 5.6074,-2.9736 9.0058,-7.98624 9.0058,-12.3192 0,-1.18944 -0.2549,-2.37888 -0.8496,-3.48336"
     class="Note" />
  <path
     style="stroke-width:0.8496"
     id="path6316"
     d="m 1801.7924,245.22424 c -1.5293,-2.80368 -4.7578,-4.33296 -8.6659,-4.33296 -2.8887,0 -6.0322,0.8496 -9.0907,2.46384 -5.6074,2.9736 -9.0058,7.98624 -9.0058,12.3192 0,1.18944 0.2549,2.37888 0.8496,3.48336 1.5293,2.80368 4.7578,4.248 8.6659,4.248 2.8887,0 6.0322,-0.76464 9.0907,-2.37888 5.6074,-2.9736 9.0058,-7.98624 9.0058,-12.3192 0,-1.18944 -0.2549,-2.37888 -0.8496,-3.48336"
     class="Note" />
  <path
     style="stroke-width:0.8496"
     id="path6318"
     d="m 1843.1224,266.46424 c -1.5293,-2.80368 -4.7578,-4.33296 -8.6659,-4.33296 -2.8887,0 -6.0322,0.8496 -9.0907,2.46384 -5.6074,2.9736 -9.0058,7.98624 -9.0058,12.3192 0,1.18944 0.2549,2.37888 0.8496,3.48336 1.5293,2.80368 4.7578,4.248 8.6659,4.248 2.8887,0 6.0322,-0.76464 9.0907,-2.37888 5.6074,-2.9736 9.0058,-7.98624 9.0058,-12.3192 0,-1.18944 -0.2549,-2.37888 -0.8496,-3.48336"
     class="Note" />
  <path
     style="stroke-width:0.8496"
     id="path6320"
     d="m 1884.4424,245.22424 c -1.5293,-2.80368 -4.7578,-4.33296 -8.6659,-4.33296 -2.8887,0 -6.0322,0.8496 -9.0907,2.46384 -5.6074,2.9736 -9.0058,7.98624 -9.0058,12.3192 0,1.18944 0.2549,2.37888 0.8496,3.48336 1.5293,2.80368 4.7578,4.248 8.6659,4.248 2.8887,0 6.0322,-0.76464 9.0907,-2.37888 5.6074,-2.9736 9.0058,-7.98624 9.0058,-12.3192 0,-1.18944 -0.2549,-2.37888 -0.8496,-3.48336"
     class="Note" />
  <path
     style="stroke-width:0.8496"
     id="path6322"
     d="m 1925.7724,223.98424 c -1.5293,-2.80368 -4.7578,-4.33296 -8.6659,-4.33296 -2.8887,0 -6.0322,0.8496 -9.0907,2.46384 -5.6074,2.9736 -9.0058,7.98624 -9.0058,12.3192 0,1.18944 0.2549,2.37888 0.8496,3.48336 1.5293,2.80368 4.7578,4.248 8.6659,4.248 2.8887,0 6.0322,-0.76464 9.0907,-2.37888 5.6074,-2.9736 9.0058,-7.98624 9.0058,-12.3192 0,-1.18944 -0.2549,-2.37888 -0.8496,-3.48336"
     class="Note" />
  <path
     style="stroke-width:0.8496"
     id="path6324"
     d="m 1967.0924,192.12424 c -1.5293,-2.80368 -4.7578,-4.33296 -8.6659,-4.33296 -2.8887,0 -6.0322,0.8496 -9.0907,2.46384 -5.6074,2.9736 -9.0058,7.98624 -9.0058,12.3192 0,1.18944 0.2549,2.37888 0.8496,3.48336 1.5293,2.80368 4.7578,4.248 8.6659,4.248 2.8887,0 6.0322,-0.76464 9.0907,-2.37888 5.6074,-2.9736 9.0058,-7.98624 9.0058,-12.3192 0,-1.18944 -0.2549,-2.37888 -0.8496,-3.48336"
     class="Note" />
  <path
     style="stroke-width:0.8496"
     id="path6326"
     d="m 2008.4124,170.88424 c -1.5293,-2.80368 -4.7578,-4.33296 -8.6659,-4.33296 -2.8887,0 -6.0322,0.8496 -9.0907,2.46384 -5.6074,2.9736 -9.0058,7.98624 -9.0058,12.3192 0,1.18944 0.2549,2.37888 0.8496,3.48336 1.5293,2.80368 4.7578,4.248 8.6659,4.248 2.8887,0 6.0322,-0.76464 9.0907,-2.37888 5.6074,-2.9736 9.0058,-7.98624 9.0058,-12.3192 0,-1.18944 -0.2549,-2.37888 -0.8496,-3.48336"
     class="Note" />
  <path
     style="stroke-width:0.8496"
     id="path6328"
     d="m 2069.4924,160.26424 c -1.5293,-2.80368 -4.7578,-4.33296 -8.6659,-4.33296 -2.8887,0 -6.0322,0.8496 -9.0907,2.46384 -5.6074,2.9736 -9.0058,7.98624 -9.0058,12.3192 0,1.18944 0.2549,2.37888 0.8496,3.48336 1.5293,2.80368 4.7578,4.248 8.6659,4.248 2.8887,0 6.0322,-0.76464 9.0907,-2.37888 5.6074,-2.9736 9.0058,-7.98624 9.0058,-12.3192 0,-1.18944 -0.2549,-2.37888 -0.8496,-3.48336"
     class="Note" />
  <path
     style="stroke-width:0.8496"
     id="path6330"
     d="m 2110.8224,266.46424 c -1.5293,-2.80368 -4.7578,-4.33296 -8.6659,-4.33296 -2.8887,0 -6.0322,0.8496 -9.0907,2.46384 -5.6074,2.9736 -9.0058,7.98624 -9.0058,12.3192 0,1.18944 0.2549,2.37888 0.8496,3.48336 1.5293,2.80368 4.7578,4.248 8.6659,4.248 2.8887,0 6.0322,-0.76464 9.0907,-2.37888 5.6074,-2.9736 9.0058,-7.98624 9.0058,-12.3192 0,-1.18944 -0.2549,-2.37888 -0.8496,-3.48336"
     class="Note" />
  <path
     style="stroke-width:0.8496"
     id="path6332"
     d="m 2159.5024,149.64424 c -1.5293,-2.80368 -4.7578,-4.33296 -8.6659,-4.33296 -2.8887,0 -6.0322,0.8496 -9.0907,2.46384 -5.6074,2.9736 -9.0058,7.98624 -9.0058,12.3192 0,1.18944 0.2549,2.37888 0.8496,3.48336 1.5293,2.80368 4.7578,4.248 8.6659,4.248 2.8887,0 6.0322,-0.76464 9.0907,-2.37888 5.6074,-2.9736 9.0058,-7.98624 9.0058,-12.3192 0,-1.18944 -0.2549,-2.37888 -0.8496,-3.48336"
     class="Note" />
  <path
     style="stroke-width:0.8496"
     id="path6524"
     d="m 52.683696,302.46179 c 0.01699,-1.28281 -0.569317,-2.50632 -1.597248,-3.28795 -1.028016,-0.80712 -2.438352,-1.23192 -4.07808,-1.23192 -1.971072,0 -3.755232,0.6033 -5.021136,1.6992 -1.265904,1.09598 -1.979653,2.65933 -1.979653,4.38402 0,1.58875 0.526837,2.75262 1.792741,3.93356 -0.968544,0.39082 -1.6992,0.79871 -2.344981,1.29148 -1.308299,0.99403 -2.08152,2.46384 -2.08152,3.93356 0,2.7697 2.514901,4.62191 6.270133,4.62191 4.596336,0 7.807824,-2.5488 7.807824,-6.18517 0,-1.89461 -0.8496,-3.54275 -2.404368,-4.68971 2.480832,-1.01952 3.636288,-2.44693 3.636288,-4.46898 m -8.470597,13.5936 c -1.86912,0 -3.109451,-1.20643 -3.109451,-2.99909 0,-1.61424 0.781632,-2.98201 2.200464,-3.85718 0.305856,0.16142 0.38232,0.2039 0.671184,0.34842 1.011024,0.50976 1.011024,0.50976 1.223424,0.6372 h 0.0085 c 1.622736,0.92598 2.276843,1.80115 2.276843,3.0075 0,1.62282 -1.410251,2.86315 -3.27096,2.86315 m 3.203077,-10.20361 c -1.214928,-0.6372 -1.546357,-0.8242 -1.86912,-1.01111 l -0.08496,-0.0509 c -1.31688,-0.79871 -1.724688,-1.37644 -1.724688,-2.44685 0,-1.52928 1.172448,-2.59986 2.837664,-2.59986 1.682208,0 2.650667,1.01952 2.650667,2.78669 0,1.41042 -0.492683,2.31949 -1.809563,3.32202 m 7.111152,-8.74247 -0.33984,-0.17833 v 1.85204 l 0.101952,0.068 c 1.31688,0.93456 1.886112,1.60583 2.455259,2.84616 0.815701,1.75867 1.248997,4.22251 1.248997,7.11965 0,2.65075 -0.348336,4.8852 -1.036597,6.62688 -0.611627,1.59733 -1.23192,2.37888 -2.667659,3.37291 l -0.101952,0.068 v 1.85221 l 0.33984,-0.1785 c 1.852128,-0.96846 2.88864,-1.76717 4.112064,-3.186 2.08152,-2.44685 3.186,-5.40337 3.186,-8.56397 0.0085,-2.90563 -0.968544,-5.7348 -2.769696,-8.01164 -1.265904,-1.63132 -2.489328,-2.63376 -4.528368,-3.68735 M 70.81416,236.49892 c -1.045008,-4.6134 -3.287952,-7.85879 -3.95064,-8.74246 -2.710224,-3.62779 -6.11712,-6.04915 -10.101744,-7.19611 -2.642256,-0.75606 -5.191056,-0.8496 -7.247088,-0.69667 -0.883669,-5.1061 -1.733269,-10.10166 -2.50632,-14.73198 4.63032,-5.24212 7.705872,-10.1698 9.64296,-13.82308 2.948112,-5.59028 3.925152,-9.48145 3.967632,-9.65137 1.461312,-4.4265 1.767168,-10.96842 0.832608,-17.94355 -0.858096,-6.41448 -2.63376,-12.11538 -4.63032,-14.87658 -0.875088,-1.21493 -1.767168,-1.83514 -2.650752,-1.83514 -1.036597,0 -3.169008,1.05351 -5.624437,3.4069 -1.95408,1.86912 -4.732187,5.17406 -6.907163,10.28016 -2.5488,5.99826 -2.727216,14.06088 -2.429856,19.77019 0.322848,6.17659 1.265819,11.0109 1.2744,11.05338 0.01699,0.0764 0.237888,1.35078 0.620208,3.53425 -0.195408,0.19541 -0.399312,0.38232 -0.611712,0.58631 -0.883584,0.8496 -1.894608,1.81806 -3.067056,2.99051 -0.730741,0.73074 -1.537861,1.50379 -2.387461,2.3279 -7.17912,6.91583 -18.045419,17.38282 -18.045419,33.65266 0,3.99312 0.76464,7.74837 2.276911,11.15532 1.350898,3.05856 3.304978,5.84526 5.794289,8.28361 6.567408,6.41448 15.564672,9.14161 21.562848,9.00576 2.50632,-0.0595 4.740768,-0.26346 6.771312,-0.64578 1.554768,8.15616 2.523312,14.12885 2.557296,18.66571 0.03398,5.5309 -1.367856,8.90381 -4.681296,11.2572 -2.064528,1.46981 -4.451904,2.27693 -7.085664,2.40437 -2.200464,0.10195 -4.12056,-0.29736 -5.335488,-0.64561 h -0.0085 c 0,0 -0.246384,-0.068 -0.25488,-0.23789 -0.0085,-0.15301 0.288864,-0.19549 0.29736,-0.19549 h 0.01691 c 1.631317,-0.37374 4.664389,-1.41875 6.66936,-4.22243 1.52928,-2.14099 2.268517,-6.06623 0.705253,-9.41365 -0.943056,-2.03046 -3.075552,-4.53678 -7.850304,-4.9191 -2.115589,-0.16992 -4.044096,0.26329 -5.743296,1.28281 -1.537776,0.91757 -2.812176,2.31091 -3.704256,4.01011 -2.090016,3.99312 -1.6992,8.86133 0.959963,12.12388 1.622821,1.98798 3.840277,3.50876 6.448549,4.46881 l -0.03407,0.017 -0.220811,0.11903 c -1.852128,0.96846 -2.88864,1.76717 -4.112149,3.186 -2.03904,2.37888 -3.168923,5.40337 -3.186,8.5299 -0.0084,2.91413 0.968629,5.75179 2.769781,8.0373 1.299888,1.65672 2.523312,2.65925 4.519872,3.70417 l 0.33984,0.17842 v -1.85213 l -0.09346,-0.068 c -1.31688,-0.93456 -1.894608,-1.59716 -2.46384,-2.84616 -0.815616,-1.75867 -1.248997,-4.23092 -1.248997,-7.15363 0,-2.63376 0.348421,-4.85971 1.036597,-6.60139 0.59472,-1.55477 1.223424,-2.3449 2.667744,-3.37283 l 0.101952,-0.0681 v -1.77558 c 1.410336,0.50976 2.922624,0.85801 4.528368,1.02793 0.72216,0.0765 1.44432,0.11045 2.16648,0.11045 3.763728,0 7.501968,-1.01952 10.53504,-2.89714 3.109536,-2.18347 4.910688,-5.56488 5.488416,-10.34804 0.475776,-3.94223 0.144432,-8.96328 -1.045008,-15.81964 -0.305856,-1.77566 -0.76464,-4.34995 -1.325376,-7.54436 4.8852,-1.63132 8.419536,-4.66439 11.622528,-9.63455 2.795099,-4.88518 3.593808,-10.06774 2.37888,-15.41167 m -25.666501,-66.2094 c 1.512373,-4.87662 3.840277,-7.63782 5.530981,-9.10763 1.4868,-1.29139 2.88864,-1.89469 3.670272,-1.89469 0.118944,0 0.220896,0.017 0.305856,0.0425 0.390731,0.11894 0.841104,0.6033 1.240331,1.34245 1.962661,3.6447 1.333957,9.3456 0.195493,13.11774 -1.384933,4.58784 -3.86568,9.36259 -11.34216,17.52725 -0.144432,-0.94306 -0.280453,-1.83514 -0.407893,-2.66766 -1.062,-7.04327 -0.790043,-13.21986 0.80712,-18.35994 m -3.3984,88.45194 c -3.942059,-1.0366 -7.705787,-3.1606 -10.900283,-6.1342 -1.112976,-1.04492 -2.701728,-2.8886 -3.95064,-5.76878 -1.164037,-2.6847 -1.724705,-5.59881 -1.682225,-8.64891 0.05949,-3.98457 1.172465,-8.07963 3.304961,-12.1493 2.480747,-4.74077 6.355008,-9.43897 11.503584,-13.96734 1.23192,-1.08757 2.395872,-2.17506 3.491856,-3.26255 0.645696,3.6193 1.350864,7.60392 2.098427,11.74997 -3.27096,1.07899 -7.30656,3.75523 -9.948731,8.55547 -3.007669,5.59039 -2.88864,10.27174 -2.268432,13.22833 0.798624,3.78918 2.948112,6.98373 5.887643,8.75932 0.790213,0.47586 4.299061,2.28551 5.86224,1.79274 0.314437,-0.10195 0.543829,-0.28895 0.662773,-0.56923 0.433296,-0.99412 -0.433296,-1.53786 -1.758672,-2.35344 -0.50976,-0.31437 -1.078992,-0.67122 -1.6992,-1.12149 -2.820672,-2.11545 -4.052592,-5.89617 -3.14352,-9.61749 0.492768,-2.03904 1.580256,-3.87414 3.14352,-5.31846 1.418832,-1.31692 3.152016,-2.25148 5.173979,-2.79522 1.733269,9.54954 3.48336,19.02254 4.876789,26.1252 0.110448,0.58622 0.229392,1.15554 0.33984,1.72477 -3.721248,0.79013 -7.417008,0.71358 -10.993909,-0.22939 m 21.8772,-8.66592 c -0.993947,2.70164 -3.083963,6.1596 -7.442411,7.90969 -0.05947,-0.35683 -0.12744,-0.72216 -0.195408,-1.08749 -1.308384,-7.45097 -2.956608,-16.78802 -4.621824,-26.3376 8.79336,-0.39931 12.421152,5.92177 13.177296,10.02532 0.399227,2.14101 0.390816,5.91318 -0.917653,9.49008"
     class="Clef" />
  <path
     style="stroke-width:0.8496"
     id="path6530"
     d="m 109.66996,213.53416 c -0.50976,-3.31344 -2.5488,-6.45696 -6.88176,-6.45696 -4.248,0 -6.71184,2.63376 -7.13664,3.14352 l 0.33984,-27.27216 c 0,-0.67968 -0.50976,-1.18944 -1.18944,-1.18944 h -1.01952 c -0.67968,0 -1.18944,0.50976 -1.18944,1.18944 l 0.4248,51.06096 c 0,0.67968 0.50976,1.18944 1.18944,1.18944 0.16992,0 0.50976,-0.085 0.67968,-0.16992 0.33984,-0.16992 5.86224,-2.88864 10.45008,-8.0712 3.22848,-3.65328 4.50288,-7.81632 4.50288,-11.29968 0,-0.76464 -0.085,-1.44432 -0.16992,-2.124 m -5.86224,3.31344 c 0,1.2744 -0.33984,5.18256 -2.46384,8.41104 -1.44432,2.20896 -4.33296,4.50288 -5.9472,5.77728 l 0.25488,-16.5672 c 0.16992,-0.76464 1.44432,-3.22848 4.84272,-3.22848 3.05856,0 3.31344,2.88864 3.31344,4.6728 v 0.93456"
     class="KeySig" />
  <path
     style="stroke-width:0.8496"
     id="path6536"
     d="m 2266.5861,203.00337 c -0.6372,-0.2209 -1.2064,0.085 -1.4698,0.61171 -0.2633,0.52675 -2.6592,5.14008 -6.321,8.02872 -1.147,0.90909 -2.4724,1.49526 -3.7976,1.81818 0.9089,-1.10448 1.4443,-2.52335 1.3932,-4.06962 -0.1188,-3.34742 -2.9225,-5.96419 -6.27,-5.84525 -3.3475,0.11895 -5.9642,2.92263 -5.8452,6.27005 0.093,2.55726 1.7501,4.68126 4.0185,5.49693 1.3254,0.57771 2.9482,0.89208 4.6899,0.83259 2.4128,-0.085 5.0296,-0.88362 7.2725,-2.65077 1.045,-0.82413 2.022,-1.8691 2.9056,-2.97358 l -0.01,0.017 -3.8148,13.5171 c 0,0.009 -0.01,0.017 -0.017,0.0256 v 0.008 c -0.3907,0.81558 -3.1519,6.05765 -6.5674,8.75088 -1.1469,0.90907 -2.4722,1.4953 -3.7977,1.81814 0.9091,-1.10448 1.4443,-2.52331 1.3934,-4.06958 -0.119,-3.34746 -2.9227,-5.96421 -6.27,-5.84523 -3.3475,0.11889 -5.9642,2.92257 -5.8453,6.27003 0.093,2.5573 1.7502,4.6813 4.0186,5.49691 1.3254,0.57773 2.9481,0.89208 4.6898,0.83261 2.4128,-0.085 5.0296,-0.88358 7.2726,-2.65075 1.0365,-0.81562 2.0136,-1.86063 2.8971,-2.96511 l -8.6744,30.97642 2.2685,0.6372 15.8619,-56.26051 0.7478,-2.65075 c 0.1699,-0.62871 -0.094,-1.20644 -0.7308,-1.42733"
     class="Rest" />
  <path
     id="path6544"
     d="m 260.801,134.846 35.642,5.683 v 10.754 L 260.801,145.6 v -10.754"
     fill-rule="evenodd"
     class="Beam" />
  <path
     id="path6546"
     d="m 260.801,150.776 35.642,5.683 v 10.754 l -35.642,-5.683 v -10.754"
     fill-rule="evenodd"
     class="Beam" />
  <path
     id="path6548"
     d="m 260.801,166.706 35.642,5.683 v 10.754 l -35.642,-5.683 v -10.754"
     fill-rule="evenodd"
     class="Beam" />
  <path
     id="path6550"
     d="m 329.916,299.83 169.995,-26.92 v 10.752 l -169.995,26.92 V 299.83"
     fill-rule="evenodd"
     class="Beam" />
  <path
     id="path6552"
     d="m 329.916,283.9 169.995,-26.92 v 10.752 l -169.995,26.92 V 283.9"
     fill-rule="evenodd"
     class="Beam" />
  <path
     id="path6554"
     d="m 559.88,273.346 h 207.44 v 10.62 H 559.88 v -10.62"
     fill-rule="evenodd"
     class="Beam" />
  <path
     id="path6556"
     d="m 559.88,257.416 h 207.44 v 10.62 H 559.88 v -10.62"
     fill-rule="evenodd"
     class="Beam" />
  <path
     id="path6558"
     d="m 719.75,241.486 h 47.57 v 10.62 h -47.57 v -10.62"
     fill-rule="evenodd"
     class="Beam" />
  <path
     id="path6560"
     d="m 861.2,252.106 h 221.33 v 10.62 H 861.2 v -10.62"
     fill-rule="evenodd"
     class="Beam" />
  <path
     id="path6562"
     d="m 861.2,236.176 h 221.33 v 10.62 H 861.2 v -10.62"
     fill-rule="evenodd"
     class="Beam" />
  <path
     id="path6564"
     d="m 926.26,220.246 h 47.57 v 10.62 h -47.57 v -10.62"
     fill-rule="evenodd"
     class="Beam" />
  <path
     id="path6566"
     d="m 1125.05,273.21 72.37,-16.461 v 10.891 l -72.37,16.462 V 273.21"
     fill-rule="evenodd"
     class="Beam" />
  <path
     id="path6568"
     d="m 1125.05,257.28 72.37,-16.461 v 10.891 l -72.37,16.462 V 257.28"
     fill-rule="evenodd"
     class="Beam" />
  <path
     id="path6570"
     d="m 1230.1,257.27 92.23,21.792 v 10.912 L 1230.1,268.182 V 257.27"
     fill-rule="evenodd"
     class="Beam" />
  <path
     id="path6572"
     d="m 1230.1,241.34 92.23,21.792 v 10.912 L 1230.1,252.252 V 241.34"
     fill-rule="evenodd"
     class="Beam" />
  <path
     id="path6574"
     d="m 1380.28,156.685 73.85,-5.484 v 10.649 l -73.85,5.484 v -10.649"
     fill-rule="evenodd"
     class="Beam" />
  <path
     id="path6576"
     d="m 1454.13,167.131 -27.61,2.05 v 10.65 l 27.61,-2.051 v -10.649"
     fill-rule="evenodd"
     class="Beam" />
  <path
     id="path6578"
     d="m 1487.61,278.626 200.98,21.489 v 10.681 l -200.98,-21.49 v -10.68"
     fill-rule="evenodd"
     class="Beam" />
  <path
     id="path6580"
     d="m 1487.61,262.696 200.98,21.489 v 10.681 l -200.98,-21.49 v -10.68"
     fill-rule="evenodd"
     class="Beam" />
  <path
     id="path6582"
     d="m 1800.3,172.712 126.31,-16.23 v 10.708 l -126.31,16.23 v -10.708"
     fill-rule="evenodd"
     class="Beam" />
  <path
     id="path6584"
     d="m 1800.3,188.642 126.31,-16.23 v 10.708 l -126.31,16.23 v -10.708"
     fill-rule="evenodd"
     class="Beam" />
  <path
     id="path6586"
     d="m 1940.33,299.721 146.06,37.774 v 10.97 l -146.06,-37.774 v -10.97"
     fill-rule="evenodd"
     class="Beam" />
  <path
     id="path6588"
     d="m 1940.33,283.791 146.06,37.774 v 10.97 l -146.06,-37.774 v -10.97"
     fill-rule="evenodd"
     class="Beam" />
  <path
     style="stroke-width:0.8496"
     id="path6692"
     d="m 1357.134,305.54584 c 0,-0.16992 0.7646,-3.05856 0.8496,-3.31344 0.085,-0.33984 1.6142,-5.18256 4.7578,-10.02528 2.2939,-3.56832 10.3651,-14.0184 10.1102,-14.0184 0,0 6.287,-8.0712 6.7118,-19.03104 v -1.95408 c 0,-5.18256 -0.6796,-12.48912 -3.6532,-19.88064 -0.3399,-0.8496 -0.6797,-1.6992 -1.6143,-1.35936 -0.9345,0.33984 -0.6797,1.35936 -0.4248,2.29392 1.5293,5.9472 2.3789,12.06432 2.3789,18.18144 0,7.13664 -2.5488,10.70496 -4.0781,13.33872 -5.6073,9.43056 -12.9139,14.0184 -16.4822,15.20784 -0.4248,0.16992 -0.6797,0.50976 -0.6797,0.93456 v 5.26752 13.93344 c 0,0.59472 0.5098,1.10448 1.1045,1.10448 0.4248,0 0.9345,-0.33984 1.0195,-0.67968"
     class="Hook" />
  <path
     style="stroke-width:0.59472"
     id="path6696"
     d="m 1554.2422,195.62459 c 0,-0.95155 -0.2379,-2.49782 -0.4758,-3.44937 0.2379,-1.78416 0.4758,-3.68727 0.4758,-5.35248 v -0.59472 c -0.059,-3.09255 -0.7732,-6.30404 -2.8547,-8.98028 -2.8547,-3.68726 -6.6014,-5.53089 -8.8613,-8.80185 -2.26,-3.27096 -3.2115,-8.38555 -3.2115,-8.38555 -0.059,-0.41631 -0.1784,-0.77314 -0.8921,-0.77314 -0.7137,0 -0.8326,0.35683 -0.8326,0.77314 v 9.45604 3.44938 0.0595 3.68727 1.01102 3.44938 6.54192 2.91412 c 0,0.11895 0.4163,0.41631 0.8326,0.53525 1.5463,0.59472 6.2446,3.56832 9.8129,8.86133 2.141,3.27096 2.4978,5.41195 2.4978,7.55294 v 0.6542 c -0.06,1.4868 -0.4163,4.51987 -1.3084,6.89875 -0.1784,0.53525 -0.4757,1.30838 0.119,1.60574 0.5947,0.29736 0.9515,-0.29736 1.2489,-0.71366 1.0705,-1.72469 2.6168,-4.93618 2.6168,-8.32608 v -0.17842 c 0,-1.07049 -0.059,-2.85465 -0.2379,-3.92515 0.5352,-2.14099 1.0705,-4.75776 1.0705,-7.49347 v -0.47578 m -5.8283,-15.99797 c 2.6762,3.27096 3.2115,5.70932 3.2115,8.02872 -0.1784,-0.23788 -0.2974,-0.4163 -0.4758,-0.65419 -2.8546,-3.68726 -5.4119,-5.17406 -8.7424,-8.20713 -1.7247,-1.60575 -2.3194,-3.68727 -2.4978,-4.81724 2.6762,0.23789 6.2446,2.91413 8.5045,5.64984 m 1.6057,16.47375 c -1.6057,-2.08152 -3.3304,-4.0441 -6.2445,-6.95823 -2.2599,-2.25993 -3.3899,-4.22251 -3.8062,-5.70931 2.6762,0.29736 6.1851,2.85466 8.445,5.59037 2.6762,3.21149 3.2115,5.70931 3.2115,8.02872 0,0.47578 0,0.89208 -0.059,1.36786 -0.3568,-0.71367 -1.0705,-1.72469 -1.5463,-2.31941"
     class="Hook" />
  <path
     style="stroke-width:0.59472"
     id="path6698"
     d="m 1592.1522,185.00459 c 0,-0.95155 -0.2379,-2.49782 -0.4758,-3.44937 0.2379,-1.78416 0.4758,-3.68727 0.4758,-5.35248 v -0.59472 c -0.06,-3.09255 -0.7732,-6.30404 -2.8547,-8.98028 -2.8547,-3.68726 -6.6014,-5.53089 -8.8613,-8.80185 -2.26,-3.27096 -3.2115,-8.38555 -3.2115,-8.38555 -0.06,-0.41631 -0.1784,-0.77314 -0.8921,-0.77314 -0.7137,0 -0.8326,0.35683 -0.8326,0.77314 v 9.45604 3.44938 0.0595 3.68727 1.01102 3.44938 6.54192 2.91412 c 0,0.11895 0.4163,0.41631 0.8326,0.53525 1.5463,0.59472 6.2446,3.56832 9.8129,8.86133 2.141,3.27096 2.4978,5.41195 2.4978,7.55294 v 0.6542 c -0.059,1.4868 -0.4163,4.51987 -1.3084,6.89875 -0.1784,0.53525 -0.4757,1.30838 0.119,1.60574 0.5947,0.29736 0.9515,-0.29736 1.2489,-0.71366 1.0705,-1.72469 2.6168,-4.93618 2.6168,-8.32608 v -0.17842 c 0,-1.07049 -0.06,-2.85465 -0.2379,-3.92515 0.5352,-2.14099 1.0705,-4.75776 1.0705,-7.49347 v -0.47578 m -5.8283,-15.99797 c 2.6762,3.27096 3.2115,5.70932 3.2115,8.02872 -0.1784,-0.23788 -0.2974,-0.4163 -0.4758,-0.65419 -2.8546,-3.68726 -5.4119,-5.17406 -8.7424,-8.20713 -1.7247,-1.60575 -2.3194,-3.68727 -2.4978,-4.81724 2.6762,0.23789 6.2446,2.91413 8.5045,5.64984 m 1.6057,16.47375 c -1.6057,-2.08152 -3.3304,-4.0441 -6.2445,-6.95823 -2.2599,-2.25993 -3.3899,-4.22251 -3.8062,-5.70931 2.6762,0.29736 6.1851,2.85466 8.445,5.59037 2.6762,3.21149 3.2115,5.70931 3.2115,8.02872 0,0.47578 0,0.89208 -0.06,1.36786 -0.3568,-0.71367 -1.0705,-1.72469 -1.5463,-2.31941"
     class="Hook" />
  <path
     id="path6704"
     d="m 2148.81,76.671 c -1.16,1.394 -4.29,2.448 -7.42,2.516 v 1.462 h 3 c 1.97,0.034 2.17,0.238 2.1,2.142 v 13.634 c 0,1.734 0,1.802 -0.2,2.108 -0.27,0.34 -0.92,0.476 -2.82,0.476 h -2.21 v 1.598 h 13.46 v -1.598 h -1.87 c -1.9,0 -2.55,-0.136 -2.82,-0.476 -0.24,-0.306 -0.24,-0.34 -0.24,-2.108 V 82.383 c 0,-1.904 0.07,-3.502 0.24,-5.712 h -1.22"
     class="Fingering" />
  <path
     id="path6706"
     d="m 2149.11,56.506 c -1.16,1.394 -4.28,2.448 -7.41,2.516 v 1.462 h 2.99 c 1.97,0.034 2.18,0.238 2.11,2.142 V 76.26 c 0,1.734 0,1.802 -0.21,2.108 -0.27,0.34 -0.91,0.476 -2.82,0.476 h -2.21 v 1.598 h 13.47 v -1.598 h -1.87 c -1.91,0 -2.55,-0.136 -2.83,-0.476 -0.23,-0.306 -0.23,-0.34 -0.23,-2.108 V 62.218 c 0,-1.904 0.06,-3.502 0.23,-5.712 h -1.22"
     class="Fingering" />
  <path
     id="path6708"
     d="m 2149.37,41.239 c 3.09,-1.122 4.52,-2.856 4.52,-5.576 0,-3.57 -2.72,-5.848 -6.93,-5.848 -3.98,0 -7.01,2.346 -7.01,5.44 0,1.394 0.92,2.38 2.25,2.38 1.19,0 2,-0.816 2,-2.04 0,-0.748 -0.27,-1.19 -1.05,-1.734 -0.34,-0.238 -0.44,-0.374 -0.44,-0.612 0,-0.952 1.97,-1.972 3.91,-1.972 2.44,0 3.74,1.53 3.74,4.42 0,3.162 -1.3,4.828 -3.71,4.828 -0.31,0 -0.88,-0.034 -1.39,-0.068 -0.28,-0.034 -0.55,-0.034 -0.75,-0.034 -0.72,0 -1.09,0.306 -1.09,0.918 0,0.578 0.34,0.85 1.09,0.85 0.2,0 0.47,0 0.78,-0.034 0.68,-0.034 1.22,-0.034 1.6,-0.034 2.51,0 3.87,1.802 3.87,5.168 0,3.536 -1.7,5.508 -4.76,5.508 -2.14,0 -4.45,-1.156 -4.45,-2.21 0,-0.306 0.07,-0.374 0.71,-0.748 0.96,-0.578 1.33,-1.156 1.33,-2.006 0,-1.224 -0.92,-2.142 -2.14,-2.142 -1.46,0 -2.42,1.19 -2.42,2.992 0,3.298 3.03,5.576 7.38,5.576 4.93,0 8.13,-2.72 8.13,-6.902 0,-3.196 -1.63,-5.134 -5.17,-6.12"
     class="Fingering" />
  <path
     id="path6712"
     d="m 252.409,104.84 -11.56,16.082 v 1.904 h 9.554 v 1.768 c 0,1.734 0,1.802 -0.204,2.108 -0.272,0.374 -0.918,0.476 -2.856,0.476 h -0.374 v 1.598 h 9.928 v -1.598 h -0.136 c -1.938,0 -2.584,-0.102 -2.856,-0.476 -0.204,-0.306 -0.204,-0.34 -0.204,-2.108 v -1.768 h 4.114 v -1.904 h -4.114 v -9.282 c 0,-4.25 0,-4.352 0.17,-6.8 h -1.462 m -2.006,16.082 h -7.48 l 7.48,-10.302 v 10.302"
     class="Fingering" />
  <path
     id="path6714"
     d="m 458.281,144.666 h -1.496 l -0.34,1.734 c -0.442,2.21 -0.714,2.414 -2.822,2.414 h -7.616 c 2.346,-2.448 3.128,-3.162 5.304,-4.862 3.094,-2.38 4.42,-3.57 5.202,-4.59 1.088,-1.496 1.632,-2.992 1.632,-4.658 0,-3.876 -3.196,-6.63 -7.65,-6.63 -4.318,0 -7.616,2.754 -7.616,6.392 0,2.142 1.088,3.604 2.686,3.604 1.258,0 2.108,-0.85 2.108,-2.074 0,-0.85 -0.476,-1.632 -1.19,-1.938 -1.258,-0.51 -1.326,-0.578 -1.326,-1.02 0,-0.51 0.34,-1.292 0.816,-1.87 0.85,-1.054 2.244,-1.632 3.842,-1.632 2.822,0 4.488,1.734 4.488,4.59 0,2.516 -1.19,4.794 -4.012,7.786 -2.516,2.652 -4.08,4.318 -4.658,4.964 -1.224,1.428 -1.836,2.21 -3.332,4.182 v 0.952 h 15.334 l 0.646,-7.344"
     class="Fingering" />
  <path
     id="path6716"
     d="m 512.2,121.514 c -1.156,1.394 -4.284,2.448 -7.412,2.516 v 1.462 h 2.992 c 1.972,0.034 2.176,0.238 2.108,2.142 v 13.634 c 0,1.734 0,1.802 -0.204,2.108 -0.272,0.34 -0.918,0.476 -2.822,0.476 h -2.21 v 1.598 h 13.464 v -1.598 h -1.87 c -1.904,0 -2.55,-0.136 -2.822,-0.476 -0.238,-0.306 -0.238,-0.34 -0.238,-2.108 v -14.042 c 0,-1.904 0.068,-3.502 0.238,-5.712 H 512.2"
     class="Fingering" />
  <path
     id="path6718"
     d="m 576.26,111.198 c 3.094,-1.122 4.522,-2.856 4.522,-5.576 0,-3.57 -2.72,-5.848 -6.936,-5.848 -3.978,0 -7.004,2.346 -7.004,5.44 0,1.394 0.918,2.38 2.244,2.38 1.19,0 2.006,-0.816 2.006,-2.04 0,-0.748 -0.272,-1.19 -1.054,-1.734 -0.34,-0.238 -0.442,-0.374 -0.442,-0.612 0,-0.952 1.972,-1.972 3.91,-1.972 2.448,0 3.74,1.53 3.74,4.42 0,3.162 -1.292,4.828 -3.706,4.828 -0.306,0 -0.884,-0.034 -1.394,-0.068 -0.272,-0.034 -0.544,-0.034 -0.748,-0.034 -0.714,0 -1.088,0.306 -1.088,0.918 0,0.578 0.34,0.85 1.088,0.85 0.204,0 0.476,0 0.782,-0.034 0.68,-0.034 1.224,-0.034 1.598,-0.034 2.516,0 3.876,1.802 3.876,5.168 0,3.536 -1.7,5.508 -4.76,5.508 -2.142,0 -4.454,-1.156 -4.454,-2.21 0,-0.306 0.068,-0.374 0.714,-0.748 0.952,-0.578 1.326,-1.156 1.326,-2.006 0,-1.224 -0.918,-2.142 -2.142,-2.142 -1.462,0 -2.414,1.19 -2.414,2.992 0,3.298 3.026,5.576 7.378,5.576 4.93,0 8.126,-2.72 8.126,-6.902 0,-3.196 -1.632,-5.134 -5.168,-6.12"
     class="Fingering" />
  <path
     id="path6720"
     d="M 606.644,110.765 V 89.583 l 2.754,7.14 1.802,-0.816 -4.352,-9.724 -2.618,0.034 -4.318,9.69 1.768,0.816 2.788,-7.14 v 21.182 h 2.176 m 22.201,-23.936 c -1.156,1.394 -4.284,2.448 -7.412,2.516 v 1.462 h 2.992 c 1.972,0.034 2.176,0.238 2.108,2.142 v 13.634 c 0,1.734 0,1.802 -0.204,2.108 -0.272,0.34 -0.918,0.476 -2.822,0.476 h -2.21 v 1.598 h 13.464 v -1.598 h -1.87 c -1.904,0 -2.55,-0.136 -2.822,-0.476 -0.238,-0.306 -0.238,-0.34 -0.238,-2.108 V 92.541 c 0,-1.904 0.068,-3.502 0.238,-5.712 h -1.224"
     class="Fingering" />
  <path
     id="path6722"
     d="m 682.84,78.379 c 3.09,-1.122 4.52,-2.856 4.52,-5.576 0,-3.57 -2.72,-5.848 -6.93,-5.848 -3.98,0 -7.01,2.346 -7.01,5.44 0,1.394 0.92,2.38 2.25,2.38 1.19,0 2,-0.816 2,-2.04 0,-0.748 -0.27,-1.19 -1.05,-1.734 -0.34,-0.238 -0.44,-0.374 -0.44,-0.612 0,-0.952 1.97,-1.972 3.91,-1.972 2.44,0 3.74,1.53 3.74,4.42 0,3.162 -1.3,4.828 -3.71,4.828 -0.31,0 -0.88,-0.034 -1.39,-0.068 -0.28,-0.034 -0.55,-0.034 -0.75,-0.034 -0.72,0 -1.09,0.306 -1.09,0.918 0,0.578 0.34,0.85 1.09,0.85 0.2,0 0.47,0 0.78,-0.034 0.68,-0.034 1.22,-0.034 1.6,-0.034 2.51,0 3.87,1.802 3.87,5.168 0,3.536 -1.7,5.508 -4.76,5.508 -2.14,0 -4.45,-1.156 -4.45,-2.21 0,-0.306 0.07,-0.374 0.71,-0.748 0.96,-0.578 1.33,-1.156 1.33,-2.006 0,-1.224 -0.92,-2.142 -2.14,-2.142 -1.46,0 -2.42,1.19 -2.42,2.992 0,3.298 3.03,5.576 7.38,5.576 4.93,0 8.13,-2.72 8.13,-6.902 0,-3.196 -1.63,-5.134 -5.17,-6.12"
     class="Fingering" />
  <path
     id="path6724"
     d="m 882.98,92.794 h -1.5 l -0.34,1.734 c -0.44,2.21 -0.71,2.414 -2.82,2.414 h -7.61 c 2.34,-2.448 3.12,-3.162 5.3,-4.862 3.09,-2.38 4.42,-3.57 5.2,-4.59 1.09,-1.496 1.63,-2.992 1.63,-4.658 0,-3.876 -3.19,-6.63 -7.65,-6.63 -4.31,0 -7.61,2.754 -7.61,6.392 0,2.142 1.09,3.604 2.68,3.604 1.26,0 2.11,-0.85 2.11,-2.074 0,-0.85 -0.47,-1.632 -1.19,-1.938 -1.26,-0.51 -1.32,-0.578 -1.32,-1.02 0,-0.51 0.34,-1.292 0.81,-1.87 0.85,-1.054 2.25,-1.632 3.84,-1.632 2.83,0 4.49,1.734 4.49,4.59 0,2.516 -1.19,4.794 -4.01,7.786 -2.52,2.652 -4.08,4.318 -4.66,4.964 -1.22,1.428 -1.83,2.21 -3.33,4.182 v 0.952 h 15.33 l 0.65,-7.344"
     class="Fingering" />
  <path
     id="path6726"
     d="m 1006.39,72.668 c 0,9.69 -7.85,17.545 -17.54,17.545 -9.69,0 -17.55,-7.855 -17.55,-17.545 0,-9.689 7.86,-17.544 17.55,-17.544 9.69,0 17.54,7.855 17.54,17.544"
     fill-rule="evenodd"
     stroke-miterlimit="2"
     stroke-linejoin="miter"
     stroke-linecap="square"
     stroke-width="2.12"
     stroke="#000000"
     fill="none"
     class="Fingering" />
  <path
     id="path6728"
     d="m 989.05,60.436 c -4.76,0 -8.23,5.168 -8.23,12.308 0,7.004 3.37,12.138 7.96,12.138 4.76,0 8.09,-4.964 8.09,-12.036 0,-3.604 -0.75,-6.596 -2.18,-8.942 -1.32,-2.142 -3.5,-3.468 -5.64,-3.468 m -0.24,1.462 c 1.12,0 2.21,0.748 3.03,2.108 0.92,1.598 1.22,3.536 1.22,8.194 0,4.794 -0.24,7.038 -0.92,8.534 -0.78,1.666 -2,2.686 -3.29,2.686 -1.16,0 -2.21,-0.748 -3.03,-2.108 -0.95,-1.598 -1.22,-3.706 -1.22,-9.282 0,-3.978 0.23,-5.95 0.91,-7.446 0.79,-1.7 2.01,-2.686 3.3,-2.686"
     class="Fingering" />
  <path
     id="path6730"
     d="m 1055.87,106.127 h -1.49 l -0.34,1.734 c -0.45,2.21 -0.72,2.414 -2.83,2.414 h -7.61 c 2.34,-2.448 3.13,-3.162 5.3,-4.862 3.1,-2.38 4.42,-3.57 5.2,-4.59 1.09,-1.496 1.64,-2.992 1.64,-4.658 0,-3.876 -3.2,-6.63 -7.65,-6.63 -4.32,0 -7.62,2.754 -7.62,6.392 0,2.142 1.09,3.604 2.69,3.604 1.25,0 2.1,-0.85 2.1,-2.074 0,-0.85 -0.47,-1.632 -1.19,-1.938 -1.25,-0.51 -1.32,-0.578 -1.32,-1.02 0,-0.51 0.34,-1.292 0.81,-1.87 0.85,-1.054 2.25,-1.632 3.85,-1.632 2.82,0 4.48,1.734 4.48,4.59 0,2.516 -1.19,4.794 -4.01,7.786 -2.51,2.652 -4.08,4.318 -4.66,4.964 -1.22,1.428 -1.83,2.21 -3.33,4.182 v 0.952 h 15.34 l 0.64,-7.344"
     class="Fingering" />
  <path
     id="path6732"
     d="m 1110.29,103.154 c 0,9.689 -7.85,17.544 -17.54,17.544 -9.69,0 -17.55,-7.855 -17.55,-17.544 0,-9.69 7.86,-17.545 17.55,-17.545 9.69,0 17.54,7.855 17.54,17.545"
     fill-rule="evenodd"
     stroke-miterlimit="2"
     stroke-linejoin="miter"
     stroke-linecap="square"
     stroke-width="2.12"
     stroke="#000000"
     fill="none"
     class="Fingering" />
  <path
     id="path6734"
     d="m 1095.32,102.345 c 3.1,-1.122 4.53,-2.856 4.53,-5.576 0,-3.57 -2.72,-5.848 -6.94,-5.848 -3.98,0 -7,2.346 -7,5.44 0,1.394 0.91,2.38 2.24,2.38 1.19,0 2.01,-0.816 2.01,-2.04 0,-0.748 -0.28,-1.19 -1.06,-1.734 -0.34,-0.238 -0.44,-0.374 -0.44,-0.612 0,-0.952 1.97,-1.972 3.91,-1.972 2.45,0 3.74,1.53 3.74,4.42 0,3.162 -1.29,4.828 -3.71,4.828 -0.3,0 -0.88,-0.034 -1.39,-0.068 -0.27,-0.034 -0.54,-0.034 -0.75,-0.034 -0.71,0 -1.09,0.306 -1.09,0.918 0,0.578 0.34,0.85 1.09,0.85 0.21,0 0.48,0 0.78,-0.034 0.68,-0.034 1.23,-0.034 1.6,-0.034 2.52,0 3.88,1.802 3.88,5.168 0,3.536 -1.7,5.508 -4.76,5.508 -2.14,0 -4.46,-1.156 -4.46,-2.21 0,-0.306 0.07,-0.374 0.72,-0.748 0.95,-0.578 1.32,-1.156 1.32,-2.006 0,-1.224 -0.91,-2.142 -2.14,-2.142 -1.46,0 -2.41,1.19 -2.41,2.992 0,3.298 3.02,5.576 7.38,5.576 4.93,0 8.12,-2.72 8.12,-6.902 0,-3.196 -1.63,-5.134 -5.17,-6.12"
     class="Fingering" />
  <path
     id="path6736"
     d="m 1139.68,143.179 c -1.16,1.394 -4.29,2.448 -7.42,2.516 v 1.462 h 3 c 1.97,0.034 2.17,0.238 2.1,2.142 v 13.634 c 0,1.734 0,1.802 -0.2,2.108 -0.27,0.34 -0.92,0.476 -2.82,0.476 h -2.21 v 1.598 h 13.46 v -1.598 h -1.87 c -1.9,0 -2.55,-0.136 -2.82,-0.476 -0.24,-0.306 -0.24,-0.34 -0.24,-2.108 v -14.042 c 0,-1.904 0.07,-3.502 0.24,-5.712 h -1.22"
     class="Fingering" />
  <path
     id="path6738"
     d="m 1246.98,143.179 -11.56,16.082 v 1.904 h 9.55 v 1.768 c 0,1.734 0,1.802 -0.2,2.108 -0.27,0.374 -0.92,0.476 -2.86,0.476 h -0.37 v 1.598 h 9.93 v -1.598 h -0.14 c -1.94,0 -2.58,-0.102 -2.85,-0.476 -0.21,-0.306 -0.21,-0.34 -0.21,-2.108 v -1.768 h 4.12 v -1.904 h -4.12 v -9.282 c 0,-4.25 0,-4.352 0.17,-6.8 h -1.46 m -2.01,16.082 h -7.48 l 7.48,-10.302 v 10.302"
     class="Fingering" />
  <path
     id="path6740"
     d="m 1371.89,126.08 -11.56,16.082 v 1.904 h 9.55 v 1.768 c 0,1.734 0,1.802 -0.2,2.108 -0.27,0.374 -0.92,0.476 -2.86,0.476 h -0.37 v 1.598 h 9.93 v -1.598 h -0.14 c -1.94,0 -2.58,-0.102 -2.86,-0.476 -0.2,-0.306 -0.2,-0.34 -0.2,-2.108 v -1.768 h 4.11 v -1.904 h -4.11 v -9.282 c 0,-4.25 0,-4.352 0.17,-6.8 h -1.46 m -2.01,16.082 h -7.48 l 7.48,-10.302 v 10.302"
     class="Fingering" />
  <path
     id="path6742"
     d="m 1369.02,95.494 c -4.76,0 -8.23,5.168 -8.23,12.308 0,7.004 3.36,12.138 7.95,12.138 4.76,0 8.1,-4.964 8.1,-12.036 0,-3.604 -0.75,-6.596 -2.18,-8.942 -1.33,-2.142 -3.5,-3.468 -5.64,-3.468 m -0.24,1.462 c 1.12,0 2.21,0.748 3.02,2.108 0.92,1.598 1.23,3.536 1.23,8.194 0,4.794 -0.24,7.038 -0.92,8.534 -0.78,1.666 -2.01,2.686 -3.3,2.686 -1.15,0 -2.21,-0.748 -3.02,-2.108 -0.96,-1.598 -1.23,-3.706 -1.23,-9.282 0,-3.978 0.24,-5.95 0.92,-7.446 0.78,-1.7 2.01,-2.686 3.3,-2.686"
     class="Fingering" />
  <path
     id="path6744"
     d="m 1441.15,120.77 c -1.15,1.394 -4.28,2.448 -7.41,2.516 v 1.462 h 2.99 c 1.98,0.034 2.18,0.238 2.11,2.142 v 13.634 c 0,1.734 0,1.802 -0.2,2.108 -0.27,0.34 -0.92,0.476 -2.82,0.476 h -2.21 v 1.598 h 13.46 v -1.598 h -1.87 c -1.9,0 -2.55,-0.136 -2.82,-0.476 -0.24,-0.306 -0.24,-0.34 -0.24,-2.108 v -14.042 c 0,-1.904 0.07,-3.502 0.24,-5.712 h -1.23"
     class="Fingering" />
  <path
     id="path6746"
     d="m 1502.77,120.583 c 3.1,-1.122 4.53,-2.856 4.53,-5.576 0,-3.57 -2.72,-5.848 -6.94,-5.848 -3.98,0 -7,2.346 -7,5.44 0,1.394 0.91,2.38 2.24,2.38 1.19,0 2.01,-0.816 2.01,-2.04 0,-0.748 -0.28,-1.19 -1.06,-1.734 -0.34,-0.238 -0.44,-0.374 -0.44,-0.612 0,-0.952 1.97,-1.972 3.91,-1.972 2.45,0 3.74,1.53 3.74,4.42 0,3.162 -1.29,4.828 -3.71,4.828 -0.3,0 -0.88,-0.034 -1.39,-0.068 -0.27,-0.034 -0.54,-0.034 -0.75,-0.034 -0.71,0 -1.09,0.306 -1.09,0.918 0,0.578 0.34,0.85 1.09,0.85 0.21,0 0.48,0 0.78,-0.034 0.68,-0.034 1.23,-0.034 1.6,-0.034 2.52,0 3.88,1.802 3.88,5.168 0,3.536 -1.7,5.508 -4.76,5.508 -2.14,0 -4.46,-1.156 -4.46,-2.21 0,-0.306 0.07,-0.374 0.72,-0.748 0.95,-0.578 1.32,-1.156 1.32,-2.006 0,-1.224 -0.91,-2.142 -2.14,-2.142 -1.46,0 -2.41,1.19 -2.41,2.992 0,3.298 3.02,5.576 7.38,5.576 4.93,0 8.12,-2.72 8.12,-6.902 0,-3.196 -1.63,-5.134 -5.17,-6.12"
     class="Fingering" />
  <path
     id="path6748"
     d="m 1530.39,100.663 c -1.15,1.394 -4.28,2.448 -7.41,2.516 v 1.462 h 2.99 c 1.97,0.034 2.18,0.238 2.11,2.142 v 13.634 c 0,1.734 0,1.802 -0.2,2.108 -0.28,0.34 -0.92,0.476 -2.83,0.476 h -2.21 v 1.598 h 13.47 v -1.598 h -1.87 c -1.91,0 -2.55,-0.136 -2.82,-0.476 -0.24,-0.306 -0.24,-0.34 -0.24,-2.108 v -14.042 c 0,-1.904 0.07,-3.502 0.24,-5.712 h -1.23"
     class="Fingering" />
  <path
     id="path6750"
     d="m 1620.28,104.25 h -1.5 l -0.34,1.734 c -0.44,2.21 -0.71,2.414 -2.82,2.414 H 1608 c 2.35,-2.448 3.13,-3.162 5.31,-4.862 3.09,-2.38 4.42,-3.57 5.2,-4.59 1.09,-1.496 1.63,-2.992 1.63,-4.658 0,-3.876 -3.19,-6.63 -7.65,-6.63 -4.32,0 -7.61,2.754 -7.61,6.392 0,2.142 1.08,3.604 2.68,3.604 1.26,0 2.11,-0.85 2.11,-2.074 0,-0.85 -0.48,-1.632 -1.19,-1.938 -1.26,-0.51 -1.33,-0.578 -1.33,-1.02 0,-0.51 0.34,-1.292 0.82,-1.87 0.85,-1.054 2.24,-1.632 3.84,-1.632 2.82,0 4.49,1.734 4.49,4.59 0,2.516 -1.19,4.794 -4.01,7.786 -2.52,2.652 -4.08,4.318 -4.66,4.964 -1.22,1.428 -1.84,2.21 -3.33,4.182 v 0.952 h 15.33 l 0.65,-7.344"
     class="Fingering" />
  <path
     id="path6752"
     d="M 1547.12,112.158 V 90.976 l 2.75,7.14 1.81,-0.816 -4.36,-9.724 -2.61,0.034 -4.32,9.69 1.77,0.816 2.78,-7.14 v 21.182 h 2.18 m 22.2,-23.936 c -1.16,1.394 -4.28,2.448 -7.41,2.516 V 92.2 h 2.99 c 1.97,0.034 2.18,0.238 2.11,2.142 v 13.634 c 0,1.734 0,1.802 -0.21,2.108 -0.27,0.34 -0.91,0.476 -2.82,0.476 h -2.21 v 1.598 h 13.47 v -1.598 h -1.87 c -1.91,0 -2.55,-0.136 -2.83,-0.476 -0.23,-0.306 -0.23,-0.34 -0.23,-2.108 V 93.934 c 0,-1.904 0.06,-3.502 0.23,-5.712 h -1.22"
     class="Fingering" />
  <path
     id="path6754"
     d="m 1655.85,93.39 -11.56,16.082 v 1.904 h 9.56 v 1.768 c 0,1.734 0,1.802 -0.21,2.108 -0.27,0.374 -0.91,0.476 -2.85,0.476 h -0.38 v 1.598 h 9.93 v -1.598 h -0.13 c -1.94,0 -2.59,-0.102 -2.86,-0.476 -0.2,-0.306 -0.2,-0.34 -0.2,-2.108 v -1.768 h 4.11 v -1.904 h -4.11 v -9.282 c 0,-4.25 0,-4.352 0.17,-6.8 h -1.47 m -2,16.082 h -7.48 l 7.48,-10.302 v 10.302"
     class="Fingering" />
  <path
     id="path6756"
     d="m 1708.04,159.771 h -1.49 l -0.34,1.734 c -0.45,2.21 -0.72,2.414 -2.83,2.414 h -7.61 c 2.34,-2.448 3.13,-3.162 5.3,-4.862 3.1,-2.38 4.42,-3.57 5.2,-4.59 1.09,-1.496 1.64,-2.992 1.64,-4.658 0,-3.876 -3.2,-6.63 -7.65,-6.63 -4.32,0 -7.62,2.754 -7.62,6.392 0,2.142 1.09,3.604 2.69,3.604 1.25,0 2.1,-0.85 2.1,-2.074 0,-0.85 -0.47,-1.632 -1.19,-1.938 -1.25,-0.51 -1.32,-0.578 -1.32,-1.02 0,-0.51 0.34,-1.292 0.81,-1.87 0.85,-1.054 2.25,-1.632 3.85,-1.632 2.82,0 4.48,1.734 4.48,4.59 0,2.516 -1.19,4.794 -4.01,7.786 -2.51,2.652 -4.08,4.318 -4.66,4.964 -1.22,1.428 -1.83,2.21 -3.33,4.182 v 0.952 h 15.34 l 0.64,-7.344"
     class="Fingering" />
  <path
     id="path6758"
     d="m 1789.66,142.01 c -1.16,1.394 -4.28,2.448 -7.41,2.516 v 1.462 h 2.99 c 1.97,0.034 2.18,0.238 2.11,2.142 v 13.634 c 0,1.734 0,1.802 -0.21,2.108 -0.27,0.34 -0.91,0.476 -2.82,0.476 h -2.21 v 1.598 h 13.47 v -1.598 h -1.87 c -1.91,0 -2.55,-0.136 -2.83,-0.476 -0.23,-0.306 -0.23,-0.34 -0.23,-2.108 v -14.042 c 0,-1.904 0.06,-3.502 0.23,-5.712 h -1.22"
     class="Fingering" />
  <path
     id="path6760"
     d="m 1954.96,143.179 c -1.16,1.394 -4.29,2.448 -7.42,2.516 v 1.462 h 3 c 1.97,0.034 2.17,0.238 2.1,2.142 v 13.634 c 0,1.734 0,1.802 -0.2,2.108 -0.27,0.34 -0.92,0.476 -2.82,0.476 h -2.21 v 1.598 h 13.46 v -1.598 H 1959 c -1.9,0 -2.55,-0.136 -2.82,-0.476 -0.24,-0.306 -0.24,-0.34 -0.24,-2.108 v -14.042 c 0,-1.904 0.07,-3.502 0.24,-5.712 h -1.22"
     class="Fingering" />
  <path
     id="path6762"
     d="M 1973.86,153.902 V 132.72 l 2.75,7.14 1.81,-0.816 -4.36,-9.724 -2.61,0.034 -4.32,9.69 1.77,0.816 2.78,-7.14 v 21.182 h 2.18 m 22.2,-23.936 c -1.15,1.394 -4.28,2.448 -7.41,2.516 v 1.462 h 2.99 c 1.97,0.034 2.18,0.238 2.11,2.142 v 13.634 c 0,1.734 0,1.802 -0.2,2.108 -0.28,0.34 -0.92,0.476 -2.83,0.476 h -2.21 v 1.598 h 13.47 v -1.598 h -1.87 c -1.91,0 -2.55,-0.136 -2.82,-0.476 -0.24,-0.306 -0.24,-0.34 -0.24,-2.108 v -14.042 c 0,-1.904 0.07,-3.502 0.24,-5.712 h -1.23"
     class="Fingering" />
  <path
     id="path6764"
     d="m 2058.4,106.079 -11.56,16.082 v 1.904 h 9.55 v 1.768 c 0,1.734 0,1.802 -0.2,2.108 -0.27,0.374 -0.92,0.476 -2.86,0.476 h -0.37 v 1.598 h 9.93 v -1.598 h -0.14 c -1.94,0 -2.58,-0.102 -2.86,-0.476 -0.2,-0.306 -0.2,-0.34 -0.2,-2.108 v -1.768 h 4.11 v -1.904 h -4.11 v -9.282 c 0,-4.25 0,-4.352 0.17,-6.8 h -1.46 m -2.01,16.082 h -7.48 l 7.48,-10.302 v 10.302"
     class="Fingering" />
  <path
     id="path6766"
     d="m 2098.06,142.679 c -4.76,0 -8.23,5.168 -8.23,12.308 0,7.004 3.37,12.138 7.96,12.138 4.76,0 8.09,-4.964 8.09,-12.036 0,-3.604 -0.75,-6.596 -2.17,-8.942 -1.33,-2.142 -3.51,-3.468 -5.65,-3.468 m -0.24,1.462 c 1.13,0 2.21,0.748 3.03,2.108 0.92,1.598 1.22,3.536 1.22,8.194 0,4.794 -0.23,7.038 -0.91,8.534 -0.79,1.666 -2.01,2.686 -3.3,2.686 -1.16,0 -2.21,-0.748 -3.03,-2.108 -0.95,-1.598 -1.22,-3.706 -1.22,-9.282 0,-3.978 0.24,-5.95 0.92,-7.446 0.78,-1.7 2,-2.686 3.29,-2.686"
     class="Fingering" />
  <path
     id="path6768"
     d="m 2149.82,0 -11.56,16.082 v 1.904 h 9.56 v 1.767 c 0,1.735 0,1.803 -0.21,2.108 -0.27,0.375 -0.91,0.476 -2.85,0.476 h -0.38 v 1.599 h 9.93 v -1.599 h -0.13 c -1.94,0 -2.59,-0.101 -2.86,-0.476 -0.2,-0.305 -0.2,-0.339 -0.2,-2.108 v -1.767 h 4.11 v -1.904 h -4.11 V 6.799 c 0,-4.25 0,-4.351 0.17,-6.799 h -1.47 m -2,16.082 h -7.48 l 7.48,-10.303 v 10.303"
     class="Fingering" />
  <path
     id="path6868"
     d="m 1163.39,310.354 c 1.79,-0.57 2.51,-0.874 3.42,-1.482 1.79,-1.178 2.89,-3.268 2.89,-5.396 0,-3.61 -2.89,-6.042 -7.14,-6.042 -4.14,0 -7.64,2.584 -7.64,5.7 0,1.558 0.95,2.622 2.39,2.622 1.26,0 2.17,-0.912 2.17,-2.166 0,-0.646 -0.19,-1.102 -0.8,-1.71 -0.38,-0.342 -0.53,-0.608 -0.53,-0.874 0,-0.912 1.9,-1.862 3.69,-1.862 2.54,0 4.06,1.406 4.06,3.762 0,3.382 -2.39,6.574 -4.94,6.574 -0.11,0 -0.45,-0.038 -0.87,-0.076 -1.1,-0.076 -1.1,-0.076 -1.33,-0.076 -0.84,0 -1.29,0.38 -1.29,1.064 0,0.608 0.41,0.988 1.1,0.988 0.19,0 0.45,-0.038 0.76,-0.076 0.53,-0.114 1.1,-0.152 1.44,-0.152 1.79,0 3,1.596 3,3.952 0,1.824 -0.41,3.572 -1.25,5.016 -1.14,2.052 -2.89,3.04 -5.36,3.04 -2.13,0 -3.95,-1.064 -3.95,-2.28 0,-0.418 0.15,-0.57 0.76,-0.836 1.1,-0.494 1.56,-1.178 1.56,-2.204 0,-1.33 -1.07,-2.356 -2.43,-2.356 -1.64,0 -2.7,1.292 -2.7,3.268 0,3.686 2.81,6.004 7.37,6.004 5.74,0 10.11,-3.838 10.11,-8.93 0,-1.368 -0.42,-2.546 -1.22,-3.496 -0.83,-0.988 -1.59,-1.444 -3.27,-1.976"
     class="Tuplet" />
  <path
     id="path6870"
     d="m 1278.37,305.32 c 1.79,-0.57 2.51,-0.874 3.42,-1.482 1.79,-1.178 2.89,-3.268 2.89,-5.396 0,-3.61 -2.89,-6.042 -7.14,-6.042 -4.14,0 -7.64,2.584 -7.64,5.7 0,1.558 0.95,2.622 2.39,2.622 1.26,0 2.17,-0.912 2.17,-2.166 0,-0.646 -0.19,-1.102 -0.8,-1.71 -0.38,-0.342 -0.53,-0.608 -0.53,-0.874 0,-0.912 1.9,-1.862 3.69,-1.862 2.54,0 4.06,1.406 4.06,3.762 0,3.382 -2.39,6.574 -4.94,6.574 -0.11,0 -0.45,-0.038 -0.87,-0.076 -1.1,-0.076 -1.1,-0.076 -1.33,-0.076 -0.84,0 -1.29,0.38 -1.29,1.064 0,0.608 0.41,0.988 1.1,0.988 0.19,0 0.45,-0.038 0.76,-0.076 0.53,-0.114 1.1,-0.152 1.44,-0.152 1.79,0 3,1.596 3,3.952 0,1.824 -0.41,3.572 -1.25,5.016 -1.14,2.052 -2.89,3.04 -5.36,3.04 -2.13,0 -3.95,-1.064 -3.95,-2.28 0,-0.418 0.15,-0.57 0.76,-0.836 1.1,-0.494 1.56,-1.178 1.56,-2.204 0,-1.33 -1.07,-2.356 -2.43,-2.356 -1.64,0 -2.7,1.292 -2.7,3.268 0,3.686 2.81,6.004 7.37,6.004 5.74,0 10.11,-3.838 10.11,-8.93 0,-1.368 -0.42,-2.546 -1.22,-3.496 -0.83,-0.988 -1.59,-1.444 -3.27,-1.976"
     class="Tuplet" />
  <path
     style="stroke-width:0.8496"
     id="path6882"
     d="m 2170.96,315.82459 c 0,2.34611 1.9019,4.248 4.248,4.248 2.3461,0 4.248,-1.90189 4.248,-4.248 0,-2.34611 -1.9019,-4.248 -4.248,-4.248 -2.3461,0 -4.248,1.90189 -4.248,4.248"
     class="NoteDot" />
  <path
     style="stroke-width:0.8496"
     id="path6884"
     d="m 2195.76,252.10459 c 0,2.34611 1.9019,4.248 4.248,4.248 2.3461,0 4.248,-1.90189 4.248,-4.248 0,-2.34611 -1.9019,-4.248 -4.248,-4.248 -2.3461,0 -4.248,1.90189 -4.248,4.248"
     class="NoteDot" />
  <path
     style="stroke-width:0.8496"
     id="path6886"
     d="m 1393.24,230.86459 c 0,2.34611 1.9019,4.248 4.248,4.248 2.3461,0 4.248,-1.90189 4.248,-4.248 0,-2.34611 -1.9019,-4.248 -4.248,-4.248 -2.3461,0 -4.248,1.90189 -4.248,4.248"
     class="NoteDot" />
  <path
     style="stroke-width:0.8496"
     id="path6888"
     d="m 2183.36,209.62459 c 0,2.34611 1.9019,4.248 4.248,4.248 2.3461,0 4.248,-1.90189 4.248,-4.248 0,-2.34611 -1.9019,-4.248 -4.248,-4.248 -2.3461,0 -4.248,1.90189 -4.248,4.248"
     class="NoteDot" />
  <path
     style="stroke-width:0.8496"
     id="path6892"
     d="m 2170.96,145.90459 c 0,2.34611 1.9019,4.248 4.248,4.248 2.3461,0 4.248,-1.90189 4.248,-4.248 0,-2.34611 -1.9019,-4.248 -4.248,-4.248 -2.3461,0 -4.248,1.90189 -4.248,4.248"
     class="NoteDot" />
</svg>
