<?xml version="1.0" encoding="UTF-8" standalone="no"?>
<svg
   xmlns:dc="http://purl.org/dc/elements/1.1/"
   xmlns:cc="http://creativecommons.org/ns#"
   xmlns:rdf="http://www.w3.org/1999/02/22-rdf-syntax-ns#"
   xmlns:svg="http://www.w3.org/2000/svg"
   xmlns="http://www.w3.org/2000/svg"
   xmlns:sodipodi="http://sodipodi.sourceforge.net/DTD/sodipodi-0.dtd"
   xmlns:inkscape="http://www.inkscape.org/namespaces/inkscape"
   inkscape:version="1.0 (4035a4f, 2020-05-01)"
   sodipodi:docname="snippet3.svg"
   id="svg18974"
   version="1.2"
   viewBox="0 0 2340 343.80328"
   height="343.80328"
   width="2340">
  <metadata
     id="metadata18980">
    <rdf:RDF>
      <cc:Work
         rdf:about="">
        <dc:format>image/svg+xml</dc:format>
        <dc:type
           rdf:resource="http://purl.org/dc/dcmitype/StillImage" />
        <dc:title>Batches6Suite2</dc:title>
      </cc:Work>
    </rdf:RDF>
  </metadata>
  <defs
     id="defs18978" />
  <sodipodi:namedview
     fit-margin-bottom="0"
     fit-margin-right="0"
     fit-margin-left="0"
     fit-margin-top="0"
     inkscape:current-layer="svg18974"
     inkscape:window-maximized="0"
     inkscape:window-y="23"
     inkscape:window-x="0"
     inkscape:cy="310.67451"
     inkscape:cx="603.42318"
     inkscape:zoom="0.53342869"
     showgrid="false"
     id="namedview18976"
     inkscape:window-height="855"
     inkscape:window-width="1039"
     inkscape:pageshadow="2"
     inkscape:pageopacity="0"
     guidetolerance="10"
     gridtolerance="10"
     objecttolerance="10"
     borderopacity="1"
     bordercolor="#666666"
     pagecolor="#ffffff" />
  <title
     id="title17704">Batches6Suite2</title>
  <desc
     id="desc17706">Generated by MuseScore 3.6.2</desc>
  <polyline
     transform="translate(-360,-1038.8667)"
     id="polyline17718"
     points="360,1185.89 2700,1185.89"
     stroke-linejoin="bevel"
     stroke-width="2.34"
     stroke="#000000"
     fill="none"
     class="StaffLines" />
  <polyline
     transform="translate(-360,-1038.8667)"
     id="polyline17720"
     points="360,1207.13 2700,1207.13"
     stroke-linejoin="bevel"
     stroke-width="2.34"
     stroke="#000000"
     fill="none"
     class="StaffLines" />
  <polyline
     transform="translate(-360,-1038.8667)"
     id="polyline17722"
     points="360,1228.37 2700,1228.37"
     stroke-linejoin="bevel"
     stroke-width="2.34"
     stroke="#000000"
     fill="none"
     class="StaffLines" />
  <polyline
     transform="translate(-360,-1038.8667)"
     id="polyline17724"
     points="360,1249.61 2700,1249.61"
     stroke-linejoin="bevel"
     stroke-width="2.34"
     stroke="#000000"
     fill="none"
     class="StaffLines" />
  <polyline
     transform="translate(-360,-1038.8667)"
     id="polyline17726"
     points="360,1270.85 2700,1270.85"
     stroke-linejoin="bevel"
     stroke-width="2.34"
     stroke="#000000"
     fill="none"
     class="StaffLines" />
  <path
     id="path17764"
     d="m 213.004,131.67328 c 33.867,-40.61 109.036,-48.2 150.337,-15.18 -40.704,-27.1 -115.872,-19.51 -150.337,15.18"
     fill-rule="evenodd"
     stroke-linejoin="round"
     stroke-linecap="round"
     stroke-width="1.49"
     stroke="#000000"
     class="SlurSegment" />
  <path
     id="path17766"
     d="m 415.722,137.49328 c 42.674,-46.35 176.99,-52.72 223.861,-10.62 -46.589,-36.16 -180.905,-29.79 -223.861,10.62"
     fill-rule="evenodd"
     stroke-linejoin="round"
     stroke-linecap="round"
     stroke-width="1.49"
     stroke="#000000"
     class="SlurSegment" />
  <path
     id="path17768"
     d="m 704.6,83.68328 c 34.78,-33.4 101.6,-30.74 133.62,5.31 -32.26,-30.11 -99.07,-32.76 -133.62,-5.31"
     fill-rule="evenodd"
     stroke-linejoin="round"
     stroke-linecap="round"
     stroke-width="1.49"
     stroke="#000000"
     class="SlurSegment" />
  <path
     id="path17770"
     d="m 951.39,57.13328 c 23.16,-32.66 75.34,-37.74 104.36,-10.16 -28.45,-21.66 -80.63,-16.58 -104.36,10.16"
     fill-rule="evenodd"
     stroke-linejoin="round"
     stroke-linecap="round"
     stroke-width="1.49"
     stroke="#000000"
     class="SlurSegment" />
  <path
     id="path17772"
     d="m 1109.24,41.76328 c 38.52,-43.13 123.16,-51.37 169.28,-16.49 -45.54,-28.96 -130.18,-20.72 -169.28,16.49"
     fill-rule="evenodd"
     stroke-linejoin="round"
     stroke-linecap="round"
     stroke-width="1.49"
     stroke="#000000"
     class="SlurSegment" />
  <path
     id="path17774"
     d="m 1319.62,117.28328 c 53.74,-41.87 203.17,-29.13 249.04,21.24 -46.38,-44.44 -195.8,-57.19 -249.04,-21.24"
     fill-rule="evenodd"
     stroke-linejoin="round"
     stroke-linecap="round"
     stroke-width="1.49"
     stroke="#000000"
     class="SlurSegment" />
  <path
     id="path17776"
     d="m 1620.48,121.37328 c 32.8,-62.22 108.9,-69.57 152.2,-14.71 -42.73,-48.94 -118.82,-41.59 -152.2,14.71"
     fill-rule="evenodd"
     stroke-linejoin="round"
     stroke-linecap="round"
     stroke-width="1.49"
     stroke="#000000"
     class="SlurSegment" />
  <path
     id="path17778"
     d="m 1984.01,149.14328 c 40.16,-29.96 109.7,-19.34 139.08,21.24 -30.28,-34.71 -99.82,-45.33 -139.08,-21.24"
     fill-rule="evenodd"
     stroke-linejoin="round"
     stroke-linecap="round"
     stroke-width="1.49"
     stroke="#000000"
     class="SlurSegment" />
  <polyline
     transform="translate(-360,-1038.8667)"
     id="polyline17812"
     points="1257.51,1184.72 1257.51,1272.02"
     stroke-linejoin="bevel"
     stroke-width="3.82"
     stroke="#000000"
     class="BarLine" />
  <path
     style="stroke-width:0.8496"
     id="path17814"
     d="m 2308.0558,178.88328 c 0,-2.46384 -1.954,-4.50288 -4.4179,-4.50288 -2.4638,0 -4.4179,2.03904 -4.4179,4.50288 0,2.46384 1.9541,4.50288 4.4179,4.50288 2.4639,0 4.4179,-2.03904 4.4179,-4.50288"
     class="BarLine" />
  <path
     style="stroke-width:0.8496"
     id="path17816"
     d="m 2308.0558,200.12328 c 0,-2.46384 -1.954,-4.50288 -4.4179,-4.50288 -2.4638,0 -4.4179,2.03904 -4.4179,4.50288 0,2.46384 1.9541,4.50288 4.4179,4.50288 2.4639,0 4.4179,-2.03904 4.4179,-4.50288"
     class="BarLine" />
  <polyline
     transform="translate(-360,-1038.8667)"
     id="polyline17818"
     points="2678.51,1184.72 2678.51,1272.02"
     stroke-linejoin="bevel"
     stroke-width="3.82"
     stroke="#000000"
     class="BarLine" />
  <polyline
     transform="translate(-360,-1038.8667)"
     id="polyline17820"
     points="2693.38,1184.72 2693.38,1272.02"
     stroke-linejoin="bevel"
     stroke-width="11.68"
     stroke="#000000"
     class="BarLine" />
  <path
     style="stroke-width:0.8496"
     id="path17840"
     d="m 514.77268,191.11752 c 0.50976,-0.085 0.93456,-0.67968 0.93456,-1.18944 v -5.01264 c 0,-0.67968 -0.50976,-1.18944 -1.18944,-1.18944 h -0.16992 l -2.80368,0.59472 v -12.65904 h -2.37888 v 13.1688 l -7.56144,1.52928 V 174.3804 H 499.225 v 12.48912 l -3.31344,0.67968 c -0.50976,0.085 -0.93456,0.67968 -0.93456,1.18944 v 0.16992 4.92768 -0.16992 c 0,0.67968 0.50976,1.18944 1.18944,1.18944 h 0.25488 l 2.80368,-0.59472 v 14.0184 l -3.31344,0.67968 c -0.50976,0.085 -0.93456,0.67968 -0.93456,1.18944 v 4.92768 c 0,0.67968 0.50976,1.18944 1.18944,1.18944 h 0.25488 l 2.80368,-0.59472 V 228.33 h 2.37888 v -13.1688 l 7.56144,-1.52928 v 11.97936 h 2.37888 v -12.48912 l 3.22848,-0.59472 c 0.50976,-0.085 0.93456,-0.67968 0.93456,-1.18944 v -5.01264 c 0,-0.67968 -0.50976,-1.18944 -1.18944,-1.18944 h -0.16992 l -2.80368,0.59472 v -14.0184 l 3.22848,-0.59472 m -13.1688,16.73712 v -14.10336 l 7.56144,-1.52928 v 14.0184 l -7.56144,1.61424"
     class="Accidental" />
  <path
     style="stroke-width:0.8496"
     id="path17842"
     d="m 1238.9234,110.2356 c -0.17,-0.16992 -0.4248,-0.25488 -0.6797,-0.25488 -0.085,0 -0.2549,0.085 -0.3399,0.085 l -10.7049,2.9736 v -14.868 h -2.3789 v 42.0552 c 0,0.67968 0.5098,1.10448 1.1894,1.10448 h 0.3399 l 10.7049,-2.9736 v 14.868 h 2.294 v -42.0552 c 0,-0.33984 -0.17,-0.76464 -0.4248,-0.93456 m -1.8692,21.07008 -9.8553,2.71872 V 120.091 l 9.8553,-2.80368 v 14.0184"
     class="Accidental" />
  <path
     style="stroke-width:0.8496"
     id="path17844"
     d="m 1745.1957,116.77752 c 0.5097,-0.085 0.9345,-0.67968 0.9345,-1.18944 v -5.01264 c 0,-0.67968 -0.5097,-1.18944 -1.1894,-1.18944 h -0.1699 l -2.8037,0.59472 V 97.32168 h -2.3789 v 13.1688 l -7.5614,1.52928 V 100.0404 h -2.3789 v 12.48912 l -3.3134,0.67968 c -0.5098,0.085 -0.9346,0.67968 -0.9346,1.18944 v 0.16992 4.92768 -0.16992 c 0,0.67968 0.5098,1.18944 1.1894,1.18944 h 0.2549 l 2.8037,-0.59472 v 14.0184 l -3.3134,0.67968 c -0.5098,0.085 -0.9346,0.67968 -0.9346,1.18944 v 4.92768 c 0,0.67968 0.5098,1.18944 1.1894,1.18944 h 0.2549 l 2.8037,-0.59472 V 153.99 h 2.3789 v -13.1688 l 7.5614,-1.52928 v 11.97936 h 2.3789 v -12.48912 l 3.2285,-0.59472 c 0.5097,-0.085 0.9345,-0.67968 0.9345,-1.18944 v -5.01264 c 0,-0.67968 -0.5097,-1.18944 -1.1894,-1.18944 h -0.1699 l -2.8037,0.59472 v -14.0184 l 3.2285,-0.59472 m -13.1688,16.73712 v -14.10336 l 7.5614,-1.52928 v 14.0184 l -7.5614,1.61424"
     class="Accidental" />
  <polyline
     transform="translate(-360,-1038.8667)"
     id="polyline17886"
     points="1604.65,1164.65 1647.13,1164.65"
     stroke-linejoin="bevel"
     stroke-width="3.4"
     stroke="#000000"
     class="LedgerLine" />
  <polyline
     transform="translate(-360,-1038.8667)"
     id="polyline17888"
     points="1693,1164.65 1727.19,1164.65"
     stroke-linejoin="bevel"
     stroke-width="2.38"
     stroke="#000000"
     class="LedgerLine" />
  <polyline
     transform="translate(-360,-1038.8667)"
     id="polyline17890"
     points="2040.17,1164.65 2082.64,1164.65"
     stroke-linejoin="bevel"
     stroke-width="3.4"
     stroke="#000000"
     class="LedgerLine" />
  <polyline
     transform="translate(-360,-1038.8667)"
     id="polyline17892"
     points="2111.44,1164.65 2153.92,1164.65"
     stroke-linejoin="bevel"
     stroke-width="3.4"
     stroke="#000000"
     class="LedgerLine" />
  <polyline
     transform="translate(-360,-1038.8667)"
     id="polyline17894"
     points="2164.93,1164.65 2207.4,1164.65"
     stroke-linejoin="bevel"
     stroke-width="3.4"
     stroke="#000000"
     class="LedgerLine" />
  <polyline
     transform="translate(-360,-1038.8667)"
     id="polyline17896"
     points="2515.34,1292.09 2557.81,1292.09"
     stroke-linejoin="bevel"
     stroke-width="3.4"
     stroke="#000000"
     class="LedgerLine" />
  <polyline
     transform="translate(-360,-1038.8667)"
     id="polyline17942"
     points="1039.33,1263.08 1039.33,1318.64"
     stroke-linejoin="bevel"
     stroke-width="2.34"
     stroke="#000000"
     class="Stem" />
  <polyline
     transform="translate(-360,-1038.8667)"
     id="polyline17944"
     points="1286.12,1231.22 1286.12,1323.95"
     stroke-linejoin="bevel"
     stroke-width="2.34"
     stroke="#000000"
     class="Stem" />
  <polyline
     transform="translate(-360,-1038.8667)"
     id="polyline18008"
     points="573.004,1268.13 573.004,1213.43"
     stroke-linejoin="bevel"
     stroke-width="2.34"
     stroke="#000000"
     class="Stem" />
  <polyline
     transform="translate(-360,-1038.8667)"
     id="polyline18010"
     points="605.943,1178.12 605.943,1255.03"
     stroke-linejoin="bevel"
     stroke-width="2.34"
     stroke="#000000"
     class="Stem" />
  <polyline
     transform="translate(-360,-1038.8667)"
     id="polyline18012"
     points="658.324,1188.74 658.324,1271.71"
     stroke-linejoin="bevel"
     stroke-width="2.34"
     stroke="#000000"
     class="Stem" />
  <polyline
     transform="translate(-360,-1038.8667)"
     id="polyline18014"
     points="710.706,1199.36 710.706,1288.39"
     stroke-linejoin="bevel"
     stroke-width="2.34"
     stroke="#000000"
     class="Stem" />
  <polyline
     transform="translate(-360,-1038.8667)"
     id="polyline18016"
     points="763.088,1209.98 763.088,1305.07"
     stroke-linejoin="bevel"
     stroke-width="2.34"
     stroke="#000000"
     class="Stem" />
  <polyline
     transform="translate(-360,-1038.8667)"
     id="polyline18018"
     points="882.185,1241.84 882.185,1343"
     stroke-linejoin="bevel"
     stroke-width="2.34"
     stroke="#000000"
     class="Stem" />
  <polyline
     transform="translate(-360,-1038.8667)"
     id="polyline18020"
     points="825.469,1215.85 825.469,1159.34"
     stroke-linejoin="bevel"
     stroke-width="1.64"
     stroke="#000000"
     class="Stem" />
  <polyline
     transform="translate(-360,-1038.8667)"
     id="polyline18022"
     points="846.726,1226.47 846.726,1169.96"
     stroke-linejoin="bevel"
     stroke-width="1.64"
     stroke="#000000"
     class="Stem" />
  <polyline
     transform="translate(-360,-1038.8667)"
     id="polyline18024"
     points="934.566,1231.22 934.566,1359.68"
     stroke-linejoin="bevel"
     stroke-width="2.34"
     stroke="#000000"
     class="Stem" />
  <polyline
     transform="translate(-360,-1038.8667)"
     id="polyline18026"
     points="986.948,1199.36 986.948,1376.36"
     stroke-linejoin="bevel"
     stroke-width="2.34"
     stroke="#000000"
     class="Stem" />
  <polyline
     transform="translate(-360,-1038.8667)"
     id="polyline18028"
     points="1064.6,1215.03 1064.6,1143.41"
     stroke-linejoin="bevel"
     stroke-width="2.34"
     stroke="#000000"
     class="Stem" />
  <polyline
     transform="translate(-360,-1038.8667)"
     id="polyline18030"
     points="1198.22,1225.65 1198.22,1148.72"
     stroke-linejoin="bevel"
     stroke-width="2.34"
     stroke="#000000"
     class="Stem" />
  <polyline
     transform="translate(-360,-1038.8667)"
     id="polyline18032"
     points="1311.39,1225.65 1311.39,1116.86"
     stroke-linejoin="bevel"
     stroke-width="2.34"
     stroke="#000000"
     class="Stem" />
  <polyline
     transform="translate(-360,-1038.8667)"
     id="polyline18034"
     points="1415.75,1215.03 1415.75,1106.69"
     stroke-linejoin="bevel"
     stroke-width="2.34"
     stroke="#000000"
     class="Stem" />
  <polyline
     transform="translate(-360,-1038.8667)"
     id="polyline18036"
     points="1469.24,1204.41 1469.24,1101.49"
     stroke-linejoin="bevel"
     stroke-width="2.34"
     stroke="#000000"
     class="Stem" />
  <polyline
     transform="translate(-360,-1038.8667)"
     id="polyline18038"
     points="1522.73,1193.79 1522.73,1096.28"
     stroke-linejoin="bevel"
     stroke-width="2.34"
     stroke="#000000"
     class="Stem" />
  <polyline
     transform="translate(-360,-1038.8667)"
     id="polyline18040"
     points="1576.22,1183.17 1576.22,1091.07"
     stroke-linejoin="bevel"
     stroke-width="2.34"
     stroke="#000000"
     class="Stem" />
  <polyline
     transform="translate(-360,-1038.8667)"
     id="polyline18042"
     points="1638.52,1161.93 1638.52,1085"
     stroke-linejoin="bevel"
     stroke-width="2.34"
     stroke="#000000"
     class="Stem" />
  <polyline
     transform="translate(-360,-1038.8667)"
     id="polyline18044"
     points="1666.98,1178.12 1666.98,1308.02"
     stroke-linejoin="bevel"
     stroke-width="2.34"
     stroke="#000000"
     class="Stem" />
  <polyline
     transform="translate(-360,-1038.8667)"
     id="polyline18046"
     points="1701.25,1166.65 1701.25,1216.69"
     stroke-linejoin="bevel"
     stroke-width="1.64"
     stroke="#000000"
     class="Stem" />
  <polyline
     transform="translate(-360,-1038.8667)"
     id="polyline18048"
     points="1755.56,1188.74 1755.56,1308.02"
     stroke-linejoin="bevel"
     stroke-width="2.34"
     stroke="#000000"
     class="Stem" />
  <polyline
     transform="translate(-360,-1038.8667)"
     id="polyline18050"
     points="1731,1177.27 1731,1227.31"
     stroke-linejoin="bevel"
     stroke-width="1.64"
     stroke="#000000"
     class="Stem" />
  <polyline
     transform="translate(-360,-1038.8667)"
     id="polyline18052"
     points="1809.05,1199.36 1809.05,1308.02"
     stroke-linejoin="bevel"
     stroke-width="2.34"
     stroke="#000000"
     class="Stem" />
  <polyline
     transform="translate(-360,-1038.8667)"
     id="polyline18054"
     points="1862.54,1209.98 1862.54,1308.02"
     stroke-linejoin="bevel"
     stroke-width="2.34"
     stroke="#000000"
     class="Stem" />
  <polyline
     transform="translate(-360,-1038.8667)"
     id="polyline18056"
     points="1916.03,1199.36 1916.03,1308.02"
     stroke-linejoin="bevel"
     stroke-width="2.34"
     stroke="#000000"
     class="Stem" />
  <polyline
     transform="translate(-360,-1038.8667)"
     id="polyline18058"
     points="1969.52,1220.6 1969.52,1308.02"
     stroke-linejoin="bevel"
     stroke-width="2.34"
     stroke="#000000"
     class="Stem" />
  <polyline
     transform="translate(-360,-1038.8667)"
     id="polyline18060"
     points="2037.42,1194.61 2037.42,1127.48"
     stroke-linejoin="bevel"
     stroke-width="1.64"
     stroke="#000000"
     class="Stem" />
  <polyline
     transform="translate(-360,-1038.8667)"
     id="polyline18062"
     points="2016.16,1205.23 2016.16,1138.1"
     stroke-linejoin="bevel"
     stroke-width="1.64"
     stroke="#000000"
     class="Stem" />
  <polyline
     transform="translate(-360,-1038.8667)"
     id="polyline18064"
     points="2048.77,1156.88 2048.77,1308.02"
     stroke-linejoin="bevel"
     stroke-width="2.34"
     stroke="#000000"
     class="Stem" />
  <polyline
     transform="translate(-360,-1038.8667)"
     id="polyline18066"
     points="2120.04,1167.5 2120.04,1308.02"
     stroke-linejoin="bevel"
     stroke-width="2.34"
     stroke="#000000"
     class="Stem" />
  <polyline
     transform="translate(-360,-1038.8667)"
     id="polyline18068"
     points="2173.53,1156.88 2173.53,1286.78"
     stroke-linejoin="bevel"
     stroke-width="2.34"
     stroke="#000000"
     class="Stem" />
  <polyline
     transform="translate(-360,-1038.8667)"
     id="polyline18070"
     points="2277.89,1188.74 2277.89,1294.24"
     stroke-linejoin="bevel"
     stroke-width="2.34"
     stroke="#000000"
     class="Stem" />
  <polyline
     transform="translate(-360,-1038.8667)"
     id="polyline18072"
     points="2331.38,1209.98 2331.38,1298.07"
     stroke-linejoin="bevel"
     stroke-width="2.34"
     stroke="#000000"
     class="Stem" />
  <polyline
     transform="translate(-360,-1038.8667)"
     id="polyline18074"
     points="2416.96,1220.6 2416.96,1304.19"
     stroke-linejoin="bevel"
     stroke-width="2.34"
     stroke="#000000"
     class="Stem" />
  <polyline
     transform="translate(-360,-1038.8667)"
     id="polyline18076"
     points="2470.45,1231.22 2470.45,1308.02"
     stroke-linejoin="bevel"
     stroke-width="2.34"
     stroke="#000000"
     class="Stem" />
  <polyline
     transform="translate(-360,-1038.8667)"
     id="polyline18078"
     points="2549.21,1299.99 2549.21,1228.37"
     stroke-linejoin="bevel"
     stroke-width="2.34"
     stroke="#000000"
     class="Stem" />
  <path
     style="stroke-width:0.8496"
     id="path18246"
     d="m 704.9224,214.48152 c -1.52928,-2.80368 -4.75776,-4.33296 -8.66592,-4.33296 -2.88864,0 -6.03216,0.8496 -9.09072,2.46384 -5.60736,2.9736 -9.00576,7.98624 -9.00576,12.3192 0,1.18944 0.25488,2.37888 0.8496,3.48336 1.52928,2.80368 4.75776,4.248 8.66592,4.248 2.88864,0 6.03216,-0.76464 9.09072,-2.37888 5.60736,-2.9736 9.00576,-7.98624 9.00576,-12.3192 0,-1.18944 -0.25488,-2.37888 -0.8496,-3.48336"
     class="Note" />
  <path
     style="stroke-width:0.8496"
     id="path18248"
     d="m 951.7124,182.62152 c -1.52928,-2.80368 -4.75776,-4.33296 -8.66592,-4.33296 -2.88864,0 -6.03216,0.8496 -9.09072,2.46384 -5.60736,2.9736 -9.00576,7.98624 -9.00576,12.3192 0,1.18944 0.25488,2.37888 0.8496,3.48336 1.52928,2.80368 4.75776,4.248 8.66592,4.248 2.88864,0 6.03216,-0.76464 9.09072,-2.37888 5.60736,-2.9736 9.00576,-7.98624 9.00576,-12.3192 0,-1.18944 -0.25488,-2.37888 -0.8496,-3.48336"
     class="Note" />
  <path
     style="stroke-width:0.8496"
     id="path18312"
     d="m 213.3294,225.10152 c -1.52928,-2.80368 -4.75776,-4.33296 -8.66592,-4.33296 -2.88864,0 -6.03216,0.8496 -9.09072,2.46384 -5.60736,2.9736 -9.00576,7.98624 -9.00576,12.3192 0,1.18944 0.25488,2.37888 0.8496,3.48336 1.52928,2.80368 4.75776,4.248 8.66592,4.248 2.88864,0 6.03216,-0.76464 9.09072,-2.37888 5.60736,-2.9736 9.00576,-7.98624 9.00576,-12.3192 0,-1.18944 -0.25488,-2.37888 -0.8496,-3.48336"
     class="Note" />
  <path
     style="stroke-width:0.8496"
     id="path18314"
     d="m 271.5364,129.52152 c -1.52928,-2.80368 -4.75776,-4.33296 -8.66592,-4.33296 -2.88864,0 -6.03216,0.8496 -9.09072,2.46384 -5.60736,2.9736 -9.00576,7.98624 -9.00576,12.3192 0,1.18944 0.25488,2.37888 0.8496,3.48336 1.52928,2.80368 4.75776,4.248 8.66592,4.248 2.88864,0 6.03216,-0.76464 9.09072,-2.37888 5.60736,-2.9736 9.00576,-7.98624 9.00576,-12.3192 0,-1.18944 -0.25488,-2.37888 -0.8496,-3.48336"
     class="Note" />
  <path
     style="stroke-width:0.8496"
     id="path18316"
     d="m 323.9184,140.14152 c -1.52928,-2.80368 -4.75776,-4.33296 -8.66592,-4.33296 -2.88864,0 -6.03216,0.8496 -9.09072,2.46384 -5.60736,2.9736 -9.00576,7.98624 -9.00576,12.3192 0,1.18944 0.25488,2.37888 0.8496,3.48336 1.52928,2.80368 4.75776,4.248 8.66592,4.248 2.88864,0 6.03216,-0.76464 9.09072,-2.37888 5.60736,-2.9736 9.00576,-7.98624 9.00576,-12.3192 0,-1.18944 -0.25488,-2.37888 -0.8496,-3.48336"
     class="Note" />
  <path
     style="stroke-width:0.8496"
     id="path18318"
     d="m 376.3004,150.76152 c -1.52928,-2.80368 -4.75776,-4.33296 -8.66592,-4.33296 -2.88864,0 -6.03216,0.8496 -9.09072,2.46384 -5.60736,2.9736 -9.00576,7.98624 -9.00576,12.3192 0,1.18944 0.25488,2.37888 0.8496,3.48336 1.52928,2.80368 4.75776,4.248 8.66592,4.248 2.88864,0 6.03216,-0.76464 9.09072,-2.37888 5.60736,-2.9736 9.00576,-7.98624 9.00576,-12.3192 0,-1.18944 -0.25488,-2.37888 -0.8496,-3.48336"
     class="Note" />
  <path
     style="stroke-width:0.8496"
     id="path18320"
     d="m 428.6824,161.38152 c -1.52928,-2.80368 -4.75776,-4.33296 -8.66592,-4.33296 -2.88864,0 -6.03216,0.8496 -9.09072,2.46384 -5.60736,2.9736 -9.00576,7.98624 -9.00576,12.3192 0,1.18944 0.25488,2.37888 0.8496,3.48336 1.52928,2.80368 4.75776,4.248 8.66592,4.248 2.88864,0 6.03216,-0.76464 9.09072,-2.37888 5.60736,-2.9736 9.00576,-7.98624 9.00576,-12.3192 0,-1.18944 -0.25488,-2.37888 -0.8496,-3.48336"
     class="Note" />
  <path
     style="stroke-width:0.8496"
     id="path18322"
     d="m 547.7784,193.24152 c -1.52928,-2.80368 -4.75776,-4.33296 -8.66592,-4.33296 -2.88864,0 -6.03216,0.8496 -9.09072,2.46384 -5.60736,2.9736 -9.00576,7.98624 -9.00576,12.3192 0,1.18944 0.25488,2.37888 0.8496,3.48336 1.52928,2.80368 4.75776,4.248 8.66592,4.248 2.88864,0 6.03216,-0.76464 9.09072,-2.37888 5.60736,-2.9736 9.00576,-7.98624 9.00576,-12.3192 0,-1.18944 -0.25488,-2.37888 -0.8496,-3.48336"
     class="Note" />
  <path
     style="stroke-width:0.59472"
     id="path18324"
     d="m 465.69668,174.06605 c -1.0705,-1.96258 -3.33043,-3.03307 -6.06614,-3.03307 -2.02205,0 -4.22252,0.59472 -6.36351,1.72468 -3.92515,2.08152 -6.30403,5.59037 -6.30403,8.62344 0,0.83261 0.17842,1.66522 0.59472,2.43836 1.0705,1.96257 3.33043,2.9736 6.06614,2.9736 2.02205,0 4.22252,-0.53525 6.36351,-1.66522 3.92515,-2.08152 6.30403,-5.59037 6.30403,-8.62344 0,-0.83261 -0.17842,-1.66522 -0.59472,-2.43835"
     class="Note" />
  <path
     style="stroke-width:0.59472"
     id="path18326"
     d="m 486.95368,184.68605 c -1.0705,-1.96258 -3.33043,-3.03307 -6.06614,-3.03307 -2.02205,0 -4.22252,0.59472 -6.36351,1.72468 -3.92515,2.08152 -6.30403,5.59037 -6.30403,8.62344 0,0.83261 0.17842,1.66522 0.59472,2.43836 1.0705,1.96257 3.33043,2.9736 6.06614,2.9736 2.02205,0 4.22252,-0.53525 6.36351,-1.66522 3.92515,-2.08152 6.30403,-5.59037 6.30403,-8.62344 0,-0.83261 -0.17842,-1.66522 -0.59472,-2.43835"
     class="Note" />
  <path
     style="stroke-width:0.8496"
     id="path18328"
     d="m 600.1604,182.62152 c -1.52928,-2.80368 -4.75776,-4.33296 -8.66592,-4.33296 -2.88864,0 -6.03216,0.8496 -9.09072,2.46384 -5.60736,2.9736 -9.00576,7.98624 -9.00576,12.3192 0,1.18944 0.25488,2.37888 0.8496,3.48336 1.52928,2.80368 4.75776,4.248 8.66592,4.248 2.88864,0 6.03216,-0.76464 9.09072,-2.37888 5.60736,-2.9736 9.00576,-7.98624 9.00576,-12.3192 0,-1.18944 -0.25488,-2.37888 -0.8496,-3.48336"
     class="Note" />
  <path
     style="stroke-width:0.8496"
     id="path18330"
     d="m 652.5424,150.76152 c -1.52928,-2.80368 -4.75776,-4.33296 -8.66592,-4.33296 -2.88864,0 -6.03216,0.8496 -9.09072,2.46384 -5.60736,2.9736 -9.00576,7.98624 -9.00576,12.3192 0,1.18944 0.25488,2.37888 0.8496,3.48336 1.52928,2.80368 4.75776,4.248 8.66592,4.248 2.88864,0 6.03216,-0.76464 9.09072,-2.37888 5.60736,-2.9736 9.00576,-7.98624 9.00576,-12.3192 0,-1.18944 -0.25488,-2.37888 -0.8496,-3.48336"
     class="Note" />
  <path
     style="stroke-width:0.8496"
     id="path18332"
     d="m 704.9224,172.00152 c -1.52928,-2.80368 -4.75776,-4.33296 -8.66592,-4.33296 -2.88864,0 -6.03216,0.8496 -9.09072,2.46384 -5.60736,2.9736 -9.00576,7.98624 -9.00576,12.3192 0,1.18944 0.25488,2.37888 0.8496,3.48336 1.52928,2.80368 4.75776,4.248 8.66592,4.248 2.88864,0 6.03216,-0.76464 9.09072,-2.37888 5.60736,-2.9736 9.00576,-7.98624 9.00576,-12.3192 0,-1.18944 -0.25488,-2.37888 -0.8496,-3.48336"
     class="Note" />
  <path
     style="stroke-width:0.8496"
     id="path18334"
     d="m 838.5524,182.62152 c -1.52928,-2.80368 -4.75776,-4.33296 -8.66592,-4.33296 -2.88864,0 -6.03216,0.8496 -9.09072,2.46384 -5.60736,2.9736 -9.00576,7.98624 -9.00576,12.3192 0,1.18944 0.25488,2.37888 0.8496,3.48336 1.52928,2.80368 4.75776,4.248 8.66592,4.248 2.88864,0 6.03216,-0.76464 9.09072,-2.37888 5.60736,-2.9736 9.00576,-7.98624 9.00576,-12.3192 0,-1.18944 -0.25488,-2.37888 -0.8496,-3.48336"
     class="Note" />
  <path
     style="stroke-width:0.8496"
     id="path18336"
     d="m 951.7124,182.62152 c -1.52928,-2.80368 -4.75776,-4.33296 -8.66592,-4.33296 -2.88864,0 -6.03216,0.8496 -9.09072,2.46384 -5.60736,2.9736 -9.00576,7.98624 -9.00576,12.3192 0,1.18944 0.25488,2.37888 0.8496,3.48336 1.52928,2.80368 4.75776,4.248 8.66592,4.248 2.88864,0 6.03216,-0.76464 9.09072,-2.37888 5.60736,-2.9736 9.00576,-7.98624 9.00576,-12.3192 0,-1.18944 -0.25488,-2.37888 -0.8496,-3.48336"
     class="Note" />
  <path
     style="stroke-width:0.8496"
     id="path18338"
     d="m 1056.0724,172.00152 c -1.5293,-2.80368 -4.7578,-4.33296 -8.6659,-4.33296 -2.8887,0 -6.0322,0.8496 -9.0907,2.46384 -5.6074,2.9736 -9.0058,7.98624 -9.0058,12.3192 0,1.18944 0.2549,2.37888 0.8496,3.48336 1.5293,2.80368 4.7578,4.248 8.6659,4.248 2.8887,0 6.0322,-0.76464 9.0907,-2.37888 5.6074,-2.9736 9.0058,-7.98624 9.0058,-12.3192 0,-1.18944 -0.2549,-2.37888 -0.8496,-3.48336"
     class="Note" />
  <path
     style="stroke-width:0.8496"
     id="path18340"
     d="m 1109.5624,161.38152 c -1.5293,-2.80368 -4.7578,-4.33296 -8.6659,-4.33296 -2.8887,0 -6.0322,0.8496 -9.0907,2.46384 -5.6074,2.9736 -9.0058,7.98624 -9.0058,12.3192 0,1.18944 0.2549,2.37888 0.8496,3.48336 1.5293,2.80368 4.7578,4.248 8.6659,4.248 2.8887,0 6.0322,-0.76464 9.0907,-2.37888 5.6074,-2.9736 9.0058,-7.98624 9.0058,-12.3192 0,-1.18944 -0.2549,-2.37888 -0.8496,-3.48336"
     class="Note" />
  <path
     style="stroke-width:0.8496"
     id="path18342"
     d="m 1163.0524,150.76152 c -1.5293,-2.80368 -4.7578,-4.33296 -8.6659,-4.33296 -2.8887,0 -6.0322,0.8496 -9.0907,2.46384 -5.6074,2.9736 -9.0058,7.98624 -9.0058,12.3192 0,1.18944 0.2549,2.37888 0.8496,3.48336 1.5293,2.80368 4.7578,4.248 8.6659,4.248 2.8887,0 6.0322,-0.76464 9.0907,-2.37888 5.6074,-2.9736 9.0058,-7.98624 9.0058,-12.3192 0,-1.18944 -0.2549,-2.37888 -0.8496,-3.48336"
     class="Note" />
  <path
     style="stroke-width:0.8496"
     id="path18344"
     d="m 1216.5424,140.14152 c -1.5293,-2.80368 -4.7578,-4.33296 -8.6659,-4.33296 -2.8887,0 -6.0322,0.8496 -9.0907,2.46384 -5.6074,2.9736 -9.0058,7.98624 -9.0058,12.3192 0,1.18944 0.2549,2.37888 0.8496,3.48336 1.5293,2.80368 4.7578,4.248 8.6659,4.248 2.8887,0 6.0322,-0.76464 9.0907,-2.37888 5.6074,-2.9736 9.0058,-7.98624 9.0058,-12.3192 0,-1.18944 -0.2549,-2.37888 -0.8496,-3.48336"
     class="Note" />
  <path
     style="stroke-width:0.8496"
     id="path18346"
     d="m 1278.8524,118.90152 c -1.5293,-2.80368 -4.7578,-4.33296 -8.6659,-4.33296 -2.8887,0 -6.0322,0.8496 -9.0907,2.46384 -5.6074,2.9736 -9.0058,7.98624 -9.0058,12.3192 0,1.18944 0.2549,2.37888 0.8496,3.48336 1.5293,2.80368 4.7578,4.248 8.6659,4.248 2.8887,0 6.0322,-0.76464 9.0907,-2.37888 5.6074,-2.9736 9.0058,-7.98624 9.0058,-12.3192 0,-1.18944 -0.2549,-2.37888 -0.8496,-3.48336"
     class="Note" />
  <path
     style="stroke-width:0.8496"
     id="path18348"
     d="m 1332.5824,129.52152 c -1.5293,-2.80368 -4.7578,-4.33296 -8.6659,-4.33296 -2.8887,0 -6.0322,0.8496 -9.0907,2.46384 -5.6074,2.9736 -9.0058,7.98624 -9.0058,12.3192 0,1.18944 0.2549,2.37888 0.8496,3.48336 1.5293,2.80368 4.7578,4.248 8.6659,4.248 2.8887,0 6.0322,-0.76464 9.0907,-2.37888 5.6074,-2.9736 9.0058,-7.98624 9.0058,-12.3192 0,-1.18944 -0.2549,-2.37888 -0.8496,-3.48336"
     class="Note" />
  <path
     style="stroke-width:0.59472"
     id="path18350"
     d="m 1359.1637,120.96605 c -1.0705,-1.96258 -3.3305,-3.03307 -6.0662,-3.03307 -2.022,0 -4.2225,0.59472 -6.3635,1.72468 -3.9251,2.08152 -6.304,5.59037 -6.304,8.62344 0,0.83261 0.1784,1.66522 0.5947,2.43836 1.0705,1.96257 3.3305,2.9736 6.0662,2.9736 2.022,0 4.2225,-0.53525 6.3635,-1.66522 3.9251,-2.08152 6.304,-5.59037 6.304,-8.62344 0,-0.83261 -0.1784,-1.66522 -0.5947,-2.43835"
     class="Note" />
  <path
     style="stroke-width:0.8496"
     id="path18352"
     d="m 1421.1524,140.14152 c -1.5293,-2.80368 -4.7578,-4.33296 -8.6659,-4.33296 -2.8887,0 -6.0322,0.8496 -9.0907,2.46384 -5.6074,2.9736 -9.0058,7.98624 -9.0058,12.3192 0,1.18944 0.2549,2.37888 0.8496,3.48336 1.5293,2.80368 4.7578,4.248 8.6659,4.248 2.8887,0 6.0322,-0.76464 9.0907,-2.37888 5.6074,-2.9736 9.0058,-7.98624 9.0058,-12.3192 0,-1.18944 -0.2549,-2.37888 -0.8496,-3.48336"
     class="Note" />
  <path
     style="stroke-width:0.59472"
     id="path18354"
     d="m 1388.9137,131.58605 c -1.0705,-1.96258 -3.3305,-3.03307 -6.0662,-3.03307 -2.022,0 -4.2225,0.59472 -6.3635,1.72468 -3.9251,2.08152 -6.304,5.59037 -6.304,8.62344 0,0.83261 0.1784,1.66522 0.5947,2.43836 1.0705,1.96257 3.3305,2.9736 6.0662,2.9736 2.022,0 4.2225,-0.53525 6.3635,-1.66522 3.9251,-2.08152 6.304,-5.59037 6.304,-8.62344 0,-0.83261 -0.1784,-1.66522 -0.5947,-2.43835"
     class="Note" />
  <path
     style="stroke-width:0.8496"
     id="path18356"
     d="m 1474.6424,150.76152 c -1.5293,-2.80368 -4.7578,-4.33296 -8.6659,-4.33296 -2.8887,0 -6.0322,0.8496 -9.0907,2.46384 -5.6074,2.9736 -9.0058,7.98624 -9.0058,12.3192 0,1.18944 0.2549,2.37888 0.8496,3.48336 1.5293,2.80368 4.7578,4.248 8.6659,4.248 2.8887,0 6.0322,-0.76464 9.0907,-2.37888 5.6074,-2.9736 9.0058,-7.98624 9.0058,-12.3192 0,-1.18944 -0.2549,-2.37888 -0.8496,-3.48336"
     class="Note" />
  <path
     style="stroke-width:0.8496"
     id="path18358"
     d="m 1528.1324,161.38152 c -1.5293,-2.80368 -4.7578,-4.33296 -8.6659,-4.33296 -2.8887,0 -6.0322,0.8496 -9.0907,2.46384 -5.6074,2.9736 -9.0058,7.98624 -9.0058,12.3192 0,1.18944 0.2549,2.37888 0.8496,3.48336 1.5293,2.80368 4.7578,4.248 8.6659,4.248 2.8887,0 6.0322,-0.76464 9.0907,-2.37888 5.6074,-2.9736 9.0058,-7.98624 9.0058,-12.3192 0,-1.18944 -0.2549,-2.37888 -0.8496,-3.48336"
     class="Note" />
  <path
     style="stroke-width:0.8496"
     id="path18360"
     d="m 1581.6224,150.76152 c -1.5293,-2.80368 -4.7578,-4.33296 -8.6659,-4.33296 -2.8887,0 -6.0322,0.8496 -9.0907,2.46384 -5.6074,2.9736 -9.0058,7.98624 -9.0058,12.3192 0,1.18944 0.2549,2.37888 0.8496,3.48336 1.5293,2.80368 4.7578,4.248 8.6659,4.248 2.8887,0 6.0322,-0.76464 9.0907,-2.37888 5.6074,-2.9736 9.0058,-7.98624 9.0058,-12.3192 0,-1.18944 -0.2549,-2.37888 -0.8496,-3.48336"
     class="Note" />
  <path
     style="stroke-width:0.8496"
     id="path18362"
     d="m 1635.1124,172.00152 c -1.5293,-2.80368 -4.7578,-4.33296 -8.6659,-4.33296 -2.8887,0 -6.0322,0.8496 -9.0907,2.46384 -5.6074,2.9736 -9.0058,7.98624 -9.0058,12.3192 0,1.18944 0.2549,2.37888 0.8496,3.48336 1.5293,2.80368 4.7578,4.248 8.6659,4.248 2.8887,0 6.0322,-0.76464 9.0907,-2.37888 5.6074,-2.9736 9.0058,-7.98624 9.0058,-12.3192 0,-1.18944 -0.2549,-2.37888 -0.8496,-3.48336"
     class="Note" />
  <path
     style="stroke-width:0.59472"
     id="path18364"
     d="m 1677.6437,152.82605 c -1.0705,-1.96258 -3.3305,-3.03307 -6.0662,-3.03307 -2.022,0 -4.2225,0.59472 -6.3635,1.72468 -3.9251,2.08152 -6.304,5.59037 -6.304,8.62344 0,0.83261 0.1784,1.66522 0.5947,2.43836 1.0705,1.96257 3.3305,2.9736 6.0662,2.9736 2.022,0 4.2225,-0.53525 6.3635,-1.66522 3.9251,-2.08152 6.304,-5.59037 6.304,-8.62344 0,-0.83261 -0.1784,-1.66522 -0.5947,-2.43835"
     class="Note" />
  <path
     style="stroke-width:0.59472"
     id="path18366"
     d="m 1656.3937,163.44605 c -1.0705,-1.96258 -3.3305,-3.03307 -6.0662,-3.03307 -2.022,0 -4.2225,0.59472 -6.3635,1.72468 -3.9251,2.08152 -6.304,5.59037 -6.304,8.62344 0,0.83261 0.1784,1.66522 0.5947,2.43836 1.0705,1.96257 3.3305,2.9736 6.0662,2.9736 2.022,0 4.2225,-0.53525 6.3635,-1.66522 3.9251,-2.08152 6.304,-5.59037 6.304,-8.62344 0,-0.83261 -0.1784,-1.66522 -0.5947,-2.43835"
     class="Note" />
  <path
     style="stroke-width:0.8496"
     id="path18368"
     d="m 1714.3624,108.28152 c -1.5293,-2.80368 -4.7578,-4.33296 -8.6659,-4.33296 -2.8887,0 -6.0322,0.8496 -9.0907,2.46384 -5.6074,2.9736 -9.0058,7.98624 -9.0058,12.3192 0,1.18944 0.2549,2.37888 0.8496,3.48336 1.5293,2.80368 4.7578,4.248 8.6659,4.248 2.8887,0 6.0322,-0.76464 9.0907,-2.37888 5.6074,-2.9736 9.0058,-7.98624 9.0058,-12.3192 0,-1.18944 -0.2549,-2.37888 -0.8496,-3.48336"
     class="Note" />
  <path
     style="stroke-width:0.8496"
     id="path18370"
     d="m 1785.6424,118.90152 c -1.5293,-2.80368 -4.7578,-4.33296 -8.6659,-4.33296 -2.8887,0 -6.0322,0.8496 -9.0907,2.46384 -5.6074,2.9736 -9.0058,7.98624 -9.0058,12.3192 0,1.18944 0.2549,2.37888 0.8496,3.48336 1.5293,2.80368 4.7578,4.248 8.6659,4.248 2.8887,0 6.0322,-0.76464 9.0907,-2.37888 5.6074,-2.9736 9.0058,-7.98624 9.0058,-12.3192 0,-1.18944 -0.2549,-2.37888 -0.8496,-3.48336"
     class="Note" />
  <path
     style="stroke-width:0.8496"
     id="path18372"
     d="m 1839.1324,108.28152 c -1.5293,-2.80368 -4.7578,-4.33296 -8.6659,-4.33296 -2.8887,0 -6.0322,0.8496 -9.0907,2.46384 -5.6074,2.9736 -9.0058,7.98624 -9.0058,12.3192 0,1.18944 0.2549,2.37888 0.8496,3.48336 1.5293,2.80368 4.7578,4.248 8.6659,4.248 2.8887,0 6.0322,-0.76464 9.0907,-2.37888 5.6074,-2.9736 9.0058,-7.98624 9.0058,-12.3192 0,-1.18944 -0.2549,-2.37888 -0.8496,-3.48336"
     class="Note" />
  <path
     style="stroke-width:0.8496"
     id="path18374"
     d="m 1943.4824,140.14152 c -1.5293,-2.80368 -4.7578,-4.33296 -8.6659,-4.33296 -2.8887,0 -6.0322,0.8496 -9.0907,2.46384 -5.6074,2.9736 -9.0058,7.98624 -9.0058,12.3192 0,1.18944 0.2549,2.37888 0.8496,3.48336 1.5293,2.80368 4.7578,4.248 8.6659,4.248 2.8887,0 6.0322,-0.76464 9.0907,-2.37888 5.6074,-2.9736 9.0058,-7.98624 9.0058,-12.3192 0,-1.18944 -0.2549,-2.37888 -0.8496,-3.48336"
     class="Note" />
  <path
     style="stroke-width:0.8496"
     id="path18376"
     d="m 1996.9724,161.38152 c -1.5293,-2.80368 -4.7578,-4.33296 -8.6659,-4.33296 -2.8887,0 -6.0322,0.8496 -9.0907,2.46384 -5.6074,2.9736 -9.0058,7.98624 -9.0058,12.3192 0,1.18944 0.2549,2.37888 0.8496,3.48336 1.5293,2.80368 4.7578,4.248 8.6659,4.248 2.8887,0 6.0322,-0.76464 9.0907,-2.37888 5.6074,-2.9736 9.0058,-7.98624 9.0058,-12.3192 0,-1.18944 -0.2549,-2.37888 -0.8496,-3.48336"
     class="Note" />
  <path
     style="stroke-width:0.8496"
     id="path18378"
     d="m 2082.5524,172.00152 c -1.5293,-2.80368 -4.7578,-4.33296 -8.6659,-4.33296 -2.8887,0 -6.0322,0.8496 -9.0907,2.46384 -5.6074,2.9736 -9.0058,7.98624 -9.0058,12.3192 0,1.18944 0.2549,2.37888 0.8496,3.48336 1.5293,2.80368 4.7578,4.248 8.6659,4.248 2.8887,0 6.0322,-0.76464 9.0907,-2.37888 5.6074,-2.9736 9.0058,-7.98624 9.0058,-12.3192 0,-1.18944 -0.2549,-2.37888 -0.8496,-3.48336"
     class="Note" />
  <path
     style="stroke-width:0.8496"
     id="path18380"
     d="m 2136.0424,182.62152 c -1.5293,-2.80368 -4.7578,-4.33296 -8.6659,-4.33296 -2.8887,0 -6.0322,0.8496 -9.0907,2.46384 -5.6074,2.9736 -9.0058,7.98624 -9.0058,12.3192 0,1.18944 0.2549,2.37888 0.8496,3.48336 1.5293,2.80368 4.7578,4.248 8.6659,4.248 2.8887,0 6.0322,-0.76464 9.0907,-2.37888 5.6074,-2.9736 9.0058,-7.98624 9.0058,-12.3192 0,-1.18944 -0.2549,-2.37888 -0.8496,-3.48336"
     class="Note" />
  <path
     style="stroke-width:0.8496"
     id="path18382"
     d="m 2189.5324,256.96152 c -1.5293,-2.80368 -4.7578,-4.33296 -8.6659,-4.33296 -2.8887,0 -6.0322,0.8496 -9.0907,2.46384 -5.6074,2.9736 -9.0058,7.98624 -9.0058,12.3192 0,1.18944 0.2549,2.37888 0.8496,3.48336 1.5293,2.80368 4.7578,4.248 8.6659,4.248 2.8887,0 6.0322,-0.76464 9.0907,-2.37888 5.6074,-2.9736 9.0058,-7.98624 9.0058,-12.3192 0,-1.18944 -0.2549,-2.37888 -0.8496,-3.48336"
     class="Note" />
  <path
     style="stroke-width:0.8496"
     id="path18536"
     d="m 24.2136,128.41704 h -6.11712 c -0.59472,0 -1.10448,0.50976 -1.10448,1.10448 v 77.3136 c 0,0.59472 0.50976,1.10448 1.10448,1.10448 h 6.11712 c 0.59472,0 1.10448,-0.50976 1.10448,-1.10448 v -77.3136 c 0,-0.59472 -0.50976,-1.10448 -1.10448,-1.10448 m 30.5856,43.24464 h -1.2744 c -1.95408,0 -3.3984,0.16992 -6.71184,2.20896 0,0 -1.86912,-3.73824 -4.6728,-5.69232 2.80368,-1.95408 4.6728,-5.69232 4.6728,-5.69232 3.31344,2.03904 4.75776,2.20896 6.71184,2.20896 h 1.2744 c 10.36512,0 15.46272,-9.60048 15.46272,-18.77616 0,-11.8944 -8.75088,-18.60624 -19.03104,-18.60624 -9.3456,0 -13.25376,4.6728 -13.25376,4.6728 -1.52928,1.86912 -2.20896,3.90816 -2.20896,5.77728 0,1.52928 0.4248,2.9736 1.2744,4.248 1.18944,1.6992 3.56832,2.63376 5.77728,2.63376 1.52928,0 2.9736,-0.4248 3.99312,-1.2744 1.44432,-1.2744 2.37888,-3.14352 2.37888,-5.18256 0,-1.18944 -0.33984,-2.37888 -0.93456,-3.48336 -1.35936,-2.46384 -3.90816,-2.80368 -5.26752,-2.80368 -0.50976,0 -0.93456,0.085 -0.93456,0.085 1.95408,-1.35936 4.58784,-2.124 7.2216,-2.124 2.37888,0 4.6728,0.59472 6.28704,1.78416 2.9736,2.20896 4.07808,6.88176 4.07808,12.99888 0,6.54192 -0.16992,16.05744 -7.6464,16.05744 -7.47648,0 -9.17568,-8.9208 -9.17568,-8.9208 0,0 0,-1.18944 -1.18944,-1.18944 -1.18944,0 -1.2744,1.18944 -1.2744,1.18944 0,0 -0.67968,4.33296 -2.9736,9.60048 -1.35936,3.14352 -3.3984,4.58784 -4.84272,5.18256 v -37.04256 c 0,-0.59472 -0.4248,-1.10448 -1.01952,-1.10448 -0.59472,0 -1.10448,0.50976 -1.10448,1.10448 v 77.3136 c 0,0.59472 0.50976,1.10448 1.10448,1.10448 0.59472,0 1.01952,-0.50976 1.01952,-1.10448 V 169.7926 c 1.44432,0.59472 3.48336,2.03904 4.84272,5.18256 2.29392,5.26752 2.9736,9.68544 2.9736,9.68544 0,0 0.08496,1.10448 1.2744,1.10448 1.18944,0 1.18944,-1.10448 1.18944,-1.10448 0,0 1.6992,-9.00576 9.17568,-9.00576 7.47648,0 7.6464,9.51552 7.6464,16.05744 0,6.11712 -1.10448,10.78992 -4.07808,12.99888 -1.61424,1.18944 -3.90816,1.78416 -6.28704,1.78416 -2.63376,0 -5.26752,-0.76464 -7.2216,-2.124 0,0 0.4248,0.085 0.93456,0.085 1.35936,0 3.90816,-0.33984 5.26752,-2.80368 0.59472,-1.10448 0.93456,-2.29392 0.93456,-3.48336 0,-2.03904 -0.93456,-3.90816 -2.37888,-5.18256 -1.01952,-0.8496 -2.46384,-1.2744 -3.99312,-1.2744 -2.20896,0 -4.58784,0.93456 -5.77728,2.63376 -0.8496,1.2744 -1.2744,2.71872 -1.2744,4.248 0,1.86912 0.67968,3.90816 2.20896,5.77728 0,0 3.90816,4.6728 13.25376,4.6728 10.28016,0 19.03104,-6.71184 19.03104,-18.60624 0,-9.17568 -5.0976,-18.77616 -15.46272,-18.77616"
     class="Clef" />
  <path
     style="stroke-width:0.8496"
     id="path18550"
     d="m 132.53368,159.25752 c 0.50976,-0.085 0.93456,-0.67968 0.93456,-1.18944 v -5.01264 c 0,-0.67968 -0.50976,-1.18944 -1.18944,-1.18944 h -0.16992 l -2.80368,0.59472 v -12.65904 h -2.37888 v 13.1688 l -7.56144,1.52928 V 142.5204 H 116.986 v 12.48912 l -3.31344,0.67968 c -0.50976,0.085 -0.93456,0.67968 -0.93456,1.18944 v 0.16992 4.92768 -0.16992 c 0,0.67968 0.50976,1.18944 1.18944,1.18944 h 0.25488 l 2.80368,-0.59472 v 14.0184 l -3.31344,0.67968 c -0.50976,0.085 -0.93456,0.67968 -0.93456,1.18944 v 4.92768 c 0,0.67968 0.50976,1.18944 1.18944,1.18944 h 0.25488 l 2.80368,-0.59472 V 196.47 h 2.37888 v -13.1688 l 7.56144,-1.52928 v 11.97936 h 2.37888 v -12.48912 l 3.22848,-0.59472 c 0.50976,-0.085 0.93456,-0.67968 0.93456,-1.18944 v -5.01264 c 0,-0.67968 -0.50976,-1.18944 -1.18944,-1.18944 h -0.16992 l -2.80368,0.59472 v -14.0184 l 3.22848,-0.59472 m -13.1688,16.73712 v -14.10336 l 7.56144,-1.52928 v 14.0184 l -7.56144,1.61424"
     class="KeySig" />
  <path
     style="stroke-width:0.8496"
     id="path18552"
     d="m 111.29368,201.73752 c 0.50976,-0.085 0.93456,-0.67968 0.93456,-1.18944 v -5.01264 c 0,-0.67968 -0.50976,-1.18944 -1.18944,-1.18944 h -0.16992 l -2.80368,0.59472 v -12.65904 h -2.37888 v 13.1688 l -7.56144,1.52928 V 185.0004 H 95.746 v 12.48912 l -3.31344,0.67968 c -0.50976,0.085 -0.93456,0.67968 -0.93456,1.18944 v 0.16992 4.92768 -0.16992 c 0,0.67968 0.50976,1.18944 1.18944,1.18944 h 0.25488 l 2.80368,-0.59472 v 14.0184 l -3.31344,0.67968 c -0.50976,0.085 -0.93456,0.67968 -0.93456,1.18944 v 4.92768 c 0,0.67968 0.50976,1.18944 1.18944,1.18944 h 0.25488 L 95.746,226.29096 V 238.95 h 2.37888 v -13.1688 l 7.56144,-1.52928 v 11.97936 h 2.37888 v -12.48912 l 3.22848,-0.59472 c 0.50976,-0.085 0.93456,-0.67968 0.93456,-1.18944 v -5.01264 c 0,-0.67968 -0.50976,-1.18944 -1.18944,-1.18944 h -0.16992 l -2.80368,0.59472 v -14.0184 l 3.22848,-0.59472 m -13.1688,16.73712 v -14.10336 l 7.56144,-1.52928 v 14.0184 l -7.56144,1.61424"
     class="KeySig" />
  <path
     style="stroke-width:0.8496"
     id="path18572"
     d="M 211.3346,80.16176 C 211.16468,79.90688 210.65492,79.652 210.31508,79.652 h -1.18944 c -0.4248,0 -0.93456,0.33984 -1.10448,0.76464 l -7.6464,21.40992 -7.6464,-21.40992 c -0.16992,-0.4248 -0.67968,-0.76464 -1.10448,-0.76464 h -1.18944 c -0.67968,0 -1.18944,0.50976 -1.18944,1.18944 0,0.08496 0.085,0.33984 0.085,0.4248 l 9.94032,26.7624 c 0.16992,0.4248 0.67968,0.76464 1.10448,0.76464 0.4248,0 0.93456,-0.33984 1.10448,-0.76464 l 9.94032,-26.7624 c 0,-0.08496 0.085,-0.33984 0.085,-0.4248 0,-0.16992 -0.085,-0.50976 -0.16992,-0.67968"
     class="Articulation" />
  <path
     style="stroke-width:0.8496"
     id="path18574"
     d="m 702.53712,28.07928 c -3.31344,0 -5.18256,2.20896 -5.18256,2.20896 l -0.67968,-0.67968 c -0.4248,-0.4248 -1.10448,-0.4248 -1.10448,-0.4248 h -8.75088 l 2.88864,-8.9208 c 0.16992,-0.59472 -0.50976,-1.35936 -1.18944,-1.35936 h -0.76464 c -0.25488,0 -0.67968,0.25488 -0.8496,0.4248 -0.16992,0.16992 -4.07808,3.3984 -4.41792,3.65328 -0.33984,0.25488 -0.4248,0.67968 -0.4248,0.67968 0,0 -0.8496,2.37888 -1.95408,5.5224 h -4.75776 c -1.01952,0 -1.18944,1.01952 -1.18944,1.01952 v 1.10448 c 0,0.93456 1.18944,1.01952 1.18944,1.01952 h 3.73824 c -1.86912,5.60736 -3.90816,12.23424 -3.90816,14.10336 0,4.07808 2.80368,5.01264 5.43744,5.01264 2.63376,0 5.5224,-2.03904 5.5224,-2.03904 0,0 0.25488,0.59472 0.50976,1.2744 0.25488,0.67968 1.01952,0.76464 1.01952,0.76464 h 3.8232 c 1.10448,0 1.2744,-0.93456 1.2744,-0.93456 v -1.61424 c 0,-1.86912 1.35936,-6.11712 1.35936,-6.11712 l 3.56832,-8.0712 c 0,0 0.8496,-1.61424 1.78416,-2.46384 0.93456,-0.76464 1.95408,-1.10448 2.37888,-0.8496 -1.18944,0.76464 -1.44432,2.03904 -1.44432,3.05856 0,1.01952 1.10448,3.22848 3.3984,3.22848 2.88864,0 3.90816,-1.78416 3.90816,-4.41792 0,-2.63376 -1.86912,-5.18256 -5.18256,-5.18256 m -14.27328,14.95296 c -0.67968,2.29392 -2.9736,3.8232 -4.41792,3.8232 -0.25488,0 -0.4248,0 -0.59472,-0.08496 -0.67968,-0.33984 -0.93456,-1.18944 -0.93456,-2.124 0,-1.95408 0.93456,-4.41792 0.93456,-4.41792 L 685.8,32.32728 h 5.60736 c 0.25488,0 0.25488,0.25488 0.25488,0.25488 0,0 -2.63376,7.81632 -3.3984,10.45008"
     class="Articulation" />
  <path
     style="stroke-width:0.8496"
     id="path18576"
     d="m 925.39,24.89328 h 2.37888 V 7.73136 h 22.00464 v 17.16192 h 2.37888 V 1.18944 C 952.1524,0.50976 951.64264,0 950.96296,0 H 926.57944 C 925.89976,0 925.39,1.18944 925.39,1.18944 v 23.70384"
     class="Articulation" />
  <path
     style="stroke-width:0.8496"
     id="path18578"
     d="m 1812.8,62.06328 h 2.3789 V 44.90136 h 22.0046 v 17.16192 h 2.3789 V 38.35944 c 0,-0.67968 -0.5098,-1.18944 -1.1894,-1.18944 h -24.3836 c -0.6796,0 -1.1894,1.18944 -1.1894,1.18944 v 23.70384"
     class="Articulation" />
  <path
     style="stroke-width:0.8496"
     id="path18580"
     d="m 1917.16,93.92328 h 2.3789 V 76.76136 h 22.0046 v 17.16192 h 2.3789 V 70.21944 c 0,-0.67968 -0.5098,-1.18944 -1.1894,-1.18944 h -24.3836 c -0.6796,0 -1.1894,1.18944 -1.1894,1.18944 v 23.70384"
     class="Articulation" />
  <path
     style="stroke-width:0.8496"
     id="path18582"
     d="m 1994.5871,85.42928 c -3.3134,0 -5.1825,2.20896 -5.1825,2.20896 l -0.6797,-0.67968 c -0.4248,-0.4248 -1.1045,-0.4248 -1.1045,-0.4248 h -8.7509 l 2.8887,-8.9208 c 0.1699,-0.59472 -0.5098,-1.35936 -1.1895,-1.35936 h -0.7646 c -0.2549,0 -0.6797,0.25488 -0.8496,0.4248 -0.1699,0.16992 -4.0781,3.3984 -4.4179,3.65328 -0.3399,0.25488 -0.4248,0.67968 -0.4248,0.67968 0,0 -0.8496,2.37888 -1.9541,5.5224 h -4.7578 c -1.0195,0 -1.1894,1.01952 -1.1894,1.01952 v 1.10448 c 0,0.93456 1.1894,1.01952 1.1894,1.01952 h 3.7383 c -1.8692,5.60736 -3.9082,12.23424 -3.9082,14.10336 0,4.07808 2.8037,5.01264 5.4374,5.01264 2.6338,0 5.5224,-2.03904 5.5224,-2.03904 0,0 0.2549,0.59472 0.5098,1.2744 0.2549,0.67968 1.0195,0.76464 1.0195,0.76464 h 3.8232 c 1.1045,0 1.2744,-0.93456 1.2744,-0.93456 v -1.61424 c 0,-1.86912 1.3594,-6.11712 1.3594,-6.11712 l 3.5683,-8.0712 c 0,0 0.8496,-1.61424 1.7842,-2.46384 0.9345,-0.76464 1.954,-1.10448 2.3788,-0.8496 -1.1894,0.76464 -1.4443,2.03904 -1.4443,3.05856 0,1.01952 1.1045,3.22848 3.3984,3.22848 2.8887,0 3.9082,-1.78416 3.9082,-4.41792 0,-2.63376 -1.8691,-5.18256 -5.1826,-5.18256 m -14.2733,14.95296 c -0.6796,2.29392 -2.9736,3.8232 -4.4179,3.8232 -0.2549,0 -0.4248,0 -0.5947,-0.085 -0.6797,-0.33984 -0.9346,-1.18944 -0.9346,-2.124 0,-1.95408 0.9346,-4.41792 0.9346,-4.41792 l 2.5488,-7.90128 h 5.6074 c 0.2548,0 0.2548,0.25488 0.2548,0.25488 0,0 -2.6337,7.81632 -3.3984,10.45008"
     class="Articulation" />
  <path
     id="path18640"
     d="m 211.836,168.24328 416.28,132.56 v 11.14 l -416.28,-132.55 v -11.15"
     fill-rule="evenodd"
     class="Beam" />
  <path
     id="path18642"
     d="m 211.836,184.17328 416.28,132.56 v 11.14 l -416.28,-132.55 v -11.15"
     fill-rule="evenodd"
     class="Beam" />
  <path
     id="path18644"
     d="m 211.836,200.10328 416.28,132.56 v 11.14 l -416.28,-132.55 v -11.15"
     fill-rule="evenodd"
     class="Beam" />
  <path
     id="path18646"
     d="m 464.651,115.50328 22.892,11.43 v 8.31 l -22.892,-11.43 v -8.31"
     fill-rule="evenodd"
     class="Beam" />
  <path
     id="path18648"
     d="m 464.651,127.89328 22.892,11.43 v 8.31 l -22.892,-11.43 v -8.31"
     fill-rule="evenodd"
     class="Beam" />
  <path
     id="path18650"
     d="m 464.651,140.28328 22.892,11.43 v 8.31 l -22.892,-11.43 v -8.31"
     fill-rule="evenodd"
     class="Beam" />
  <path
     id="path18652"
     d="m 464.651,152.67328 22.892,11.43 v 8.31 l -22.892,-11.43 v -8.31"
     fill-rule="evenodd"
     class="Beam" />
  <path
     id="path18654"
     d="m 703.43,99.13328 135.96,5.4 v 10.63 l -135.96,-5.4 v -10.63"
     fill-rule="evenodd"
     class="Beam" />
  <path
     id="path18656"
     d="m 839.39,120.46328 -27.61,-1.09 v 10.63 l 27.61,1.09 v -10.63"
     fill-rule="evenodd"
     class="Beam" />
  <path
     id="path18658"
     d="m 950.22,72.88328 329.47,-32.09 v 10.67 l -329.47,32.09 v -10.67"
     fill-rule="evenodd"
     class="Beam" />
  <path
     id="path18660"
     d="m 950.22,88.81328 329.47,-32.09 v 10.67 l -329.47,32.09 v -10.67"
     fill-rule="evenodd"
     class="Beam" />
  <path
     id="path18662"
     d="m 1056.92,94.35328 -27.62,2.69 v 10.67 l 27.62,-2.69 v -10.67"
     fill-rule="evenodd"
     class="Beam" />
  <path
     id="path18664"
     d="m 1108.07,89.37328 171.62,-16.72 v 10.67 l -171.62,16.72 v -10.67"
     fill-rule="evenodd"
     class="Beam" />
  <path
     id="path18666"
     d="m 1305.82,263.84328 h 455.39 v 10.62 h -455.39 v -10.62"
     fill-rule="evenodd"
     class="Beam" />
  <path
     id="path18668"
     d="m 1305.82,247.91328 h 455.39 v 10.62 h -455.39 v -10.62"
     fill-rule="evenodd"
     class="Beam" />
  <path
     id="path18670"
     d="m 1305.82,231.98328 h 455.39 v 10.62 h -455.39 v -10.62"
     fill-rule="evenodd"
     class="Beam" />
  <path
     id="path18672"
     d="m 1655.34,95.89328 22.9,-11.44 v 8.31 l -22.9,11.44 v -8.31"
     fill-rule="evenodd"
     class="Beam" />
  <path
     id="path18674"
     d="m 1655.34,107.04328 22.9,-11.44 v 8.31 l -22.9,11.44 v -8.31"
     fill-rule="evenodd"
     class="Beam" />
  <path
     id="path18676"
     d="m 1655.34,118.19328 22.9,-11.43 v 8.31 l -22.9,11.43 v -8.31"
     fill-rule="evenodd"
     class="Beam" />
  <path
     id="path18678"
     d="m 1655.34,129.34328 22.9,-11.43 v 8.31 l -22.9,11.43 v -8.31"
     fill-rule="evenodd"
     class="Beam" />
  <path
     id="path18680"
     d="m 1655.34,140.49328 22.9,-11.43 v 8.31 l -22.9,11.43 v -8.31"
     fill-rule="evenodd"
     class="Beam" />
  <path
     id="path18682"
     d="m 1812.37,242.58328 299.25,21.41 v 10.65 l -299.25,-21.41 v -10.65"
     fill-rule="evenodd"
     class="Beam" />
  <path
     id="path18684"
     d="m 1812.37,226.65328 299.25,21.41 v 10.65 l -299.25,-21.41 v -10.65"
     fill-rule="evenodd"
     class="Beam" />
  <path
     id="path18686"
     d="m 1919.06,218.36328 -27.61,-1.98 v 10.65 l 27.61,1.97 v -10.64"
     fill-rule="evenodd"
     class="Beam" />
  <path
     id="path18688"
     d="m 2055.79,228.14328 55.83,3.99 v 10.65 l -55.83,-3.99 v -10.65"
     fill-rule="evenodd"
     class="Beam" />
  <path
     style="stroke-width:0.8496"
     id="path18824"
     d="m 924.90752,285.74089 c 0,0.57854 0.27446,1.05179 1.2549,1.05179 0.98044,0 1.15717,-0.4316 1.25482,-1.05179 0,0 1.32368,-9.02534 4.57175,-13.7372 3.24797,-4.71188 8.51634,-7.39152 12.62585,-12.62676 2.97793,-3.79176 4.04325,-8.34562 4.12396,-12.78053 0.0765,-4.22506 -0.7451,-8.31682 -1.65579,-11.56476 0.28377,-1.79775 0.45276,-3.86483 0.45276,-6.28704 0,-4.81043 -2.19877,-9.40507 -3.76033,-11.84002 -0.40271,-0.62701 -0.83261,-1.52928 -1.72724,-1.0671 -0.89454,0.4621 -0.49617,1.4936 -0.20815,2.29392 1.23871,3.42126 1.81899,7.73136 1.88704,9.84772 0.10867,3.38735 -0.14783,6.69399 -3.55481,11.78055 -5.08222,7.58693 -11.80945,11.80944 -14.00986,12.62251 -0.57605,0.19872 -1.2549,0.60321 -1.2549,0.81306 v 32.54565 m 19.9656,-43.72808 c 0.29991,4.09082 0.35428,8.17655 -4.44502,13.99877 -3.22848,3.91419 -8.41961,7.77308 -12.22921,8.078 l -0.085,0.34927 c 0.0535,-0.28215 0.10703,-0.53703 0.15971,-0.74 0.55739,-2.16487 2.11803,-5.12139 5.44423,-8.46202 4.17409,-4.19201 6.70165,-6.88176 8.99897,-9.87065 0.6784,-0.87254 1.64593,-2.37489 2.15968,-3.35337 h -0.003"
     class="Hook" />
  <path
     style="stroke-width:0.59472"
     id="path18830"
     d="m 1340.43,196.73538 c 0,0.4163 0.1784,0.77313 0.8921,0.77313 0.7136,0 0.8326,-0.35683 0.8921,-0.77313 0,0 0.892,-6.30404 3.152,-9.575 2.2599,-3.27096 6.0066,-4.63881 8.8613,-8.32608 2.0815,-2.67624 2.7952,-5.82825 2.8547,-8.9208 v -0.53524 c 0,-1.90311 -0.2974,-3.74674 -0.5948,-5.41196 0.2974,-1.01102 0.5948,-2.73571 0.5948,-3.8062 v -0.53525 c 0,-1.90311 -0.2974,-3.74674 -0.5948,-5.35248 0.3569,-1.24891 0.5948,-2.49783 0.5948,-3.80621 v -0.47578 c 0,-2.61676 -0.4758,-5.11459 -1.0111,-7.19611 0.1785,-1.24891 0.3569,-2.67624 0.3569,-4.40093 0,-3.3899 -1.5463,-6.54192 -2.6168,-8.2666 -0.2974,-0.41631 -0.5352,-1.0705 -1.1894,-0.77314 -0.6542,0.29736 -0.3569,1.0705 -0.1785,1.60574 0.8327,2.37888 1.249,5.41196 1.3084,6.89876 v 0.59472 c 0,2.20046 -0.3568,4.34145 -2.5573,7.61241 -3.5683,5.29301 -8.2666,8.26661 -9.8128,8.80186 -0.4164,0.11894 -0.8921,0.4163 -0.8921,0.59472 l -0.059,41.27357 m 14.0354,-38.35944 v 0.4163 c 0,2.31941 -0.5353,4.75776 -3.152,7.96925 -2.26,2.73571 -5.8878,5.41195 -8.564,5.64984 l -0.059,0.23789 c 0.119,-0.89208 0.5353,-3.50885 2.5573,-5.35248 3.3305,-3.03308 5.8878,-4.51988 8.7424,-8.20714 0.1784,-0.23789 0.2974,-0.47578 0.4758,-0.71366 m -11.716,23.7888 -0.059,0.29736 c 0.059,-0.71367 0.4163,-3.50885 2.5573,-5.47143 3.3305,-3.03307 5.8878,-4.51987 8.7424,-8.20713 0.1784,-0.23789 0.2974,-0.47578 0.4758,-0.71367 v 0.47578 c 0,2.31941 -0.4758,4.75776 -3.152,7.96925 -2.26,2.73571 -5.8878,5.41195 -8.564,5.64984 m 11.716,-34.37482 c 0,0.4163 0.059,0.89208 0.059,1.30838 0,2.31941 -0.5353,4.75776 -3.2115,7.96925 -2.2005,2.67624 -5.7688,5.35248 -8.445,5.64984 0.4163,-1.4868 1.4868,-3.56832 3.8062,-5.82825 2.9141,-2.91413 4.6982,-4.81724 6.304,-6.89876 0.4758,-0.59472 1.13,-1.54627 1.4868,-2.20046"
     class="Hook" />
  <path
     style="stroke-width:0.59472"
     id="path18832"
     d="m 1370.18,207.35538 c 0,0.4163 0.1784,0.77313 0.8921,0.77313 0.7136,0 0.8326,-0.35683 0.8921,-0.77313 0,0 0.892,-6.30404 3.152,-9.575 2.2599,-3.27096 6.0066,-4.63881 8.8613,-8.32608 2.0815,-2.67624 2.7952,-5.82825 2.8547,-8.9208 v -0.53524 c 0,-1.90311 -0.2974,-3.74674 -0.5948,-5.41196 0.2974,-1.01102 0.5948,-2.73571 0.5948,-3.8062 v -0.53525 c 0,-1.90311 -0.2974,-3.74674 -0.5948,-5.35248 0.3569,-1.24891 0.5948,-2.49783 0.5948,-3.80621 v -0.47578 c 0,-2.61676 -0.4758,-5.11459 -1.0111,-7.19611 0.1785,-1.24891 0.3569,-2.67624 0.3569,-4.40093 0,-3.3899 -1.5463,-6.54192 -2.6168,-8.2666 -0.2974,-0.41631 -0.5352,-1.0705 -1.1894,-0.77314 -0.6542,0.29736 -0.3569,1.0705 -0.1785,1.60574 0.8327,2.37888 1.249,5.41196 1.3084,6.89876 v 0.59472 c 0,2.20046 -0.3568,4.34145 -2.5573,7.61241 -3.5683,5.29301 -8.2666,8.26661 -9.8128,8.80186 -0.4164,0.11894 -0.8921,0.4163 -0.8921,0.59472 l -0.059,41.27357 m 14.0354,-38.35944 v 0.4163 c 0,2.31941 -0.5353,4.75776 -3.152,7.96925 -2.26,2.73571 -5.8878,5.41195 -8.564,5.64984 l -0.059,0.23789 c 0.119,-0.89208 0.5353,-3.50885 2.5573,-5.35248 3.3305,-3.03308 5.8878,-4.51988 8.7424,-8.20714 0.1784,-0.23789 0.2974,-0.47578 0.4758,-0.71366 m -11.716,23.7888 -0.059,0.29736 c 0.059,-0.71367 0.4163,-3.50885 2.5573,-5.47143 3.3305,-3.03307 5.8878,-4.51987 8.7424,-8.20713 0.1784,-0.23789 0.2974,-0.47578 0.4758,-0.71367 v 0.47578 c 0,2.31941 -0.4758,4.75776 -3.152,7.96925 -2.26,2.73571 -5.8878,5.41195 -8.564,5.64984 m 11.716,-34.37482 c 0,0.4163 0.059,0.89208 0.059,1.30838 0,2.31941 -0.5353,4.75776 -3.2115,7.96925 -2.2005,2.67624 -5.7688,5.35248 -8.445,5.64984 0.4163,-1.4868 1.4868,-3.56832 3.8062,-5.82825 2.9141,-2.91413 4.6982,-4.81724 6.304,-6.89876 0.4758,-0.59472 1.13,-1.54627 1.4868,-2.20046"
     class="Hook" />
  <path
     style="stroke-width:0.8496"
     id="path18834"
     d="m 2191.0136,192.47688 c -0.085,-0.25488 -0.8496,-3.22848 -0.8496,-3.3984 -0.085,-0.33984 -0.5947,-0.59472 -1.0195,-0.59472 -0.5947,0 -1.1045,0.50976 -1.1045,1.10448 v 13.93344 5.26752 c 0,0.4248 0.3398,0.76464 0.6797,0.93456 3.5683,1.10448 10.9598,5.77728 16.4822,15.20784 1.5293,2.63376 3.9931,6.20208 3.9931,13.33872 0,6.11712 -0.9345,12.57408 -2.4638,18.52128 -0.2549,0.93456 -0.5098,1.78416 0.4248,2.124 0.9346,0.33984 1.2744,-0.33984 1.6142,-1.18944 3.0586,-7.47648 3.8232,-15.2928 3.8232,-20.56032 v -1.61424 c -0.4248,-10.95984 -6.7118,-19.03104 -6.7118,-19.03104 0.2549,0 -7.8163,-10.45008 -10.1102,-14.0184 -3.1436,-4.84272 -4.6728,-9.68544 -4.7578,-10.02528"
     class="Hook" />
  <path
     id="path18892"
     d="m 258.469,71.32328 -11.56,16.08 v 1.9 h 9.554 v 1.77 c 0,1.73 0,1.8 -0.204,2.11 -0.272,0.37 -0.918,0.47 -2.856,0.47 h -0.374 v 1.6 h 9.928 v -1.6 h -0.136 c -1.938,0 -2.584,-0.1 -2.856,-0.47 -0.204,-0.31 -0.204,-0.34 -0.204,-2.11 v -1.77 h 4.114 v -1.9 h -4.114 v -9.28 c 0,-4.25 0,-4.36 0.17,-6.8 h -1.462 m -2.006,16.08 h -7.48 l 7.48,-10.3 v 10.3"
     class="Fingering" />
  <path
     id="path18894"
     d="m 418.299,110.61328 c 3.094,-1.12 4.522,-2.86 4.522,-5.58 0,-3.57 -2.72,-5.84 -6.936,-5.84 -3.978,0 -7.004,2.34 -7.004,5.44 0,1.39 0.918,2.38 2.244,2.38 1.19,0 2.006,-0.82 2.006,-2.04 0,-0.75 -0.272,-1.19 -1.054,-1.74 -0.34,-0.24 -0.442,-0.37 -0.442,-0.61 0,-0.95 1.972,-1.97 3.91,-1.97 2.448,0 3.74,1.53 3.74,4.42 0,3.16 -1.292,4.83 -3.706,4.83 -0.306,0 -0.884,-0.04 -1.394,-0.07 -0.272,-0.04 -0.544,-0.04 -0.748,-0.04 -0.714,0 -1.088,0.31 -1.088,0.92 0,0.58 0.34,0.85 1.088,0.85 0.204,0 0.476,0 0.782,-0.03 0.68,-0.04 1.224,-0.04 1.598,-0.04 2.516,0 3.876,1.81 3.876,5.17 0,3.54 -1.7,5.51 -4.76,5.51 -2.142,0 -4.454,-1.16 -4.454,-2.21 0,-0.31 0.068,-0.37 0.714,-0.75 0.952,-0.58 1.326,-1.15 1.326,-2 0,-1.23 -0.918,-2.15 -2.142,-2.15 -1.462,0 -2.414,1.19 -2.414,3 0,3.29 3.026,5.57 7.378,5.57 4.93,0 8.126,-2.72 8.126,-6.9 0,-3.2 -1.632,-5.13 -5.168,-6.12"
     class="Fingering" />
  <path
     style="stroke-width:0.8496"
     id="path18954"
     d="m 710.19,178.88187 c 0,2.34611 1.90189,4.248 4.248,4.248 2.34611,0 4.248,-1.90189 4.248,-4.248 0,-2.34611 -1.90189,-4.248 -4.248,-4.248 -2.34611,0 -4.248,1.90189 -4.248,4.248"
     class="NoteDot" />
  <path
     style="stroke-width:0.8496"
     id="path18956"
     d="m 963.18,178.88187 c 0,2.34611 1.90189,4.248 4.248,4.248 2.34611,0 4.248,-1.90189 4.248,-4.248 0,-2.34611 -1.90189,-4.248 -4.248,-4.248 -2.34611,0 -4.248,1.90189 -4.248,4.248"
     class="NoteDot" />
  <path
     style="stroke-width:0.8496"
     id="path18958"
     d="m 1850.59,115.16187 c 0,2.34611 1.9019,4.248 4.248,4.248 2.3461,0 4.248,-1.90189 4.248,-4.248 0,-2.34611 -1.9019,-4.248 -4.248,-4.248 -2.3461,0 -4.248,1.90189 -4.248,4.248"
     class="NoteDot" />
  <path
     style="stroke-width:0.8496"
     id="path18960"
     d="m 2201,263.84187 c 0,2.34611 1.9019,4.248 4.248,4.248 2.3461,0 4.248,-1.90189 4.248,-4.248 0,-2.34611 -1.9019,-4.248 -4.248,-4.248 -2.3461,0 -4.248,1.90189 -4.248,4.248"
     class="NoteDot" />
</svg>
