<?xml version="1.0" encoding="UTF-8" standalone="no"?>
<svg
   xmlns:dc="http://purl.org/dc/elements/1.1/"
   xmlns:cc="http://creativecommons.org/ns#"
   xmlns:rdf="http://www.w3.org/1999/02/22-rdf-syntax-ns#"
   xmlns:svg="http://www.w3.org/2000/svg"
   xmlns="http://www.w3.org/2000/svg"
   xmlns:sodipodi="http://sodipodi.sourceforge.net/DTD/sodipodi-0.dtd"
   xmlns:inkscape="http://www.inkscape.org/namespaces/inkscape"
   inkscape:version="1.0 (4035a4f, 2020-05-01)"
   sodipodi:docname="snippet28.svg"
   id="svg27892"
   version="1.2"
   viewBox="0 0 2340 279.45889"
   height="279.45889"
   width="2340">
  <metadata
     id="metadata27898">
    <rdf:RDF>
      <cc:Work
         rdf:about="">
        <dc:format>image/svg+xml</dc:format>
        <dc:type
           rdf:resource="http://purl.org/dc/dcmitype/StillImage" />
        <dc:title>Batches2Partita5</dc:title>
      </cc:Work>
    </rdf:RDF>
  </metadata>
  <defs
     id="defs27896" />
  <sodipodi:namedview
     inkscape:current-layer="svg27892"
     inkscape:window-maximized="0"
     inkscape:window-y="23"
     inkscape:window-x="0"
     inkscape:cy="174.23112"
     inkscape:cx="1004.7156"
     inkscape:zoom="0.15689774"
     showgrid="false"
     id="namedview27894"
     inkscape:window-height="855"
     inkscape:window-width="1073"
     inkscape:pageshadow="2"
     inkscape:pageopacity="0"
     guidetolerance="10"
     gridtolerance="10"
     objecttolerance="10"
     borderopacity="1"
     bordercolor="#666666"
     pagecolor="#ffffff" />
  <title
     id="title25242">Batches2Partita5</title>
  <desc
     id="desc25244">Generated by MuseScore 3.6.2</desc>
  <polyline
     transform="translate(-360,-2652.9211)"
     id="polyline25286"
     points="360,2783.04 2700,2783.04"
     stroke-linejoin="bevel"
     stroke-width="2.34"
     stroke="#000000"
     fill="none"
     class="StaffLines" />
  <polyline
     transform="translate(-360,-2652.9211)"
     id="polyline25288"
     points="360,2804.28 2700,2804.28"
     stroke-linejoin="bevel"
     stroke-width="2.34"
     stroke="#000000"
     fill="none"
     class="StaffLines" />
  <polyline
     transform="translate(-360,-2652.9211)"
     id="polyline25290"
     points="360,2825.52 2700,2825.52"
     stroke-linejoin="bevel"
     stroke-width="2.34"
     stroke="#000000"
     fill="none"
     class="StaffLines" />
  <polyline
     transform="translate(-360,-2652.9211)"
     id="polyline25292"
     points="360,2846.76 2700,2846.76"
     stroke-linejoin="bevel"
     stroke-width="2.34"
     stroke="#000000"
     fill="none"
     class="StaffLines" />
  <polyline
     transform="translate(-360,-2652.9211)"
     id="polyline25294"
     points="360,2868 2700,2868"
     stroke-linejoin="bevel"
     stroke-width="2.34"
     stroke="#000000"
     fill="none"
     class="StaffLines" />
  <path
     id="path25360"
     d="m 187.494,66.758888 c 74.271,-56.8099997 231.609,-9.5 262.231,78.850002 C 417.39,62.948888 260.052,15.638888 187.494,66.758888"
     fill-rule="evenodd"
     stroke-linejoin="round"
     stroke-linecap="round"
     stroke-width="1.49"
     stroke="#000000"
     class="SlurSegment" />
  <path
     id="path25362"
     d="m 476.702,77.788888 c 26.018,-29.74 77.558,-29.31 103.08,0.85 -25.571,-24.22 -77.111,-24.64 -103.08,-0.85"
     fill-rule="evenodd"
     stroke-linejoin="round"
     stroke-linecap="round"
     stroke-width="1.49"
     stroke="#000000"
     class="SlurSegment" />
  <path
     id="path25364"
     d="m 604.003,85.348888 c 49.377,-83.6499997 190.057,-79.5499997 234.477,6.83 -44.59,-80.43 -185.28,-84.5299997 -234.477,-6.83"
     fill-rule="evenodd"
     stroke-linejoin="round"
     stroke-linecap="round"
     stroke-width="1.49"
     stroke="#000000"
     class="SlurSegment" />
  <path
     id="path25366"
     d="m 905.34,38.908888 c 36.45,-23.62 92.75,-8.61 112.61,30.02 -21.39,-32.88 -77.69,-47.89 -112.61,-30.02"
     fill-rule="evenodd"
     stroke-linejoin="round"
     stroke-linecap="round"
     stroke-width="1.49"
     stroke="#000000"
     class="SlurSegment" />
  <path
     id="path25368"
     d="m 1120.46,89.428888 c 62.26,-93.3899997 243.06,-89.59999971 301.35,6.32 -58.41,-89.9699997 -239.22,-93.7599997 -301.35,-6.32"
     fill-rule="evenodd"
     stroke-linejoin="round"
     stroke-linecap="round"
     stroke-width="1.49"
     stroke="#000000"
     class="SlurSegment" />
  <path
     id="path25370"
     d="m 1456.33,68.528888 c 44.82,-28.26 118.87,-12.33 148.11,31.860002 C 1573.95,62.008888 1499.9,46.078888 1456.33,68.528888"
     fill-rule="evenodd"
     stroke-linejoin="round"
     stroke-linecap="round"
     stroke-width="1.49"
     stroke="#000000"
     class="SlurSegment" />
  <path
     id="path25372"
     d="m 1636.72,54.008888 c 66.27,-74.51 259.56,-69.86 322.16,7.76 -62.75,-71.6699997 -256.04,-76.32 -322.16,-7.76"
     fill-rule="evenodd"
     stroke-linejoin="round"
     stroke-linecap="round"
     stroke-width="1.49"
     stroke="#000000"
     class="SlurSegment" />
  <path
     id="path25374"
     d="m 2021.18,36.668888 c 47.9,-29.9199997 128.77,-13.99 161.75,31.86 -34.13,-40.02 -115,-55.95 -161.75,-31.86"
     fill-rule="evenodd"
     stroke-linejoin="round"
     stroke-linecap="round"
     stroke-width="1.49"
     stroke="#000000"
     class="SlurSegment" />
  <path
     id="path25376"
     d="m 2279.14,57.908888 c 5.41,-23.76 32.11,-35.68 53.41,-23.84 -18.87,-6.41 -45.58,5.51 -53.41,23.84"
     fill-rule="evenodd"
     stroke-linejoin="round"
     stroke-linecap="round"
     stroke-width="1.49"
     stroke="#000000"
     class="SlurSegment" />
  <polyline
     transform="translate(-360,-2652.9211)"
     id="polyline25440"
     points="1426.44,2781.87 1426.44,2869.17"
     stroke-linejoin="bevel"
     stroke-width="3.82"
     stroke="#000000"
     class="BarLine" />
  <polyline
     transform="translate(-360,-2652.9211)"
     id="polyline25442"
     points="2590.5,2781.87 2590.5,2869.17"
     stroke-linejoin="bevel"
     stroke-width="3.82"
     stroke="#000000"
     class="BarLine" />
  <path
     style="stroke-width:0.8496"
     id="path25510"
     d="m 243.48736,157.05121 c -0.16992,-0.16992 -0.4248,-0.25488 -0.67968,-0.25488 -0.085,0 -0.25488,0.085 -0.33984,0.085 l -10.70496,2.9736 v -14.868 H 229.384 v 42.0552 c 0,0.67968 0.50976,1.10448 1.18944,1.10448 h 0.33984 l 10.70496,-2.9736 v 14.868 h 2.29392 v -42.0552 c 0,-0.33984 -0.16992,-0.76464 -0.4248,-0.93456 m -1.86912,21.07008 -9.85536,2.71872 v -13.93344 l 9.85536,-2.80368 v 14.0184"
     class="Accidental" />
  <path
     style="stroke-width:0.8496"
     id="path25512"
     d="m 304.05168,152.97313 c 0.50976,-0.085 0.93456,-0.67968 0.93456,-1.18944 v -5.01264 c 0,-0.67968 -0.50976,-1.18944 -1.18944,-1.18944 h -0.16992 l -2.80368,0.59472 v -12.65904 h -2.37888 v 13.1688 l -7.56144,1.52928 V 136.23601 H 288.504 v 12.48912 l -3.31344,0.67968 c -0.50976,0.085 -0.93456,0.67968 -0.93456,1.18944 v 0.16992 4.92768 -0.16992 c 0,0.67968 0.50976,1.18944 1.18944,1.18944 h 0.25488 l 2.80368,-0.59472 v 14.0184 l -3.31344,0.67968 c -0.50976,0.085 -0.93456,0.67968 -0.93456,1.18944 v 4.92768 c 0,0.67968 0.50976,1.18944 1.18944,1.18944 h 0.25488 l 2.80368,-0.59472 v 12.65904 h 2.37888 v -13.1688 l 7.56144,-1.52928 v 11.97936 h 2.37888 v -12.48912 l 3.22848,-0.59472 c 0.50976,-0.085 0.93456,-0.67968 0.93456,-1.18944 v -5.01264 c 0,-0.67968 -0.50976,-1.18944 -1.18944,-1.18944 h -0.16992 l -2.80368,0.59472 v -14.0184 l 3.22848,-0.59472 m -13.1688,16.73712 v -14.10336 l 7.56144,-1.52928 v 14.0184 l -7.56144,1.61424"
     class="Accidental" />
  <path
     style="stroke-width:0.8496"
     id="path25514"
     d="m 877.70696,91.547048 c -0.50976,-3.31344 -2.5488,-6.45696 -6.88176,-6.45696 -4.248,0 -6.71184,2.63376 -7.13664,3.14352 l 0.33984,-27.27216 c 0,-0.67968 -0.50976,-1.18944 -1.18944,-1.18944 h -1.01952 c -0.67968,0 -1.18944,0.50976 -1.18944,1.18944 l 0.4248,51.060962 c 0,0.67968 0.50976,1.18944 1.18944,1.18944 0.16992,0 0.50976,-0.085 0.67968,-0.16992 0.33984,-0.16992 5.86224,-2.88864 10.45008,-8.0712 3.22848,-3.65328 4.50288,-7.816322 4.50288,-11.299682 0,-0.76464 -0.085,-1.44432 -0.16992,-2.124 m -5.86224,3.31344 c 0,1.2744 -0.33984,5.182562 -2.46384,8.411042 -1.44432,2.20896 -4.33296,4.50288 -5.9472,5.77728 l 0.25488,-16.567202 c 0.16992,-0.76464 1.44432,-3.22848 4.84272,-3.22848 3.05856,0 3.31344,2.88864 3.31344,4.6728 v 0.93456"
     class="Accidental" />
  <path
     style="stroke-width:0.8496"
     id="path25516"
     d="m 1100.9334,146.43121 c -0.17,-0.16992 -0.4248,-0.25488 -0.6797,-0.25488 -0.085,0 -0.2549,0.085 -0.3399,0.085 l -10.7049,2.9736 v -14.868 h -2.3789 v 42.0552 c 0,0.67968 0.5098,1.10448 1.1894,1.10448 h 0.3399 l 10.7049,-2.9736 v 14.868 h 2.294 v -42.0552 c 0,-0.33984 -0.17,-0.76464 -0.4248,-0.93456 m -1.8692,21.07008 -9.8553,2.71872 v -13.93344 l 9.8553,-2.80368 v 14.0184"
     class="Accidental" />
  <path
     style="stroke-width:0.8496"
     id="path25518"
     d="m 1196.0257,121.11313 c 0.5097,-0.085 0.9345,-0.67968 0.9345,-1.18944 v -5.01264 c 0,-0.67968 -0.5097,-1.18944 -1.1894,-1.18944 h -0.1699 l -2.8037,0.59472 v -12.65904 h -2.3789 v 13.1688 l -7.5614,1.52928 v -11.97936 h -2.3789 v 12.48912 l -3.3134,0.67968 c -0.5098,0.085 -0.9346,0.67968 -0.9346,1.18944 v 0.16992 4.92768 -0.16992 c 0,0.67968 0.5098,1.18944 1.1894,1.18944 h 0.2549 l 2.8037,-0.59472 v 14.0184 l -3.3134,0.67968 c -0.5098,0.085 -0.9346,0.67968 -0.9346,1.18944 v 4.92768 c 0,0.67968 0.5098,1.18944 1.1894,1.18944 h 0.2549 l 2.8037,-0.59472 v 12.65904 h 2.3789 v -13.1688 l 7.5614,-1.52928 v 11.97936 h 2.3789 v -12.48912 l 3.2285,-0.59472 c 0.5097,-0.085 0.9345,-0.67968 0.9345,-1.18944 v -5.01264 c 0,-0.67968 -0.5097,-1.18944 -1.1894,-1.18944 h -0.1699 l -2.8037,0.59472 v -14.0184 l 3.2285,-0.59472 m -13.1688,16.73712 v -14.10336 l 7.5614,-1.52928 v 14.0184 l -7.5614,1.61424"
     class="Accidental" />
  <path
     style="stroke-width:0.8496"
     id="path25520"
     d="m 1257.1057,110.49313 c 0.5097,-0.085 0.9345,-0.67968 0.9345,-1.18944 v -5.01264 c 0,-0.67968 -0.5097,-1.18944 -1.1894,-1.18944 h -0.1699 l -2.8037,0.59472 V 91.037288 h -2.3789 v 13.168802 l -7.5614,1.52928 V 93.756008 h -2.3789 v 12.489122 l -3.3134,0.67968 c -0.5098,0.085 -0.9346,0.67968 -0.9346,1.18944 v 0.16992 4.92768 -0.16992 c 0,0.67968 0.5098,1.18944 1.1894,1.18944 h 0.2549 l 2.8037,-0.59472 v 14.0184 l -3.3134,0.67968 c -0.5098,0.085 -0.9346,0.67968 -0.9346,1.18944 v 4.92768 c 0,0.67968 0.5098,1.18944 1.1894,1.18944 h 0.2549 l 2.8037,-0.59472 v 12.65904 h 2.3789 v -13.1688 l 7.5614,-1.52928 v 11.97936 h 2.3789 v -12.48912 l 3.2285,-0.59472 c 0.5097,-0.085 0.9345,-0.67968 0.9345,-1.18944 v -5.01264 c 0,-0.67968 -0.5097,-1.18944 -1.1894,-1.18944 h -0.1699 l -2.8037,0.59472 v -14.0184 l 3.2285,-0.59472 m -13.1688,16.73712 v -14.10336 l 7.5614,-1.52928 v 14.0184 l -7.5614,1.61424"
     class="Accidental" />
  <path
     style="stroke-width:0.8496"
     id="path25522"
     d="m 1494.4334,82.711208 c -0.17,-0.16992 -0.4248,-0.25488 -0.6797,-0.25488 -0.085,0 -0.2549,0.08496 -0.3399,0.08496 l -10.7049,2.9736 v -14.868 h -2.3789 v 42.055202 c 0,0.67968 0.5098,1.10448 1.1894,1.10448 h 0.3399 l 10.7049,-2.9736 v 14.868 h 2.294 V 83.645768 c 0,-0.33984 -0.17,-0.76464 -0.4248,-0.93456 m -1.8692,21.070082 -9.8553,2.71872 V 92.566568 l 9.8553,-2.80368 v 14.018402"
     class="Accidental" />
  <path
     style="stroke-width:0.8496"
     id="path25524"
     d="m 1994.2134,40.231208 c -0.17,-0.16992 -0.4248,-0.25488 -0.6797,-0.25488 -0.085,0 -0.2549,0.08496 -0.3399,0.08496 l -10.7049,2.9736 v -14.868 h -2.3789 v 42.0552 c 0,0.67968 0.5098,1.10448 1.1894,1.10448 h 0.3399 l 10.7049,-2.9736 v 14.868 h 2.294 v -42.0552 c 0,-0.33984 -0.17,-0.76464 -0.4248,-0.93456 m -1.8692,21.07008 -9.8553,2.71872 v -13.93344 l 9.8553,-2.80368 v 14.0184"
     class="Accidental" />
  <path
     style="stroke-width:0.8496"
     id="path25526"
     d="m 2155.4457,78.633128 c 0.5097,-0.08496 0.9345,-0.67968 0.9345,-1.18944 v -5.01264 c 0,-0.67968 -0.5097,-1.18944 -1.1894,-1.18944 h -0.1699 l -2.8037,0.59472 v -12.65904 h -2.3789 v 13.1688 l -7.5614,1.52928 v -11.97936 h -2.3789 v 12.48912 l -3.3134,0.67968 c -0.5098,0.08496 -0.9346,0.67968 -0.9346,1.18944 v 0.16992 4.92768 -0.16992 c 0,0.67968 0.5098,1.18944 1.1894,1.18944 h 0.2549 l 2.8037,-0.59472 v 14.0184 l -3.3134,0.67968 c -0.5098,0.08496 -0.9346,0.67968 -0.9346,1.18944 v 4.927682 c 0,0.67968 0.5098,1.18944 1.1894,1.18944 h 0.2549 l 2.8037,-0.59472 v 12.65904 h 2.3789 v -13.1688 l 7.5614,-1.52928 v 11.97936 h 2.3789 v -12.48912 l 3.2285,-0.59472 c 0.5097,-0.08496 0.9345,-0.679682 0.9345,-1.189442 v -5.01264 c 0,-0.67968 -0.5097,-1.18944 -1.1894,-1.18944 h -0.1699 l -2.8037,0.59472 v -14.0184 l 3.2285,-0.59472 m -13.1688,16.73712 v -14.10336 l 7.5614,-1.52928 v 14.0184 l -7.5614,1.61424"
     class="Accidental" />
  <polyline
     transform="translate(-360,-2652.9211)"
     id="polyline25628"
     points="1077.54,2761.8 1120.02,2761.8"
     stroke-linejoin="bevel"
     stroke-width="3.4"
     stroke="#000000"
     class="LedgerLine" />
  <polyline
     transform="translate(-360,-2652.9211)"
     id="polyline25630"
     points="1243.19,2761.8 1285.66,2761.8"
     stroke-linejoin="bevel"
     stroke-width="3.4"
     stroke="#000000"
     class="LedgerLine" />
  <polyline
     transform="translate(-360,-2652.9211)"
     id="polyline25632"
     points="1288.42,2761.8 1330.89,2761.8"
     stroke-linejoin="bevel"
     stroke-width="3.4"
     stroke="#000000"
     class="LedgerLine" />
  <polyline
     transform="translate(-360,-2652.9211)"
     id="polyline25634"
     points="1653.71,2761.8 1696.19,2761.8"
     stroke-linejoin="bevel"
     stroke-width="3.4"
     stroke="#000000"
     class="LedgerLine" />
  <polyline
     transform="translate(-360,-2652.9211)"
     id="polyline25636"
     points="1795.1,2761.8 1837.57,2761.8"
     stroke-linejoin="bevel"
     stroke-width="3.4"
     stroke="#000000"
     class="LedgerLine" />
  <polyline
     transform="translate(-360,-2652.9211)"
     id="polyline25638"
     points="1795.1,2740.56 1837.57,2740.56"
     stroke-linejoin="bevel"
     stroke-width="3.4"
     stroke="#000000"
     class="LedgerLine" />
  <polyline
     transform="translate(-360,-2652.9211)"
     id="polyline25640"
     points="1860.16,2761.8 1902.64,2761.8"
     stroke-linejoin="bevel"
     stroke-width="3.4"
     stroke="#000000"
     class="LedgerLine" />
  <polyline
     transform="translate(-360,-2652.9211)"
     id="polyline25642"
     points="1905.4,2761.8 1947.87,2761.8"
     stroke-linejoin="bevel"
     stroke-width="3.4"
     stroke="#000000"
     class="LedgerLine" />
  <polyline
     transform="translate(-360,-2652.9211)"
     id="polyline25644"
     points="1981,2761.8 2023.47,2761.8"
     stroke-linejoin="bevel"
     stroke-width="3.4"
     stroke="#000000"
     class="LedgerLine" />
  <polyline
     transform="translate(-360,-2652.9211)"
     id="polyline25646"
     points="2026.23,2761.8 2068.71,2761.8"
     stroke-linejoin="bevel"
     stroke-width="3.4"
     stroke="#000000"
     class="LedgerLine" />
  <polyline
     transform="translate(-360,-2652.9211)"
     id="polyline25648"
     points="2071.47,2761.8 2113.94,2761.8"
     stroke-linejoin="bevel"
     stroke-width="3.4"
     stroke="#000000"
     class="LedgerLine" />
  <polyline
     transform="translate(-360,-2652.9211)"
     id="polyline25650"
     points="2071.47,2740.56 2113.94,2740.56"
     stroke-linejoin="bevel"
     stroke-width="3.4"
     stroke="#000000"
     class="LedgerLine" />
  <polyline
     transform="translate(-360,-2652.9211)"
     id="polyline25652"
     points="2116.7,2761.8 2159.18,2761.8"
     stroke-linejoin="bevel"
     stroke-width="3.4"
     stroke="#000000"
     class="LedgerLine" />
  <polyline
     transform="translate(-360,-2652.9211)"
     id="polyline25654"
     points="2116.7,2740.56 2159.18,2740.56"
     stroke-linejoin="bevel"
     stroke-width="3.4"
     stroke="#000000"
     class="LedgerLine" />
  <polyline
     transform="translate(-360,-2652.9211)"
     id="polyline25656"
     points="2161.94,2761.8 2204.41,2761.8"
     stroke-linejoin="bevel"
     stroke-width="3.4"
     stroke="#000000"
     class="LedgerLine" />
  <polyline
     transform="translate(-360,-2652.9211)"
     id="polyline25658"
     points="2161.94,2740.56 2204.41,2740.56"
     stroke-linejoin="bevel"
     stroke-width="3.4"
     stroke="#000000"
     class="LedgerLine" />
  <polyline
     transform="translate(-360,-2652.9211)"
     id="polyline25660"
     points="2161.94,2719.32 2204.41,2719.32"
     stroke-linejoin="bevel"
     stroke-width="3.4"
     stroke="#000000"
     class="LedgerLine" />
  <polyline
     transform="translate(-360,-2652.9211)"
     id="polyline25662"
     points="2207.17,2761.8 2249.65,2761.8"
     stroke-linejoin="bevel"
     stroke-width="3.4"
     stroke="#000000"
     class="LedgerLine" />
  <polyline
     transform="translate(-360,-2652.9211)"
     id="polyline25664"
     points="2207.17,2740.56 2249.65,2740.56"
     stroke-linejoin="bevel"
     stroke-width="3.4"
     stroke="#000000"
     class="LedgerLine" />
  <polyline
     transform="translate(-360,-2652.9211)"
     id="polyline25666"
     points="2252.41,2761.8 2294.88,2761.8"
     stroke-linejoin="bevel"
     stroke-width="3.4"
     stroke="#000000"
     class="LedgerLine" />
  <polyline
     transform="translate(-360,-2652.9211)"
     id="polyline25668"
     points="2252.41,2740.56 2294.88,2740.56"
     stroke-linejoin="bevel"
     stroke-width="3.4"
     stroke="#000000"
     class="LedgerLine" />
  <polyline
     transform="translate(-360,-2652.9211)"
     id="polyline25670"
     points="2297.64,2761.8 2340.11,2761.8"
     stroke-linejoin="bevel"
     stroke-width="3.4"
     stroke="#000000"
     class="LedgerLine" />
  <polyline
     transform="translate(-360,-2652.9211)"
     id="polyline25672"
     points="2359.95,2761.8 2402.42,2761.8"
     stroke-linejoin="bevel"
     stroke-width="3.4"
     stroke="#000000"
     class="LedgerLine" />
  <polyline
     transform="translate(-360,-2652.9211)"
     id="polyline25674"
     points="2359.95,2740.56 2402.42,2740.56"
     stroke-linejoin="bevel"
     stroke-width="3.4"
     stroke="#000000"
     class="LedgerLine" />
  <polyline
     transform="translate(-360,-2652.9211)"
     id="polyline25676"
     points="2359.95,2719.32 2402.42,2719.32"
     stroke-linejoin="bevel"
     stroke-width="3.4"
     stroke="#000000"
     class="LedgerLine" />
  <polyline
     transform="translate(-360,-2652.9211)"
     id="polyline25678"
     points="2405.18,2761.8 2447.66,2761.8"
     stroke-linejoin="bevel"
     stroke-width="3.4"
     stroke="#000000"
     class="LedgerLine" />
  <polyline
     transform="translate(-360,-2652.9211)"
     id="polyline25680"
     points="2405.18,2740.56 2447.66,2740.56"
     stroke-linejoin="bevel"
     stroke-width="3.4"
     stroke="#000000"
     class="LedgerLine" />
  <polyline
     transform="translate(-360,-2652.9211)"
     id="polyline25682"
     points="2405.18,2719.32 2447.66,2719.32"
     stroke-linejoin="bevel"
     stroke-width="3.4"
     stroke="#000000"
     class="LedgerLine" />
  <polyline
     transform="translate(-360,-2652.9211)"
     id="polyline25684"
     points="2450.42,2761.8 2492.89,2761.8"
     stroke-linejoin="bevel"
     stroke-width="3.4"
     stroke="#000000"
     class="LedgerLine" />
  <polyline
     transform="translate(-360,-2652.9211)"
     id="polyline25686"
     points="2450.42,2740.56 2492.89,2740.56"
     stroke-linejoin="bevel"
     stroke-width="3.4"
     stroke="#000000"
     class="LedgerLine" />
  <polyline
     transform="translate(-360,-2652.9211)"
     id="polyline25688"
     points="2521.69,2761.8 2564.16,2761.8"
     stroke-linejoin="bevel"
     stroke-width="3.4"
     stroke="#000000"
     class="LedgerLine" />
  <polyline
     transform="translate(-360,-2652.9211)"
     id="polyline25690"
     points="2521.69,2740.56 2564.16,2740.56"
     stroke-linejoin="bevel"
     stroke-width="3.4"
     stroke="#000000"
     class="LedgerLine" />
  <polyline
     transform="translate(-360,-2652.9211)"
     id="polyline25692"
     points="2617.9,2761.8 2660.37,2761.8"
     stroke-linejoin="bevel"
     stroke-width="3.4"
     stroke="#000000"
     class="LedgerLine" />
  <polyline
     transform="translate(-360,-2652.9211)"
     id="polyline25694"
     points="2617.9,2740.56 2660.37,2740.56"
     stroke-linejoin="bevel"
     stroke-width="3.4"
     stroke="#000000"
     class="LedgerLine" />
  <polyline
     transform="translate(-360,-2652.9211)"
     id="polyline26120"
     points="549.375,2854.66 549.375,2745.87"
     stroke-linejoin="bevel"
     stroke-width="2.34"
     stroke="#000000"
     class="Stem" />
  <polyline
     transform="translate(-360,-2652.9211)"
     id="polyline26122"
     points="580.781,2833.42 580.781,2741.35"
     stroke-linejoin="bevel"
     stroke-width="2.34"
     stroke="#000000"
     class="Stem" />
  <polyline
     transform="translate(-360,-2652.9211)"
     id="polyline26124"
     points="635.654,2822.8 635.654,2733.44"
     stroke-linejoin="bevel"
     stroke-width="2.34"
     stroke="#000000"
     class="Stem" />
  <polyline
     transform="translate(-360,-2652.9211)"
     id="polyline26126"
     points="696.732,2812.18 696.732,2724.63"
     stroke-linejoin="bevel"
     stroke-width="2.34"
     stroke="#000000"
     class="Stem" />
  <polyline
     transform="translate(-360,-2652.9211)"
     id="polyline26128"
     points="702.87,2807.14 702.87,2905.17"
     stroke-linejoin="bevel"
     stroke-width="2.34"
     stroke="#000000"
     class="Stem" />
  <polyline
     transform="translate(-360,-2652.9211)"
     id="polyline26130"
     points="734.277,2817.76 734.277,2912.25"
     stroke-linejoin="bevel"
     stroke-width="2.34"
     stroke="#000000"
     class="Stem" />
  <polyline
     transform="translate(-360,-2652.9211)"
     id="polyline26132"
     points="765.684,2828.38 765.684,2919.33"
     stroke-linejoin="bevel"
     stroke-width="2.34"
     stroke="#000000"
     class="Stem" />
  <polyline
     transform="translate(-360,-2652.9211)"
     id="polyline26134"
     points="797.09,2839 797.09,2926.41"
     stroke-linejoin="bevel"
     stroke-width="2.34"
     stroke="#000000"
     class="Stem" />
  <polyline
     transform="translate(-360,-2652.9211)"
     id="polyline26136"
     points="828.497,2785.9 828.497,2883.93"
     stroke-linejoin="bevel"
     stroke-width="2.34"
     stroke="#000000"
     class="Stem" />
  <polyline
     transform="translate(-360,-2652.9211)"
     id="polyline26138"
     points="859.904,2796.52 859.904,2891.01"
     stroke-linejoin="bevel"
     stroke-width="2.34"
     stroke="#000000"
     class="Stem" />
  <polyline
     transform="translate(-360,-2652.9211)"
     id="polyline26140"
     points="891.311,2807.14 891.311,2898.09"
     stroke-linejoin="bevel"
     stroke-width="2.34"
     stroke="#000000"
     class="Stem" />
  <polyline
     transform="translate(-360,-2652.9211)"
     id="polyline26142"
     points="922.718,2817.76 922.718,2905.17"
     stroke-linejoin="bevel"
     stroke-width="2.34"
     stroke="#000000"
     class="Stem" />
  <polyline
     transform="translate(-360,-2652.9211)"
     id="polyline26144"
     points="954.125,2807.14 954.125,2883.93"
     stroke-linejoin="bevel"
     stroke-width="2.34"
     stroke="#000000"
     class="Stem" />
  <polyline
     transform="translate(-360,-2652.9211)"
     id="polyline26146"
     points="985.532,2796.52 985.532,2876.85"
     stroke-linejoin="bevel"
     stroke-width="2.34"
     stroke="#000000"
     class="Stem" />
  <polyline
     transform="translate(-360,-2652.9211)"
     id="polyline26148"
     points="1016.94,2785.9 1016.94,2869.77"
     stroke-linejoin="bevel"
     stroke-width="2.34"
     stroke="#000000"
     class="Stem" />
  <polyline
     transform="translate(-360,-2652.9211)"
     id="polyline26150"
     points="1048.35,2775.28 1048.35,2862.69"
     stroke-linejoin="bevel"
     stroke-width="2.34"
     stroke="#000000"
     class="Stem" />
  <polyline
     transform="translate(-360,-2652.9211)"
     id="polyline26152"
     points="1086.15,2764.66 1086.15,2862.69"
     stroke-linejoin="bevel"
     stroke-width="2.34"
     stroke="#000000"
     class="Stem" />
  <polyline
     transform="translate(-360,-2652.9211)"
     id="polyline26154"
     points="1123.95,2775.28 1123.95,2870.67"
     stroke-linejoin="bevel"
     stroke-width="2.34"
     stroke="#000000"
     class="Stem" />
  <polyline
     transform="translate(-360,-2652.9211)"
     id="polyline26156"
     points="1155.35,2785.9 1155.35,2877.3"
     stroke-linejoin="bevel"
     stroke-width="2.34"
     stroke="#000000"
     class="Stem" />
  <polyline
     transform="translate(-360,-2652.9211)"
     id="polyline26158"
     points="1186.76,2796.52 1186.76,2883.93"
     stroke-linejoin="bevel"
     stroke-width="2.34"
     stroke="#000000"
     class="Stem" />
  <polyline
     transform="translate(-360,-2652.9211)"
     id="polyline26160"
     points="1251.79,2754.04 1251.79,2841.45"
     stroke-linejoin="bevel"
     stroke-width="2.34"
     stroke="#000000"
     class="Stem" />
  <polyline
     transform="translate(-360,-2652.9211)"
     id="polyline26162"
     points="1297.02,2764.66 1297.02,2849.85"
     stroke-linejoin="bevel"
     stroke-width="2.34"
     stroke="#000000"
     class="Stem" />
  <polyline
     transform="translate(-360,-2652.9211)"
     id="polyline26164"
     points="1334.82,2775.28 1334.82,2856.86"
     stroke-linejoin="bevel"
     stroke-width="2.34"
     stroke="#000000"
     class="Stem" />
  <polyline
     transform="translate(-360,-2652.9211)"
     id="polyline26166"
     points="1366.23,2785.9 1366.23,2862.69"
     stroke-linejoin="bevel"
     stroke-width="2.34"
     stroke="#000000"
     class="Stem" />
  <polyline
     transform="translate(-360,-2652.9211)"
     id="polyline26168"
     points="1467.83,2817.76 1467.83,2905.17"
     stroke-linejoin="bevel"
     stroke-width="2.34"
     stroke="#000000"
     class="Stem" />
  <polyline
     transform="translate(-360,-2652.9211)"
     id="polyline26170"
     points="1502.36,2796.52 1502.36,2900.49"
     stroke-linejoin="bevel"
     stroke-width="2.34"
     stroke="#000000"
     class="Stem" />
  <polyline
     transform="translate(-360,-2652.9211)"
     id="polyline26172"
     points="1563.44,2785.9 1563.44,2892.21"
     stroke-linejoin="bevel"
     stroke-width="2.34"
     stroke="#000000"
     class="Stem" />
  <polyline
     transform="translate(-360,-2652.9211)"
     id="polyline26174"
     points="1624.51,2775.28 1624.51,2883.93"
     stroke-linejoin="bevel"
     stroke-width="2.34"
     stroke="#000000"
     class="Stem" />
  <polyline
     transform="translate(-360,-2652.9211)"
     id="polyline26176"
     points="1662.31,2764.66 1662.31,2862.69"
     stroke-linejoin="bevel"
     stroke-width="2.34"
     stroke="#000000"
     class="Stem" />
  <polyline
     transform="translate(-360,-2652.9211)"
     id="polyline26178"
     points="1700.12,2775.28 1700.12,2870.21"
     stroke-linejoin="bevel"
     stroke-width="2.34"
     stroke="#000000"
     class="Stem" />
  <polyline
     transform="translate(-360,-2652.9211)"
     id="polyline26180"
     points="1734.64,2785.9 1734.64,2877.07"
     stroke-linejoin="bevel"
     stroke-width="2.34"
     stroke="#000000"
     class="Stem" />
  <polyline
     transform="translate(-360,-2652.9211)"
     id="polyline26182"
     points="1769.17,2796.52 1769.17,2883.93"
     stroke-linejoin="bevel"
     stroke-width="2.34"
     stroke="#000000"
     class="Stem" />
  <polyline
     transform="translate(-360,-2652.9211)"
     id="polyline26184"
     points="1803.7,2743.42 1803.7,2841.45"
     stroke-linejoin="bevel"
     stroke-width="2.34"
     stroke="#000000"
     class="Stem" />
  <polyline
     transform="translate(-360,-2652.9211)"
     id="polyline26186"
     points="1868.77,2754.04 1868.77,2850.78"
     stroke-linejoin="bevel"
     stroke-width="2.34"
     stroke="#000000"
     class="Stem" />
  <polyline
     transform="translate(-360,-2652.9211)"
     id="polyline26188"
     points="1914,2764.66 1914,2857.27"
     stroke-linejoin="bevel"
     stroke-width="2.34"
     stroke="#000000"
     class="Stem" />
  <polyline
     transform="translate(-360,-2652.9211)"
     id="polyline26190"
     points="1951.8,2775.28 1951.8,2862.69"
     stroke-linejoin="bevel"
     stroke-width="2.34"
     stroke="#000000"
     class="Stem" />
  <polyline
     transform="translate(-360,-2652.9211)"
     id="polyline26192"
     points="1989.6,2764.66 1989.6,2841.45"
     stroke-linejoin="bevel"
     stroke-width="2.34"
     stroke="#000000"
     class="Stem" />
  <polyline
     transform="translate(-360,-2652.9211)"
     id="polyline26194"
     points="2034.84,2754.04 2034.84,2834.37"
     stroke-linejoin="bevel"
     stroke-width="2.34"
     stroke="#000000"
     class="Stem" />
  <polyline
     transform="translate(-360,-2652.9211)"
     id="polyline26196"
     points="2080.07,2743.42 2080.07,2827.29"
     stroke-linejoin="bevel"
     stroke-width="2.34"
     stroke="#000000"
     class="Stem" />
  <polyline
     transform="translate(-360,-2652.9211)"
     id="polyline26198"
     points="2125.31,2732.8 2125.31,2820.21"
     stroke-linejoin="bevel"
     stroke-width="2.34"
     stroke="#000000"
     class="Stem" />
  <polyline
     transform="translate(-360,-2652.9211)"
     id="polyline26200"
     points="2170.54,2722.18 2170.54,2841.45"
     stroke-linejoin="bevel"
     stroke-width="2.34"
     stroke="#000000"
     class="Stem" />
  <polyline
     transform="translate(-360,-2652.9211)"
     id="polyline26202"
     points="2215.77,2732.8 2215.77,2848.53"
     stroke-linejoin="bevel"
     stroke-width="2.34"
     stroke="#000000"
     class="Stem" />
  <polyline
     transform="translate(-360,-2652.9211)"
     id="polyline26204"
     points="2261.01,2743.42 2261.01,2855.61"
     stroke-linejoin="bevel"
     stroke-width="2.34"
     stroke="#000000"
     class="Stem" />
  <polyline
     transform="translate(-360,-2652.9211)"
     id="polyline26206"
     points="2306.24,2754.04 2306.24,2862.69"
     stroke-linejoin="bevel"
     stroke-width="2.34"
     stroke="#000000"
     class="Stem" />
  <polyline
     transform="translate(-360,-2652.9211)"
     id="polyline26208"
     points="2368.55,2711.56 2368.55,2841.45"
     stroke-linejoin="bevel"
     stroke-width="2.34"
     stroke="#000000"
     class="Stem" />
  <polyline
     transform="translate(-360,-2652.9211)"
     id="polyline26210"
     points="2413.78,2722.18 2413.78,2847.39"
     stroke-linejoin="bevel"
     stroke-width="2.34"
     stroke="#000000"
     class="Stem" />
  <polyline
     transform="translate(-360,-2652.9211)"
     id="polyline26212"
     points="2459.02,2732.8 2459.02,2853.33"
     stroke-linejoin="bevel"
     stroke-width="2.34"
     stroke="#000000"
     class="Stem" />
  <polyline
     transform="translate(-360,-2652.9211)"
     id="polyline26214"
     points="2530.29,2743.42 2530.29,2862.69"
     stroke-linejoin="bevel"
     stroke-width="2.34"
     stroke="#000000"
     class="Stem" />
  <polyline
     transform="translate(-360,-2652.9211)"
     id="polyline26216"
     points="2626.5,2732.8 2626.5,2841.45"
     stroke-linejoin="bevel"
     stroke-width="2.34"
     stroke="#000000"
     class="Stem" />
  <path
     style="stroke-width:0.8496"
     id="path26786"
     d="m 189.6994,197.57713 c -1.52928,-2.80368 -4.75776,-4.33296 -8.66592,-4.33296 -2.88864,0 -6.03216,0.8496 -9.09072,2.46384 -5.60736,2.9736 -9.00576,7.98624 -9.00576,12.3192 0,1.18944 0.25488,2.37888 0.8496,3.48336 1.52928,2.80368 4.75776,4.248 8.66592,4.248 2.88864,0 6.03216,-0.76464 9.09072,-2.37888 5.60736,-2.9736 9.00576,-7.98624 9.00576,-12.3192 0,-1.18944 -0.25488,-2.37888 -0.8496,-3.48336"
     class="Note" />
  <path
     style="stroke-width:0.8496"
     id="path26788"
     d="m 221.1064,176.33713 c -1.52928,-2.80368 -4.75776,-4.33296 -8.66592,-4.33296 -2.88864,0 -6.03216,0.8496 -9.09072,2.46384 -5.60736,2.9736 -9.00576,7.98624 -9.00576,12.3192 0,1.18944 0.25488,2.37888 0.8496,3.48336 1.52928,2.80368 4.75776,4.248 8.66592,4.248 2.88864,0 6.03216,-0.76464 9.09072,-2.37888 5.60736,-2.9736 9.00576,-7.98624 9.00576,-12.3192 0,-1.18944 -0.25488,-2.37888 -0.8496,-3.48336"
     class="Note" />
  <path
     style="stroke-width:0.8496"
     id="path26790"
     d="m 275.9784,165.71713 c -1.52928,-2.80368 -4.75776,-4.33296 -8.66592,-4.33296 -2.88864,0 -6.03216,0.8496 -9.09072,2.46384 -5.60736,2.9736 -9.00576,7.98624 -9.00576,12.3192 0,1.18944 0.25488,2.37888 0.8496,3.48336 1.52928,2.80368 4.75776,4.248 8.66592,4.248 2.88864,0 6.03216,-0.76464 9.09072,-2.37888 5.60736,-2.9736 9.00576,-7.98624 9.00576,-12.3192 0,-1.18944 -0.25488,-2.37888 -0.8496,-3.48336"
     class="Note" />
  <path
     style="stroke-width:0.8496"
     id="path26792"
     d="m 337.0574,155.09713 c -1.52928,-2.80368 -4.75776,-4.33296 -8.66592,-4.33296 -2.88864,0 -6.03216,0.8496 -9.09072,2.46384 -5.60736,2.9736 -9.00576,7.98624 -9.00576,12.3192 0,1.18944 0.25488,2.37888 0.8496,3.48336 1.52928,2.80368 4.75776,4.248 8.66592,4.248 2.88864,0 6.03216,-0.76464 9.09072,-2.37888 5.60736,-2.9736 9.00576,-7.98624 9.00576,-12.3192 0,-1.18944 -0.25488,-2.37888 -0.8496,-3.48336"
     class="Note" />
  <path
     style="stroke-width:0.8496"
     id="path26794"
     d="m 368.4644,144.47713 c -1.52928,-2.80368 -4.75776,-4.33296 -8.66592,-4.33296 -2.88864,0 -6.03216,0.8496 -9.09072,2.46384 -5.60736,2.9736 -9.00576,7.98624 -9.00576,12.3192 0,1.18944 0.25488,2.37888 0.8496,3.48336 1.52928,2.80368 4.75776,4.248 8.66592,4.248 2.88864,0 6.03216,-0.76464 9.09072,-2.37888 5.60736,-2.9736 9.00576,-7.98624 9.00576,-12.3192 0,-1.18944 -0.25488,-2.37888 -0.8496,-3.48336"
     class="Note" />
  <path
     style="stroke-width:0.8496"
     id="path26796"
     d="m 399.8704,155.09713 c -1.52928,-2.80368 -4.75776,-4.33296 -8.66592,-4.33296 -2.88864,0 -6.03216,0.8496 -9.09072,2.46384 -5.60736,2.9736 -9.00576,7.98624 -9.00576,12.3192 0,1.18944 0.25488,2.37888 0.8496,3.48336 1.52928,2.80368 4.75776,4.248 8.66592,4.248 2.88864,0 6.03216,-0.76464 9.09072,-2.37888 5.60736,-2.9736 9.00576,-7.98624 9.00576,-12.3192 0,-1.18944 -0.25488,-2.37888 -0.8496,-3.48336"
     class="Note" />
  <path
     style="stroke-width:0.8496"
     id="path26798"
     d="m 431.2774,165.71713 c -1.52928,-2.80368 -4.75776,-4.33296 -8.66592,-4.33296 -2.88864,0 -6.03216,0.8496 -9.09072,2.46384 -5.60736,2.9736 -9.00576,7.98624 -9.00576,12.3192 0,1.18944 0.25488,2.37888 0.8496,3.48336 1.52928,2.80368 4.75776,4.248 8.66592,4.248 2.88864,0 6.03216,-0.76464 9.09072,-2.37888 5.60736,-2.9736 9.00576,-7.98624 9.00576,-12.3192 0,-1.18944 -0.25488,-2.37888 -0.8496,-3.48336"
     class="Note" />
  <path
     style="stroke-width:0.8496"
     id="path26800"
     d="m 462.6844,176.33713 c -1.52928,-2.80368 -4.75776,-4.33296 -8.66592,-4.33296 -2.88864,0 -6.03216,0.8496 -9.09072,2.46384 -5.60736,2.9736 -9.00576,7.98624 -9.00576,12.3192 0,1.18944 0.25488,2.37888 0.8496,3.48336 1.52928,2.80368 4.75776,4.248 8.66592,4.248 2.88864,0 6.03216,-0.76464 9.09072,-2.37888 5.60736,-2.9736 9.00576,-7.98624 9.00576,-12.3192 0,-1.18944 -0.25488,-2.37888 -0.8496,-3.48336"
     class="Note" />
  <path
     style="stroke-width:0.8496"
     id="path26802"
     d="m 494.0914,123.23713 c -1.52928,-2.80368 -4.75776,-4.33296 -8.66592,-4.33296 -2.88864,0 -6.03216,0.8496 -9.09072,2.46384 -5.60736,2.9736 -9.00576,7.98624 -9.00576,12.3192 0,1.18944 0.25488,2.37888 0.8496,3.48336 1.52928,2.80368 4.75776,4.248 8.66592,4.248 2.88864,0 6.03216,-0.76464 9.09072,-2.37888 5.60736,-2.9736 9.00576,-7.98624 9.00576,-12.3192 0,-1.18944 -0.25488,-2.37888 -0.8496,-3.48336"
     class="Note" />
  <path
     style="stroke-width:0.8496"
     id="path26804"
     d="m 525.4984,133.85713 c -1.52928,-2.80368 -4.75776,-4.33296 -8.66592,-4.33296 -2.88864,0 -6.03216,0.8496 -9.09072,2.46384 -5.60736,2.9736 -9.00576,7.98624 -9.00576,12.3192 0,1.18944 0.25488,2.37888 0.8496,3.48336 1.52928,2.80368 4.75776,4.248 8.66592,4.248 2.88864,0 6.03216,-0.76464 9.09072,-2.37888 5.60736,-2.9736 9.00576,-7.98624 9.00576,-12.3192 0,-1.18944 -0.25488,-2.37888 -0.8496,-3.48336"
     class="Note" />
  <path
     style="stroke-width:0.8496"
     id="path26806"
     d="m 556.9054,144.47713 c -1.52928,-2.80368 -4.75776,-4.33296 -8.66592,-4.33296 -2.88864,0 -6.03216,0.8496 -9.09072,2.46384 -5.60736,2.9736 -9.00576,7.98624 -9.00576,12.3192 0,1.18944 0.25488,2.37888 0.8496,3.48336 1.52928,2.80368 4.75776,4.248 8.66592,4.248 2.88864,0 6.03216,-0.76464 9.09072,-2.37888 5.60736,-2.9736 9.00576,-7.98624 9.00576,-12.3192 0,-1.18944 -0.25488,-2.37888 -0.8496,-3.48336"
     class="Note" />
  <path
     style="stroke-width:0.8496"
     id="path26808"
     d="m 588.3124,155.09713 c -1.52928,-2.80368 -4.75776,-4.33296 -8.66592,-4.33296 -2.88864,0 -6.03216,0.8496 -9.09072,2.46384 -5.60736,2.9736 -9.00576,7.98624 -9.00576,12.3192 0,1.18944 0.25488,2.37888 0.8496,3.48336 1.52928,2.80368 4.75776,4.248 8.66592,4.248 2.88864,0 6.03216,-0.76464 9.09072,-2.37888 5.60736,-2.9736 9.00576,-7.98624 9.00576,-12.3192 0,-1.18944 -0.25488,-2.37888 -0.8496,-3.48336"
     class="Note" />
  <path
     style="stroke-width:0.8496"
     id="path26810"
     d="m 619.7184,144.47713 c -1.52928,-2.80368 -4.75776,-4.33296 -8.66592,-4.33296 -2.88864,0 -6.03216,0.8496 -9.09072,2.46384 -5.60736,2.9736 -9.00576,7.98624 -9.00576,12.3192 0,1.18944 0.25488,2.37888 0.8496,3.48336 1.52928,2.80368 4.75776,4.248 8.66592,4.248 2.88864,0 6.03216,-0.76464 9.09072,-2.37888 5.60736,-2.9736 9.00576,-7.98624 9.00576,-12.3192 0,-1.18944 -0.25488,-2.37888 -0.8496,-3.48336"
     class="Note" />
  <path
     style="stroke-width:0.8496"
     id="path26812"
     d="m 651.1254,133.85713 c -1.52928,-2.80368 -4.75776,-4.33296 -8.66592,-4.33296 -2.88864,0 -6.03216,0.8496 -9.09072,2.46384 -5.60736,2.9736 -9.00576,7.98624 -9.00576,12.3192 0,1.18944 0.25488,2.37888 0.8496,3.48336 1.52928,2.80368 4.75776,4.248 8.66592,4.248 2.88864,0 6.03216,-0.76464 9.09072,-2.37888 5.60736,-2.9736 9.00576,-7.98624 9.00576,-12.3192 0,-1.18944 -0.25488,-2.37888 -0.8496,-3.48336"
     class="Note" />
  <path
     style="stroke-width:0.8496"
     id="path26814"
     d="m 682.5324,123.23713 c -1.52928,-2.80368 -4.75776,-4.33296 -8.66592,-4.33296 -2.88864,0 -6.03216,0.8496 -9.09072,2.46384 -5.60736,2.9736 -9.00576,7.98624 -9.00576,12.3192 0,1.18944 0.25488,2.37888 0.8496,3.48336 1.52928,2.80368 4.75776,4.248 8.66592,4.248 2.88864,0 6.03216,-0.76464 9.09072,-2.37888 5.60736,-2.9736 9.00576,-7.98624 9.00576,-12.3192 0,-1.18944 -0.25488,-2.37888 -0.8496,-3.48336"
     class="Note" />
  <path
     style="stroke-width:0.8496"
     id="path26816"
     d="m 713.9424,112.61713 c -1.52928,-2.80368 -4.75776,-4.33296 -8.66592,-4.33296 -2.88864,0 -6.03216,0.8496 -9.09072,2.46384 -5.60736,2.9736 -9.00576,7.98624 -9.00576,12.3192 0,1.18944 0.25488,2.37888 0.8496,3.48336 1.52928,2.80368 4.75776,4.248 8.66592,4.248 2.88864,0 6.03216,-0.76464 9.09072,-2.37888 5.60736,-2.9736 9.00576,-7.98624 9.00576,-12.3192 0,-1.18944 -0.25488,-2.37888 -0.8496,-3.48336"
     class="Note" />
  <path
     style="stroke-width:0.8496"
     id="path26818"
     d="m 751.7424,101.99713 c -1.52928,-2.803682 -4.75776,-4.332962 -8.66592,-4.332962 -2.88864,0 -6.03216,0.8496 -9.09072,2.463842 -5.60736,2.9736 -9.00576,7.98624 -9.00576,12.3192 0,1.18944 0.25488,2.37888 0.8496,3.48336 1.52928,2.80368 4.75776,4.248 8.66592,4.248 2.88864,0 6.03216,-0.76464 9.09072,-2.37888 5.60736,-2.9736 9.00576,-7.98624 9.00576,-12.3192 0,-1.18944 -0.25488,-2.37888 -0.8496,-3.48336"
     class="Note" />
  <path
     style="stroke-width:0.8496"
     id="path26820"
     d="m 789.5424,112.61713 c -1.52928,-2.80368 -4.75776,-4.33296 -8.66592,-4.33296 -2.88864,0 -6.03216,0.8496 -9.09072,2.46384 -5.60736,2.9736 -9.00576,7.98624 -9.00576,12.3192 0,1.18944 0.25488,2.37888 0.8496,3.48336 1.52928,2.80368 4.75776,4.248 8.66592,4.248 2.88864,0 6.03216,-0.76464 9.09072,-2.37888 5.60736,-2.9736 9.00576,-7.98624 9.00576,-12.3192 0,-1.18944 -0.25488,-2.37888 -0.8496,-3.48336"
     class="Note" />
  <path
     style="stroke-width:0.8496"
     id="path26822"
     d="m 820.9524,123.23713 c -1.52928,-2.80368 -4.75776,-4.33296 -8.66592,-4.33296 -2.88864,0 -6.03216,0.8496 -9.09072,2.46384 -5.60736,2.9736 -9.00576,7.98624 -9.00576,12.3192 0,1.18944 0.25488,2.37888 0.8496,3.48336 1.52928,2.80368 4.75776,4.248 8.66592,4.248 2.88864,0 6.03216,-0.76464 9.09072,-2.37888 5.60736,-2.9736 9.00576,-7.98624 9.00576,-12.3192 0,-1.18944 -0.25488,-2.37888 -0.8496,-3.48336"
     class="Note" />
  <path
     style="stroke-width:0.8496"
     id="path26824"
     d="m 852.3524,133.85713 c -1.52928,-2.80368 -4.75776,-4.33296 -8.66592,-4.33296 -2.88864,0 -6.03216,0.8496 -9.09072,2.46384 -5.60736,2.9736 -9.00576,7.98624 -9.00576,12.3192 0,1.18944 0.25488,2.37888 0.8496,3.48336 1.52928,2.80368 4.75776,4.248 8.66592,4.248 2.88864,0 6.03216,-0.76464 9.09072,-2.37888 5.60736,-2.9736 9.00576,-7.98624 9.00576,-12.3192 0,-1.18944 -0.25488,-2.37888 -0.8496,-3.48336"
     class="Note" />
  <path
     style="stroke-width:0.8496"
     id="path26826"
     d="m 917.3824,91.377128 c -1.52928,-2.80368 -4.75776,-4.33296 -8.66592,-4.33296 -2.88864,0 -6.03216,0.8496 -9.09072,2.46384 -5.60736,2.9736 -9.00576,7.98624 -9.00576,12.319202 0,1.18944 0.25488,2.37888 0.8496,3.48336 1.52928,2.80368 4.75776,4.248 8.66592,4.248 2.88864,0 6.03216,-0.76464 9.09072,-2.37888 5.60736,-2.9736 9.00576,-7.986242 9.00576,-12.319202 0,-1.18944 -0.25488,-2.37888 -0.8496,-3.48336"
     class="Note" />
  <path
     style="stroke-width:0.8496"
     id="path26828"
     d="m 962.6124,101.99713 c -1.52928,-2.803682 -4.75776,-4.332962 -8.66592,-4.332962 -2.88864,0 -6.03216,0.8496 -9.09072,2.463842 -5.60736,2.9736 -9.00576,7.98624 -9.00576,12.3192 0,1.18944 0.25488,2.37888 0.8496,3.48336 1.52928,2.80368 4.75776,4.248 8.66592,4.248 2.88864,0 6.03216,-0.76464 9.09072,-2.37888 5.60736,-2.9736 9.00576,-7.98624 9.00576,-12.3192 0,-1.18944 -0.25488,-2.37888 -0.8496,-3.48336"
     class="Note" />
  <path
     style="stroke-width:0.8496"
     id="path26830"
     d="m 1000.4124,112.61713 c -1.52928,-2.80368 -4.75776,-4.33296 -8.66592,-4.33296 -2.88864,0 -6.03216,0.8496 -9.09072,2.46384 -5.60736,2.9736 -9.00576,7.98624 -9.00576,12.3192 0,1.18944 0.25488,2.37888 0.8496,3.48336 1.52928,2.80368 4.75776,4.248 8.66592,4.248 2.88864,0 6.03216,-0.76464 9.09072,-2.37888 5.60736,-2.9736 9.00576,-7.98624 9.00576,-12.3192 0,-1.18944 -0.2549,-2.37888 -0.8496,-3.48336"
     class="Note" />
  <path
     style="stroke-width:0.8496"
     id="path26832"
     d="m 1031.8224,123.23713 c -1.5293,-2.80368 -4.7578,-4.33296 -8.6659,-4.33296 -2.8887,0 -6.0322,0.8496 -9.0907,2.46384 -5.6074,2.9736 -9.0058,7.98624 -9.0058,12.3192 0,1.18944 0.2549,2.37888 0.8496,3.48336 1.5293,2.80368 4.7578,4.248 8.6659,4.248 2.8887,0 6.0322,-0.76464 9.0907,-2.37888 5.6074,-2.9736 9.0058,-7.98624 9.0058,-12.3192 0,-1.18944 -0.2549,-2.37888 -0.8496,-3.48336"
     class="Note" />
  <path
     style="stroke-width:0.8496"
     id="path26834"
     d="m 1133.4224,155.09713 c -1.5293,-2.80368 -4.7578,-4.33296 -8.6659,-4.33296 -2.8887,0 -6.0322,0.8496 -9.0907,2.46384 -5.6074,2.9736 -9.0058,7.98624 -9.0058,12.3192 0,1.18944 0.2549,2.37888 0.8496,3.48336 1.5293,2.80368 4.7578,4.248 8.6659,4.248 2.8887,0 6.0322,-0.76464 9.0907,-2.37888 5.6074,-2.9736 9.0058,-7.98624 9.0058,-12.3192 0,-1.18944 -0.2549,-2.37888 -0.8496,-3.48336"
     class="Note" />
  <path
     style="stroke-width:0.8496"
     id="path26836"
     d="m 1167.9524,133.85713 c -1.5293,-2.80368 -4.7578,-4.33296 -8.6659,-4.33296 -2.8887,0 -6.0322,0.8496 -9.0907,2.46384 -5.6074,2.9736 -9.0058,7.98624 -9.0058,12.3192 0,1.18944 0.2549,2.37888 0.8496,3.48336 1.5293,2.80368 4.7578,4.248 8.6659,4.248 2.8887,0 6.0322,-0.76464 9.0907,-2.37888 5.6074,-2.9736 9.0058,-7.98624 9.0058,-12.3192 0,-1.18944 -0.2549,-2.37888 -0.8496,-3.48336"
     class="Note" />
  <path
     style="stroke-width:0.8496"
     id="path26838"
     d="m 1229.0324,123.23713 c -1.5293,-2.80368 -4.7578,-4.33296 -8.6659,-4.33296 -2.8887,0 -6.0322,0.8496 -9.0907,2.46384 -5.6074,2.9736 -9.0058,7.98624 -9.0058,12.3192 0,1.18944 0.2549,2.37888 0.8496,3.48336 1.5293,2.80368 4.7578,4.248 8.6659,4.248 2.8887,0 6.0322,-0.76464 9.0907,-2.37888 5.6074,-2.9736 9.0058,-7.98624 9.0058,-12.3192 0,-1.18944 -0.2549,-2.37888 -0.8496,-3.48336"
     class="Note" />
  <path
     style="stroke-width:0.8496"
     id="path26840"
     d="m 1290.1124,112.61713 c -1.5293,-2.80368 -4.7578,-4.33296 -8.6659,-4.33296 -2.8887,0 -6.0322,0.8496 -9.0907,2.46384 -5.6074,2.9736 -9.0058,7.98624 -9.0058,12.3192 0,1.18944 0.2549,2.37888 0.8496,3.48336 1.5293,2.80368 4.7578,4.248 8.6659,4.248 2.8887,0 6.0322,-0.76464 9.0907,-2.37888 5.6074,-2.9736 9.0058,-7.98624 9.0058,-12.3192 0,-1.18944 -0.2549,-2.37888 -0.8496,-3.48336"
     class="Note" />
  <path
     style="stroke-width:0.8496"
     id="path26842"
     d="m 1327.9124,101.99713 c -1.5293,-2.803682 -4.7578,-4.332962 -8.6659,-4.332962 -2.8887,0 -6.0322,0.8496 -9.0907,2.463842 -5.6074,2.9736 -9.0058,7.98624 -9.0058,12.3192 0,1.18944 0.2549,2.37888 0.8496,3.48336 1.5293,2.80368 4.7578,4.248 8.6659,4.248 2.8887,0 6.0322,-0.76464 9.0907,-2.37888 5.6074,-2.9736 9.0058,-7.98624 9.0058,-12.3192 0,-1.18944 -0.2549,-2.37888 -0.8496,-3.48336"
     class="Note" />
  <path
     style="stroke-width:0.8496"
     id="path26844"
     d="m 1365.7124,112.61713 c -1.5293,-2.80368 -4.7578,-4.33296 -8.6659,-4.33296 -2.8887,0 -6.0322,0.8496 -9.0907,2.46384 -5.6074,2.9736 -9.0058,7.98624 -9.0058,12.3192 0,1.18944 0.2549,2.37888 0.8496,3.48336 1.5293,2.80368 4.7578,4.248 8.6659,4.248 2.8887,0 6.0322,-0.76464 9.0907,-2.37888 5.6074,-2.9736 9.0058,-7.98624 9.0058,-12.3192 0,-1.18944 -0.2549,-2.37888 -0.8496,-3.48336"
     class="Note" />
  <path
     style="stroke-width:0.8496"
     id="path26846"
     d="m 1400.2324,123.23713 c -1.5293,-2.80368 -4.7578,-4.33296 -8.6659,-4.33296 -2.8887,0 -6.0322,0.8496 -9.0907,2.46384 -5.6074,2.9736 -9.0058,7.98624 -9.0058,12.3192 0,1.18944 0.2549,2.37888 0.8496,3.48336 1.5293,2.80368 4.7578,4.248 8.6659,4.248 2.8887,0 6.0322,-0.76464 9.0907,-2.37888 5.6074,-2.9736 9.0058,-7.98624 9.0058,-12.3192 0,-1.18944 -0.2549,-2.37888 -0.8496,-3.48336"
     class="Note" />
  <path
     style="stroke-width:0.8496"
     id="path26848"
     d="m 1434.7624,133.85713 c -1.5293,-2.80368 -4.7578,-4.33296 -8.6659,-4.33296 -2.8887,0 -6.0322,0.8496 -9.0907,2.46384 -5.6074,2.9736 -9.0058,7.98624 -9.0058,12.3192 0,1.18944 0.2549,2.37888 0.8496,3.48336 1.5293,2.80368 4.7578,4.248 8.6659,4.248 2.8887,0 6.0322,-0.76464 9.0907,-2.37888 5.6074,-2.9736 9.0058,-7.98624 9.0058,-12.3192 0,-1.18944 -0.2549,-2.37888 -0.8496,-3.48336"
     class="Note" />
  <path
     style="stroke-width:0.8496"
     id="path26850"
     d="m 1469.2924,80.757128 c -1.5293,-2.80368 -4.7578,-4.33296 -8.6659,-4.33296 -2.8887,0 -6.0322,0.8496 -9.0907,2.46384 -5.6074,2.9736 -9.0058,7.98624 -9.0058,12.3192 0,1.18944 0.2549,2.37888 0.8496,3.48336 1.5293,2.80368 4.7578,4.248 8.6659,4.248 2.8887,0 6.0322,-0.76464 9.0907,-2.37888 5.6074,-2.9736 9.0058,-7.98624 9.0058,-12.3192 0,-1.18944 -0.2549,-2.37888 -0.8496,-3.48336"
     class="Note" />
  <path
     style="stroke-width:0.8496"
     id="path26852"
     d="m 1534.3624,91.377128 c -1.5293,-2.80368 -4.7578,-4.33296 -8.6659,-4.33296 -2.8887,0 -6.0322,0.8496 -9.0907,2.46384 -5.6074,2.9736 -9.0058,7.98624 -9.0058,12.319202 0,1.18944 0.2549,2.37888 0.8496,3.48336 1.5293,2.80368 4.7578,4.248 8.6659,4.248 2.8887,0 6.0322,-0.76464 9.0907,-2.37888 5.6074,-2.9736 9.0058,-7.986242 9.0058,-12.319202 0,-1.18944 -0.2549,-2.37888 -0.8496,-3.48336"
     class="Note" />
  <path
     style="stroke-width:0.8496"
     id="path26854"
     d="m 1579.5924,101.99713 c -1.5293,-2.803682 -4.7578,-4.332962 -8.6659,-4.332962 -2.8887,0 -6.0322,0.8496 -9.0907,2.463842 -5.6074,2.9736 -9.0058,7.98624 -9.0058,12.3192 0,1.18944 0.2549,2.37888 0.8496,3.48336 1.5293,2.80368 4.7578,4.248 8.6659,4.248 2.8887,0 6.0322,-0.76464 9.0907,-2.37888 5.6074,-2.9736 9.0058,-7.98624 9.0058,-12.3192 0,-1.18944 -0.2549,-2.37888 -0.8496,-3.48336"
     class="Note" />
  <path
     style="stroke-width:0.8496"
     id="path26856"
     d="m 1617.3924,112.61713 c -1.5293,-2.80368 -4.7578,-4.33296 -8.6659,-4.33296 -2.8887,0 -6.0322,0.8496 -9.0907,2.46384 -5.6074,2.9736 -9.0058,7.98624 -9.0058,12.3192 0,1.18944 0.2549,2.37888 0.8496,3.48336 1.5293,2.80368 4.7578,4.248 8.6659,4.248 2.8887,0 6.0322,-0.76464 9.0907,-2.37888 5.6074,-2.9736 9.0058,-7.98624 9.0058,-12.3192 0,-1.18944 -0.2549,-2.37888 -0.8496,-3.48336"
     class="Note" />
  <path
     style="stroke-width:0.8496"
     id="path26858"
     d="m 1655.1924,101.99713 c -1.5293,-2.803682 -4.7578,-4.332962 -8.6659,-4.332962 -2.8887,0 -6.0322,0.8496 -9.0907,2.463842 -5.6074,2.9736 -9.0058,7.98624 -9.0058,12.3192 0,1.18944 0.2549,2.37888 0.8496,3.48336 1.5293,2.80368 4.7578,4.248 8.6659,4.248 2.8887,0 6.0322,-0.76464 9.0907,-2.37888 5.6074,-2.9736 9.0058,-7.98624 9.0058,-12.3192 0,-1.18944 -0.2549,-2.37888 -0.8496,-3.48336"
     class="Note" />
  <path
     style="stroke-width:0.8496"
     id="path26860"
     d="m 1700.4324,91.377128 c -1.5293,-2.80368 -4.7578,-4.33296 -8.6659,-4.33296 -2.8887,0 -6.0322,0.8496 -9.0907,2.46384 -5.6074,2.9736 -9.0058,7.98624 -9.0058,12.319202 0,1.18944 0.2549,2.37888 0.8496,3.48336 1.5293,2.80368 4.7578,4.248 8.6659,4.248 2.8887,0 6.0322,-0.76464 9.0907,-2.37888 5.6074,-2.9736 9.0058,-7.986242 9.0058,-12.319202 0,-1.18944 -0.2549,-2.37888 -0.8496,-3.48336"
     class="Note" />
  <path
     style="stroke-width:0.8496"
     id="path26862"
     d="m 1745.6624,80.757128 c -1.5293,-2.80368 -4.7578,-4.33296 -8.6659,-4.33296 -2.8887,0 -6.0322,0.8496 -9.0907,2.46384 -5.6074,2.9736 -9.0058,7.98624 -9.0058,12.3192 0,1.18944 0.2549,2.37888 0.8496,3.48336 1.5293,2.80368 4.7578,4.248 8.6659,4.248 2.8887,0 6.0322,-0.76464 9.0907,-2.37888 5.6074,-2.9736 9.0058,-7.98624 9.0058,-12.3192 0,-1.18944 -0.2549,-2.37888 -0.8496,-3.48336"
     class="Note" />
  <path
     style="stroke-width:0.8496"
     id="path26864"
     d="m 1790.9024,70.137128 c -1.5293,-2.80368 -4.7578,-4.33296 -8.6659,-4.33296 -2.8887,0 -6.0322,0.8496 -9.0907,2.46384 -5.6074,2.9736 -9.0058,7.98624 -9.0058,12.3192 0,1.18944 0.2549,2.37888 0.8496,3.48336 1.5293,2.80368 4.7578,4.248 8.6659,4.248 2.8887,0 6.0322,-0.76464 9.0907,-2.37888 5.6074,-2.9736 9.0058,-7.98624 9.0058,-12.3192 0,-1.18944 -0.2549,-2.37888 -0.8496,-3.48336"
     class="Note" />
  <path
     style="stroke-width:0.8496"
     id="path26866"
     d="m 1836.1324,59.517128 c -1.5293,-2.80368 -4.7578,-4.33296 -8.6659,-4.33296 -2.8887,0 -6.0322,0.8496 -9.0907,2.46384 -5.6074,2.9736 -9.0058,7.98624 -9.0058,12.3192 0,1.18944 0.2549,2.37888 0.8496,3.48336 1.5293,2.80368 4.7578,4.248 8.6659,4.248 2.8887,0 6.0322,-0.76464 9.0907,-2.37888 5.6074,-2.9736 9.0058,-7.98624 9.0058,-12.3192 0,-1.18944 -0.2549,-2.37888 -0.8496,-3.48336"
     class="Note" />
  <path
     style="stroke-width:0.8496"
     id="path26868"
     d="m 1881.3724,70.137128 c -1.5293,-2.80368 -4.7578,-4.33296 -8.6659,-4.33296 -2.8887,0 -6.0322,0.8496 -9.0907,2.46384 -5.6074,2.9736 -9.0058,7.98624 -9.0058,12.3192 0,1.18944 0.2549,2.37888 0.8496,3.48336 1.5293,2.80368 4.7578,4.248 8.6659,4.248 2.8887,0 6.0322,-0.76464 9.0907,-2.37888 5.6074,-2.9736 9.0058,-7.98624 9.0058,-12.3192 0,-1.18944 -0.2549,-2.37888 -0.8496,-3.48336"
     class="Note" />
  <path
     style="stroke-width:0.8496"
     id="path26870"
     d="m 1926.6024,80.757128 c -1.5293,-2.80368 -4.7578,-4.33296 -8.6659,-4.33296 -2.8887,0 -6.0322,0.8496 -9.0907,2.46384 -5.6074,2.9736 -9.0058,7.98624 -9.0058,12.3192 0,1.18944 0.2549,2.37888 0.8496,3.48336 1.5293,2.80368 4.7578,4.248 8.6659,4.248 2.8887,0 6.0322,-0.76464 9.0907,-2.37888 5.6074,-2.9736 9.0058,-7.98624 9.0058,-12.3192 0,-1.18944 -0.2549,-2.37888 -0.8496,-3.48336"
     class="Note" />
  <path
     style="stroke-width:0.8496"
     id="path26872"
     d="m 1971.8424,91.377128 c -1.5293,-2.80368 -4.7578,-4.33296 -8.6659,-4.33296 -2.8887,0 -6.0322,0.8496 -9.0907,2.46384 -5.6074,2.9736 -9.0058,7.98624 -9.0058,12.319202 0,1.18944 0.2549,2.37888 0.8496,3.48336 1.5293,2.80368 4.7578,4.248 8.6659,4.248 2.8887,0 6.0322,-0.76464 9.0907,-2.37888 5.6074,-2.9736 9.0058,-7.986242 9.0058,-12.319202 0,-1.18944 -0.2549,-2.37888 -0.8496,-3.48336"
     class="Note" />
  <path
     style="stroke-width:0.8496"
     id="path26874"
     d="m 2034.1424,48.897128 c -1.5293,-2.80368 -4.7578,-4.33296 -8.6659,-4.33296 -2.8887,0 -6.0322,0.8496 -9.0907,2.46384 -5.6074,2.9736 -9.0058,7.98624 -9.0058,12.3192 0,1.18944 0.2549,2.37888 0.8496,3.48336 1.5293,2.80368 4.7578,4.248 8.6659,4.248 2.8887,0 6.0322,-0.76464 9.0907,-2.37888 5.6074,-2.9736 9.0058,-7.98624 9.0058,-12.3192 0,-1.18944 -0.2549,-2.37888 -0.8496,-3.48336"
     class="Note" />
  <path
     style="stroke-width:0.8496"
     id="path26876"
     d="m 2079.3824,59.517128 c -1.5293,-2.80368 -4.7578,-4.33296 -8.6659,-4.33296 -2.8887,0 -6.0322,0.8496 -9.0907,2.46384 -5.6074,2.9736 -9.0058,7.98624 -9.0058,12.3192 0,1.18944 0.2549,2.37888 0.8496,3.48336 1.5293,2.80368 4.7578,4.248 8.6659,4.248 2.8887,0 6.0322,-0.76464 9.0907,-2.37888 5.6074,-2.9736 9.0058,-7.98624 9.0058,-12.3192 0,-1.18944 -0.2549,-2.37888 -0.8496,-3.48336"
     class="Note" />
  <path
     style="stroke-width:0.8496"
     id="path26878"
     d="m 2124.6124,70.137128 c -1.5293,-2.80368 -4.7578,-4.33296 -8.6659,-4.33296 -2.8887,0 -6.0322,0.8496 -9.0907,2.46384 -5.6074,2.9736 -9.0058,7.98624 -9.0058,12.3192 0,1.18944 0.2549,2.37888 0.8496,3.48336 1.5293,2.80368 4.7578,4.248 8.6659,4.248 2.8887,0 6.0322,-0.76464 9.0907,-2.37888 5.6074,-2.9736 9.0058,-7.98624 9.0058,-12.3192 0,-1.18944 -0.2549,-2.37888 -0.8496,-3.48336"
     class="Note" />
  <path
     style="stroke-width:0.8496"
     id="path26880"
     d="m 2195.8824,80.757128 c -1.5293,-2.80368 -4.7578,-4.33296 -8.6659,-4.33296 -2.8887,0 -6.0322,0.8496 -9.0907,2.46384 -5.6074,2.9736 -9.0058,7.98624 -9.0058,12.3192 0,1.18944 0.2549,2.37888 0.8496,3.48336 1.5293,2.80368 4.7578,4.248 8.6659,4.248 2.8887,0 6.0322,-0.76464 9.0907,-2.37888 5.6074,-2.9736 9.0058,-7.98624 9.0058,-12.3192 0,-1.18944 -0.2549,-2.37888 -0.8496,-3.48336"
     class="Note" />
  <path
     style="stroke-width:0.8496"
     id="path26882"
     d="m 2292.0924,70.137128 c -1.5293,-2.80368 -4.7578,-4.33296 -8.6659,-4.33296 -2.8887,0 -6.0322,0.8496 -9.0907,2.46384 -5.6074,2.9736 -9.0058,7.98624 -9.0058,12.3192 0,1.18944 0.2549,2.37888 0.8496,3.48336 1.5293,2.80368 4.7578,4.248 8.6659,4.248 2.8887,0 6.0322,-0.76464 9.0907,-2.37888 5.6074,-2.9736 9.0058,-7.98624 9.0058,-12.3192 0,-1.18944 -0.2549,-2.37888 -0.8496,-3.48336"
     class="Note" />
  <path
     style="stroke-width:0.8496"
     id="path26928"
     d="m 52.683696,254.81468 c 0.01699,-1.28281 -0.569317,-2.50632 -1.597248,-3.28795 -1.028016,-0.80712 -2.438352,-1.23192 -4.07808,-1.23192 -1.971072,0 -3.755232,0.6033 -5.021136,1.6992 -1.265904,1.09598 -1.979653,2.65933 -1.979653,4.38402 0,1.58875 0.526837,2.75262 1.792741,3.93356 -0.968544,0.39082 -1.6992,0.79871 -2.344981,1.29148 -1.308299,0.99403 -2.08152,2.46384 -2.08152,3.93356 0,2.7697 2.514901,4.62191 6.270133,4.62191 4.596336,0 7.807824,-2.5488 7.807824,-6.18517 0,-1.89461 -0.8496,-3.54275 -2.404368,-4.68971 2.480832,-1.01952 3.636288,-2.44693 3.636288,-4.46898 m -8.470597,13.5936 c -1.86912,0 -3.109451,-1.20643 -3.109451,-2.99909 0,-1.61424 0.781632,-2.98201 2.200464,-3.85718 0.305856,0.16142 0.38232,0.2039 0.671184,0.34842 1.011024,0.50976 1.011024,0.50976 1.223424,0.6372 h 0.0085 c 1.622736,0.92598 2.276843,1.80115 2.276843,3.0075 0,1.62282 -1.410251,2.86315 -3.27096,2.86315 m 3.203077,-10.20361 c -1.214928,-0.6372 -1.546357,-0.8242 -1.86912,-1.01111 l -0.08496,-0.0509 c -1.31688,-0.79871 -1.724688,-1.37644 -1.724688,-2.44685 0,-1.52928 1.172448,-2.59986 2.837664,-2.59986 1.682208,0 2.650667,1.01952 2.650667,2.78669 0,1.41042 -0.492683,2.31949 -1.809563,3.32202 m 7.111152,-8.74247 -0.33984,-0.17833 v 1.85204 l 0.101952,0.068 c 1.31688,0.93456 1.886112,1.60583 2.455259,2.84616 0.815701,1.75867 1.248997,4.22251 1.248997,7.11965 0,2.65075 -0.348336,4.8852 -1.036597,6.62688 -0.611627,1.59733 -1.23192,2.37888 -2.667659,3.37291 l -0.101952,0.068 v 1.85221 l 0.33984,-0.1785 c 1.852128,-0.96846 2.88864,-1.76717 4.112064,-3.186 2.08152,-2.44685 3.186,-5.40337 3.186,-8.56397 0.0085,-2.90563 -0.968544,-5.7348 -2.769696,-8.01164 -1.265904,-1.63132 -2.489328,-2.63376 -4.528368,-3.68735 M 70.81416,188.8518 c -1.045008,-4.61339 -3.287952,-7.85878 -3.95064,-8.74245 -2.710224,-3.62779 -6.11712,-6.04915 -10.101744,-7.19611 -2.642256,-0.75606 -5.191056,-0.8496 -7.247088,-0.69667 -0.883669,-5.1061 -1.733269,-10.10166 -2.50632,-14.73198 4.63032,-5.24212 7.705872,-10.1698 9.64296,-13.82308 2.948112,-5.59028 3.925152,-9.48145 3.967632,-9.65137 1.461312,-4.4265 1.767168,-10.96842 0.832608,-17.94355 -0.858096,-6.41448 -2.63376,-12.11538 -4.63032,-14.87658 -0.875088,-1.21493 -1.767168,-1.835138 -2.650752,-1.835138 -1.036597,0 -3.169008,1.053508 -5.624437,3.406898 -1.95408,1.86912 -4.732187,5.17406 -6.907163,10.28016 -2.5488,5.99826 -2.727216,14.06088 -2.429856,19.77019 0.322848,6.17659 1.265819,11.0109 1.2744,11.05338 0.01699,0.0764 0.237888,1.35078 0.620208,3.53425 -0.195408,0.19541 -0.399312,0.38232 -0.611712,0.58631 -0.883584,0.8496 -1.894608,1.81806 -3.067056,2.99051 -0.730741,0.73074 -1.537861,1.50379 -2.387461,2.3279 -7.17912,6.91583 -18.045419,17.38282 -18.045419,33.65266 0,3.99312 0.76464,7.74837 2.276911,11.15531 1.350898,3.05856 3.304978,5.84527 5.794289,8.28362 6.567408,6.41448 15.564672,9.14161 21.562848,9.00576 2.50632,-0.0595 4.740768,-0.26346 6.771312,-0.64578 1.554768,8.15616 2.523312,14.12885 2.557296,18.66571 0.03398,5.5309 -1.367856,8.90381 -4.681296,11.2572 -2.064528,1.46981 -4.451904,2.27693 -7.085664,2.40437 -2.200464,0.10195 -4.12056,-0.29736 -5.335488,-0.64561 h -0.0085 c 0,0 -0.246384,-0.068 -0.25488,-0.23789 -0.0085,-0.15301 0.288864,-0.19549 0.29736,-0.19549 h 0.01691 c 1.631317,-0.37374 4.664389,-1.41875 6.66936,-4.22243 1.52928,-2.14099 2.268517,-6.06623 0.705253,-9.41365 -0.943056,-2.03046 -3.075552,-4.53678 -7.850304,-4.9191 -2.115589,-0.16992 -4.044096,0.26329 -5.743296,1.28281 -1.537776,0.91757 -2.812176,2.31091 -3.704256,4.01011 -2.090016,3.99312 -1.6992,8.86133 0.959963,12.12388 1.622821,1.98798 3.840277,3.50876 6.448549,4.46881 l -0.03407,0.017 -0.220811,0.11903 c -1.852128,0.96846 -2.88864,1.76717 -4.112149,3.186 -2.03904,2.37888 -3.168923,5.40337 -3.186,8.5299 -0.0084,2.91413 0.968629,5.75179 2.769781,8.0373 1.299888,1.65672 2.523312,2.65925 4.519872,3.70417 l 0.33984,0.17842 v -1.85213 l -0.09346,-0.068 c -1.31688,-0.93456 -1.894608,-1.59716 -2.46384,-2.84616 -0.815616,-1.75867 -1.248997,-4.23092 -1.248997,-7.15363 0,-2.63376 0.348421,-4.85971 1.036597,-6.60139 0.59472,-1.55477 1.223424,-2.3449 2.667744,-3.37283 l 0.101952,-0.068 v -1.77558 c 1.410336,0.50976 2.922624,0.85801 4.528368,1.02793 0.72216,0.0765 1.44432,0.11045 2.16648,0.11045 3.763728,0 7.501968,-1.01952 10.53504,-2.89714 3.109536,-2.18347 4.910688,-5.56488 5.488416,-10.34804 0.475776,-3.94223 0.144432,-8.96328 -1.045008,-15.81964 -0.305856,-1.77566 -0.76464,-4.34995 -1.325376,-7.54436 4.8852,-1.63132 8.419536,-4.66439 11.622528,-9.63455 2.795099,-4.88518 3.593808,-10.06774 2.37888,-15.41168 M 45.147659,122.64241 c 1.512373,-4.87662 3.840277,-7.63782 5.530981,-9.10763 1.4868,-1.29139 2.88864,-1.89469 3.670272,-1.89469 0.118944,0 0.220896,0.017 0.305856,0.0425 0.390731,0.11894 0.841104,0.6033 1.240331,1.34245 1.962661,3.6447 1.333957,9.3456 0.195493,13.11774 -1.384933,4.58784 -3.86568,9.36259 -11.34216,17.52725 -0.144432,-0.94306 -0.280453,-1.83514 -0.407893,-2.66766 -1.062,-7.04327 -0.790043,-13.21986 0.80712,-18.35994 m -3.3984,88.45194 c -3.942059,-1.0366 -7.705787,-3.1606 -10.900283,-6.1342 -1.112976,-1.04492 -2.701728,-2.8886 -3.95064,-5.76878 -1.164037,-2.6847 -1.724705,-5.59882 -1.682225,-8.64891 0.05949,-3.98458 1.172465,-8.07963 3.304961,-12.1493 2.480747,-4.74077 6.355008,-9.43897 11.503584,-13.96734 1.23192,-1.08757 2.395872,-2.17506 3.491856,-3.26255 0.645696,3.6193 1.350864,7.60392 2.098427,11.74997 -3.27096,1.07899 -7.30656,3.75523 -9.948731,8.55547 -3.007669,5.59039 -2.88864,10.27173 -2.268432,13.22833 0.798624,3.78918 2.948112,6.98372 5.887643,8.75932 0.790213,0.47586 4.299061,2.28551 5.86224,1.79274 0.314437,-0.10195 0.543829,-0.28895 0.662773,-0.56923 0.433296,-0.99412 -0.433296,-1.53786 -1.758672,-2.35344 -0.50976,-0.31437 -1.078992,-0.67122 -1.6992,-1.12149 -2.820672,-2.11546 -4.052592,-5.89618 -3.14352,-9.61749 0.492768,-2.03904 1.580256,-3.87414 3.14352,-5.31846 1.418832,-1.31692 3.152016,-2.25148 5.173979,-2.79522 1.733269,9.54954 3.48336,19.02254 4.876789,26.1252 0.110448,0.58622 0.229392,1.15554 0.33984,1.72477 -3.721248,0.79013 -7.417008,0.71358 -10.993909,-0.22939 m 21.8772,-8.66592 c -0.993947,2.70164 -3.083963,6.1596 -7.442411,7.90969 -0.05947,-0.35683 -0.12744,-0.72216 -0.195408,-1.08749 -1.308384,-7.45097 -2.956608,-16.78803 -4.621824,-26.3376 8.79336,-0.39931 12.421152,5.92177 13.177296,10.02532 0.399227,2.14101 0.390816,5.91318 -0.917653,9.49008"
     class="Clef" />
  <path
     style="stroke-width:0.8496"
     id="path26940"
     d="m 109.66996,165.88705 c -0.50976,-3.31344 -2.5488,-6.45696 -6.88176,-6.45696 -4.248,0 -6.71184,2.63376 -7.13664,3.14352 l 0.33984,-27.27216 c 0,-0.67968 -0.50976,-1.18944 -1.18944,-1.18944 h -1.01952 c -0.67968,0 -1.18944,0.50976 -1.18944,1.18944 l 0.4248,51.06096 c 0,0.67968 0.50976,1.18944 1.18944,1.18944 0.16992,0 0.50976,-0.085 0.67968,-0.16992 0.33984,-0.16992 5.86224,-2.88864 10.45008,-8.0712 3.22848,-3.65328 4.50288,-7.81632 4.50288,-11.29968 0,-0.76464 -0.085,-1.44432 -0.16992,-2.124 m -5.86224,3.31344 c 0,1.2744 -0.33984,5.18256 -2.46384,8.41104 -1.44432,2.20896 -4.33296,4.50288 -5.9472,5.77728 l 0.25488,-16.5672 c 0.16992,-0.76464 1.44432,-3.22848 4.84272,-3.22848 3.05856,0 3.31344,2.88864 3.31344,4.6728 v 0.93456"
     class="KeySig" />
  <path
     style="stroke-width:0.8496"
     id="path27062"
     d="m 1604.9172,78.452728 v 8.15616 h 2.7187 v -8.15616 c 3.3984,-0.76464 5.9472,-4.33296 5.9472,-8.41104 0,-4.6728 -3.2285,-8.58096 -7.3065,-8.58096 -4.0781,0 -7.3066,3.90816 -7.3066,8.58096 0,4.07808 2.5488,7.6464 5.9472,8.41104 m 1.3594,-15.88752 c 1.4443,0 3.2284,3.22848 3.2284,7.2216 0,3.99312 -1.7841,7.30656 -3.2284,7.30656 -1.4444,0 -3.2285,-3.31344 -3.2285,-7.30656 0,-3.99312 1.7841,-7.2216 3.2285,-7.2216"
     class="Articulation" />
  <path
     style="stroke-width:0.8496"
     id="path27064"
     d="m 1957.5272,37.002728 v 8.15616 h 2.7187 v -8.15616 c 3.3984,-0.76464 5.9472,-4.33296 5.9472,-8.41104 0,-4.6728 -3.2285,-8.58096 -7.3065,-8.58096 -4.0781,0 -7.3066,3.90816 -7.3066,8.58096 0,4.07808 2.5488,7.6464 5.9472,8.41104 m 1.3594,-15.88752 c 1.4443,0 3.2284,3.22848 3.2284,7.2216 0,3.99312 -1.7841,7.30656 -3.2284,7.30656 -1.4444,0 -3.2285,-3.31344 -3.2285,-7.30656 0,-3.99312 1.7841,-7.2216 3.2285,-7.2216"
     class="Articulation" />
  <path
     style="stroke-width:0.8496"
     id="path27066"
     d="m 2181.5772,26.382728 v 8.15616 h 2.7187 v -8.15616 c 3.3984,-0.76464 5.9472,-4.33296 5.9472,-8.41104 0,-4.6728 -3.2285,-8.5809597 -7.3065,-8.5809597 -4.0781,0 -7.3066,3.9081597 -7.3066,8.5809597 0,4.07808 2.5488,7.6464 5.9472,8.41104 m 1.3594,-15.88752 c 1.4443,0 3.2284,3.22848 3.2284,7.2216 0,3.99312 -1.7841,7.30656 -3.2284,7.30656 -1.4444,0 -3.2285,-3.31344 -3.2285,-7.30656 0,-3.99312 1.7841,-7.2216 3.2285,-7.2216"
     class="Articulation" />
  <path
     id="path27252"
     d="m 188.206,87.918888 149.694,-21.57 v 10.73 l -149.694,21.57 v -10.73"
     fill-rule="evenodd"
     class="Beam" />
  <path
     id="path27254"
     d="M 188.206,103.84889 337.9,82.278888 v 10.73 L 188.206,114.57889 v -10.73"
     fill-rule="evenodd"
     class="Beam" />
  <path
     id="path27256"
     d="M 188.206,119.77889 337.9,98.208888 v 10.730002 l -149.694,21.57 v -10.73"
     fill-rule="evenodd"
     class="Beam" />
  <path
     id="path27258"
     d="m 341.702,246.80889 96.557,21.77 v 10.88 l -96.557,-21.76 v -10.89"
     fill-rule="evenodd"
     class="Beam" />
  <path
     id="path27260"
     d="m 341.702,230.87889 96.557,21.77 v 10.88 l -96.557,-21.76 v -10.89"
     fill-rule="evenodd"
     class="Beam" />
  <path
     id="path27262"
     d="m 341.702,214.94889 96.557,21.77 v 10.88 l -96.557,-21.76 v -10.89"
     fill-rule="evenodd"
     class="Beam" />
  <path
     id="path27264"
     d="m 467.329,225.56889 96.557,21.77 v 10.88 l -96.557,-21.76 v -10.89"
     fill-rule="evenodd"
     class="Beam" />
  <path
     id="path27266"
     d="m 467.329,209.63889 96.557,21.77 v 10.88 l -96.557,-21.76 v -10.89"
     fill-rule="evenodd"
     class="Beam" />
  <path
     id="path27268"
     d="m 467.329,193.70889 96.557,21.77 v 10.88 l -96.557,-21.76 v -10.89"
     fill-rule="evenodd"
     class="Beam" />
  <path
     id="path27270"
     d="m 592.956,225.56889 96.554,-21.77 v 10.89 l -96.554,21.77 v -10.89"
     fill-rule="evenodd"
     class="Beam" />
  <path
     id="path27272"
     d="m 592.956,209.63889 96.554,-21.77 v 10.89 l -96.554,21.77 v -10.89"
     fill-rule="evenodd"
     class="Beam" />
  <path
     id="path27274"
     d="m 592.956,193.70889 96.554,-21.77 v 10.89 l -96.554,21.77 v -10.89"
     fill-rule="evenodd"
     class="Beam" />
  <path
     id="path27276"
     d="m 724.98,204.34889 102.95,21.73 v 10.85 l -102.95,-21.73 v -10.85"
     fill-rule="evenodd"
     class="Beam" />
  <path
     id="path27278"
     d="m 724.98,188.41889 102.95,21.73 v 10.85 l -102.95,-21.73 v -10.85"
     fill-rule="evenodd"
     class="Beam" />
  <path
     id="path27280"
     d="m 724.98,172.48889 102.95,21.73 v 10.85 l -102.95,-21.73 v -10.85"
     fill-rule="evenodd"
     class="Beam" />
  <path
     id="path27282"
     d="m 890.62,183.12889 116.78,21.68 v 10.8 l -116.78,-21.68 v -10.8"
     fill-rule="evenodd"
     class="Beam" />
  <path
     id="path27284"
     d="m 890.62,167.19889 116.78,21.68 v 10.8 l -116.78,-21.68 v -10.8"
     fill-rule="evenodd"
     class="Beam" />
  <path
     id="path27286"
     d="m 890.62,151.26889 116.78,21.68 v 10.8 l -116.78,-21.68 v -10.8"
     fill-rule="evenodd"
     class="Beam" />
  <path
     id="path27288"
     d="m 1106.66,246.88889 159.02,-21.55 v 10.71 l -159.02,21.56 v -10.72"
     fill-rule="evenodd"
     class="Beam" />
  <path
     id="path27290"
     d="m 1106.66,230.95889 159.02,-21.55 v 10.71 l -159.02,21.56 v -10.72"
     fill-rule="evenodd"
     class="Beam" />
  <path
     id="path27292"
     d="m 1106.66,215.02889 159.02,-21.55 v 10.71 l -159.02,21.56 v -10.72"
     fill-rule="evenodd"
     class="Beam" />
  <path
     id="path27294"
     d="m 1301.15,204.35889 109.19,21.7 v 10.83 l -109.19,-21.7 v -10.83"
     fill-rule="evenodd"
     class="Beam" />
  <path
     id="path27296"
     d="m 1301.15,188.42889 109.19,21.7 v 10.83 l -109.19,-21.7 v -10.83"
     fill-rule="evenodd"
     class="Beam" />
  <path
     id="path27298"
     d="m 1301.15,172.49889 109.19,21.7 v 10.83 l -109.19,-21.7 v -10.83"
     fill-rule="evenodd"
     class="Beam" />
  <path
     id="path27300"
     d="m 1442.53,183.16889 150.44,21.57 v 10.73 l -150.44,-21.57 v -10.73"
     fill-rule="evenodd"
     class="Beam" />
  <path
     id="path27302"
     d="m 1442.53,167.23889 150.44,21.57 v 10.73 l -150.44,-21.57 v -10.73"
     fill-rule="evenodd"
     class="Beam" />
  <path
     id="path27304"
     d="m 1442.53,151.30889 150.44,21.57 v 10.73 l -150.44,-21.57 v -10.73"
     fill-rule="evenodd"
     class="Beam" />
  <path
     id="path27306"
     d="m 1628.43,183.15889 138.04,-21.61 v 10.75 l -138.04,21.61 v -10.75"
     fill-rule="evenodd"
     class="Beam" />
  <path
     id="path27308"
     d="m 1628.43,167.22889 138.04,-21.61 v 10.75 l -138.04,21.61 v -10.75"
     fill-rule="evenodd"
     class="Beam" />
  <path
     id="path27310"
     d="m 1628.43,151.29889 138.04,-21.61 v 10.75 l -138.04,21.61 v -10.75"
     fill-rule="evenodd"
     class="Beam" />
  <path
     id="path27312"
     d="m 1809.37,183.15889 138.04,21.6 v 10.75 l -138.04,-21.6 v -10.75"
     fill-rule="evenodd"
     class="Beam" />
  <path
     id="path27314"
     d="m 1809.37,167.22889 138.04,21.6 v 10.75 l -138.04,-21.6 v -10.75"
     fill-rule="evenodd"
     class="Beam" />
  <path
     id="path27316"
     d="m 1809.37,151.29889 138.04,21.6 v 10.75 l -138.04,-21.6 v -10.75"
     fill-rule="evenodd"
     class="Beam" />
  <path
     id="path27318"
     d="m 2007.38,183.17889 164.08,21.54 v 10.71 l -164.08,-21.54 v -10.71"
     fill-rule="evenodd"
     class="Beam" />
  <path
     id="path27320"
     d="m 2007.38,167.24889 164.08,21.54 v 10.71 l -164.08,-21.54 v -10.71"
     fill-rule="evenodd"
     class="Beam" />
  <path
     id="path27322"
     d="m 2007.38,151.31889 164.08,21.54 v 10.71 l -164.08,-21.54 v -10.71"
     fill-rule="evenodd"
     class="Beam" />
  <path
     id="path27324"
     d="m 2265.33,183.07889 47.58,-11.17 v 10.91 l -47.58,11.17 v -10.91"
     fill-rule="evenodd"
     class="Beam" />
  <path
     id="path27326"
     d="m 2265.33,167.14889 47.58,-11.17 v 10.91 l -47.58,11.17 v -10.91"
     fill-rule="evenodd"
     class="Beam" />
  <path
     id="path27328"
     d="m 2265.33,151.21889 47.58,-11.17 v 10.91 l -47.58,11.17 v -10.91"
     fill-rule="evenodd"
     class="Beam" />
  <path
     id="path27712"
     d="m 194.793,43.698888 h -1.496 l -0.34,1.74 c -0.442,2.21 -0.714,2.41 -2.822,2.41 h -7.616 c 2.346,-2.45 3.128,-3.16 5.304,-4.86 3.094,-2.38 4.42,-3.57 5.202,-4.59 1.088,-1.5 1.632,-2.99 1.632,-4.66 0,-3.87 -3.196,-6.63 -7.65,-6.63 -4.318,0 -7.616,2.76 -7.616,6.39 0,2.15 1.088,3.61 2.686,3.61 1.258,0 2.108,-0.85 2.108,-2.08 0,-0.85 -0.476,-1.63 -1.19,-1.93 -1.258,-0.51 -1.326,-0.58 -1.326,-1.02 0,-0.51 0.34,-1.3 0.816,-1.87 0.85,-1.06 2.244,-1.64 3.842,-1.64 2.822,0 4.488,1.74 4.488,4.59 0,2.52 -1.19,4.8 -4.012,7.79 -2.516,2.65 -4.08,4.32 -4.658,4.96 -1.224,1.43 -1.836,2.21 -3.332,4.19 v 0.95 h 15.334 l 0.646,-7.35"
     class="Fingering" />
  <path
     id="path27714"
     d="m 358.579,95.538888 -11.56,16.080002 v 1.9 h 9.554 v 1.77 c 0,1.73 0,1.8 -0.204,2.11 -0.272,0.37 -0.918,0.47 -2.856,0.47 h -0.374 v 1.6 h 9.928 v -1.6 h -0.136 c -1.938,0 -2.584,-0.1 -2.856,-0.47 -0.204,-0.31 -0.204,-0.34 -0.204,-2.11 v -1.77 h 4.114 v -1.9 h -4.114 v -9.28 c 0,-4.250002 0,-4.360002 0.17,-6.800002 h -1.462 m -2.006,16.080002 h -7.48 l 7.48,-10.3 v 10.3"
     class="Fingering" />
  <path
     id="path27716"
     d="m 449.928,95.038888 c -4.76,0 -8.228,5.160002 -8.228,12.300002 0,7.01 3.366,12.14 7.956,12.14 4.76,0 8.092,-4.96 8.092,-12.03 0,-3.61 -0.748,-6.6 -2.176,-8.950002 -1.326,-2.14 -3.502,-3.46 -5.644,-3.46 m -0.238,1.46 c 1.122,0 2.21,0.75 3.026,2.11 0.918,1.590002 1.224,3.530002 1.224,8.190002 0,4.79 -0.238,7.04 -0.918,8.53 -0.782,1.67 -2.006,2.69 -3.298,2.69 -1.156,0 -2.21,-0.75 -3.026,-2.11 -0.952,-1.6 -1.224,-3.7 -1.224,-9.28 0,-3.98 0.238,-5.95 0.918,-7.450002 0.782,-1.7 2.006,-2.68 3.298,-2.68"
     class="Fingering" />
  <path
     id="path27718"
     d="m 484.206,84.488888 -11.56,16.080002 v 1.91 h 9.554 v 1.76 c 0,1.74 0,1.81 -0.204,2.11 -0.272,0.38 -0.918,0.48 -2.856,0.48 h -0.374 v 1.6 h 9.928 v -1.6 h -0.136 c -1.938,0 -2.584,-0.1 -2.856,-0.48 -0.204,-0.3 -0.204,-0.34 -0.204,-2.11 v -1.76 h 4.114 v -1.91 h -4.114 v -9.280002 c 0,-4.25 0,-4.35 0.17,-6.8 h -1.462 M 482.2,100.56889 h -7.48 l 7.48,-10.300002 v 10.300002"
     class="Fingering" />
  <path
     id="path27720"
     d="m 515.115,106.02889 c 3.094,-1.12 4.522,-2.85 4.522,-5.57 0,-3.570002 -2.72,-5.850002 -6.936,-5.850002 -3.978,0 -7.004,2.35 -7.004,5.440002 0,1.39 0.918,2.38 2.244,2.38 1.19,0 2.006,-0.82 2.006,-2.04 0,-0.750002 -0.272,-1.190002 -1.054,-1.730002 -0.34,-0.24 -0.442,-0.38 -0.442,-0.62 0,-0.95 1.972,-1.97 3.91,-1.97 2.448,0 3.74,1.53 3.74,4.420002 0,3.16 -1.292,4.83 -3.706,4.83 -0.306,0 -0.884,-0.03 -1.394,-0.07 -0.272,-0.03 -0.544,-0.03 -0.748,-0.03 -0.714,0 -1.088,0.3 -1.088,0.92 0,0.57 0.34,0.85 1.088,0.85 0.204,0 0.476,0 0.782,-0.04 0.68,-0.03 1.224,-0.03 1.598,-0.03 2.516,0 3.876,1.8 3.876,5.17 0,3.53 -1.7,5.5 -4.76,5.5 -2.142,0 -4.454,-1.15 -4.454,-2.21 0,-0.3 0.068,-0.37 0.714,-0.74 0.952,-0.58 1.326,-1.16 1.326,-2.01 0,-1.22 -0.918,-2.14 -2.142,-2.14 -1.462,0 -2.414,1.19 -2.414,2.99 0,3.3 3.026,5.58 7.378,5.58 4.93,0 8.126,-2.72 8.126,-6.91 0,-3.19 -1.632,-5.13 -5.168,-6.12"
     class="Fingering" />
  <path
     id="path27722"
     d="m 551.928,112.12889 h -1.496 l -0.34,1.73 c -0.442,2.21 -0.714,2.42 -2.822,2.42 h -7.616 c 2.346,-2.45 3.128,-3.17 5.304,-4.87 3.094,-2.38 4.42,-3.57 5.202,-4.59 1.088,-1.49 1.632,-2.99 1.632,-4.65 0,-3.880002 -3.196,-6.630002 -7.65,-6.630002 -4.318,0 -7.616,2.75 -7.616,6.390002 0,2.14 1.088,3.6 2.686,3.6 1.258,0 2.108,-0.85 2.108,-2.07 0,-0.85 -0.476,-1.63 -1.19,-1.94 -1.258,-0.51 -1.326,-0.58 -1.326,-1.02 0,-0.510002 0.34,-1.290002 0.816,-1.870002 0.85,-1.05 2.244,-1.63 3.842,-1.63 2.822,0 4.488,1.73 4.488,4.590002 0,2.51 -1.19,4.79 -4.012,7.78 -2.516,2.66 -4.08,4.32 -4.658,4.97 -1.224,1.43 -1.836,2.21 -3.332,4.18 v 0.95 h 15.334 l 0.646,-7.34"
     class="Fingering" />
  <path
     id="path27724"
     d="m 576.175,95.538888 c -1.156,1.39 -4.284,2.44 -7.412,2.51 v 1.46 h 2.992 c 1.972,0.04 2.176,0.24 2.108,2.150002 v 13.63 c 0,1.73 0,1.8 -0.204,2.11 -0.272,0.34 -0.918,0.47 -2.822,0.47 h -2.21 v 1.6 h 13.464 v -1.6 h -1.87 c -1.904,0 -2.55,-0.13 -2.822,-0.47 -0.238,-0.31 -0.238,-0.34 -0.238,-2.11 v -14.04 c 0,-1.910002 0.068,-3.500002 0.238,-5.710002 h -1.224"
     class="Fingering" />
  <path
     id="path27726"
     d="m 614.742,112.12889 h -1.496 l -0.34,1.73 c -0.442,2.21 -0.714,2.42 -2.822,2.42 h -7.616 c 2.346,-2.45 3.128,-3.17 5.304,-4.87 3.094,-2.38 4.42,-3.57 5.202,-4.59 1.088,-1.49 1.632,-2.99 1.632,-4.65 0,-3.880002 -3.196,-6.630002 -7.65,-6.630002 -4.318,0 -7.616,2.75 -7.616,6.390002 0,2.14 1.088,3.6 2.686,3.6 1.258,0 2.108,-0.85 2.108,-2.07 0,-0.85 -0.476,-1.63 -1.19,-1.94 -1.258,-0.51 -1.326,-0.58 -1.326,-1.02 0,-0.510002 0.34,-1.290002 0.816,-1.870002 0.85,-1.05 2.244,-1.63 3.842,-1.63 2.822,0 4.488,1.73 4.488,4.590002 0,2.51 -1.19,4.79 -4.012,7.78 -2.516,2.66 -4.08,4.32 -4.658,4.97 -1.224,1.43 -1.836,2.21 -3.332,4.18 v 0.95 h 15.334 l 0.646,-7.34"
     class="Fingering" />
  <path
     id="path27728"
     d="m 641.24,95.108888 -11.559,16.080002 v 1.91 h 9.554 v 1.76 c 0,1.74 0,1.81 -0.204,2.11 -0.272,0.38 -0.918,0.48 -2.856,0.48 h -0.374 v 1.6 h 9.929 v -1.6 h -0.14 c -1.94,0 -2.58,-0.1 -2.85,-0.48 -0.21,-0.3 -0.21,-0.34 -0.21,-2.11 v -1.76 h 4.12 v -1.91 h -4.12 v -9.28 c 0,-4.250002 0,-4.350002 0.17,-6.800002 h -1.46 m -2.005,16.080002 h -7.48 l 7.48,-10.3 v 10.3"
     class="Fingering" />
  <path
     id="path27730"
     d="m 670.4,84.488888 c -1.16,1.39 -4.29,2.45 -7.42,2.52 v 1.46 h 3 c 1.97,0.03 2.17,0.24 2.1,2.14 v 13.630002 c 0,1.74 0,1.81 -0.2,2.11 -0.27,0.34 -0.92,0.48 -2.82,0.48 h -2.21 v 1.6 h 13.46 v -1.6 h -1.87 c -1.9,0 -2.55,-0.14 -2.82,-0.48 -0.24,-0.3 -0.24,-0.34 -0.24,-2.11 V 90.198888 c 0,-1.9 0.07,-3.5 0.24,-5.71 h -1.22"
     class="Fingering" />
  <path
     id="path27732"
     d="m 708.96,90.458888 h -1.49 l -0.34,1.74 c -0.45,2.21 -0.72,2.41 -2.83,2.41 h -7.61 c 2.34,-2.45 3.13,-3.16 5.3,-4.86 3.1,-2.38 4.42,-3.57 5.2,-4.59 1.09,-1.5 1.64,-2.99 1.64,-4.66 0,-3.88 -3.2,-6.63 -7.65,-6.63 -4.32,0 -7.62,2.75 -7.62,6.39 0,2.14 1.09,3.61 2.69,3.61 1.25,0 2.1,-0.85 2.1,-2.08 0,-0.85 -0.47,-1.63 -1.19,-1.94 -1.25,-0.51 -1.32,-0.57 -1.32,-1.02 0,-0.51 0.34,-1.29 0.81,-1.87 0.85,-1.05 2.25,-1.63 3.85,-1.63 2.82,0 4.48,1.74 4.48,4.59 0,2.52 -1.19,4.8 -4.01,7.79 -2.51,2.65 -4.08,4.32 -4.66,4.96 -1.22,1.43 -1.83,2.21 -3.33,4.18 v 0.96 h 15.34 l 0.64,-7.35"
     class="Fingering" />
  <path
     id="path27734"
     d="m 756.07,67.798888 c 0,9.55 -7.74,17.29 -17.29,17.29 -9.55,0 -17.29,-7.74 -17.29,-17.29 0,-9.55 7.74,-17.29 17.29,-17.29 9.55,0 17.29,7.74 17.29,17.29"
     fill-rule="evenodd"
     stroke-miterlimit="2"
     stroke-linejoin="miter"
     stroke-linecap="square"
     stroke-width="2.12"
     stroke="#000000"
     fill="none"
     class="Fingering" />
  <path
     id="path27736"
     d="m 741.85,55.818888 -11.56,16.08 v 1.9 h 9.56 v 1.77 c 0,1.73 0,1.8 -0.21,2.11 -0.27,0.37 -0.91,0.47 -2.85,0.47 h -0.38 v 1.6 h 9.93 v -1.6 h -0.13 c -1.94,0 -2.59,-0.1 -2.86,-0.47 -0.2,-0.31 -0.2,-0.34 -0.2,-2.11 v -1.77 h 4.11 v -1.9 h -4.11 v -9.28 c 0,-4.25 0,-4.36 0.17,-6.8 h -1.47 m -2,16.08 h -7.48 l 7.48,-10.3 v 10.3"
     class="Fingering" />
  <path
     id="path27738"
     d="m 779.66,73.868888 -11.56,16.08 v 1.91 h 9.55 v 1.76 c 0,1.74 0,1.81 -0.2,2.11 -0.28,0.38 -0.92,0.48 -2.86,0.48 h -0.37 v 1.6 h 9.92 v -1.6 h -0.13 c -1.94,0 -2.59,-0.1 -2.86,-0.48 -0.2,-0.3 -0.2,-0.34 -0.2,-2.11 v -1.76 h 4.11 v -1.91 h -4.11 v -9.28 c 0,-4.25 0,-4.35 0.17,-6.8 h -1.46 m -2.01,16.08 h -7.48 l 7.48,-10.3 v 10.3"
     class="Fingering" />
  <path
     id="path27740"
     d="m 815.97,101.07889 h -1.5 l -0.34,1.74 c -0.44,2.21 -0.71,2.41 -2.82,2.41 h -7.61 c 2.34,-2.45 3.12,-3.16 5.3,-4.86 3.09,-2.380002 4.42,-3.570002 5.2,-4.590002 1.09,-1.5 1.63,-2.99 1.63,-4.66 0,-3.88 -3.19,-6.63 -7.65,-6.63 -4.31,0 -7.61,2.75 -7.61,6.39 0,2.14 1.09,3.61 2.68,3.61 1.26,0 2.11,-0.85 2.11,-2.08 0,-0.85 -0.47,-1.63 -1.19,-1.94 -1.26,-0.51 -1.32,-0.57 -1.32,-1.02 0,-0.51 0.34,-1.29 0.81,-1.87 0.85,-1.05 2.25,-1.63 3.84,-1.63 2.83,0 4.49,1.74 4.49,4.59 0,2.52 -1.19,4.8 -4.01,7.79 -2.52,2.650002 -4.08,4.320002 -4.66,4.960002 -1.22,1.43 -1.83,2.21 -3.33,4.18 v 0.96 h 15.33 l 0.65,-7.35"
     class="Fingering" />
  <path
     id="path27742"
     d="m 840.22,95.108888 c -1.16,1.39 -4.29,2.45 -7.41,2.52 v 1.46 h 2.99 c 1.97,0.03 2.17,0.24 2.11,2.140002 v 13.63 c 0,1.74 0,1.81 -0.21,2.11 -0.27,0.34 -0.92,0.48 -2.82,0.48 h -2.21 v 1.6 h 13.46 v -1.6 h -1.87 c -1.9,0 -2.55,-0.14 -2.82,-0.48 -0.24,-0.3 -0.24,-0.34 -0.24,-2.11 v -14.04 c 0,-1.900002 0.07,-3.500002 0.24,-5.710002 h -1.22"
     class="Fingering" />
  <path
     id="path27744"
     d="m 907,63.548888 c 3.09,-1.12 4.52,-2.85 4.52,-5.57 0,-3.57 -2.72,-5.85 -6.94,-5.85 -3.97,0 -7,2.35 -7,5.44 0,1.39 0.92,2.38 2.24,2.38 1.19,0 2.01,-0.82 2.01,-2.04 0,-0.75 -0.27,-1.19 -1.05,-1.73 -0.34,-0.24 -0.45,-0.38 -0.45,-0.62 0,-0.95 1.98,-1.97 3.91,-1.97 2.45,0 3.74,1.53 3.74,4.42 0,3.16 -1.29,4.83 -3.7,4.83 -0.31,0 -0.89,-0.03 -1.4,-0.07 -0.27,-0.03 -0.54,-0.03 -0.74,-0.03 -0.72,0 -1.09,0.3 -1.09,0.92 0,0.57 0.34,0.85 1.09,0.85 0.2,0 0.47,0 0.78,-0.04 0.68,-0.03 1.22,-0.03 1.6,-0.03 2.51,0 3.87,1.8 3.87,5.17 0,3.53 -1.7,5.5 -4.76,5.5 -2.14,0 -4.45,-1.15 -4.45,-2.21 0,-0.3 0.07,-0.37 0.71,-0.74 0.95,-0.58 1.33,-1.16 1.33,-2.01 0,-1.22 -0.92,-2.14 -2.14,-2.14 -1.47,0 -2.42,1.19 -2.42,2.99 0,3.3 3.03,5.58 7.38,5.58 4.93,0 8.13,-2.72 8.13,-6.91 0,-3.19 -1.64,-5.13 -5.17,-6.12"
     class="Fingering" />
  <path
     id="path27746"
     d="m 966.95,67.798888 c 0,9.55 -7.74,17.29 -17.29,17.29 -9.55,0 -17.3,-7.74 -17.3,-17.29 0,-9.55 7.75,-17.29 17.3,-17.29 9.55,0 17.29,7.74 17.29,17.29"
     fill-rule="evenodd"
     stroke-miterlimit="2"
     stroke-linejoin="miter"
     stroke-linecap="square"
     stroke-width="2.12"
     stroke="#000000"
     fill="none"
     class="Fingering" />
  <path
     id="path27748"
     d="m 957.64,72.408888 h -1.5 l -0.34,1.73 c -0.44,2.21 -0.71,2.42 -2.82,2.42 h -7.61 c 2.34,-2.45 3.12,-3.17 5.3,-4.87 3.09,-2.38 4.42,-3.57 5.2,-4.59 1.09,-1.49 1.63,-2.99 1.63,-4.65 0,-3.88 -3.19,-6.63 -7.65,-6.63 -4.31,0 -7.61,2.75 -7.61,6.39 0,2.14 1.09,3.6 2.68,3.6 1.26,0 2.11,-0.85 2.11,-2.07 0,-0.85 -0.47,-1.63 -1.19,-1.94 -1.26,-0.51 -1.32,-0.58 -1.32,-1.02 0,-0.51 0.34,-1.29 0.81,-1.87 0.85,-1.05 2.25,-1.63 3.84,-1.63 2.83,0 4.49,1.73 4.49,4.59 0,2.51 -1.19,4.79 -4.01,7.78 -2.52,2.66 -4.08,4.32 -4.66,4.97 -1.22,1.43 -1.83,2.21 -3.33,4.18 v 0.95 h 15.33 l 0.65,-7.34"
     class="Fingering" />
  <path
     id="path27750"
     d="m 990.53,73.868888 -11.56,16.08 v 1.91 h 9.56 v 1.76 c 0,1.74 0,1.81 -0.21,2.11 -0.27,0.38 -0.92,0.48 -2.85,0.48 h -0.38 v 1.6 h 9.93 v -1.6 h -0.14 c -1.93,0 -2.58,-0.1 -2.85,-0.48 -0.21,-0.3 -0.21,-0.34 -0.21,-2.11 v -1.76 h 4.12 v -1.91 h -4.12 v -9.28 c 0,-4.25 0,-4.35 0.17,-6.8 h -1.46 m -2,16.08 h -7.48 l 7.48,-10.3 v 10.3"
     class="Fingering" />
  <path
     id="path27752"
     d="m 1026.85,101.07889 h -1.5 l -0.34,1.74 c -0.44,2.21 -0.71,2.41 -2.82,2.41 h -7.62 c 2.35,-2.45 3.13,-3.16 5.31,-4.86 3.09,-2.380002 4.42,-3.570002 5.2,-4.590002 1.09,-1.5 1.63,-2.99 1.63,-4.66 0,-3.88 -3.2,-6.63 -7.65,-6.63 -4.32,0 -7.62,2.75 -7.62,6.39 0,2.14 1.09,3.61 2.69,3.61 1.26,0 2.11,-0.85 2.11,-2.08 0,-0.85 -0.48,-1.63 -1.19,-1.94 -1.26,-0.51 -1.33,-0.57 -1.33,-1.02 0,-0.51 0.34,-1.29 0.82,-1.87 0.85,-1.05 2.24,-1.63 3.84,-1.63 2.82,0 4.49,1.74 4.49,4.59 0,2.52 -1.19,4.8 -4.01,7.79 -2.52,2.650002 -4.08,4.320002 -4.66,4.960002 -1.23,1.43 -1.84,2.21 -3.33,4.18 v 0.96 h 15.33 l 0.65,-7.35"
     class="Fingering" />
  <path
     id="path27754"
     d="m 1123.54,95.538888 -11.56,16.080002 v 1.9 h 9.55 v 1.77 c 0,1.73 0,1.8 -0.2,2.11 -0.27,0.37 -0.92,0.47 -2.86,0.47 h -0.37 v 1.6 h 9.93 v -1.6 h -0.14 c -1.94,0 -2.58,-0.1 -2.86,-0.47 -0.2,-0.31 -0.2,-0.34 -0.2,-2.11 v -1.77 h 4.11 v -1.9 h -4.11 v -9.28 c 0,-4.250002 0,-4.360002 0.17,-6.800002 h -1.46 m -2.01,16.080002 h -7.48 l 7.48,-10.3 v 10.3"
     class="Fingering" />
  <path
     id="path27756"
     d="m 1155.82,95.108888 c -1.16,1.39 -4.29,2.45 -7.42,2.52 v 1.46 h 3 c 1.97,0.03 2.17,0.24 2.1,2.140002 v 13.63 c 0,1.74 0,1.81 -0.2,2.11 -0.27,0.34 -0.92,0.48 -2.82,0.48 h -2.21 v 1.6 h 13.46 v -1.6 h -1.87 c -1.9,0 -2.55,-0.14 -2.82,-0.48 -0.24,-0.3 -0.24,-0.34 -0.24,-2.11 v -14.04 c 0,-1.900002 0.07,-3.500002 0.24,-5.710002 h -1.22"
     class="Fingering" />
  <path
     id="path27758"
     d="m 1224.05,101.07889 h -1.49 l -0.34,1.74 c -0.45,2.21 -0.72,2.41 -2.83,2.41 h -7.61 c 2.34,-2.45 3.13,-3.16 5.3,-4.86 3.1,-2.380002 4.42,-3.570002 5.2,-4.590002 1.09,-1.5 1.64,-2.99 1.64,-4.66 0,-3.88 -3.2,-6.63 -7.65,-6.63 -4.32,0 -7.62,2.75 -7.62,6.39 0,2.14 1.09,3.61 2.69,3.61 1.25,0 2.1,-0.85 2.1,-2.08 0,-0.85 -0.47,-1.63 -1.19,-1.94 -1.25,-0.51 -1.32,-0.57 -1.32,-1.02 0,-0.51 0.34,-1.29 0.81,-1.87 0.85,-1.05 2.25,-1.63 3.85,-1.63 2.82,0 4.48,1.74 4.48,4.59 0,2.52 -1.19,4.8 -4.01,7.79 -2.51,2.650002 -4.08,4.320002 -4.66,4.960002 -1.22,1.43 -1.83,2.21 -3.33,4.18 v 0.96 h 15.34 l 0.64,-7.35"
     class="Fingering" />
  <path
     id="path27760"
     d="m 1280.22,73.868888 -11.56,16.08 v 1.91 h 9.56 v 1.76 c 0,1.74 0,1.81 -0.21,2.11 -0.27,0.38 -0.91,0.48 -2.85,0.48 h -0.38 v 1.6 h 9.93 v -1.6 h -0.13 c -1.94,0 -2.59,-0.1 -2.86,-0.48 -0.2,-0.3 -0.2,-0.34 -0.2,-2.11 v -1.76 h 4.11 v -1.91 h -4.11 v -9.28 c 0,-4.25 0,-4.35 0.17,-6.8 h -1.47 m -2,16.08 h -7.48 l 7.48,-10.3 v 10.3"
     class="Fingering" />
  <path
     id="path27762"
     d="m 1332.24,67.798888 c 0,9.55 -7.74,17.29 -17.29,17.29 -9.55,0 -17.3,-7.74 -17.3,-17.29 0,-9.55 7.75,-17.29 17.3,-17.29 9.55,0 17.29,7.74 17.29,17.29"
     fill-rule="evenodd"
     stroke-miterlimit="2"
     stroke-linejoin="miter"
     stroke-linecap="square"
     stroke-width="2.12"
     stroke="#000000"
     fill="none"
     class="Fingering" />
  <path
     id="path27764"
     d="m 1318.02,55.818888 -11.56,16.08 v 1.9 h 9.56 v 1.77 c 0,1.73 0,1.8 -0.21,2.11 -0.27,0.37 -0.91,0.47 -2.85,0.47 h -0.38 v 1.6 h 9.93 v -1.6 h -0.13 c -1.94,0 -2.59,-0.1 -2.86,-0.47 -0.2,-0.31 -0.2,-0.34 -0.2,-2.11 v -1.77 h 4.11 v -1.9 h -4.11 v -9.28 c 0,-4.25 0,-4.36 0.17,-6.8 h -1.47 m -2,16.08 h -7.48 l 7.48,-10.3 v 10.3"
     class="Fingering" />
  <path
     id="path27766"
     d="m 1355.82,73.868888 -11.56,16.08 v 1.91 h 9.56 v 1.76 c 0,1.74 0,1.81 -0.21,2.11 -0.27,0.38 -0.91,0.48 -2.85,0.48 h -0.38 v 1.6 h 9.93 v -1.6 h -0.13 c -1.94,0 -2.59,-0.1 -2.86,-0.48 -0.2,-0.3 -0.2,-0.34 -0.2,-2.11 v -1.76 h 4.11 v -1.91 h -4.11 v -9.28 c 0,-4.25 0,-4.35 0.17,-6.8 h -1.47 m -2,16.08 h -7.48 l 7.48,-10.3 v 10.3"
     class="Fingering" />
  <path
     id="path27768"
     d="m 1458.91,45.588888 c 3.09,-1.13 4.52,-2.86 4.52,-5.58 0,-3.57 -2.72,-5.85 -6.93,-5.85 -3.98,0 -7.01,2.35 -7.01,5.44 0,1.4 0.92,2.38 2.25,2.38 1.19,0 2,-0.81 2,-2.04 0,-0.75 -0.27,-1.19 -1.05,-1.73 -0.34,-0.24 -0.44,-0.38 -0.44,-0.61 0,-0.96 1.97,-1.98 3.91,-1.98 2.44,0 3.74,1.53 3.74,4.42 0,3.17 -1.3,4.83 -3.71,4.83 -0.31,0 -0.88,-0.03 -1.39,-0.07 -0.28,-0.03 -0.55,-0.03 -0.75,-0.03 -0.72,0 -1.09,0.31 -1.09,0.92 0,0.58 0.34,0.85 1.09,0.85 0.2,0 0.47,0 0.78,-0.04 0.68,-0.03 1.22,-0.03 1.6,-0.03 2.51,0 3.87,1.8 3.87,5.17 0,3.53 -1.7,5.51 -4.76,5.51 -2.14,0 -4.45,-1.16 -4.45,-2.21 0,-0.31 0.07,-0.38 0.71,-0.75 0.96,-0.58 1.33,-1.16 1.33,-2.01 0,-1.22 -0.92,-2.14 -2.14,-2.14 -1.46,0 -2.42,1.19 -2.42,2.99 0,3.3 3.03,5.58 7.38,5.58 4.93,0 8.13,-2.72 8.13,-6.9 0,-3.2 -1.63,-5.14 -5.17,-6.12"
     class="Fingering" />
  <path
     id="path27770"
     d="m 1643.06,63.248888 c -1.16,1.39 -4.28,2.45 -7.41,2.52 v 1.46 h 2.99 c 1.97,0.03 2.18,0.24 2.11,2.14 v 13.63 c 0,1.74 0,1.81 -0.21,2.11 -0.27,0.34 -0.91,0.48 -2.82,0.48 h -2.21 v 1.6 h 13.47 v -1.6 h -1.87 c -1.91,0 -2.55,-0.14 -2.83,-0.48 -0.23,-0.3 -0.23,-0.34 -0.23,-2.11 v -14.04 c 0,-1.9 0.06,-3.5 0.23,-5.71 h -1.22"
     class="Fingering" />
  <path
     id="path27772"
     d="m 1733.53,42.008888 c -1.16,1.39 -4.29,2.45 -7.41,2.52 v 1.46 h 2.99 c 1.97,0.03 2.17,0.24 2.11,2.14 v 13.63 c 0,1.74 0,1.81 -0.21,2.11 -0.27,0.34 -0.92,0.48 -2.82,0.48 h -2.21 v 1.6 h 13.46 v -1.6 h -1.87 c -1.9,0 -2.55,-0.14 -2.82,-0.48 -0.24,-0.3 -0.24,-0.34 -0.24,-2.11 v -14.04 c 0,-1.9 0.07,-3.5 0.24,-5.71 h -1.22"
     class="Fingering" />
  <path
     id="path27774"
     d="m 1825.75,31.688888 c 3.1,-1.12 4.52,-2.85 4.52,-5.57 0,-3.57 -2.72,-5.85 -6.93,-5.85 -3.98,0 -7.01,2.35 -7.01,5.44 0,1.39 0.92,2.38 2.25,2.38 1.19,0 2,-0.82 2,-2.04 0,-0.75 -0.27,-1.19 -1.05,-1.73 -0.34,-0.24 -0.44,-0.38 -0.44,-0.62 0,-0.95 1.97,-1.97 3.91,-1.97 2.45,0 3.74,1.53 3.74,4.42 0,3.16 -1.29,4.83 -3.71,4.83 -0.3,0 -0.88,-0.03 -1.39,-0.07 -0.27,-0.03 -0.55,-0.03 -0.75,-0.03 -0.71,0 -1.09,0.3 -1.09,0.92 0,0.57 0.34,0.85 1.09,0.85 0.2,0 0.48,0 0.78,-0.04 0.68,-0.03 1.23,-0.03 1.6,-0.03 2.52,0 3.88,1.8 3.88,5.17 0,3.53 -1.7,5.5 -4.76,5.5 -2.15,0 -4.46,-1.15 -4.46,-2.21 0,-0.3 0.07,-0.37 0.72,-0.74 0.95,-0.58 1.32,-1.16 1.32,-2.01 0,-1.22 -0.92,-2.14 -2.14,-2.14 -1.46,0 -2.41,1.19 -2.41,2.99 0,3.3 3.02,5.58 7.37,5.58 4.93,0 8.13,-2.72 8.13,-6.91 0,-3.19 -1.63,-5.13 -5.17,-6.12"
     class="Fingering" />
  <path
     id="path27776"
     d="m 2023.76,16.828888 c 3.09,-1.13 4.52,-2.86 4.52,-5.58 0,-3.5699997 -2.72,-5.8499997 -6.93,-5.8499997 -3.98,0 -7.01,2.35 -7.01,5.4399997 0,1.4 0.92,2.38 2.25,2.38 1.19,0 2,-0.81 2,-2.04 0,-0.75 -0.27,-1.1899997 -1.05,-1.7299997 -0.34,-0.24 -0.44,-0.38 -0.44,-0.61 0,-0.96 1.97,-1.98 3.91,-1.98 2.44,0 3.74,1.53 3.74,4.4199997 0,3.17 -1.3,4.83 -3.71,4.83 -0.31,0 -0.88,-0.03 -1.39,-0.07 -0.28,-0.03 -0.55,-0.03 -0.75,-0.03 -0.72,0 -1.09,0.31 -1.09,0.92 0,0.58 0.34,0.85 1.09,0.85 0.2,0 0.47,0 0.78,-0.04 0.68,-0.03 1.22,-0.03 1.6,-0.03 2.51,0 3.87,1.8 3.87,5.17 0,3.53 -1.7,5.51 -4.76,5.51 -2.14,0 -4.45,-1.16 -4.45,-2.21 0,-0.31 0.07,-0.38 0.71,-0.75 0.96,-0.58 1.33,-1.16 1.33,-2.01 0,-1.22 -0.92,-2.14 -2.14,-2.14 -1.46,0 -2.42,1.19 -2.42,2.99 0,3.3 3.03,5.58 7.38,5.58 4.93,0 8.13,-2.72 8.13,-6.9 0,-3.2 -1.63,-5.14 -5.17,-6.12"
     class="Fingering" />
  <path
     id="path27778"
     d="m 2279.96,31.388888 c -1.16,1.39 -4.28,2.45 -7.41,2.52 v 1.46 h 2.99 c 1.97,0.03 2.18,0.24 2.11,2.14 v 13.63 c 0,1.74 0,1.81 -0.21,2.11 -0.27,0.34 -0.91,0.48 -2.82,0.48 h -2.21 v 1.6 h 13.47 v -1.6 h -1.87 c -1.91,0 -2.55,-0.14 -2.83,-0.48 -0.23,-0.3 -0.23,-0.34 -0.23,-2.11 v -14.04 c 0,-1.9 0.06,-3.5 0.23,-5.71 h -1.22"
     class="Fingering" />
</svg>
