<?xml version="1.0" encoding="UTF-8" standalone="no"?>
<svg
   xmlns:dc="http://purl.org/dc/elements/1.1/"
   xmlns:cc="http://creativecommons.org/ns#"
   xmlns:rdf="http://www.w3.org/1999/02/22-rdf-syntax-ns#"
   xmlns:svg="http://www.w3.org/2000/svg"
   xmlns="http://www.w3.org/2000/svg"
   xmlns:sodipodi="http://sodipodi.sourceforge.net/DTD/sodipodi-0.dtd"
   xmlns:inkscape="http://www.inkscape.org/namespaces/inkscape"
   inkscape:version="1.0 (4035a4f, 2020-05-01)"
   sodipodi:docname="snippet8.svg"
   id="svg8442"
   version="1.2"
   viewBox="0 0 2340 307.20001"
   height="307.20001"
   width="2340">
  <metadata
     id="metadata8448">
    <rdf:RDF>
      <cc:Work
         rdf:about="">
        <dc:format>image/svg+xml</dc:format>
        <dc:type
           rdf:resource="http://purl.org/dc/dcmitype/StillImage" />
        <dc:title>Batches6Suite1</dc:title>
      </cc:Work>
    </rdf:RDF>
  </metadata>
  <defs
     id="defs8446" />
  <sodipodi:namedview
     inkscape:current-layer="svg8442"
     inkscape:window-maximized="0"
     inkscape:window-y="23"
     inkscape:window-x="0"
     inkscape:cy="-239.41172"
     inkscape:cx="1062.2387"
     inkscape:zoom="0.28431642"
     showgrid="false"
     id="namedview8444"
     inkscape:window-height="855"
     inkscape:window-width="1020"
     inkscape:pageshadow="2"
     inkscape:pageopacity="0"
     guidetolerance="10"
     gridtolerance="10"
     objecttolerance="10"
     borderopacity="1"
     bordercolor="#666666"
     pagecolor="#ffffff" />
  <title
     id="title6764">Batches6Suite1</title>
  <desc
     id="desc6766">Generated by MuseScore 3.6.2</desc>
  <polyline
     transform="translate(-360,-3142.32)"
     id="polyline6808"
     points="360,3300.71 2700,3300.71"
     stroke-linejoin="bevel"
     stroke-width="2.34"
     stroke="#000000"
     fill="none"
     class="StaffLines" />
  <polyline
     transform="translate(-360,-3142.32)"
     id="polyline6810"
     points="360,3321.95 2700,3321.95"
     stroke-linejoin="bevel"
     stroke-width="2.34"
     stroke="#000000"
     fill="none"
     class="StaffLines" />
  <polyline
     transform="translate(-360,-3142.32)"
     id="polyline6812"
     points="360,3343.19 2700,3343.19"
     stroke-linejoin="bevel"
     stroke-width="2.34"
     stroke="#000000"
     fill="none"
     class="StaffLines" />
  <polyline
     transform="translate(-360,-3142.32)"
     id="polyline6814"
     points="360,3364.43 2700,3364.43"
     stroke-linejoin="bevel"
     stroke-width="2.34"
     stroke="#000000"
     fill="none"
     class="StaffLines" />
  <polyline
     transform="translate(-360,-3142.32)"
     id="polyline6816"
     points="360,3385.67 2700,3385.67"
     stroke-linejoin="bevel"
     stroke-width="2.34"
     stroke="#000000"
     fill="none"
     class="StaffLines" />
  <path
     id="path6926"
     d="M 200.37,146.33 C 251.627,91.53 421.727,72.41 483.868,114.47 422.391,78.32 252.292,97.44 200.37,146.33"
     fill-rule="evenodd"
     stroke-linejoin="round"
     stroke-linecap="round"
     stroke-width="1.49"
     stroke="#000000"
     class="SlurSegment" />
  <path
     id="path6928"
     d="M 540.568,82.09 C 567.923,26.82 623.945,28.07 652.61,84.58 623.813,34.01 567.791,32.77 540.568,82.09"
     fill-rule="evenodd"
     stroke-linejoin="round"
     stroke-linecap="round"
     stroke-width="1.49"
     stroke="#000000"
     class="SlurSegment" />
  <path
     id="path6930"
     d="m 710.67,51.25 c 18.4,-40.14 75.1,-58.3 113.4,-36.33 -36.49,-16.31 -93.19,1.85 -113.4,36.33"
     fill-rule="evenodd"
     stroke-linejoin="round"
     stroke-linecap="round"
     stroke-width="1.49"
     stroke="#000000"
     class="SlurSegment" />
  <path
     id="path6932"
     d="m 912.84,219.98 c 47.98,-5.03 99.98,-58.13 104.01,-106.2 0.22,52.23 -51.78,105.33 -104.01,106.2"
     fill-rule="evenodd"
     stroke-linejoin="round"
     stroke-linecap="round"
     stroke-width="1.49"
     stroke="#000000"
     class="SlurSegment" />
  <path
     id="path6934"
     d="m 1068.85,128.65 c 29.07,-27.4 81.08,-22.09 104.01,10.62 -23.54,-26.79 -75.54,-32.1 -104.01,-10.62"
     fill-rule="evenodd"
     stroke-linejoin="round"
     stroke-linecap="round"
     stroke-width="1.49"
     stroke="#000000"
     class="SlurSegment" />
  <path
     id="path6936"
     d="m 1224.86,128.65 c -4.08,-30.01 21.92,-56.56 52,-53.1 -25.83,0.7 -51.83,27.25 -52,53.1"
     fill-rule="evenodd"
     stroke-linejoin="round"
     stroke-linecap="round"
     stroke-width="1.49"
     stroke="#000000"
     class="SlurSegment" />
  <path
     id="path6938"
     d="m 1380.87,128.65 c -4.08,-30.01 21.92,-56.56 52,-53.1 -25.83,0.7 -51.84,27.25 -52,53.1"
     fill-rule="evenodd"
     stroke-linejoin="round"
     stroke-linecap="round"
     stroke-width="1.49"
     stroke="#000000"
     class="SlurSegment" />
  <path
     id="path6940"
     d="m 1591.71,304.94 c 48.53,-9.04 97.79,-67.45 98.53,-116.82 3.81,53.2 -45.45,111.61 -98.53,116.82"
     fill-rule="evenodd"
     stroke-linejoin="round"
     stroke-linecap="round"
     stroke-width="1.49"
     stroke="#000000"
     class="SlurSegment" />
  <path
     id="path6942"
     d="m 1739.5,241.22 c 22.14,25.8 71.41,31.11 98.54,10.62 -27.77,26.4 -77.03,21.09 -98.54,-10.62"
     fill-rule="evenodd"
     stroke-linejoin="round"
     stroke-linecap="round"
     stroke-width="1.49"
     stroke="#000000"
     class="SlurSegment" />
  <path
     id="path6944"
     d="m 1887.3,202.99 c -4.86,-29.22 19.77,-55.77 49.27,-53.1 -25.14,1.38 -49.78,27.93 -49.27,53.1"
     fill-rule="evenodd"
     stroke-linejoin="round"
     stroke-linecap="round"
     stroke-width="1.49"
     stroke="#000000"
     class="SlurSegment" />
  <path
     id="path6946"
     d="m 2035.1,241.22 c 25.14,-1.38 49.77,-27.93 49.26,-53.1 4.87,29.22 -19.76,55.77 -49.26,53.1"
     fill-rule="evenodd"
     stroke-linejoin="round"
     stroke-linecap="round"
     stroke-width="1.49"
     stroke="#000000"
     class="SlurSegment" />
  <polyline
     transform="translate(-360,-3142.32)"
     id="polyline7000"
     points="1231.64,3299.54 1231.64,3386.83"
     stroke-linejoin="bevel"
     stroke-width="3.82"
     stroke="#000000"
     class="BarLine" />
  <polyline
     transform="translate(-360,-3142.32)"
     id="polyline7002"
     points="1903.07,3299.54 1903.07,3386.83"
     stroke-linejoin="bevel"
     stroke-width="3.82"
     stroke="#000000"
     class="BarLine" />
  <polyline
     transform="translate(-360,-3142.32)"
     id="polyline7004"
     points="2541.2,3299.54 2541.2,3386.83"
     stroke-linejoin="bevel"
     stroke-width="3.82"
     stroke="#000000"
     class="BarLine" />
  <polyline
     transform="translate(-360,-3142.32)"
     id="polyline7150"
     points="879.331,3279.47 921.805,3279.47"
     stroke-linejoin="bevel"
     stroke-width="3.4"
     stroke="#000000"
     class="LedgerLine" />
  <polyline
     transform="translate(-360,-3142.32)"
     id="polyline7152"
     points="936.031,3279.47 978.504,3279.47"
     stroke-linejoin="bevel"
     stroke-width="3.4"
     stroke="#000000"
     class="LedgerLine" />
  <polyline
     transform="translate(-360,-3142.32)"
     id="polyline7154"
     points="992.731,3279.47 1035.2,3279.47"
     stroke-linejoin="bevel"
     stroke-width="3.4"
     stroke="#000000"
     class="LedgerLine" />
  <polyline
     transform="translate(-360,-3142.32)"
     id="polyline7156"
     points="992.731,3258.23 1035.2,3258.23"
     stroke-linejoin="bevel"
     stroke-width="3.4"
     stroke="#000000"
     class="LedgerLine" />
  <polyline
     transform="translate(-360,-3142.32)"
     id="polyline7158"
     points="1049.43,3279.47 1091.9,3279.47"
     stroke-linejoin="bevel"
     stroke-width="3.4"
     stroke="#000000"
     class="LedgerLine" />
  <polyline
     transform="translate(-360,-3142.32)"
     id="polyline7160"
     points="1049.43,3258.23 1091.9,3258.23"
     stroke-linejoin="bevel"
     stroke-width="3.4"
     stroke="#000000"
     class="LedgerLine" />
  <polyline
     transform="translate(-360,-3142.32)"
     id="polyline7162"
     points="1106.13,3279.47 1148.6,3279.47"
     stroke-linejoin="bevel"
     stroke-width="3.4"
     stroke="#000000"
     class="LedgerLine" />
  <polyline
     transform="translate(-360,-3142.32)"
     id="polyline7164"
     points="1106.13,3258.23 1148.6,3258.23"
     stroke-linejoin="bevel"
     stroke-width="3.4"
     stroke="#000000"
     class="LedgerLine" />
  <polyline
     transform="translate(-360,-3142.32)"
     id="polyline7166"
     points="1106.13,3236.99 1148.6,3236.99"
     stroke-linejoin="bevel"
     stroke-width="3.4"
     stroke="#000000"
     class="LedgerLine" />
  <polyline
     transform="translate(-360,-3142.32)"
     id="polyline7168"
     points="1162.83,3279.47 1205.3,3279.47"
     stroke-linejoin="bevel"
     stroke-width="3.4"
     stroke="#000000"
     class="LedgerLine" />
  <polyline
     transform="translate(-360,-3142.32)"
     id="polyline7170"
     points="1162.83,3258.23 1205.3,3258.23"
     stroke-linejoin="bevel"
     stroke-width="3.4"
     stroke="#000000"
     class="LedgerLine" />
  <polyline
     transform="translate(-360,-3142.32)"
     id="polyline7172"
     points="1162.83,3236.99 1205.3,3236.99"
     stroke-linejoin="bevel"
     stroke-width="3.4"
     stroke="#000000"
     class="LedgerLine" />
  <polyline
     transform="translate(-360,-3142.32)"
     id="polyline7174"
     points="1355.61,3279.47 1398.09,3279.47"
     stroke-linejoin="bevel"
     stroke-width="3.4"
     stroke="#000000"
     class="LedgerLine" />
  <polyline
     transform="translate(-360,-3142.32)"
     id="polyline7176"
     points="1355.61,3258.23 1398.09,3258.23"
     stroke-linejoin="bevel"
     stroke-width="3.4"
     stroke="#000000"
     class="LedgerLine" />
  <polyline
     transform="translate(-360,-3142.32)"
     id="polyline7178"
     points="1355.61,3236.99 1398.09,3236.99"
     stroke-linejoin="bevel"
     stroke-width="3.4"
     stroke="#000000"
     class="LedgerLine" />
  <polyline
     transform="translate(-360,-3142.32)"
     id="polyline7180"
     points="1615.63,3279.47 1658.1,3279.47"
     stroke-linejoin="bevel"
     stroke-width="3.4"
     stroke="#000000"
     class="LedgerLine" />
  <polyline
     transform="translate(-360,-3142.32)"
     id="polyline7182"
     points="1615.63,3258.23 1658.1,3258.23"
     stroke-linejoin="bevel"
     stroke-width="3.4"
     stroke="#000000"
     class="LedgerLine" />
  <polyline
     transform="translate(-360,-3142.32)"
     id="polyline7184"
     points="1615.63,3236.99 1658.1,3236.99"
     stroke-linejoin="bevel"
     stroke-width="3.4"
     stroke="#000000"
     class="LedgerLine" />
  <polyline
     transform="translate(-360,-3142.32)"
     id="polyline7186"
     points="1771.64,3279.47 1814.11,3279.47"
     stroke-linejoin="bevel"
     stroke-width="3.4"
     stroke="#000000"
     class="LedgerLine" />
  <polyline
     transform="translate(-360,-3142.32)"
     id="polyline7188"
     points="1771.64,3258.23 1814.11,3258.23"
     stroke-linejoin="bevel"
     stroke-width="3.4"
     stroke="#000000"
     class="LedgerLine" />
  <polyline
     transform="translate(-360,-3142.32)"
     id="polyline7190"
     points="1771.64,3236.99 1814.11,3236.99"
     stroke-linejoin="bevel"
     stroke-width="3.4"
     stroke="#000000"
     class="LedgerLine" />
  <polyline
     transform="translate(-360,-3142.32)"
     id="polyline7192"
     points="1930.47,3428.15 1972.94,3428.15"
     stroke-linejoin="bevel"
     stroke-width="3.4"
     stroke="#000000"
     class="LedgerLine" />
  <polyline
     transform="translate(-360,-3142.32)"
     id="polyline7194"
     points="1930.47,3406.91 1972.94,3406.91"
     stroke-linejoin="bevel"
     stroke-width="3.4"
     stroke="#000000"
     class="LedgerLine" />
  <polyline
     transform="translate(-360,-3142.32)"
     id="polyline7196"
     points="2568.6,3428.15 2611.08,3428.15"
     stroke-linejoin="bevel"
     stroke-width="3.4"
     stroke="#000000"
     class="LedgerLine" />
  <polyline
     transform="translate(-360,-3142.32)"
     id="polyline7198"
     points="2568.6,3406.91 2611.08,3406.91"
     stroke-linejoin="bevel"
     stroke-width="3.4"
     stroke="#000000"
     class="LedgerLine" />
  <polyline
     transform="translate(-360,-3142.32)"
     id="polyline7500"
     points="547.735,3324.8 547.735,3406.91"
     stroke-linejoin="bevel"
     stroke-width="2.34"
     stroke="#000000"
     class="Stem" />
  <polyline
     transform="translate(-360,-3142.32)"
     id="polyline7502"
     points="604.435,3346.04 604.435,3406.91"
     stroke-linejoin="bevel"
     stroke-width="2.34"
     stroke="#000000"
     class="Stem" />
  <polyline
     transform="translate(-360,-3142.32)"
     id="polyline7504"
     points="661.135,3335.42 661.135,3406.91"
     stroke-linejoin="bevel"
     stroke-width="2.34"
     stroke="#000000"
     class="Stem" />
  <polyline
     transform="translate(-360,-3142.32)"
     id="polyline7506"
     points="717.834,3324.8 717.834,3385.67"
     stroke-linejoin="bevel"
     stroke-width="2.34"
     stroke="#000000"
     class="Stem" />
  <polyline
     transform="translate(-360,-3142.32)"
     id="polyline7508"
     points="774.534,3303.56 774.534,3372.39"
     stroke-linejoin="bevel"
     stroke-width="2.34"
     stroke="#000000"
     class="Stem" />
  <polyline
     transform="translate(-360,-3142.32)"
     id="polyline7510"
     points="831.234,3292.94 831.234,3359.12"
     stroke-linejoin="bevel"
     stroke-width="2.34"
     stroke="#000000"
     class="Stem" />
  <polyline
     transform="translate(-360,-3142.32)"
     id="polyline7512"
     points="887.934,3282.32 887.934,3337.88"
     stroke-linejoin="bevel"
     stroke-width="2.34"
     stroke="#000000"
     class="Stem" />
  <polyline
     transform="translate(-360,-3142.32)"
     id="polyline7514"
     points="944.633,3271.7 944.633,3332.57"
     stroke-linejoin="bevel"
     stroke-width="2.34"
     stroke="#000000"
     class="Stem" />
  <polyline
     transform="translate(-360,-3142.32)"
     id="polyline7516"
     points="1001.33,3261.08 1001.33,3327.26"
     stroke-linejoin="bevel"
     stroke-width="2.34"
     stroke="#000000"
     class="Stem" />
  <polyline
     transform="translate(-360,-3142.32)"
     id="polyline7518"
     points="1058.03,3250.46 1058.03,3343.19"
     stroke-linejoin="bevel"
     stroke-width="2.34"
     stroke="#000000"
     class="Stem" />
  <polyline
     transform="translate(-360,-3142.32)"
     id="polyline7520"
     points="1114.73,3239.84 1114.73,3340.53"
     stroke-linejoin="bevel"
     stroke-width="2.34"
     stroke="#000000"
     class="Stem" />
  <polyline
     transform="translate(-360,-3142.32)"
     id="polyline7522"
     points="1171.43,3229.22 1171.43,3337.88"
     stroke-linejoin="bevel"
     stroke-width="2.34"
     stroke="#000000"
     class="Stem" />
  <polyline
     transform="translate(-360,-3142.32)"
     id="polyline7524"
     points="1285.48,3340.47 1285.48,3210.44"
     stroke-linejoin="bevel"
     stroke-width="2.34"
     stroke="#000000"
     class="Stem" />
  <polyline
     transform="translate(-360,-3142.32)"
     id="polyline7526"
     points="1337.48,3287.37 1337.48,3194.51"
     stroke-linejoin="bevel"
     stroke-width="2.34"
     stroke="#000000"
     class="Stem" />
  <polyline
     transform="translate(-360,-3142.32)"
     id="polyline7528"
     points="1389.48,3234.27 1389.48,3178.58"
     stroke-linejoin="bevel"
     stroke-width="2.34"
     stroke="#000000"
     class="Stem" />
  <polyline
     transform="translate(-360,-3142.32)"
     id="polyline7530"
     points="1416.22,3292.94 1416.22,3369.74"
     stroke-linejoin="bevel"
     stroke-width="2.34"
     stroke="#000000"
     class="Stem" />
  <polyline
     transform="translate(-360,-3142.32)"
     id="polyline7532"
     points="1468.22,3314.18 1468.22,3369.74"
     stroke-linejoin="bevel"
     stroke-width="2.34"
     stroke="#000000"
     class="Stem" />
  <polyline
     transform="translate(-360,-3142.32)"
     id="polyline7534"
     points="1520.22,3303.56 1520.22,3369.74"
     stroke-linejoin="bevel"
     stroke-width="2.34"
     stroke="#000000"
     class="Stem" />
  <polyline
     transform="translate(-360,-3142.32)"
     id="polyline7536"
     points="1572.23,3292.94 1572.23,3359.12"
     stroke-linejoin="bevel"
     stroke-width="2.34"
     stroke="#000000"
     class="Stem" />
  <polyline
     transform="translate(-360,-3142.32)"
     id="polyline7538"
     points="1624.23,3239.84 1624.23,3361.77"
     stroke-linejoin="bevel"
     stroke-width="2.34"
     stroke="#000000"
     class="Stem" />
  <polyline
     transform="translate(-360,-3142.32)"
     id="polyline7540"
     points="1676.23,3303.56 1676.23,3364.43"
     stroke-linejoin="bevel"
     stroke-width="2.34"
     stroke="#000000"
     class="Stem" />
  <polyline
     transform="translate(-360,-3142.32)"
     id="polyline7542"
     points="1728.24,3292.94 1728.24,3359.12"
     stroke-linejoin="bevel"
     stroke-width="2.34"
     stroke="#000000"
     class="Stem" />
  <polyline
     transform="translate(-360,-3142.32)"
     id="polyline7544"
     points="1780.24,3239.84 1780.24,3364.43"
     stroke-linejoin="bevel"
     stroke-width="2.34"
     stroke="#000000"
     class="Stem" />
  <polyline
     transform="translate(-360,-3142.32)"
     id="polyline7546"
     points="1832.24,3314.18 1832.24,3369.74"
     stroke-linejoin="bevel"
     stroke-width="2.34"
     stroke="#000000"
     class="Stem" />
  <polyline
     transform="translate(-360,-3142.32)"
     id="polyline7548"
     points="1964.34,3425.43 1964.34,3295.4"
     stroke-linejoin="bevel"
     stroke-width="2.34"
     stroke="#000000"
     class="Stem" />
  <polyline
     transform="translate(-360,-3142.32)"
     id="polyline7550"
     points="2013.61,3361.71 2013.61,3276.81"
     stroke-linejoin="bevel"
     stroke-width="2.34"
     stroke="#000000"
     class="Stem" />
  <polyline
     transform="translate(-360,-3142.32)"
     id="polyline7552"
     points="2062.87,3308.61 2062.87,3258.23"
     stroke-linejoin="bevel"
     stroke-width="2.34"
     stroke="#000000"
     class="Stem" />
  <polyline
     transform="translate(-360,-3142.32)"
     id="polyline7554"
     points="2112.14,3361.71 2112.14,3300.71"
     stroke-linejoin="bevel"
     stroke-width="2.34"
     stroke="#000000"
     class="Stem" />
  <polyline
     transform="translate(-360,-3142.32)"
     id="polyline7556"
     points="2161.4,3382.95 2161.4,3303.36"
     stroke-linejoin="bevel"
     stroke-width="2.34"
     stroke="#000000"
     class="Stem" />
  <polyline
     transform="translate(-360,-3142.32)"
     id="polyline7558"
     points="2210.67,3372.33 2210.67,3306.02"
     stroke-linejoin="bevel"
     stroke-width="2.34"
     stroke="#000000"
     class="Stem" />
  <polyline
     transform="translate(-360,-3142.32)"
     id="polyline7560"
     points="2234.67,3367.28 2234.67,3438.77"
     stroke-linejoin="bevel"
     stroke-width="2.34"
     stroke="#000000"
     class="Stem" />
  <polyline
     transform="translate(-360,-3142.32)"
     id="polyline7562"
     points="2283.93,3314.18 2283.93,3441.42"
     stroke-linejoin="bevel"
     stroke-width="2.34"
     stroke="#000000"
     class="Stem" />
  <polyline
     transform="translate(-360,-3142.32)"
     id="polyline7564"
     points="2333.2,3377.9 2333.2,3444.08"
     stroke-linejoin="bevel"
     stroke-width="2.34"
     stroke="#000000"
     class="Stem" />
  <polyline
     transform="translate(-360,-3142.32)"
     id="polyline7566"
     points="2407.73,3361.71 2407.73,3258.23"
     stroke-linejoin="bevel"
     stroke-width="2.34"
     stroke="#000000"
     class="Stem" />
  <polyline
     transform="translate(-360,-3142.32)"
     id="polyline7568"
     points="2457,3308.61 2457,3258.23"
     stroke-linejoin="bevel"
     stroke-width="2.34"
     stroke="#000000"
     class="Stem" />
  <polyline
     transform="translate(-360,-3142.32)"
     id="polyline7570"
     points="2506.26,3382.95 2506.26,3258.23"
     stroke-linejoin="bevel"
     stroke-width="2.34"
     stroke="#000000"
     class="Stem" />
  <polyline
     transform="translate(-360,-3142.32)"
     id="polyline7572"
     points="2602.47,3425.43 2602.47,3343.19"
     stroke-linejoin="bevel"
     stroke-width="2.34"
     stroke="#000000"
     class="Stem" />
  <path
     style="stroke-width:0.8496"
     id="path7874"
     d="m 213.3294,172.74824 c -1.52928,-2.80368 -4.75776,-4.33296 -8.66592,-4.33296 -2.88864,0 -6.03216,0.8496 -9.09072,2.46384 -5.60736,2.9736 -9.00576,7.98624 -9.00576,12.3192 0,1.18944 0.25488,2.37888 0.8496,3.48336 1.52928,2.80368 4.75776,4.248 8.66592,4.248 2.88864,0 6.03216,-0.76464 9.09072,-2.37888 5.60736,-2.9736 9.00576,-7.98624 9.00576,-12.3192 0,-1.18944 -0.25488,-2.37888 -0.8496,-3.48336"
     class="Note" />
  <path
     style="stroke-width:0.8496"
     id="path7876"
     d="m 270.0294,193.98824 c -1.52928,-2.80368 -4.75776,-4.33296 -8.66592,-4.33296 -2.88864,0 -6.03216,0.8496 -9.09072,2.46384 -5.60736,2.9736 -9.00576,7.98624 -9.00576,12.3192 0,1.18944 0.25488,2.37888 0.8496,3.48336 1.52928,2.80368 4.75776,4.248 8.66592,4.248 2.88864,0 6.03216,-0.76464 9.09072,-2.37888 5.60736,-2.9736 9.00576,-7.98624 9.00576,-12.3192 0,-1.18944 -0.25488,-2.37888 -0.8496,-3.48336"
     class="Note" />
  <path
     style="stroke-width:0.8496"
     id="path7878"
     d="m 326.7284,183.36824 c -1.52928,-2.80368 -4.75776,-4.33296 -8.66592,-4.33296 -2.88864,0 -6.03216,0.8496 -9.09072,2.46384 -5.60736,2.9736 -9.00576,7.98624 -9.00576,12.3192 0,1.18944 0.25488,2.37888 0.8496,3.48336 1.52928,2.80368 4.75776,4.248 8.66592,4.248 2.88864,0 6.03216,-0.76464 9.09072,-2.37888 5.60736,-2.9736 9.00576,-7.98624 9.00576,-12.3192 0,-1.18944 -0.25488,-2.37888 -0.8496,-3.48336"
     class="Note" />
  <path
     style="stroke-width:0.8496"
     id="path7880"
     d="m 383.4284,172.74824 c -1.52928,-2.80368 -4.75776,-4.33296 -8.66592,-4.33296 -2.88864,0 -6.03216,0.8496 -9.09072,2.46384 -5.60736,2.9736 -9.00576,7.98624 -9.00576,12.3192 0,1.18944 0.25488,2.37888 0.8496,3.48336 1.52928,2.80368 4.75776,4.248 8.66592,4.248 2.88864,0 6.03216,-0.76464 9.09072,-2.37888 5.60736,-2.9736 9.00576,-7.98624 9.00576,-12.3192 0,-1.18944 -0.25488,-2.37888 -0.8496,-3.48336"
     class="Note" />
  <path
     style="stroke-width:0.8496"
     id="path7882"
     d="m 440.1284,151.50824 c -1.52928,-2.80368 -4.75776,-4.33296 -8.66592,-4.33296 -2.88864,0 -6.03216,0.8496 -9.09072,2.46384 -5.60736,2.9736 -9.00576,7.98624 -9.00576,12.3192 0,1.18944 0.25488,2.37888 0.8496,3.48336 1.52928,2.80368 4.75776,4.248 8.66592,4.248 2.88864,0 6.03216,-0.76464 9.09072,-2.37888 5.60736,-2.9736 9.00576,-7.98624 9.00576,-12.3192 0,-1.18944 -0.25488,-2.37888 -0.8496,-3.48336"
     class="Note" />
  <path
     style="stroke-width:0.8496"
     id="path7884"
     d="m 496.8284,140.88824 c -1.52928,-2.80368 -4.75776,-4.33296 -8.66592,-4.33296 -2.88864,0 -6.03216,0.8496 -9.09072,2.46384 -5.60736,2.9736 -9.00576,7.98624 -9.00576,12.3192 0,1.18944 0.25488,2.37888 0.8496,3.48336 1.52928,2.80368 4.75776,4.248 8.66592,4.248 2.88864,0 6.03216,-0.76464 9.09072,-2.37888 5.60736,-2.9736 9.00576,-7.98624 9.00576,-12.3192 0,-1.18944 -0.25488,-2.37888 -0.8496,-3.48336"
     class="Note" />
  <path
     style="stroke-width:0.8496"
     id="path7886"
     d="m 553.5274,130.26824 c -1.52928,-2.80368 -4.75776,-4.33296 -8.66592,-4.33296 -2.88864,0 -6.03216,0.8496 -9.09072,2.46384 -5.60736,2.9736 -9.00576,7.98624 -9.00576,12.3192 0,1.18944 0.25488,2.37888 0.8496,3.48336 1.52928,2.80368 4.75776,4.248 8.66592,4.248 2.88864,0 6.03216,-0.76464 9.09072,-2.37888 5.60736,-2.9736 9.00576,-7.98624 9.00576,-12.3192 0,-1.18944 -0.25488,-2.37888 -0.8496,-3.48336"
     class="Note" />
  <path
     style="stroke-width:0.8496"
     id="path7888"
     d="m 610.2274,119.64824 c -1.52928,-2.80368 -4.75776,-4.33296 -8.66592,-4.33296 -2.88864,0 -6.03216,0.8496 -9.09072,2.46384 -5.60736,2.9736 -9.00576,7.98624 -9.00576,12.3192 0,1.18944 0.25488,2.37888 0.8496,3.48336 1.52928,2.80368 4.75776,4.248 8.66592,4.248 2.88864,0 6.03216,-0.76464 9.09072,-2.37888 5.60736,-2.9736 9.00576,-7.98624 9.00576,-12.3192 0,-1.18944 -0.25488,-2.37888 -0.8496,-3.48336"
     class="Note" />
  <path
     style="stroke-width:0.8496"
     id="path7890"
     d="m 666.9224,109.02824 c -1.52928,-2.80368 -4.75776,-4.33296 -8.66592,-4.33296 -2.88864,0 -6.03216,0.8496 -9.09072,2.46384 -5.60736,2.9736 -9.00576,7.98624 -9.00576,12.3192 0,1.18944 0.25488,2.37888 0.8496,3.48336 1.52928,2.80368 4.75776,4.248 8.66592,4.248 2.88864,0 6.03216,-0.76464 9.09072,-2.37888 5.60736,-2.9736 9.00576,-7.98624 9.00576,-12.3192 0,-1.18944 -0.25488,-2.37888 -0.8496,-3.48336"
     class="Note" />
  <path
     style="stroke-width:0.8496"
     id="path7892"
     d="m 723.6224,98.40824 c -1.52928,-2.80368 -4.75776,-4.33296 -8.66592,-4.33296 -2.88864,0 -6.03216,0.8496 -9.09072,2.46384 -5.60736,2.9736 -9.00576,7.98624 -9.00576,12.3192 0,1.18944 0.25488,2.37888 0.8496,3.48336 1.52928,2.80368 4.75776,4.248 8.66592,4.248 2.88864,0 6.03216,-0.76464 9.09072,-2.37888 5.60736,-2.9736 9.00576,-7.98624 9.00576,-12.3192 0,-1.18944 -0.25488,-2.37888 -0.8496,-3.48336"
     class="Note" />
  <path
     style="stroke-width:0.8496"
     id="path7894"
     d="m 780.3224,87.78824 c -1.52928,-2.80368 -4.75776,-4.33296 -8.66592,-4.33296 -2.88864,0 -6.03216,0.8496 -9.09072,2.46384 -5.60736,2.9736 -9.00576,7.98624 -9.00576,12.3192 0,1.18944 0.25488,2.37888 0.8496,3.48336 1.52928,2.80368 4.75776,4.248 8.66592,4.248 2.88864,0 6.03216,-0.76464 9.09072,-2.37888 5.60736,-2.9736 9.00576,-7.98624 9.00576,-12.3192 0,-1.18944 -0.25488,-2.37888 -0.8496,-3.48336"
     class="Note" />
  <path
     style="stroke-width:0.8496"
     id="path7896"
     d="m 837.0224,77.16824 c -1.52928,-2.80368 -4.75776,-4.33296 -8.66592,-4.33296 -2.88864,0 -6.03216,0.8496 -9.09072,2.46384 -5.60736,2.9736 -9.00576,7.98624 -9.00576,12.3192 0,1.18944 0.25488,2.37888 0.8496,3.48336 1.52928,2.80368 4.75776,4.248 8.66592,4.248 2.88864,0 6.03216,-0.76464 9.09072,-2.37888 5.60736,-2.9736 9.00576,-7.98624 9.00576,-12.3192 0,-1.18944 -0.25488,-2.37888 -0.8496,-3.48336"
     class="Note" />
  <path
     style="stroke-width:0.8496"
     id="path7898"
     d="m 925.8024,193.98824 c -1.52928,-2.80368 -4.75776,-4.33296 -8.66592,-4.33296 -2.88864,0 -6.03216,0.8496 -9.09072,2.46384 -5.60736,2.9736 -9.00576,7.98624 -9.00576,12.3192 0,1.18944 0.25488,2.37888 0.8496,3.48336 1.52928,2.80368 4.75776,4.248 8.66592,4.248 2.88864,0 6.03216,-0.76464 9.09072,-2.37888 5.60736,-2.9736 9.00576,-7.98624 9.00576,-12.3192 0,-1.18944 -0.25488,-2.37888 -0.8496,-3.48336"
     class="Note" />
  <path
     style="stroke-width:0.8496"
     id="path7900"
     d="m 977.8024,140.88824 c -1.52928,-2.80368 -4.75776,-4.33296 -8.66592,-4.33296 -2.88864,0 -6.03216,0.8496 -9.09072,2.46384 -5.60736,2.9736 -9.00576,7.98624 -9.00576,12.3192 0,1.18944 0.25488,2.37888 0.8496,3.48336 1.52928,2.80368 4.75776,4.248 8.66592,4.248 2.88864,0 6.03216,-0.76464 9.09072,-2.37888 5.60736,-2.9736 9.00576,-7.98624 9.00576,-12.3192 0,-1.18944 -0.25488,-2.37888 -0.8496,-3.48336"
     class="Note" />
  <path
     style="stroke-width:0.8496"
     id="path7902"
     d="m 1029.8124,87.78824 c -1.5293,-2.80368 -4.7578,-4.33296 -8.6659,-4.33296 -2.8887,0 -6.0322,0.8496 -9.0907,2.46384 -5.6074,2.9736 -9.0058,7.98624 -9.0058,12.3192 0,1.18944 0.2549,2.37888 0.8496,3.48336 1.5293,2.80368 4.7578,4.248 8.6659,4.248 2.8887,0 6.0322,-0.76464 9.0907,-2.37888 5.6074,-2.9736 9.0058,-7.98624 9.0058,-12.3192 0,-1.18944 -0.2549,-2.37888 -0.8496,-3.48336"
     class="Note" />
  <path
     style="stroke-width:0.8496"
     id="path7904"
     d="m 1081.8124,140.88824 c -1.5293,-2.80368 -4.7578,-4.33296 -8.6659,-4.33296 -2.8887,0 -6.0322,0.8496 -9.0907,2.46384 -5.6074,2.9736 -9.0058,7.98624 -9.0058,12.3192 0,1.18944 0.2549,2.37888 0.8496,3.48336 1.5293,2.80368 4.7578,4.248 8.6659,4.248 2.8887,0 6.0322,-0.76464 9.0907,-2.37888 5.6074,-2.9736 9.0058,-7.98624 9.0058,-12.3192 0,-1.18944 -0.2549,-2.37888 -0.8496,-3.48336"
     class="Note" />
  <path
     style="stroke-width:0.8496"
     id="path7906"
     d="m 1133.8124,162.12824 c -1.5293,-2.80368 -4.7578,-4.33296 -8.6659,-4.33296 -2.8887,0 -6.0322,0.8496 -9.0907,2.46384 -5.6074,2.9736 -9.0058,7.98624 -9.0058,12.3192 0,1.18944 0.2549,2.37888 0.8496,3.48336 1.5293,2.80368 4.7578,4.248 8.6659,4.248 2.8887,0 6.0322,-0.76464 9.0907,-2.37888 5.6074,-2.9736 9.0058,-7.98624 9.0058,-12.3192 0,-1.18944 -0.2549,-2.37888 -0.8496,-3.48336"
     class="Note" />
  <path
     style="stroke-width:0.8496"
     id="path7908"
     d="m 1185.8224,151.50824 c -1.5293,-2.80368 -4.7578,-4.33296 -8.6659,-4.33296 -2.8887,0 -6.0322,0.8496 -9.0907,2.46384 -5.6074,2.9736 -9.0058,7.98624 -9.0058,12.3192 0,1.18944 0.2549,2.37888 0.8496,3.48336 1.5293,2.80368 4.7578,4.248 8.6659,4.248 2.8887,0 6.0322,-0.76464 9.0907,-2.37888 5.6074,-2.9736 9.0058,-7.98624 9.0058,-12.3192 0,-1.18944 -0.2549,-2.37888 -0.8496,-3.48336"
     class="Note" />
  <path
     style="stroke-width:0.8496"
     id="path7910"
     d="m 1237.8224,140.88824 c -1.5293,-2.80368 -4.7578,-4.33296 -8.6659,-4.33296 -2.8887,0 -6.0322,0.8496 -9.0907,2.46384 -5.6074,2.9736 -9.0058,7.98624 -9.0058,12.3192 0,1.18944 0.2549,2.37888 0.8496,3.48336 1.5293,2.80368 4.7578,4.248 8.6659,4.248 2.8887,0 6.0322,-0.76464 9.0907,-2.37888 5.6074,-2.9736 9.0058,-7.98624 9.0058,-12.3192 0,-1.18944 -0.2549,-2.37888 -0.8496,-3.48336"
     class="Note" />
  <path
     style="stroke-width:0.8496"
     id="path7912"
     d="m 1289.8224,87.78824 c -1.5293,-2.80368 -4.7578,-4.33296 -8.6659,-4.33296 -2.8887,0 -6.0322,0.8496 -9.0907,2.46384 -5.6074,2.9736 -9.0058,7.98624 -9.0058,12.3192 0,1.18944 0.2549,2.37888 0.8496,3.48336 1.5293,2.80368 4.7578,4.248 8.6659,4.248 2.8887,0 6.0322,-0.76464 9.0907,-2.37888 5.6074,-2.9736 9.0058,-7.98624 9.0058,-12.3192 0,-1.18944 -0.2549,-2.37888 -0.8496,-3.48336"
     class="Note" />
  <path
     style="stroke-width:0.8496"
     id="path7914"
     d="m 1341.8224,151.50824 c -1.5293,-2.80368 -4.7578,-4.33296 -8.6659,-4.33296 -2.8887,0 -6.0322,0.8496 -9.0907,2.46384 -5.6074,2.9736 -9.0058,7.98624 -9.0058,12.3192 0,1.18944 0.2549,2.37888 0.8496,3.48336 1.5293,2.80368 4.7578,4.248 8.6659,4.248 2.8887,0 6.0322,-0.76464 9.0907,-2.37888 5.6074,-2.9736 9.0058,-7.98624 9.0058,-12.3192 0,-1.18944 -0.2549,-2.37888 -0.8496,-3.48336"
     class="Note" />
  <path
     style="stroke-width:0.8496"
     id="path7916"
     d="m 1393.8324,140.88824 c -1.5293,-2.80368 -4.7578,-4.33296 -8.6659,-4.33296 -2.8887,0 -6.0322,0.8496 -9.0907,2.46384 -5.6074,2.9736 -9.0058,7.98624 -9.0058,12.3192 0,1.18944 0.2549,2.37888 0.8496,3.48336 1.5293,2.80368 4.7578,4.248 8.6659,4.248 2.8887,0 6.0322,-0.76464 9.0907,-2.37888 5.6074,-2.9736 9.0058,-7.98624 9.0058,-12.3192 0,-1.18944 -0.2549,-2.37888 -0.8496,-3.48336"
     class="Note" />
  <path
     style="stroke-width:0.8496"
     id="path7918"
     d="m 1445.8324,87.78824 c -1.5293,-2.80368 -4.7578,-4.33296 -8.6659,-4.33296 -2.8887,0 -6.0322,0.8496 -9.0907,2.46384 -5.6074,2.9736 -9.0058,7.98624 -9.0058,12.3192 0,1.18944 0.2549,2.37888 0.8496,3.48336 1.5293,2.80368 4.7578,4.248 8.6659,4.248 2.8887,0 6.0322,-0.76464 9.0907,-2.37888 5.6074,-2.9736 9.0058,-7.98624 9.0058,-12.3192 0,-1.18944 -0.2549,-2.37888 -0.8496,-3.48336"
     class="Note" />
  <path
     style="stroke-width:0.8496"
     id="path7920"
     d="m 1497.8324,162.12824 c -1.5293,-2.80368 -4.7578,-4.33296 -8.6659,-4.33296 -2.8887,0 -6.0322,0.8496 -9.0907,2.46384 -5.6074,2.9736 -9.0058,7.98624 -9.0058,12.3192 0,1.18944 0.2549,2.37888 0.8496,3.48336 1.5293,2.80368 4.7578,4.248 8.6659,4.248 2.8887,0 6.0322,-0.76464 9.0907,-2.37888 5.6074,-2.9736 9.0058,-7.98624 9.0058,-12.3192 0,-1.18944 -0.2549,-2.37888 -0.8496,-3.48336"
     class="Note" />
  <path
     style="stroke-width:0.8496"
     id="path7922"
     d="m 1604.6624,278.94824 c -1.5293,-2.80368 -4.7578,-4.33296 -8.6659,-4.33296 -2.8887,0 -6.0322,0.8496 -9.0907,2.46384 -5.6074,2.9736 -9.0058,7.98624 -9.0058,12.3192 0,1.18944 0.2549,2.37888 0.8496,3.48336 1.5293,2.80368 4.7578,4.248 8.6659,4.248 2.8887,0 6.0322,-0.76464 9.0907,-2.37888 5.6074,-2.9736 9.0058,-7.98624 9.0058,-12.3192 0,-1.18944 -0.2549,-2.37888 -0.8496,-3.48336"
     class="Note" />
  <path
     style="stroke-width:0.8496"
     id="path7924"
     d="m 1653.9324,215.22824 c -1.5293,-2.80368 -4.7578,-4.33296 -8.6659,-4.33296 -2.8887,0 -6.0322,0.8496 -9.0907,2.46384 -5.6074,2.9736 -9.0058,7.98624 -9.0058,12.3192 0,1.18944 0.2549,2.37888 0.8496,3.48336 1.5293,2.80368 4.7578,4.248 8.6659,4.248 2.8887,0 6.0322,-0.76464 9.0907,-2.37888 5.6074,-2.9736 9.0058,-7.98624 9.0058,-12.3192 0,-1.18944 -0.2549,-2.37888 -0.8496,-3.48336"
     class="Note" />
  <path
     style="stroke-width:0.8496"
     id="path7926"
     d="m 1703.2024,162.12824 c -1.5293,-2.80368 -4.7578,-4.33296 -8.6659,-4.33296 -2.8887,0 -6.0322,0.8496 -9.0907,2.46384 -5.6074,2.9736 -9.0058,7.98624 -9.0058,12.3192 0,1.18944 0.2549,2.37888 0.8496,3.48336 1.5293,2.80368 4.7578,4.248 8.6659,4.248 2.8887,0 6.0322,-0.76464 9.0907,-2.37888 5.6074,-2.9736 9.0058,-7.98624 9.0058,-12.3192 0,-1.18944 -0.2549,-2.37888 -0.8496,-3.48336"
     class="Note" />
  <path
     style="stroke-width:0.8496"
     id="path7928"
     d="m 1752.4624,215.22824 c -1.5293,-2.80368 -4.7578,-4.33296 -8.6659,-4.33296 -2.8887,0 -6.0322,0.8496 -9.0907,2.46384 -5.6074,2.9736 -9.0058,7.98624 -9.0058,12.3192 0,1.18944 0.2549,2.37888 0.8496,3.48336 1.5293,2.80368 4.7578,4.248 8.6659,4.248 2.8887,0 6.0322,-0.76464 9.0907,-2.37888 5.6074,-2.9736 9.0058,-7.98624 9.0058,-12.3192 0,-1.18944 -0.2549,-2.37888 -0.8496,-3.48336"
     class="Note" />
  <path
     style="stroke-width:0.8496"
     id="path7930"
     d="m 1801.7324,236.46824 c -1.5293,-2.80368 -4.7578,-4.33296 -8.6659,-4.33296 -2.8887,0 -6.0322,0.8496 -9.0907,2.46384 -5.6074,2.9736 -9.0058,7.98624 -9.0058,12.3192 0,1.18944 0.2549,2.37888 0.8496,3.48336 1.5293,2.80368 4.7578,4.248 8.6659,4.248 2.8887,0 6.0322,-0.76464 9.0907,-2.37888 5.6074,-2.9736 9.0058,-7.98624 9.0058,-12.3192 0,-1.18944 -0.2549,-2.37888 -0.8496,-3.48336"
     class="Note" />
  <path
     style="stroke-width:0.8496"
     id="path7932"
     d="m 1850.9924,225.84824 c -1.5293,-2.80368 -4.7578,-4.33296 -8.6659,-4.33296 -2.8887,0 -6.0322,0.8496 -9.0907,2.46384 -5.6074,2.9736 -9.0058,7.98624 -9.0058,12.3192 0,1.18944 0.2549,2.37888 0.8496,3.48336 1.5293,2.80368 4.7578,4.248 8.6659,4.248 2.8887,0 6.0322,-0.76464 9.0907,-2.37888 5.6074,-2.9736 9.0058,-7.98624 9.0058,-12.3192 0,-1.18944 -0.2549,-2.37888 -0.8496,-3.48336"
     class="Note" />
  <path
     style="stroke-width:0.8496"
     id="path7934"
     d="m 1900.2624,215.22824 c -1.5293,-2.80368 -4.7578,-4.33296 -8.6659,-4.33296 -2.8887,0 -6.0322,0.8496 -9.0907,2.46384 -5.6074,2.9736 -9.0058,7.98624 -9.0058,12.3192 0,1.18944 0.2549,2.37888 0.8496,3.48336 1.5293,2.80368 4.7578,4.248 8.6659,4.248 2.8887,0 6.0322,-0.76464 9.0907,-2.37888 5.6074,-2.9736 9.0058,-7.98624 9.0058,-12.3192 0,-1.18944 -0.2549,-2.37888 -0.8496,-3.48336"
     class="Note" />
  <path
     style="stroke-width:0.8496"
     id="path7936"
     d="m 1949.5224,162.12824 c -1.5293,-2.80368 -4.7578,-4.33296 -8.6659,-4.33296 -2.8887,0 -6.0322,0.8496 -9.0907,2.46384 -5.6074,2.9736 -9.0058,7.98624 -9.0058,12.3192 0,1.18944 0.2549,2.37888 0.8496,3.48336 1.5293,2.80368 4.7578,4.248 8.6659,4.248 2.8887,0 6.0322,-0.76464 9.0907,-2.37888 5.6074,-2.9736 9.0058,-7.98624 9.0058,-12.3192 0,-1.18944 -0.2549,-2.37888 -0.8496,-3.48336"
     class="Note" />
  <path
     style="stroke-width:0.8496"
     id="path7938"
     d="m 1998.7924,225.84824 c -1.5293,-2.80368 -4.7578,-4.33296 -8.6659,-4.33296 -2.8887,0 -6.0322,0.8496 -9.0907,2.46384 -5.6074,2.9736 -9.0058,7.98624 -9.0058,12.3192 0,1.18944 0.2549,2.37888 0.8496,3.48336 1.5293,2.80368 4.7578,4.248 8.6659,4.248 2.8887,0 6.0322,-0.76464 9.0907,-2.37888 5.6074,-2.9736 9.0058,-7.98624 9.0058,-12.3192 0,-1.18944 -0.2549,-2.37888 -0.8496,-3.48336"
     class="Note" />
  <path
     style="stroke-width:0.8496"
     id="path7940"
     d="m 2048.0624,215.22824 c -1.5293,-2.80368 -4.7578,-4.33296 -8.6659,-4.33296 -2.8887,0 -6.0322,0.8496 -9.0907,2.46384 -5.6074,2.9736 -9.0058,7.98624 -9.0058,12.3192 0,1.18944 0.2549,2.37888 0.8496,3.48336 1.5293,2.80368 4.7578,4.248 8.6659,4.248 2.8887,0 6.0322,-0.76464 9.0907,-2.37888 5.6074,-2.9736 9.0058,-7.98624 9.0058,-12.3192 0,-1.18944 -0.2549,-2.37888 -0.8496,-3.48336"
     class="Note" />
  <path
     style="stroke-width:0.8496"
     id="path7942"
     d="m 2097.3224,162.12824 c -1.5293,-2.80368 -4.7578,-4.33296 -8.6659,-4.33296 -2.8887,0 -6.0322,0.8496 -9.0907,2.46384 -5.6074,2.9736 -9.0058,7.98624 -9.0058,12.3192 0,1.18944 0.2549,2.37888 0.8496,3.48336 1.5293,2.80368 4.7578,4.248 8.6659,4.248 2.8887,0 6.0322,-0.76464 9.0907,-2.37888 5.6074,-2.9736 9.0058,-7.98624 9.0058,-12.3192 0,-1.18944 -0.2549,-2.37888 -0.8496,-3.48336"
     class="Note" />
  <path
     style="stroke-width:0.8496"
     id="path7944"
     d="m 2146.5924,236.46824 c -1.5293,-2.80368 -4.7578,-4.33296 -8.6659,-4.33296 -2.8887,0 -6.0322,0.8496 -9.0907,2.46384 -5.6074,2.9736 -9.0058,7.98624 -9.0058,12.3192 0,1.18944 0.2549,2.37888 0.8496,3.48336 1.5293,2.80368 4.7578,4.248 8.6659,4.248 2.8887,0 6.0322,-0.76464 9.0907,-2.37888 5.6074,-2.9736 9.0058,-7.98624 9.0058,-12.3192 0,-1.18944 -0.2549,-2.37888 -0.8496,-3.48336"
     class="Note" />
  <path
     style="stroke-width:0.8496"
     id="path7946"
     d="m 2242.8024,278.94824 c -1.5293,-2.80368 -4.7578,-4.33296 -8.6659,-4.33296 -2.8887,0 -6.0322,0.8496 -9.0907,2.46384 -5.6074,2.9736 -9.0058,7.98624 -9.0058,12.3192 0,1.18944 0.2549,2.37888 0.8496,3.48336 1.5293,2.80368 4.7578,4.248 8.6659,4.248 2.8887,0 6.0322,-0.76464 9.0907,-2.37888 5.6074,-2.9736 9.0058,-7.98624 9.0058,-12.3192 0,-1.18944 -0.2549,-2.37888 -0.8496,-3.48336"
     class="Note" />
  <path
     style="stroke-width:0.8496"
     id="path7956"
     d="m 24.2136,139.78376 h -6.11712 c -0.59472,0 -1.10448,0.50976 -1.10448,1.10448 v 77.3136 c 0,0.59472 0.50976,1.10448 1.10448,1.10448 h 6.11712 c 0.59472,0 1.10448,-0.50976 1.10448,-1.10448 v -77.3136 c 0,-0.59472 -0.50976,-1.10448 -1.10448,-1.10448 m 30.5856,43.24464 h -1.2744 c -1.95408,0 -3.3984,0.16992 -6.71184,2.20896 0,0 -1.86912,-3.73824 -4.6728,-5.69232 2.80368,-1.95408 4.6728,-5.69232 4.6728,-5.69232 3.31344,2.03904 4.75776,2.20896 6.71184,2.20896 h 1.2744 c 10.36512,0 15.46272,-9.60048 15.46272,-18.77616 0,-11.8944 -8.75088,-18.60624 -19.03104,-18.60624 -9.3456,0 -13.25376,4.6728 -13.25376,4.6728 -1.52928,1.86912 -2.20896,3.90816 -2.20896,5.77728 0,1.52928 0.4248,2.9736 1.2744,4.248 1.18944,1.6992 3.56832,2.63376 5.77728,2.63376 1.52928,0 2.9736,-0.4248 3.99312,-1.2744 1.44432,-1.2744 2.37888,-3.14352 2.37888,-5.18256 0,-1.18944 -0.33984,-2.37888 -0.93456,-3.48336 -1.35936,-2.46384 -3.90816,-2.80368 -5.26752,-2.80368 -0.50976,0 -0.93456,0.085 -0.93456,0.085 1.95408,-1.35936 4.58784,-2.124 7.2216,-2.124 2.37888,0 4.6728,0.59472 6.28704,1.78416 2.9736,2.20896 4.07808,6.88176 4.07808,12.99888 0,6.54192 -0.16992,16.05744 -7.6464,16.05744 -7.47648,0 -9.17568,-8.9208 -9.17568,-8.9208 0,0 0,-1.18944 -1.18944,-1.18944 -1.18944,0 -1.2744,1.18944 -1.2744,1.18944 0,0 -0.67968,4.33296 -2.9736,9.60048 -1.35936,3.14352 -3.3984,4.58784 -4.84272,5.18256 v -37.04256 c 0,-0.59472 -0.4248,-1.10448 -1.01952,-1.10448 -0.59472,0 -1.10448,0.50976 -1.10448,1.10448 v 77.3136 c 0,0.59472 0.50976,1.10448 1.10448,1.10448 0.59472,0 1.01952,-0.50976 1.01952,-1.10448 v -37.04256 c 1.44432,0.59472 3.48336,2.03904 4.84272,5.18256 2.29392,5.26752 2.9736,9.68544 2.9736,9.68544 0,0 0.08496,1.10448 1.2744,1.10448 1.18944,0 1.18944,-1.10448 1.18944,-1.10448 0,0 1.6992,-9.00576 9.17568,-9.00576 7.47648,0 7.6464,9.51552 7.6464,16.05744 0,6.11712 -1.10448,10.78992 -4.07808,12.99888 -1.61424,1.18944 -3.90816,1.78416 -6.28704,1.78416 -2.63376,0 -5.26752,-0.76464 -7.2216,-2.124 0,0 0.4248,0.085 0.93456,0.085 1.35936,0 3.90816,-0.33984 5.26752,-2.80368 0.59472,-1.10448 0.93456,-2.29392 0.93456,-3.48336 0,-2.03904 -0.93456,-3.90816 -2.37888,-5.18256 -1.01952,-0.8496 -2.46384,-1.2744 -3.99312,-1.2744 -2.20896,0 -4.58784,0.93456 -5.77728,2.63376 -0.8496,1.2744 -1.2744,2.71872 -1.2744,4.248 0,1.86912 0.67968,3.90816 2.20896,5.77728 0,0 3.90816,4.6728 13.25376,4.6728 10.28016,0 19.03104,-6.71184 19.03104,-18.60624 0,-9.17568 -5.0976,-18.77616 -15.46272,-18.77616"
     class="Clef" />
  <path
     style="stroke-width:0.67968"
     id="path7958"
     d="m 1530.1077,218.12033 c -0.836,-3.69071 -2.6303,-6.28702 -3.1605,-6.99396 -2.1682,-2.90223 -4.8937,-4.83932 -8.0814,-5.75689 -2.1138,-0.60485 -4.1528,-0.67968 -5.7976,-0.55734 -0.7069,-4.08487 -1.3866,-8.08132 -2.0051,-11.78558 3.7043,-4.19369 6.1647,-8.13584 7.7144,-11.05846 2.3585,-4.47223 3.1401,-7.58516 3.1741,-7.7211 1.169,-3.5412 1.4137,-8.77473 0.6661,-14.35484 -0.6865,-5.13158 -2.1071,-9.6923 -3.7043,-11.90126 -0.7001,-0.97195 -1.4137,-1.46811 -2.1206,-1.46811 -0.8292,0 -2.5352,0.8428 -4.4995,2.72551 -1.5632,1.4953 -3.7858,4.13926 -5.5258,8.22413 -2.039,4.79861 -2.1818,11.24871 -1.9439,15.81616 0.2583,4.94127 1.0128,8.80872 1.0196,8.8427 0.014,0.0611 0.1903,1.08062 0.4961,2.8274 -0.1563,0.15633 -0.3194,0.30586 -0.4894,0.46905 -0.7068,0.67968 -1.5156,1.45445 -2.4536,2.3924 -0.5845,0.5846 -1.2302,1.20304 -1.9099,1.86233 -5.7433,5.53266 -14.4364,13.90625 -14.4364,26.92212 0,3.1945 0.6117,6.1987 1.8215,8.92425 1.0807,2.44685 2.644,4.67622 4.6355,6.6269 5.2539,5.13158 12.4517,7.31329 17.2502,7.20461 2.0051,-0.0476 3.7927,-0.21077 5.4171,-0.51663 1.2438,6.52493 2.0186,11.30308 2.0458,14.93257 0.027,4.42472 -1.0943,7.12305 -3.745,9.00576 -1.6516,1.17585 -3.5615,1.82154 -5.6685,1.9235 -1.7604,0.0816 -3.2965,-0.23789 -4.2684,-0.51649 h -0.01 c 0,0 -0.1971,-0.0544 -0.2039,-0.19031 -0.01,-0.12241 0.2311,-0.1564 0.2379,-0.1564 h 0.014 c 1.305,-0.29899 3.7315,-1.135 5.3355,-3.37794 1.2235,-1.71279 1.8148,-4.85298 0.5642,-7.53092 -0.7545,-1.62437 -2.4605,-3.62943 -6.2803,-3.93528 -1.6924,-0.13594 -3.2353,0.21063 -4.5946,1.02625 -1.2302,0.73405 -2.2498,1.84873 -2.9634,3.20809 -1.672,3.19449 -1.3594,7.08906 0.768,9.6991 2.0119,2.46044 5.152,4.03043 8.8427,4.42465 0.5777,0.0612 1.1554,0.0884 1.7331,0.0884 3.011,0 6.0016,-0.81562 8.4281,-2.31771 2.4876,-1.74678 3.9285,-4.45191 4.3907,-8.27844 0.3806,-3.15378 0.1156,-7.17062 -0.836,-12.65571 -0.2447,-1.42053 -0.6117,-3.47996 -1.0603,-6.03549 3.9082,-1.30505 6.7356,-3.73151 9.298,-7.70764 2.2362,-3.90131 2.8751,-8.04735 1.9031,-12.32934 m -23.2518,17.80077 c -3.1537,-0.82921 -6.1647,-2.52841 -8.7203,-4.90729 -0.8904,-0.83601 -2.1614,-2.31091 -3.1605,-4.61499 -0.9312,-2.14783 -1.3798,-4.47912 -1.3458,-6.91913 0.048,-3.18772 0.938,-6.46381 2.644,-9.71941 1.9846,-3.79268 5.084,-7.55131 9.2028,-11.174 0.9856,-0.86993 1.9167,-1.73992 2.7935,-2.60998 0.5166,2.89551 1.0807,6.08314 1.6788,9.40005 -2.6167,0.86312 -5.8452,3.00411 -7.959,6.84431 -2.4061,4.46551 -2.3109,8.21735 -1.8148,10.58263 0.6389,3.03141 2.3585,5.58698 4.7102,7.00755 0.6321,0.38056 3.4392,1.82827 4.6898,1.43406 0.2515,-0.0816 0.435,-0.23109 0.5301,-0.45539 0.3467,-0.79522 -0.3466,-1.23015 -1.4069,-1.88271 -0.4078,-0.25143 -0.8632,-0.53691 -1.3594,-0.89712 -2.2565,-1.69243 -3.242,-4.71701 -2.5148,-7.69399 0.3942,-1.63124 1.2642,-3.09939 2.5148,-4.25484 1.1351,-1.05351 2.5217,-1.80115 4.1393,-2.23608 1.3865,7.63953 2.7867,15.21797 3.9014,20.90016 0.088,0.46891 0.1835,0.9243 0.2718,1.37968 -2.977,0.6321 -5.9336,0.571 -8.795,-0.18351 m 7.694,-22.55178 c 7.0346,-0.31945 9.9369,4.73741 10.5418,8.02025 0.3194,1.71957 0.3126,4.73738 -0.7341,7.59879 -0.7952,2.16138 -2.4672,4.92768 -5.954,6.32789 -0.048,-0.28547 -0.1019,-0.57773 -0.1563,-0.87006 -1.0467,-5.96074 -2.3653,-13.43045 -3.6974,-21.07687 m -4.9753,-48.2165 c 1.2098,-3.9013 3.0721,-6.11026 4.4247,-7.28611 1.1895,-1.03311 2.3109,-1.51575 2.9362,-1.51575 0.095,0 0.1767,0.0136 0.2447,0.034 0.3127,0.0952 0.6729,0.48264 0.9923,1.07397 1.5701,2.91576 1.0671,7.47648 0.1564,10.49419 -1.1079,3.67027 -3.0926,7.49007 -9.0738,14.0218 -0.1155,-0.75445 -0.2242,-1.46811 -0.3262,-2.13413 -0.8496,-5.63462 -0.6321,-10.57589 0.6457,-14.68795"
     class="Clef" />
  <path
     style="stroke-width:0.8496"
     id="path7976"
     d="m 132.53368,170.62424 c 0.50976,-0.085 0.93456,-0.67968 0.93456,-1.18944 v -5.01264 c 0,-0.67968 -0.50976,-1.18944 -1.18944,-1.18944 h -0.16992 l -2.80368,0.59472 V 151.1684 h -2.37888 v 13.1688 l -7.56144,1.52928 V 153.88712 H 116.986 v 12.48912 l -3.31344,0.67968 c -0.50976,0.085 -0.93456,0.67968 -0.93456,1.18944 v 0.16992 4.92768 -0.16992 c 0,0.67968 0.50976,1.18944 1.18944,1.18944 h 0.25488 l 2.80368,-0.59472 v 14.0184 l -3.31344,0.67968 c -0.50976,0.085 -0.93456,0.67968 -0.93456,1.18944 v 4.92768 c 0,0.67968 0.50976,1.18944 1.18944,1.18944 h 0.25488 l 2.80368,-0.59472 v 12.65904 h 2.37888 v -13.1688 l 7.56144,-1.52928 V 205.118 h 2.37888 v -12.48912 l 3.22848,-0.59472 c 0.50976,-0.085 0.93456,-0.67968 0.93456,-1.18944 v -5.01264 c 0,-0.67968 -0.50976,-1.18944 -1.18944,-1.18944 h -0.16992 l -2.80368,0.59472 v -14.0184 l 3.22848,-0.59472 m -13.1688,16.73712 V 173.258 l 7.56144,-1.52928 v 14.0184 l -7.56144,1.61424"
     class="KeySig" />
  <path
     style="stroke-width:0.8496"
     id="path7978"
     d="m 111.29368,213.10424 c 0.50976,-0.085 0.93456,-0.67968 0.93456,-1.18944 v -5.01264 c 0,-0.67968 -0.50976,-1.18944 -1.18944,-1.18944 h -0.16992 l -2.80368,0.59472 V 193.6484 h -2.37888 v 13.1688 l -7.56144,1.52928 V 196.36712 H 95.746 v 12.48912 l -3.31344,0.67968 c -0.50976,0.085 -0.93456,0.67968 -0.93456,1.18944 v 0.16992 4.92768 -0.16992 c 0,0.67968 0.50976,1.18944 1.18944,1.18944 h 0.25488 l 2.80368,-0.59472 v 14.0184 l -3.31344,0.67968 c -0.50976,0.085 -0.93456,0.67968 -0.93456,1.18944 v 4.92768 c 0,0.67968 0.50976,1.18944 1.18944,1.18944 h 0.25488 l 2.80368,-0.59472 v 12.65904 h 2.37888 v -13.1688 l 7.56144,-1.52928 V 247.598 h 2.37888 v -12.48912 l 3.22848,-0.59472 c 0.50976,-0.085 0.93456,-0.67968 0.93456,-1.18944 v -5.01264 c 0,-0.67968 -0.50976,-1.18944 -1.18944,-1.18944 h -0.16992 l -2.80368,0.59472 v -14.0184 l 3.22848,-0.59472 m -13.1688,16.73712 V 215.738 l 7.56144,-1.52928 v 14.0184 l -7.56144,1.61424"
     class="KeySig" />
  <path
     style="stroke-width:0.8496"
     id="path8020"
     d="m 211.3346,91.51848 c -0.16992,-0.25488 -0.67968,-0.50976 -1.01952,-0.50976 h -1.18944 c -0.4248,0 -0.93456,0.33984 -1.10448,0.76464 l -7.6464,21.40992 -7.6464,-21.40992 c -0.16992,-0.4248 -0.67968,-0.76464 -1.10448,-0.76464 h -1.18944 c -0.67968,0 -1.18944,0.50976 -1.18944,1.18944 0,0.08496 0.085,0.33984 0.085,0.4248 l 9.94032,26.7624 c 0.16992,0.4248 0.67968,0.76464 1.10448,0.76464 0.4248,0 0.93456,-0.33984 1.10448,-0.76464 l 9.94032,-26.7624 c 0,-0.08496 0.085,-0.33984 0.085,-0.4248 0,-0.16992 -0.085,-0.50976 -0.16992,-0.67968"
     class="Articulation" />
  <path
     style="stroke-width:0.8496"
     id="path8022"
     d="M 1481.5472,94.91384 V 103.07 h 2.7187 v -8.15616 c 3.3984,-0.76464 5.9472,-4.33296 5.9472,-8.41104 0,-4.6728 -3.2285,-8.58096 -7.3065,-8.58096 -4.0781,0 -7.3066,3.90816 -7.3066,8.58096 0,4.07808 2.5488,7.6464 5.9472,8.41104 m 1.3594,-15.88752 c 1.4443,0 3.2284,3.22848 3.2284,7.2216 0,3.99312 -1.7841,7.30656 -3.2284,7.30656 -1.4444,0 -3.2285,-3.31344 -3.2285,-7.30656 0,-3.99312 1.7841,-7.2216 3.2285,-7.2216"
     class="Articulation" />
  <path
     style="stroke-width:0.8496"
     id="path8024"
     d="M 1787.4172,99.78384 V 107.94 h 2.7187 v -8.15616 c 3.3984,-0.76464 5.9472,-4.33296 5.9472,-8.41104 0,-4.6728 -3.2285,-8.58096 -7.3065,-8.58096 -4.0781,0 -7.3066,3.90816 -7.3066,8.58096 0,4.07808 2.5488,7.6464 5.9472,8.41104 m 1.3594,-15.88752 c 1.4443,0 3.2284,3.22848 3.2284,7.2216 0,3.99312 -1.7841,7.30656 -3.2284,7.30656 -1.4444,0 -3.2285,-3.31344 -3.2285,-7.30656 0,-3.99312 1.7841,-7.2216 3.2285,-7.2216"
     class="Articulation" />
  <path
     style="stroke-width:0.8496"
     id="path8026"
     d="M 2133.4272,82.35384 V 90.51 h 2.7187 v -8.15616 c 3.3984,-0.76464 5.9472,-4.33296 5.9472,-8.41104 0,-4.6728 -3.2285,-8.58096 -7.3065,-8.58096 -4.0781,0 -7.3066,3.90816 -7.3066,8.58096 0,4.07808 2.5488,7.6464 5.9472,8.41104 m 1.3594,-15.88752 c 1.4443,0 3.2284,3.22848 3.2284,7.2216 0,3.99312 -1.7841,7.30656 -3.2284,7.30656 -1.4444,0 -3.2285,-3.31344 -3.2285,-7.30656 0,-3.99312 1.7841,-7.2216 3.2285,-7.2216"
     class="Articulation" />
  <path
     id="path8128"
     d="M 186.567,259.28 H 302.303 V 269.9 H 186.567 v -10.62"
     fill-rule="evenodd"
     class="Beam" />
  <path
     id="path8130"
     d="M 356.666,237.89 472.402,210.8 v 10.9 l -115.736,27.1 v -10.91"
     fill-rule="evenodd"
     class="Beam" />
  <path
     id="path8132"
     d="M 526.765,190.22 642.5,179.38 v 10.67 l -115.735,10.84 v -10.67"
     fill-rule="evenodd"
     class="Beam" />
  <path
     id="path8134"
     d="m 696.86,195.55 115.74,-5.42 v 10.63 l -115.74,5.42 v -10.63"
     fill-rule="evenodd"
     class="Beam" />
  <path
     id="path8136"
     d="M 924.31,63.28 1030.65,30.7 V 41.81 L 924.31,74.39 V 63.28"
     fill-rule="evenodd"
     class="Beam" />
  <path
     id="path8138"
     d="m 1055.05,222.11 h 106.34 v 10.62 h -106.34 v -10.62"
     fill-rule="evenodd"
     class="Beam" />
  <path
     id="path8140"
     d="m 1211.06,211.48 106.34,5.43 v 10.63 l -106.34,-5.43 v -10.63"
     fill-rule="evenodd"
     class="Beam" />
  <path
     id="path8142"
     d="m 1367.07,211.46 106.34,10.86 v 10.67 l -106.34,-10.86 v -10.67"
     fill-rule="evenodd"
     class="Beam" />
  <path
     id="path8144"
     d="m 1603.17,148.28 100.87,-38.05 v 11.35 l -100.87,38.05 v -11.35"
     fill-rule="evenodd"
     class="Beam" />
  <path
     id="path8146"
     d="m 1750.97,152.94 100.87,5.44 v 10.63 l -100.87,-5.43 v -10.64"
     fill-rule="evenodd"
     class="Beam" />
  <path
     id="path8148"
     d="m 1873.5,291.13 100.87,5.43 v 10.64 l -100.87,-5.44 v -10.63"
     fill-rule="evenodd"
     class="Beam" />
  <path
     id="path8150"
     d="m 2046.56,110.6 h 100.87 v 10.62 H 2046.56 V 110.6"
     fill-rule="evenodd"
     class="Beam" />
  <path
     style="stroke-width:0.8496"
     id="path8204"
     d="m 2244.2836,203.8436 c -0.085,-0.25488 -0.8496,-3.22848 -0.8496,-3.3984 -0.085,-0.33984 -0.5947,-0.59472 -1.0195,-0.59472 -0.5947,0 -1.1045,0.50976 -1.1045,1.10448 v 13.93344 5.26752 c 0,0.4248 0.3398,0.76464 0.6797,0.93456 3.5683,1.10448 10.9598,5.77728 16.4822,15.20784 1.5293,2.63376 3.9931,6.20208 3.9931,13.33872 0,6.11712 -0.9345,12.57408 -2.4638,18.52128 -0.2549,0.93456 -0.5098,1.78416 0.4248,2.124 0.9346,0.33984 1.2744,-0.33984 1.6142,-1.18944 3.0586,-7.47648 3.8232,-15.2928 3.8232,-20.56032 v -1.61424 c -0.4248,-10.95984 -6.7118,-19.03104 -6.7118,-19.03104 0.2549,0 -7.8163,-10.45008 -10.1102,-14.0184 -3.1436,-4.84272 -4.6728,-9.68544 -4.7578,-10.02528"
     class="Hook" />
  <path
     id="path8398"
     d="m 427.992,112.75 c -1.156,1.4 -4.284,2.45 -7.412,2.52 v 1.46 h 2.992 c 1.972,0.04 2.176,0.24 2.108,2.14 v 13.64 c 0,1.73 0,1.8 -0.204,2.11 -0.272,0.34 -0.918,0.47 -2.822,0.47 h -2.21 v 1.6 h 13.464 v -1.6 h -1.87 c -1.904,0 -2.55,-0.13 -2.822,-0.47 -0.238,-0.31 -0.238,-0.34 -0.238,-2.11 v -14.04 c 0,-1.91 0.068,-3.51 0.238,-5.72 h -1.224"
     class="Fingering" />
  <path
     id="path8400"
     d="m 543.643,91.51 -11.56,16.09 v 1.9 h 9.554 v 1.77 c 0,1.73 0,1.8 -0.204,2.11 -0.272,0.37 -0.918,0.47 -2.856,0.47 h -0.374 v 1.6 h 9.928 v -1.6 h -0.136 c -1.938,0 -2.584,-0.1 -2.856,-0.47 -0.204,-0.31 -0.204,-0.34 -0.204,-2.11 v -1.77 h 4.114 v -1.9 h -4.114 v -9.29 c 0,-4.25 0,-4.35 0.17,-6.8 h -1.462 m -2.006,16.09 h -7.48 l 7.48,-10.31 v 10.31"
     class="Fingering" />
  <path
     id="path8402"
     d="m 614.812,85.19 c 0,9.69 -7.855,17.55 -17.544,17.55 -9.69,0 -17.545,-7.86 -17.545,-17.55 0,-9.69 7.855,-17.54 17.545,-17.54 9.689,0 17.544,7.85 17.544,17.54"
     fill-rule="evenodd"
     stroke-miterlimit="2"
     stroke-linejoin="miter"
     stroke-linecap="square"
     stroke-width="2.12"
     stroke="#000000"
     fill="none"
     class="Fingering" />
  <path
     id="path8404"
     d="m 597.471,72.96 c -4.76,0 -8.228,5.17 -8.228,12.31 0,7 3.366,12.14 7.956,12.14 4.76,0 8.092,-4.97 8.092,-12.04 0,-3.6 -0.748,-6.6 -2.176,-8.94 -1.326,-2.14 -3.502,-3.47 -5.644,-3.47 m -0.238,1.46 c 1.122,0 2.21,0.75 3.026,2.11 0.918,1.6 1.224,3.54 1.224,8.19 0,4.8 -0.238,7.04 -0.918,8.54 -0.782,1.66 -2.006,2.68 -3.298,2.68 -1.156,0 -2.21,-0.74 -3.026,-2.1 -0.952,-1.6 -1.224,-3.71 -1.224,-9.29 0,-3.97 0.238,-5.95 0.918,-7.44 0.782,-1.7 2.006,-2.69 3.298,-2.69"
     class="Fingering" />
  <path
     id="path8406"
     d="m 718.65,76.25 h -1.5 l -0.34,1.73 c -0.44,2.21 -0.71,2.41 -2.82,2.41 h -7.61 c 2.34,-2.44 3.12,-3.16 5.3,-4.86 3.09,-2.38 4.42,-3.57 5.2,-4.59 1.09,-1.49 1.63,-2.99 1.63,-4.66 0,-3.87 -3.19,-6.63 -7.65,-6.63 -4.31,0 -7.61,2.76 -7.61,6.4 0,2.14 1.09,3.6 2.68,3.6 1.26,0 2.11,-0.85 2.11,-2.07 0,-0.85 -0.47,-1.64 -1.19,-1.94 -1.26,-0.51 -1.32,-0.58 -1.32,-1.02 0,-0.51 0.34,-1.29 0.81,-1.87 0.85,-1.06 2.25,-1.63 3.84,-1.63 2.83,0 4.49,1.73 4.49,4.59 0,2.51 -1.19,4.79 -4.01,7.78 -2.52,2.65 -4.08,4.32 -4.66,4.97 -1.22,1.42 -1.83,2.21 -3.33,4.18 v 0.95 H 718 l 0.65,-7.34"
     class="Fingering" />
  <path
     id="path8408"
     d="m 769.94,59.96 c 3.1,-1.12 4.53,-2.86 4.53,-5.58 0,-3.57 -2.72,-5.85 -6.94,-5.85 -3.98,0 -7,2.35 -7,5.44 0,1.4 0.91,2.38 2.24,2.38 1.19,0 2.01,-0.81 2.01,-2.04 0,-0.74 -0.28,-1.19 -1.06,-1.73 -0.34,-0.24 -0.44,-0.37 -0.44,-0.61 0,-0.95 1.97,-1.97 3.91,-1.97 2.45,0 3.74,1.53 3.74,4.42 0,3.16 -1.29,4.82 -3.71,4.82 -0.3,0 -0.88,-0.03 -1.39,-0.06 -0.27,-0.04 -0.54,-0.04 -0.75,-0.04 -0.71,0 -1.09,0.31 -1.09,0.92 0,0.58 0.34,0.85 1.09,0.85 0.21,0 0.48,0 0.78,-0.03 0.68,-0.04 1.23,-0.04 1.6,-0.04 2.52,0 3.88,1.8 3.88,5.17 0,3.54 -1.7,5.51 -4.76,5.51 -2.14,0 -4.46,-1.16 -4.46,-2.21 0,-0.31 0.07,-0.38 0.72,-0.75 0.95,-0.58 1.32,-1.16 1.32,-2.01 0,-1.22 -0.91,-2.14 -2.14,-2.14 -1.46,0 -2.41,1.19 -2.41,2.99 0,3.3 3.02,5.58 7.38,5.58 4.93,0 8.12,-2.72 8.12,-6.9 0,-3.2 -1.63,-5.14 -5.17,-6.12"
     class="Fingering" />
  <path
     id="path8410"
     d="m 841.36,42.96 c 0,9.55 -7.74,17.3 -17.29,17.3 -9.55,0 -17.3,-7.75 -17.3,-17.3 0,-9.55 7.75,-17.29 17.3,-17.29 9.55,0 17.29,7.74 17.29,17.29"
     fill-rule="evenodd"
     stroke-miterlimit="2"
     stroke-linejoin="miter"
     stroke-linecap="square"
     stroke-width="2.12"
     stroke="#000000"
     fill="none"
     class="Fingering" />
  <path
     id="path8412"
     d="m 827.14,30.98 -11.56,16.08 v 1.91 h 9.56 v 1.76 c 0,1.74 0,1.81 -0.21,2.11 -0.27,0.38 -0.92,0.48 -2.85,0.48 h -0.38 v 1.6 h 9.93 v -1.6 h -0.14 c -1.93,0 -2.58,-0.1 -2.85,-0.48 -0.21,-0.3 -0.21,-0.34 -0.21,-2.11 v -1.76 h 4.12 v -1.91 h -4.12 v -9.28 c 0,-4.25 0,-4.35 0.17,-6.8 h -1.46 m -2,16.08 h -7.48 l 7.48,-10.3 v 10.3"
     class="Fingering" />
  <path
     id="path8414"
     d="m 915.69,28.98 c -4.76,0 -8.23,5.16 -8.23,12.3 0,7.01 3.37,12.14 7.96,12.14 4.76,0 8.09,-4.96 8.09,-12.03 0,-3.61 -0.75,-6.6 -2.18,-8.95 -1.32,-2.14 -3.5,-3.46 -5.64,-3.46 m -0.24,1.46 c 1.12,0 2.21,0.75 3.03,2.11 0.92,1.59 1.22,3.53 1.22,8.19 0,4.79 -0.24,7.04 -0.92,8.53 -0.78,1.67 -2,2.69 -3.29,2.69 -1.16,0 -2.21,-0.75 -3.03,-2.11 -0.95,-1.6 -1.22,-3.7 -1.22,-9.28 0,-3.98 0.23,-5.95 0.91,-7.45 0.79,-1.7 2.01,-2.68 3.3,-2.68"
     class="Fingering" />
  <path
     id="path8416"
     d="m 972.83,33.02 h -1.5 l -0.34,1.74 c -0.44,2.21 -0.71,2.41 -2.82,2.41 h -7.62 c 2.35,-2.45 3.13,-3.16 5.31,-4.86 3.09,-2.38 4.42,-3.57 5.2,-4.59 1.09,-1.5 1.63,-2.99 1.63,-4.66 0,-3.88 -3.19,-6.63 -7.65,-6.63 -4.32,0 -7.61,2.75 -7.61,6.39 0,2.14 1.08,3.61 2.68,3.61 1.26,0 2.11,-0.85 2.11,-2.08 0,-0.85 -0.48,-1.63 -1.19,-1.94 -1.26,-0.51 -1.33,-0.57 -1.33,-1.02 0,-0.51 0.34,-1.29 0.82,-1.87 0.85,-1.05 2.24,-1.63 3.84,-1.63 2.82,0 4.49,1.74 4.49,4.59 0,2.52 -1.19,4.8 -4.01,7.79 -2.52,2.65 -4.08,4.32 -4.66,4.96 -1.22,1.43 -1.84,2.21 -3.33,4.18 v 0.96 h 15.33 l 0.65,-7.35"
     class="Fingering" />
  <path
     id="path8418"
     d="m 1019.43,11.42 c 3.09,-1.12 4.52,-2.85 4.52,-5.57 0,-3.57 -2.72,-5.85 -6.94,-5.85 -3.98,0 -7,2.35 -7,5.44 0,1.39 0.92,2.38 2.24,2.38 1.19,0 2.01,-0.82 2.01,-2.04 0,-0.75 -0.27,-1.19 -1.06,-1.73 -0.34,-0.24 -0.44,-0.38 -0.44,-0.62 0,-0.95 1.97,-1.97 3.91,-1.97 2.45,0 3.74,1.53 3.74,4.42 0,3.16 -1.29,4.83 -3.7,4.83 -0.31,0 -0.89,-0.03 -1.4,-0.07 -0.27,-0.03 -0.54,-0.03 -0.75,-0.03 -0.71,0 -1.08,0.3 -1.08,0.92 0,0.57 0.34,0.85 1.08,0.85 0.21,0 0.48,0 0.79,-0.04 0.68,-0.03 1.22,-0.03 1.59,-0.03 2.52,0 3.88,1.8 3.88,5.17 0,3.53 -1.7,5.5 -4.76,5.5 -2.14,0 -4.45,-1.15 -4.45,-2.21 0,-0.3 0.06,-0.37 0.71,-0.74 0.95,-0.58 1.33,-1.16 1.33,-2.01 0,-1.22 -0.92,-2.14 -2.15,-2.14 -1.46,0 -2.41,1.19 -2.41,2.99 0,3.3 3.03,5.58 7.38,5.58 4.93,0 8.12,-2.72 8.12,-6.91 0,-3.19 -1.63,-5.13 -5.16,-6.12"
     class="Fingering" />
  <path
     id="path8420"
     d="m 1329.69,112.75 c -1.16,1.4 -4.28,2.45 -7.41,2.52 v 1.46 h 2.99 c 1.97,0.04 2.18,0.24 2.11,2.14 v 13.64 c 0,1.73 0,1.8 -0.21,2.11 -0.27,0.34 -0.91,0.47 -2.82,0.47 h -2.21 v 1.6 h 13.47 v -1.6 h -1.87 c -1.91,0 -2.55,-0.13 -2.83,-0.47 -0.23,-0.31 -0.23,-0.34 -0.23,-2.11 v -14.04 c 0,-1.91 0.06,-3.51 0.23,-5.72 h -1.22"
     class="Fingering" />
  <path
     id="path8422"
     d="m 1534.22,86.32 v 2.07 h 18.91 v -2.07 h -18.91 m 28.51,0.41 3.88,-4.52 c 0.85,-0.99 1.63,-1.43 2.55,-1.43 h 0.3 v -1.23 h -7.04 v 1.23 h 0.65 c 1.02,0 1.53,0.24 1.53,0.75 0,0.34 -0.24,0.81 -0.68,1.36 l -2.14,2.58 -2.62,-3.33 c -0.2,-0.27 -0.34,-0.55 -0.34,-0.75 0,-0.44 0.44,-0.61 1.5,-0.61 h 0.47 v -1.23 h -8.06 v 1.23 c 1.26,0.1 1.74,0.41 2.83,1.83 l 4.14,5.21 -3.91,4.55 c -1.15,1.29 -2.14,1.84 -3.06,1.8 h -0.2 v 1.23 h 7.17 v -1.23 h -0.51 c -0.78,0 -0.95,-0.03 -1.19,-0.13 -0.27,-0.17 -0.47,-0.48 -0.47,-0.78 0,-0.24 0.1,-0.55 0.27,-0.75 l 2.86,-3.4 2.58,3.43 c 0.24,0.34 0.44,0.78 0.44,1.02 0,0.44 -0.51,0.61 -1.8,0.61 h -0.24 v 1.23 h 8.57 v -1.23 h -0.24 c -1.19,0 -1.97,-0.44 -2.96,-1.66 l -4.28,-5.78 m 6.73,-0.41 v 2.07 h 18.9 v -2.07 h -18.9"
     class="Fingering" />
  <path
     id="path8424"
     d="m 1591.91,116.82 c -4.76,0 -8.23,5.17 -8.23,12.31 0,7 3.37,12.14 7.96,12.14 4.76,0 8.09,-4.97 8.09,-12.04 0,-3.6 -0.75,-6.6 -2.18,-8.94 -1.32,-2.14 -3.5,-3.47 -5.64,-3.47 m -0.24,1.46 c 1.12,0 2.21,0.75 3.03,2.11 0.92,1.6 1.22,3.54 1.22,8.19 0,4.8 -0.24,7.04 -0.92,8.54 -0.78,1.66 -2,2.68 -3.29,2.68 -1.16,0 -2.21,-0.74 -3.03,-2.1 -0.95,-1.6 -1.22,-3.71 -1.22,-9.29 0,-3.97 0.23,-5.95 0.91,-7.44 0.79,-1.7 2.01,-2.69 3.3,-2.69"
     class="Fingering" />
  <path
     id="path8426"
     d="m 1648.95,91.12 h -1.49 l -0.34,1.74 c -0.44,2.21 -0.72,2.41 -2.82,2.41 h -7.62 c 2.35,-2.45 3.13,-3.16 5.3,-4.86 3.1,-2.38 4.42,-3.57 5.21,-4.59 1.08,-1.5 1.63,-2.99 1.63,-4.66 0,-3.88 -3.2,-6.63 -7.65,-6.63 -4.32,0 -7.62,2.75 -7.62,6.39 0,2.14 1.09,3.61 2.69,3.61 1.26,0 2.11,-0.85 2.11,-2.08 0,-0.85 -0.48,-1.63 -1.19,-1.94 -1.26,-0.51 -1.33,-0.57 -1.33,-1.02 0,-0.51 0.34,-1.29 0.82,-1.87 0.85,-1.05 2.24,-1.63 3.84,-1.63 2.82,0 4.49,1.74 4.49,4.59 0,2.52 -1.19,4.8 -4.02,7.79 -2.51,2.65 -4.08,4.32 -4.65,4.96 -1.23,1.43 -1.84,2.21 -3.34,4.18 v 0.96 h 15.34 l 0.64,-7.35"
     class="Fingering" />
  <path
     id="path8428"
     d="m 1692.81,72.32 c 3.1,-1.13 4.53,-2.86 4.53,-5.58 0,-3.57 -2.72,-5.85 -6.94,-5.85 -3.98,0 -7,2.35 -7,5.44 0,1.4 0.91,2.38 2.24,2.38 1.19,0 2.01,-0.81 2.01,-2.04 0,-0.75 -0.28,-1.19 -1.06,-1.73 -0.34,-0.24 -0.44,-0.38 -0.44,-0.61 0,-0.96 1.97,-1.98 3.91,-1.98 2.45,0 3.74,1.53 3.74,4.42 0,3.17 -1.29,4.83 -3.71,4.83 -0.3,0 -0.88,-0.03 -1.39,-0.07 -0.27,-0.03 -0.54,-0.03 -0.75,-0.03 -0.71,0 -1.09,0.31 -1.09,0.92 0,0.58 0.34,0.85 1.09,0.85 0.21,0 0.48,0 0.78,-0.04 0.68,-0.03 1.23,-0.03 1.6,-0.03 2.52,0 3.88,1.8 3.88,5.17 0,3.53 -1.7,5.51 -4.76,5.51 -2.14,0 -4.46,-1.16 -4.46,-2.21 0,-0.31 0.07,-0.38 0.72,-0.75 0.95,-0.58 1.32,-1.16 1.32,-2.01 0,-1.22 -0.91,-2.14 -2.14,-2.14 -1.46,0 -2.41,1.19 -2.41,2.99 0,3.3 3.02,5.58 7.38,5.58 4.93,0 8.12,-2.72 8.12,-6.9 0,-3.2 -1.63,-5.14 -5.17,-6.12"
     class="Fingering" />
  <path
     id="path8430"
     d="m 1986.66,123.8 c -1.16,1.39 -4.29,2.45 -7.42,2.51 v 1.47 h 3 c 1.97,0.03 2.17,0.23 2.1,2.14 v 13.63 c 0,1.74 0,1.8 -0.2,2.11 -0.27,0.34 -0.92,0.48 -2.82,0.48 h -2.21 v 1.59 h 13.46 v -1.59 h -1.87 c -1.9,0 -2.55,-0.14 -2.82,-0.48 -0.24,-0.31 -0.24,-0.34 -0.24,-2.11 v -14.04 c 0,-1.9 0.07,-3.5 0.24,-5.71 h -1.22"
     class="Fingering" />
  <path
     id="path8432"
     d="m 2190.23,78.12 v 2.07 h 18.9 v -2.07 h -18.9 m 28.5,0.41 3.88,-4.52 c 0.85,-0.99 1.63,-1.43 2.55,-1.43 h 0.31 v -1.23 h -7.04 v 1.23 h 0.64 c 1.02,0 1.53,0.24 1.53,0.75 0,0.34 -0.23,0.81 -0.68,1.36 l -2.14,2.58 -2.62,-3.33 c -0.2,-0.27 -0.34,-0.55 -0.34,-0.75 0,-0.44 0.45,-0.61 1.5,-0.61 h 0.48 v -1.23 h -8.06 v 1.23 c 1.26,0.1 1.73,0.41 2.82,1.83 l 4.15,5.21 -3.91,4.55 c -1.16,1.29 -2.14,1.84 -3.06,1.8 h -0.21 v 1.23 h 7.18 v -1.23 h -0.51 c -0.78,0 -0.95,-0.03 -1.19,-0.13 -0.27,-0.17 -0.48,-0.48 -0.48,-0.78 0,-0.24 0.1,-0.55 0.27,-0.75 l 2.86,-3.4 2.58,3.43 c 0.24,0.34 0.45,0.78 0.45,1.02 0,0.44 -0.51,0.61 -1.81,0.61 h -0.23 v 1.23 h 8.56 v -1.23 h -0.23 c -1.19,0 -1.98,-0.44 -2.96,-1.66 l -4.29,-5.78 m 6.73,-0.41 v 2.07 h 18.91 v -2.07 h -18.91"
     class="Fingering" />
  <path
     id="path8434"
     d="m 2230.04,123.3 c -4.76,0 -8.22,5.17 -8.22,12.31 0,7 3.36,12.13 7.95,12.13 4.76,0 8.09,-4.96 8.09,-12.03 0,-3.61 -0.74,-6.6 -2.17,-8.94 -1.33,-2.15 -3.5,-3.47 -5.65,-3.47 m -0.23,1.46 c 1.12,0 2.21,0.75 3.02,2.11 0.92,1.6 1.23,3.53 1.23,8.19 0,4.8 -0.24,7.04 -0.92,8.54 -0.78,1.66 -2.01,2.68 -3.3,2.68 -1.16,0 -2.21,-0.75 -3.03,-2.11 -0.95,-1.59 -1.22,-3.7 -1.22,-9.28 0,-3.98 0.24,-5.95 0.92,-7.44 0.78,-1.7 2,-2.69 3.3,-2.69"
     class="Fingering" />
</svg>
