<?xml version="1.0" encoding="UTF-8" standalone="no"?>
<svg
   xmlns:dc="http://purl.org/dc/elements/1.1/"
   xmlns:cc="http://creativecommons.org/ns#"
   xmlns:rdf="http://www.w3.org/1999/02/22-rdf-syntax-ns#"
   xmlns:svg="http://www.w3.org/2000/svg"
   xmlns="http://www.w3.org/2000/svg"
   xmlns:sodipodi="http://sodipodi.sourceforge.net/DTD/sodipodi-0.dtd"
   xmlns:inkscape="http://www.inkscape.org/namespaces/inkscape"
   inkscape:version="1.0 (4035a4f, 2020-05-01)"
   sodipodi:docname="snippet9.svg"
   id="svg2522"
   version="1.2"
   viewBox="0 0 2340 329.36499"
   height="329.36499"
   width="2340">
  <metadata
     id="metadata2528">
    <rdf:RDF>
      <cc:Work
         rdf:about="">
        <dc:format>image/svg+xml</dc:format>
        <dc:type
           rdf:resource="http://purl.org/dc/dcmitype/StillImage" />
        <dc:title>Batches6Suite2</dc:title>
      </cc:Work>
    </rdf:RDF>
  </metadata>
  <defs
     id="defs2526" />
  <sodipodi:namedview
     inkscape:current-layer="svg2522"
     inkscape:window-maximized="0"
     inkscape:window-y="23"
     inkscape:window-x="0"
     inkscape:cy="327.06385"
     inkscape:cx="311.5324"
     inkscape:zoom="0.77454086"
     fit-margin-bottom="0"
     fit-margin-right="0"
     fit-margin-left="0"
     fit-margin-top="0"
     showgrid="false"
     id="namedview2524"
     inkscape:window-height="855"
     inkscape:window-width="748"
     inkscape:pageshadow="2"
     inkscape:pageopacity="0"
     guidetolerance="10"
     gridtolerance="10"
     objecttolerance="10"
     borderopacity="1"
     bordercolor="#666666"
     pagecolor="#ffffff" />
  <title
     id="title1282">Batches6Suite2</title>
  <desc
     id="desc1284">Generated by MuseScore 3.6.2</desc>
  <polyline
     transform="translate(-360,-389.243)"
     id="polyline1286"
     points="360,591.168 2700,591.168"
     stroke-linejoin="bevel"
     stroke-width="2.34"
     stroke="#000000"
     fill="none"
     class="StaffLines" />
  <polyline
     transform="translate(-360,-389.243)"
     id="polyline1288"
     points="360,612.408 2700,612.408"
     stroke-linejoin="bevel"
     stroke-width="2.34"
     stroke="#000000"
     fill="none"
     class="StaffLines" />
  <polyline
     transform="translate(-360,-389.243)"
     id="polyline1290"
     points="360,633.648 2700,633.648"
     stroke-linejoin="bevel"
     stroke-width="2.34"
     stroke="#000000"
     fill="none"
     class="StaffLines" />
  <polyline
     transform="translate(-360,-389.243)"
     id="polyline1292"
     points="360,654.888 2700,654.888"
     stroke-linejoin="bevel"
     stroke-width="2.34"
     stroke="#000000"
     fill="none"
     class="StaffLines" />
  <polyline
     transform="translate(-360,-389.243)"
     id="polyline1294"
     points="360,676.128 2700,676.128"
     stroke-linejoin="bevel"
     stroke-width="2.34"
     stroke="#000000"
     fill="none"
     class="StaffLines" />
  <path
     id="path1326"
     d="M 178.744,88.577 C 207.456,61.544 258.589,66.954 281.009,99.397 257.963,72.868 206.831,67.458 178.744,88.577"
     fill-rule="evenodd"
     stroke-linejoin="round"
     stroke-linecap="round"
     stroke-width="1.49"
     stroke="#000000"
     class="SlurSegment" />
  <path
     id="path1328"
     d="m 388.749,95.007 c 24.39,-25.766 69.261,-22.561 89.741,6.411 -20.904,-23.04 -65.774,-26.245 -89.741,-6.411"
     fill-rule="evenodd"
     stroke-linejoin="round"
     stroke-linecap="round"
     stroke-width="1.49"
     stroke="#000000"
     class="SlurSegment" />
  <path
     id="path1330"
     d="M 801.05,69.558 C 836.04,27.043 915.16,17.443 959.3,50.358 915.88,23.347 836.75,32.946 801.05,69.558"
     fill-rule="evenodd"
     stroke-linejoin="round"
     stroke-linecap="round"
     stroke-width="1.49"
     stroke="#000000"
     class="SlurSegment" />
  <path
     id="path1332"
     d="m 1015.39,69.558 c 42.07,-38.989 126.2,-38.989 168.26,0 -42.06,-33.042 -126.19,-33.042 -168.26,0"
     fill-rule="evenodd"
     stroke-linejoin="round"
     stroke-linecap="round"
     stroke-width="1.49"
     stroke="#000000"
     class="SlurSegment" />
  <path
     id="path1334"
     d="m 1233.11,162.23 c 25.06,-31.16 77.38,-33.05 104.62,-3.78 -27.03,-23.327 -79.34,-21.437 -104.62,3.78"
     fill-rule="evenodd"
     stroke-linejoin="round"
     stroke-linecap="round"
     stroke-width="1.49"
     stroke="#000000"
     class="SlurSegment" />
  <path
     id="path1336"
     d="m 1392.62,197.621 c 27.82,-53.548 111.95,-85.408 168.27,-63.72 -54.21,-16.126 -138.34,15.734 -168.27,63.72"
     fill-rule="evenodd"
     stroke-linejoin="round"
     stroke-linecap="round"
     stroke-width="1.49"
     stroke="#000000"
     class="SlurSegment" />
  <path
     id="path1338"
     d="m 1688.76,37.698 c 42.49,-43.291 169.96,-43.291 212.45,0 -42.49,-37.344 -169.96,-37.344 -212.45,0"
     fill-rule="evenodd"
     stroke-linejoin="round"
     stroke-linecap="round"
     stroke-width="1.49"
     stroke="#000000"
     class="SlurSegment" />
  <path
     id="path1340"
     d="m 1972.49,37.698 c 48.39,-45.692 193.58,-45.692 241.98,0 -48.4,-39.744 -193.59,-39.744 -241.98,0"
     fill-rule="evenodd"
     stroke-linejoin="round"
     stroke-linecap="round"
     stroke-width="1.49"
     stroke="#000000"
     class="SlurSegment" />
  <polyline
     transform="translate(-360,-389.243)"
     id="polyline1388"
     points="1968.46,590 1968.46,677.296"
     stroke-linejoin="bevel"
     stroke-width="3.82"
     stroke="#000000"
     class="BarLine" />
  <path
     style="stroke-width:0.8496"
     id="path1414"
     d="m 258.89368,171.67924 c 0.50976,-0.085 0.93456,-0.67968 0.93456,-1.18944 v -5.01264 c 0,-0.67968 -0.50976,-1.18944 -1.18944,-1.18944 h -0.16992 l -2.80368,0.59472 V 152.2234 h -2.37888 v 13.1688 l -7.56144,1.52928 V 154.94212 H 243.346 v 12.48912 l -3.31344,0.67968 c -0.50976,0.085 -0.93456,0.67968 -0.93456,1.18944 v 0.16992 4.92768 -0.16992 c 0,0.67968 0.50976,1.18944 1.18944,1.18944 h 0.25488 l 2.80368,-0.59472 v 14.0184 l -3.31344,0.67968 c -0.50976,0.085 -0.93456,0.67968 -0.93456,1.18944 v 4.92768 c 0,0.67968 0.50976,1.18944 1.18944,1.18944 h 0.25488 l 2.80368,-0.59472 v 12.65904 h 2.37888 v -13.1688 l 7.56144,-1.52928 V 206.173 h 2.37888 v -12.48912 l 3.22848,-0.59472 c 0.50976,-0.085 0.93456,-0.67968 0.93456,-1.18944 v -5.01264 c 0,-0.67968 -0.50976,-1.18944 -1.18944,-1.18944 h -0.16992 l -2.80368,0.59472 v -14.0184 l 3.22848,-0.59472 m -13.1688,16.73712 V 174.313 l 7.56144,-1.52928 v 14.0184 l -7.56144,1.61424"
     class="Accidental" />
  <path
     style="stroke-width:0.8496"
     id="path1416"
     d="m 919.18568,171.67924 c 0.50976,-0.085 0.93456,-0.67968 0.93456,-1.18944 v -5.01264 c 0,-0.67968 -0.50976,-1.18944 -1.18944,-1.18944 h -0.16992 l -2.80368,0.59472 V 152.2234 h -2.37888 v 13.1688 l -7.56144,1.52928 V 154.94212 H 903.638 v 12.48912 l -3.31344,0.67968 c -0.50976,0.085 -0.93456,0.67968 -0.93456,1.18944 v 0.16992 4.92768 -0.16992 c 0,0.67968 0.50976,1.18944 1.18944,1.18944 h 0.25488 l 2.80368,-0.59472 v 14.0184 l -3.31344,0.67968 c -0.50976,0.085 -0.93456,0.67968 -0.93456,1.18944 v 4.92768 c 0,0.67968 0.50976,1.18944 1.18944,1.18944 h 0.25488 l 2.80368,-0.59472 v 12.65904 h 2.37888 v -13.1688 l 7.56144,-1.52928 V 206.173 h 2.37888 v -12.48912 l 3.22848,-0.59472 c 0.50976,-0.085 0.93456,-0.67968 0.93456,-1.18944 v -5.01264 c 0,-0.67968 -0.50976,-1.18944 -1.18944,-1.18944 h -0.16992 l -2.80368,0.59472 v -14.0184 l 3.22848,-0.59472 m -13.1688,16.73712 V 174.313 l 7.56144,-1.52928 v 14.0184 l -7.56144,1.61424"
     class="Accidental" />
  <path
     style="stroke-width:0.8496"
     id="path1418"
     d="m 1648.6457,171.67924 c 0.5097,-0.085 0.9345,-0.67968 0.9345,-1.18944 v -5.01264 c 0,-0.67968 -0.5097,-1.18944 -1.1894,-1.18944 h -0.1699 l -2.8037,0.59472 V 152.2234 h -2.3789 v 13.1688 l -7.5614,1.52928 v -11.97936 h -2.3789 v 12.48912 l -3.3134,0.67968 c -0.5098,0.085 -0.9346,0.67968 -0.9346,1.18944 v 0.16992 4.92768 -0.16992 c 0,0.67968 0.5098,1.18944 1.1894,1.18944 h 0.2549 l 2.8037,-0.59472 v 14.0184 l -3.3134,0.67968 c -0.5098,0.085 -0.9346,0.67968 -0.9346,1.18944 v 4.92768 c 0,0.67968 0.5098,1.18944 1.1894,1.18944 h 0.2549 l 2.8037,-0.59472 v 12.65904 h 2.3789 v -13.1688 l 7.5614,-1.52928 V 206.173 h 2.3789 v -12.48912 l 3.2285,-0.59472 c 0.5097,-0.085 0.9345,-0.67968 0.9345,-1.18944 v -5.01264 c 0,-0.67968 -0.5097,-1.18944 -1.1894,-1.18944 h -0.1699 l -2.8037,0.59472 v -14.0184 l 3.2285,-0.59472 m -13.1688,16.73712 V 174.313 l 7.5614,-1.52928 v 14.0184 l -7.5614,1.61424"
     class="Accidental" />
  <path
     style="stroke-width:0.8496"
     id="path1420"
     d="m 1932.3757,171.67924 c 0.5097,-0.085 0.9345,-0.67968 0.9345,-1.18944 v -5.01264 c 0,-0.67968 -0.5097,-1.18944 -1.1894,-1.18944 h -0.1699 l -2.8037,0.59472 V 152.2234 h -2.3789 v 13.1688 l -7.5614,1.52928 v -11.97936 h -2.3789 v 12.48912 l -3.3134,0.67968 c -0.5098,0.085 -0.9346,0.67968 -0.9346,1.18944 v 0.16992 4.92768 -0.16992 c 0,0.67968 0.5098,1.18944 1.1894,1.18944 h 0.2549 l 2.8037,-0.59472 v 14.0184 l -3.3134,0.67968 c -0.5098,0.085 -0.9346,0.67968 -0.9346,1.18944 v 4.92768 c 0,0.67968 0.5098,1.18944 1.1894,1.18944 h 0.2549 l 2.8037,-0.59472 v 12.65904 h 2.3789 v -13.1688 l 7.5614,-1.52928 V 206.173 h 2.3789 v -12.48912 l 3.2285,-0.59472 c 0.5097,-0.085 0.9345,-0.67968 0.9345,-1.18944 v -5.01264 c 0,-0.67968 -0.5097,-1.18944 -1.1894,-1.18944 h -0.1699 l -2.8037,0.59472 v -14.0184 l 3.2285,-0.59472 m -13.1688,16.73712 V 174.313 l 7.5614,-1.52928 v 14.0184 l -7.5614,1.61424"
     class="Accidental" />
  <polyline
     transform="translate(-360,-389.243)"
     id="polyline1442"
     points="507.273,569.928 549.746,569.928"
     stroke-linejoin="bevel"
     stroke-width="3.4"
     stroke="#000000"
     class="LedgerLine" />
  <polyline
     transform="translate(-360,-389.243)"
     id="polyline1444"
     points="625.137,569.928 667.611,569.928"
     stroke-linejoin="bevel"
     stroke-width="3.4"
     stroke="#000000"
     class="LedgerLine" />
  <polyline
     transform="translate(-360,-389.243)"
     id="polyline1446"
     points="1285.43,569.928 1327.91,569.928"
     stroke-linejoin="bevel"
     stroke-width="3.4"
     stroke="#000000"
     class="LedgerLine" />
  <polyline
     transform="translate(-360,-389.243)"
     id="polyline1448"
     points="1341.52,569.928 1383.99,569.928"
     stroke-linejoin="bevel"
     stroke-width="3.4"
     stroke="#000000"
     class="LedgerLine" />
  <polyline
     transform="translate(-360,-389.243)"
     id="polyline1450"
     points="1397.61,569.928 1440.08,569.928"
     stroke-linejoin="bevel"
     stroke-width="3.4"
     stroke="#000000"
     class="LedgerLine" />
  <polyline
     transform="translate(-360,-389.243)"
     id="polyline1452"
     points="1453.7,569.928 1496.17,569.928"
     stroke-linejoin="bevel"
     stroke-width="3.4"
     stroke="#000000"
     class="LedgerLine" />
  <polyline
     transform="translate(-360,-389.243)"
     id="polyline1454"
     points="1899.65,569.928 1942.12,569.928"
     stroke-linejoin="bevel"
     stroke-width="3.4"
     stroke="#000000"
     class="LedgerLine" />
  <polyline
     transform="translate(-360,-389.243)"
     id="polyline1456"
     points="2014.89,569.928 2057.36,569.928"
     stroke-linejoin="bevel"
     stroke-width="3.4"
     stroke="#000000"
     class="LedgerLine" />
  <polyline
     transform="translate(-360,-389.243)"
     id="polyline1458"
     points="2093.84,569.928 2136.31,569.928"
     stroke-linejoin="bevel"
     stroke-width="3.4"
     stroke="#000000"
     class="LedgerLine" />
  <polyline
     transform="translate(-360,-389.243)"
     id="polyline1460"
     points="2160.59,569.928 2203.06,569.928"
     stroke-linejoin="bevel"
     stroke-width="3.4"
     stroke="#000000"
     class="LedgerLine" />
  <polyline
     transform="translate(-360,-389.243)"
     id="polyline1462"
     points="2160.59,548.688 2203.06,548.688"
     stroke-linejoin="bevel"
     stroke-width="3.4"
     stroke="#000000"
     class="LedgerLine" />
  <polyline
     transform="translate(-360,-389.243)"
     id="polyline1464"
     points="2227.34,569.928 2269.82,569.928"
     stroke-linejoin="bevel"
     stroke-width="3.4"
     stroke="#000000"
     class="LedgerLine" />
  <polyline
     transform="translate(-360,-389.243)"
     id="polyline1466"
     points="2298.62,569.928 2341.09,569.928"
     stroke-linejoin="bevel"
     stroke-width="3.4"
     stroke="#000000"
     class="LedgerLine" />
  <polyline
     transform="translate(-360,-389.243)"
     id="polyline1508"
     points="565.944,662.789 565.944,610.856"
     stroke-linejoin="bevel"
     stroke-width="2.34"
     stroke="#000000"
     class="Stem" />
  <polyline
     transform="translate(-360,-389.243)"
     id="polyline1510"
     points="1185.85,652.169 1185.85,580.548"
     stroke-linejoin="bevel"
     stroke-width="2.34"
     stroke="#000000"
     class="Stem" />
  <polyline
     transform="translate(-360,-389.243)"
     id="polyline1512"
     points="2073.56,662.789 2073.56,591.168"
     stroke-linejoin="bevel"
     stroke-width="2.34"
     stroke="#000000"
     class="Stem" />
  <polyline
     transform="translate(-360,-389.243)"
     id="polyline1514"
     points="553.544,620.309 553.544,531.183"
     stroke-linejoin="bevel"
     stroke-width="2.34"
     stroke="#000000"
     class="Stem" />
  <polyline
     transform="translate(-360,-389.243)"
     id="polyline1516"
     points="902.961,615.263 902.961,676.128"
     stroke-linejoin="bevel"
     stroke-width="2.34"
     stroke="#000000"
     class="Stem" />
  <polyline
     transform="translate(-360,-389.243)"
     id="polyline1518"
     points="1046.04,615.263 1046.04,676.128"
     stroke-linejoin="bevel"
     stroke-width="2.34"
     stroke="#000000"
     class="Stem" />
  <polyline
     transform="translate(-360,-389.243)"
     id="polyline1520"
     points="1173.45,609.689 1173.45,503.735"
     stroke-linejoin="bevel"
     stroke-width="2.34"
     stroke="#000000"
     class="Stem" />
  <polyline
     transform="translate(-360,-389.243)"
     id="polyline1522"
     points="2061.16,599.069 2061.16,527.448"
     stroke-linejoin="bevel"
     stroke-width="2.34"
     stroke="#000000"
     class="Stem" />
  <polyline
     transform="translate(-360,-389.243)"
     id="polyline1532"
     points="541.144,556.589 541.144,490.278"
     stroke-linejoin="bevel"
     stroke-width="2.34"
     stroke="#000000"
     class="Stem" />
  <polyline
     transform="translate(-360,-389.243)"
     id="polyline1534"
     points="659.008,567.209 659.008,498.697"
     stroke-linejoin="bevel"
     stroke-width="2.34"
     stroke="#000000"
     class="Stem" />
  <polyline
     transform="translate(-360,-389.243)"
     id="polyline1536"
     points="748.749,577.829 748.749,505.108"
     stroke-linejoin="bevel"
     stroke-width="2.34"
     stroke="#000000"
     class="Stem" />
  <polyline
     transform="translate(-360,-389.243)"
     id="polyline1538"
     points="838.49,588.449 838.49,511.518"
     stroke-linejoin="bevel"
     stroke-width="2.34"
     stroke="#000000"
     class="Stem" />
  <polyline
     transform="translate(-360,-389.243)"
     id="polyline1540"
     points="928.23,588.449 928.23,527.448"
     stroke-linejoin="bevel"
     stroke-width="2.34"
     stroke="#000000"
     class="Stem" />
  <polyline
     transform="translate(-360,-389.243)"
     id="polyline1542"
     points="1071.31,588.449 1071.31,527.448"
     stroke-linejoin="bevel"
     stroke-width="2.34"
     stroke="#000000"
     class="Stem" />
  <polyline
     transform="translate(-360,-389.243)"
     id="polyline1544"
     points="1161.05,588.449 1161.05,479.658"
     stroke-linejoin="bevel"
     stroke-width="2.34"
     stroke="#000000"
     class="Stem" />
  <polyline
     transform="translate(-360,-389.243)"
     id="polyline1546"
     points="1250.79,577.829 1250.79,479.658"
     stroke-linejoin="bevel"
     stroke-width="2.34"
     stroke="#000000"
     class="Stem" />
  <polyline
     transform="translate(-360,-389.243)"
     id="polyline1548"
     points="1319.3,567.209 1319.3,479.658"
     stroke-linejoin="bevel"
     stroke-width="2.34"
     stroke="#000000"
     class="Stem" />
  <polyline
     transform="translate(-360,-389.243)"
     id="polyline1550"
     points="1375.39,556.589 1375.39,479.658"
     stroke-linejoin="bevel"
     stroke-width="2.34"
     stroke="#000000"
     class="Stem" />
  <polyline
     transform="translate(-360,-389.243)"
     id="polyline1552"
     points="1431.48,567.209 1431.48,479.658"
     stroke-linejoin="bevel"
     stroke-width="2.34"
     stroke="#000000"
     class="Stem" />
  <polyline
     transform="translate(-360,-389.243)"
     id="polyline1554"
     points="1487.57,556.589 1487.57,479.658"
     stroke-linejoin="bevel"
     stroke-width="2.34"
     stroke="#000000"
     class="Stem" />
  <polyline
     transform="translate(-360,-389.243)"
     id="polyline1556"
     points="1543.65,577.829 1543.65,479.658"
     stroke-linejoin="bevel"
     stroke-width="2.34"
     stroke="#000000"
     class="Stem" />
  <polyline
     transform="translate(-360,-389.243)"
     id="polyline1558"
     points="1574.47,604.643 1574.47,713.298"
     stroke-linejoin="bevel"
     stroke-width="2.34"
     stroke="#000000"
     class="Stem" />
  <polyline
     transform="translate(-360,-389.243)"
     id="polyline1560"
     points="1683.9,615.263 1683.9,713.298"
     stroke-linejoin="bevel"
     stroke-width="2.34"
     stroke="#000000"
     class="Stem" />
  <polyline
     transform="translate(-360,-389.243)"
     id="polyline1562"
     points="1739.99,625.883 1739.99,713.298"
     stroke-linejoin="bevel"
     stroke-width="2.34"
     stroke="#000000"
     class="Stem" />
  <polyline
     transform="translate(-360,-389.243)"
     id="polyline1564"
     points="1796.08,604.643 1796.08,713.298"
     stroke-linejoin="bevel"
     stroke-width="2.34"
     stroke="#000000"
     class="Stem" />
  <polyline
     transform="translate(-360,-389.243)"
     id="polyline1566"
     points="1852.16,583.403 1852.16,713.298"
     stroke-linejoin="bevel"
     stroke-width="2.34"
     stroke="#000000"
     class="Stem" />
  <polyline
     transform="translate(-360,-389.243)"
     id="polyline1568"
     points="1908.25,562.163 1908.25,713.298"
     stroke-linejoin="bevel"
     stroke-width="2.34"
     stroke="#000000"
     class="Stem" />
  <polyline
     transform="translate(-360,-389.243)"
     id="polyline1570"
     points="2048.76,567.209 2048.76,447.798"
     stroke-linejoin="bevel"
     stroke-width="2.34"
     stroke="#000000"
     class="Stem" />
  <polyline
     transform="translate(-360,-389.243)"
     id="polyline1572"
     points="2127.71,556.589 2127.71,447.798"
     stroke-linejoin="bevel"
     stroke-width="2.34"
     stroke="#000000"
     class="Stem" />
  <polyline
     transform="translate(-360,-389.243)"
     id="polyline1574"
     points="2194.46,545.969 2194.46,447.798"
     stroke-linejoin="bevel"
     stroke-width="2.34"
     stroke="#000000"
     class="Stem" />
  <polyline
     transform="translate(-360,-389.243)"
     id="polyline1576"
     points="2261.21,556.589 2261.21,447.798"
     stroke-linejoin="bevel"
     stroke-width="2.34"
     stroke="#000000"
     class="Stem" />
  <polyline
     transform="translate(-360,-389.243)"
     id="polyline1578"
     points="2332.49,567.209 2332.49,447.798"
     stroke-linejoin="bevel"
     stroke-width="2.34"
     stroke="#000000"
     class="Stem" />
  <polyline
     transform="translate(-360,-389.243)"
     id="polyline1580"
     points="2399.24,577.829 2399.24,447.798"
     stroke-linejoin="bevel"
     stroke-width="2.34"
     stroke="#000000"
     class="Stem" />
  <polyline
     transform="translate(-360,-389.243)"
     id="polyline1582"
     points="2465.99,588.449 2465.99,447.798"
     stroke-linejoin="bevel"
     stroke-width="2.34"
     stroke="#000000"
     class="Stem" />
  <polyline
     transform="translate(-360,-389.243)"
     id="polyline1584"
     points="2532.75,577.829 2532.75,447.798"
     stroke-linejoin="bevel"
     stroke-width="2.34"
     stroke="#000000"
     class="Stem" />
  <polyline
     transform="translate(-360,-389.243)"
     id="polyline1586"
     points="2574.47,599.069 2574.47,447.798"
     stroke-linejoin="bevel"
     stroke-width="2.34"
     stroke="#000000"
     class="Stem" />
  <polyline
     transform="translate(-360,-389.243)"
     id="polyline1588"
     points="2616.19,609.689 2616.19,527.448"
     stroke-linejoin="bevel"
     stroke-width="2.34"
     stroke="#000000"
     class="Stem" />
  <path
     style="stroke-width:0.8496"
     id="path1812"
     d="m 206.2694,269.38324 c -1.52928,-2.80368 -4.75776,-4.33296 -8.66592,-4.33296 -2.88864,0 -6.03216,0.8496 -9.09072,2.46384 -5.60736,2.9736 -9.00576,7.98624 -9.00576,12.3192 0,1.18944 0.25488,2.37888 0.8496,3.48336 1.52928,2.80368 4.75776,4.248 8.66592,4.248 2.88864,0 6.03216,-0.76464 9.09072,-2.37888 5.60736,-2.9736 9.00576,-7.98624 9.00576,-12.3192 0,-1.18944 -0.25488,-2.37888 -0.8496,-3.48336"
     class="Note" />
  <path
     style="stroke-width:0.8496"
     id="path1814"
     d="m 826.1724,258.76324 c -1.52928,-2.80368 -4.75776,-4.33296 -8.66592,-4.33296 -2.88864,0 -6.03216,0.8496 -9.09072,2.46384 -5.60736,2.9736 -9.00576,7.98624 -9.00576,12.3192 0,1.18944 0.25488,2.37888 0.8496,3.48336 1.52928,2.80368 4.75776,4.248 8.66592,4.248 2.88864,0 6.03216,-0.76464 9.09072,-2.37888 5.60736,-2.9736 9.00576,-7.98624 9.00576,-12.3192 0,-1.18944 -0.25488,-2.37888 -0.8496,-3.48336"
     class="Note" />
  <path
     style="stroke-width:0.8496"
     id="path1816"
     d="m 1713.8824,269.38324 c -1.5293,-2.80368 -4.7578,-4.33296 -8.6659,-4.33296 -2.8887,0 -6.0322,0.8496 -9.0907,2.46384 -5.6074,2.9736 -9.0058,7.98624 -9.0058,12.3192 0,1.18944 0.2549,2.37888 0.8496,3.48336 1.5293,2.80368 4.7578,4.248 8.6659,4.248 2.8887,0 6.0322,-0.76464 9.0907,-2.37888 5.6074,-2.9736 9.0058,-7.98624 9.0058,-12.3192 0,-1.18944 -0.2549,-2.37888 -0.8496,-3.48336"
     class="Note" />
  <path
     style="stroke-width:0.8496"
     id="path1818"
     d="m 193.8694,226.90324 c -1.52928,-2.80368 -4.75776,-4.33296 -8.66592,-4.33296 -2.88864,0 -6.03216,0.8496 -9.09072,2.46384 -5.60736,2.9736 -9.00576,7.98624 -9.00576,12.3192 0,1.18944 0.25488,2.37888 0.8496,3.48336 1.52928,2.80368 4.75776,4.248 8.66592,4.248 2.88864,0 6.03216,-0.76464 9.09072,-2.37888 5.60736,-2.9736 9.00576,-7.98624 9.00576,-12.3192 0,-1.18944 -0.25488,-2.37888 -0.8496,-3.48336"
     class="Note" />
  <path
     style="stroke-width:0.8496"
     id="path1820"
     d="m 568.5554,216.28324 c -1.52928,-2.80368 -4.75776,-4.33296 -8.66592,-4.33296 -2.88864,0 -6.03216,0.8496 -9.09072,2.46384 -5.60736,2.9736 -9.00576,7.98624 -9.00576,12.3192 0,1.18944 0.25488,2.37888 0.8496,3.48336 1.52928,2.80368 4.75776,4.248 8.66592,4.248 2.88864,0 6.03216,-0.76464 9.09072,-2.37888 5.60736,-2.9736 9.00576,-7.98624 9.00576,-12.3192 0,-1.18944 -0.25488,-2.37888 -0.8496,-3.48336"
     class="Note" />
  <path
     style="stroke-width:0.8496"
     id="path1822"
     d="m 711.6324,216.28324 c -1.52928,-2.80368 -4.75776,-4.33296 -8.66592,-4.33296 -2.88864,0 -6.03216,0.8496 -9.09072,2.46384 -5.60736,2.9736 -9.00576,7.98624 -9.00576,12.3192 0,1.18944 0.25488,2.37888 0.8496,3.48336 1.52928,2.80368 4.75776,4.248 8.66592,4.248 2.88864,0 6.03216,-0.76464 9.09072,-2.37888 5.60736,-2.9736 9.00576,-7.98624 9.00576,-12.3192 0,-1.18944 -0.25488,-2.37888 -0.8496,-3.48336"
     class="Note" />
  <path
     style="stroke-width:0.8496"
     id="path1824"
     d="m 813.7724,216.28324 c -1.52928,-2.80368 -4.75776,-4.33296 -8.66592,-4.33296 -2.88864,0 -6.03216,0.8496 -9.09072,2.46384 -5.60736,2.9736 -9.00576,7.98624 -9.00576,12.3192 0,1.18944 0.25488,2.37888 0.8496,3.48336 1.52928,2.80368 4.75776,4.248 8.66592,4.248 2.88864,0 6.03216,-0.76464 9.09072,-2.37888 5.60736,-2.9736 9.00576,-7.98624 9.00576,-12.3192 0,-1.18944 -0.25488,-2.37888 -0.8496,-3.48336"
     class="Note" />
  <path
     style="stroke-width:0.8496"
     id="path1826"
     d="m 1701.4824,205.66324 c -1.5293,-2.80368 -4.7578,-4.33296 -8.6659,-4.33296 -2.8887,0 -6.0322,0.8496 -9.0907,2.46384 -5.6074,2.9736 -9.0058,7.98624 -9.0058,12.3192 0,1.18944 0.2549,2.37888 0.8496,3.48336 1.5293,2.80368 4.7578,4.248 8.6659,4.248 2.8887,0 6.0322,-0.76464 9.0907,-2.37888 5.6074,-2.9736 9.0058,-7.98624 9.0058,-12.3192 0,-1.18944 -0.2549,-2.37888 -0.8496,-3.48336"
     class="Note" />
  <path
     style="stroke-width:0.8496"
     id="path1836"
     d="m 181.4694,163.18324 c -1.52928,-2.80368 -4.75776,-4.33296 -8.66592,-4.33296 -2.88864,0 -6.03216,0.8496 -9.09072,2.46384 -5.60736,2.9736 -9.00576,7.98624 -9.00576,12.3192 0,1.18944 0.25488,2.37888 0.8496,3.48336 1.52928,2.80368 4.75776,4.248 8.66592,4.248 2.88864,0 6.03216,-0.76464 9.09072,-2.37888 5.60736,-2.9736 9.00576,-7.98624 9.00576,-12.3192 0,-1.18944 -0.25488,-2.37888 -0.8496,-3.48336"
     class="Note" />
  <path
     style="stroke-width:0.8496"
     id="path1838"
     d="m 299.3334,173.80324 c -1.52928,-2.80368 -4.75776,-4.33296 -8.66592,-4.33296 -2.88864,0 -6.03216,0.8496 -9.09072,2.46384 -5.60736,2.9736 -9.00576,7.98624 -9.00576,12.3192 0,1.18944 0.25488,2.37888 0.8496,3.48336 1.52928,2.80368 4.75776,4.248 8.66592,4.248 2.88864,0 6.03216,-0.76464 9.09072,-2.37888 5.60736,-2.9736 9.00576,-7.98624 9.00576,-12.3192 0,-1.18944 -0.25488,-2.37888 -0.8496,-3.48336"
     class="Note" />
  <path
     style="stroke-width:0.8496"
     id="path1840"
     d="m 389.0744,184.42324 c -1.52928,-2.80368 -4.75776,-4.33296 -8.66592,-4.33296 -2.88864,0 -6.03216,0.8496 -9.09072,2.46384 -5.60736,2.9736 -9.00576,7.98624 -9.00576,12.3192 0,1.18944 0.25488,2.37888 0.8496,3.48336 1.52928,2.80368 4.75776,4.248 8.66592,4.248 2.88864,0 6.03216,-0.76464 9.09072,-2.37888 5.60736,-2.9736 9.00576,-7.98624 9.00576,-12.3192 0,-1.18944 -0.25488,-2.37888 -0.8496,-3.48336"
     class="Note" />
  <path
     style="stroke-width:0.8496"
     id="path1842"
     d="m 478.8154,195.04324 c -1.52928,-2.80368 -4.75776,-4.33296 -8.66592,-4.33296 -2.88864,0 -6.03216,0.8496 -9.09072,2.46384 -5.60736,2.9736 -9.00576,7.98624 -9.00576,12.3192 0,1.18944 0.25488,2.37888 0.8496,3.48336 1.52928,2.80368 4.75776,4.248 8.66592,4.248 2.88864,0 6.03216,-0.76464 9.09072,-2.37888 5.60736,-2.9736 9.00576,-7.98624 9.00576,-12.3192 0,-1.18944 -0.25488,-2.37888 -0.8496,-3.48336"
     class="Note" />
  <path
     style="stroke-width:0.8496"
     id="path1844"
     d="m 568.5554,195.04324 c -1.52928,-2.80368 -4.75776,-4.33296 -8.66592,-4.33296 -2.88864,0 -6.03216,0.8496 -9.09072,2.46384 -5.60736,2.9736 -9.00576,7.98624 -9.00576,12.3192 0,1.18944 0.25488,2.37888 0.8496,3.48336 1.52928,2.80368 4.75776,4.248 8.66592,4.248 2.88864,0 6.03216,-0.76464 9.09072,-2.37888 5.60736,-2.9736 9.00576,-7.98624 9.00576,-12.3192 0,-1.18944 -0.25488,-2.37888 -0.8496,-3.48336"
     class="Note" />
  <path
     style="stroke-width:0.8496"
     id="path1846"
     d="m 711.6324,195.04324 c -1.52928,-2.80368 -4.75776,-4.33296 -8.66592,-4.33296 -2.88864,0 -6.03216,0.8496 -9.09072,2.46384 -5.60736,2.9736 -9.00576,7.98624 -9.00576,12.3192 0,1.18944 0.25488,2.37888 0.8496,3.48336 1.52928,2.80368 4.75776,4.248 8.66592,4.248 2.88864,0 6.03216,-0.76464 9.09072,-2.37888 5.60736,-2.9736 9.00576,-7.98624 9.00576,-12.3192 0,-1.18944 -0.25488,-2.37888 -0.8496,-3.48336"
     class="Note" />
  <path
     style="stroke-width:0.8496"
     id="path1848"
     d="m 801.3724,195.04324 c -1.52928,-2.80368 -4.75776,-4.33296 -8.66592,-4.33296 -2.88864,0 -6.03216,0.8496 -9.09072,2.46384 -5.60736,2.9736 -9.00576,7.98624 -9.00576,12.3192 0,1.18944 0.25488,2.37888 0.8496,3.48336 1.52928,2.80368 4.75776,4.248 8.66592,4.248 2.88864,0 6.03216,-0.76464 9.09072,-2.37888 5.60736,-2.9736 9.00576,-7.98624 9.00576,-12.3192 0,-1.18944 -0.25488,-2.37888 -0.8496,-3.48336"
     class="Note" />
  <path
     style="stroke-width:0.8496"
     id="path1850"
     d="m 891.1124,184.42324 c -1.52928,-2.80368 -4.75776,-4.33296 -8.66592,-4.33296 -2.88864,0 -6.03216,0.8496 -9.09072,2.46384 -5.60736,2.9736 -9.00576,7.98624 -9.00576,12.3192 0,1.18944 0.25488,2.37888 0.8496,3.48336 1.52928,2.80368 4.75776,4.248 8.66592,4.248 2.88864,0 6.03216,-0.76464 9.09072,-2.37888 5.60736,-2.9736 9.00576,-7.98624 9.00576,-12.3192 0,-1.18944 -0.25488,-2.37888 -0.8496,-3.48336"
     class="Note" />
  <path
     style="stroke-width:0.8496"
     id="path1852"
     d="m 959.6324,173.80324 c -1.52928,-2.80368 -4.75776,-4.33296 -8.66592,-4.33296 -2.88864,0 -6.03216,0.8496 -9.09072,2.46384 -5.60736,2.9736 -9.00576,7.98624 -9.00576,12.3192 0,1.18944 0.25488,2.37888 0.8496,3.48336 1.52928,2.80368 4.75776,4.248 8.66592,4.248 2.88864,0 6.03216,-0.76464 9.09072,-2.37888 5.60736,-2.9736 9.00576,-7.98624 9.00576,-12.3192 0,-1.18944 -0.25488,-2.37888 -0.8496,-3.48336"
     class="Note" />
  <path
     style="stroke-width:0.8496"
     id="path1854"
     d="m 1015.7124,163.18324 c -1.5293,-2.80368 -4.7578,-4.33296 -8.6659,-4.33296 -2.8887,0 -6.0322,0.8496 -9.09074,2.46384 -5.60736,2.9736 -9.00576,7.98624 -9.00576,12.3192 0,1.18944 0.25488,2.37888 0.8496,3.48336 1.52928,2.80368 4.75776,4.248 8.66592,4.248 2.88868,0 6.03218,-0.76464 9.09068,-2.37888 5.6074,-2.9736 9.0058,-7.98624 9.0058,-12.3192 0,-1.18944 -0.2549,-2.37888 -0.8496,-3.48336"
     class="Note" />
  <path
     style="stroke-width:0.8496"
     id="path1856"
     d="m 1071.8024,173.80324 c -1.5293,-2.80368 -4.7578,-4.33296 -8.6659,-4.33296 -2.8887,0 -6.0322,0.8496 -9.0907,2.46384 -5.6074,2.9736 -9.0058,7.98624 -9.0058,12.3192 0,1.18944 0.2549,2.37888 0.8496,3.48336 1.5293,2.80368 4.7578,4.248 8.6659,4.248 2.8887,0 6.0322,-0.76464 9.0907,-2.37888 5.6074,-2.9736 9.0058,-7.98624 9.0058,-12.3192 0,-1.18944 -0.2549,-2.37888 -0.8496,-3.48336"
     class="Note" />
  <path
     style="stroke-width:0.8496"
     id="path1858"
     d="m 1127.8924,163.18324 c -1.5293,-2.80368 -4.7578,-4.33296 -8.6659,-4.33296 -2.8887,0 -6.0322,0.8496 -9.0907,2.46384 -5.6074,2.9736 -9.0058,7.98624 -9.0058,12.3192 0,1.18944 0.2549,2.37888 0.8496,3.48336 1.5293,2.80368 4.7578,4.248 8.6659,4.248 2.8887,0 6.0322,-0.76464 9.0907,-2.37888 5.6074,-2.9736 9.0058,-7.98624 9.0058,-12.3192 0,-1.18944 -0.2549,-2.37888 -0.8496,-3.48336"
     class="Note" />
  <path
     style="stroke-width:0.8496"
     id="path1860"
     d="m 1183.9824,184.42324 c -1.5293,-2.80368 -4.7578,-4.33296 -8.6659,-4.33296 -2.8887,0 -6.0322,0.8496 -9.0907,2.46384 -5.6074,2.9736 -9.0058,7.98624 -9.0058,12.3192 0,1.18944 0.2549,2.37888 0.8496,3.48336 1.5293,2.80368 4.7578,4.248 8.6659,4.248 2.8887,0 6.0322,-0.76464 9.0907,-2.37888 5.6074,-2.9736 9.0058,-7.98624 9.0058,-12.3192 0,-1.18944 -0.2549,-2.37888 -0.8496,-3.48336"
     class="Note" />
  <path
     style="stroke-width:0.8496"
     id="path1862"
     d="m 1240.0724,205.66324 c -1.5293,-2.80368 -4.7578,-4.33296 -8.6659,-4.33296 -2.8887,0 -6.0322,0.8496 -9.0907,2.46384 -5.6074,2.9736 -9.0058,7.98624 -9.0058,12.3192 0,1.18944 0.2549,2.37888 0.8496,3.48336 1.5293,2.80368 4.7578,4.248 8.6659,4.248 2.8887,0 6.0322,-0.76464 9.0907,-2.37888 5.6074,-2.9736 9.0058,-7.98624 9.0058,-12.3192 0,-1.18944 -0.2549,-2.37888 -0.8496,-3.48336"
     class="Note" />
  <path
     style="stroke-width:0.8496"
     id="path1864"
     d="m 1349.4924,216.28324 c -1.5293,-2.80368 -4.7578,-4.33296 -8.6659,-4.33296 -2.8887,0 -6.0322,0.8496 -9.0907,2.46384 -5.6074,2.9736 -9.0058,7.98624 -9.0058,12.3192 0,1.18944 0.2549,2.37888 0.8496,3.48336 1.5293,2.80368 4.7578,4.248 8.6659,4.248 2.8887,0 6.0322,-0.76464 9.0907,-2.37888 5.6074,-2.9736 9.0058,-7.98624 9.0058,-12.3192 0,-1.18944 -0.2549,-2.37888 -0.8496,-3.48336"
     class="Note" />
  <path
     style="stroke-width:0.8496"
     id="path1866"
     d="m 1405.5824,226.90324 c -1.5293,-2.80368 -4.7578,-4.33296 -8.6659,-4.33296 -2.8887,0 -6.0322,0.8496 -9.0907,2.46384 -5.6074,2.9736 -9.0058,7.98624 -9.0058,12.3192 0,1.18944 0.2549,2.37888 0.8496,3.48336 1.5293,2.80368 4.7578,4.248 8.6659,4.248 2.8887,0 6.0322,-0.76464 9.0907,-2.37888 5.6074,-2.9736 9.0058,-7.98624 9.0058,-12.3192 0,-1.18944 -0.2549,-2.37888 -0.8496,-3.48336"
     class="Note" />
  <path
     style="stroke-width:0.8496"
     id="path1868"
     d="m 1461.6724,205.66324 c -1.5293,-2.80368 -4.7578,-4.33296 -8.6659,-4.33296 -2.8887,0 -6.0322,0.8496 -9.0907,2.46384 -5.6074,2.9736 -9.0058,7.98624 -9.0058,12.3192 0,1.18944 0.2549,2.37888 0.8496,3.48336 1.5293,2.80368 4.7578,4.248 8.6659,4.248 2.8887,0 6.0322,-0.76464 9.0907,-2.37888 5.6074,-2.9736 9.0058,-7.98624 9.0058,-12.3192 0,-1.18944 -0.2549,-2.37888 -0.8496,-3.48336"
     class="Note" />
  <path
     style="stroke-width:0.8496"
     id="path1870"
     d="m 1517.7624,184.42324 c -1.5293,-2.80368 -4.7578,-4.33296 -8.6659,-4.33296 -2.8887,0 -6.0322,0.8496 -9.0907,2.46384 -5.6074,2.9736 -9.0058,7.98624 -9.0058,12.3192 0,1.18944 0.2549,2.37888 0.8496,3.48336 1.5293,2.80368 4.7578,4.248 8.6659,4.248 2.8887,0 6.0322,-0.76464 9.0907,-2.37888 5.6074,-2.9736 9.0058,-7.98624 9.0058,-12.3192 0,-1.18944 -0.2549,-2.37888 -0.8496,-3.48336"
     class="Note" />
  <path
     style="stroke-width:0.8496"
     id="path1872"
     d="m 1573.8424,163.18324 c -1.5293,-2.80368 -4.7578,-4.33296 -8.6659,-4.33296 -2.8887,0 -6.0322,0.8496 -9.0907,2.46384 -5.6074,2.9736 -9.0058,7.98624 -9.0058,12.3192 0,1.18944 0.2549,2.37888 0.8496,3.48336 1.5293,2.80368 4.7578,4.248 8.6659,4.248 2.8887,0 6.0322,-0.76464 9.0907,-2.37888 5.6074,-2.9736 9.0058,-7.98624 9.0058,-12.3192 0,-1.18944 -0.2549,-2.37888 -0.8496,-3.48336"
     class="Note" />
  <path
     style="stroke-width:0.8496"
     id="path1874"
     d="m 1689.0824,173.80324 c -1.5293,-2.80368 -4.7578,-4.33296 -8.6659,-4.33296 -2.8887,0 -6.0322,0.8496 -9.0907,2.46384 -5.6074,2.9736 -9.0058,7.98624 -9.0058,12.3192 0,1.18944 0.2549,2.37888 0.8496,3.48336 1.5293,2.80368 4.7578,4.248 8.6659,4.248 2.8887,0 6.0322,-0.76464 9.0907,-2.37888 5.6074,-2.9736 9.0058,-7.98624 9.0058,-12.3192 0,-1.18944 -0.2549,-2.37888 -0.8496,-3.48336"
     class="Note" />
  <path
     style="stroke-width:0.8496"
     id="path1876"
     d="m 1768.0324,163.18324 c -1.5293,-2.80368 -4.7578,-4.33296 -8.6659,-4.33296 -2.8887,0 -6.0322,0.8496 -9.0907,2.46384 -5.6074,2.9736 -9.0058,7.98624 -9.0058,12.3192 0,1.18944 0.2549,2.37888 0.8496,3.48336 1.5293,2.80368 4.7578,4.248 8.6659,4.248 2.8887,0 6.0322,-0.76464 9.0907,-2.37888 5.6074,-2.9736 9.0058,-7.98624 9.0058,-12.3192 0,-1.18944 -0.2549,-2.37888 -0.8496,-3.48336"
     class="Note" />
  <path
     style="stroke-width:0.8496"
     id="path1878"
     d="m 1834.7824,152.56324 c -1.5293,-2.80368 -4.7578,-4.33296 -8.6659,-4.33296 -2.8887,0 -6.0322,0.8496 -9.0907,2.46384 -5.6074,2.9736 -9.0058,7.98624 -9.0058,12.3192 0,1.18944 0.2549,2.37888 0.8496,3.48336 1.5293,2.80368 4.7578,4.248 8.6659,4.248 2.8887,0 6.0322,-0.76464 9.0907,-2.37888 5.6074,-2.9736 9.0058,-7.98624 9.0058,-12.3192 0,-1.18944 -0.2549,-2.37888 -0.8496,-3.48336"
     class="Note" />
  <path
     style="stroke-width:0.8496"
     id="path1880"
     d="m 1901.5424,163.18324 c -1.5293,-2.80368 -4.7578,-4.33296 -8.6659,-4.33296 -2.8887,0 -6.0322,0.8496 -9.0907,2.46384 -5.6074,2.9736 -9.0058,7.98624 -9.0058,12.3192 0,1.18944 0.2549,2.37888 0.8496,3.48336 1.5293,2.80368 4.7578,4.248 8.6659,4.248 2.8887,0 6.0322,-0.76464 9.0907,-2.37888 5.6074,-2.9736 9.0058,-7.98624 9.0058,-12.3192 0,-1.18944 -0.2549,-2.37888 -0.8496,-3.48336"
     class="Note" />
  <path
     style="stroke-width:0.8496"
     id="path1882"
     d="m 1972.8124,173.80324 c -1.5293,-2.80368 -4.7578,-4.33296 -8.6659,-4.33296 -2.8887,0 -6.0322,0.8496 -9.0907,2.46384 -5.6074,2.9736 -9.0058,7.98624 -9.0058,12.3192 0,1.18944 0.2549,2.37888 0.8496,3.48336 1.5293,2.80368 4.7578,4.248 8.6659,4.248 2.8887,0 6.0322,-0.76464 9.0907,-2.37888 5.6074,-2.9736 9.0058,-7.98624 9.0058,-12.3192 0,-1.18944 -0.2549,-2.37888 -0.8496,-3.48336"
     class="Note" />
  <path
     style="stroke-width:0.8496"
     id="path1884"
     d="m 2039.5624,184.42324 c -1.5293,-2.80368 -4.7578,-4.33296 -8.6659,-4.33296 -2.8887,0 -6.0322,0.8496 -9.0907,2.46384 -5.6074,2.9736 -9.0058,7.98624 -9.0058,12.3192 0,1.18944 0.2549,2.37888 0.8496,3.48336 1.5293,2.80368 4.7578,4.248 8.6659,4.248 2.8887,0 6.0322,-0.76464 9.0907,-2.37888 5.6074,-2.9736 9.0058,-7.98624 9.0058,-12.3192 0,-1.18944 -0.2549,-2.37888 -0.8496,-3.48336"
     class="Note" />
  <path
     style="stroke-width:0.8496"
     id="path1886"
     d="m 2106.3224,195.04324 c -1.5293,-2.80368 -4.7578,-4.33296 -8.6659,-4.33296 -2.8887,0 -6.0322,0.8496 -9.0907,2.46384 -5.6074,2.9736 -9.0058,7.98624 -9.0058,12.3192 0,1.18944 0.2549,2.37888 0.8496,3.48336 1.5293,2.80368 4.7578,4.248 8.6659,4.248 2.8887,0 6.0322,-0.76464 9.0907,-2.37888 5.6074,-2.9736 9.0058,-7.98624 9.0058,-12.3192 0,-1.18944 -0.2549,-2.37888 -0.8496,-3.48336"
     class="Note" />
  <path
     style="stroke-width:0.8496"
     id="path1888"
     d="m 2173.0724,184.42324 c -1.5293,-2.80368 -4.7578,-4.33296 -8.6659,-4.33296 -2.8887,0 -6.0322,0.8496 -9.0907,2.46384 -5.6074,2.9736 -9.0058,7.98624 -9.0058,12.3192 0,1.18944 0.2549,2.37888 0.8496,3.48336 1.5293,2.80368 4.7578,4.248 8.6659,4.248 2.8887,0 6.0322,-0.76464 9.0907,-2.37888 5.6074,-2.9736 9.0058,-7.98624 9.0058,-12.3192 0,-1.18944 -0.2549,-2.37888 -0.8496,-3.48336"
     class="Note" />
  <path
     style="stroke-width:0.8496"
     id="path1890"
     d="m 2214.7924,205.66324 c -1.5293,-2.80368 -4.7578,-4.33296 -8.6659,-4.33296 -2.8887,0 -6.0322,0.8496 -9.0907,2.46384 -5.6074,2.9736 -9.0058,7.98624 -9.0058,12.3192 0,1.18944 0.2549,2.37888 0.8496,3.48336 1.5293,2.80368 4.7578,4.248 8.6659,4.248 2.8887,0 6.0322,-0.76464 9.0907,-2.37888 5.6074,-2.9736 9.0058,-7.98624 9.0058,-12.3192 0,-1.18944 -0.2549,-2.37888 -0.8496,-3.48336"
     class="Note" />
  <path
     style="stroke-width:0.8496"
     id="path1892"
     d="m 2256.5124,216.28324 c -1.5293,-2.80368 -4.7578,-4.33296 -8.6659,-4.33296 -2.8887,0 -6.0322,0.8496 -9.0907,2.46384 -5.6074,2.9736 -9.0058,7.98624 -9.0058,12.3192 0,1.18944 0.2549,2.37888 0.8496,3.48336 1.5293,2.80368 4.7578,4.248 8.6659,4.248 2.8887,0 6.0322,-0.76464 9.0907,-2.37888 5.6074,-2.9736 9.0058,-7.98624 9.0058,-12.3192 0,-1.18944 -0.2549,-2.37888 -0.8496,-3.48336"
     class="Note" />
  <path
     style="stroke-width:0.8496"
     id="path2116"
     d="m 24.2136,183.31876 h -6.11712 c -0.59472,0 -1.10448,0.50976 -1.10448,1.10448 v 77.3136 c 0,0.59472 0.50976,1.10448 1.10448,1.10448 h 6.11712 c 0.59472,0 1.10448,-0.50976 1.10448,-1.10448 v -77.3136 c 0,-0.59472 -0.50976,-1.10448 -1.10448,-1.10448 m 30.5856,43.24464 h -1.2744 c -1.95408,0 -3.3984,0.16992 -6.71184,2.20896 0,0 -1.86912,-3.73824 -4.6728,-5.69232 2.80368,-1.95408 4.6728,-5.69232 4.6728,-5.69232 3.31344,2.03904 4.75776,2.20896 6.71184,2.20896 h 1.2744 c 10.36512,0 15.46272,-9.60048 15.46272,-18.77616 0,-11.8944 -8.75088,-18.60624 -19.03104,-18.60624 -9.3456,0 -13.25376,4.6728 -13.25376,4.6728 -1.52928,1.86912 -2.20896,3.90816 -2.20896,5.77728 0,1.52928 0.4248,2.9736 1.2744,4.248 1.18944,1.6992 3.56832,2.63376 5.77728,2.63376 1.52928,0 2.9736,-0.4248 3.99312,-1.2744 1.44432,-1.2744 2.37888,-3.14352 2.37888,-5.18256 0,-1.18944 -0.33984,-2.37888 -0.93456,-3.48336 -1.35936,-2.46384 -3.90816,-2.80368 -5.26752,-2.80368 -0.50976,0 -0.93456,0.085 -0.93456,0.085 1.95408,-1.35936 4.58784,-2.124 7.2216,-2.124 2.37888,0 4.6728,0.59472 6.28704,1.78416 2.9736,2.20896 4.07808,6.88176 4.07808,12.99888 0,6.54192 -0.16992,16.05744 -7.6464,16.05744 -7.47648,0 -9.17568,-8.9208 -9.17568,-8.9208 0,0 0,-1.18944 -1.18944,-1.18944 -1.18944,0 -1.2744,1.18944 -1.2744,1.18944 0,0 -0.67968,4.33296 -2.9736,9.60048 -1.35936,3.14352 -3.3984,4.58784 -4.84272,5.18256 v -37.04256 c 0,-0.59472 -0.4248,-1.10448 -1.01952,-1.10448 -0.59472,0 -1.10448,0.50976 -1.10448,1.10448 v 77.3136 c 0,0.59472 0.50976,1.10448 1.10448,1.10448 0.59472,0 1.01952,-0.50976 1.01952,-1.10448 v -37.04256 c 1.44432,0.59472 3.48336,2.03904 4.84272,5.18256 2.29392,5.26752 2.9736,9.68544 2.9736,9.68544 0,0 0.08496,1.10448 1.2744,1.10448 1.18944,0 1.18944,-1.10448 1.18944,-1.10448 0,0 1.6992,-9.00576 9.17568,-9.00576 7.47648,0 7.6464,9.51552 7.6464,16.05744 0,6.11712 -1.10448,10.78992 -4.07808,12.99888 -1.61424,1.18944 -3.90816,1.78416 -6.28704,1.78416 -2.63376,0 -5.26752,-0.76464 -7.2216,-2.124 0,0 0.4248,0.085 0.93456,0.085 1.35936,0 3.90816,-0.33984 5.26752,-2.80368 0.59472,-1.10448 0.93456,-2.29392 0.93456,-3.48336 0,-2.03904 -0.93456,-3.90816 -2.37888,-5.18256 -1.01952,-0.8496 -2.46384,-1.2744 -3.99312,-1.2744 -2.20896,0 -4.58784,0.93456 -5.77728,2.63376 -0.8496,1.2744 -1.2744,2.71872 -1.2744,4.248 0,1.86912 0.67968,3.90816 2.20896,5.77728 0,0 3.90816,4.6728 13.25376,4.6728 10.28016,0 19.03104,-6.71184 19.03104,-18.60624 0,-9.17568 -5.0976,-18.77616 -15.46272,-18.77616"
     class="Clef" />
  <path
     style="stroke-width:0.8496"
     id="path2128"
     d="m 132.53368,214.15924 c 0.50976,-0.085 0.93456,-0.67968 0.93456,-1.18944 v -5.01264 c 0,-0.67968 -0.50976,-1.18944 -1.18944,-1.18944 h -0.16992 l -2.80368,0.59472 V 194.7034 h -2.37888 v 13.1688 l -7.56144,1.52928 V 197.42212 H 116.986 v 12.48912 l -3.31344,0.67968 c -0.50976,0.085 -0.93456,0.67968 -0.93456,1.18944 v 0.16992 4.92768 -0.16992 c 0,0.67968 0.50976,1.18944 1.18944,1.18944 h 0.25488 l 2.80368,-0.59472 v 14.0184 l -3.31344,0.67968 c -0.50976,0.085 -0.93456,0.67968 -0.93456,1.18944 v 4.92768 c 0,0.67968 0.50976,1.18944 1.18944,1.18944 h 0.25488 l 2.80368,-0.59472 v 12.65904 h 2.37888 v -13.1688 l 7.56144,-1.52928 V 248.653 h 2.37888 v -12.48912 l 3.22848,-0.59472 c 0.50976,-0.085 0.93456,-0.67968 0.93456,-1.18944 v -5.01264 c 0,-0.67968 -0.50976,-1.18944 -1.18944,-1.18944 h -0.16992 l -2.80368,0.59472 v -14.0184 l 3.22848,-0.59472 m -13.1688,16.73712 V 216.793 l 7.56144,-1.52928 v 14.0184 l -7.56144,1.61424"
     class="KeySig" />
  <path
     style="stroke-width:0.8496"
     id="path2130"
     d="m 111.29368,256.63924 c 0.50976,-0.085 0.93456,-0.67968 0.93456,-1.18944 v -5.01264 c 0,-0.67968 -0.50976,-1.18944 -1.18944,-1.18944 h -0.16992 l -2.80368,0.59472 V 237.1834 h -2.37888 v 13.1688 l -7.56144,1.52928 V 239.90212 H 95.746 v 12.48912 l -3.31344,0.67968 c -0.50976,0.085 -0.93456,0.67968 -0.93456,1.18944 v 0.16992 4.92768 -0.16992 c 0,0.67968 0.50976,1.18944 1.18944,1.18944 h 0.25488 l 2.80368,-0.59472 v 14.0184 l -3.31344,0.67968 c -0.50976,0.085 -0.93456,0.67968 -0.93456,1.18944 v 4.92768 c 0,0.67968 0.50976,1.18944 1.18944,1.18944 h 0.25488 l 2.80368,-0.59472 v 12.65904 h 2.37888 v -13.1688 l 7.56144,-1.52928 V 291.133 h 2.37888 v -12.48912 l 3.22848,-0.59472 c 0.50976,-0.085 0.93456,-0.67968 0.93456,-1.18944 v -5.01264 c 0,-0.67968 -0.50976,-1.18944 -1.18944,-1.18944 h -0.16992 l -2.80368,0.59472 v -14.0184 l 3.22848,-0.59472 m -13.1688,16.73712 V 259.273 l 7.56144,-1.52928 v 14.0184 l -7.56144,1.61424"
     class="KeySig" />
  <path
     style="stroke-width:0.8496"
     id="path2144"
     d="M 475.5842,74.87284 V 83.029 h 2.71872 v -8.15616 c 3.3984,-0.76464 5.9472,-4.33296 5.9472,-8.41104 0,-4.6728 -3.22848,-8.58096 -7.30656,-8.58096 -4.07808,0 -7.30656,3.90816 -7.30656,8.58096 0,4.07808 2.5488,7.6464 5.9472,8.41104 m 1.35936,-15.88752 c 1.44432,0 3.22848,3.22848 3.22848,7.2216 0,3.99312 -1.78416,7.30656 -3.22848,7.30656 -1.44432,0 -3.22848,-3.31344 -3.22848,-7.30656 0,-3.99312 1.78416,-7.2216 3.22848,-7.2216"
     class="Articulation" />
  <path
     style="stroke-width:0.8496"
     id="path2146"
     d="M 554.2422,62.01084 V 70.167 h 2.71872 v -8.15616 c 3.3984,-0.76464 5.9472,-4.33296 5.9472,-8.41104 0,-4.6728 -3.22848,-8.58096 -7.30656,-8.58096 -4.07808,0 -7.30656,3.90816 -7.30656,8.58096 0,4.07808 2.5488,7.6464 5.9472,8.41104 m 1.35936,-15.88752 c 1.44432,0 3.22848,3.22848 3.22848,7.2216 0,3.99312 -1.78416,7.30656 -3.22848,7.30656 -1.44432,0 -3.22848,-3.31344 -3.22848,-7.30656 0,-3.99312 1.78416,-7.2216 3.22848,-7.2216"
     class="Articulation" />
  <path
     style="stroke-width:0.8496"
     id="path2148"
     d="M 781.3572,65.80484 V 73.961 h 2.71872 v -8.15616 c 3.3984,-0.76464 5.9472,-4.33296 5.9472,-8.41104 0,-4.6728 -3.22848,-8.58096 -7.30656,-8.58096 -4.07808,0 -7.30656,3.90816 -7.30656,8.58096 0,4.07808 2.5488,7.6464 5.9472,8.41104 m 1.35936,-15.88752 c 1.44432,0 3.22848,3.22848 3.22848,7.2216 0,3.99312 -1.78416,7.30656 -3.22848,7.30656 -1.44432,0 -3.22848,-3.31344 -3.22848,-7.30656 0,-3.99312 1.78416,-7.2216 3.22848,-7.2216"
     class="Articulation" />
  <path
     style="stroke-width:0.8496"
     id="path2150"
     d="m 1240.0871,127.878 c -3.3134,0 -5.1825,2.20896 -5.1825,2.20896 l -0.6797,-0.67968 c -0.4248,-0.4248 -1.1045,-0.4248 -1.1045,-0.4248 h -8.7509 l 2.8887,-8.9208 c 0.1699,-0.59472 -0.5098,-1.35936 -1.1895,-1.35936 h -0.7646 c -0.2549,0 -0.6797,0.25488 -0.8496,0.4248 -0.1699,0.16992 -4.0781,3.3984 -4.4179,3.65328 -0.3399,0.25488 -0.4248,0.67968 -0.4248,0.67968 0,0 -0.8496,2.37888 -1.9541,5.5224 h -4.7578 c -1.0195,0 -1.1894,1.01952 -1.1894,1.01952 v 1.10448 c 0,0.93456 1.1894,1.01952 1.1894,1.01952 h 3.7383 c -1.8692,5.60736 -3.9082,12.23424 -3.9082,14.10336 0,4.07808 2.8037,5.01264 5.4374,5.01264 2.6338,0 5.5224,-2.03904 5.5224,-2.03904 0,0 0.2549,0.59472 0.5098,1.2744 0.2549,0.67968 1.0195,0.76464 1.0195,0.76464 h 3.8232 c 1.1045,0 1.2744,-0.93456 1.2744,-0.93456 v -1.61424 c 0,-1.86912 1.3594,-6.11712 1.3594,-6.11712 l 3.5683,-8.0712 c 0,0 0.8496,-1.61424 1.7842,-2.46384 0.9345,-0.76464 1.954,-1.10448 2.3788,-0.8496 -1.1894,0.76464 -1.4443,2.03904 -1.4443,3.05856 0,1.01952 1.1045,3.22848 3.3984,3.22848 2.8887,0 3.9082,-1.78416 3.9082,-4.41792 0,-2.63376 -1.8691,-5.18256 -5.1826,-5.18256 m -14.2733,14.95296 c -0.6796,2.29392 -2.9736,3.8232 -4.4179,3.8232 -0.2549,0 -0.4248,0 -0.5947,-0.085 -0.6797,-0.33984 -0.9346,-1.18944 -0.9346,-2.124 0,-1.95408 0.9346,-4.41792 0.9346,-4.41792 l 2.5488,-7.90128 h 5.6074 c 0.2548,0 0.2548,0.25488 0.2548,0.25488 0,0 -2.6337,7.81632 -3.3984,10.45008"
     class="Articulation" />
  <path
     style="stroke-width:0.8496"
     id="path2152"
     d="m 2266.5271,89.721 c -3.3134,0 -5.1825,2.20896 -5.1825,2.20896 l -0.6797,-0.67968 c -0.4248,-0.4248 -1.1045,-0.4248 -1.1045,-0.4248 h -8.7509 l 2.8887,-8.9208 c 0.1699,-0.59472 -0.5098,-1.35936 -1.1895,-1.35936 h -0.7646 c -0.2549,0 -0.6797,0.25488 -0.8496,0.4248 -0.1699,0.16992 -4.0781,3.3984 -4.4179,3.65328 -0.3399,0.25488 -0.4248,0.67968 -0.4248,0.67968 0,0 -0.8496,2.37888 -1.9541,5.5224 h -4.7578 c -1.0195,0 -1.1894,1.01952 -1.1894,1.01952 v 1.10448 c 0,0.93456 1.1894,1.01952 1.1894,1.01952 h 3.7383 c -1.8692,5.60736 -3.9082,12.23424 -3.9082,14.10336 0,4.07808 2.8037,5.01264 5.4374,5.01264 2.6338,0 5.5224,-2.03904 5.5224,-2.03904 0,0 0.2549,0.59472 0.5098,1.2744 0.2549,0.67968 1.0195,0.76464 1.0195,0.76464 h 3.8232 c 1.1045,0 1.2744,-0.93456 1.2744,-0.93456 v -1.61424 c 0,-1.86912 1.3594,-6.11712 1.3594,-6.11712 l 3.5683,-8.0712 c 0,0 0.8496,-1.61424 1.7842,-2.46384 0.9345,-0.76464 1.954,-1.10448 2.3788,-0.8496 -1.1894,0.76464 -1.4443,2.03904 -1.4443,3.05856 0,1.01952 1.1045,3.22848 3.3984,3.22848 2.8887,0 3.9082,-1.78416 3.9082,-4.41792 0,-2.63376 -1.8691,-5.18256 -5.1826,-5.18256 m -14.2733,14.95296 c -0.6796,2.29392 -2.9736,3.8232 -4.4179,3.8232 -0.2549,0 -0.4248,0 -0.5947,-0.085 -0.6797,-0.33984 -0.9346,-1.18944 -0.9346,-2.124 0,-1.95408 0.9346,-4.41792 0.9346,-4.41792 L 2249.79,93.969 h 5.6074 c 0.2548,0 0.2548,0.25488 0.2548,0.25488 0,0 -2.6337,7.81632 -3.3984,10.45008"
     class="Articulation" />
  <path
     id="path2182"
     d="M 541.793,281.575 H 687.21 v 10.62 H 541.793 v -10.62"
     fill-rule="evenodd"
     class="Beam" />
  <path
     id="path2184"
     d="M 687.21,265.645 H 659.6 v 10.62 h 27.61 v -10.62"
     fill-rule="evenodd"
     class="Beam" />
  <path
     id="path2186"
     d="m 179.976,95.545 299.682,21.407 v 10.647 L 179.976,106.192 V 95.545"
     fill-rule="evenodd"
     class="Beam" />
  <path
     id="path2188"
     d="m 179.976,111.475 299.682,21.407 v 10.647 L 179.976,122.122 v -10.647"
     fill-rule="evenodd"
     class="Beam" />
  <path
     id="path2190"
     d="M 567.062,132.895 H 712.48 v 10.62 H 567.062 v -10.62"
     fill-rule="evenodd"
     class="Beam" />
  <path
     id="path2192"
     d="m 712.48,148.825 h -27.61 v 10.62 h 27.61 v -10.62"
     fill-rule="evenodd"
     class="Beam" />
  <path
     id="path2194"
     d="m 799.88,85.105 h 384.94 v 10.62 H 799.88 v -10.62"
     fill-rule="evenodd"
     class="Beam" />
  <path
     id="path2196"
     d="m 799.88,101.035 h 160.59 v 10.62 H 799.88 v -10.62"
     fill-rule="evenodd"
     class="Beam" />
  <path
     id="path2198"
     d="m 1014.22,101.035 h 170.6 v 10.62 h -170.6 v -10.62"
     fill-rule="evenodd"
     class="Beam" />
  <path
     id="path2200"
     d="m 889.62,116.965 h 70.85 v 10.62 h -70.85 v -10.62"
     fill-rule="evenodd"
     class="Beam" />
  <path
     id="path2202"
     d="m 1014.22,116.965 h 170.6 v 10.62 h -170.6 v -10.62"
     fill-rule="evenodd"
     class="Beam" />
  <path
     id="path2204"
     d="m 1213.31,318.745 h 336.11 v 10.62 h -336.11 v -10.62"
     fill-rule="evenodd"
     class="Beam" />
  <path
     id="path2206"
     d="m 1213.31,302.815 h 111.76 v 10.62 h -111.76 v -10.62"
     fill-rule="evenodd"
     class="Beam" />
  <path
     id="path2208"
     d="m 1378.82,302.815 h 170.6 v 10.62 h -170.6 v -10.62"
     fill-rule="evenodd"
     class="Beam" />
  <path
     id="path2210"
     d="m 1325.07,286.885 h -27.61 v 10.62 h 27.61 v -10.62"
     fill-rule="evenodd"
     class="Beam" />
  <path
     id="path2212"
     d="m 1378.82,286.885 h 170.6 v 10.62 h -170.6 v -10.62"
     fill-rule="evenodd"
     class="Beam" />
  <path
     id="path2214"
     d="m 1687.59,53.245 h 528.04 v 10.62 h -528.04 v -10.62"
     fill-rule="evenodd"
     class="Beam" />
  <path
     id="path2216"
     d="m 1687.59,70.945 h 528.04 v 10.62 h -528.04 v -10.62"
     fill-rule="evenodd"
     class="Beam" />
  <path
     id="path2218"
     d="m 1687.59,88.645 h 528.04 v 10.62 h -528.04 v -10.62"
     fill-rule="evenodd"
     class="Beam" />
  <path
     id="path2220"
     d="m 2171.58,106.345 h 44.05 v 10.62 h -44.05 v -10.62"
     fill-rule="evenodd"
     class="Beam" />
  <path
     style="stroke-width:0.8496"
     id="path2358"
     d="m 207.7496,224.5866 c -0.085,-0.25488 -0.8496,-3.22848 -0.8496,-3.3984 -0.085,-0.33984 -0.59472,-0.59472 -1.01952,-0.59472 -0.59472,0 -1.10448,0.50976 -1.10448,1.10448 v 13.93344 5.26752 c 0,0.4248 0.33984,0.76464 0.67968,0.93456 3.56832,1.10448 10.95984,5.77728 16.48224,15.20784 1.52928,2.63376 3.99312,6.20208 3.99312,13.33872 0,6.11712 -0.93456,12.57408 -2.46384,18.52128 -0.25488,0.93456 -0.50976,1.78416 0.4248,2.124 0.93456,0.33984 1.2744,-0.33984 1.61424,-1.18944 3.05856,-7.47648 3.8232,-15.2928 3.8232,-20.56032 v -1.61424 c -0.4248,-10.95984 -6.71184,-19.03104 -6.71184,-19.03104 0.25488,0 -7.81632,-10.45008 -10.11024,-14.0184 -3.14352,-4.84272 -4.6728,-9.68544 -4.75776,-10.02528"
     class="Hook" />
  <path
     style="stroke-width:0.8496"
     id="path2360"
     d="m 848.4688,229.9618 c -0.085,-4.41792 -1.10448,-9.00576 -4.07808,-12.82896 -4.07808,-5.26752 -9.43056,-7.90128 -12.65904,-12.57408 -3.22848,-4.6728 -4.58784,-13.76352 -4.58784,-13.76352 -0.085,-0.59472 -0.25488,-1.01952 -1.2744,-1.01952 -1.01952,0 -1.18944,0.4248 -1.18944,1.01952 v 13.50864 5.01264 9.94032 4.07808 c 0,0.16992 0.59472,0.67968 1.18944,0.8496 2.20896,0.8496 8.9208,5.01264 14.0184,12.57408 3.05856,4.6728 3.56832,7.81632 3.56832,10.87488 v 0.93456 c -0.085,2.124 -0.59472,6.45696 -1.86912,9.85536 -0.25488,0.76464 -0.67968,1.86912 0.16992,2.29392 0.8496,0.4248 1.35936,-0.50976 1.78416,-1.10448 1.52928,-2.46384 3.73824,-6.96672 3.73824,-11.80944 0,-2.37888 -0.16992,-4.50288 -0.4248,-6.28704 0.8496,-3.05856 1.61424,-6.88176 1.61424,-10.87488 v -0.67968 m -6.03216,1.18944 c -2.29392,-2.9736 -4.84272,-5.69232 -9.00576,-9.85536 -3.31344,-3.31344 -4.84272,-6.20208 -5.43744,-8.41104 -0.085,-0.16992 -0.085,-0.50976 -0.16992,-0.76464 l 0.085,0.33984 c 3.8232,0.33984 9.00576,4.16304 12.23424,8.0712 3.8232,4.58784 4.58784,8.15616 4.58784,11.4696 0,0.8496 0,1.61424 -0.085,2.46384 -0.50976,-0.93456 -1.52928,-2.46384 -2.20896,-3.31344"
     class="Hook" />
  <path
     style="stroke-width:0.8496"
     id="path2362"
     d="m 1736.1788,240.5818 c -0.085,-4.41792 -1.1045,-9.00576 -4.0781,-12.82896 -4.0781,-5.26752 -9.4305,-7.90128 -12.659,-12.57408 -3.2285,-4.6728 -4.5879,-13.76352 -4.5879,-13.76352 -0.085,-0.59472 -0.2548,-1.01952 -1.2744,-1.01952 -1.0195,0 -1.1894,0.4248 -1.1894,1.01952 v 13.50864 5.01264 9.94032 4.07808 c 0,0.16992 0.5947,0.67968 1.1894,0.8496 2.209,0.8496 8.9208,5.01264 14.0184,12.57408 3.0586,4.6728 3.5684,7.81632 3.5684,10.87488 v 0.93456 c -0.085,2.124 -0.5948,6.45696 -1.8692,9.85536 -0.2548,0.76464 -0.6796,1.86912 0.17,2.29392 0.8496,0.4248 1.3593,-0.50976 1.7841,-1.10448 1.5293,-2.46384 3.7383,-6.96672 3.7383,-11.80944 0,-2.37888 -0.17,-4.50288 -0.4248,-6.28704 0.8496,-3.05856 1.6142,-6.88176 1.6142,-10.87488 v -0.67968 m -6.0322,1.18944 c -2.2939,-2.9736 -4.8427,-5.69232 -9.0057,-9.85536 -3.3135,-3.31344 -4.8427,-6.20208 -5.4375,-8.41104 -0.085,-0.16992 -0.085,-0.50976 -0.1699,-0.76464 l 0.085,0.33984 c 3.8232,0.33984 9.0057,4.16304 12.2342,8.0712 3.8232,4.58784 4.5879,8.15616 4.5879,11.4696 0,0.8496 0,1.61424 -0.085,2.46384 -0.5098,-0.93456 -1.5293,-2.46384 -2.209,-3.31344"
     class="Hook" />
  <path
     style="stroke-width:0.8496"
     id="path2364"
     d="m 195.3496,144.9136 c -0.085,-0.25488 -0.8496,-3.22848 -0.8496,-3.3984 -0.085,-0.33984 -0.59472,-0.59472 -1.01952,-0.59472 -0.59472,0 -1.10448,0.50976 -1.10448,1.10448 v 13.93344 5.26752 c 0,0.4248 0.33984,0.76464 0.67968,0.93456 3.56832,1.10448 10.95984,5.77728 16.48224,15.20784 1.52928,2.63376 3.99312,6.20208 3.99312,13.33872 0,6.11712 -0.93456,12.57408 -2.46384,18.52128 -0.25488,0.93456 -0.50976,1.78416 0.4248,2.124 0.93456,0.33984 1.2744,-0.33984 1.61424,-1.18944 3.05856,-7.47648 3.8232,-15.2928 3.8232,-20.56032 v -1.61424 c -0.4248,-10.95984 -6.71184,-19.03104 -6.71184,-19.03104 0.25488,0 -7.81632,-10.45008 -10.11024,-14.0184 -3.14352,-4.84272 -4.6728,-9.68544 -4.75776,-10.02528"
     class="Hook" />
  <path
     style="stroke-width:0.8496"
     id="path2366"
     d="m 836.0688,153.1488 c -0.085,-4.41792 -1.10448,-9.00576 -4.07808,-12.82896 -4.07808,-5.26752 -9.43056,-7.90128 -12.65904,-12.57408 -3.22848,-4.6728 -4.58784,-13.76352 -4.58784,-13.76352 -0.085,-0.59472 -0.25488,-1.01952 -1.2744,-1.01952 -1.01952,0 -1.18944,0.4248 -1.18944,1.01952 v 13.50864 5.01264 9.94032 4.07808 c 0,0.16992 0.59472,0.67968 1.18944,0.8496 2.20896,0.8496 8.9208,5.01264 14.0184,12.57408 3.05856,4.6728 3.56832,7.81632 3.56832,10.87488 v 0.93456 c -0.085,2.124 -0.59472,6.45696 -1.86912,9.85536 -0.25488,0.76464 -0.67968,1.86912 0.16992,2.29392 0.8496,0.4248 1.35936,-0.50976 1.78416,-1.10448 1.52928,-2.46384 3.73824,-6.96672 3.73824,-11.80944 0,-2.37888 -0.16992,-4.50288 -0.4248,-6.28704 0.8496,-3.05856 1.61424,-6.88176 1.61424,-10.87488 v -0.67968 m -6.03216,1.18944 c -2.29392,-2.9736 -4.84272,-5.69232 -9.00576,-9.85536 -3.31344,-3.31344 -4.84272,-6.20208 -5.43744,-8.41104 -0.085,-0.16992 -0.085,-0.50976 -0.16992,-0.76464 l 0.085,0.33984 c 3.8232,0.33984 9.00576,4.16304 12.23424,8.0712 3.8232,4.58784 4.58784,8.15616 4.58784,11.4696 0,0.8496 0,1.61424 -0.085,2.46384 -0.50976,-0.93456 -1.52928,-2.46384 -2.20896,-3.31344"
     class="Hook" />
  <path
     style="stroke-width:0.8496"
     id="path2368"
     d="m 1723.7788,176.8618 c -0.085,-4.41792 -1.1045,-9.00576 -4.0781,-12.82896 -4.0781,-5.26752 -9.4305,-7.90128 -12.659,-12.57408 -3.2285,-4.6728 -4.5879,-13.76352 -4.5879,-13.76352 -0.085,-0.59472 -0.2548,-1.01952 -1.2744,-1.01952 -1.0195,0 -1.1894,0.4248 -1.1894,1.01952 v 13.50864 5.01264 9.94032 4.07808 c 0,0.16992 0.5947,0.67968 1.1894,0.8496 2.209,0.8496 8.9208,5.01264 14.0184,12.57408 3.0586,4.6728 3.5684,7.81632 3.5684,10.87488 v 0.93456 c -0.085,2.124 -0.5948,6.45696 -1.8692,9.85536 -0.2548,0.76464 -0.6796,1.86912 0.17,2.29392 0.8496,0.4248 1.3593,-0.50976 1.7841,-1.10448 1.5293,-2.46384 3.7383,-6.96672 3.7383,-11.80944 0,-2.37888 -0.17,-4.50288 -0.4248,-6.28704 0.8496,-3.05856 1.6142,-6.88176 1.6142,-10.87488 v -0.67968 m -6.0322,1.18944 c -2.2939,-2.9736 -4.8427,-5.69232 -9.0057,-9.85536 -3.3135,-3.31344 -4.8427,-6.20208 -5.4375,-8.41104 -0.085,-0.16992 -0.085,-0.50976 -0.1699,-0.76464 l 0.085,0.33984 c 3.8232,0.33984 9.0057,4.16304 12.2342,8.0712 3.8232,4.58784 4.5879,8.15616 4.5879,11.4696 0,0.8496 0,1.61424 -0.085,2.46384 -0.5098,-0.93456 -1.5293,-2.46384 -2.209,-3.31344"
     class="Hook" />
  <path
     style="stroke-width:0.8496"
     id="path2374"
     d="m 2278.8088,176.8618 c -0.085,-4.41792 -1.1045,-9.00576 -4.0781,-12.82896 -4.0781,-5.26752 -9.4305,-7.90128 -12.659,-12.57408 -3.2285,-4.6728 -4.5879,-13.76352 -4.5879,-13.76352 -0.085,-0.59472 -0.2548,-1.01952 -1.2744,-1.01952 -1.0195,0 -1.1894,0.4248 -1.1894,1.01952 v 13.50864 5.01264 9.94032 4.07808 c 0,0.16992 0.5947,0.67968 1.1894,0.8496 2.209,0.8496 8.9208,5.01264 14.0184,12.57408 3.0586,4.6728 3.5684,7.81632 3.5684,10.87488 v 0.93456 c -0.085,2.124 -0.5948,6.45696 -1.8692,9.85536 -0.2548,0.76464 -0.6796,1.86912 0.17,2.29392 0.8496,0.4248 1.3593,-0.50976 1.7841,-1.10448 1.5293,-2.46384 3.7383,-6.96672 3.7383,-11.80944 0,-2.37888 -0.17,-4.50288 -0.4248,-6.28704 0.8496,-3.05856 1.6142,-6.88176 1.6142,-10.87488 v -0.67968 m -6.0322,1.18944 c -2.2939,-2.9736 -4.8427,-5.69232 -9.0057,-9.85536 -3.3135,-3.31344 -4.8427,-6.20208 -5.4375,-8.41104 -0.085,-0.16992 -0.085,-0.50976 -0.1699,-0.76464 l 0.085,0.33984 c 3.8232,0.33984 9.0057,4.16304 12.2342,8.0712 3.8232,4.58784 4.5879,8.15616 4.5879,11.4696 0,0.8496 0,1.61424 -0.085,2.46384 -0.5098,-0.93456 -1.5293,-2.46384 -2.209,-3.31344"
     class="Hook" />
  <path
     id="path2396"
     d="m 789.55,139.858 h -1.5 l -0.34,1.734 c -0.44,2.21 -0.71,2.414 -2.82,2.414 h -7.62 c 2.35,-2.448 3.13,-3.162 5.31,-4.862 3.09,-2.38 4.42,-3.57 5.2,-4.59 1.09,-1.496 1.63,-2.992 1.63,-4.658 0,-3.876 -3.19,-6.63 -7.65,-6.63 -4.32,0 -7.61,2.754 -7.61,6.392 0,2.142 1.08,3.604 2.68,3.604 1.26,0 2.11,-0.85 2.11,-2.074 0,-0.85 -0.48,-1.632 -1.19,-1.938 -1.26,-0.51 -1.33,-0.578 -1.33,-1.02 0,-0.51 0.34,-1.292 0.82,-1.87 0.85,-1.054 2.24,-1.632 3.84,-1.632 2.82,0 4.49,1.734 4.49,4.59 0,2.516 -1.19,4.794 -4.01,7.786 -2.52,2.652 -4.08,4.318 -4.66,4.964 -1.22,1.428 -1.84,2.21 -3.33,4.182 v 0.952 h 15.33 l 0.65,-7.344"
     class="Fingering" />
  <path
     id="path2398"
     d="m 1673.9,139.638 c -1.16,1.394 -4.28,2.448 -7.41,2.516 v 1.462 h 2.99 c 1.97,0.034 2.18,0.238 2.11,2.142 v 13.634 c 0,1.734 0,1.802 -0.21,2.108 -0.27,0.34 -0.91,0.476 -2.82,0.476 h -2.21 v 1.598 h 13.47 v -1.598 h -1.87 c -1.91,0 -2.55,-0.136 -2.83,-0.476 -0.23,-0.306 -0.23,-0.34 -0.23,-2.108 V 145.35 c 0,-1.904 0.06,-3.502 0.23,-5.712 h -1.22"
     class="Fingering" />
  <path
     id="path2400"
     d="m 557.698,92.213 c 3.094,-1.122 4.522,-2.856 4.522,-5.576 0,-3.57 -2.72,-5.848 -6.936,-5.848 -3.978,0 -7.004,2.346 -7.004,5.44 0,1.394 0.918,2.38 2.244,2.38 1.19,0 2.006,-0.816 2.006,-2.04 0,-0.748 -0.272,-1.19 -1.054,-1.734 -0.34,-0.238 -0.442,-0.374 -0.442,-0.612 0,-0.952 1.972,-1.972 3.91,-1.972 2.448,0 3.74,1.53 3.74,4.42 0,3.162 -1.292,4.828 -3.706,4.828 -0.306,0 -0.884,-0.034 -1.394,-0.068 -0.272,-0.034 -0.544,-0.034 -0.748,-0.034 -0.714,0 -1.088,0.306 -1.088,0.918 0,0.578 0.34,0.85 1.088,0.85 0.204,0 0.476,0 0.782,-0.034 0.68,-0.034 1.224,-0.034 1.598,-0.034 2.516,0 3.876,1.802 3.876,5.168 0,3.536 -1.7,5.508 -4.76,5.508 -2.142,0 -4.454,-1.156 -4.454,-2.21 0,-0.306 0.068,-0.374 0.714,-0.748 0.952,-0.578 1.326,-1.156 1.326,-2.006 0,-1.224 -0.918,-2.142 -2.142,-2.142 -1.462,0 -2.414,1.19 -2.414,2.992 0,3.298 3.026,5.576 7.378,5.576 4.93,0 8.126,-2.72 8.126,-6.902 0,-3.196 -1.632,-5.134 -5.168,-6.12"
     class="Fingering" />
  <path
     id="path2402"
     d="m 784.77,98.475 c 3.1,-1.122 4.52,-2.856 4.52,-5.576 0,-3.57 -2.72,-5.848 -6.93,-5.848 -3.98,0 -7.01,2.346 -7.01,5.44 0,1.394 0.92,2.38 2.25,2.38 1.19,0 2,-0.816 2,-2.04 0,-0.748 -0.27,-1.19 -1.05,-1.734 -0.34,-0.238 -0.44,-0.374 -0.44,-0.612 0,-0.952 1.97,-1.972 3.91,-1.972 2.45,0 3.74,1.53 3.74,4.42 0,3.162 -1.29,4.828 -3.71,4.828 -0.3,0 -0.88,-0.034 -1.39,-0.068 -0.27,-0.034 -0.55,-0.034 -0.75,-0.034 -0.71,0 -1.09,0.306 -1.09,0.918 0,0.578 0.34,0.85 1.09,0.85 0.2,0 0.48,0 0.78,-0.034 0.68,-0.034 1.23,-0.034 1.6,-0.034 2.52,0 3.88,1.802 3.88,5.168 0,3.536 -1.7,5.508 -4.76,5.508 -2.15,0 -4.46,-1.156 -4.46,-2.21 0,-0.306 0.07,-0.374 0.72,-0.748 0.95,-0.578 1.32,-1.156 1.32,-2.006 0,-1.224 -0.92,-2.142 -2.14,-2.142 -1.46,0 -2.41,1.19 -2.41,2.992 0,3.298 3.02,5.576 7.37,5.576 4.93,0 8.13,-2.72 8.13,-6.902 0,-3.196 -1.63,-5.134 -5.17,-6.12"
     class="Fingering" />
  <path
     id="path2404"
     d="m 1688.3,117.515 c 0,9.689 -7.85,17.544 -17.54,17.544 -9.69,0 -17.55,-7.855 -17.55,-17.544 0,-9.69 7.86,-17.545 17.55,-17.545 9.69,0 17.54,7.855 17.54,17.545"
     fill-rule="evenodd"
     stroke-miterlimit="2"
     stroke-linejoin="miter"
     stroke-linecap="square"
     stroke-width="2.12"
     stroke="#000000"
     fill="none"
     class="Fingering" />
  <path
     id="path2406"
     d="m 1673.34,116.706 c 3.09,-1.122 4.52,-2.856 4.52,-5.576 0,-3.57 -2.72,-5.848 -6.94,-5.848 -3.98,0 -7,2.346 -7,5.44 0,1.394 0.92,2.38 2.24,2.38 1.19,0 2.01,-0.816 2.01,-2.04 0,-0.748 -0.27,-1.19 -1.06,-1.734 -0.34,-0.238 -0.44,-0.374 -0.44,-0.612 0,-0.952 1.97,-1.972 3.91,-1.972 2.45,0 3.74,1.53 3.74,4.42 0,3.162 -1.29,4.828 -3.7,4.828 -0.31,0 -0.89,-0.034 -1.4,-0.068 -0.27,-0.034 -0.54,-0.034 -0.75,-0.034 -0.71,0 -1.08,0.306 -1.08,0.918 0,0.578 0.34,0.85 1.08,0.85 0.21,0 0.48,0 0.79,-0.034 0.68,-0.034 1.22,-0.034 1.59,-0.034 2.52,0 3.88,1.802 3.88,5.168 0,3.536 -1.7,5.508 -4.76,5.508 -2.14,0 -4.45,-1.156 -4.45,-2.21 0,-0.306 0.06,-0.374 0.71,-0.748 0.95,-0.578 1.33,-1.156 1.33,-2.006 0,-1.224 -0.92,-2.142 -2.15,-2.142 -1.46,0 -2.41,1.19 -2.41,2.992 0,3.298 3.03,5.576 7.38,5.576 4.93,0 8.12,-2.72 8.12,-6.902 0,-3.196 -1.63,-5.134 -5.16,-6.12"
     class="Fingering" />
  <path
     id="path2408"
     d="m 171.584,65.28 -11.56,16.082 v 1.904 h 9.554 v 1.768 c 0,1.734 0,1.802 -0.204,2.108 -0.272,0.374 -0.918,0.476 -2.856,0.476 h -0.374 v 1.598 h 9.928 v -1.598 h -0.136 c -1.938,0 -2.584,-0.102 -2.856,-0.476 -0.204,-0.306 -0.204,-0.34 -0.204,-2.108 v -1.768 h 4.114 v -1.904 h -4.114 V 72.08 c 0,-4.25 0,-4.352 0.17,-6.8 h -1.462 m -2.006,16.082 h -7.48 l 7.48,-10.302 v 10.302"
     class="Fingering" />
  <path
     id="path2410"
     d="m 288.95,82.093 c 3.094,-1.122 4.522,-2.856 4.522,-5.576 0,-3.57 -2.72,-5.848 -6.936,-5.848 -3.978,0 -7.004,2.346 -7.004,5.44 0,1.394 0.918,2.38 2.244,2.38 1.19,0 2.006,-0.816 2.006,-2.04 0,-0.748 -0.272,-1.19 -1.054,-1.734 -0.34,-0.238 -0.442,-0.374 -0.442,-0.612 0,-0.952 1.972,-1.972 3.91,-1.972 2.448,0 3.74,1.53 3.74,4.42 0,3.162 -1.292,4.828 -3.706,4.828 -0.306,0 -0.884,-0.034 -1.394,-0.068 -0.272,-0.034 -0.544,-0.034 -0.748,-0.034 -0.714,0 -1.088,0.306 -1.088,0.918 0,0.578 0.34,0.85 1.088,0.85 0.204,0 0.476,0 0.782,-0.034 0.68,-0.034 1.224,-0.034 1.598,-0.034 2.516,0 3.876,1.802 3.876,5.168 0,3.536 -1.7,5.508 -4.76,5.508 -2.142,0 -4.454,-1.156 -4.454,-2.21 0,-0.306 0.068,-0.374 0.714,-0.748 0.952,-0.578 1.326,-1.156 1.326,-2.006 0,-1.224 -0.918,-2.142 -2.142,-2.142 -1.462,0 -2.414,1.19 -2.414,2.992 0,3.298 3.026,5.576 7.378,5.576 4.93,0 8.126,-2.72 8.126,-6.902 0,-3.196 -1.632,-5.134 -5.168,-6.12"
     class="Fingering" />
  <path
     id="path2412"
     d="m 376.938,78.429 c -1.156,1.394 -4.284,2.448 -7.412,2.516 v 1.462 h 2.992 c 1.972,0.034 2.176,0.238 2.108,2.142 v 13.634 c 0,1.734 0,1.802 -0.204,2.108 -0.272,0.34 -0.918,0.476 -2.822,0.476 h -2.21 v 1.598 h 13.464 v -1.598 h -1.87 c -1.904,0 -2.55,-0.136 -2.822,-0.476 -0.238,-0.306 -0.238,-0.34 -0.238,-2.108 V 84.141 c 0,-1.904 0.068,-3.502 0.238,-5.712 h -1.224"
     class="Fingering" />
  <path
     id="path2414"
     d="m 878.98,54.66 c -1.16,1.394 -4.28,2.448 -7.41,2.516 v 1.462 h 2.99 c 1.97,0.034 2.18,0.238 2.11,2.142 v 13.634 c 0,1.734 0,1.802 -0.21,2.108 -0.27,0.34 -0.91,0.476 -2.82,0.476 h -2.21 v 1.598 h 13.47 v -1.598 h -1.87 c -1.91,0 -2.55,-0.136 -2.83,-0.476 -0.23,-0.306 -0.23,-0.34 -0.23,-2.108 V 60.372 c 0,-1.904 0.06,-3.502 0.23,-5.712 h -1.22"
     class="Fingering" />
  <path
     id="path2416"
     d="m 954.65,71.252 h -1.49 l -0.34,1.734 c -0.45,2.21 -0.72,2.414 -2.83,2.414 h -7.61 c 2.34,-2.448 3.13,-3.162 5.3,-4.862 3.1,-2.38 4.42,-3.57 5.2,-4.59 1.09,-1.496 1.64,-2.992 1.64,-4.658 0,-3.876 -3.2,-6.63 -7.65,-6.63 -4.32,0 -7.62,2.754 -7.62,6.392 0,2.142 1.09,3.604 2.69,3.604 1.25,0 2.1,-0.85 2.1,-2.074 0,-0.85 -0.47,-1.632 -1.19,-1.938 -1.25,-0.51 -1.32,-0.578 -1.32,-1.02 0,-0.51 0.34,-1.292 0.81,-1.87 0.85,-1.054 2.25,-1.632 3.85,-1.632 2.82,0 4.48,1.734 4.48,4.59 0,2.516 -1.19,4.794 -4.01,7.786 -2.51,2.652 -4.08,4.318 -4.66,4.964 -1.22,1.428 -1.83,2.21 -3.33,4.182 v 0.952 h 15.34 l 0.64,-7.344"
     class="Fingering" />
  <path
     id="path2418"
     d="m 1005.33,65.584 c 3.1,-1.122 4.53,-2.856 4.53,-5.576 0,-3.57 -2.72,-5.848 -6.94,-5.848 -3.98,0 -7,2.346 -7,5.44 0,1.394 0.91,2.38 2.24,2.38 1.19,0 2.01,-0.816 2.01,-2.04 0,-0.748 -0.28,-1.19 -1.06,-1.734 -0.34,-0.238 -0.44,-0.374 -0.44,-0.612 0,-0.952 1.97,-1.972 3.91,-1.972 2.45,0 3.74,1.53 3.74,4.42 0,3.162 -1.29,4.828 -3.71,4.828 -0.3,0 -0.88,-0.034 -1.39,-0.068 -0.27,-0.034 -0.54,-0.034 -0.75,-0.034 -0.71,0 -1.09,0.306 -1.09,0.918 0,0.578 0.34,0.85 1.09,0.85 0.21,0 0.48,0 0.78,-0.034 0.68,-0.034 1.23,-0.034 1.6,-0.034 2.52,0 3.88,1.802 3.88,5.168 0,3.536 -1.7,5.508 -4.76,5.508 -2.14,0 -4.46,-1.156 -4.46,-2.21 0,-0.306 0.07,-0.374 0.72,-0.748 0.95,-0.578 1.32,-1.156 1.32,-2.006 0,-1.224 -0.91,-2.142 -2.14,-2.142 -1.46,0 -2.41,1.19 -2.41,2.992 0,3.298 3.02,5.576 7.38,5.576 4.93,0 8.12,-2.72 8.12,-6.902 0,-3.196 -1.63,-5.134 -5.17,-6.12"
     class="Fingering" />
  <path
     id="path2420"
     d="m 1215.52,166.913 -11.56,16.082 v 1.904 h 9.56 v 1.768 c 0,1.734 0,1.802 -0.21,2.108 -0.27,0.374 -0.91,0.476 -2.85,0.476 h -0.38 v 1.598 h 9.93 v -1.598 h -0.13 c -1.94,0 -2.59,-0.102 -2.86,-0.476 -0.2,-0.306 -0.2,-0.34 -0.2,-2.108 v -1.768 h 4.11 v -1.904 h -4.11 v -9.282 c 0,-4.25 0,-4.352 0.17,-6.8 h -1.47 m -2,16.082 h -7.48 l 7.48,-10.302 v 10.302"
     class="Fingering" />
  <path
     id="path2422"
     d="m 1243.23,182.861 h -1.49 l -0.34,1.734 c -0.44,2.21 -0.72,2.414 -2.82,2.414 h -7.62 c 2.35,-2.448 3.13,-3.162 5.3,-4.862 3.1,-2.38 4.42,-3.57 5.21,-4.59 1.08,-1.496 1.63,-2.992 1.63,-4.658 0,-3.876 -3.2,-6.63 -7.65,-6.63 -4.32,0 -7.62,2.754 -7.62,6.392 0,2.142 1.09,3.604 2.69,3.604 1.26,0 2.11,-0.85 2.11,-2.074 0,-0.85 -0.48,-1.632 -1.19,-1.938 -1.26,-0.51 -1.33,-0.578 -1.33,-1.02 0,-0.51 0.34,-1.292 0.82,-1.87 0.85,-1.054 2.24,-1.632 3.84,-1.632 2.82,0 4.49,1.734 4.49,4.59 0,2.516 -1.19,4.794 -4.02,7.786 -2.51,2.652 -4.08,4.318 -4.65,4.964 -1.23,1.428 -1.84,2.21 -3.34,4.182 v 0.952 h 15.34 l 0.64,-7.344"
     class="Fingering" />
  <path
     id="path2424"
     d="m 1339.11,178.262 c 3.09,-1.122 4.52,-2.856 4.52,-5.576 0,-3.57 -2.72,-5.848 -6.93,-5.848 -3.98,0 -7.01,2.346 -7.01,5.44 0,1.394 0.92,2.38 2.25,2.38 1.19,0 2,-0.816 2,-2.04 0,-0.748 -0.27,-1.19 -1.05,-1.734 -0.34,-0.238 -0.44,-0.374 -0.44,-0.612 0,-0.952 1.97,-1.972 3.91,-1.972 2.44,0 3.74,1.53 3.74,4.42 0,3.162 -1.3,4.828 -3.71,4.828 -0.31,0 -0.88,-0.034 -1.39,-0.068 -0.28,-0.034 -0.55,-0.034 -0.75,-0.034 -0.72,0 -1.09,0.306 -1.09,0.918 0,0.578 0.34,0.85 1.09,0.85 0.2,0 0.47,0 0.78,-0.034 0.68,-0.034 1.22,-0.034 1.6,-0.034 2.51,0 3.87,1.802 3.87,5.168 0,3.536 -1.7,5.508 -4.76,5.508 -2.14,0 -4.45,-1.156 -4.45,-2.21 0,-0.306 0.07,-0.374 0.71,-0.748 0.96,-0.578 1.33,-1.156 1.33,-2.006 0,-1.224 -0.92,-2.142 -2.14,-2.142 -1.46,0 -2.42,1.19 -2.42,2.992 0,3.298 3.03,5.576 7.38,5.576 4.93,0 8.13,-2.72 8.13,-6.902 0,-3.196 -1.63,-5.134 -5.17,-6.12"
     class="Fingering" />
  <path
     id="path2426"
     d="m 1393.45,156.718 c -1.16,1.394 -4.29,2.448 -7.42,2.516 v 1.462 h 3 c 1.97,0.034 2.17,0.238 2.1,2.142 v 13.634 c 0,1.734 0,1.802 -0.2,2.108 -0.27,0.34 -0.92,0.476 -2.82,0.476 h -2.21 v 1.598 h 13.46 v -1.598 h -1.87 c -1.9,0 -2.55,-0.136 -2.82,-0.476 -0.24,-0.306 -0.24,-0.34 -0.24,-2.108 V 162.43 c 0,-1.904 0.07,-3.502 0.24,-5.712 h -1.22"
     class="Fingering" />
  <path
     id="path2428"
     d="m 1505.62,145.673 c -1.15,1.394 -4.28,2.448 -7.41,2.516 v 1.462 h 2.99 c 1.97,0.034 2.18,0.238 2.11,2.142 v 13.634 c 0,1.734 0,1.802 -0.2,2.108 -0.28,0.34 -0.92,0.476 -2.83,0.476 h -2.21 v 1.598 h 13.47 v -1.598 h -1.87 c -1.91,0 -2.55,-0.136 -2.82,-0.476 -0.24,-0.306 -0.24,-0.34 -0.24,-2.108 v -14.042 c 0,-1.904 0.07,-3.502 0.24,-5.712 h -1.23"
     class="Fingering" />
  <path
     id="path2430"
     d="m 1680.16,83.81 h -1.5 l -0.34,1.734 c -0.44,2.21 -0.71,2.414 -2.82,2.414 h -7.61 c 2.34,-2.448 3.12,-3.162 5.3,-4.862 3.09,-2.38 4.42,-3.57 5.2,-4.59 1.09,-1.496 1.63,-2.992 1.63,-4.658 0,-3.876 -3.19,-6.63 -7.65,-6.63 -4.31,0 -7.61,2.754 -7.61,6.392 0,2.142 1.09,3.604 2.68,3.604 1.26,0 2.11,-0.85 2.11,-2.074 0,-0.85 -0.47,-1.632 -1.19,-1.938 -1.26,-0.51 -1.32,-0.578 -1.32,-1.02 0,-0.51 0.34,-1.292 0.81,-1.87 0.85,-1.054 2.25,-1.632 3.84,-1.632 2.83,0 4.49,1.734 4.49,4.59 0,2.516 -1.19,4.794 -4.01,7.786 -2.52,2.652 -4.08,4.318 -4.66,4.964 -1.22,1.428 -1.83,2.21 -3.33,4.182 v 0.952 h 15.33 l 0.65,-7.344"
     class="Fingering" />
  <path
     id="path2432"
     d="M 1735.34,48.71 V 27.528 l 2.76,7.14 1.8,-0.816 -4.35,-9.724 -2.62,0.034 -4.32,9.69 1.77,0.816 2.79,-7.14 V 48.71 h 2.17 m 28.43,-7.344 h -1.5 l -0.34,1.734 c -0.44,2.21 -0.71,2.414 -2.82,2.414 h -7.62 c 2.35,-2.448 3.13,-3.162 5.31,-4.862 3.09,-2.38 4.42,-3.57 5.2,-4.59 1.09,-1.496 1.63,-2.992 1.63,-4.658 0,-3.876 -3.19,-6.63 -7.65,-6.63 -4.32,0 -7.61,2.754 -7.61,6.392 0,2.142 1.08,3.604 2.68,3.604 1.26,0 2.11,-0.85 2.11,-2.074 0,-0.85 -0.48,-1.632 -1.19,-1.938 -1.26,-0.51 -1.33,-0.578 -1.33,-1.02 0,-0.51 0.34,-1.292 0.82,-1.87 0.85,-1.054 2.24,-1.632 3.84,-1.632 2.82,0 4.49,1.734 4.49,4.59 0,2.516 -1.19,4.794 -4.01,7.786 -2.52,2.652 -4.08,4.318 -4.66,4.964 -1.22,1.428 -1.84,2.21 -3.33,4.182 v 0.952 h 15.33 l 0.65,-7.344"
     class="Fingering" />
  <path
     id="path2434"
     d="m 1962.93,22.8 -11.56,16.082 v 1.904 h 9.55 v 1.768 c 0,1.734 0,1.802 -0.2,2.108 -0.27,0.374 -0.92,0.476 -2.86,0.476 h -0.37 v 1.598 h 9.93 v -1.598 h -0.14 c -1.94,0 -2.58,-0.102 -2.86,-0.476 -0.2,-0.306 -0.2,-0.34 -0.2,-2.108 v -1.768 h 4.11 v -1.904 h -4.11 V 29.6 c 0,-4.25 0,-4.352 0.17,-6.8 h -1.46 m -2.01,16.082 h -7.48 l 7.48,-10.302 v 10.302"
     class="Fingering" />
  <path
     id="path2436"
     d="m 2162.69,33.724 c 3.09,-1.122 4.52,-2.856 4.52,-5.576 0,-3.57 -2.72,-5.848 -6.94,-5.848 -3.97,0 -7,2.346 -7,5.44 0,1.394 0.92,2.38 2.24,2.38 1.19,0 2.01,-0.816 2.01,-2.04 0,-0.748 -0.27,-1.19 -1.05,-1.734 -0.34,-0.238 -0.45,-0.374 -0.45,-0.612 0,-0.952 1.98,-1.972 3.91,-1.972 2.45,0 3.74,1.53 3.74,4.42 0,3.162 -1.29,4.828 -3.7,4.828 -0.31,0 -0.89,-0.034 -1.4,-0.068 -0.27,-0.034 -0.54,-0.034 -0.74,-0.034 -0.72,0 -1.09,0.306 -1.09,0.918 0,0.578 0.34,0.85 1.09,0.85 0.2,0 0.47,0 0.78,-0.034 0.68,-0.034 1.22,-0.034 1.6,-0.034 2.51,0 3.87,1.802 3.87,5.168 0,3.536 -1.7,5.508 -4.76,5.508 -2.14,0 -4.45,-1.156 -4.45,-2.21 0,-0.306 0.07,-0.374 0.71,-0.748 0.95,-0.578 1.33,-1.156 1.33,-2.006 0,-1.224 -0.92,-2.142 -2.14,-2.142 -1.47,0 -2.42,1.19 -2.42,2.992 0,3.298 3.03,5.576 7.38,5.576 4.93,0 8.13,-2.72 8.13,-6.902 0,-3.196 -1.64,-5.134 -5.17,-6.12"
     class="Fingering" />
  <path
     id="path2438"
     d="m 2212.11,0 -11.56,16.082 v 1.904 h 9.55 v 1.768 c 0,1.734 0,1.802 -0.2,2.108 -0.28,0.374 -0.92,0.476 -2.86,0.476 h -0.37 v 1.598 h 9.92 v -1.598 h -0.13 c -1.94,0 -2.59,-0.102 -2.86,-0.476 -0.2,-0.306 -0.2,-0.34 -0.2,-2.108 v -1.768 h 4.11 v -1.904 h -4.11 V 6.8 c 0,-4.25 0,-4.352 0.17,-6.8 h -1.46 m -2.01,16.082 h -7.48 L 2210.1,5.78 v 10.302"
     class="Fingering" />
  <path
     style="stroke-width:0.8496"
     id="path2482"
     d="m 580.019,233.78359 c 0,2.34611 1.90189,4.248 4.248,4.248 2.34611,0 4.248,-1.90189 4.248,-4.248 0,-2.34611 -1.90189,-4.248 -4.248,-4.248 -2.34611,0 -4.248,1.90189 -4.248,4.248"
     class="NoteDot" />
  <path
     style="stroke-width:0.8496"
     id="path2496"
     d="m 580.019,191.30359 c 0,2.34611 1.90189,4.248 4.248,4.248 2.34611,0 4.248,-1.90189 4.248,-4.248 0,-2.34611 -1.90189,-4.248 -4.248,-4.248 -2.34611,0 -4.248,1.90189 -4.248,4.248"
     class="NoteDot" />
  <path
     style="stroke-width:0.8496"
     id="path2498"
     d="m 1251.53,212.54359 c 0,2.34611 1.9019,4.248 4.248,4.248 2.3461,0 4.248,-1.90189 4.248,-4.248 0,-2.34611 -1.9019,-4.248 -4.248,-4.248 -2.3461,0 -4.248,1.90189 -4.248,4.248"
     class="NoteDot" />
  <path
     style="stroke-width:0.8496"
     id="path2500"
     d="m 2267.97,212.54359 c 0,2.34611 1.9019,4.248 4.248,4.248 2.3461,0 4.248,-1.90189 4.248,-4.248 0,-2.34611 -1.9019,-4.248 -4.248,-4.248 -2.3461,0 -4.248,1.90189 -4.248,4.248"
     class="NoteDot" />
</svg>
