<?xml version="1.0" encoding="UTF-8" standalone="no"?>
<svg
   xmlns:dc="http://purl.org/dc/elements/1.1/"
   xmlns:cc="http://creativecommons.org/ns#"
   xmlns:rdf="http://www.w3.org/1999/02/22-rdf-syntax-ns#"
   xmlns:svg="http://www.w3.org/2000/svg"
   xmlns="http://www.w3.org/2000/svg"
   xmlns:sodipodi="http://sodipodi.sourceforge.net/DTD/sodipodi-0.dtd"
   xmlns:inkscape="http://www.inkscape.org/namespaces/inkscape"
   inkscape:version="1.0 (4035a4f, 2020-05-01)"
   sodipodi:docname="snippet20.svg"
   id="svg12586"
   version="1.2"
   viewBox="0 0 2340 287.58127"
   height="287.58127"
   width="2340">
  <metadata
     id="metadata12592">
    <rdf:RDF>
      <cc:Work
         rdf:about="">
        <dc:format>image/svg+xml</dc:format>
        <dc:type
           rdf:resource="http://purl.org/dc/dcmitype/StillImage" />
        <dc:title>Batches6Suite4</dc:title>
      </cc:Work>
    </rdf:RDF>
  </metadata>
  <defs
     id="defs12590" />
  <sodipodi:namedview
     inkscape:current-layer="svg12586"
     inkscape:window-maximized="0"
     inkscape:window-y="23"
     inkscape:window-x="0"
     inkscape:cy="158.06689"
     inkscape:cx="1257.1219"
     inkscape:zoom="0.28267777"
     showgrid="false"
     id="namedview12588"
     inkscape:window-height="752"
     inkscape:window-width="863"
     inkscape:pageshadow="2"
     inkscape:pageopacity="0"
     guidetolerance="10"
     gridtolerance="10"
     objecttolerance="10"
     borderopacity="1"
     bordercolor="#666666"
     pagecolor="#ffffff" />
  <title
     id="title11394">Batches6Suite4</title>
  <desc
     id="desc11396">Generated by MuseScore 3.6.2</desc>
  <polyline
     transform="translate(-360,-2077.3187)"
     id="polyline11418"
     points="360,2225.67 2700,2225.67"
     stroke-linejoin="bevel"
     stroke-width="2.34"
     stroke="#000000"
     fill="none"
     class="StaffLines" />
  <polyline
     transform="translate(-360,-2077.3187)"
     id="polyline11420"
     points="360,2246.91 2700,2246.91"
     stroke-linejoin="bevel"
     stroke-width="2.34"
     stroke="#000000"
     fill="none"
     class="StaffLines" />
  <polyline
     transform="translate(-360,-2077.3187)"
     id="polyline11422"
     points="360,2268.15 2700,2268.15"
     stroke-linejoin="bevel"
     stroke-width="2.34"
     stroke="#000000"
     fill="none"
     class="StaffLines" />
  <polyline
     transform="translate(-360,-2077.3187)"
     id="polyline11424"
     points="360,2289.39 2700,2289.39"
     stroke-linejoin="bevel"
     stroke-width="2.34"
     stroke="#000000"
     fill="none"
     class="StaffLines" />
  <polyline
     transform="translate(-360,-2077.3187)"
     id="polyline11426"
     points="360,2310.63 2700,2310.63"
     stroke-linejoin="bevel"
     stroke-width="2.34"
     stroke="#000000"
     fill="none"
     class="StaffLines" />
  <path
     id="path11470"
     d="m 350.58,82.30128 c 49.439,-88.62 178.355,-79.53 214.859,15.16 -36.923,-88.76 -165.839,-97.85 -214.859,-15.16"
     fill-rule="evenodd"
     stroke-linejoin="round"
     stroke-linecap="round"
     stroke-width="1.49"
     stroke="#000000"
     class="SlurSegment" />
  <path
     id="path11472"
     d="m 640.6,129.24128 c 27.72,-17.7 66.5,-4.42 77.55,26.55 -12.98,-25.35 -51.75,-38.62 -77.55,-26.55"
     fill-rule="evenodd"
     stroke-linejoin="round"
     stroke-linecap="round"
     stroke-width="1.49"
     stroke="#000000"
     class="SlurSegment" />
  <path
     id="path11474"
     d="m 845.19,161.10128 c 5.81,-28.88 38.07,-44.81 64.52,-31.86 -23.82,-7.61 -56.08,8.32 -64.52,31.86"
     fill-rule="evenodd"
     stroke-linejoin="round"
     stroke-linecap="round"
     stroke-width="1.49"
     stroke="#000000"
     class="SlurSegment" />
  <path
     id="path11476"
     d="m 994.41,102.56128 c 38.87,-45.86 129.57,-74.19 177.37,-24.41 -46.99,-43.89 -137.69,-15.55 -177.37,24.41"
     fill-rule="evenodd"
     stroke-linejoin="round"
     stroke-linecap="round"
     stroke-width="1.49"
     stroke="#000000"
     class="SlurSegment" />
  <path
     id="path11478"
     d="m 1539.94,97.91128 c 17.36,-22.66 52.07,-22.66 69.42,0 -17.35,-16.71 -52.06,-16.71 -69.42,0"
     fill-rule="evenodd"
     stroke-linejoin="round"
     stroke-linecap="round"
     stroke-width="1.49"
     stroke="#000000"
     class="SlurSegment" />
  <path
     id="path11480"
     d="m 1708.52,89.94128 c 17.36,-22.65 52.07,-22.65 69.42,0 -17.35,-16.71 -52.06,-16.71 -69.42,0"
     fill-rule="evenodd"
     stroke-linejoin="round"
     stroke-linecap="round"
     stroke-width="1.49"
     stroke="#000000"
     class="SlurSegment" />
  <path
     id="path11482"
     d="m 1877.1,81.98128 c 55.26,-36.84 156.68,-25.92 202.83,21.83 -46.79,-41.84 -148.21,-52.76 -202.83,-21.83"
     fill-rule="evenodd"
     stroke-linejoin="round"
     stroke-linecap="round"
     stroke-width="1.49"
     stroke="#000000"
     class="SlurSegment" />
  <polyline
     transform="translate(-360,-2077.3187)"
     id="polyline11504"
     points="641.769,2224.5 641.769,2311.8"
     stroke-linejoin="bevel"
     stroke-width="3.82"
     stroke="#000000"
     class="BarLine" />
  <polyline
     transform="translate(-360,-2077.3187)"
     id="polyline11506"
     points="1143.81,2224.5 1143.81,2311.8"
     stroke-linejoin="bevel"
     stroke-width="3.82"
     stroke="#000000"
     class="BarLine" />
  <polyline
     transform="translate(-360,-2077.3187)"
     id="polyline11508"
     points="1753.21,2224.5 1753.21,2311.8"
     stroke-linejoin="bevel"
     stroke-width="3.82"
     stroke="#000000"
     class="BarLine" />
  <polyline
     transform="translate(-360,-2077.3187)"
     id="polyline11510"
     points="2288.26,2224.5 2288.26,2311.8"
     stroke-linejoin="bevel"
     stroke-width="3.82"
     stroke="#000000"
     class="BarLine" />
  <path
     style="stroke-width:0.8496"
     id="path11512"
     d="m 1604.7034,228.3836 c -0.17,-0.16992 -0.4248,-0.25488 -0.6797,-0.25488 -0.085,0 -0.2549,0.085 -0.3399,0.085 l -10.7049,2.9736 v -14.868 H 1590.6 v 42.0552 c 0,0.67968 0.5098,1.10448 1.1894,1.10448 h 0.3399 l 10.7049,-2.9736 v 14.868 h 2.294 v -42.0552 c 0,-0.33984 -0.17,-0.76464 -0.4248,-0.93456 m -1.8692,21.07008 -9.8553,2.71872 V 238.239 l 9.8553,-2.80368 v 14.0184"
     class="Accidental" />
  <path
     style="stroke-width:0.8496"
     id="path11514"
     d="m 1752.0434,154.0436 c -0.17,-0.16992 -0.4248,-0.25488 -0.6797,-0.25488 -0.085,0 -0.2549,0.085 -0.3399,0.085 l -10.7049,2.9736 v -14.868 h -2.3789 v 42.0552 c 0,0.67968 0.5098,1.10448 1.1894,1.10448 h 0.3399 l 10.7049,-2.9736 v 14.868 h 2.294 v -42.0552 c 0,-0.33984 -0.17,-0.76464 -0.4248,-0.93456 m -1.8692,21.07008 -9.8553,2.71872 V 163.899 l 9.8553,-2.80368 v 14.0184"
     class="Accidental" />
  <path
     style="stroke-width:0.8496"
     id="path11516"
     d="m 1962.7534,154.0436 c -0.17,-0.16992 -0.4248,-0.25488 -0.6797,-0.25488 -0.085,0 -0.2549,0.085 -0.3399,0.085 l -10.7049,2.9736 v -14.868 h -2.3789 v 42.0552 c 0,0.67968 0.5098,1.10448 1.1894,1.10448 h 0.3399 l 10.7049,-2.9736 v 14.868 h 2.294 v -42.0552 c 0,-0.33984 -0.17,-0.76464 -0.4248,-0.93456 m -1.8692,21.07008 -9.8553,2.71872 V 163.899 l 9.8553,-2.80368 v 14.0184"
     class="Accidental" />
  <path
     style="stroke-width:0.8496"
     id="path11522"
     d="m 458.53836,79.7036 c -0.16992,-0.16992 -0.4248,-0.25488 -0.67968,-0.25488 -0.085,0 -0.25488,0.08496 -0.33984,0.08496 l -10.70496,2.9736 v -14.868 H 444.435 v 42.0552 c 0,0.67968 0.50976,1.10448 1.18944,1.10448 h 0.33984 l 10.70496,-2.9736 v 14.868 h 2.29392 v -42.0552 c 0,-0.33984 -0.16992,-0.76464 -0.4248,-0.93456 m -1.86912,21.07008 -9.85536,2.71872 V 89.55896 l 9.85536,-2.80368 v 14.0184"
     class="Accidental" />
  <path
     style="stroke-width:0.8496"
     id="path11524"
     d="m 1157.9134,79.7036 c -0.17,-0.16992 -0.4248,-0.25488 -0.6797,-0.25488 -0.085,0 -0.2549,0.08496 -0.3399,0.08496 l -10.7049,2.9736 v -14.868 h -2.3789 v 42.0552 c 0,0.67968 0.5098,1.10448 1.1894,1.10448 h 0.3399 l 10.7049,-2.9736 v 14.868 h 2.294 v -42.0552 c 0,-0.33984 -0.17,-0.76464 -0.4248,-0.93456 m -1.8692,21.07008 -9.8553,2.71872 V 89.55896 l 9.8553,-2.80368 v 14.0184"
     class="Accidental" />
  <polyline
     transform="translate(-360,-2077.3187)"
     id="polyline11592"
     points="539.133,2204.43 581.606,2204.43"
     stroke-linejoin="bevel"
     stroke-width="3.4"
     stroke="#000000"
     class="LedgerLine" />
  <polyline
     transform="translate(-360,-2077.3187)"
     id="polyline11594"
     points="669.168,2204.43 711.642,2204.43"
     stroke-linejoin="bevel"
     stroke-width="3.4"
     stroke="#000000"
     class="LedgerLine" />
  <polyline
     transform="translate(-360,-2077.3187)"
     id="polyline11596"
     points="824.267,2204.43 866.741,2204.43"
     stroke-linejoin="bevel"
     stroke-width="3.4"
     stroke="#000000"
     class="LedgerLine" />
  <polyline
     transform="translate(-360,-2077.3187)"
     id="polyline11598"
     points="824.267,2183.19 866.741,2183.19"
     stroke-linejoin="bevel"
     stroke-width="3.4"
     stroke="#000000"
     class="LedgerLine" />
  <polyline
     transform="translate(-360,-2077.3187)"
     id="polyline11600"
     points="1523.64,2204.43 1566.12,2204.43"
     stroke-linejoin="bevel"
     stroke-width="3.4"
     stroke="#000000"
     class="LedgerLine" />
  <polyline
     transform="translate(-360,-2077.3187)"
     id="polyline11602"
     points="1523.64,2183.19 1566.12,2183.19"
     stroke-linejoin="bevel"
     stroke-width="3.4"
     stroke="#000000"
     class="LedgerLine" />
  <polyline
     transform="translate(-360,-2077.3187)"
     id="polyline11604"
     points="1427.11,2204.43 1461.3,2204.43"
     stroke-linejoin="bevel"
     stroke-width="2.38"
     stroke="#000000"
     class="LedgerLine" />
  <polyline
     transform="translate(-360,-2077.3187)"
     id="polyline11606"
     points="1448.36,2204.43 1482.56,2204.43"
     stroke-linejoin="bevel"
     stroke-width="2.38"
     stroke="#000000"
     class="LedgerLine" />
  <polyline
     transform="translate(-360,-2077.3187)"
     id="polyline11608"
     points="1469.62,2204.43 1503.81,2204.43"
     stroke-linejoin="bevel"
     stroke-width="2.38"
     stroke="#000000"
     class="LedgerLine" />
  <polyline
     transform="translate(-360,-2077.3187)"
     id="polyline11610"
     points="1469.62,2183.19 1503.81,2183.19"
     stroke-linejoin="bevel"
     stroke-width="2.38"
     stroke="#000000"
     class="LedgerLine" />
  <polyline
     transform="translate(-360,-2077.3187)"
     id="polyline11612"
     points="1608.35,2204.43 1650.82,2204.43"
     stroke-linejoin="bevel"
     stroke-width="3.4"
     stroke="#000000"
     class="LedgerLine" />
  <polyline
     transform="translate(-360,-2077.3187)"
     id="polyline11614"
     points="1608.35,2183.19 1650.82,2183.19"
     stroke-linejoin="bevel"
     stroke-width="3.4"
     stroke="#000000"
     class="LedgerLine" />
  <polyline
     transform="translate(-360,-2077.3187)"
     id="polyline11616"
     points="1780.61,2331.87 1836.89,2331.87"
     stroke-linejoin="bevel"
     stroke-width="3.4"
     stroke="#000000"
     class="LedgerLine" />
  <polyline
     transform="translate(-360,-2077.3187)"
     id="polyline11618"
     points="2194.63,2204.43 2237.1,2204.43"
     stroke-linejoin="bevel"
     stroke-width="3.4"
     stroke="#000000"
     class="LedgerLine" />
  <polyline
     transform="translate(-360,-2077.3187)"
     id="polyline11620"
     points="2310.43,2204.43 2352.91,2204.43"
     stroke-linejoin="bevel"
     stroke-width="3.4"
     stroke="#000000"
     class="LedgerLine" />
  <polyline
     transform="translate(-360,-2077.3187)"
     id="polyline11622"
     points="2310.43,2353.11 2352.91,2353.11"
     stroke-linejoin="bevel"
     stroke-width="3.4"
     stroke="#000000"
     class="LedgerLine" />
  <polyline
     transform="translate(-360,-2077.3187)"
     id="polyline11624"
     points="2310.43,2331.87 2352.91,2331.87"
     stroke-linejoin="bevel"
     stroke-width="3.4"
     stroke="#000000"
     class="LedgerLine" />
  <polyline
     transform="translate(-360,-2077.3187)"
     id="polyline11626"
     points="2501.93,2204.43 2544.41,2204.43"
     stroke-linejoin="bevel"
     stroke-width="3.4"
     stroke="#000000"
     class="LedgerLine" />
  <polyline
     transform="translate(-360,-2077.3187)"
     id="polyline11628"
     points="2344.3,2350.39 2344.3,2270.53"
     stroke-linejoin="bevel"
     stroke-width="2.34"
     stroke="#000000"
     class="Stem" />
  <polyline
     transform="translate(-360,-2077.3187)"
     id="polyline11638"
     points="1663.46,2276.05 1663.46,2209.74"
     stroke-linejoin="bevel"
     stroke-width="2.34"
     stroke="#000000"
     class="Stem" />
  <polyline
     transform="translate(-360,-2077.3187)"
     id="polyline11640"
     points="1828.29,2329.15 1828.29,2257.53"
     stroke-linejoin="bevel"
     stroke-width="2.34"
     stroke="#000000"
     class="Stem" />
  <polyline
     transform="translate(-360,-2077.3187)"
     id="polyline11642"
     points="1996.87,2318.53 1996.87,2246.91"
     stroke-linejoin="bevel"
     stroke-width="2.34"
     stroke="#000000"
     class="Stem" />
  <polyline
     transform="translate(-360,-2077.3187)"
     id="polyline11644"
     points="2165.45,2307.91 2165.45,2236.29"
     stroke-linejoin="bevel"
     stroke-width="2.34"
     stroke="#000000"
     class="Stem" />
  <polyline
     transform="translate(-360,-2077.3187)"
     id="polyline11646"
     points="2333.68,2307.91 2333.68,2264.19"
     stroke-linejoin="bevel"
     stroke-width="2.34"
     stroke="#000000"
     class="Stem" />
  <polyline
     transform="translate(-360,-2077.3187)"
     id="polyline11666"
     points="677.771,2271.01 677.771,2334.53"
     stroke-linejoin="bevel"
     stroke-width="2.34"
     stroke="#000000"
     class="Stem" />
  <polyline
     transform="translate(-360,-2077.3187)"
     id="polyline11668"
     points="910.419,2239.15 910.419,2310.63"
     stroke-linejoin="bevel"
     stroke-width="2.34"
     stroke="#000000"
     class="Stem" />
  <polyline
     transform="translate(-360,-2077.3187)"
     id="polyline11670"
     points="1652.84,2233.57 1652.84,2177.88"
     stroke-linejoin="bevel"
     stroke-width="2.34"
     stroke="#000000"
     class="Stem" />
  <polyline
     transform="translate(-360,-2077.3187)"
     id="polyline11672"
     points="1817.67,2276.05 1817.67,2209.74"
     stroke-linejoin="bevel"
     stroke-width="2.34"
     stroke="#000000"
     class="Stem" />
  <polyline
     transform="translate(-360,-2077.3187)"
     id="polyline11674"
     points="1986.25,2276.05 1986.25,2209.74"
     stroke-linejoin="bevel"
     stroke-width="2.34"
     stroke="#000000"
     class="Stem" />
  <polyline
     transform="translate(-360,-2077.3187)"
     id="polyline11676"
     points="2154.83,2244.19 2154.83,2185.85"
     stroke-linejoin="bevel"
     stroke-width="2.34"
     stroke="#000000"
     class="Stem" />
  <polyline
     transform="translate(-360,-2077.3187)"
     id="polyline11678"
     points="2354.92,2244.19 2354.92,2185.85"
     stroke-linejoin="bevel"
     stroke-width="2.34"
     stroke="#000000"
     class="Stem" />
  <polyline
     transform="translate(-360,-2077.3187)"
     id="polyline11680"
     points="2440.05,2265.43 2440.05,2201.78"
     stroke-linejoin="bevel"
     stroke-width="2.34"
     stroke="#000000"
     class="Stem" />
  <polyline
     transform="translate(-360,-2077.3187)"
     id="polyline11682"
     points="2403.47,2255.63 2403.47,2205.49"
     stroke-linejoin="bevel"
     stroke-width="1.64"
     stroke="#000000"
     class="Stem" />
  <polyline
     transform="translate(-360,-2077.3187)"
     id="polyline11684"
     points="2546.43,2254.81 2546.43,2210.35"
     stroke-linejoin="bevel"
     stroke-width="2.34"
     stroke="#000000"
     class="Stem" />
  <polyline
     transform="translate(-360,-2077.3187)"
     id="polyline11812"
     points="547.735,2207.29 547.735,2278.77"
     stroke-linejoin="bevel"
     stroke-width="2.34"
     stroke="#000000"
     class="Stem" />
  <polyline
     transform="translate(-360,-2077.3187)"
     id="polyline11814"
     points="703.04,2201.71 703.04,2153.99"
     stroke-linejoin="bevel"
     stroke-width="2.34"
     stroke="#000000"
     class="Stem" />
  <polyline
     transform="translate(-360,-2077.3187)"
     id="polyline11816"
     points="780.589,2212.33 780.589,2161.95"
     stroke-linejoin="bevel"
     stroke-width="2.34"
     stroke="#000000"
     class="Stem" />
  <polyline
     transform="translate(-360,-2077.3187)"
     id="polyline11818"
     points="858.139,2169.85 858.139,2124.78"
     stroke-linejoin="bevel"
     stroke-width="2.34"
     stroke="#000000"
     class="Stem" />
  <polyline
     transform="translate(-360,-2077.3187)"
     id="polyline11820"
     points="987.969,2228.53 987.969,2300.01"
     stroke-linejoin="bevel"
     stroke-width="2.34"
     stroke="#000000"
     class="Stem" />
  <polyline
     transform="translate(-360,-2077.3187)"
     id="polyline11822"
     points="1090.79,2276.05 1090.79,2209.74"
     stroke-linejoin="bevel"
     stroke-width="2.34"
     stroke="#000000"
     class="Stem" />
  <polyline
     transform="translate(-360,-2077.3187)"
     id="polyline11824"
     points="1197.65,2286.67 1197.65,2217.71"
     stroke-linejoin="bevel"
     stroke-width="2.34"
     stroke="#000000"
     class="Stem" />
  <polyline
     transform="translate(-360,-2077.3187)"
     id="polyline11826"
     points="1257.08,2228.53 1257.08,2300.01"
     stroke-linejoin="bevel"
     stroke-width="2.34"
     stroke="#000000"
     class="Stem" />
  <polyline
     transform="translate(-360,-2077.3187)"
     id="polyline11828"
     points="1341.78,2239.15 1341.78,2310.63"
     stroke-linejoin="bevel"
     stroke-width="2.34"
     stroke="#000000"
     class="Stem" />
  <polyline
     transform="translate(-360,-2077.3187)"
     id="polyline11830"
     points="1406.67,2217.05 1406.67,2268.15"
     stroke-linejoin="bevel"
     stroke-width="1.64"
     stroke="#000000"
     class="Stem" />
  <polyline
     transform="translate(-360,-2077.3187)"
     id="polyline11832"
     points="1385.41,2227.67 1385.41,2273.46"
     stroke-linejoin="bevel"
     stroke-width="1.64"
     stroke="#000000"
     class="Stem" />
  <polyline
     transform="translate(-360,-2077.3187)"
     id="polyline11834"
     points="1532.25,2175.43 1532.25,2268.15"
     stroke-linejoin="bevel"
     stroke-width="2.34"
     stroke="#000000"
     class="Stem" />
  <polyline
     transform="translate(-360,-2077.3187)"
     id="polyline11836"
     points="1435.36,2206.43 1435.36,2252.22"
     stroke-linejoin="bevel"
     stroke-width="1.64"
     stroke="#000000"
     class="Stem" />
  <polyline
     transform="translate(-360,-2077.3187)"
     id="polyline11838"
     points="1456.62,2195.81 1456.62,2241.6"
     stroke-linejoin="bevel"
     stroke-width="1.64"
     stroke="#000000"
     class="Stem" />
  <polyline
     transform="translate(-360,-2077.3187)"
     id="polyline11840"
     points="1477.87,2185.19 1477.87,2230.98"
     stroke-linejoin="bevel"
     stroke-width="1.64"
     stroke="#000000"
     class="Stem" />
  <polyline
     transform="translate(-360,-2077.3187)"
     id="polyline11842"
     points="1642.22,2180.47 1642.22,2135.4"
     stroke-linejoin="bevel"
     stroke-width="2.34"
     stroke="#000000"
     class="Stem" />
  <polyline
     transform="translate(-360,-2077.3187)"
     id="polyline11844"
     points="1807.05,2233.57 1807.05,2177.88"
     stroke-linejoin="bevel"
     stroke-width="2.34"
     stroke="#000000"
     class="Stem" />
  <polyline
     transform="translate(-360,-2077.3187)"
     id="polyline11846"
     points="1891.34,2222.95 1891.34,2169.92"
     stroke-linejoin="bevel"
     stroke-width="2.34"
     stroke="#000000"
     class="Stem" />
  <polyline
     transform="translate(-360,-2077.3187)"
     id="polyline11848"
     points="1975.63,2222.95 1975.63,2169.92"
     stroke-linejoin="bevel"
     stroke-width="2.34"
     stroke="#000000"
     class="Stem" />
  <polyline
     transform="translate(-360,-2077.3187)"
     id="polyline11850"
     points="2059.92,2212.33 2059.92,2161.95"
     stroke-linejoin="bevel"
     stroke-width="2.34"
     stroke="#000000"
     class="Stem" />
  <polyline
     transform="translate(-360,-2077.3187)"
     id="polyline11852"
     points="2144.21,2212.33 2144.21,2161.95"
     stroke-linejoin="bevel"
     stroke-width="2.34"
     stroke="#000000"
     class="Stem" />
  <polyline
     transform="translate(-360,-2077.3187)"
     id="polyline11854"
     points="2228.5,2201.71 2228.5,2153.99"
     stroke-linejoin="bevel"
     stroke-width="2.34"
     stroke="#000000"
     class="Stem" />
  <polyline
     transform="translate(-360,-2077.3187)"
     id="polyline11856"
     points="2344.3,2201.71 2344.3,2153.99"
     stroke-linejoin="bevel"
     stroke-width="2.34"
     stroke="#000000"
     class="Stem" />
  <polyline
     transform="translate(-360,-2077.3187)"
     id="polyline11858"
     points="2535.81,2201.71 2535.81,2153.99"
     stroke-linejoin="bevel"
     stroke-width="2.34"
     stroke="#000000"
     class="Stem" />
  <path
     style="stroke-width:0.8496"
     id="path11860"
     d="m 1984.6324,268.90952 c -1.5293,-2.80368 -4.7578,-4.33296 -8.6659,-4.33296 -2.8887,0 -6.0322,0.8496 -9.0907,2.46384 -5.6074,2.9736 -9.0058,7.98624 -9.0058,12.3192 0,1.18944 0.2549,2.37888 0.8496,3.48336 1.5293,2.80368 4.7578,4.248 8.6659,4.248 2.8887,0 6.0322,-0.76464 9.0907,-2.37888 5.6074,-2.9736 9.0058,-7.98624 9.0058,-12.3192 0,-1.18944 -0.2549,-2.37888 -0.8496,-3.48336 m -3.6533,5.77728 c -1.4443,1.44432 -4.3329,3.22848 -7.3915,4.92768 -3.0586,1.6992 -6.1171,2.9736 -8.1562,3.3984 -0.4248,0.085 -0.8496,0.16992 -1.2744,0.16992 -1.3593,0 -2.3788,-0.50976 -2.9736,-1.61424 -0.2548,-0.4248 -0.4248,-0.93456 -0.4248,-1.44432 0,-0.93456 0.5948,-2.03904 1.5293,-2.9736 1.4443,-1.44432 4.248,-3.22848 7.3066,-4.92768 3.0585,-1.6992 6.1171,-2.9736 8.1561,-3.3984 0.4248,-0.085 0.8496,-0.16992 1.2744,-0.16992 1.3594,0 2.4639,0.50976 3.0586,1.61424 0.2549,0.4248 0.3398,0.93456 0.3398,1.44432 0,0.93456 -0.5097,1.95408 -1.4443,2.9736"
     class="Note" />
  <path
     style="stroke-width:0.8496"
     id="path11870"
     d="m 1303.7824,194.56952 c -1.5293,-2.80368 -4.7578,-4.33296 -8.6659,-4.33296 -2.8887,0 -6.0322,0.8496 -9.0907,2.46384 -5.6074,2.9736 -9.0058,7.98624 -9.0058,12.3192 0,1.18944 0.2549,2.37888 0.8496,3.48336 1.5293,2.80368 4.7578,4.248 8.6659,4.248 2.8887,0 6.0322,-0.76464 9.0907,-2.37888 5.6074,-2.9736 9.0058,-7.98624 9.0058,-12.3192 0,-1.18944 -0.2549,-2.37888 -0.8496,-3.48336 m -3.6533,5.77728 c -1.4443,1.44432 -4.3329,3.22848 -7.3915,4.92768 -3.0586,1.6992 -6.1171,2.9736 -8.1562,3.3984 -0.4248,0.085 -0.8496,0.16992 -1.2744,0.16992 -1.3593,0 -2.3788,-0.50976 -2.9736,-1.61424 -0.2548,-0.4248 -0.4248,-0.93456 -0.4248,-1.44432 0,-0.93456 0.5948,-2.03904 1.5293,-2.9736 1.4443,-1.44432 4.248,-3.22848 7.3066,-4.92768 3.0585,-1.6992 6.1171,-2.9736 8.1561,-3.3984 0.4248,-0.085 0.8496,-0.16992 1.2744,-0.16992 1.3594,0 2.4639,0.50976 3.0586,1.61424 0.2549,0.4248 0.3398,0.93456 0.3398,1.44432 0,0.93456 -0.5097,1.95408 -1.4443,2.9736"
     class="Note" />
  <path
     style="stroke-width:0.8496"
     id="path11872"
     d="m 1468.6124,247.66952 c -1.5293,-2.80368 -4.7578,-4.33296 -8.6659,-4.33296 -2.8887,0 -6.0322,0.8496 -9.0907,2.46384 -5.6074,2.9736 -9.0058,7.98624 -9.0058,12.3192 0,1.18944 0.2549,2.37888 0.8496,3.48336 1.5293,2.80368 4.7578,4.248 8.6659,4.248 2.8887,0 6.0322,-0.76464 9.0907,-2.37888 5.6074,-2.9736 9.0058,-7.98624 9.0058,-12.3192 0,-1.18944 -0.2549,-2.37888 -0.8496,-3.48336 m -3.6533,5.77728 c -1.4443,1.44432 -4.3329,3.22848 -7.3915,4.92768 -3.0586,1.6992 -6.1171,2.9736 -8.1562,3.3984 -0.4248,0.085 -0.8496,0.16992 -1.2744,0.16992 -1.3593,0 -2.3788,-0.50976 -2.9736,-1.61424 -0.2548,-0.4248 -0.4248,-0.93456 -0.4248,-1.44432 0,-0.93456 0.5948,-2.03904 1.5293,-2.9736 1.4443,-1.44432 4.248,-3.22848 7.3066,-4.92768 3.0585,-1.6992 6.1171,-2.9736 8.1561,-3.3984 0.4248,-0.085 0.8496,-0.16992 1.2744,-0.16992 1.3594,0 2.4639,0.50976 3.0586,1.61424 0.2549,0.4248 0.3398,0.93456 0.3398,1.44432 0,0.93456 -0.5097,1.95408 -1.4443,2.9736"
     class="Note" />
  <path
     style="stroke-width:0.8496"
     id="path11874"
     d="m 1637.1924,237.04952 c -1.5293,-2.80368 -4.7578,-4.33296 -8.6659,-4.33296 -2.8887,0 -6.0322,0.8496 -9.0907,2.46384 -5.6074,2.9736 -9.0058,7.98624 -9.0058,12.3192 0,1.18944 0.2549,2.37888 0.8496,3.48336 1.5293,2.80368 4.7578,4.248 8.6659,4.248 2.8887,0 6.0322,-0.76464 9.0907,-2.37888 5.6074,-2.9736 9.0058,-7.98624 9.0058,-12.3192 0,-1.18944 -0.2549,-2.37888 -0.8496,-3.48336 m -3.6533,5.77728 c -1.4443,1.44432 -4.3329,3.22848 -7.3915,4.92768 -3.0586,1.6992 -6.1171,2.9736 -8.1562,3.3984 -0.4248,0.085 -0.8496,0.16992 -1.2744,0.16992 -1.3593,0 -2.3788,-0.50976 -2.9736,-1.61424 -0.2548,-0.4248 -0.4248,-0.93456 -0.4248,-1.44432 0,-0.93456 0.5948,-2.03904 1.5293,-2.9736 1.4443,-1.44432 4.248,-3.22848 7.3066,-4.92768 3.0585,-1.6992 6.1171,-2.9736 8.1561,-3.3984 0.4248,-0.085 0.8496,-0.16992 1.2744,-0.16992 1.3594,0 2.4639,0.50976 3.0586,1.61424 0.2549,0.4248 0.3398,0.93456 0.3398,1.44432 0,0.93456 -0.5097,1.95408 -1.4443,2.9736"
     class="Note" />
  <path
     style="stroke-width:0.8496"
     id="path11876"
     d="m 1805.7724,226.42952 c -1.5293,-2.80368 -4.7578,-4.33296 -8.6659,-4.33296 -2.8887,0 -6.0322,0.8496 -9.0907,2.46384 -5.6074,2.9736 -9.0058,7.98624 -9.0058,12.3192 0,1.18944 0.2549,2.37888 0.8496,3.48336 1.5293,2.80368 4.7578,4.248 8.6659,4.248 2.8887,0 6.0322,-0.76464 9.0907,-2.37888 5.6074,-2.9736 9.0058,-7.98624 9.0058,-12.3192 0,-1.18944 -0.2549,-2.37888 -0.8496,-3.48336 m -3.6533,5.77728 c -1.4443,1.44432 -4.3329,3.22848 -7.3915,4.92768 -3.0586,1.6992 -6.1171,2.9736 -8.1562,3.3984 -0.4248,0.085 -0.8496,0.16992 -1.2744,0.16992 -1.3593,0 -2.3788,-0.50976 -2.9736,-1.61424 -0.2548,-0.4248 -0.4248,-0.93456 -0.4248,-1.44432 0,-0.93456 0.5948,-2.03904 1.5293,-2.9736 1.4443,-1.44432 4.248,-3.22848 7.3066,-4.92768 3.0585,-1.6992 6.1171,-2.9736 8.1561,-3.3984 0.4248,-0.085 0.8496,-0.16992 1.2744,-0.16992 1.3594,0 2.4639,0.50976 3.0586,1.61424 0.2549,0.4248 0.3398,0.93456 0.3398,1.44432 0,0.93456 -0.5097,1.95408 -1.4443,2.9736"
     class="Note" />
  <path
     style="stroke-width:0.8496"
     id="path11878"
     d="m 1974.0124,226.42952 c -1.5293,-2.80368 -4.7578,-4.33296 -8.6659,-4.33296 -2.8887,0 -6.0322,0.8496 -9.0907,2.46384 -5.6074,2.9736 -9.0058,7.98624 -9.0058,12.3192 0,1.18944 0.2549,2.37888 0.8496,3.48336 1.5293,2.80368 4.7578,4.248 8.6659,4.248 2.8887,0 6.0322,-0.76464 9.0907,-2.37888 5.6074,-2.9736 9.0058,-7.98624 9.0058,-12.3192 0,-1.18944 -0.2549,-2.37888 -0.8496,-3.48336 m -3.6533,5.77728 c -1.4443,1.44432 -4.3329,3.22848 -7.3915,4.92768 -3.0586,1.6992 -6.1171,2.9736 -8.1562,3.3984 -0.4248,0.085 -0.8496,0.16992 -1.2744,0.16992 -1.3593,0 -2.3788,-0.50976 -2.9736,-1.61424 -0.2548,-0.4248 -0.4248,-0.93456 -0.4248,-1.44432 0,-0.93456 0.5948,-2.03904 1.5293,-2.9736 1.4443,-1.44432 4.248,-3.22848 7.3066,-4.92768 3.0585,-1.6992 6.1171,-2.9736 8.1561,-3.3984 0.4248,-0.085 0.8496,-0.16992 1.2744,-0.16992 1.3594,0 2.4639,0.50976 3.0586,1.61424 0.2549,0.4248 0.3398,0.93456 0.3398,1.44432 0,0.93456 -0.5097,1.95408 -1.4443,2.9736"
     class="Note" />
  <path
     style="stroke-width:0.8496"
     id="path11910"
     d="m 343.3644,183.94952 c -1.52928,-2.80368 -4.75776,-4.33296 -8.66592,-4.33296 -2.88864,0 -6.03216,0.8496 -9.09072,2.46384 -5.60736,2.9736 -9.00576,7.98624 -9.00576,12.3192 0,1.18944 0.25488,2.37888 0.8496,3.48336 1.52928,2.80368 4.75776,4.248 8.66592,4.248 2.88864,0 6.03216,-0.76464 9.09072,-2.37888 5.60736,-2.9736 9.00576,-7.98624 9.00576,-12.3192 0,-1.18944 -0.25488,-2.37888 -0.8496,-3.48336 m -3.65328,5.77728 c -1.44432,1.44432 -4.33296,3.22848 -7.39152,4.92768 -3.05856,1.6992 -6.11712,2.9736 -8.15616,3.3984 -0.4248,0.085 -0.8496,0.16992 -1.2744,0.16992 -1.35936,0 -2.37888,-0.50976 -2.9736,-1.61424 -0.25488,-0.4248 -0.4248,-0.93456 -0.4248,-1.44432 0,-0.93456 0.59472,-2.03904 1.52928,-2.9736 1.44432,-1.44432 4.248,-3.22848 7.30656,-4.92768 3.05856,-1.6992 6.11712,-2.9736 8.15616,-3.3984 0.4248,-0.085 0.8496,-0.16992 1.2744,-0.16992 1.35936,0 2.46384,0.50976 3.05856,1.61424 0.25488,0.4248 0.33984,0.93456 0.33984,1.44432 0,0.93456 -0.50976,1.95408 -1.44432,2.9736"
     class="Note" />
  <path
     style="stroke-width:0.8496"
     id="path11912"
     d="m 576.0134,152.08952 c -1.52928,-2.80368 -4.75776,-4.33296 -8.66592,-4.33296 -2.88864,0 -6.03216,0.8496 -9.09072,2.46384 -5.60736,2.9736 -9.00576,7.98624 -9.00576,12.3192 0,1.18944 0.25488,2.37888 0.8496,3.48336 1.52928,2.80368 4.75776,4.248 8.66592,4.248 2.88864,0 6.03216,-0.76464 9.09072,-2.37888 5.60736,-2.9736 9.00576,-7.98624 9.00576,-12.3192 0,-1.18944 -0.25488,-2.37888 -0.8496,-3.48336"
     class="Note" />
  <path
     style="stroke-width:0.8496"
     id="path11914"
     d="m 1293.1624,152.08952 c -1.5293,-2.80368 -4.7578,-4.33296 -8.6659,-4.33296 -2.8887,0 -6.0322,0.8496 -9.0907,2.46384 -5.6074,2.9736 -9.0058,7.98624 -9.0058,12.3192 0,1.18944 0.2549,2.37888 0.8496,3.48336 1.5293,2.80368 4.7578,4.248 8.6659,4.248 2.8887,0 6.0322,-0.76464 9.0907,-2.37888 5.6074,-2.9736 9.0058,-7.98624 9.0058,-12.3192 0,-1.18944 -0.2549,-2.37888 -0.8496,-3.48336 m -3.6533,5.77728 c -1.4443,1.44432 -4.3329,3.22848 -7.3915,4.92768 -3.0586,1.6992 -6.1171,2.9736 -8.1562,3.3984 -0.4248,0.085 -0.8496,0.16992 -1.2744,0.16992 -1.3593,0 -2.3788,-0.50976 -2.9736,-1.61424 -0.2548,-0.4248 -0.4248,-0.93456 -0.4248,-1.44432 0,-0.93456 0.5948,-2.03904 1.5293,-2.9736 1.4443,-1.44432 4.248,-3.22848 7.3066,-4.92768 3.0585,-1.6992 6.1171,-2.9736 8.1561,-3.3984 0.4248,-0.085 0.8496,-0.16992 1.2744,-0.16992 1.3594,0 2.4639,0.50976 3.0586,1.61424 0.2549,0.4248 0.3398,0.93456 0.3398,1.44432 0,0.93456 -0.5097,1.95408 -1.4443,2.9736"
     class="Note" />
  <path
     style="stroke-width:0.8496"
     id="path11916"
     d="m 1457.9924,194.56952 c -1.5293,-2.80368 -4.7578,-4.33296 -8.6659,-4.33296 -2.8887,0 -6.0322,0.8496 -9.0907,2.46384 -5.6074,2.9736 -9.0058,7.98624 -9.0058,12.3192 0,1.18944 0.2549,2.37888 0.8496,3.48336 1.5293,2.80368 4.7578,4.248 8.6659,4.248 2.8887,0 6.0322,-0.76464 9.0907,-2.37888 5.6074,-2.9736 9.0058,-7.98624 9.0058,-12.3192 0,-1.18944 -0.2549,-2.37888 -0.8496,-3.48336 m -3.6533,5.77728 c -1.4443,1.44432 -4.3329,3.22848 -7.3915,4.92768 -3.0586,1.6992 -6.1171,2.9736 -8.1562,3.3984 -0.4248,0.085 -0.8496,0.16992 -1.2744,0.16992 -1.3593,0 -2.3788,-0.50976 -2.9736,-1.61424 -0.2548,-0.4248 -0.4248,-0.93456 -0.4248,-1.44432 0,-0.93456 0.5948,-2.03904 1.5293,-2.9736 1.4443,-1.44432 4.248,-3.22848 7.3066,-4.92768 3.0585,-1.6992 6.1171,-2.9736 8.1561,-3.3984 0.4248,-0.085 0.8496,-0.16992 1.2744,-0.16992 1.3594,0 2.4639,0.50976 3.0586,1.61424 0.2549,0.4248 0.3398,0.93456 0.3398,1.44432 0,0.93456 -0.5097,1.95408 -1.4443,2.9736"
     class="Note" />
  <path
     style="stroke-width:0.8496"
     id="path11918"
     d="m 1626.5724,194.56952 c -1.5293,-2.80368 -4.7578,-4.33296 -8.6659,-4.33296 -2.8887,0 -6.0322,0.8496 -9.0907,2.46384 -5.6074,2.9736 -9.0058,7.98624 -9.0058,12.3192 0,1.18944 0.2549,2.37888 0.8496,3.48336 1.5293,2.80368 4.7578,4.248 8.6659,4.248 2.8887,0 6.0322,-0.76464 9.0907,-2.37888 5.6074,-2.9736 9.0058,-7.98624 9.0058,-12.3192 0,-1.18944 -0.2549,-2.37888 -0.8496,-3.48336 m -3.6533,5.77728 c -1.4443,1.44432 -4.3329,3.22848 -7.3915,4.92768 -3.0586,1.6992 -6.1171,2.9736 -8.1562,3.3984 -0.4248,0.085 -0.8496,0.16992 -1.2744,0.16992 -1.3593,0 -2.3788,-0.50976 -2.9736,-1.61424 -0.2548,-0.4248 -0.4248,-0.93456 -0.4248,-1.44432 0,-0.93456 0.5948,-2.03904 1.5293,-2.9736 1.4443,-1.44432 4.248,-3.22848 7.3066,-4.92768 3.0585,-1.6992 6.1171,-2.9736 8.1561,-3.3984 0.4248,-0.085 0.8496,-0.16992 1.2744,-0.16992 1.3594,0 2.4639,0.50976 3.0586,1.61424 0.2549,0.4248 0.3398,0.93456 0.3398,1.44432 0,0.93456 -0.5097,1.95408 -1.4443,2.9736"
     class="Note" />
  <path
     style="stroke-width:0.8496"
     id="path11920"
     d="m 1795.1524,162.70952 c -1.5293,-2.80368 -4.7578,-4.33296 -8.6659,-4.33296 -2.8887,0 -6.0322,0.8496 -9.0907,2.46384 -5.6074,2.9736 -9.0058,7.98624 -9.0058,12.3192 0,1.18944 0.2549,2.37888 0.8496,3.48336 1.5293,2.80368 4.7578,4.248 8.6659,4.248 2.8887,0 6.0322,-0.76464 9.0907,-2.37888 5.6074,-2.9736 9.0058,-7.98624 9.0058,-12.3192 0,-1.18944 -0.2549,-2.37888 -0.8496,-3.48336 m -3.6533,5.77728 c -1.4443,1.44432 -4.3329,3.22848 -7.3915,4.92768 -3.0586,1.6992 -6.1171,2.9736 -8.1562,3.3984 -0.4248,0.085 -0.8496,0.16992 -1.2744,0.16992 -1.3593,0 -2.3788,-0.50976 -2.9736,-1.61424 -0.2548,-0.4248 -0.4248,-0.93456 -0.4248,-1.44432 0,-0.93456 0.5948,-2.03904 1.5293,-2.9736 1.4443,-1.44432 4.248,-3.22848 7.3066,-4.92768 3.0585,-1.6992 6.1171,-2.9736 8.1561,-3.3984 0.4248,-0.085 0.8496,-0.16992 1.2744,-0.16992 1.3594,0 2.4639,0.50976 3.0586,1.61424 0.2549,0.4248 0.3398,0.93456 0.3398,1.44432 0,0.93456 -0.5097,1.95408 -1.4443,2.9736"
     class="Note" />
  <path
     style="stroke-width:0.8496"
     id="path11922"
     d="m 1995.2524,162.70952 c -1.5293,-2.80368 -4.7578,-4.33296 -8.6659,-4.33296 -2.8887,0 -6.0322,0.8496 -9.0907,2.46384 -5.6074,2.9736 -9.0058,7.98624 -9.0058,12.3192 0,1.18944 0.2549,2.37888 0.8496,3.48336 1.5293,2.80368 4.7578,4.248 8.6659,4.248 2.8887,0 6.0322,-0.76464 9.0907,-2.37888 5.6074,-2.9736 9.0058,-7.98624 9.0058,-12.3192 0,-1.18944 -0.2549,-2.37888 -0.8496,-3.48336"
     class="Note" />
  <path
     style="stroke-width:0.8496"
     id="path11924"
     d="m 2080.3824,183.94952 c -1.5293,-2.80368 -4.7578,-4.33296 -8.6659,-4.33296 -2.8887,0 -6.0322,0.8496 -9.0907,2.46384 -5.6074,2.9736 -9.0058,7.98624 -9.0058,12.3192 0,1.18944 0.2549,2.37888 0.8496,3.48336 1.5293,2.80368 4.7578,4.248 8.6659,4.248 2.8887,0 6.0322,-0.76464 9.0907,-2.37888 5.6074,-2.9736 9.0058,-7.98624 9.0058,-12.3192 0,-1.18944 -0.2549,-2.37888 -0.8496,-3.48336"
     class="Note" />
  <path
     style="stroke-width:0.59472"
     id="path11926"
     d="m 2043.7037,175.39405 c -1.0705,-1.96258 -3.3305,-3.03307 -6.0662,-3.03307 -2.022,0 -4.2225,0.59472 -6.3635,1.72468 -3.9251,2.08152 -6.304,5.59037 -6.304,8.62344 0,0.83261 0.1784,1.66522 0.5947,2.43836 1.0705,1.96257 3.3305,2.9736 6.0662,2.9736 2.022,0 4.2225,-0.53525 6.3635,-1.66522 3.9251,-2.08152 6.304,-5.59037 6.304,-8.62344 0,-0.83261 -0.1784,-1.66522 -0.5947,-2.43835"
     class="Note" />
  <path
     style="stroke-width:0.8496"
     id="path11928"
     d="m 2186.7524,173.32952 c -1.5293,-2.80368 -4.7578,-4.33296 -8.6659,-4.33296 -2.8887,0 -6.0322,0.8496 -9.0907,2.46384 -5.6074,2.9736 -9.0058,7.98624 -9.0058,12.3192 0,1.18944 0.2549,2.37888 0.8496,3.48336 1.5293,2.80368 4.7578,4.248 8.6659,4.248 2.8887,0 6.0322,-0.76464 9.0907,-2.37888 5.6074,-2.9736 9.0058,-7.98624 9.0058,-12.3192 0,-1.18944 -0.2549,-2.37888 -0.8496,-3.48336 m -3.6533,5.77728 c -1.4443,1.44432 -4.3329,3.22848 -7.3915,4.92768 -3.0586,1.6992 -6.1171,2.9736 -8.1562,3.3984 -0.4248,0.085 -0.8496,0.16992 -1.2744,0.16992 -1.3593,0 -2.3788,-0.50976 -2.9736,-1.61424 -0.2548,-0.4248 -0.4248,-0.93456 -0.4248,-1.44432 0,-0.93456 0.5948,-2.03904 1.5293,-2.9736 1.4443,-1.44432 4.248,-3.22848 7.3066,-4.92768 3.0585,-1.6992 6.1171,-2.9736 8.1561,-3.3984 0.4248,-0.085 0.8496,-0.16992 1.2744,-0.16992 1.3594,0 2.4639,0.50976 3.0586,1.61424 0.2549,0.4248 0.3398,0.93456 0.3398,1.44432 0,0.93456 -0.5097,1.95408 -1.4443,2.9736"
     class="Note" />
  <path
     style="stroke-width:0.8496"
     id="path12112"
     d="m 213.3294,120.22952 c -1.52928,-2.80368 -4.75776,-4.33296 -8.66592,-4.33296 -2.88864,0 -6.03216,0.8496 -9.09072,2.46384 -5.60736,2.9736 -9.00576,7.98624 -9.00576,12.3192 0,1.18944 0.25488,2.37888 0.8496,3.48336 1.52928,2.80368 4.75776,4.248 8.66592,4.248 2.88864,0 6.03216,-0.76464 9.09072,-2.37888 5.60736,-2.9736 9.00576,-7.98624 9.00576,-12.3192 0,-1.18944 -0.25488,-2.37888 -0.8496,-3.48336"
     class="Note" />
  <path
     style="stroke-width:0.8496"
     id="path12114"
     d="m 343.3644,120.22952 c -1.52928,-2.80368 -4.75776,-4.33296 -8.66592,-4.33296 -2.88864,0 -6.03216,0.8496 -9.09072,2.46384 -5.60736,2.9736 -9.00576,7.98624 -9.00576,12.3192 0,1.18944 0.25488,2.37888 0.8496,3.48336 1.52928,2.80368 4.75776,4.248 8.66592,4.248 2.88864,0 6.03216,-0.76464 9.09072,-2.37888 5.60736,-2.9736 9.00576,-7.98624 9.00576,-12.3192 0,-1.18944 -0.25488,-2.37888 -0.8496,-3.48336"
     class="Note" />
  <path
     style="stroke-width:0.8496"
     id="path12116"
     d="m 420.9144,130.84952 c -1.52928,-2.80368 -4.75776,-4.33296 -8.66592,-4.33296 -2.88864,0 -6.03216,0.8496 -9.09072,2.46384 -5.60736,2.9736 -9.00576,7.98624 -9.00576,12.3192 0,1.18944 0.25488,2.37888 0.8496,3.48336 1.52928,2.80368 4.75776,4.248 8.66592,4.248 2.88864,0 6.03216,-0.76464 9.09072,-2.37888 5.60736,-2.9736 9.00576,-7.98624 9.00576,-12.3192 0,-1.18944 -0.25488,-2.37888 -0.8496,-3.48336"
     class="Note" />
  <path
     style="stroke-width:0.8496"
     id="path12118"
     d="m 498.4634,88.36952 c -1.52928,-2.80368 -4.75776,-4.33296 -8.66592,-4.33296 -2.88864,0 -6.03216,0.8496 -9.09072,2.46384 -5.60736,2.9736 -9.00576,7.98624 -9.00576,12.3192 0,1.18944 0.25488,2.37888 0.8496,3.48336 1.52928,2.80368 4.75776,4.248 8.66592,4.248 2.88864,0 6.03216,-0.76464 9.09072,-2.37888 5.60736,-2.9736 9.00576,-7.98624 9.00576,-12.3192 0,-1.18944 -0.25488,-2.37888 -0.8496,-3.48336 m -3.65328,5.77728 c -1.44432,1.44432 -4.33296,3.22848 -7.39152,4.92768 -3.05856,1.6992 -6.11712,2.9736 -8.15616,3.3984 -0.4248,0.085 -0.8496,0.16992 -1.2744,0.16992 -1.35936,0 -2.37888,-0.50976 -2.9736,-1.61424 -0.25488,-0.4248 -0.4248,-0.93456 -0.4248,-1.44432 0,-0.93456 0.59472,-2.03904 1.52928,-2.9736 1.44432,-1.44432 4.248,-3.22848 7.30656,-4.92768 3.05856,-1.6992 6.11712,-2.9736 8.15616,-3.3984 0.4248,-0.08496 0.8496,-0.16992 1.2744,-0.16992 1.35936,0 2.46384,0.50976 3.05856,1.61424 0.25488,0.4248 0.33984,0.93456 0.33984,1.44432 0,0.93456 -0.50976,1.95408 -1.44432,2.9736"
     class="Note" />
  <path
     style="stroke-width:0.8496"
     id="path12120"
     d="m 653.5634,141.46952 c -1.52928,-2.80368 -4.75776,-4.33296 -8.66592,-4.33296 -2.88864,0 -6.03216,0.8496 -9.09072,2.46384 -5.60736,2.9736 -9.00576,7.98624 -9.00576,12.3192 0,1.18944 0.25488,2.37888 0.8496,3.48336 1.52928,2.80368 4.75776,4.248 8.66592,4.248 2.88864,0 6.03216,-0.76464 9.09072,-2.37888 5.60736,-2.9736 9.00576,-7.98624 9.00576,-12.3192 0,-1.18944 -0.25488,-2.37888 -0.8496,-3.48336"
     class="Note" />
  <path
     style="stroke-width:0.8496"
     id="path12122"
     d="m 731.1124,194.56952 c -1.52928,-2.80368 -4.75776,-4.33296 -8.66592,-4.33296 -2.88864,0 -6.03216,0.8496 -9.09072,2.46384 -5.60736,2.9736 -9.00576,7.98624 -9.00576,12.3192 0,1.18944 0.25488,2.37888 0.8496,3.48336 1.52928,2.80368 4.75776,4.248 8.66592,4.248 2.88864,0 6.03216,-0.76464 9.09072,-2.37888 5.60736,-2.9736 9.00576,-7.98624 9.00576,-12.3192 0,-1.18944 -0.25488,-2.37888 -0.8496,-3.48336"
     class="Note" />
  <path
     style="stroke-width:0.8496"
     id="path12124"
     d="m 837.9724,205.18952 c -1.52928,-2.80368 -4.75776,-4.33296 -8.66592,-4.33296 -2.88864,0 -6.03216,0.8496 -9.09072,2.46384 -5.60736,2.9736 -9.00576,7.98624 -9.00576,12.3192 0,1.18944 0.25488,2.37888 0.8496,3.48336 1.52928,2.80368 4.75776,4.248 8.66592,4.248 2.88864,0 6.03216,-0.76464 9.09072,-2.37888 5.60736,-2.9736 9.00576,-7.98624 9.00576,-12.3192 0,-1.18944 -0.25488,-2.37888 -0.8496,-3.48336"
     class="Note" />
  <path
     style="stroke-width:0.8496"
     id="path12126"
     d="m 922.6724,141.46952 c -1.52928,-2.80368 -4.75776,-4.33296 -8.66592,-4.33296 -2.88864,0 -6.03216,0.8496 -9.09072,2.46384 -5.60736,2.9736 -9.00576,7.98624 -9.00576,12.3192 0,1.18944 0.25488,2.37888 0.8496,3.48336 1.52928,2.80368 4.75776,4.248 8.66592,4.248 2.88864,0 6.03216,-0.76464 9.09072,-2.37888 5.60736,-2.9736 9.00576,-7.98624 9.00576,-12.3192 0,-1.18944 -0.25488,-2.37888 -0.8496,-3.48336"
     class="Note" />
  <path
     style="stroke-width:0.8496"
     id="path12128"
     d="m 1007.3724,152.08952 c -1.5293,-2.80368 -4.7578,-4.33296 -8.66592,-4.33296 -2.88864,0 -6.03216,0.8496 -9.09072,2.46384 -5.60736,2.9736 -9.00576,7.98624 -9.00576,12.3192 0,1.18944 0.25488,2.37888 0.8496,3.48336 1.52928,2.80368 4.75776,4.248 8.66592,4.248 2.88864,0 6.03216,-0.76464 9.09072,-2.37888 5.60736,-2.9736 9.00576,-7.98624 9.00576,-12.3192 0,-1.18944 -0.2549,-2.37888 -0.8496,-3.48336"
     class="Note" />
  <path
     style="stroke-width:0.59472"
     id="path12130"
     d="m 1064.5837,132.91405 c -1.0705,-1.96258 -3.3305,-3.03307 -6.0662,-3.03307 -2.022,0 -4.2225,0.59472 -6.3635,1.72468 -3.9251,2.08152 -6.304,5.59037 -6.304,8.62344 0,0.83261 0.1784,1.66522 0.5947,2.43836 1.0705,1.96257 3.3305,2.9736 6.0662,2.9736 2.022,0 4.2225,-0.53525 6.3635,-1.66522 3.9251,-2.08152 6.304,-5.59037 6.304,-8.62344 0,-0.83261 -0.1784,-1.66522 -0.5947,-2.43835"
     class="Note" />
  <path
     style="stroke-width:0.59472"
     id="path12132"
     d="m 1043.3237,143.53405 c -1.0705,-1.96258 -3.3305,-3.03307 -6.0662,-3.03307 -2.022,0 -4.2225,0.59472 -6.3635,1.72468 -3.9251,2.08152 -6.304,5.59037 -6.304,8.62344 0,0.83261 0.1784,1.66522 0.5947,2.43836 1.0705,1.96257 3.3305,2.9736 6.0662,2.9736 2.022,0 4.2225,-0.53525 6.3635,-1.66522 3.9251,-2.08152 6.304,-5.59037 6.304,-8.62344 0,-0.83261 -0.1784,-1.66522 -0.5947,-2.43835"
     class="Note" />
  <path
     style="stroke-width:0.8496"
     id="path12134"
     d="m 1197.8424,88.36952 c -1.5293,-2.80368 -4.7578,-4.33296 -8.6659,-4.33296 -2.8887,0 -6.0322,0.8496 -9.0907,2.46384 -5.6074,2.9736 -9.0058,7.98624 -9.0058,12.3192 0,1.18944 0.2549,2.37888 0.8496,3.48336 1.5293,2.80368 4.7578,4.248 8.6659,4.248 2.8887,0 6.0322,-0.76464 9.0907,-2.37888 5.6074,-2.9736 9.0058,-7.98624 9.0058,-12.3192 0,-1.18944 -0.2549,-2.37888 -0.8496,-3.48336"
     class="Note" />
  <path
     style="stroke-width:0.59472"
     id="path12136"
     d="m 1093.2737,122.29405 c -1.0705,-1.96258 -3.3305,-3.03307 -6.0662,-3.03307 -2.022,0 -4.2225,0.59472 -6.3635,1.72468 -3.9251,2.08152 -6.304,5.59037 -6.304,8.62344 0,0.83261 0.1784,1.66522 0.5947,2.43836 1.0705,1.96257 3.3305,2.9736 6.0662,2.9736 2.022,0 4.2225,-0.53525 6.3635,-1.66522 3.9251,-2.08152 6.304,-5.59037 6.304,-8.62344 0,-0.83261 -0.1784,-1.66522 -0.5947,-2.43835"
     class="Note" />
  <path
     style="stroke-width:0.59472"
     id="path12138"
     d="m 1114.5337,111.67405 c -1.0705,-1.96258 -3.3305,-3.03307 -6.0662,-3.03307 -2.022,0 -4.2225,0.59472 -6.3635,1.72468 -3.9251,2.08152 -6.304,5.59037 -6.304,8.62344 0,0.83261 0.1784,1.66522 0.5947,2.43836 1.0705,1.96257 3.3305,2.9736 6.0662,2.9736 2.022,0 4.2225,-0.53525 6.3635,-1.66522 3.9251,-2.08152 6.304,-5.59037 6.304,-8.62344 0,-0.83261 -0.1784,-1.66522 -0.5947,-2.43835"
     class="Note" />
  <path
     style="stroke-width:0.59472"
     id="path12140"
     d="m 1135.7837,101.05405 c -1.0705,-1.962578 -3.3305,-3.033074 -6.0662,-3.033074 -2.022,0 -4.2225,0.59472 -6.3635,1.724688 -3.9251,2.081516 -6.304,5.590366 -6.304,8.623436 0,0.83261 0.1784,1.66522 0.5947,2.43836 1.0705,1.96257 3.3305,2.9736 6.0662,2.9736 2.022,0 4.2225,-0.53525 6.3635,-1.66522 3.9251,-2.08152 6.304,-5.59037 6.304,-8.62344 0,-0.83261 -0.1784,-1.66522 -0.5947,-2.43835"
     class="Note" />
  <path
     style="stroke-width:0.8496"
     id="path12142"
     d="m 1282.5424,98.98952 c -1.5293,-2.80368 -4.7578,-4.33296 -8.6659,-4.33296 -2.8887,0 -6.0322,0.8496 -9.0907,2.46384 -5.6074,2.9736 -9.0058,7.98624 -9.0058,12.3192 0,1.18944 0.2549,2.37888 0.8496,3.48336 1.5293,2.80368 4.7578,4.248 8.6659,4.248 2.8887,0 6.0322,-0.76464 9.0907,-2.37888 5.6074,-2.9736 9.0058,-7.98624 9.0058,-12.3192 0,-1.18944 -0.2549,-2.37888 -0.8496,-3.48336 m -3.6533,5.77728 c -1.4443,1.44432 -4.3329,3.22848 -7.3915,4.92768 -3.0586,1.6992 -6.1171,2.9736 -8.1562,3.3984 -0.4248,0.085 -0.8496,0.16992 -1.2744,0.16992 -1.3593,0 -2.3788,-0.50976 -2.9736,-1.61424 -0.2548,-0.4248 -0.4248,-0.93456 -0.4248,-1.44432 0,-0.93456 0.5948,-2.03904 1.5293,-2.9736 1.4443,-1.44432 4.248,-3.22848 7.3066,-4.92768 3.0585,-1.6992 6.1171,-2.9736 8.1561,-3.3984 0.4248,-0.08496 0.8496,-0.16992 1.2744,-0.16992 1.3594,0 2.4639,0.50976 3.0586,1.61424 0.2549,0.4248 0.3398,0.93456 0.3398,1.44432 0,0.93456 -0.5097,1.95408 -1.4443,2.9736"
     class="Note" />
  <path
     style="stroke-width:0.8496"
     id="path12144"
     d="m 1447.3724,152.08952 c -1.5293,-2.80368 -4.7578,-4.33296 -8.6659,-4.33296 -2.8887,0 -6.0322,0.8496 -9.0907,2.46384 -5.6074,2.9736 -9.0058,7.98624 -9.0058,12.3192 0,1.18944 0.2549,2.37888 0.8496,3.48336 1.5293,2.80368 4.7578,4.248 8.6659,4.248 2.8887,0 6.0322,-0.76464 9.0907,-2.37888 5.6074,-2.9736 9.0058,-7.98624 9.0058,-12.3192 0,-1.18944 -0.2549,-2.37888 -0.8496,-3.48336"
     class="Note" />
  <path
     style="stroke-width:0.8496"
     id="path12146"
     d="m 1531.6624,141.46952 c -1.5293,-2.80368 -4.7578,-4.33296 -8.6659,-4.33296 -2.8887,0 -6.0322,0.8496 -9.0907,2.46384 -5.6074,2.9736 -9.0058,7.98624 -9.0058,12.3192 0,1.18944 0.2549,2.37888 0.8496,3.48336 1.5293,2.80368 4.7578,4.248 8.6659,4.248 2.8887,0 6.0322,-0.76464 9.0907,-2.37888 5.6074,-2.9736 9.0058,-7.98624 9.0058,-12.3192 0,-1.18944 -0.2549,-2.37888 -0.8496,-3.48336"
     class="Note" />
  <path
     style="stroke-width:0.8496"
     id="path12148"
     d="m 1615.9524,141.46952 c -1.5293,-2.80368 -4.7578,-4.33296 -8.6659,-4.33296 -2.8887,0 -6.0322,0.8496 -9.0907,2.46384 -5.6074,2.9736 -9.0058,7.98624 -9.0058,12.3192 0,1.18944 0.2549,2.37888 0.8496,3.48336 1.5293,2.80368 4.7578,4.248 8.6659,4.248 2.8887,0 6.0322,-0.76464 9.0907,-2.37888 5.6074,-2.9736 9.0058,-7.98624 9.0058,-12.3192 0,-1.18944 -0.2549,-2.37888 -0.8496,-3.48336"
     class="Note" />
  <path
     style="stroke-width:0.8496"
     id="path12150"
     d="m 1700.2424,130.84952 c -1.5293,-2.80368 -4.7578,-4.33296 -8.6659,-4.33296 -2.8887,0 -6.0322,0.8496 -9.0907,2.46384 -5.6074,2.9736 -9.0058,7.98624 -9.0058,12.3192 0,1.18944 0.2549,2.37888 0.8496,3.48336 1.5293,2.80368 4.7578,4.248 8.6659,4.248 2.8887,0 6.0322,-0.76464 9.0907,-2.37888 5.6074,-2.9736 9.0058,-7.98624 9.0058,-12.3192 0,-1.18944 -0.2549,-2.37888 -0.8496,-3.48336"
     class="Note" />
  <path
     style="stroke-width:0.8496"
     id="path12152"
     d="m 1784.5324,130.84952 c -1.5293,-2.80368 -4.7578,-4.33296 -8.6659,-4.33296 -2.8887,0 -6.0322,0.8496 -9.0907,2.46384 -5.6074,2.9736 -9.0058,7.98624 -9.0058,12.3192 0,1.18944 0.2549,2.37888 0.8496,3.48336 1.5293,2.80368 4.7578,4.248 8.6659,4.248 2.8887,0 6.0322,-0.76464 9.0907,-2.37888 5.6074,-2.9736 9.0058,-7.98624 9.0058,-12.3192 0,-1.18944 -0.2549,-2.37888 -0.8496,-3.48336"
     class="Note" />
  <path
     style="stroke-width:0.8496"
     id="path12154"
     d="m 1868.8224,120.22952 c -1.5293,-2.80368 -4.7578,-4.33296 -8.6659,-4.33296 -2.8887,0 -6.0322,0.8496 -9.0907,2.46384 -5.6074,2.9736 -9.0058,7.98624 -9.0058,12.3192 0,1.18944 0.2549,2.37888 0.8496,3.48336 1.5293,2.80368 4.7578,4.248 8.6659,4.248 2.8887,0 6.0322,-0.76464 9.0907,-2.37888 5.6074,-2.9736 9.0058,-7.98624 9.0058,-12.3192 0,-1.18944 -0.2549,-2.37888 -0.8496,-3.48336"
     class="Note" />
  <path
     style="stroke-width:0.8496"
     id="path12156"
     d="m 1984.6324,120.22952 c -1.5293,-2.80368 -4.7578,-4.33296 -8.6659,-4.33296 -2.8887,0 -6.0322,0.8496 -9.0907,2.46384 -5.6074,2.9736 -9.0058,7.98624 -9.0058,12.3192 0,1.18944 0.2549,2.37888 0.8496,3.48336 1.5293,2.80368 4.7578,4.248 8.6659,4.248 2.8887,0 6.0322,-0.76464 9.0907,-2.37888 5.6074,-2.9736 9.0058,-7.98624 9.0058,-12.3192 0,-1.18944 -0.2549,-2.37888 -0.8496,-3.48336 m -3.6533,5.77728 c -1.4443,1.44432 -4.3329,3.22848 -7.3915,4.92768 -3.0586,1.6992 -6.1171,2.9736 -8.1562,3.3984 -0.4248,0.085 -0.8496,0.16992 -1.2744,0.16992 -1.3593,0 -2.3788,-0.50976 -2.9736,-1.61424 -0.2548,-0.4248 -0.4248,-0.93456 -0.4248,-1.44432 0,-0.93456 0.5948,-2.03904 1.5293,-2.9736 1.4443,-1.44432 4.248,-3.22848 7.3066,-4.92768 3.0585,-1.6992 6.1171,-2.9736 8.1561,-3.3984 0.4248,-0.085 0.8496,-0.16992 1.2744,-0.16992 1.3594,0 2.4639,0.50976 3.0586,1.61424 0.2549,0.4248 0.3398,0.93456 0.3398,1.44432 0,0.93456 -0.5097,1.95408 -1.4443,2.9736"
     class="Note" />
  <path
     style="stroke-width:0.8496"
     id="path12158"
     d="m 2176.1324,120.22952 c -1.5293,-2.80368 -4.7578,-4.33296 -8.6659,-4.33296 -2.8887,0 -6.0322,0.8496 -9.0907,2.46384 -5.6074,2.9736 -9.0058,7.98624 -9.0058,12.3192 0,1.18944 0.2549,2.37888 0.8496,3.48336 1.5293,2.80368 4.7578,4.248 8.6659,4.248 2.8887,0 6.0322,-0.76464 9.0907,-2.37888 5.6074,-2.9736 9.0058,-7.98624 9.0058,-12.3192 0,-1.18944 -0.2549,-2.37888 -0.8496,-3.48336 m -3.6533,5.77728 c -1.4443,1.44432 -4.3329,3.22848 -7.3915,4.92768 -3.0586,1.6992 -6.1171,2.9736 -8.1562,3.3984 -0.4248,0.085 -0.8496,0.16992 -1.2744,0.16992 -1.3593,0 -2.3788,-0.50976 -2.9736,-1.61424 -0.2548,-0.4248 -0.4248,-0.93456 -0.4248,-1.44432 0,-0.93456 0.5948,-2.03904 1.5293,-2.9736 1.4443,-1.44432 4.248,-3.22848 7.3066,-4.92768 3.0585,-1.6992 6.1171,-2.9736 8.1561,-3.3984 0.4248,-0.085 0.8496,-0.16992 1.2744,-0.16992 1.3594,0 2.4639,0.50976 3.0586,1.61424 0.2549,0.4248 0.3398,0.93456 0.3398,1.44432 0,0.93456 -0.5097,1.95408 -1.4443,2.9736"
     class="Note" />
  <path
     style="stroke-width:0.8496"
     id="path12166"
     d="m 24.2136,129.74504 h -6.11712 c -0.59472,0 -1.10448,0.50976 -1.10448,1.10448 v 77.3136 c 0,0.59472 0.50976,1.10448 1.10448,1.10448 h 6.11712 c 0.59472,0 1.10448,-0.50976 1.10448,-1.10448 v -77.3136 c 0,-0.59472 -0.50976,-1.10448 -1.10448,-1.10448 m 30.5856,43.24464 h -1.2744 c -1.95408,0 -3.3984,0.16992 -6.71184,2.20896 0,0 -1.86912,-3.73824 -4.6728,-5.69232 2.80368,-1.95408 4.6728,-5.69232 4.6728,-5.69232 3.31344,2.03904 4.75776,2.20896 6.71184,2.20896 h 1.2744 c 10.36512,0 15.46272,-9.60048 15.46272,-18.77616 0,-11.8944 -8.75088,-18.60624 -19.03104,-18.60624 -9.3456,0 -13.25376,4.6728 -13.25376,4.6728 -1.52928,1.86912 -2.20896,3.90816 -2.20896,5.77728 0,1.52928 0.4248,2.9736 1.2744,4.248 1.18944,1.6992 3.56832,2.63376 5.77728,2.63376 1.52928,0 2.9736,-0.4248 3.99312,-1.2744 1.44432,-1.2744 2.37888,-3.14352 2.37888,-5.18256 0,-1.18944 -0.33984,-2.37888 -0.93456,-3.48336 -1.35936,-2.46384 -3.90816,-2.80368 -5.26752,-2.80368 -0.50976,0 -0.93456,0.085 -0.93456,0.085 1.95408,-1.35936 4.58784,-2.124 7.2216,-2.124 2.37888,0 4.6728,0.59472 6.28704,1.78416 2.9736,2.20896 4.07808,6.88176 4.07808,12.99888 0,6.54192 -0.16992,16.05744 -7.6464,16.05744 -7.47648,0 -9.17568,-8.9208 -9.17568,-8.9208 0,0 0,-1.18944 -1.18944,-1.18944 -1.18944,0 -1.2744,1.18944 -1.2744,1.18944 0,0 -0.67968,4.33296 -2.9736,9.60048 -1.35936,3.14352 -3.3984,4.58784 -4.84272,5.18256 v -37.04256 c 0,-0.59472 -0.4248,-1.10448 -1.01952,-1.10448 -0.59472,0 -1.10448,0.50976 -1.10448,1.10448 v 77.3136 c 0,0.59472 0.50976,1.10448 1.10448,1.10448 0.59472,0 1.01952,-0.50976 1.01952,-1.10448 V 171.1206 c 1.44432,0.59472 3.48336,2.03904 4.84272,5.18256 2.29392,5.26752 2.9736,9.68544 2.9736,9.68544 0,0 0.08496,1.10448 1.2744,1.10448 1.18944,0 1.18944,-1.10448 1.18944,-1.10448 0,0 1.6992,-9.00576 9.17568,-9.00576 7.47648,0 7.6464,9.51552 7.6464,16.05744 0,6.11712 -1.10448,10.78992 -4.07808,12.99888 -1.61424,1.18944 -3.90816,1.78416 -6.28704,1.78416 -2.63376,0 -5.26752,-0.76464 -7.2216,-2.124 0,0 0.4248,0.085 0.93456,0.085 1.35936,0 3.90816,-0.33984 5.26752,-2.80368 0.59472,-1.10448 0.93456,-2.29392 0.93456,-3.48336 0,-2.03904 -0.93456,-3.90816 -2.37888,-5.18256 -1.01952,-0.8496 -2.46384,-1.2744 -3.99312,-1.2744 -2.20896,0 -4.58784,0.93456 -5.77728,2.63376 -0.8496,1.2744 -1.2744,2.71872 -1.2744,4.248 0,1.86912 0.67968,3.90816 2.20896,5.77728 0,0 3.90816,4.6728 13.25376,4.6728 10.28016,0 19.03104,-6.71184 19.03104,-18.60624 0,-9.17568 -5.0976,-18.77616 -15.46272,-18.77616"
     class="Clef" />
  <path
     style="stroke-width:0.8496"
     id="path12176"
     d="m 132.53368,160.58552 c 0.50976,-0.085 0.93456,-0.67968 0.93456,-1.18944 v -5.01264 c 0,-0.67968 -0.50976,-1.18944 -1.18944,-1.18944 h -0.16992 l -2.80368,0.59472 v -12.65904 h -2.37888 v 13.1688 l -7.56144,1.52928 V 143.8484 H 116.986 v 12.48912 l -3.31344,0.67968 c -0.50976,0.085 -0.93456,0.67968 -0.93456,1.18944 v 0.16992 4.92768 -0.16992 c 0,0.67968 0.50976,1.18944 1.18944,1.18944 h 0.25488 l 2.80368,-0.59472 v 14.0184 l -3.31344,0.67968 c -0.50976,0.085 -0.93456,0.67968 -0.93456,1.18944 v 4.92768 c 0,0.67968 0.50976,1.18944 1.18944,1.18944 h 0.25488 l 2.80368,-0.59472 V 197.798 h 2.37888 v -13.1688 l 7.56144,-1.52928 v 11.97936 h 2.37888 v -12.48912 l 3.22848,-0.59472 c 0.50976,-0.085 0.93456,-0.67968 0.93456,-1.18944 v -5.01264 c 0,-0.67968 -0.50976,-1.18944 -1.18944,-1.18944 h -0.16992 l -2.80368,0.59472 v -14.0184 l 3.22848,-0.59472 m -13.1688,16.73712 v -14.10336 l 7.56144,-1.52928 v 14.0184 l -7.56144,1.61424"
     class="KeySig" />
  <path
     style="stroke-width:0.8496"
     id="path12178"
     d="m 111.29368,203.06552 c 0.50976,-0.085 0.93456,-0.67968 0.93456,-1.18944 v -5.01264 c 0,-0.67968 -0.50976,-1.18944 -1.18944,-1.18944 h -0.16992 l -2.80368,0.59472 v -12.65904 h -2.37888 v 13.1688 l -7.56144,1.52928 V 186.3284 H 95.746 v 12.48912 l -3.31344,0.67968 c -0.50976,0.085 -0.93456,0.67968 -0.93456,1.18944 v 0.16992 4.92768 -0.16992 c 0,0.67968 0.50976,1.18944 1.18944,1.18944 h 0.25488 l 2.80368,-0.59472 v 14.0184 l -3.31344,0.67968 c -0.50976,0.085 -0.93456,0.67968 -0.93456,1.18944 v 4.92768 c 0,0.67968 0.50976,1.18944 1.18944,1.18944 h 0.25488 L 95.746,227.61896 V 240.278 h 2.37888 v -13.1688 l 7.56144,-1.52928 v 11.97936 h 2.37888 v -12.48912 l 3.22848,-0.59472 c 0.50976,-0.085 0.93456,-0.67968 0.93456,-1.18944 v -5.01264 c 0,-0.67968 -0.50976,-1.18944 -1.18944,-1.18944 h -0.16992 l -2.80368,0.59472 v -14.0184 l 3.22848,-0.59472 m -13.1688,16.73712 v -14.10336 l 7.56144,-1.52928 v 14.0184 l -7.56144,1.61424"
     class="KeySig" />
  <path
     style="stroke-width:0.8496"
     id="path12186"
     d="m 329.0512,98.11512 v 8.15616 h 2.71872 v -8.15616 c 3.3984,-0.76464 5.9472,-4.33296 5.9472,-8.41104 0,-4.6728 -3.22848,-8.58096 -7.30656,-8.58096 -4.07808,0 -7.30656,3.90816 -7.30656,8.58096 0,4.07808 2.5488,7.6464 5.9472,8.41104 m 1.35936,-15.88752 c 1.44432,0 3.22848,3.22848 3.22848,7.2216 0,3.99312 -1.78416,7.30656 -3.22848,7.30656 -1.44432,0 -3.22848,-3.31344 -3.22848,-7.30656 0,-3.99312 1.78416,-7.2216 3.22848,-7.2216"
     class="Articulation" />
  <path
     style="stroke-width:0.8496"
     id="path12212"
     d="M 211.3346,42.22976 C 211.16468,41.97488 210.65492,41.72 210.31508,41.72 h -1.18944 c -0.4248,0 -0.93456,0.33984 -1.10448,0.76464 l -7.6464,21.40992 -7.6464,-21.40992 C 192.55844,42.05984 192.04868,41.72 191.62388,41.72 h -1.18944 c -0.67968,0 -1.18944,0.50976 -1.18944,1.18944 0,0.08496 0.085,0.33984 0.085,0.4248 l 9.94032,26.7624 c 0.16992,0.4248 0.67968,0.76464 1.10448,0.76464 0.4248,0 0.93456,-0.33984 1.10448,-0.76464 l 9.94032,-26.7624 c 0,-0.08496 0.085,-0.33984 0.085,-0.4248 0,-0.16992 -0.085,-0.50976 -0.16992,-0.67968"
     class="Articulation" />
  <path
     style="stroke-width:0.8496"
     id="path12214"
     d="m 317.037,34.19128 h 2.37888 V 17.02936 h 22.00464 v 17.16192 h 2.37888 V 10.48744 c 0,-0.67968 -0.50976,-1.18944 -1.18944,-1.18944 h -24.38352 c -0.67968,0 -1.18944,1.18944 -1.18944,1.18944 v 23.70384"
     class="Articulation" />
  <path
     style="stroke-width:0.8496"
     id="path12216"
     d="m 824.6672,127.04512 v 8.15616 h 2.71872 v -8.15616 c 3.3984,-0.76464 5.9472,-4.33296 5.9472,-8.41104 0,-4.6728 -3.22848,-8.58096 -7.30656,-8.58096 -4.07808,0 -7.30656,3.90816 -7.30656,8.58096 0,4.07808 2.5488,7.6464 5.9472,8.41104 m 1.35936,-15.88752 c 1.44432,0 3.22848,3.22848 3.22848,7.2216 0,3.99312 -1.78416,7.30656 -3.22848,7.30656 -1.44432,0 -3.22848,-3.31344 -3.22848,-7.30656 0,-3.99312 1.78416,-7.2216 3.22848,-7.2216"
     class="Articulation" />
  <path
     style="stroke-width:0.8496"
     id="path12218"
     d="m 1082.1072,95.47512 v 8.15616 h 2.7187 v -8.15616 c 3.3984,-0.76464 5.9472,-4.33296 5.9472,-8.41104 0,-4.6728 -3.2285,-8.58096 -7.3065,-8.58096 -4.0781,0 -7.3066,3.90816 -7.3066,8.58096 0,4.07808 2.5488,7.6464 5.9472,8.41104 m 1.3594,-15.88752 c 1.4443,0 3.2284,3.22848 3.2284,7.2216 0,3.99312 -1.7841,7.30656 -3.2284,7.30656 -1.4444,0 -3.2285,-3.31344 -3.2285,-7.30656 0,-3.99312 1.7841,-7.2216 3.2285,-7.2216"
     class="Articulation" />
  <path
     style="stroke-width:0.8496"
     id="path12220"
     d="M 1445.3796,1.27976 C 1445.2097,1.02488 1444.6999,0.77 1444.3601,0.77 h -1.1895 c -0.4248,0 -0.9345,0.33984 -1.1044,0.76464 l -7.6464,21.40992 -7.6464,-21.40992 c -0.17,-0.4248 -0.6797,-0.76464 -1.1045,-0.76464 h -1.1895 c -0.6796,0 -1.1894,0.50976 -1.1894,1.18944 0,0.08496 0.085,0.33984 0.085,0.4248 l 9.9403,26.7624 c 0.1699,0.4248 0.6797,0.76464 1.1045,0.76464 0.4248,0 0.9345,-0.33984 1.1044,-0.76464 l 9.9404,-26.7624 c 0,-0.08496 0.085,-0.33984 0.085,-0.4248 0,-0.16992 -0.085,-0.50976 -0.1699,-0.67968"
     class="Articulation" />
  <path
     style="stroke-width:0.8496"
     id="path12222"
     d="m 1505.34,28.39128 h 2.3789 V 11.22936 h 22.0046 v 17.16192 h 2.3789 V 4.68744 c 0,-0.67968 -0.5098,-1.18944 -1.1894,-1.18944 h -24.3836 c -0.6796,0 -1.1894,1.18944 -1.1894,1.18944 v 23.70384"
     class="Articulation" />
  <path
     style="stroke-width:0.8496"
     id="path12224"
     d="M 1698.2496,0.50976 C 1698.0797,0.25488 1697.5699,0 1697.2301,0 h -1.1895 c -0.4248,0 -0.9345,0.33984 -1.1044,0.76464 l -7.6464,21.40992 -7.6464,-21.40992 C 1679.4734,0.33984 1678.9637,0 1678.5389,0 h -1.1895 c -0.6796,0 -1.1894,0.50976 -1.1894,1.18944 0,0.08496 0.085,0.33984 0.085,0.4248 l 9.9403,26.7624 c 0.1699,0.4248 0.6797,0.76464 1.1045,0.76464 0.4248,0 0.9345,-0.33984 1.1044,-0.76464 l 9.9404,-26.7624 c 0,-0.08496 0.085,-0.33984 0.085,-0.4248 0,-0.16992 -0.085,-0.50976 -0.1699,-0.67968"
     class="Articulation" />
  <path
     style="stroke-width:0.8496"
     id="path12226"
     d="m 1842.5,34.19128 h 2.3789 V 17.02936 h 22.0046 v 17.16192 h 2.3789 V 10.48744 c 0,-0.67968 -0.5098,-1.18944 -1.1894,-1.18944 h -24.3836 c -0.6796,0 -1.1894,1.18944 -1.1894,1.18944 v 23.70384"
     class="Articulation" />
  <path
     id="path12264"
     d="m 1024.59,192.31128 22.9,-5.72 v 7.67 l -22.9,5.71 v -7.66"
     fill-rule="evenodd"
     class="Beam" />
  <path
     id="path12266"
     d="m 1024.59,181.16128 22.9,-5.72 v 7.66 l -22.9,5.72 v -7.66"
     fill-rule="evenodd"
     class="Beam" />
  <path
     id="path12268"
     d="m 1074.54,170.75128 44.15,-22.06 v 8.31 l -44.15,22.06 v -8.31"
     fill-rule="evenodd"
     class="Beam" />
  <path
     id="path12270"
     d="m 1074.54,159.60128 44.15,-22.06 v 8.31 l -44.15,22.06 v -8.31"
     fill-rule="evenodd"
     class="Beam" />
  <path
     style="stroke-width:0.59472"
     id="path12272"
     d="m 2044.7315,130.2528 c -0.06,-0.17842 -0.5947,-2.25994 -0.5947,-2.37888 -0.06,-0.23789 -0.4163,-0.4163 -0.7137,-0.4163 -0.4163,0 -0.7731,0.35683 -0.7731,0.77313 v 9.75341 3.68726 c 0,0.29736 0.2379,0.53525 0.4758,0.6542 2.4978,0.77313 7.6719,4.04409 11.5375,10.64548 1.0705,1.84364 2.7952,4.34146 2.7952,9.33711 0,4.28198 -0.6542,8.80185 -1.7247,12.96489 -0.1784,0.6542 -0.3568,1.24892 0.2974,1.4868 0.6542,0.23789 0.8921,-0.23788 1.13,-0.8326 2.141,-5.23354 2.6762,-10.70496 2.6762,-14.39223 v -1.12997 c -0.2974,-7.67188 -4.6983,-13.32172 -4.6983,-13.32172 0.1784,0 -5.4714,-7.31506 -7.0771,-9.81288 -2.2005,-3.38991 -3.271,-6.77981 -3.3305,-7.0177"
     class="Hook" />
  <path
     id="path12288"
     d="m 1304.64,103.10128 c -1.16,1.39 -4.29,2.44 -7.42,2.51 v 1.46 h 3 c 1.97,0.04 2.17,0.24 2.1,2.15 v 13.63 c 0,1.73 0,1.8 -0.2,2.11 -0.27,0.34 -0.92,0.47 -2.82,0.47 h -2.21 v 1.6 h 13.46 v -1.6 h -1.87 c -1.9,0 -2.55,-0.13 -2.82,-0.47 -0.24,-0.31 -0.24,-0.34 -0.24,-2.11 v -14.04 c 0,-1.91 0.07,-3.5 0.24,-5.71 h -1.22"
     class="Fingering" />
  <path
     id="path12290"
     d="m 1435.85,108.82128 c -1.16,1.39 -4.29,2.44 -7.42,2.51 v 1.46 h 3 c 1.97,0.04 2.17,0.24 2.1,2.15 v 13.63 c 0,1.73 0,1.8 -0.2,2.11 -0.27,0.34 -0.92,0.47 -2.82,0.47 h -2.21 v 1.6 h 13.46 v -1.6 h -1.87 c -1.9,0 -2.55,-0.13 -2.82,-0.47 -0.24,-0.31 -0.24,-0.34 -0.24,-2.11 v -14.04 c 0,-1.91 0.07,-3.5 0.24,-5.71 h -1.22"
     class="Fingering" />
  <path
     id="path12292"
     d="m 1602.61,103.66128 c -1.16,1.39 -4.29,2.44 -7.42,2.51 v 1.46 h 3 c 1.97,0.04 2.17,0.24 2.1,2.15 v 13.63 c 0,1.73 0,1.8 -0.2,2.11 -0.27,0.34 -0.92,0.47 -2.82,0.47 h -2.21 v 1.6 h 13.46 v -1.6 h -1.87 c -1.9,0 -2.55,-0.13 -2.82,-0.47 -0.24,-0.31 -0.24,-0.34 -0.24,-2.11 v -14.04 c 0,-1.91 0.07,-3.5 0.24,-5.71 h -1.22"
     class="Fingering" />
  <path
     id="path12294"
     d="m 1772.97,97.63128 c -1.15,1.39 -4.28,2.45 -7.41,2.51 v 1.47 h 2.99 c 1.97,0.03 2.18,0.23 2.11,2.14 v 13.63 c 0,1.74 0,1.8 -0.2,2.11 -0.28,0.34 -0.92,0.48 -2.83,0.48 h -2.21 v 1.59 h 13.47 v -1.59 h -1.87 c -1.91,0 -2.55,-0.14 -2.82,-0.48 -0.24,-0.31 -0.24,-0.34 -0.24,-2.11 v -14.04 c 0,-1.9 0.07,-3.5 0.24,-5.71 h -1.23"
     class="Fingering" />
  <path
     id="path12328"
     d="m 564.515,109.80128 c -1.156,1.39 -4.284,2.45 -7.412,2.52 v 1.46 h 2.992 c 1.972,0.03 2.176,0.24 2.108,2.14 v 13.63 c 0,1.74 0,1.81 -0.204,2.11 -0.272,0.34 -0.918,0.48 -2.822,0.48 h -2.21 v 1.6 h 13.464 v -1.6 h -1.87 c -1.904,0 -2.55,-0.14 -2.822,-0.48 -0.238,-0.3 -0.238,-0.34 -0.238,-2.11 v -14.04 c 0,-1.9 0.068,-3.5 0.238,-5.71 h -1.224"
     class="Fingering" />
  <path
     id="path12330"
     d="m 1294.02,72.43128 c -1.16,1.39 -4.29,2.45 -7.42,2.51 v 1.47 h 3 c 1.97,0.03 2.17,0.23 2.1,2.14 v 13.63 c 0,1.74 0,1.8 -0.2,2.11 -0.27,0.34 -0.92,0.48 -2.82,0.48 h -2.21 v 1.59 h 13.46 v -1.59 h -1.87 c -1.9,0 -2.55,-0.14 -2.82,-0.48 -0.24,-0.31 -0.24,-0.34 -0.24,-2.11 v -14.04 c 0,-1.9 0.07,-3.5 0.24,-5.71 h -1.22"
     class="Fingering" />
  <path
     id="path12332"
     d="m 1441.48,90.50128 h -1.49 l -0.34,1.74 c -0.44,2.21 -0.72,2.41 -2.82,2.41 h -7.62 c 2.35,-2.45 3.13,-3.16 5.3,-4.86 3.1,-2.38 4.42,-3.57 5.21,-4.59 1.08,-1.5 1.63,-2.99 1.63,-4.66 0,-3.87 -3.2,-6.63 -7.65,-6.63 -4.32,0 -7.62,2.76 -7.62,6.39 0,2.15 1.09,3.61 2.69,3.61 1.26,0 2.11,-0.85 2.11,-2.08 0,-0.85 -0.48,-1.63 -1.19,-1.93 -1.26,-0.51 -1.33,-0.58 -1.33,-1.02 0,-0.51 0.34,-1.3 0.82,-1.87 0.85,-1.06 2.24,-1.64 3.84,-1.64 2.82,0 4.49,1.74 4.49,4.59 0,2.52 -1.19,4.8 -4.02,7.79 -2.51,2.65 -4.08,4.32 -4.65,4.96 -1.23,1.43 -1.84,2.21 -3.34,4.19 v 0.95 h 15.34 l 0.64,-7.35"
     class="Fingering" />
  <path
     id="path12334"
     d="m 1602.31,55.75128 c -1.16,1.4 -4.29,2.45 -7.41,2.52 v 1.46 h 2.99 c 1.97,0.03 2.17,0.24 2.11,2.14 v 13.64 c 0,1.73 0,1.8 -0.21,2.1 -0.27,0.34 -0.92,0.48 -2.82,0.48 h -2.21 v 1.6 h 13.46 v -1.6 h -1.87 c -1.9,0 -2.55,-0.14 -2.82,-0.48 -0.24,-0.3 -0.24,-0.34 -0.24,-2.1 v -14.05 c 0,-1.9 0.07,-3.5 0.24,-5.71 h -1.22"
     class="Fingering" />
  <path
     id="path12336"
     d="m 1774.65,51.41128 -11.56,16.08 v 1.91 h 9.55 v 1.76 c 0,1.74 0,1.81 -0.2,2.11 -0.27,0.38 -0.92,0.48 -2.86,0.48 h -0.37 v 1.6 h 9.93 v -1.6 H 1779 c -1.94,0 -2.58,-0.1 -2.86,-0.48 -0.2,-0.3 -0.2,-0.34 -0.2,-2.11 v -1.76 h 4.11 v -1.91 h -4.11 v -9.28 c 0,-4.25 0,-4.35 0.17,-6.8 h -1.46 m -2.01,16.08 h -7.48 l 7.48,-10.3 v 10.3"
     class="Fingering" />
  <path
     id="path12440"
     d="m 208.352,98.07128 h -1.496 l -0.34,1.74 c -0.442,2.21 -0.714,2.41 -2.822,2.41 h -7.616 c 2.346,-2.45 3.128,-3.16 5.304,-4.86 3.094,-2.38 4.42,-3.57 5.202,-4.59 1.088,-1.5 1.632,-2.99 1.632,-4.66 0,-3.88 -3.196,-6.63 -7.65,-6.63 -4.318,0 -7.616,2.75 -7.616,6.39 0,2.14 1.088,3.61 2.686,3.61 1.258,0 2.108,-0.85 2.108,-2.08 0,-0.85 -0.476,-1.63 -1.19,-1.94 -1.258,-0.51 -1.326,-0.57 -1.326,-1.02 0,-0.51 0.34,-1.29 0.816,-1.87 0.85,-1.05 2.244,-1.63 3.842,-1.63 2.822,0 4.488,1.74 4.488,4.59 0,2.52 -1.19,4.8 -4.012,7.79 -2.516,2.65 -4.08,4.32 -4.658,4.96 -1.224,1.43 -1.836,2.21 -3.332,4.18 v 0.96 h 15.334 l 0.646,-7.35"
     class="Fingering" />
  <path
     id="path12442"
     d="m 338.658,62.61128 h -1.496 l -0.34,1.73 c -0.442,2.21 -0.714,2.42 -2.822,2.42 h -7.616 c 2.346,-2.45 3.128,-3.16 5.304,-4.86 3.094,-2.38 4.42,-3.57 5.202,-4.59 1.088,-1.5 1.632,-3 1.632,-4.66 0,-3.88 -3.196,-6.63 -7.65,-6.63 -4.318,0 -7.616,2.75 -7.616,6.39 0,2.14 1.088,3.6 2.686,3.6 1.258,0 2.108,-0.85 2.108,-2.07 0,-0.85 -0.476,-1.63 -1.19,-1.94 -1.258,-0.51 -1.326,-0.58 -1.326,-1.02 0,-0.51 0.34,-1.29 0.816,-1.87 0.85,-1.05 2.244,-1.63 3.842,-1.63 2.822,0 4.488,1.73 4.488,4.59 0,2.52 -1.19,4.79 -4.012,7.79 -2.516,2.65 -4.08,4.31 -4.658,4.96 -1.224,1.43 -1.836,2.21 -3.332,4.18 v 0.95 h 15.334 l 0.646,-7.34"
     class="Fingering" />
  <path
     id="path12444"
     d="m 409.957,92.07128 c -1.156,1.4 -4.284,2.45 -7.412,2.52 v 1.46 h 2.992 c 1.972,0.03 2.176,0.24 2.108,2.14 v 13.64 c 0,1.73 0,1.8 -0.204,2.1 -0.272,0.34 -0.918,0.48 -2.822,0.48 h -2.21 v 1.6 h 13.464 v -1.6 h -1.87 c -1.904,0 -2.55,-0.14 -2.822,-0.48 -0.238,-0.3 -0.238,-0.34 -0.238,-2.1 v -14.05 c 0,-1.9 0.068,-3.5 0.238,-5.71 h -1.224"
     class="Fingering" />
  <path
     id="path12446"
     d="m 487.443,60.77128 c 3.094,-1.13 4.522,-2.86 4.522,-5.58 0,-3.57 -2.72,-5.85 -6.936,-5.85 -3.978,0 -7.004,2.35 -7.004,5.44 0,1.4 0.918,2.38 2.244,2.38 1.19,0 2.006,-0.81 2.006,-2.04 0,-0.75 -0.272,-1.19 -1.054,-1.73 -0.34,-0.24 -0.442,-0.38 -0.442,-0.61 0,-0.96 1.972,-1.98 3.91,-1.98 2.448,0 3.74,1.53 3.74,4.42 0,3.17 -1.292,4.83 -3.706,4.83 -0.306,0 -0.884,-0.03 -1.394,-0.07 -0.272,-0.03 -0.544,-0.03 -0.748,-0.03 -0.714,0 -1.088,0.31 -1.088,0.92 0,0.58 0.34,0.85 1.088,0.85 0.204,0 0.476,0 0.782,-0.04 0.68,-0.03 1.224,-0.03 1.598,-0.03 2.516,0 3.876,1.8 3.876,5.17 0,3.53 -1.7,5.51 -4.76,5.51 -2.142,0 -4.454,-1.16 -4.454,-2.21 0,-0.31 0.068,-0.38 0.714,-0.75 0.952,-0.58 1.326,-1.16 1.326,-2.01 0,-1.22 -0.918,-2.14 -2.142,-2.14 -1.462,0 -2.414,1.19 -2.414,2.99 0,3.3 3.026,5.58 7.378,5.58 4.93,0 8.126,-2.72 8.126,-6.9 0,-3.2 -1.632,-5.14 -5.168,-6.12"
     class="Fingering" />
  <path
     id="path12448"
     d="m 647.58,113.27128 h -1.5 l -0.34,1.73 c -0.44,2.21 -0.71,2.41 -2.82,2.41 h -7.616 c 2.346,-2.44 3.128,-3.16 5.306,-4.86 3.09,-2.38 4.42,-3.57 5.2,-4.59 1.09,-1.49 1.63,-2.99 1.63,-4.66 0,-3.87 -3.19,-6.63 -7.648,-6.63 -4.318,0 -7.616,2.76 -7.616,6.4 0,2.14 1.088,3.6 2.686,3.6 1.258,0 2.108,-0.85 2.108,-2.07 0,-0.85 -0.476,-1.64 -1.19,-1.94 -1.258,-0.51 -1.326,-0.58 -1.326,-1.02 0,-0.51 0.34,-1.29 0.816,-1.87 0.85,-1.06 2.244,-1.63 3.842,-1.63 2.818,0 4.488,1.73 4.488,4.59 0,2.51 -1.19,4.79 -4.012,7.78 -2.516,2.65 -4.08,4.32 -4.658,4.97 -1.224,1.42 -1.836,2.21 -3.332,4.18 v 0.95 h 15.332 l 0.65,-7.34"
     class="Fingering" />
  <path
     id="path12450"
     d="m 718.98,113.77128 c -1.16,1.39 -4.29,2.44 -7.42,2.51 v 1.46 h 3 c 1.97,0.04 2.17,0.24 2.1,2.15 v 13.63 c 0,1.73 0,1.8 -0.2,2.11 -0.27,0.34 -0.92,0.47 -2.82,0.47 h -2.21 v 1.6 h 13.46 v -1.6 h -1.87 c -1.9,0 -2.55,-0.13 -2.82,-0.47 -0.24,-0.31 -0.24,-0.34 -0.24,-2.11 v -14.04 c 0,-1.91 0.07,-3.5 0.24,-5.71 h -1.22"
     class="Fingering" />
  <path
     id="path12452"
     d="m 916.69,110.24128 h -1.5 l -0.34,1.74 c -0.44,2.21 -0.71,2.41 -2.82,2.41 h -7.62 c 2.35,-2.45 3.13,-3.16 5.31,-4.86 3.09,-2.38 4.42,-3.57 5.2,-4.59 1.09,-1.5 1.63,-2.99 1.63,-4.66 0,-3.88 -3.19,-6.63 -7.65,-6.63 -4.32,0 -7.61,2.75 -7.61,6.39 0,2.14 1.08,3.61 2.68,3.61 1.26,0 2.11,-0.85 2.11,-2.08 0,-0.85 -0.48,-1.63 -1.19,-1.94 -1.26,-0.51 -1.33,-0.57 -1.33,-1.02 0,-0.51 0.34,-1.29 0.82,-1.87 0.85,-1.05 2.24,-1.63 3.84,-1.63 2.82,0 4.49,1.74 4.49,4.59 0,2.52 -1.19,4.8 -4.01,7.79 -2.52,2.65 -4.08,4.32 -4.66,4.96 -1.22,1.43 -1.84,2.21 -3.33,4.18 v 0.96 h 15.33 l 0.65,-7.35"
     class="Fingering" />
  <path
     id="path12454"
     d="m 995.24,113.34128 c -1.16,1.39 -4.29,2.45 -7.41,2.52 v 1.46 h 2.99 c 1.97,0.03 2.17,0.24 2.11,2.14 v 13.63 c 0,1.74 0,1.81 -0.21,2.11 -0.27,0.34 -0.92,0.48 -2.82,0.48 h -2.21 v 1.6 h 13.46 v -1.6 h -1.87 c -1.9,0 -2.55,-0.14 -2.82,-0.48 -0.24,-0.3 -0.24,-0.34 -0.24,-2.11 v -14.04 c 0,-1.9 0.07,-3.5 0.24,-5.71 h -1.22"
     class="Fingering" />
  <path
     id="path12456"
     d="m 1058.09,106.34128 c 3.09,-1.12 4.52,-2.86 4.52,-5.58 0,-3.57 -2.72,-5.85 -6.94,-5.85 -3.97,0 -7,2.35 -7,5.44 0,1.4 0.92,2.38 2.24,2.38 1.19,0 2.01,-0.81 2.01,-2.04 0,-0.74 -0.27,-1.19 -1.05,-1.73 -0.34,-0.24 -0.45,-0.37 -0.45,-0.61 0,-0.95 1.98,-1.97 3.91,-1.97 2.45,0 3.74,1.53 3.74,4.42 0,3.16 -1.29,4.82 -3.7,4.82 -0.31,0 -0.89,-0.03 -1.4,-0.06 -0.27,-0.04 -0.54,-0.04 -0.74,-0.04 -0.72,0 -1.09,0.31 -1.09,0.92 0,0.58 0.34,0.85 1.09,0.85 0.2,0 0.47,0 0.78,-0.03 0.68,-0.04 1.22,-0.04 1.6,-0.04 2.51,0 3.87,1.8 3.87,5.17 0,3.54 -1.7,5.51 -4.76,5.51 -2.14,0 -4.45,-1.16 -4.45,-2.21 0,-0.31 0.07,-0.38 0.71,-0.75 0.95,-0.58 1.33,-1.16 1.33,-2.01 0,-1.22 -0.92,-2.14 -2.14,-2.14 -1.47,0 -2.42,1.19 -2.42,2.99 0,3.3 3.03,5.58 7.38,5.58 4.93,0 8.13,-2.72 8.13,-6.9 0,-3.2 -1.64,-5.14 -5.17,-6.12"
     class="Fingering" />
  <path
     id="path12458"
     d="m 1042.24,122.63128 h -1.5 l -0.34,1.73 c -0.44,2.21 -0.71,2.41 -2.82,2.41 h -7.62 c 2.35,-2.44 3.13,-3.16 5.31,-4.86 3.09,-2.38 4.42,-3.57 5.2,-4.59 1.09,-1.49 1.63,-2.99 1.63,-4.66 0,-3.87 -3.19,-6.63 -7.65,-6.63 -4.32,0 -7.61,2.76 -7.61,6.4 0,2.14 1.08,3.6 2.68,3.6 1.26,0 2.11,-0.85 2.11,-2.07 0,-0.85 -0.48,-1.64 -1.19,-1.94 -1.26,-0.51 -1.33,-0.58 -1.33,-1.02 0,-0.51 0.34,-1.29 0.82,-1.87 0.85,-1.06 2.24,-1.63 3.84,-1.63 2.82,0 4.49,1.73 4.49,4.59 0,2.51 -1.19,4.79 -4.01,7.78 -2.52,2.65 -4.08,4.32 -4.66,4.97 -1.22,1.42 -1.84,2.21 -3.33,4.18 v 0.95 h 15.33 l 0.65,-7.34"
     class="Fingering" />
  <path
     id="path12460"
     d="m 1187.46,60.54128 c 3.09,-1.12 4.52,-2.85 4.52,-5.57 0,-3.57 -2.72,-5.85 -6.94,-5.85 -3.97,0 -7,2.35 -7,5.44 0,1.39 0.92,2.38 2.24,2.38 1.19,0 2.01,-0.82 2.01,-2.04 0,-0.75 -0.27,-1.19 -1.05,-1.73 -0.34,-0.24 -0.45,-0.38 -0.45,-0.62 0,-0.95 1.98,-1.97 3.91,-1.97 2.45,0 3.74,1.53 3.74,4.42 0,3.16 -1.29,4.83 -3.7,4.83 -0.31,0 -0.89,-0.03 -1.4,-0.07 -0.27,-0.03 -0.54,-0.03 -0.74,-0.03 -0.72,0 -1.09,0.3 -1.09,0.92 0,0.57 0.34,0.85 1.09,0.85 0.2,0 0.47,0 0.78,-0.04 0.68,-0.03 1.22,-0.03 1.6,-0.03 2.51,0 3.87,1.8 3.87,5.17 0,3.53 -1.7,5.5 -4.76,5.5 -2.14,0 -4.45,-1.15 -4.45,-2.21 0,-0.3 0.07,-0.37 0.71,-0.74 0.95,-0.58 1.33,-1.16 1.33,-2.01 0,-1.22 -0.92,-2.14 -2.14,-2.14 -1.47,0 -2.42,1.19 -2.42,2.99 0,3.3 3.03,5.58 7.38,5.58 4.93,0 8.13,-2.72 8.13,-6.91 0,-3.19 -1.64,-5.13 -5.17,-6.12"
     class="Fingering" />
  <path
     id="path12462"
     d="m 1106.28,74.17128 c -1.15,1.4 -4.28,2.45 -7.41,2.52 v 1.46 h 2.99 c 1.97,0.04 2.18,0.24 2.11,2.14 v 13.64 c 0,1.73 0,1.8 -0.2,2.11 -0.28,0.34 -0.92,0.47 -2.83,0.47 h -2.21 v 1.6 h 13.47 v -1.6 h -1.87 c -1.91,0 -2.55,-0.13 -2.82,-0.47 -0.24,-0.31 -0.24,-0.34 -0.24,-2.11 v -14.04 c 0,-1.91 0.07,-3.51 0.24,-5.72 h -1.23"
     class="Fingering" />
  <path
     id="path12464"
     d="m 1134.7,80.15128 h -1.5 l -0.34,1.73 c -0.44,2.21 -0.71,2.41 -2.82,2.41 h -7.62 c 2.35,-2.44 3.13,-3.16 5.31,-4.86 3.09,-2.38 4.42,-3.57 5.2,-4.59 1.09,-1.49 1.63,-2.99 1.63,-4.66 0,-3.87 -3.19,-6.63 -7.65,-6.63 -4.32,0 -7.61,2.76 -7.61,6.4 0,2.14 1.08,3.6 2.68,3.6 1.26,0 2.11,-0.85 2.11,-2.07 0,-0.85 -0.48,-1.64 -1.19,-1.94 -1.26,-0.51 -1.33,-0.58 -1.33,-1.02 0,-0.51 0.34,-1.29 0.82,-1.87 0.85,-1.06 2.24,-1.63 3.84,-1.63 2.82,0 4.49,1.73 4.49,4.59 0,2.51 -1.19,4.79 -4.01,7.78 -2.52,2.65 -4.08,4.32 -4.66,4.97 -1.22,1.42 -1.84,2.21 -3.33,4.18 v 0.95 h 15.33 l 0.65,-7.34"
     class="Fingering" />
  <path
     id="path12466"
     d="m 1272.43,63.21128 c 3.09,-1.12 4.52,-2.86 4.52,-5.58 0,-3.57 -2.72,-5.84 -6.94,-5.84 -3.97,0 -7,2.34 -7,5.44 0,1.39 0.92,2.38 2.24,2.38 1.19,0 2.01,-0.82 2.01,-2.04 0,-0.75 -0.27,-1.19 -1.05,-1.74 -0.34,-0.24 -0.45,-0.37 -0.45,-0.61 0,-0.95 1.98,-1.97 3.91,-1.97 2.45,0 3.74,1.53 3.74,4.42 0,3.16 -1.29,4.83 -3.7,4.83 -0.31,0 -0.89,-0.04 -1.4,-0.07 -0.27,-0.04 -0.54,-0.04 -0.74,-0.04 -0.72,0 -1.09,0.31 -1.09,0.92 0,0.58 0.34,0.85 1.09,0.85 0.2,0 0.47,0 0.78,-0.03 0.68,-0.04 1.22,-0.04 1.6,-0.04 2.51,0 3.87,1.81 3.87,5.17 0,3.54 -1.7,5.51 -4.76,5.51 -2.14,0 -4.45,-1.16 -4.45,-2.21 0,-0.31 0.07,-0.37 0.71,-0.75 0.95,-0.58 1.33,-1.15 1.33,-2 0,-1.23 -0.92,-2.15 -2.14,-2.15 -1.47,0 -2.42,1.19 -2.42,3 0,3.29 3.03,5.57 7.38,5.57 4.93,0 8.13,-2.72 8.13,-6.9 0,-3.2 -1.64,-5.13 -5.17,-6.12"
     class="Fingering" />
  <path
     id="path12468"
     d="m 1441.78,57.12128 h -1.5 l -0.34,1.74 c -0.44,2.21 -0.71,2.41 -2.82,2.41 h -7.61 c 2.34,-2.45 3.12,-3.16 5.3,-4.86 3.09,-2.38 4.42,-3.57 5.2,-4.59 1.09,-1.5 1.63,-2.99 1.63,-4.66 0,-3.88 -3.19,-6.63 -7.65,-6.63 -4.31,0 -7.61,2.75 -7.61,6.39 0,2.14 1.09,3.61 2.68,3.61 1.26,0 2.11,-0.85 2.11,-2.08 0,-0.85 -0.47,-1.63 -1.19,-1.94 -1.26,-0.51 -1.32,-0.57 -1.32,-1.02 0,-0.51 0.34,-1.29 0.81,-1.87 0.85,-1.05 2.25,-1.63 3.84,-1.63 2.83,0 4.49,1.74 4.49,4.59 0,2.52 -1.19,4.8 -4.01,7.79 -2.52,2.65 -4.08,4.32 -4.66,4.96 -1.22,1.43 -1.83,2.21 -3.33,4.18 v 0.96 h 15.33 l 0.65,-7.35"
     class="Fingering" />
  <path
     id="path12470"
     d="m 1519.34,39.01128 -11.56,16.08 v 1.9 h 9.56 v 1.77 c 0,1.74 0,1.8 -0.21,2.11 -0.27,0.37 -0.92,0.48 -2.85,0.48 h -0.38 v 1.59 h 9.93 v -1.59 h -0.14 c -1.93,0 -2.58,-0.11 -2.85,-0.48 -0.21,-0.31 -0.21,-0.34 -0.21,-2.11 v -1.77 h 4.12 v -1.9 h -4.12 v -9.28 c 0,-4.25 0,-4.35 0.17,-6.8 h -1.46 m -2,16.08 h -7.48 l 7.48,-10.3 v 10.3"
     class="Fingering" />
  <path
     id="path12472"
     d="m 1602.54,36.32128 c 3.09,-1.12 4.52,-2.85 4.52,-5.57 0,-3.57 -2.72,-5.85 -6.93,-5.85 -3.98,0 -7.01,2.35 -7.01,5.44 0,1.39 0.92,2.38 2.25,2.38 1.19,0 2,-0.82 2,-2.04 0,-0.75 -0.27,-1.19 -1.05,-1.73 -0.34,-0.24 -0.44,-0.38 -0.44,-0.62 0,-0.95 1.97,-1.97 3.91,-1.97 2.44,0 3.74,1.53 3.74,4.42 0,3.16 -1.3,4.83 -3.71,4.83 -0.31,0 -0.88,-0.03 -1.39,-0.07 -0.28,-0.03 -0.55,-0.03 -0.75,-0.03 -0.72,0 -1.09,0.3 -1.09,0.92 0,0.57 0.34,0.85 1.09,0.85 0.2,0 0.47,0 0.78,-0.04 0.68,-0.03 1.22,-0.03 1.6,-0.03 2.51,0 3.87,1.8 3.87,5.17 0,3.53 -1.7,5.5 -4.76,5.5 -2.14,0 -4.45,-1.15 -4.45,-2.21 0,-0.3 0.07,-0.37 0.71,-0.74 0.96,-0.58 1.33,-1.16 1.33,-2.01 0,-1.22 -0.92,-2.14 -2.14,-2.14 -1.46,0 -2.42,1.19 -2.42,2.99 0,3.3 3.03,5.58 7.38,5.58 4.93,0 8.13,-2.72 8.13,-6.91 0,-3.19 -1.63,-5.13 -5.17,-6.12"
     class="Fingering" />
  <path
     id="path12474"
     d="m 1688.79,51.18128 c 3.09,-1.12 4.52,-2.85 4.52,-5.57 0,-3.57 -2.72,-5.85 -6.94,-5.85 -3.97,0 -7,2.35 -7,5.44 0,1.39 0.92,2.38 2.24,2.38 1.19,0 2.01,-0.82 2.01,-2.04 0,-0.75 -0.27,-1.19 -1.05,-1.73 -0.34,-0.24 -0.45,-0.38 -0.45,-0.62 0,-0.95 1.98,-1.97 3.91,-1.97 2.45,0 3.74,1.53 3.74,4.42 0,3.16 -1.29,4.83 -3.7,4.83 -0.31,0 -0.89,-0.03 -1.4,-0.07 -0.27,-0.03 -0.54,-0.03 -0.74,-0.03 -0.72,0 -1.09,0.3 -1.09,0.92 0,0.57 0.34,0.85 1.09,0.85 0.2,0 0.47,0 0.78,-0.04 0.68,-0.03 1.22,-0.03 1.6,-0.03 2.51,0 3.87,1.8 3.87,5.17 0,3.53 -1.7,5.5 -4.76,5.5 -2.14,0 -4.45,-1.15 -4.45,-2.21 0,-0.3 0.07,-0.37 0.71,-0.74 0.95,-0.58 1.33,-1.16 1.33,-2.01 0,-1.22 -0.92,-2.14 -2.14,-2.14 -1.47,0 -2.42,1.19 -2.42,2.99 0,3.3 3.03,5.58 7.38,5.58 4.93,0 8.13,-2.72 8.13,-6.91 0,-3.19 -1.64,-5.13 -5.17,-6.12"
     class="Fingering" />
  <path
     id="path12476"
     d="m 1774.3,29.14128 c 3.1,-1.12 4.52,-2.86 4.52,-5.58 0,-3.57 -2.72,-5.84 -6.93,-5.84 -3.98,0 -7.01,2.34 -7.01,5.44 0,1.39 0.92,2.38 2.25,2.38 1.19,0 2,-0.82 2,-2.04 0,-0.75 -0.27,-1.19 -1.05,-1.74 -0.34,-0.24 -0.44,-0.37 -0.44,-0.61 0,-0.95 1.97,-1.97 3.91,-1.97 2.45,0 3.74,1.53 3.74,4.42 0,3.16 -1.29,4.83 -3.71,4.83 -0.3,0 -0.88,-0.04 -1.39,-0.07 -0.27,-0.04 -0.55,-0.04 -0.75,-0.04 -0.71,0 -1.09,0.31 -1.09,0.92 0,0.58 0.34,0.85 1.09,0.85 0.2,0 0.48,0 0.78,-0.03 0.68,-0.04 1.23,-0.04 1.6,-0.04 2.52,0 3.88,1.81 3.88,5.17 0,3.54 -1.7,5.51 -4.76,5.51 -2.15,0 -4.46,-1.16 -4.46,-2.21 0,-0.31 0.07,-0.37 0.72,-0.75 0.95,-0.58 1.32,-1.15 1.32,-2 0,-1.23 -0.92,-2.15 -2.14,-2.15 -1.46,0 -2.41,1.19 -2.41,3 0,3.29 3.02,5.57 7.37,5.57 4.93,0 8.13,-2.72 8.13,-6.9 0,-3.2 -1.63,-5.13 -5.17,-6.12"
     class="Fingering" />
  <polyline
     transform="translate(-360,-2077.3187)"
     id="polyline12546"
     points="1340.61,2338.24 1340.61,2363.73"
     stroke-linejoin="bevel"
     stroke-linecap="square"
     stroke-width="2.34"
     stroke="#000000"
     fill="none"
     class="PedalSegment" />
  <polyline
     transform="translate(-360,-2077.3187)"
     id="polyline12548"
     points="1340.61,2363.73 1422.73,2363.73"
     stroke-linejoin="bevel"
     stroke-linecap="square"
     stroke-width="2.34"
     stroke="#000000"
     fill="none"
     class="PedalSegment" />
  <polyline
     transform="translate(-360,-2077.3187)"
     id="polyline12550"
     points="1422.73,2363.73 1422.73,2338.24"
     stroke-linejoin="bevel"
     stroke-linecap="square"
     stroke-width="2.34"
     stroke="#000000"
     fill="none"
     class="PedalSegment" />
  <polyline
     transform="translate(-360,-2077.3187)"
     id="polyline12552"
     points="1436.29,2338.24 1436.29,2363.73"
     stroke-linejoin="bevel"
     stroke-linecap="square"
     stroke-width="2.34"
     stroke="#000000"
     fill="none"
     class="PedalSegment" />
  <polyline
     transform="translate(-360,-2077.3187)"
     id="polyline12554"
     points="1436.29,2363.73 1554.24,2363.73"
     stroke-linejoin="bevel"
     stroke-linecap="square"
     stroke-width="2.34"
     stroke="#000000"
     fill="none"
     class="PedalSegment" />
  <polyline
     transform="translate(-360,-2077.3187)"
     id="polyline12556"
     points="1554.24,2363.73 1554.24,2338.24"
     stroke-linejoin="bevel"
     stroke-linecap="square"
     stroke-width="2.34"
     stroke="#000000"
     fill="none"
     class="PedalSegment" />
  <path
     style="stroke-width:0.8496"
     id="path12558"
     d="m 354.828,201.44987 c 0,2.34611 1.90189,4.248 4.248,4.248 2.34611,0 4.248,-1.90189 4.248,-4.248 0,-2.34611 -1.90189,-4.248 -4.248,-4.248 -2.34611,0 -4.248,1.90189 -4.248,4.248"
     class="NoteDot" />
  <path
     style="stroke-width:0.8496"
     id="path12560"
     d="m 2198.21,180.20987 c 0,2.34611 1.9019,4.248 4.248,4.248 2.3461,0 4.248,-1.90189 4.248,-4.248 0,-2.34611 -1.9019,-4.248 -4.248,-4.248 -2.3461,0 -4.248,1.90189 -4.248,4.248"
     class="NoteDot" />
  <path
     style="stroke-width:0.8496"
     id="path12584"
     d="m 2187.59,116.48987 c 0,2.34611 1.9019,4.248 4.248,4.248 2.3461,0 4.248,-1.90189 4.248,-4.248 0,-2.34611 -1.9019,-4.248 -4.248,-4.248 -2.3461,0 -4.248,1.90189 -4.248,4.248"
     class="NoteDot" />
</svg>
