<?xml version="1.0" encoding="UTF-8" standalone="no"?>
<svg
   xmlns:dc="http://purl.org/dc/elements/1.1/"
   xmlns:cc="http://creativecommons.org/ns#"
   xmlns:rdf="http://www.w3.org/1999/02/22-rdf-syntax-ns#"
   xmlns:svg="http://www.w3.org/2000/svg"
   xmlns="http://www.w3.org/2000/svg"
   xmlns:sodipodi="http://sodipodi.sourceforge.net/DTD/sodipodi-0.dtd"
   xmlns:inkscape="http://www.inkscape.org/namespaces/inkscape"
   inkscape:version="1.0 (4035a4f, 2020-05-01)"
   sodipodi:docname="snippet6.svg"
   id="svg21084"
   version="1.2"
   viewBox="0 0 2340 347.33279"
   height="347.33279"
   width="2340">
  <metadata
     id="metadata21090">
    <rdf:RDF>
      <cc:Work
         rdf:about="">
        <dc:format>image/svg+xml</dc:format>
        <dc:type
           rdf:resource="http://purl.org/dc/dcmitype/StillImage" />
        <dc:title>Batches2Partita3</dc:title>
      </cc:Work>
    </rdf:RDF>
  </metadata>
  <defs
     id="defs21088" />
  <sodipodi:namedview
     inkscape:current-layer="svg21084"
     inkscape:window-maximized="0"
     inkscape:window-y="23"
     inkscape:window-x="0"
     inkscape:cy="912.21934"
     inkscape:cx="1457.763"
     inkscape:zoom="0.20368705"
     showgrid="false"
     id="namedview21086"
     inkscape:window-height="845"
     inkscape:window-width="1037"
     inkscape:pageshadow="2"
     inkscape:pageopacity="0"
     guidetolerance="10"
     gridtolerance="10"
     objecttolerance="10"
     borderopacity="1"
     bordercolor="#666666"
     pagecolor="#ffffff" />
  <title
     id="title19846">Batches2Partita3</title>
  <desc
     id="desc19848">Generated by MuseScore 3.6.2</desc>
  <polyline
     transform="translate(-360,-1066.2767)"
     id="polyline19860"
     points="360,1232.05 2700,1232.05"
     stroke-linejoin="bevel"
     stroke-width="2.34"
     stroke="#000000"
     fill="none"
     class="StaffLines" />
  <polyline
     transform="translate(-360,-1066.2767)"
     id="polyline19862"
     points="360,1253.29 2700,1253.29"
     stroke-linejoin="bevel"
     stroke-width="2.34"
     stroke="#000000"
     fill="none"
     class="StaffLines" />
  <polyline
     transform="translate(-360,-1066.2767)"
     id="polyline19864"
     points="360,1274.53 2700,1274.53"
     stroke-linejoin="bevel"
     stroke-width="2.34"
     stroke="#000000"
     fill="none"
     class="StaffLines" />
  <polyline
     transform="translate(-360,-1066.2767)"
     id="polyline19866"
     points="360,1295.77 2700,1295.77"
     stroke-linejoin="bevel"
     stroke-width="2.34"
     stroke="#000000"
     fill="none"
     class="StaffLines" />
  <polyline
     transform="translate(-360,-1066.2767)"
     id="polyline19868"
     points="360,1317.01 2700,1317.01"
     stroke-linejoin="bevel"
     stroke-width="2.34"
     stroke="#000000"
     fill="none"
     class="StaffLines" />
  <path
     id="path19896"
     d="m 354.368,59.12328 c 12.12,-19.3 39.356,-21.54 54.471,-4.48 -14.627,-11.13 -41.863,-8.89 -54.471,4.48"
     fill-rule="evenodd"
     stroke-linejoin="round"
     stroke-linecap="round"
     stroke-width="1.49"
     stroke="#000000"
     class="SlurSegment" />
  <path
     id="path19898"
     d="m 918,104.20328 c 33.08,-33.14 97.39,-31.37 128.6,3.54 -31.38,-28.97 -95.68,-30.74 -128.6,-3.54"
     fill-rule="evenodd"
     stroke-linejoin="round"
     stroke-linecap="round"
     stroke-width="1.49"
     stroke="#000000"
     class="SlurSegment" />
  <path
     id="path19900"
     d="m 1271.16,124.13328 c 51.14,-78.23 217.47,-87.79 277.23,-15.93 -59.42,-65.92 -225.75,-56.36 -277.23,15.93"
     fill-rule="evenodd"
     stroke-linejoin="round"
     stroke-linecap="round"
     stroke-width="1.49"
     stroke="#000000"
     class="SlurSegment" />
  <path
     id="path19902"
     d="m 1796.93,81.19328 c 24.59,-26.5 70.57,-23.84 91.95,5.31 -21.72,-23.22 -67.7,-25.87 -91.95,-5.31"
     fill-rule="evenodd"
     stroke-linejoin="round"
     stroke-linecap="round"
     stroke-width="1.49"
     stroke="#000000"
     class="SlurSegment" />
  <path
     id="path19944"
     d="m 1115.39,199.96328 c 12.32,-12.34 49.31,-12.34 61.64,0 -12.33,-6.39 -49.32,-6.39 -61.64,0"
     fill-rule="evenodd"
     stroke-linejoin="round"
     stroke-linecap="round"
     stroke-width="1.49"
     stroke="#000000"
     class="TieSegment" />
  <polyline
     transform="translate(-360,-1066.2767)"
     id="polyline19954"
     points="1100.79,1230.88 1100.79,1318.17"
     stroke-linejoin="bevel"
     stroke-width="11.68"
     stroke="#000000"
     class="BarLine" />
  <polyline
     transform="translate(-360,-1066.2767)"
     id="polyline19956"
     points="1115.66,1230.88 1115.66,1318.17"
     stroke-linejoin="bevel"
     stroke-width="3.82"
     stroke="#000000"
     class="BarLine" />
  <path
     style="stroke-width:0.8496"
     id="path19958"
     d="m 774.94584,197.63328 c 0,-2.46384 -1.95408,-4.50288 -4.41792,-4.50288 -2.46384,0 -4.41792,2.03904 -4.41792,4.50288 0,2.46384 1.95408,4.50288 4.41792,4.50288 2.46384,0 4.41792,-2.03904 4.41792,-4.50288"
     class="BarLine" />
  <path
     style="stroke-width:0.8496"
     id="path19960"
     d="m 774.94584,218.87328 c 0,-2.46384 -1.95408,-4.50288 -4.41792,-4.50288 -2.46384,0 -4.41792,2.03904 -4.41792,4.50288 0,2.46384 1.95408,4.50288 4.41792,4.50288 2.46384,0 4.41792,-2.03904 4.41792,-4.50288"
     class="BarLine" />
  <polyline
     transform="translate(-360,-1066.2767)"
     id="polyline19962"
     points="1955.97,1230.88 1955.97,1318.17"
     stroke-linejoin="bevel"
     stroke-width="3.82"
     stroke="#000000"
     class="BarLine" />
  <polyline
     transform="translate(-360,-1066.2767)"
     id="polyline19964"
     points="2500.21,1230.88 2500.21,1318.17"
     stroke-linejoin="bevel"
     stroke-width="3.82"
     stroke="#000000"
     class="BarLine" />
  <path
     style="stroke-width:0.8496"
     id="path19988"
     d="m 182.73268,188.62752 c 0.50976,-0.085 0.93456,-0.67968 0.93456,-1.18944 v -5.01264 c 0,-0.67968 -0.50976,-1.18944 -1.18944,-1.18944 h -0.16992 l -2.80368,0.59472 v -12.65904 h -2.37888 v 13.1688 l -7.56144,1.52928 V 171.8904 H 167.185 v 12.48912 l -3.31344,0.67968 c -0.50976,0.085 -0.93456,0.67968 -0.93456,1.18944 v 0.16992 4.92768 -0.16992 c 0,0.67968 0.50976,1.18944 1.18944,1.18944 h 0.25488 l 2.80368,-0.59472 v 14.0184 l -3.31344,0.67968 c -0.50976,0.085 -0.93456,0.67968 -0.93456,1.18944 v 4.92768 c 0,0.67968 0.50976,1.18944 1.18944,1.18944 h 0.25488 l 2.80368,-0.59472 V 225.84 h 2.37888 v -13.1688 l 7.56144,-1.52928 v 11.97936 h 2.37888 v -12.48912 l 3.22848,-0.59472 c 0.50976,-0.085 0.93456,-0.67968 0.93456,-1.18944 v -5.01264 c 0,-0.67968 -0.50976,-1.18944 -1.18944,-1.18944 h -0.16992 l -2.80368,0.59472 v -14.0184 l 3.22848,-0.59472 m -13.1688,16.73712 v -14.10336 l 7.56144,-1.52928 v 14.0184 l -7.56144,1.61424"
     class="Accidental" />
  <path
     style="stroke-width:0.8496"
     id="path19990"
     d="m 821.01568,231.10752 c 0.50976,-0.085 0.93456,-0.67968 0.93456,-1.18944 v -5.01264 c 0,-0.67968 -0.50976,-1.18944 -1.18944,-1.18944 h -0.16992 l -2.80368,0.59472 v -12.65904 h -2.37888 v 13.1688 l -7.56144,1.52928 V 214.3704 H 805.468 v 12.48912 l -3.31344,0.67968 c -0.50976,0.085 -0.93456,0.67968 -0.93456,1.18944 v 0.16992 4.92768 -0.16992 c 0,0.67968 0.50976,1.18944 1.18944,1.18944 h 0.25488 l 2.80368,-0.59472 v 14.0184 l -3.31344,0.67968 c -0.50976,0.085 -0.93456,0.67968 -0.93456,1.18944 v 4.92768 c 0,0.67968 0.50976,1.18944 1.18944,1.18944 h 0.25488 l 2.80368,-0.59472 V 268.32 h 2.37888 v -13.1688 l 7.56144,-1.52928 v 11.97936 h 2.37888 v -12.48912 l 3.22848,-0.59472 c 0.50976,-0.085 0.93456,-0.67968 0.93456,-1.18944 v -5.01264 c 0,-0.67968 -0.50976,-1.18944 -1.18944,-1.18944 h -0.16992 l -2.80368,0.59472 v -14.0184 l 3.22848,-0.59472 m -13.1688,16.73712 v -14.10336 l 7.56144,-1.52928 v 14.0184 l -7.56144,1.61424"
     class="Accidental" />
  <path
     style="stroke-width:0.8496"
     id="path19992"
     d="m 1078.7434,224.5656 c -0.17,-0.16992 -0.4248,-0.25488 -0.6797,-0.25488 -0.085,0 -0.2549,0.085 -0.3399,0.085 l -10.7049,2.9736 v -14.868 h -2.3789 v 42.0552 c 0,0.67968 0.5098,1.10448 1.1894,1.10448 h 0.3399 l 10.7049,-2.9736 v 14.868 h 2.294 v -42.0552 c 0,-0.33984 -0.17,-0.76464 -0.4248,-0.93456 m -1.8692,21.07008 -9.8553,2.71872 V 234.421 l 9.8553,-2.80368 v 14.0184"
     class="Accidental" />
  <path
     style="stroke-width:0.8496"
     id="path19994"
     d="m 1948.6634,192.7056 c -0.17,-0.16992 -0.4248,-0.25488 -0.6797,-0.25488 -0.085,0 -0.2549,0.085 -0.3399,0.085 l -10.7049,2.9736 v -14.868 h -2.3789 v 42.0552 c 0,0.67968 0.5098,1.10448 1.1894,1.10448 h 0.3399 l 10.7049,-2.9736 v 14.868 h 2.294 v -42.0552 c 0,-0.33984 -0.17,-0.76464 -0.4248,-0.93456 m -1.8692,21.07008 -9.8553,2.71872 V 202.561 l 9.8553,-2.80368 v 14.0184"
     class="Accidental" />
  <path
     style="stroke-width:0.8496"
     id="path20000"
     d="m 437.23668,188.62752 c 0.50976,-0.085 0.93456,-0.67968 0.93456,-1.18944 v -5.01264 c 0,-0.67968 -0.50976,-1.18944 -1.18944,-1.18944 h -0.16992 l -2.80368,0.59472 v -12.65904 h -2.37888 v 13.1688 l -7.56144,1.52928 V 171.8904 H 421.689 v 12.48912 l -3.31344,0.67968 c -0.50976,0.085 -0.93456,0.67968 -0.93456,1.18944 v 0.16992 4.92768 -0.16992 c 0,0.67968 0.50976,1.18944 1.18944,1.18944 h 0.25488 l 2.80368,-0.59472 v 14.0184 l -3.31344,0.67968 c -0.50976,0.085 -0.93456,0.67968 -0.93456,1.18944 v 4.92768 c 0,0.67968 0.50976,1.18944 1.18944,1.18944 h 0.25488 l 2.80368,-0.59472 V 225.84 h 2.37888 v -13.1688 l 7.56144,-1.52928 v 11.97936 h 2.37888 v -12.48912 l 3.22848,-0.59472 c 0.50976,-0.085 0.93456,-0.67968 0.93456,-1.18944 v -5.01264 c 0,-0.67968 -0.50976,-1.18944 -1.18944,-1.18944 h -0.16992 l -2.80368,0.59472 v -14.0184 l 3.22848,-0.59472 m -13.1688,16.73712 v -14.10336 l 7.56144,-1.52928 v 14.0184 l -7.56144,1.61424"
     class="Accidental" />
  <path
     style="stroke-width:0.8496"
     id="path20002"
     d="m 885.83336,182.0856 c -0.16992,-0.16992 -0.4248,-0.25488 -0.67968,-0.25488 -0.085,0 -0.25488,0.085 -0.33984,0.085 l -10.70496,2.9736 v -14.868 H 871.73 v 42.0552 c 0,0.67968 0.50976,1.10448 1.18944,1.10448 h 0.33984 l 10.70496,-2.9736 v 14.868 h 2.29392 v -42.0552 c 0,-0.33984 -0.16992,-0.76464 -0.4248,-0.93456 m -1.86912,21.07008 -9.85536,2.71872 V 191.941 l 9.85536,-2.80368 v 14.0184"
     class="Accidental" />
  <path
     style="stroke-width:0.8496"
     id="path20004"
     d="m 950.13336,192.7056 c -0.16992,-0.16992 -0.4248,-0.25488 -0.67968,-0.25488 -0.085,0 -0.25488,0.085 -0.33984,0.085 l -10.70496,2.9736 v -14.868 H 936.03 v 42.0552 c 0,0.67968 0.50976,1.10448 1.18944,1.10448 h 0.33984 l 10.70496,-2.9736 v 14.868 h 2.29392 v -42.0552 c 0,-0.33984 -0.16992,-0.76464 -0.4248,-0.93456 m -1.86912,21.07008 -9.85536,2.71872 V 202.561 l 9.85536,-2.80368 v 14.0184"
     class="Accidental" />
  <polyline
     transform="translate(-360,-1066.2767)"
     id="polyline20056"
     points="1846.97,1210.81 1889.44,1210.81"
     stroke-linejoin="bevel"
     stroke-width="3.4"
     stroke="#000000"
     class="LedgerLine" />
  <polyline
     transform="translate(-360,-1066.2767)"
     id="polyline20058"
     points="2534.66,1338.25 2577.14,1338.25"
     stroke-linejoin="bevel"
     stroke-width="3.4"
     stroke="#000000"
     class="LedgerLine" />
  <polyline
     transform="translate(-360,-1066.2767)"
     id="polyline20098"
     points="2543.27,1341.1 2543.27,1412.59"
     stroke-linejoin="bevel"
     stroke-width="2.34"
     stroke="#000000"
     class="Stem" />
  <polyline
     transform="translate(-360,-1066.2767)"
     id="polyline20108"
     points="562.544,1288 562.544,1348.87"
     stroke-linejoin="bevel"
     stroke-width="2.34"
     stroke="#000000"
     class="Stem" />
  <polyline
     transform="translate(-360,-1066.2767)"
     id="polyline20110"
     points="1984.53,1319.86 1984.53,1372.76"
     stroke-linejoin="bevel"
     stroke-width="2.34"
     stroke="#000000"
     class="Stem" />
  <polyline
     transform="translate(-360,-1066.2767)"
     id="polyline20112"
     points="2131.66,1330.48 2131.66,1380.73"
     stroke-linejoin="bevel"
     stroke-width="2.34"
     stroke="#000000"
     class="Stem" />
  <polyline
     transform="translate(-360,-1066.2767)"
     id="polyline20114"
     points="2315.56,1298.62 2315.56,1356.83"
     stroke-linejoin="bevel"
     stroke-width="2.34"
     stroke="#000000"
     class="Stem" />
  <polyline
     transform="translate(-360,-1066.2767)"
     id="polyline20116"
     points="2593.34,1293.05 2593.34,1248.88"
     stroke-linejoin="bevel"
     stroke-width="2.34"
     stroke="#000000"
     class="Stem" />
  <polyline
     transform="translate(-360,-1066.2767)"
     id="polyline20136"
     points="550.144,1266.76 550.144,1332.94"
     stroke-linejoin="bevel"
     stroke-width="2.34"
     stroke="#000000"
     class="Stem" />
  <polyline
     transform="translate(-360,-1066.2767)"
     id="polyline20138"
     points="804.648,1298.62 804.648,1356.83"
     stroke-linejoin="bevel"
     stroke-width="2.34"
     stroke="#000000"
     class="Stem" />
  <polyline
     transform="translate(-360,-1066.2767)"
     id="polyline20140"
     points="1188.42,1309.24 1188.42,1380.73"
     stroke-linejoin="bevel"
     stroke-width="2.34"
     stroke="#000000"
     class="Stem" />
  <polyline
     transform="translate(-360,-1066.2767)"
     id="polyline20142"
     points="1445.64,1309.24 1445.64,1380.73"
     stroke-linejoin="bevel"
     stroke-width="2.34"
     stroke="#000000"
     class="Stem" />
  <polyline
     transform="translate(-360,-1066.2767)"
     id="polyline20144"
     points="2022.2,1261.19 2022.2,1200.19"
     stroke-linejoin="bevel"
     stroke-width="2.34"
     stroke="#000000"
     class="Stem" />
  <polyline
     transform="translate(-360,-1066.2767)"
     id="polyline20146"
     points="2169.33,1261.19 2169.33,1200.19"
     stroke-linejoin="bevel"
     stroke-width="2.34"
     stroke="#000000"
     class="Stem" />
  <polyline
     transform="translate(-360,-1066.2767)"
     id="polyline20148"
     points="2353.23,1271.81 2353.23,1208.15"
     stroke-linejoin="bevel"
     stroke-width="2.34"
     stroke="#000000"
     class="Stem" />
  <polyline
     transform="translate(-360,-1066.2767)"
     id="polyline20150"
     points="2580.94,1261.19 2580.94,1175.39"
     stroke-linejoin="bevel"
     stroke-width="2.34"
     stroke="#000000"
     class="Stem" />
  <polyline
     transform="translate(-360,-1066.2767)"
     id="polyline20192"
     points="575.413,1239.95 575.413,1157.71"
     stroke-linejoin="bevel"
     stroke-width="2.34"
     stroke="#000000"
     class="Stem" />
  <polyline
     transform="translate(-360,-1066.2767)"
     id="polyline20194"
     points="714.368,1229.33 714.368,1146.26"
     stroke-linejoin="bevel"
     stroke-width="2.34"
     stroke="#000000"
     class="Stem" />
  <polyline
     transform="translate(-360,-1066.2767)"
     id="polyline20196"
     points="768.839,1218.71 768.839,1141.78"
     stroke-linejoin="bevel"
     stroke-width="2.34"
     stroke="#000000"
     class="Stem" />
  <polyline
     transform="translate(-360,-1066.2767)"
     id="polyline20198"
     points="829.917,1261.19 829.917,1200.19"
     stroke-linejoin="bevel"
     stroke-width="2.34"
     stroke="#000000"
     class="Stem" />
  <polyline
     transform="translate(-360,-1066.2767)"
     id="polyline20200"
     points="1001.55,1261.19 1001.55,1200.19"
     stroke-linejoin="bevel"
     stroke-width="2.34"
     stroke="#000000"
     class="Stem" />
  <polyline
     transform="translate(-360,-1066.2767)"
     id="polyline20202"
     points="1213.69,1250.57 1213.69,1189.57"
     stroke-linejoin="bevel"
     stroke-width="2.34"
     stroke="#000000"
     class="Stem" />
  <polyline
     transform="translate(-360,-1066.2767)"
     id="polyline20204"
     points="1278,1261.19 1278,1191.34"
     stroke-linejoin="bevel"
     stroke-width="2.34"
     stroke="#000000"
     class="Stem" />
  <polyline
     transform="translate(-360,-1066.2767)"
     id="polyline20206"
     points="1342.3,1271.81 1342.3,1193.11"
     stroke-linejoin="bevel"
     stroke-width="2.34"
     stroke="#000000"
     class="Stem" />
  <polyline
     transform="translate(-360,-1066.2767)"
     id="polyline20208"
     points="1406.6,1261.19 1406.6,1194.88"
     stroke-linejoin="bevel"
     stroke-width="2.34"
     stroke="#000000"
     class="Stem" />
  <polyline
     transform="translate(-360,-1066.2767)"
     id="polyline20210"
     points="1470.91,1271.81 1470.91,1210.81"
     stroke-linejoin="bevel"
     stroke-width="2.34"
     stroke="#000000"
     class="Stem" />
  <polyline
     transform="translate(-360,-1066.2767)"
     id="polyline20212"
     points="1559.32,1271.81 1559.32,1198.51"
     stroke-linejoin="bevel"
     stroke-width="2.34"
     stroke="#000000"
     class="Stem" />
  <polyline
     transform="translate(-360,-1066.2767)"
     id="polyline20214"
     points="1623.62,1250.57 1623.62,1189.57"
     stroke-linejoin="bevel"
     stroke-width="2.34"
     stroke="#000000"
     class="Stem" />
  <polyline
     transform="translate(-360,-1066.2767)"
     id="polyline20216"
     points="1662.66,1245.52 1662.66,1332.94"
     stroke-linejoin="bevel"
     stroke-width="2.34"
     stroke="#000000"
     class="Stem" />
  <polyline
     transform="translate(-360,-1066.2767)"
     id="polyline20218"
     points="1726.96,1224.28 1726.96,1327.08"
     stroke-linejoin="bevel"
     stroke-width="2.34"
     stroke="#000000"
     class="Stem" />
  <polyline
     transform="translate(-360,-1066.2767)"
     id="polyline20220"
     points="1791.26,1234.9 1791.26,1321.22"
     stroke-linejoin="bevel"
     stroke-width="2.34"
     stroke="#000000"
     class="Stem" />
  <polyline
     transform="translate(-360,-1066.2767)"
     id="polyline20222"
     points="1855.57,1213.66 1855.57,1315.36"
     stroke-linejoin="bevel"
     stroke-width="2.34"
     stroke="#000000"
     class="Stem" />
  <polyline
     transform="translate(-360,-1066.2767)"
     id="polyline20224"
     points="1895.76,1224.28 1895.76,1311.7"
     stroke-linejoin="bevel"
     stroke-width="2.34"
     stroke="#000000"
     class="Stem" />
  <polyline
     transform="translate(-360,-1066.2767)"
     id="polyline20226"
     points="2009.8,1218.71 2009.8,1168.33"
     stroke-linejoin="bevel"
     stroke-width="2.34"
     stroke="#000000"
     class="Stem" />
  <polyline
     transform="translate(-360,-1066.2767)"
     id="polyline20228"
     points="2156.93,1229.33 2156.93,1168.33"
     stroke-linejoin="bevel"
     stroke-width="2.34"
     stroke="#000000"
     class="Stem" />
  <polyline
     transform="translate(-360,-1066.2767)"
     id="polyline20230"
     points="2248.88,1239.95 2248.88,1173.64"
     stroke-linejoin="bevel"
     stroke-width="2.34"
     stroke="#000000"
     class="Stem" />
  <polyline
     transform="translate(-360,-1066.2767)"
     id="polyline20232"
     points="2340.83,1229.33 2340.83,1168.33"
     stroke-linejoin="bevel"
     stroke-width="2.34"
     stroke="#000000"
     class="Stem" />
  <polyline
     transform="translate(-360,-1066.2767)"
     id="polyline20234"
     points="2432.78,1218.71 2432.78,1163.02"
     stroke-linejoin="bevel"
     stroke-width="2.34"
     stroke="#000000"
     class="Stem" />
  <polyline
     transform="translate(-360,-1066.2767)"
     id="polyline20236"
     points="2568.54,1239.95 2568.54,1141.75"
     stroke-linejoin="bevel"
     stroke-width="2.34"
     stroke="#000000"
     class="Stem" />
  <path
     style="stroke-width:0.8496"
     id="path20384"
     d="m 2208.8624,265.09152 c -1.5293,-2.80368 -4.7578,-4.33296 -8.6659,-4.33296 -2.8887,0 -6.0322,0.8496 -9.0907,2.46384 -5.6074,2.9736 -9.0058,7.98624 -9.0058,12.3192 0,1.18944 0.2549,2.37888 0.8496,3.48336 1.5293,2.80368 4.7578,4.248 8.6659,4.248 2.8887,0 6.0322,-0.76464 9.0907,-2.37888 5.6074,-2.9736 9.0058,-7.98624 9.0058,-12.3192 0,-1.18944 -0.2549,-2.37888 -0.8496,-3.48336"
     class="Note" />
  <path
     style="stroke-width:0.8496"
     id="path20394"
     d="m 228.1384,211.99152 c -1.52928,-2.80368 -4.75776,-4.33296 -8.66592,-4.33296 -2.88864,0 -6.03216,0.8496 -9.09072,2.46384 -5.60736,2.9736 -9.00576,7.98624 -9.00576,12.3192 0,1.18944 0.25488,2.37888 0.8496,3.48336 1.52928,2.80368 4.75776,4.248 8.66592,4.248 2.88864,0 6.03216,-0.76464 9.09072,-2.37888 5.60736,-2.9736 9.00576,-7.98624 9.00576,-12.3192 0,-1.18944 -0.25488,-2.37888 -0.8496,-3.48336"
     class="Note" />
  <path
     style="stroke-width:0.8496"
     id="path20396"
     d="m 1650.1224,243.85152 c -1.5293,-2.80368 -4.7578,-4.33296 -8.6659,-4.33296 -2.8887,0 -6.0322,0.8496 -9.0907,2.46384 -5.6074,2.9736 -9.0058,7.98624 -9.0058,12.3192 0,1.18944 0.2549,2.37888 0.8496,3.48336 1.5293,2.80368 4.7578,4.248 8.6659,4.248 2.8887,0 6.0322,-0.76464 9.0907,-2.37888 5.6074,-2.9736 9.0058,-7.98624 9.0058,-12.3192 0,-1.18944 -0.2549,-2.37888 -0.8496,-3.48336"
     class="Note" />
  <path
     style="stroke-width:0.8496"
     id="path20398"
     d="m 1797.2524,254.47152 c -1.5293,-2.80368 -4.7578,-4.33296 -8.6659,-4.33296 -2.8887,0 -6.0322,0.8496 -9.0907,2.46384 -5.6074,2.9736 -9.0058,7.98624 -9.0058,12.3192 0,1.18944 0.2549,2.37888 0.8496,3.48336 1.5293,2.80368 4.7578,4.248 8.6659,4.248 2.8887,0 6.0322,-0.76464 9.0907,-2.37888 5.6074,-2.9736 9.0058,-7.98624 9.0058,-12.3192 0,-1.18944 -0.2549,-2.37888 -0.8496,-3.48336"
     class="Note" />
  <path
     style="stroke-width:0.8496"
     id="path20400"
     d="m 1981.1524,222.61152 c -1.5293,-2.80368 -4.7578,-4.33296 -8.6659,-4.33296 -2.8887,0 -6.0322,0.8496 -9.0907,2.46384 -5.6074,2.9736 -9.0058,7.98624 -9.0058,12.3192 0,1.18944 0.2549,2.37888 0.8496,3.48336 1.5293,2.80368 4.7578,4.248 8.6659,4.248 2.8887,0 6.0322,-0.76464 9.0907,-2.37888 5.6074,-2.9736 9.0058,-7.98624 9.0058,-12.3192 0,-1.18944 -0.2549,-2.37888 -0.8496,-3.48336"
     class="Note" />
  <path
     style="stroke-width:0.8496"
     id="path20402"
     d="m 2233.6624,222.61152 c -1.5293,-2.80368 -4.7578,-4.33296 -8.6659,-4.33296 -2.8887,0 -6.0322,0.8496 -9.0907,2.46384 -5.6074,2.9736 -9.0058,7.98624 -9.0058,12.3192 0,1.18944 0.2549,2.37888 0.8496,3.48336 1.5293,2.80368 4.7578,4.248 8.6659,4.248 2.8887,0 6.0322,-0.76464 9.0907,-2.37888 5.6074,-2.9736 9.0058,-7.98624 9.0058,-12.3192 0,-1.18944 -0.2549,-2.37888 -0.8496,-3.48336"
     class="Note" />
  <path
     style="stroke-width:0.8496"
     id="path20422"
     d="m 215.7384,190.75152 c -1.52928,-2.80368 -4.75776,-4.33296 -8.66592,-4.33296 -2.88864,0 -6.03216,0.8496 -9.09072,2.46384 -5.60736,2.9736 -9.00576,7.98624 -9.00576,12.3192 0,1.18944 0.25488,2.37888 0.8496,3.48336 1.52928,2.80368 4.75776,4.248 8.66592,4.248 2.88864,0 6.03216,-0.76464 9.09072,-2.37888 5.60736,-2.9736 9.00576,-7.98624 9.00576,-12.3192 0,-1.18944 -0.25488,-2.37888 -0.8496,-3.48336"
     class="Note" />
  <path
     style="stroke-width:0.8496"
     id="path20424"
     d="m 470.2424,222.61152 c -1.52928,-2.80368 -4.75776,-4.33296 -8.66592,-4.33296 -2.88864,0 -6.03216,0.8496 -9.09072,2.46384 -5.60736,2.9736 -9.00576,7.98624 -9.00576,12.3192 0,1.18944 0.25488,2.37888 0.8496,3.48336 1.52928,2.80368 4.75776,4.248 8.66592,4.248 2.88864,0 6.03216,-0.76464 9.09072,-2.37888 5.60736,-2.9736 9.00576,-7.98624 9.00576,-12.3192 0,-1.18944 -0.25488,-2.37888 -0.8496,-3.48336 m -3.65328,5.77728 c -1.44432,1.44432 -4.33296,3.22848 -7.39152,4.92768 -3.05856,1.6992 -6.11712,2.9736 -8.15616,3.3984 -0.4248,0.085 -0.8496,0.16992 -1.2744,0.16992 -1.35936,0 -2.37888,-0.50976 -2.9736,-1.61424 -0.25488,-0.4248 -0.4248,-0.93456 -0.4248,-1.44432 0,-0.93456 0.59472,-2.03904 1.52928,-2.9736 1.44432,-1.44432 4.248,-3.22848 7.30656,-4.92768 3.05856,-1.6992 6.11712,-2.9736 8.15616,-3.3984 0.4248,-0.085 0.8496,-0.16992 1.2744,-0.16992 1.35936,0 2.46384,0.50976 3.05856,1.61424 0.25488,0.4248 0.33984,0.93456 0.33984,1.44432 0,0.93456 -0.50976,1.95408 -1.44432,2.9736"
     class="Note" />
  <path
     style="stroke-width:0.8496"
     id="path20426"
     d="m 854.0224,233.23152 c -1.52928,-2.80368 -4.75776,-4.33296 -8.66592,-4.33296 -2.88864,0 -6.03216,0.8496 -9.09072,2.46384 -5.60736,2.9736 -9.00576,7.98624 -9.00576,12.3192 0,1.18944 0.25488,2.37888 0.8496,3.48336 1.52928,2.80368 4.75776,4.248 8.66592,4.248 2.88864,0 6.03216,-0.76464 9.09072,-2.37888 5.60736,-2.9736 9.00576,-7.98624 9.00576,-12.3192 0,-1.18944 -0.25488,-2.37888 -0.8496,-3.48336"
     class="Note" />
  <path
     style="stroke-width:0.8496"
     id="path20428"
     d="m 1111.2324,233.23152 c -1.5293,-2.80368 -4.7578,-4.33296 -8.6659,-4.33296 -2.8887,0 -6.0322,0.8496 -9.0907,2.46384 -5.6074,2.9736 -9.0058,7.98624 -9.0058,12.3192 0,1.18944 0.2549,2.37888 0.8496,3.48336 1.5293,2.80368 4.7578,4.248 8.6659,4.248 2.8887,0 6.0322,-0.76464 9.0907,-2.37888 5.6074,-2.9736 9.0058,-7.98624 9.0058,-12.3192 0,-1.18944 -0.2549,-2.37888 -0.8496,-3.48336"
     class="Note" />
  <path
     style="stroke-width:0.8496"
     id="path20430"
     d="m 1662.5224,190.75152 c -1.5293,-2.80368 -4.7578,-4.33296 -8.6659,-4.33296 -2.8887,0 -6.0322,0.8496 -9.0907,2.46384 -5.6074,2.9736 -9.0058,7.98624 -9.0058,12.3192 0,1.18944 0.2549,2.37888 0.8496,3.48336 1.5293,2.80368 4.7578,4.248 8.6659,4.248 2.8887,0 6.0322,-0.76464 9.0907,-2.37888 5.6074,-2.9736 9.0058,-7.98624 9.0058,-12.3192 0,-1.18944 -0.2549,-2.37888 -0.8496,-3.48336"
     class="Note" />
  <path
     style="stroke-width:0.8496"
     id="path20432"
     d="m 1809.6524,190.75152 c -1.5293,-2.80368 -4.7578,-4.33296 -8.6659,-4.33296 -2.8887,0 -6.0322,0.8496 -9.0907,2.46384 -5.6074,2.9736 -9.0058,7.98624 -9.0058,12.3192 0,1.18944 0.2549,2.37888 0.8496,3.48336 1.5293,2.80368 4.7578,4.248 8.6659,4.248 2.8887,0 6.0322,-0.76464 9.0907,-2.37888 5.6074,-2.9736 9.0058,-7.98624 9.0058,-12.3192 0,-1.18944 -0.2549,-2.37888 -0.8496,-3.48336"
     class="Note" />
  <path
     style="stroke-width:0.8496"
     id="path20434"
     d="m 1993.5524,201.37152 c -1.5293,-2.80368 -4.7578,-4.33296 -8.6659,-4.33296 -2.8887,0 -6.0322,0.8496 -9.0907,2.46384 -5.6074,2.9736 -9.0058,7.98624 -9.0058,12.3192 0,1.18944 0.2549,2.37888 0.8496,3.48336 1.5293,2.80368 4.7578,4.248 8.6659,4.248 2.8887,0 6.0322,-0.76464 9.0907,-2.37888 5.6074,-2.9736 9.0058,-7.98624 9.0058,-12.3192 0,-1.18944 -0.2549,-2.37888 -0.8496,-3.48336"
     class="Note" />
  <path
     style="stroke-width:0.8496"
     id="path20436"
     d="m 2221.2624,190.75152 c -1.5293,-2.80368 -4.7578,-4.33296 -8.6659,-4.33296 -2.8887,0 -6.0322,0.8496 -9.0907,2.46384 -5.6074,2.9736 -9.0058,7.98624 -9.0058,12.3192 0,1.18944 0.2549,2.37888 0.8496,3.48336 1.5293,2.80368 4.7578,4.248 8.6659,4.248 2.8887,0 6.0322,-0.76464 9.0907,-2.37888 5.6074,-2.9736 9.0058,-7.98624 9.0058,-12.3192 0,-1.18944 -0.2549,-2.37888 -0.8496,-3.48336"
     class="Note" />
  <path
     style="stroke-width:0.8496"
     id="path20478"
     d="m 215.7384,169.51152 c -1.52928,-2.80368 -4.75776,-4.33296 -8.66592,-4.33296 -2.88864,0 -6.03216,0.8496 -9.09072,2.46384 -5.60736,2.9736 -9.00576,7.98624 -9.00576,12.3192 0,1.18944 0.25488,2.37888 0.8496,3.48336 1.52928,2.80368 4.75776,4.248 8.66592,4.248 2.88864,0 6.03216,-0.76464 9.09072,-2.37888 5.60736,-2.9736 9.00576,-7.98624 9.00576,-12.3192 0,-1.18944 -0.25488,-2.37888 -0.8496,-3.48336"
     class="Note" />
  <path
     style="stroke-width:0.8496"
     id="path20480"
     d="m 354.6934,158.89152 c -1.52928,-2.80368 -4.75776,-4.33296 -8.66592,-4.33296 -2.88864,0 -6.03216,0.8496 -9.09072,2.46384 -5.60736,2.9736 -9.00576,7.98624 -9.00576,12.3192 0,1.18944 0.25488,2.37888 0.8496,3.48336 1.52928,2.80368 4.75776,4.248 8.66592,4.248 2.88864,0 6.03216,-0.76464 9.09072,-2.37888 5.60736,-2.9736 9.00576,-7.98624 9.00576,-12.3192 0,-1.18944 -0.25488,-2.37888 -0.8496,-3.48336"
     class="Note" />
  <path
     style="stroke-width:0.8496"
     id="path20482"
     d="m 409.1644,148.27152 c -1.52928,-2.80368 -4.75776,-4.33296 -8.66592,-4.33296 -2.88864,0 -6.03216,0.8496 -9.09072,2.46384 -5.60736,2.9736 -9.00576,7.98624 -9.00576,12.3192 0,1.18944 0.25488,2.37888 0.8496,3.48336 1.52928,2.80368 4.75776,4.248 8.66592,4.248 2.88864,0 6.03216,-0.76464 9.09072,-2.37888 5.60736,-2.9736 9.00576,-7.98624 9.00576,-12.3192 0,-1.18944 -0.25488,-2.37888 -0.8496,-3.48336"
     class="Note" />
  <path
     style="stroke-width:0.8496"
     id="path20484"
     d="m 470.2424,190.75152 c -1.52928,-2.80368 -4.75776,-4.33296 -8.66592,-4.33296 -2.88864,0 -6.03216,0.8496 -9.09072,2.46384 -5.60736,2.9736 -9.00576,7.98624 -9.00576,12.3192 0,1.18944 0.25488,2.37888 0.8496,3.48336 1.52928,2.80368 4.75776,4.248 8.66592,4.248 2.88864,0 6.03216,-0.76464 9.09072,-2.37888 5.60736,-2.9736 9.00576,-7.98624 9.00576,-12.3192 0,-1.18944 -0.25488,-2.37888 -0.8496,-3.48336"
     class="Note" />
  <path
     style="stroke-width:0.8496"
     id="path20486"
     d="m 641.8794,190.75152 c -1.52928,-2.80368 -4.75776,-4.33296 -8.66592,-4.33296 -2.88864,0 -6.03216,0.8496 -9.09072,2.46384 -5.60736,2.9736 -9.00576,7.98624 -9.00576,12.3192 0,1.18944 0.25488,2.37888 0.8496,3.48336 1.52928,2.80368 4.75776,4.248 8.66592,4.248 2.88864,0 6.03216,-0.76464 9.09072,-2.37888 5.60736,-2.9736 9.00576,-7.98624 9.00576,-12.3192 0,-1.18944 -0.25488,-2.37888 -0.8496,-3.48336"
     class="Note" />
  <path
     style="stroke-width:0.8496"
     id="path20488"
     d="m 854.0224,180.13152 c -1.52928,-2.80368 -4.75776,-4.33296 -8.66592,-4.33296 -2.88864,0 -6.03216,0.8496 -9.09072,2.46384 -5.60736,2.9736 -9.00576,7.98624 -9.00576,12.3192 0,1.18944 0.25488,2.37888 0.8496,3.48336 1.52928,2.80368 4.75776,4.248 8.66592,4.248 2.88864,0 6.03216,-0.76464 9.09072,-2.37888 5.60736,-2.9736 9.00576,-7.98624 9.00576,-12.3192 0,-1.18944 -0.25488,-2.37888 -0.8496,-3.48336"
     class="Note" />
  <path
     style="stroke-width:0.8496"
     id="path20490"
     d="m 918.3224,190.75152 c -1.52928,-2.80368 -4.75776,-4.33296 -8.66592,-4.33296 -2.88864,0 -6.03216,0.8496 -9.09072,2.46384 -5.60736,2.9736 -9.00576,7.98624 -9.00576,12.3192 0,1.18944 0.25488,2.37888 0.8496,3.48336 1.52928,2.80368 4.75776,4.248 8.66592,4.248 2.88864,0 6.03216,-0.76464 9.09072,-2.37888 5.60736,-2.9736 9.00576,-7.98624 9.00576,-12.3192 0,-1.18944 -0.25488,-2.37888 -0.8496,-3.48336"
     class="Note" />
  <path
     style="stroke-width:0.8496"
     id="path20492"
     d="m 982.6224,201.37152 c -1.52928,-2.80368 -4.75776,-4.33296 -8.66592,-4.33296 -2.88864,0 -6.03216,0.8496 -9.09072,2.46384 -5.60736,2.9736 -9.00576,7.98624 -9.00576,12.3192 0,1.18944 0.25488,2.37888 0.8496,3.48336 1.52928,2.80368 4.75776,4.248 8.66592,4.248 2.88864,0 6.03216,-0.76464 9.09072,-2.37888 5.60736,-2.9736 9.00576,-7.98624 9.00576,-12.3192 0,-1.18944 -0.25488,-2.37888 -0.8496,-3.48336"
     class="Note" />
  <path
     style="stroke-width:0.8496"
     id="path20494"
     d="m 1046.9324,190.75152 c -1.5293,-2.80368 -4.7578,-4.33296 -8.6659,-4.33296 -2.8887,0 -6.0322,0.8496 -9.0907,2.46384 -5.6074,2.9736 -9.0058,7.98624 -9.0058,12.3192 0,1.18944 0.2549,2.37888 0.8496,3.48336 1.5293,2.80368 4.7578,4.248 8.6659,4.248 2.8887,0 6.0322,-0.76464 9.0907,-2.37888 5.6074,-2.9736 9.0058,-7.98624 9.0058,-12.3192 0,-1.18944 -0.2549,-2.37888 -0.8496,-3.48336"
     class="Note" />
  <path
     style="stroke-width:0.8496"
     id="path20496"
     d="m 1111.2324,201.37152 c -1.5293,-2.80368 -4.7578,-4.33296 -8.6659,-4.33296 -2.8887,0 -6.0322,0.8496 -9.0907,2.46384 -5.6074,2.9736 -9.0058,7.98624 -9.0058,12.3192 0,1.18944 0.2549,2.37888 0.8496,3.48336 1.5293,2.80368 4.7578,4.248 8.6659,4.248 2.8887,0 6.0322,-0.76464 9.0907,-2.37888 5.6074,-2.9736 9.0058,-7.98624 9.0058,-12.3192 0,-1.18944 -0.2549,-2.37888 -0.8496,-3.48336"
     class="Note" />
  <path
     style="stroke-width:0.8496"
     id="path20498"
     d="m 1199.6424,201.37152 c -1.5293,-2.80368 -4.7578,-4.33296 -8.6659,-4.33296 -2.8887,0 -6.0322,0.8496 -9.0907,2.46384 -5.6074,2.9736 -9.0058,7.98624 -9.0058,12.3192 0,1.18944 0.2549,2.37888 0.8496,3.48336 1.5293,2.80368 4.7578,4.248 8.6659,4.248 2.8887,0 6.0322,-0.76464 9.0907,-2.37888 5.6074,-2.9736 9.0058,-7.98624 9.0058,-12.3192 0,-1.18944 -0.2549,-2.37888 -0.8496,-3.48336"
     class="Note" />
  <path
     style="stroke-width:0.8496"
     id="path20500"
     d="m 1263.9524,180.13152 c -1.5293,-2.80368 -4.7578,-4.33296 -8.6659,-4.33296 -2.8887,0 -6.0322,0.8496 -9.0907,2.46384 -5.6074,2.9736 -9.0058,7.98624 -9.0058,12.3192 0,1.18944 0.2549,2.37888 0.8496,3.48336 1.5293,2.80368 4.7578,4.248 8.6659,4.248 2.8887,0 6.0322,-0.76464 9.0907,-2.37888 5.6074,-2.9736 9.0058,-7.98624 9.0058,-12.3192 0,-1.18944 -0.2549,-2.37888 -0.8496,-3.48336"
     class="Note" />
  <path
     style="stroke-width:0.8496"
     id="path20502"
     d="m 1328.2524,169.51152 c -1.5293,-2.80368 -4.7578,-4.33296 -8.6659,-4.33296 -2.8887,0 -6.0322,0.8496 -9.0907,2.46384 -5.6074,2.9736 -9.0058,7.98624 -9.0058,12.3192 0,1.18944 0.2549,2.37888 0.8496,3.48336 1.5293,2.80368 4.7578,4.248 8.6659,4.248 2.8887,0 6.0322,-0.76464 9.0907,-2.37888 5.6074,-2.9736 9.0058,-7.98624 9.0058,-12.3192 0,-1.18944 -0.2549,-2.37888 -0.8496,-3.48336"
     class="Note" />
  <path
     style="stroke-width:0.8496"
     id="path20504"
     d="m 1392.5524,148.27152 c -1.5293,-2.80368 -4.7578,-4.33296 -8.6659,-4.33296 -2.8887,0 -6.0322,0.8496 -9.0907,2.46384 -5.6074,2.9736 -9.0058,7.98624 -9.0058,12.3192 0,1.18944 0.2549,2.37888 0.8496,3.48336 1.5293,2.80368 4.7578,4.248 8.6659,4.248 2.8887,0 6.0322,-0.76464 9.0907,-2.37888 5.6074,-2.9736 9.0058,-7.98624 9.0058,-12.3192 0,-1.18944 -0.2549,-2.37888 -0.8496,-3.48336"
     class="Note" />
  <path
     style="stroke-width:0.8496"
     id="path20506"
     d="m 1456.8624,158.89152 c -1.5293,-2.80368 -4.7578,-4.33296 -8.6659,-4.33296 -2.8887,0 -6.0322,0.8496 -9.0907,2.46384 -5.6074,2.9736 -9.0058,7.98624 -9.0058,12.3192 0,1.18944 0.2549,2.37888 0.8496,3.48336 1.5293,2.80368 4.7578,4.248 8.6659,4.248 2.8887,0 6.0322,-0.76464 9.0907,-2.37888 5.6074,-2.9736 9.0058,-7.98624 9.0058,-12.3192 0,-1.18944 -0.2549,-2.37888 -0.8496,-3.48336"
     class="Note" />
  <path
     style="stroke-width:0.8496"
     id="path20508"
     d="m 1521.1624,137.65152 c -1.5293,-2.80368 -4.7578,-4.33296 -8.6659,-4.33296 -2.8887,0 -6.0322,0.8496 -9.0907,2.46384 -5.6074,2.9736 -9.0058,7.98624 -9.0058,12.3192 0,1.18944 0.2549,2.37888 0.8496,3.48336 1.5293,2.80368 4.7578,4.248 8.6659,4.248 2.8887,0 6.0322,-0.76464 9.0907,-2.37888 5.6074,-2.9736 9.0058,-7.98624 9.0058,-12.3192 0,-1.18944 -0.2549,-2.37888 -0.8496,-3.48336"
     class="Note" />
  <path
     style="stroke-width:0.8496"
     id="path20510"
     d="m 1561.3524,148.27152 c -1.5293,-2.80368 -4.7578,-4.33296 -8.6659,-4.33296 -2.8887,0 -6.0322,0.8496 -9.0907,2.46384 -5.6074,2.9736 -9.0058,7.98624 -9.0058,12.3192 0,1.18944 0.2549,2.37888 0.8496,3.48336 1.5293,2.80368 4.7578,4.248 8.6659,4.248 2.8887,0 6.0322,-0.76464 9.0907,-2.37888 5.6074,-2.9736 9.0058,-7.98624 9.0058,-12.3192 0,-1.18944 -0.2549,-2.37888 -0.8496,-3.48336"
     class="Note" />
  <path
     style="stroke-width:0.8496"
     id="path20512"
     d="m 1650.1224,148.27152 c -1.5293,-2.80368 -4.7578,-4.33296 -8.6659,-4.33296 -2.8887,0 -6.0322,0.8496 -9.0907,2.46384 -5.6074,2.9736 -9.0058,7.98624 -9.0058,12.3192 0,1.18944 0.2549,2.37888 0.8496,3.48336 1.5293,2.80368 4.7578,4.248 8.6659,4.248 2.8887,0 6.0322,-0.76464 9.0907,-2.37888 5.6074,-2.9736 9.0058,-7.98624 9.0058,-12.3192 0,-1.18944 -0.2549,-2.37888 -0.8496,-3.48336"
     class="Note" />
  <path
     style="stroke-width:0.8496"
     id="path20514"
     d="m 1797.2524,158.89152 c -1.5293,-2.80368 -4.7578,-4.33296 -8.6659,-4.33296 -2.8887,0 -6.0322,0.8496 -9.0907,2.46384 -5.6074,2.9736 -9.0058,7.98624 -9.0058,12.3192 0,1.18944 0.2549,2.37888 0.8496,3.48336 1.5293,2.80368 4.7578,4.248 8.6659,4.248 2.8887,0 6.0322,-0.76464 9.0907,-2.37888 5.6074,-2.9736 9.0058,-7.98624 9.0058,-12.3192 0,-1.18944 -0.2549,-2.37888 -0.8496,-3.48336"
     class="Note" />
  <path
     style="stroke-width:0.8496"
     id="path20516"
     d="m 1889.2024,169.51152 c -1.5293,-2.80368 -4.7578,-4.33296 -8.6659,-4.33296 -2.8887,0 -6.0322,0.8496 -9.0907,2.46384 -5.6074,2.9736 -9.0058,7.98624 -9.0058,12.3192 0,1.18944 0.2549,2.37888 0.8496,3.48336 1.5293,2.80368 4.7578,4.248 8.6659,4.248 2.8887,0 6.0322,-0.76464 9.0907,-2.37888 5.6074,-2.9736 9.0058,-7.98624 9.0058,-12.3192 0,-1.18944 -0.2549,-2.37888 -0.8496,-3.48336"
     class="Note" />
  <path
     style="stroke-width:0.8496"
     id="path20518"
     d="m 1981.1524,158.89152 c -1.5293,-2.80368 -4.7578,-4.33296 -8.6659,-4.33296 -2.8887,0 -6.0322,0.8496 -9.0907,2.46384 -5.6074,2.9736 -9.0058,7.98624 -9.0058,12.3192 0,1.18944 0.2549,2.37888 0.8496,3.48336 1.5293,2.80368 4.7578,4.248 8.6659,4.248 2.8887,0 6.0322,-0.76464 9.0907,-2.37888 5.6074,-2.9736 9.0058,-7.98624 9.0058,-12.3192 0,-1.18944 -0.2549,-2.37888 -0.8496,-3.48336"
     class="Note" />
  <path
     style="stroke-width:0.8496"
     id="path20520"
     d="m 2073.1124,148.27152 c -1.5293,-2.80368 -4.7578,-4.33296 -8.6659,-4.33296 -2.8887,0 -6.0322,0.8496 -9.0907,2.46384 -5.6074,2.9736 -9.0058,7.98624 -9.0058,12.3192 0,1.18944 0.2549,2.37888 0.8496,3.48336 1.5293,2.80368 4.7578,4.248 8.6659,4.248 2.8887,0 6.0322,-0.76464 9.0907,-2.37888 5.6074,-2.9736 9.0058,-7.98624 9.0058,-12.3192 0,-1.18944 -0.2549,-2.37888 -0.8496,-3.48336"
     class="Note" />
  <path
     style="stroke-width:0.8496"
     id="path20522"
     d="m 2208.8624,169.51152 c -1.5293,-2.80368 -4.7578,-4.33296 -8.6659,-4.33296 -2.8887,0 -6.0322,0.8496 -9.0907,2.46384 -5.6074,2.9736 -9.0058,7.98624 -9.0058,12.3192 0,1.18944 0.2549,2.37888 0.8496,3.48336 1.5293,2.80368 4.7578,4.248 8.6659,4.248 2.8887,0 6.0322,-0.76464 9.0907,-2.37888 5.6074,-2.9736 9.0058,-7.98624 9.0058,-12.3192 0,-1.18944 -0.2549,-2.37888 -0.8496,-3.48336"
     class="Note" />
  <path
     style="stroke-width:0.8496"
     id="path20674"
     d="m 70.81416,224.5062 c -1.045008,-4.6134 -3.287952,-7.85879 -3.95064,-8.74246 -2.710224,-3.62779 -6.11712,-6.04915 -10.101744,-7.19611 -2.642256,-0.75606 -5.191056,-0.8496 -7.247088,-0.69667 -0.883584,-5.1061 -1.733184,-10.10166 -2.50632,-14.73198 4.63032,-5.24212 7.705872,-10.1698 9.64296,-13.82308 2.948112,-5.59028 3.925152,-9.48145 3.967632,-9.65137 1.461312,-4.4265 1.767168,-10.96842 0.832608,-17.94355 -0.858096,-6.41448 -2.63376,-12.11538 -4.63032,-14.87658 -0.875088,-1.21493 -1.767168,-1.83514 -2.650752,-1.83514 -1.036512,0 -3.169008,1.05351 -5.624352,3.4069 -1.95408,1.86912 -4.732272,5.17406 -6.907248,10.28016 -2.5488,5.99826 -2.727216,14.06088 -2.429856,19.77019 0.322848,6.17659 1.265904,11.0109 1.2744,11.05338 0.01699,0.0764 0.237888,1.35078 0.620208,3.53425 -0.195408,0.19541 -0.399312,0.38232 -0.611712,0.58631 -0.883584,0.8496 -1.894608,1.81806 -3.067056,2.99051 -0.730656,0.73074 -1.537776,1.50379 -2.387376,2.3279 -7.17912,6.91583 -18.045504,17.38282 -18.045504,33.65266 0,3.99312 0.76464,7.74837 2.276911,11.15532 1.350898,3.05856 3.304978,5.84526 5.794289,8.28361 6.567408,6.41448 15.564672,9.14161 21.562848,9.00576 2.50632,-0.0595 4.740768,-0.26346 6.771312,-0.64578 1.554768,8.15616 2.523312,14.12885 2.557296,18.66571 0.03398,5.5309 -1.367856,8.90381 -4.681296,11.2572 -2.064528,1.46981 -4.451904,2.27693 -7.085664,2.40437 -2.200464,0.10195 -4.12056,-0.29736 -5.335488,-0.64561 h -0.0085 c 0,0 -0.246384,-0.068 -0.25488,-0.23789 -0.0085,-0.15301 0.288864,-0.19549 0.29736,-0.19549 h 0.01699 c 1.631232,-0.37374 4.664304,-1.41875 6.66936,-4.22243 1.52928,-2.14099 2.268432,-6.06623 0.705168,-9.41365 -0.943056,-2.03046 -3.075552,-4.53678 -7.850304,-4.9191 -2.115504,-0.16992 -4.044096,0.26329 -5.743296,1.28281 -1.537776,0.91757 -2.812176,2.31091 -3.704256,4.01011 -2.090016,3.99312 -1.6992,8.86133 0.960048,12.12388 2.514816,3.07555 6.439968,5.03804 11.053296,5.53081 0.72216,0.0765 1.44432,0.11045 2.16648,0.11045 3.763728,0 7.501968,-1.01952 10.53504,-2.89714 3.109536,-2.18347 4.910688,-5.56488 5.488416,-10.34804 0.475776,-3.94223 0.144432,-8.96328 -1.045008,-15.81964 -0.305856,-1.77566 -0.76464,-4.34995 -1.325376,-7.54436 4.8852,-1.63132 8.419536,-4.66439 11.622528,-9.63455 2.795184,-4.87663 3.593808,-10.0592 2.37888,-15.41167 m -29.064816,22.25095 c -3.942144,-1.03651 -7.705872,-3.16051 -10.900368,-6.13411 -1.112976,-1.04501 -2.701728,-2.88864 -3.95064,-5.76873 -1.163952,-2.68479 -1.724705,-5.5989 -1.682225,-8.64891 0.05949,-3.98466 1.172465,-8.07977 3.304961,-12.14927 2.480832,-4.74085 6.355008,-9.43914 11.503584,-13.96751 1.23192,-1.0874 2.395872,-2.17489 3.491856,-3.26246 0.645696,3.61938 1.350864,7.60392 2.098512,11.75005 -3.27096,1.07891 -7.30656,3.75515 -9.948816,8.55539 -3.007584,5.58189 -2.88864,10.2717 -2.268432,13.22829 0.798624,3.78927 2.948112,6.98373 5.887728,8.75944 0.790128,0.47569 4.298976,2.28534 5.86224,1.79257 0.314352,-0.10195 0.543744,-0.28886 0.662688,-0.56923 0.433296,-0.99403 -0.433296,-1.53769 -1.758672,-2.35339 -0.50976,-0.31428 -1.078992,-0.67113 -1.6992,-1.1214 -2.820672,-2.11554 -4.052592,-5.89626 -3.14352,-9.61749 0.492768,-2.03904 1.580256,-3.87423 3.14352,-5.31855 1.418832,-1.31688 3.152016,-2.25144 5.174064,-2.7951 1.733184,9.54942 3.48336,19.02246 4.876704,26.1252 0.110448,0.58614 0.229392,1.15537 0.33984,1.7246 -3.721248,0.79013 -7.417008,0.71375 -10.993824,-0.22939 m 9.617472,-28.18973 c 8.79336,-0.39931 12.421152,5.92177 13.177296,10.02532 0.399312,2.14947 0.390816,5.92173 -0.917568,9.49849 -0.994032,2.70173 -3.084048,6.1596 -7.442496,7.90986 -0.05947,-0.35683 -0.12744,-0.72216 -0.195408,-1.08757 -1.308384,-7.45092 -2.956608,-16.78806 -4.621824,-26.3461 M 45.147744,158.2968 c 1.512288,-4.87662 3.840192,-7.63782 5.530896,-9.10763 1.4868,-1.29139 2.88864,-1.89469 3.670272,-1.89469 0.118944,0 0.220896,0.017 0.305856,0.0425 0.390816,0.11894 0.841104,0.6033 1.240416,1.34245 1.962576,3.6447 1.333872,9.3456 0.195408,13.11774 -1.384848,4.58784 -3.86568,9.36259 -11.34216,17.52725 -0.144432,-0.94306 -0.280368,-1.83514 -0.407808,-2.66766 -1.062,-7.04327 -0.790128,-13.21986 0.80712,-18.35994"
     class="Clef" />
  <path
     style="stroke-width:0.8496"
     id="path20682"
     d="m 109.66996,201.54144 c -0.50976,-3.31344 -2.5488,-6.45696 -6.88176,-6.45696 -4.248,0 -6.71184,2.63376 -7.13664,3.14352 l 0.33984,-27.27216 c 0,-0.67968 -0.50976,-1.18944 -1.18944,-1.18944 h -1.01952 c -0.67968,0 -1.18944,0.50976 -1.18944,1.18944 l 0.4248,51.06096 c 0,0.67968 0.50976,1.18944 1.18944,1.18944 0.16992,0 0.50976,-0.085 0.67968,-0.16992 0.33984,-0.16992 5.86224,-2.88864 10.45008,-8.0712 3.22848,-3.65328 4.50288,-7.81632 4.50288,-11.29968 0,-0.76464 -0.085,-1.44432 -0.16992,-2.124 m -5.86224,3.31344 c 0,1.2744 -0.33984,5.18256 -2.46384,8.41104 -1.44432,2.20896 -4.33296,4.50288 -5.9472,5.77728 l 0.25488,-16.5672 c 0.16992,-0.76464 1.44432,-3.22848 4.84272,-3.22848 3.05856,0 3.31344,2.88864 3.31344,4.6728 v 0.93456"
     class="KeySig" />
  <path
     style="stroke-width:0.8496"
     id="path20706"
     d="m 189.411,38.33328 h 2.37888 V 21.17136 h 22.00464 v 17.16192 h 2.37888 V 14.62944 c 0,-0.67968 -0.50976,-1.18944 -1.18944,-1.18944 h -24.38352 c -0.67968,0 -1.18944,1.18944 -1.18944,1.18944 v 23.70384"
     class="Articulation" />
  <path
     style="stroke-width:0.8496"
     id="path20708"
     d="M 361.1376,4.98176 C 360.96768,4.72688 360.45792,4.472 360.11808,4.472 h -1.18944 c -0.4248,0 -0.93456,0.33984 -1.10448,0.76464 l -7.6464,21.40992 -7.6464,-21.40992 C 342.36144,4.81184 341.85168,4.472 341.42688,4.472 h -1.18944 c -0.67968,0 -1.18944,0.50976 -1.18944,1.18944 0,0.08496 0.085,0.33984 0.085,0.4248 l 9.94032,26.7624 c 0.16992,0.4248 0.67968,0.76464 1.10448,0.76464 0.4248,0 0.93456,-0.33984 1.10448,-0.76464 l 9.94032,-26.7624 c 0,-0.08496 0.085,-0.33984 0.085,-0.4248 0,-0.16992 -0.085,-0.50976 -0.16992,-0.67968"
     class="Articulation" />
  <path
     style="stroke-width:0.8496"
     id="path20710"
     d="m 467.86012,66.61928 c -3.31344,0 -5.18256,2.20896 -5.18256,2.20896 l -0.67968,-0.67968 c -0.4248,-0.4248 -1.10448,-0.4248 -1.10448,-0.4248 h -8.75088 l 2.88864,-8.9208 c 0.16992,-0.59472 -0.50976,-1.35936 -1.18944,-1.35936 h -0.76464 c -0.25488,0 -0.67968,0.25488 -0.8496,0.4248 -0.16992,0.16992 -4.07808,3.3984 -4.41792,3.65328 -0.33984,0.25488 -0.4248,0.67968 -0.4248,0.67968 0,0 -0.8496,2.37888 -1.95408,5.5224 h -4.75776 c -1.01952,0 -1.18944,1.01952 -1.18944,1.01952 v 1.10448 c 0,0.93456 1.18944,1.01952 1.18944,1.01952 h 3.73824 c -1.86912,5.60736 -3.90816,12.23424 -3.90816,14.10336 0,4.07808 2.80368,5.01264 5.43744,5.01264 2.63376,0 5.5224,-2.03904 5.5224,-2.03904 0,0 0.25488,0.59472 0.50976,1.2744 0.25488,0.67968 1.01952,0.76464 1.01952,0.76464 h 3.8232 c 1.10448,0 1.2744,-0.93456 1.2744,-0.93456 v -1.61424 c 0,-1.86912 1.35936,-6.11712 1.35936,-6.11712 l 3.56832,-8.0712 c 0,0 0.8496,-1.61424 1.78416,-2.46384 0.93456,-0.76464 1.95408,-1.10448 2.37888,-0.8496 -1.18944,0.76464 -1.44432,2.03904 -1.44432,3.05856 0,1.01952 1.10448,3.22848 3.3984,3.22848 2.88864,0 3.90816,-1.78416 3.90816,-4.41792 0,-2.63376 -1.86912,-5.18256 -5.18256,-5.18256 m -14.27328,14.95296 c -0.67968,2.29392 -2.9736,3.8232 -4.41792,3.8232 -0.25488,0 -0.4248,0 -0.59472,-0.08496 -0.67968,-0.33984 -0.93456,-1.18944 -0.93456,-2.124 0,-1.95408 0.93456,-4.41792 0.93456,-4.41792 l 2.5488,-7.90128 h 5.60736 c 0.25488,0 0.25488,0.25488 0.25488,0.25488 0,0 -2.63376,7.81632 -3.3984,10.45008"
     class="Articulation" />
  <path
     style="stroke-width:0.8496"
     id="path20712"
     d="m 443.915,50.28328 h 2.37888 V 33.12136 h 22.00464 v 17.16192 h 2.37888 V 26.57944 c 0,-0.67968 -0.50976,-1.18944 -1.18944,-1.18944 h -24.38352 c -0.67968,0 -1.18944,1.18944 -1.18944,1.18944 v 23.70384"
     class="Articulation" />
  <path
     style="stroke-width:0.8496"
     id="path20714"
     d="M 639.8846,62.80176 C 639.71468,62.54688 639.20492,62.292 638.86508,62.292 h -1.18944 c -0.4248,0 -0.93456,0.33984 -1.10448,0.76464 l -7.6464,21.40992 -7.6464,-21.40992 c -0.16992,-0.4248 -0.67968,-0.76464 -1.10448,-0.76464 h -1.18944 c -0.67968,0 -1.18944,0.50976 -1.18944,1.18944 0,0.08496 0.085,0.33984 0.085,0.4248 l 9.94032,26.7624 c 0.16992,0.4248 0.67968,0.76464 1.10448,0.76464 0.4248,0 0.93456,-0.33984 1.10448,-0.76464 l 9.94032,-26.7624 c 0,-0.08496 0.085,-0.33984 0.085,-0.4248 0,-0.16992 -0.085,-0.50976 -0.16992,-0.67968"
     class="Articulation" />
  <path
     style="stroke-width:0.8496"
     id="path20716"
     d="m 1623.8,28.85328 h 2.3789 V 11.69136 h 22.0046 v 17.16192 h 2.3789 V 5.14944 c 0,-0.67968 -0.5098,-1.18944 -1.1894,-1.18944 h -24.3836 c -0.6796,0 -1.1894,1.18944 -1.1894,1.18944 v 23.70384"
     class="Articulation" />
  <path
     style="stroke-width:0.8496"
     id="path20718"
     d="M 1795.2596,10.17176 C 1795.0897,9.91688 1794.5799,9.662 1794.2401,9.662 h -1.1895 c -0.4248,0 -0.9345,0.33984 -1.1044,0.76464 l -7.6464,21.40992 -7.6464,-21.40992 c -0.17,-0.4248 -0.6797,-0.76464 -1.1045,-0.76464 h -1.1895 c -0.6796,0 -1.1894,0.50976 -1.1894,1.18944 0,0.08496 0.085,0.33984 0.085,0.4248 l 9.9403,26.7624 c 0.1699,0.4248 0.6797,0.76464 1.1045,0.76464 0.4248,0 0.9345,-0.33984 1.1044,-0.76464 l 9.9404,-26.7624 c 0,-0.08496 0.085,-0.33984 0.085,-0.4248 0,-0.16992 -0.085,-0.50976 -0.1699,-0.67968"
     class="Articulation" />
  <path
     style="stroke-width:0.8496"
     id="path20720"
     d="m 1954.83,42.42328 h 2.3789 V 25.26136 h 22.0046 v 17.16192 h 2.3789 V 18.71944 c 0,-0.67968 -0.5098,-1.18944 -1.1894,-1.18944 h -24.3836 c -0.6796,0 -1.1894,1.18944 -1.1894,1.18944 v 23.70384"
     class="Articulation" />
  <path
     style="stroke-width:0.8496"
     id="path20722"
     d="m 2071.1196,15.01176 c -0.1699,-0.25488 -0.6797,-0.50976 -1.0195,-0.50976 h -1.1895 c -0.4248,0 -0.9345,0.33984 -1.1044,0.76464 l -7.6464,21.40992 -7.6464,-21.40992 c -0.17,-0.4248 -0.6797,-0.76464 -1.1045,-0.76464 h -1.1895 c -0.6796,0 -1.1894,0.50976 -1.1894,1.18944 0,0.08496 0.085,0.33984 0.085,0.4248 l 9.9403,26.7624 c 0.1699,0.4248 0.6797,0.76464 1.1045,0.76464 0.4248,0 0.9345,-0.33984 1.1044,-0.76464 l 9.9404,-26.7624 c 0,-0.08496 0.085,-0.33984 0.085,-0.4248 0,-0.16992 -0.085,-0.50976 -0.1699,-0.67968"
     class="Articulation" />
  <path
     style="stroke-width:0.8496"
     id="path20724"
     d="m 2182.53,24.89328 h 2.3789 V 7.73136 h 22.0046 v 17.16192 h 2.3789 V 1.18944 C 2209.2924,0.50976 2208.7826,0 2208.103,0 h -24.3836 c -0.6796,0 -1.1894,1.18944 -1.1894,1.18944 v 23.70384"
     class="Articulation" />
  <path
     id="path20744"
     d="m 214.245,86.29328 195.762,-16.12 v 10.65 l -195.762,16.13 v -10.66"
     fill-rule="evenodd"
     class="Beam" />
  <path
     id="path20746"
     d="m 353.2,90.78328 56.807,-4.68 v 10.65 l -56.807,4.68 v -10.65"
     fill-rule="evenodd"
     class="Beam" />
  <path
     id="path20748"
     d="m 353.2,106.71328 56.807,-4.68 v 10.65 l -56.807,4.68 v -10.65"
     fill-rule="evenodd"
     class="Beam" />
  <path
     id="path20750"
     d="m 852.53,117.91328 195.24,5.37 v 10.63 l -195.24,-5.38 v -10.62"
     fill-rule="evenodd"
     class="Beam" />
  <path
     id="path20752"
     d="m 852.53,133.84328 195.24,5.37 v 10.63 l -195.24,-5.38 v -10.62"
     fill-rule="evenodd"
     class="Beam" />
  <path
     id="path20754"
     d="m 1109.74,139.49328 155.05,-21.56 v 10.72 l -155.05,21.56 v -10.72"
     fill-rule="evenodd"
     class="Beam" />
  <path
     id="path20756"
     d="m 1198.15,143.12328 66.64,-9.26 v 10.72 l -66.64,9.27 v -10.73"
     fill-rule="evenodd"
     class="Beam" />
  <path
     id="path20758"
     d="m 1301.49,261.32328 235.43,-21.45 v 10.67 l -235.43,21.45 v -10.67"
     fill-rule="evenodd"
     class="Beam" />
  <path
     id="path20760"
     d="m 1301.49,245.39328 235.43,-21.45 v 10.67 l -235.43,21.45 v -10.67"
     fill-rule="evenodd"
     class="Beam" />
  <path
     id="path20762"
     d="m 1494.4,211.89328 42.52,-3.88 v 10.67 l -42.52,3.87 v -10.66"
     fill-rule="evenodd"
     class="Beam" />
  <path
     id="path20764"
     d="m 1795.76,96.59328 94.29,5.45 v 10.64 l -94.29,-5.45 v -10.64"
     fill-rule="evenodd"
     class="Beam" />
  <path
     id="path20766"
     d="m 1979.66,96.86328 94.29,-5.44 v 10.64 l -94.29,5.44 v -10.64"
     fill-rule="evenodd"
     class="Beam" />
  <path
     style="stroke-width:0.8496"
     id="path20838"
     d="m 2184.224,346.65312 c 0,-0.16992 0.7646,-3.05856 0.8496,-3.31344 0.085,-0.33984 1.6142,-5.18256 4.7578,-10.02528 2.2939,-3.56832 10.3651,-14.0184 10.1102,-14.0184 0,0 6.287,-8.0712 6.7118,-19.03104 v -1.95408 c 0,-5.18256 -0.6796,-12.48912 -3.6532,-19.88064 -0.3399,-0.8496 -0.6797,-1.6992 -1.6143,-1.35936 -0.9345,0.33984 -0.6797,1.35936 -0.4248,2.29392 1.5293,5.9472 2.3789,12.06432 2.3789,18.18144 0,7.13664 -2.5488,10.70496 -4.0781,13.33872 -5.6073,9.43056 -12.9139,14.0184 -16.4822,15.20784 -0.4248,0.16992 -0.6797,0.50976 -0.6797,0.93456 v 5.26752 13.93344 c 0,0.59472 0.5098,1.10448 1.1045,1.10448 0.4248,0 0.9345,-0.33984 1.0195,-0.67968"
     class="Hook" />
  <path
     style="stroke-width:0.8496"
     id="path20842"
     d="m 2235.1436,185.57688 c -0.085,-0.25488 -0.8496,-3.22848 -0.8496,-3.3984 -0.085,-0.33984 -0.5947,-0.59472 -1.0195,-0.59472 -0.5947,0 -1.1045,0.50976 -1.1045,1.10448 v 13.93344 5.26752 c 0,0.4248 0.3398,0.76464 0.6797,0.93456 3.5683,1.10448 10.9598,5.77728 16.4822,15.20784 1.5293,2.63376 3.9931,6.20208 3.9931,13.33872 0,6.11712 -0.9345,12.57408 -2.4638,18.52128 -0.2549,0.93456 -0.5098,1.78416 0.4248,2.124 0.9346,0.33984 1.2744,-0.33984 1.6142,-1.18944 3.0586,-7.47648 3.8232,-15.2928 3.8232,-20.56032 v -1.61424 c -0.4248,-10.95984 -6.7118,-19.03104 -6.7118,-19.03104 0.2549,0 -7.8163,-10.45008 -10.1102,-14.0184 -3.1436,-4.84272 -4.6728,-9.68544 -4.7578,-10.02528"
     class="Hook" />
  <path
     style="stroke-width:0.8496"
     id="path20848"
     d="m 829.384,314.79312 c 0,-0.16992 0.76464,-3.05856 0.8496,-3.31344 0.085,-0.33984 1.61424,-5.18256 4.75776,-10.02528 2.29392,-3.56832 10.36512,-14.0184 10.11024,-14.0184 0,0 6.28704,-8.0712 6.71184,-19.03104 v -1.95408 c 0,-5.18256 -0.67968,-12.48912 -3.65328,-19.88064 -0.33984,-0.8496 -0.67968,-1.6992 -1.61424,-1.35936 -0.93456,0.33984 -0.67968,1.35936 -0.4248,2.29392 1.52928,5.9472 2.37888,12.06432 2.37888,18.18144 0,7.13664 -2.5488,10.70496 -4.07808,13.33872 -5.60736,9.43056 -12.91392,14.0184 -16.48224,15.20784 -0.4248,0.16992 -0.67968,0.50976 -0.67968,0.93456 v 5.26752 13.93344 c 0,0.59472 0.50976,1.10448 1.10448,1.10448 0.4248,0 0.93456,-0.33984 1.01952,-0.67968"
     class="Hook" />
  <path
     style="stroke-width:0.8496"
     id="path20850"
     d="m 1086.594,314.79312 c 0,-0.16992 0.7646,-3.05856 0.8496,-3.31344 0.085,-0.33984 1.6142,-5.18256 4.7578,-10.02528 2.2939,-3.56832 10.3651,-14.0184 10.1102,-14.0184 0,0 6.287,-8.0712 6.7118,-19.03104 v -1.95408 c 0,-5.18256 -0.6796,-12.48912 -3.6532,-19.88064 -0.3399,-0.8496 -0.6797,-1.6992 -1.6143,-1.35936 -0.9345,0.33984 -0.6797,1.35936 -0.4248,2.29392 1.5293,5.9472 2.3789,12.06432 2.3789,18.18144 0,7.13664 -2.5488,10.70496 -4.0781,13.33872 -5.6073,9.43056 -12.9139,14.0184 -16.4822,15.20784 -0.4248,0.16992 -0.6797,0.50976 -0.6797,0.93456 v 5.26752 13.93344 c 0,0.59472 0.5098,1.10448 1.1045,1.10448 0.4248,0 0.9345,-0.33984 1.0195,-0.67968"
     class="Hook" />
  <path
     style="stroke-width:0.8496"
     id="path20852"
     d="m 2222.7436,112.08688 c -0.085,-0.25488 -0.8496,-3.22848 -0.8496,-3.3984 -0.085,-0.33984 -0.5947,-0.59472 -1.0195,-0.59472 -0.5947,0 -1.1045,0.50976 -1.1045,1.10448 v 13.93344 5.26752 c 0,0.4248 0.3398,0.76464 0.6797,0.93456 3.5683,1.10448 10.9598,5.77728 16.4822,15.20784 1.5293,2.63376 3.9931,6.20208 3.9931,13.33872 0,6.11712 -0.9345,12.57408 -2.4638,18.52128 -0.2549,0.93456 -0.5098,1.78416 0.4248,2.124 0.9346,0.33984 1.2744,-0.33984 1.6142,-1.18944 3.0586,-7.47648 3.8232,-15.2928 3.8232,-20.56032 v -1.61424 c -0.4248,-10.95984 -6.7118,-19.03104 -6.7118,-19.03104 0.2549,0 -7.8163,-10.45008 -10.1102,-14.0184 -3.1436,-4.84272 -4.6728,-9.68544 -4.7578,-10.02528"
     class="Hook" />
  <path
     style="stroke-width:0.8496"
     id="path20864"
     d="m 643.3636,136.88688 c -0.085,-0.25488 -0.8496,-3.22848 -0.8496,-3.3984 -0.085,-0.33984 -0.59472,-0.59472 -1.01952,-0.59472 -0.59472,0 -1.10448,0.50976 -1.10448,1.10448 v 13.93344 5.26752 c 0,0.4248 0.33984,0.76464 0.67968,0.93456 3.56832,1.10448 10.95984,5.77728 16.48224,15.20784 1.52928,2.63376 3.99312,6.20208 3.99312,13.33872 0,6.11712 -0.93456,12.57408 -2.46384,18.52128 -0.25488,0.93456 -0.50976,1.78416 0.4248,2.124 0.93456,0.33984 1.2744,-0.33984 1.61424,-1.18944 3.05856,-7.47648 3.8232,-15.2928 3.8232,-20.56032 v -1.61424 c -0.4248,-10.95984 -6.71184,-19.03104 -6.71184,-19.03104 0.25488,0 -7.81632,-10.45008 -10.11024,-14.0184 -3.14352,-4.84272 -4.6728,-9.68544 -4.75776,-10.02528"
     class="Hook" />
  <path
     style="stroke-width:0.8496"
     id="path20866"
     d="m 2210.3436,78.44688 c -0.085,-0.25488 -0.8496,-3.22848 -0.8496,-3.3984 -0.085,-0.33984 -0.5947,-0.59472 -1.0195,-0.59472 -0.5947,0 -1.1045,0.50976 -1.1045,1.10448 v 13.93344 5.26752 c 0,0.4248 0.3398,0.76464 0.6797,0.93456 3.5683,1.10448 10.9598,5.77728 16.4822,15.20784 1.5293,2.63376 3.9931,6.20208 3.9931,13.33872 0,6.11712 -0.9345,12.57408 -2.4638,18.52128 -0.2549,0.93456 -0.5098,1.78416 0.4248,2.124 0.9346,0.33984 1.2744,-0.33984 1.6142,-1.18944 3.0586,-7.47648 3.8232,-15.2928 3.8232,-20.56032 v -1.61424 c -0.4248,-10.95984 -6.7118,-19.03104 -6.7118,-19.03104 0.2549,0 -7.8163,-10.45008 -10.1102,-14.0184 -3.1436,-4.84272 -4.6728,-9.68544 -4.7578,-10.02528"
     class="Hook" />
  <path
     id="path20878"
     d="m 2205.09,140.94328 c 0,9.69 -7.85,17.54 -17.54,17.54 -9.69,0 -17.55,-7.85 -17.55,-17.54 0,-9.69 7.86,-17.54 17.55,-17.54 9.69,0 17.54,7.85 17.54,17.54"
     fill-rule="evenodd"
     stroke-miterlimit="2"
     stroke-linejoin="miter"
     stroke-linecap="square"
     stroke-width="2.12"
     stroke="#000000"
     fill="none"
     class="Fingering" />
  <path
     id="path20880"
     d="m 2190.12,140.13328 c 3.1,-1.12 4.52,-2.86 4.52,-5.58 0,-3.57 -2.72,-5.84 -6.93,-5.84 -3.98,0 -7.01,2.34 -7.01,5.44 0,1.39 0.92,2.38 2.25,2.38 1.19,0 2,-0.82 2,-2.04 0,-0.75 -0.27,-1.19 -1.05,-1.74 -0.34,-0.24 -0.44,-0.37 -0.44,-0.61 0,-0.95 1.97,-1.97 3.91,-1.97 2.45,0 3.74,1.53 3.74,4.42 0,3.16 -1.29,4.83 -3.71,4.83 -0.3,0 -0.88,-0.04 -1.39,-0.07 -0.27,-0.04 -0.55,-0.04 -0.75,-0.04 -0.71,0 -1.09,0.31 -1.09,0.92 0,0.58 0.34,0.85 1.09,0.85 0.2,0 0.48,0 0.78,-0.03 0.68,-0.04 1.23,-0.04 1.6,-0.04 2.52,0 3.88,1.81 3.88,5.17 0,3.54 -1.7,5.51 -4.76,5.51 -2.15,0 -4.46,-1.16 -4.46,-2.21 0,-0.31 0.07,-0.37 0.72,-0.75 0.95,-0.58 1.32,-1.15 1.32,-2 0,-1.23 -0.92,-2.15 -2.14,-2.15 -1.46,0 -2.41,1.19 -2.41,3 0,3.29 3.02,5.57 7.37,5.57 4.93,0 8.13,-2.72 8.13,-6.9 0,-3.2 -1.63,-5.13 -5.17,-6.12"
     class="Fingering" />
  <path
     id="path20890"
     d="m 201.491,125.99328 c -4.76,0 -8.228,5.17 -8.228,12.31 0,7 3.366,12.14 7.956,12.14 4.76,0 8.092,-4.97 8.092,-12.04 0,-3.6 -0.748,-6.6 -2.176,-8.94 -1.326,-2.14 -3.502,-3.47 -5.644,-3.47 m -0.238,1.46 c 1.122,0 2.21,0.75 3.026,2.11 0.918,1.6 1.224,3.54 1.224,8.19 0,4.8 -0.238,7.04 -0.918,8.54 -0.782,1.66 -2.006,2.68 -3.298,2.68 -1.156,0 -2.21,-0.74 -3.026,-2.1 -0.952,-1.6 -1.224,-3.71 -1.224,-9.29 0,-3.97 0.238,-5.95 0.918,-7.44 0.782,-1.7 2.006,-2.69 3.298,-2.69"
     class="Fingering" />
  <path
     id="path20892"
     d="m 1635.21,114.53328 c 3.1,-1.12 4.52,-2.86 4.52,-5.58 0,-3.57 -2.72,-5.84 -6.93,-5.84 -3.98,0 -7.01,2.34 -7.01,5.44 0,1.39 0.92,2.38 2.25,2.38 1.19,0 2,-0.82 2,-2.04 0,-0.75 -0.27,-1.19 -1.05,-1.74 -0.34,-0.24 -0.44,-0.37 -0.44,-0.61 0,-0.95 1.97,-1.97 3.91,-1.97 2.45,0 3.74,1.53 3.74,4.42 0,3.16 -1.29,4.83 -3.71,4.83 -0.3,0 -0.88,-0.04 -1.39,-0.07 -0.27,-0.04 -0.55,-0.04 -0.75,-0.04 -0.71,0 -1.09,0.31 -1.09,0.92 0,0.58 0.34,0.85 1.09,0.85 0.2,0 0.48,0 0.78,-0.03 0.68,-0.04 1.23,-0.04 1.6,-0.04 2.52,0 3.88,1.81 3.88,5.17 0,3.54 -1.7,5.51 -4.76,5.51 -2.15,0 -4.46,-1.16 -4.46,-2.21 0,-0.31 0.07,-0.37 0.72,-0.75 0.95,-0.58 1.32,-1.15 1.32,-2 0,-1.23 -0.92,-2.15 -2.14,-2.15 -1.46,0 -2.41,1.19 -2.41,3 0,3.29 3.02,5.57 7.37,5.57 4.93,0 8.13,-2.72 8.13,-6.9 0,-3.2 -1.63,-5.13 -5.17,-6.12"
     class="Fingering" />
  <path
     id="path20894"
     d="m 1782.26,107.74328 c -1.16,1.39 -4.29,2.44 -7.41,2.51 v 1.46 h 2.99 c 1.97,0.04 2.17,0.24 2.11,2.15 v 13.63 c 0,1.73 0,1.8 -0.21,2.11 -0.27,0.34 -0.92,0.47 -2.82,0.47 h -2.21 v 1.6 h 13.46 v -1.6 h -1.87 c -1.9,0 -2.55,-0.13 -2.82,-0.47 -0.24,-0.31 -0.24,-0.34 -0.24,-2.11 v -14.04 c 0,-1.91 0.07,-3.5 0.24,-5.71 h -1.22"
     class="Fingering" />
  <path
     id="path20896"
     d="m 1978.87,129.29328 c 0,9.55 -7.75,17.29 -17.3,17.29 -9.55,0 -17.29,-7.74 -17.29,-17.29 0,-9.55 7.74,-17.3 17.29,-17.3 9.55,0 17.3,7.75 17.3,17.3"
     fill-rule="evenodd"
     stroke-miterlimit="2"
     stroke-linejoin="miter"
     stroke-linecap="square"
     stroke-width="2.12"
     stroke="#000000"
     fill="none"
     class="Fingering" />
  <path
     id="path20898"
     d="m 1964.65,117.30328 -11.56,16.09 v 1.9 h 9.55 v 1.77 c 0,1.73 0,1.8 -0.2,2.11 -0.28,0.37 -0.92,0.47 -2.86,0.47 h -0.37 v 1.6 h 9.92 v -1.6 H 1969 c -1.94,0 -2.59,-0.1 -2.86,-0.47 -0.2,-0.31 -0.2,-0.34 -0.2,-2.11 v -1.77 h 4.11 v -1.9 h -4.11 v -9.29 c 0,-4.25 0,-4.35 0.17,-6.8 h -1.46 m -2.01,16.09 h -7.48 l 7.48,-10.31 v 10.31"
     class="Fingering" />
  <path
     id="path20900"
     d="m 2204.82,105.23328 c 0,9.69 -7.85,17.54 -17.54,17.54 -9.69,0 -17.54,-7.85 -17.54,-17.54 0,-9.69 7.85,-17.55 17.54,-17.55 9.69,0 17.54,7.86 17.54,17.55"
     fill-rule="evenodd"
     stroke-miterlimit="2"
     stroke-linejoin="miter"
     stroke-linecap="square"
     stroke-width="2.12"
     stroke="#000000"
     fill="none"
     class="Fingering" />
  <path
     id="path20902"
     d="m 2189.86,104.42328 c 3.09,-1.12 4.52,-2.86 4.52,-5.58 0,-3.57 -2.72,-5.84 -6.94,-5.84 -3.98,0 -7,2.34 -7,5.44 0,1.39 0.92,2.38 2.24,2.38 1.19,0 2.01,-0.82 2.01,-2.04 0,-0.75 -0.27,-1.19 -1.06,-1.74 -0.34,-0.24 -0.44,-0.37 -0.44,-0.61 0,-0.95 1.97,-1.97 3.91,-1.97 2.45,0 3.74,1.53 3.74,4.42 0,3.16 -1.29,4.83 -3.7,4.83 -0.31,0 -0.89,-0.04 -1.4,-0.07 -0.27,-0.04 -0.54,-0.04 -0.75,-0.04 -0.71,0 -1.08,0.31 -1.08,0.92 0,0.58 0.34,0.85 1.08,0.85 0.21,0 0.48,0 0.79,-0.03 0.68,-0.04 1.22,-0.04 1.59,-0.04 2.52,0 3.88,1.81 3.88,5.17 0,3.54 -1.7,5.51 -4.76,5.51 -2.14,0 -4.45,-1.16 -4.45,-2.21 0,-0.31 0.06,-0.37 0.71,-0.75 0.95,-0.58 1.33,-1.15 1.33,-2 0,-1.23 -0.92,-2.15 -2.15,-2.15 -1.46,0 -2.41,1.19 -2.41,3 0,3.29 3.03,5.57 7.38,5.57 4.93,0 8.12,-2.72 8.12,-6.9 0,-3.2 -1.63,-5.13 -5.16,-6.12"
     class="Fingering" />
  <path
     id="path20916"
     d="m 202.992,93.95328 -11.56,16.08 v 1.9 h 9.554 v 1.77 c 0,1.73 0,1.8 -0.204,2.11 -0.272,0.37 -0.918,0.47 -2.856,0.47 h -0.374 v 1.6 h 9.928 v -1.6 h -0.136 c -1.938,0 -2.584,-0.1 -2.856,-0.47 -0.204,-0.31 -0.204,-0.34 -0.204,-2.11 v -1.77 h 4.114 v -1.9 h -4.114 v -9.28 c 0,-4.25 0,-4.36 0.17,-6.8 h -1.462 m -2.006,16.08 h -7.48 l 7.48,-10.3 v 10.3"
     class="Fingering" />
  <path
     id="path20918"
     d="m 464.163,151.96328 h -1.496 l -0.34,1.74 c -0.442,2.21 -0.714,2.41 -2.822,2.41 h -7.616 c 2.346,-2.45 3.128,-3.16 5.304,-4.86 3.094,-2.38 4.42,-3.57 5.202,-4.59 1.088,-1.5 1.632,-2.99 1.632,-4.66 0,-3.88 -3.196,-6.63 -7.65,-6.63 -4.318,0 -7.616,2.75 -7.616,6.39 0,2.14 1.088,3.61 2.686,3.61 1.258,0 2.108,-0.85 2.108,-2.08 0,-0.85 -0.476,-1.63 -1.19,-1.94 -1.258,-0.51 -1.326,-0.57 -1.326,-1.02 0,-0.51 0.34,-1.29 0.816,-1.87 0.85,-1.05 2.244,-1.63 3.842,-1.63 2.822,0 4.488,1.74 4.488,4.59 0,2.52 -1.19,4.8 -4.012,7.79 -2.516,2.65 -4.08,4.32 -4.658,4.96 -1.224,1.43 -1.836,2.21 -3.332,4.18 v 0.96 h 15.334 l 0.646,-7.35"
     class="Fingering" />
  <path
     id="path20920"
     d="m 1635.87,70.57328 -11.56,16.08 v 1.9 h 9.55 v 1.77 c 0,1.73 0,1.8 -0.2,2.11 -0.27,0.37 -0.92,0.47 -2.86,0.47 h -0.37 v 1.6 h 9.93 v -1.6 h -0.14 c -1.94,0 -2.58,-0.1 -2.85,-0.47 -0.21,-0.31 -0.21,-0.34 -0.21,-2.11 v -1.77 h 4.12 v -1.9 h -4.12 v -9.28 c 0,-4.25 0,-4.36 0.17,-6.8 h -1.46 m -2.01,16.08 h -7.48 l 7.48,-10.3 v 10.3"
     class="Fingering" />
  <path
     id="path20922"
     d="m 1781.98,78.46328 -11.56,16.08 v 1.9 h 9.56 v 1.77 c 0,1.73 0,1.8 -0.21,2.11 -0.27,0.37 -0.92,0.47 -2.85,0.47 h -0.38 v 1.6 h 9.93 v -1.6 h -0.14 c -1.93,0 -2.58,-0.1 -2.85,-0.47 -0.21,-0.31 -0.21,-0.34 -0.21,-2.11 v -1.77 h 4.12 v -1.9 h -4.12 v -9.28 c 0,-4.25 0,-4.36 0.17,-6.8 h -1.46 m -2,16.08 h -7.48 l 7.48,-10.3 v 10.3"
     class="Fingering" />
  <path
     id="path20924"
     d="m 1970.38,99.07328 h -1.49 l -0.34,1.73 c -0.44,2.21 -0.72,2.42 -2.82,2.42 h -7.62 c 2.35,-2.45 3.13,-3.16 5.3,-4.86 3.1,-2.38 4.42,-3.57 5.21,-4.59 1.08,-1.5 1.63,-3 1.63,-4.66 0,-3.88 -3.2,-6.63 -7.65,-6.63 -4.32,0 -7.62,2.75 -7.62,6.39 0,2.14 1.09,3.6 2.69,3.6 1.26,0 2.11,-0.85 2.11,-2.07 0,-0.85 -0.48,-1.63 -1.19,-1.94 -1.26,-0.51 -1.33,-0.58 -1.33,-1.02 0,-0.51 0.34,-1.29 0.82,-1.87 0.85,-1.05 2.24,-1.63 3.84,-1.63 2.82,0 4.49,1.73 4.49,4.59 0,2.52 -1.19,4.79 -4.02,7.79 -2.51,2.65 -4.08,4.31 -4.65,4.96 -1.23,1.43 -1.84,2.21 -3.34,4.18 v 0.95 h 15.34 l 0.64,-7.34"
     class="Fingering" />
  <path
     id="path20926"
     d="m 2189.02,60.89328 -11.56,16.08 v 1.9 h 9.56 v 1.77 c 0,1.73 0,1.8 -0.21,2.11 -0.27,0.37 -0.91,0.47 -2.85,0.47 h -0.38 v 1.6 h 9.93 v -1.6 h -0.13 c -1.94,0 -2.59,-0.1 -2.86,-0.47 -0.2,-0.31 -0.2,-0.34 -0.2,-2.11 v -1.77 h 4.11 v -1.9 h -4.11 v -9.28 c 0,-4.25 0,-4.36 0.17,-6.8 h -1.47 m -2,16.08 h -7.48 l 7.48,-10.3 v 10.3"
     class="Fingering" />
  <path
     id="path20948"
     d="m 203.602,64.32328 c -1.156,1.39 -4.284,2.45 -7.412,2.51 v 1.47 h 2.992 c 1.972,0.03 2.176,0.23 2.108,2.14 v 13.63 c 0,1.74 0,1.8 -0.204,2.11 -0.272,0.34 -0.918,0.48 -2.822,0.48 h -2.21 v 1.59 h 13.464 v -1.59 h -1.87 c -1.904,0 -2.55,-0.14 -2.822,-0.48 -0.238,-0.31 -0.238,-0.34 -0.238,-2.11 v -14.04 c 0,-1.9 0.068,-3.5 0.238,-5.71 h -1.224"
     class="Fingering" />
  <path
     id="path20950"
     d="m 342.556,44.23328 c -1.156,1.39 -4.284,2.45 -7.412,2.51 v 1.47 h 2.992 c 1.972,0.03 2.176,0.23 2.108,2.14 v 13.63 c 0,1.74 0,1.8 -0.204,2.11 -0.272,0.34 -0.918,0.48 -2.822,0.48 h -2.21 v 1.59 h 13.464 v -1.59 h -1.87 c -1.904,0 -2.55,-0.14 -2.822,-0.48 -0.238,-0.31 -0.238,-0.34 -0.238,-2.11 v -14.04 c 0,-1.9 0.068,-3.5 0.238,-5.71 h -1.224"
     class="Fingering" />
  <path
     id="path20952"
     d="m 404.413,22.50328 c 3.094,-1.12 4.522,-2.85 4.522,-5.57 0,-3.57 -2.72,-5.85 -6.936,-5.85 -3.978,0 -7.004,2.35 -7.004,5.44 0,1.39 0.918,2.38 2.244,2.38 1.19,0 2.006,-0.82 2.006,-2.04 0,-0.75 -0.272,-1.19 -1.054,-1.73 -0.34,-0.24 -0.442,-0.38 -0.442,-0.62 0,-0.95 1.972,-1.97 3.91,-1.97 2.448,0 3.74,1.53 3.74,4.42 0,3.16 -1.292,4.83 -3.706,4.83 -0.306,0 -0.884,-0.03 -1.394,-0.07 -0.272,-0.03 -0.544,-0.03 -0.748,-0.03 -0.714,0 -1.088,0.3 -1.088,0.92 0,0.57 0.34,0.85 1.088,0.85 0.204,0 0.476,0 0.782,-0.04 0.68,-0.03 1.224,-0.03 1.598,-0.03 2.516,0 3.876,1.8 3.876,5.17 0,3.53 -1.7,5.5 -4.76,5.5 -2.142,0 -4.454,-1.15 -4.454,-2.21 0,-0.3 0.068,-0.37 0.714,-0.74 0.952,-0.58 1.326,-1.16 1.326,-2.01 0,-1.22 -0.918,-2.14 -2.142,-2.14 -1.462,0 -2.414,1.19 -2.414,2.99 0,3.3 3.026,5.58 7.378,5.58 4.93,0 8.126,-2.72 8.126,-6.91 0,-3.19 -1.632,-5.13 -5.168,-6.12"
     class="Fingering" />
  <path
     id="path20954"
     d="m 450.105,112.48328 c 3.094,-1.12 4.522,-2.85 4.522,-5.57 0,-3.57 -2.72,-5.85 -6.936,-5.85 -3.978,0 -7.004,2.35 -7.004,5.44 0,1.39 0.918,2.38 2.244,2.38 1.19,0 2.006,-0.82 2.006,-2.04 0,-0.75 -0.272,-1.19 -1.054,-1.73 -0.34,-0.24 -0.442,-0.38 -0.442,-0.62 0,-0.95 1.972,-1.97 3.91,-1.97 2.448,0 3.74,1.53 3.74,4.42 0,3.16 -1.292,4.83 -3.706,4.83 -0.306,0 -0.884,-0.03 -1.394,-0.07 -0.272,-0.03 -0.544,-0.03 -0.748,-0.03 -0.714,0 -1.088,0.3 -1.088,0.92 0,0.57 0.34,0.85 1.088,0.85 0.204,0 0.476,0 0.782,-0.04 0.68,-0.03 1.224,-0.03 1.598,-0.03 2.516,0 3.876,1.8 3.876,5.17 0,3.53 -1.7,5.5 -4.76,5.5 -2.142,0 -4.454,-1.15 -4.454,-2.21 0,-0.3 0.068,-0.37 0.714,-0.74 0.952,-0.58 1.326,-1.16 1.326,-2.01 0,-1.22 -0.918,-2.14 -2.142,-2.14 -1.462,0 -2.414,1.19 -2.414,2.99 0,3.3 3.026,5.58 7.378,5.58 4.93,0 8.126,-2.72 8.126,-6.91 0,-3.19 -1.632,-5.13 -5.168,-6.12"
     class="Fingering" />
  <path
     id="path20956"
     d="m 469.652,100.60328 c -1.156,1.4 -4.284,2.45 -7.412,2.52 v 1.46 h 2.992 c 1.972,0.03 2.176,0.24 2.108,2.14 v 13.64 c 0,1.73 0,1.8 -0.204,2.1 -0.272,0.34 -0.918,0.48 -2.822,0.48 h -2.21 v 1.6 h 13.464 v -1.6 h -1.87 c -1.904,0 -2.55,-0.14 -2.822,-0.48 -0.238,-0.3 -0.238,-0.34 -0.238,-2.1 v -14.05 c 0,-1.9 0.068,-3.5 0.238,-5.71 h -1.224"
     class="Fingering" />
  <path
     id="path20958"
     d="m 630.047,119.19328 c -1.156,1.4 -4.284,2.45 -7.412,2.52 v 1.46 h 2.992 c 1.972,0.03 2.176,0.24 2.108,2.14 v 13.64 c 0,1.73 0,1.8 -0.204,2.1 -0.272,0.34 -0.918,0.48 -2.822,0.48 h -2.21 v 1.6 h 13.464 v -1.6 h -1.87 c -1.904,0 -2.55,-0.14 -2.822,-0.48 -0.238,-0.3 -0.238,-0.34 -0.238,-2.1 v -14.05 c 0,-1.9 0.068,-3.5 0.238,-5.71 h -1.224"
     class="Fingering" />
  <path
     id="path20960"
     d="m 849.04,104.12328 h -1.49 l -0.34,1.74 c -0.45,2.21 -0.72,2.41 -2.83,2.41 h -7.61 c 2.34,-2.45 3.13,-3.16 5.3,-4.86 3.1,-2.38 4.42,-3.57 5.2,-4.59 1.09,-1.5 1.64,-2.99 1.64,-4.66 0,-3.87 -3.2,-6.63 -7.65,-6.63 -4.32,0 -7.62,2.76 -7.62,6.39 0,2.15 1.09,3.61 2.69,3.61 1.25,0 2.1,-0.85 2.1,-2.08 0,-0.85 -0.47,-1.63 -1.19,-1.93 -1.25,-0.51 -1.32,-0.58 -1.32,-1.02 0,-0.51 0.34,-1.3 0.81,-1.87 0.85,-1.06 2.25,-1.64 3.85,-1.64 2.82,0 4.48,1.74 4.48,4.59 0,2.52 -1.19,4.8 -4.01,7.79 -2.51,2.65 -4.08,4.32 -4.66,4.96 -1.22,1.43 -1.83,2.21 -3.33,4.19 v 0.95 h 15.34 l 0.64,-7.35"
     class="Fingering" />
  <path
     id="path20962"
     d="m 913.34,105.62328 h -1.49 l -0.34,1.73 c -0.44,2.21 -0.72,2.42 -2.82,2.42 h -7.62 c 2.35,-2.45 3.13,-3.17 5.3,-4.87 3.1,-2.38 4.42,-3.57 5.21,-4.59 1.08,-1.49 1.63,-2.99 1.63,-4.65 0,-3.88 -3.2,-6.63 -7.65,-6.63 -4.32,0 -7.62,2.75 -7.62,6.39 0,2.14 1.09,3.6 2.69,3.6 1.26,0 2.11,-0.85 2.11,-2.07 0,-0.85 -0.48,-1.63 -1.19,-1.94 -1.26,-0.51 -1.33,-0.58 -1.33,-1.02 0,-0.51 0.34,-1.29 0.82,-1.87 0.85,-1.05 2.24,-1.63 3.84,-1.63 2.82,0 4.49,1.73 4.49,4.59 0,2.51 -1.19,4.79 -4.02,7.78 -2.51,2.66 -4.08,4.32 -4.65,4.97 -1.23,1.43 -1.84,2.21 -3.34,4.18 v 0.95 h 15.34 l 0.64,-7.34"
     class="Fingering" />
  <path
     id="path20964"
     d="m 1254.06,87.53328 -11.56,16.08 v 1.91 h 9.56 v 1.77 c 0,1.73 0,1.8 -0.21,2.1 -0.27,0.38 -0.91,0.48 -2.85,0.48 h -0.38 v 1.6 h 9.93 v -1.6 h -0.13 c -1.94,0 -2.59,-0.1 -2.86,-0.48 -0.2,-0.3 -0.2,-0.34 -0.2,-2.1 v -1.77 h 4.11 v -1.91 h -4.11 v -9.28 c 0,-4.25 0,-4.35 0.17,-6.8 h -1.47 m -2,16.08 h -7.48 l 7.48,-10.3 v 10.3"
     class="Fingering" />
  <path
     id="path20966"
     d="m 1316.12,130.75328 c -1.16,1.4 -4.29,2.45 -7.42,2.52 v 1.46 h 3 c 1.97,0.04 2.17,0.24 2.1,2.14 v 13.64 c 0,1.73 0,1.8 -0.2,2.11 -0.27,0.34 -0.92,0.47 -2.82,0.47 h -2.21 v 1.6 h 13.46 v -1.6 h -1.87 c -1.9,0 -2.55,-0.13 -2.82,-0.47 -0.24,-0.31 -0.24,-0.34 -0.24,-2.11 v -14.04 c 0,-1.91 0.07,-3.51 0.24,-5.72 h -1.22"
     class="Fingering" />
  <path
     id="path20968"
     d="m 1444.72,120.13328 c -1.15,1.4 -4.28,2.45 -7.41,2.52 v 1.46 h 2.99 c 1.97,0.04 2.18,0.24 2.11,2.14 v 13.64 c 0,1.73 0,1.8 -0.2,2.11 -0.28,0.34 -0.92,0.47 -2.83,0.47 h -2.21 v 1.6 h 13.47 v -1.6 h -1.87 c -1.91,0 -2.55,-0.13 -2.82,-0.47 -0.24,-0.31 -0.24,-0.34 -0.24,-2.11 v -14.04 c 0,-1.91 0.07,-3.51 0.24,-5.72 h -1.23"
     class="Fingering" />
  <path
     id="path20970"
     d="m 1511.28,98.89328 -11.56,16.09 v 1.9 h 9.55 v 1.77 c 0,1.73 0,1.8 -0.2,2.11 -0.28,0.37 -0.92,0.47 -2.86,0.47 h -0.37 v 1.6 h 9.92 v -1.6 h -0.13 c -1.94,0 -2.59,-0.1 -2.86,-0.47 -0.2,-0.31 -0.2,-0.34 -0.2,-2.11 v -1.77 h 4.11 v -1.9 h -4.11 v -9.29 c 0,-4.25 0,-4.35 0.17,-6.8 h -1.46 m -2.01,16.09 h -7.48 l 7.48,-10.31 v 10.31"
     class="Fingering" />
  <path
     id="path20972"
     d="m 1556.37,126.11328 h -1.49 l -0.34,1.73 c -0.44,2.21 -0.72,2.41 -2.82,2.41 h -7.62 c 2.35,-2.44 3.13,-3.16 5.3,-4.86 3.1,-2.38 4.42,-3.57 5.21,-4.59 1.08,-1.49 1.63,-2.99 1.63,-4.66 0,-3.87 -3.2,-6.63 -7.65,-6.63 -4.32,0 -7.62,2.76 -7.62,6.4 0,2.14 1.09,3.6 2.69,3.6 1.26,0 2.11,-0.85 2.11,-2.07 0,-0.85 -0.48,-1.64 -1.19,-1.94 -1.26,-0.51 -1.33,-0.58 -1.33,-1.02 0,-0.51 0.34,-1.29 0.82,-1.87 0.85,-1.06 2.24,-1.63 3.84,-1.63 2.82,0 4.49,1.73 4.49,4.59 0,2.51 -1.19,4.79 -4.02,7.78 -2.51,2.65 -4.08,4.32 -4.65,4.97 -1.23,1.42 -1.84,2.21 -3.34,4.18 v 0.95 h 15.34 l 0.64,-7.34"
     class="Fingering" />
  <path
     id="path20974"
     d="m 1635.73,39.47328 -11.56,16.09 v 1.9 h 9.56 v 1.77 c 0,1.73 0,1.8 -0.21,2.11 -0.27,0.37 -0.91,0.47 -2.85,0.47 h -0.38 v 1.6 h 9.93 v -1.6 h -0.13 c -1.94,0 -2.59,-0.1 -2.86,-0.47 -0.2,-0.31 -0.2,-0.34 -0.2,-2.11 v -1.77 h 4.11 v -1.9 h -4.11 v -9.29 c 0,-4.25 0,-4.35 0.17,-6.8 h -1.47 m -2,16.09 h -7.48 l 7.48,-10.31 v 10.31"
     class="Fingering" />
  <path
     id="path20976"
     d="m 1786.85,66.02328 h -1.49 l -0.34,1.73 c -0.44,2.21 -0.72,2.41 -2.82,2.41 h -7.62 c 2.35,-2.44 3.13,-3.16 5.3,-4.86 3.1,-2.38 4.42,-3.57 5.21,-4.59 1.08,-1.49 1.63,-2.99 1.63,-4.66 0,-3.87 -3.2,-6.63 -7.65,-6.63 -4.32,0 -7.62,2.76 -7.62,6.4 0,2.14 1.09,3.6 2.69,3.6 1.26,0 2.11,-0.85 2.11,-2.07 0,-0.85 -0.48,-1.64 -1.19,-1.94 -1.26,-0.51 -1.33,-0.58 -1.33,-1.02 0,-0.51 0.34,-1.29 0.82,-1.87 0.85,-1.06 2.24,-1.63 3.84,-1.63 2.82,0 4.49,1.73 4.49,4.59 0,2.51 -1.19,4.79 -4.02,7.78 -2.51,2.65 -4.08,4.32 -4.65,4.97 -1.23,1.42 -1.84,2.21 -3.34,4.18 v 0.95 h 15.34 l 0.64,-7.34"
     class="Fingering" />
  <path
     id="path20978"
     d="m 1964.2,53.04328 c -1.15,1.39 -4.28,2.45 -7.41,2.51 v 1.47 h 2.99 c 1.97,0.03 2.18,0.23 2.11,2.14 v 13.63 c 0,1.74 0,1.8 -0.2,2.11 -0.28,0.34 -0.92,0.48 -2.83,0.48 h -2.21 v 1.59 h 13.47 v -1.59 h -1.87 c -1.91,0 -2.55,-0.14 -2.82,-0.48 -0.24,-0.31 -0.24,-0.34 -0.24,-2.11 v -14.04 c 0,-1.9 0.07,-3.5 0.24,-5.71 h -1.23"
     class="Fingering" />
  <path
     id="path20980"
     d="m 2188.45,35.51328 c -1.16,1.39 -4.29,2.45 -7.42,2.52 v 1.46 h 3 c 1.97,0.03 2.17,0.24 2.1,2.14 v 13.63 c 0,1.74 0,1.81 -0.2,2.11 -0.27,0.34 -0.92,0.48 -2.82,0.48 h -2.21 v 1.6 h 13.46 v -1.6 h -1.87 c -1.9,0 -2.55,-0.14 -2.82,-0.48 -0.24,-0.3 -0.24,-0.34 -0.24,-2.11 v -14.04 c 0,-1.9 0.07,-3.5 0.24,-5.71 h -1.22"
     class="Fingering" />
  <path
     style="stroke-width:0.8496"
     id="path21080"
     d="m 227.202,176.39187 c 0,2.34611 1.90189,4.248 4.248,4.248 2.34611,0 4.248,-1.90189 4.248,-4.248 0,-2.34611 -1.90189,-4.248 -4.248,-4.248 -2.34611,0 -4.248,1.90189 -4.248,4.248"
     class="NoteDot" />
  <path
     style="stroke-width:0.8496"
     id="path21082"
     d="m 481.705,197.63187 c 0,2.34611 1.90189,4.248 4.248,4.248 2.34611,0 4.248,-1.90189 4.248,-4.248 0,-2.34611 -1.90189,-4.248 -4.248,-4.248 -2.34611,0 -4.248,1.90189 -4.248,4.248"
     class="NoteDot" />
</svg>
