<?xml version="1.0" encoding="UTF-8" standalone="no"?>
<svg
   xmlns:dc="http://purl.org/dc/elements/1.1/"
   xmlns:cc="http://creativecommons.org/ns#"
   xmlns:rdf="http://www.w3.org/1999/02/22-rdf-syntax-ns#"
   xmlns:svg="http://www.w3.org/2000/svg"
   xmlns="http://www.w3.org/2000/svg"
   xmlns:sodipodi="http://sodipodi.sourceforge.net/DTD/sodipodi-0.dtd"
   xmlns:inkscape="http://www.inkscape.org/namespaces/inkscape"
   inkscape:version="1.0 (4035a4f, 2020-05-01)"
   sodipodi:docname="snippet23.svg"
   id="svg22514"
   version="1.2"
   viewBox="0 0 2340 258.10901"
   height="258.10901"
   width="2340">
  <metadata
     id="metadata22520">
    <rdf:RDF>
      <cc:Work
         rdf:about="">
        <dc:format>image/svg+xml</dc:format>
        <dc:type
           rdf:resource="http://purl.org/dc/dcmitype/StillImage" />
        <dc:title>Batches2Partita4</dc:title>
      </cc:Work>
    </rdf:RDF>
  </metadata>
  <defs
     id="defs22518" />
  <sodipodi:namedview
     inkscape:current-layer="svg22514"
     inkscape:window-maximized="0"
     inkscape:window-y="23"
     inkscape:window-x="0"
     inkscape:cy="716.9285"
     inkscape:cx="1059.1184"
     inkscape:zoom="0.11827543"
     showgrid="false"
     id="namedview22516"
     inkscape:window-height="480"
     inkscape:window-width="701"
     inkscape:pageshadow="2"
     inkscape:pageopacity="0"
     guidetolerance="10"
     gridtolerance="10"
     objecttolerance="10"
     borderopacity="1"
     bordercolor="#666666"
     pagecolor="#ffffff" />
  <title
     id="title21856">Batches2Partita4</title>
  <desc
     id="desc21858">Generated by MuseScore 3.6.2</desc>
  <polyline
     transform="translate(-360,-432.194)"
     id="polyline21860"
     points="360,520.306 2700,520.306"
     stroke-linejoin="bevel"
     stroke-width="2.34"
     stroke="#000000"
     fill="none"
     class="StaffLines" />
  <polyline
     transform="translate(-360,-432.194)"
     id="polyline21862"
     points="360,541.546 2700,541.546"
     stroke-linejoin="bevel"
     stroke-width="2.34"
     stroke="#000000"
     fill="none"
     class="StaffLines" />
  <polyline
     transform="translate(-360,-432.194)"
     id="polyline21864"
     points="360,562.786 2700,562.786"
     stroke-linejoin="bevel"
     stroke-width="2.34"
     stroke="#000000"
     fill="none"
     class="StaffLines" />
  <polyline
     transform="translate(-360,-432.194)"
     id="polyline21866"
     points="360,584.026 2700,584.026"
     stroke-linejoin="bevel"
     stroke-width="2.34"
     stroke="#000000"
     fill="none"
     class="StaffLines" />
  <polyline
     transform="translate(-360,-432.194)"
     id="polyline21868"
     points="360,605.266 2700,605.266"
     stroke-linejoin="bevel"
     stroke-width="2.34"
     stroke="#000000"
     fill="none"
     class="StaffLines" />
  <path
     id="path21880"
     d="m 176.74,144.095 c 15.904,-36.88 66.074,-52.81 100.34,-31.86 -32.466,-15.281 -82.636,0.649 -100.34,31.86"
     fill-rule="evenodd"
     stroke-linejoin="round"
     stroke-linecap="round"
     stroke-width="1.49"
     stroke="#000000"
     class="SlurSegment" />
  <path
     id="path21882"
     d="m 1512.13,37.136 c 14.8,-12.189 37.41,-6.879 45.24,10.62 -9.19,-11.709 -31.8,-17.019 -45.24,-10.62"
     fill-rule="evenodd"
     stroke-linejoin="round"
     stroke-linecap="round"
     stroke-width="1.49"
     stroke="#000000"
     class="SlurSegment" />
  <path
     id="path21884"
     d="m 1602.6,26.516 c 40.86,-25.855 106.04,-9.925 130.37,31.86 -25.74,-36.008 -90.92,-51.938 -130.37,-31.86"
     fill-rule="evenodd"
     stroke-linejoin="round"
     stroke-linecap="round"
     stroke-width="1.49"
     stroke="#000000"
     class="SlurSegment" />
  <path
     id="path21886"
     d="m 1772.87,90.236 c -0.63,-21.239 19.32,-37.169 39.89,-31.86 -16.86,-0.661 -36.81,15.269 -39.89,31.86"
     fill-rule="evenodd"
     stroke-linejoin="round"
     stroke-linecap="round"
     stroke-width="1.49"
     stroke="#000000"
     class="SlurSegment" />
  <path
     id="path21888"
     d="m 1873.84,68.996 c 4.56,-14.972 28.5,-21.344 39.9,-10.62 -9.87,-4.977 -33.81,1.395 -39.9,10.62"
     fill-rule="evenodd"
     stroke-linejoin="round"
     stroke-linecap="round"
     stroke-width="1.49"
     stroke="#000000"
     class="SlurSegment" />
  <path
     id="path21890"
     d="m 2091.03,79.616 c 49.83,-26.723 129.63,-5.483 159.59,42.48 C 2219.13,79.88 2139.33,58.64 2091.03,79.616"
     fill-rule="evenodd"
     stroke-linejoin="round"
     stroke-linecap="round"
     stroke-width="1.49"
     stroke="#000000"
     class="SlurSegment" />
  <polyline
     transform="translate(-360,-432.194)"
     id="polyline21896"
     points="802.437,519.138 802.437,606.434"
     stroke-linejoin="bevel"
     stroke-width="3.82"
     stroke="#000000"
     class="BarLine" />
  <polyline
     transform="translate(-360,-432.194)"
     id="polyline21898"
     points="1823.5,519.138 1823.5,606.434"
     stroke-linejoin="bevel"
     stroke-width="3.82"
     stroke="#000000"
     class="BarLine" />
  <path
     style="stroke-width:0.8496"
     id="path21906"
     d="m 217.77268,153.44624 c 0.50976,-0.085 0.93456,-0.67968 0.93456,-1.18944 v -5.01264 c 0,-0.67968 -0.50976,-1.18944 -1.18944,-1.18944 h -0.16992 l -2.80368,0.59472 V 133.9904 h -2.37888 v 13.1688 l -7.56144,1.52928 V 136.70912 H 202.225 v 12.48912 l -3.31344,0.67968 c -0.50976,0.085 -0.93456,0.67968 -0.93456,1.18944 v 0.16992 4.92768 -0.16992 c 0,0.67968 0.50976,1.18944 1.18944,1.18944 h 0.25488 l 2.80368,-0.59472 v 14.0184 l -3.31344,0.67968 c -0.50976,0.085 -0.93456,0.67968 -0.93456,1.18944 v 4.92768 c 0,0.67968 0.50976,1.18944 1.18944,1.18944 h 0.25488 l 2.80368,-0.59472 v 12.65904 h 2.37888 v -13.1688 l 7.56144,-1.52928 V 187.94 h 2.37888 v -12.48912 l 3.22848,-0.59472 c 0.50976,-0.085 0.93456,-0.67968 0.93456,-1.18944 v -5.01264 c 0,-0.67968 -0.50976,-1.18944 -1.18944,-1.18944 h -0.16992 l -2.80368,0.59472 v -14.0184 l 3.22848,-0.59472 m -13.1688,16.73712 V 156.08 l 7.56144,-1.52928 v 14.0184 l -7.56144,1.61424"
     class="Accidental" />
  <path
     style="stroke-width:0.8496"
     id="path21908"
     d="m 479.90496,92.02016 c -0.50976,-3.31344 -2.5488,-6.45696 -6.88176,-6.45696 -4.248,0 -6.71184,2.63376 -7.13664,3.14352 l 0.33984,-27.27216 c 0,-0.67968 -0.50976,-1.18944 -1.18944,-1.18944 h -1.01952 c -0.67968,0 -1.18944,0.50976 -1.18944,1.18944 l 0.4248,51.06096 c 0,0.67968 0.50976,1.18944 1.18944,1.18944 0.16992,0 0.50976,-0.085 0.67968,-0.16992 0.33984,-0.16992 5.86224,-2.88864 10.45008,-8.0712 3.22848,-3.65328 4.50288,-7.81632 4.50288,-11.29968 0,-0.76464 -0.085,-1.44432 -0.16992,-2.124 m -5.86224,3.31344 c 0,1.2744 -0.33984,5.18256 -2.46384,8.41104 -1.44432,2.20896 -4.33296,4.50288 -5.9472,5.77728 l 0.25488,-16.5672 c 0.16992,-0.76464 1.44432,-3.22848 4.84272,-3.22848 3.05856,0 3.31344,2.88864 3.31344,4.6728 v 0.93456"
     class="Accidental" />
  <path
     style="stroke-width:0.8496"
     id="path21910"
     d="m 1176.1957,153.44624 c 0.5097,-0.085 0.9345,-0.67968 0.9345,-1.18944 v -5.01264 c 0,-0.67968 -0.5097,-1.18944 -1.1894,-1.18944 h -0.1699 l -2.8037,0.59472 V 133.9904 h -2.3789 v 13.1688 l -7.5614,1.52928 v -11.97936 h -2.3789 v 12.48912 l -3.3134,0.67968 c -0.5098,0.085 -0.9346,0.67968 -0.9346,1.18944 v 0.16992 4.92768 -0.16992 c 0,0.67968 0.5098,1.18944 1.1894,1.18944 h 0.2549 l 2.8037,-0.59472 v 14.0184 l -3.3134,0.67968 c -0.5098,0.085 -0.9346,0.67968 -0.9346,1.18944 v 4.92768 c 0,0.67968 0.5098,1.18944 1.1894,1.18944 h 0.2549 l 2.8037,-0.59472 v 12.65904 h 2.3789 v -13.1688 l 7.5614,-1.52928 V 187.94 h 2.3789 v -12.48912 l 3.2285,-0.59472 c 0.5097,-0.085 0.9345,-0.67968 0.9345,-1.18944 v -5.01264 c 0,-0.67968 -0.5097,-1.18944 -1.1894,-1.18944 h -0.1699 l -2.8037,0.59472 v -14.0184 l 3.2285,-0.59472 m -13.1688,16.73712 V 156.08 l 7.5614,-1.52928 v 14.0184 l -7.5614,1.61424"
     class="Accidental" />
  <path
     style="stroke-width:0.8496"
     id="path21912"
     d="m 1313.2457,79.10624 c 0.5097,-0.08496 0.9345,-0.67968 0.9345,-1.18944 v -5.01264 c 0,-0.67968 -0.5097,-1.18944 -1.1894,-1.18944 h -0.1699 l -2.8037,0.59472 V 59.6504 h -2.3789 v 13.1688 l -7.5614,1.52928 V 62.36912 h -2.3789 v 12.48912 l -3.3134,0.67968 c -0.5098,0.08496 -0.9346,0.67968 -0.9346,1.18944 v 0.16992 4.92768 -0.16992 c 0,0.67968 0.5098,1.18944 1.1894,1.18944 h 0.2549 l 2.8037,-0.59472 v 14.0184 l -3.3134,0.67968 c -0.5098,0.08496 -0.9346,0.67968 -0.9346,1.18944 v 4.92768 c 0,0.67968 0.5098,1.18944 1.1894,1.18944 h 0.2549 l 2.8037,-0.59472 v 12.65904 h 2.3789 v -13.1688 l 7.5614,-1.52928 V 113.6 h 2.3789 v -12.48912 l 3.2285,-0.59472 c 0.5097,-0.085 0.9345,-0.67968 0.9345,-1.18944 v -5.01264 c 0,-0.67968 -0.5097,-1.18944 -1.1894,-1.18944 h -0.1699 l -2.8037,0.59472 v -14.0184 l 3.2285,-0.59472 m -13.1688,16.73712 V 81.74 l 7.5614,-1.52928 v 14.0184 l -7.5614,1.61424"
     class="Accidental" />
  <path
     style="stroke-width:0.8496"
     id="path21914"
     d="m 1853.7957,79.10624 c 0.5097,-0.08496 0.9345,-0.67968 0.9345,-1.18944 v -5.01264 c 0,-0.67968 -0.5097,-1.18944 -1.1894,-1.18944 h -0.1699 l -2.8037,0.59472 V 59.6504 h -2.3789 v 13.1688 l -7.5614,1.52928 V 62.36912 h -2.3789 v 12.48912 l -3.3134,0.67968 C 1834.4248,75.62288 1834,76.2176 1834,76.72736 v 0.16992 4.92768 -0.16992 c 0,0.67968 0.5098,1.18944 1.1894,1.18944 h 0.2549 l 2.8037,-0.59472 v 14.0184 l -3.3134,0.67968 C 1834.4248,97.0328 1834,97.62752 1834,98.13728 v 4.92768 c 0,0.67968 0.5098,1.18944 1.1894,1.18944 h 0.2549 l 2.8037,-0.59472 v 12.65904 h 2.3789 v -13.1688 l 7.5614,-1.52928 V 113.6 h 2.3789 v -12.48912 l 3.2285,-0.59472 c 0.5097,-0.085 0.9345,-0.67968 0.9345,-1.18944 v -5.01264 c 0,-0.67968 -0.5097,-1.18944 -1.1894,-1.18944 h -0.1699 l -2.8037,0.59472 v -14.0184 l 3.2285,-0.59472 m -13.1688,16.73712 V 81.74 l 7.5614,-1.52928 v 14.0184 l -7.5614,1.61424"
     class="Accidental" />
  <path
     style="stroke-width:0.8496"
     id="path21916"
     d="m 2071.747,92.02016 c -0.5098,-3.31344 -2.5488,-6.45696 -6.8818,-6.45696 -4.248,0 -6.7118,2.63376 -7.1366,3.14352 l 0.3398,-27.27216 c 0,-0.67968 -0.5098,-1.18944 -1.1894,-1.18944 h -1.0196 c -0.6796,0 -1.1894,0.50976 -1.1894,1.18944 l 0.4248,51.06096 c 0,0.67968 0.5098,1.18944 1.1894,1.18944 0.17,0 0.5098,-0.085 0.6797,-0.16992 0.3399,-0.16992 5.8623,-2.88864 10.4501,-8.0712 3.2285,-3.65328 4.5029,-7.81632 4.5029,-11.29968 0,-0.76464 -0.085,-1.44432 -0.1699,-2.124 m -5.8623,3.31344 c 0,1.2744 -0.3398,5.18256 -2.4638,8.41104 -1.4443,2.20896 -4.333,4.50288 -5.9472,5.77728 l 0.2549,-16.5672 c 0.1699,-0.76464 1.4443,-3.22848 4.8427,-3.22848 3.0585,0 3.3134,2.88864 3.3134,4.6728 v 0.93456"
     class="Accidental" />
  <polyline
     transform="translate(-360,-432.194)"
     id="polyline21930"
     points="1709.45,499.066 1751.92,499.066"
     stroke-linejoin="bevel"
     stroke-width="3.4"
     stroke="#000000"
     class="LedgerLine" />
  <polyline
     transform="translate(-360,-432.194)"
     id="polyline21932"
     points="1754.69,499.066 1797.16,499.066"
     stroke-linejoin="bevel"
     stroke-width="3.4"
     stroke="#000000"
     class="LedgerLine" />
  <polyline
     transform="translate(-360,-432.194)"
     id="polyline21934"
     points="1754.69,477.826 1797.16,477.826"
     stroke-linejoin="bevel"
     stroke-width="3.4"
     stroke="#000000"
     class="LedgerLine" />
  <polyline
     transform="translate(-360,-432.194)"
     id="polyline21936"
     points="1850.9,499.066 1893.37,499.066"
     stroke-linejoin="bevel"
     stroke-width="3.4"
     stroke="#000000"
     class="LedgerLine" />
  <polyline
     transform="translate(-360,-432.194)"
     id="polyline21938"
     points="1896.13,499.066 1938.6,499.066"
     stroke-linejoin="bevel"
     stroke-width="3.4"
     stroke="#000000"
     class="LedgerLine" />
  <polyline
     transform="translate(-360,-432.194)"
     id="polyline21940"
     points="1941.37,499.066 1983.84,499.066"
     stroke-linejoin="bevel"
     stroke-width="3.4"
     stroke="#000000"
     class="LedgerLine" />
  <polyline
     transform="translate(-360,-432.194)"
     id="polyline21942"
     points="1941.37,477.826 1983.84,477.826"
     stroke-linejoin="bevel"
     stroke-width="3.4"
     stroke="#000000"
     class="LedgerLine" />
  <polyline
     transform="translate(-360,-432.194)"
     id="polyline21944"
     points="1986.6,499.066 2029.07,499.066"
     stroke-linejoin="bevel"
     stroke-width="3.4"
     stroke="#000000"
     class="LedgerLine" />
  <polyline
     transform="translate(-360,-432.194)"
     id="polyline21946"
     points="2031.83,499.066 2074.31,499.066"
     stroke-linejoin="bevel"
     stroke-width="3.4"
     stroke="#000000"
     class="LedgerLine" />
  <polyline
     transform="translate(-360,-432.194)"
     id="polyline21948"
     points="2292.4,499.066 2334.87,499.066"
     stroke-linejoin="bevel"
     stroke-width="3.4"
     stroke="#000000"
     class="LedgerLine" />
  <polyline
     transform="translate(-360,-432.194)"
     id="polyline21970"
     points="524.106,618.741 524.106,684.916"
     stroke-linejoin="bevel"
     stroke-width="2.34"
     stroke="#000000"
     class="Stem" />
  <polyline
     transform="translate(-360,-432.194)"
     id="polyline21972"
     points="585.184,597.501 585.184,674.508"
     stroke-linejoin="bevel"
     stroke-width="2.34"
     stroke="#000000"
     class="Stem" />
  <polyline
     transform="translate(-360,-432.194)"
     id="polyline21974"
     points="624.445,586.881 624.445,667.817"
     stroke-linejoin="bevel"
     stroke-width="2.34"
     stroke="#000000"
     class="Stem" />
  <polyline
     transform="translate(-360,-432.194)"
     id="polyline21976"
     points="663.706,565.641 663.706,661.127"
     stroke-linejoin="bevel"
     stroke-width="2.34"
     stroke="#000000"
     class="Stem" />
  <polyline
     transform="translate(-360,-432.194)"
     id="polyline21978"
     points="702.967,544.401 702.967,654.436"
     stroke-linejoin="bevel"
     stroke-width="2.34"
     stroke="#000000"
     class="Stem" />
  <polyline
     transform="translate(-360,-432.194)"
     id="polyline21980"
     points="742.229,512.541 742.229,647.746"
     stroke-linejoin="bevel"
     stroke-width="2.34"
     stroke="#000000"
     class="Stem" />
  <polyline
     transform="translate(-360,-432.194)"
     id="polyline21982"
     points="846.55,533.781 846.55,605.266"
     stroke-linejoin="bevel"
     stroke-width="2.34"
     stroke="#000000"
     class="Stem" />
  <polyline
     transform="translate(-360,-432.194)"
     id="polyline21984"
     points="883.943,544.401 883.943,605.266"
     stroke-linejoin="bevel"
     stroke-width="2.34"
     stroke="#000000"
     class="Stem" />
  <polyline
     transform="translate(-360,-432.194)"
     id="polyline21986"
     points="921.336,533.781 921.336,605.266"
     stroke-linejoin="bevel"
     stroke-width="2.34"
     stroke="#000000"
     class="Stem" />
  <polyline
     transform="translate(-360,-432.194)"
     id="polyline21988"
     points="958.728,523.161 958.728,605.266"
     stroke-linejoin="bevel"
     stroke-width="2.34"
     stroke="#000000"
     class="Stem" />
  <polyline
     transform="translate(-360,-432.194)"
     id="polyline21990"
     points="996.121,512.541 996.121,605.266"
     stroke-linejoin="bevel"
     stroke-width="2.34"
     stroke="#000000"
     class="Stem" />
  <polyline
     transform="translate(-360,-432.194)"
     id="polyline21992"
     points="1033.51,533.781 1033.51,605.266"
     stroke-linejoin="bevel"
     stroke-width="2.34"
     stroke="#000000"
     class="Stem" />
  <polyline
     transform="translate(-360,-432.194)"
     id="polyline21994"
     points="1070.91,555.021 1070.91,626.506"
     stroke-linejoin="bevel"
     stroke-width="2.34"
     stroke="#000000"
     class="Stem" />
  <polyline
     transform="translate(-360,-432.194)"
     id="polyline21996"
     points="1108.3,565.641 1108.3,626.506"
     stroke-linejoin="bevel"
     stroke-width="2.34"
     stroke="#000000"
     class="Stem" />
  <polyline
     transform="translate(-360,-432.194)"
     id="polyline21998"
     points="1145.99,555.021 1145.99,626.506"
     stroke-linejoin="bevel"
     stroke-width="2.34"
     stroke="#000000"
     class="Stem" />
  <polyline
     transform="translate(-360,-432.194)"
     id="polyline22000"
     points="1183.38,544.401 1183.38,626.506"
     stroke-linejoin="bevel"
     stroke-width="2.34"
     stroke="#000000"
     class="Stem" />
  <polyline
     transform="translate(-360,-432.194)"
     id="polyline22002"
     points="1220.78,533.781 1220.78,626.506"
     stroke-linejoin="bevel"
     stroke-width="2.34"
     stroke="#000000"
     class="Stem" />
  <polyline
     transform="translate(-360,-432.194)"
     id="polyline22004"
     points="1258.17,555.021 1258.17,626.506"
     stroke-linejoin="bevel"
     stroke-width="2.34"
     stroke="#000000"
     class="Stem" />
  <polyline
     transform="translate(-360,-432.194)"
     id="polyline22006"
     points="1320.83,570.687 1320.83,483.136"
     stroke-linejoin="bevel"
     stroke-width="2.34"
     stroke="#000000"
     class="Stem" />
  <polyline
     transform="translate(-360,-432.194)"
     id="polyline22008"
     points="1358.22,581.307 1358.22,483.136"
     stroke-linejoin="bevel"
     stroke-width="2.34"
     stroke="#000000"
     class="Stem" />
  <polyline
     transform="translate(-360,-432.194)"
     id="polyline22010"
     points="1395.62,570.687 1395.62,483.136"
     stroke-linejoin="bevel"
     stroke-width="2.34"
     stroke="#000000"
     class="Stem" />
  <polyline
     transform="translate(-360,-432.194)"
     id="polyline22012"
     points="1433.01,560.067 1433.01,483.136"
     stroke-linejoin="bevel"
     stroke-width="2.34"
     stroke="#000000"
     class="Stem" />
  <polyline
     transform="translate(-360,-432.194)"
     id="polyline22014"
     points="1470.4,549.447 1470.4,483.136"
     stroke-linejoin="bevel"
     stroke-width="2.34"
     stroke="#000000"
     class="Stem" />
  <polyline
     transform="translate(-360,-432.194)"
     id="polyline22016"
     points="1507.8,570.687 1507.8,483.136"
     stroke-linejoin="bevel"
     stroke-width="2.34"
     stroke="#000000"
     class="Stem" />
  <polyline
     transform="translate(-360,-432.194)"
     id="polyline22018"
     points="1543.6,597.501 1543.6,663.676"
     stroke-linejoin="bevel"
     stroke-width="2.34"
     stroke="#000000"
     class="Stem" />
  <polyline
     transform="translate(-360,-432.194)"
     id="polyline22020"
     points="1581,576.261 1581,657.349"
     stroke-linejoin="bevel"
     stroke-width="2.34"
     stroke="#000000"
     class="Stem" />
  <polyline
     transform="translate(-360,-432.194)"
     id="polyline22022"
     points="1618.39,544.401 1618.39,651.023"
     stroke-linejoin="bevel"
     stroke-width="2.34"
     stroke="#000000"
     class="Stem" />
  <polyline
     transform="translate(-360,-432.194)"
     id="polyline22024"
     points="1680.66,523.161 1680.66,640.486"
     stroke-linejoin="bevel"
     stroke-width="2.34"
     stroke="#000000"
     class="Stem" />
  <polyline
     transform="translate(-360,-432.194)"
     id="polyline22026"
     points="1718.05,501.921 1718.05,634.16"
     stroke-linejoin="bevel"
     stroke-width="2.34"
     stroke="#000000"
     class="Stem" />
  <polyline
     transform="translate(-360,-432.194)"
     id="polyline22028"
     points="1763.29,480.681 1763.29,626.506"
     stroke-linejoin="bevel"
     stroke-width="2.34"
     stroke="#000000"
     class="Stem" />
  <polyline
     transform="translate(-360,-432.194)"
     id="polyline22030"
     points="1859.5,491.301 1859.5,557.476"
     stroke-linejoin="bevel"
     stroke-width="2.34"
     stroke="#000000"
     class="Stem" />
  <polyline
     transform="translate(-360,-432.194)"
     id="polyline22032"
     points="1904.73,501.921 1904.73,561.827"
     stroke-linejoin="bevel"
     stroke-width="2.34"
     stroke="#000000"
     class="Stem" />
  <polyline
     transform="translate(-360,-432.194)"
     id="polyline22034"
     points="1949.97,480.681 1949.97,566.177"
     stroke-linejoin="bevel"
     stroke-width="2.34"
     stroke="#000000"
     class="Stem" />
  <polyline
     transform="translate(-360,-432.194)"
     id="polyline22036"
     points="1995.2,491.301 1995.2,570.528"
     stroke-linejoin="bevel"
     stroke-width="2.34"
     stroke="#000000"
     class="Stem" />
  <polyline
     transform="translate(-360,-432.194)"
     id="polyline22038"
     points="2040.44,501.921 2040.44,574.879"
     stroke-linejoin="bevel"
     stroke-width="2.34"
     stroke="#000000"
     class="Stem" />
  <polyline
     transform="translate(-360,-432.194)"
     id="polyline22040"
     points="2080.33,512.541 2080.33,578.716"
     stroke-linejoin="bevel"
     stroke-width="2.34"
     stroke="#000000"
     class="Stem" />
  <polyline
     transform="translate(-360,-432.194)"
     id="polyline22042"
     points="2120.23,544.401 2120.23,605.266"
     stroke-linejoin="bevel"
     stroke-width="2.34"
     stroke="#000000"
     class="Stem" />
  <polyline
     transform="translate(-360,-432.194)"
     id="polyline22044"
     points="2160.13,512.541 2160.13,601.426"
     stroke-linejoin="bevel"
     stroke-width="2.34"
     stroke="#000000"
     class="Stem" />
  <polyline
     transform="translate(-360,-432.194)"
     id="polyline22046"
     points="2221.21,523.161 2221.21,595.547"
     stroke-linejoin="bevel"
     stroke-width="2.34"
     stroke="#000000"
     class="Stem" />
  <polyline
     transform="translate(-360,-432.194)"
     id="polyline22048"
     points="2261.11,512.541 2261.11,591.707"
     stroke-linejoin="bevel"
     stroke-width="2.34"
     stroke="#000000"
     class="Stem" />
  <polyline
     transform="translate(-360,-432.194)"
     id="polyline22050"
     points="2301,501.921 2301,587.866"
     stroke-linejoin="bevel"
     stroke-width="2.34"
     stroke="#000000"
     class="Stem" />
  <polyline
     transform="translate(-360,-432.194)"
     id="polyline22052"
     points="2340.9,523.161 2340.9,584.026"
     stroke-linejoin="bevel"
     stroke-width="2.34"
     stroke="#000000"
     class="Stem" />
  <polyline
     transform="translate(-360,-432.194)"
     id="polyline22054"
     points="2380.8,512.541 2380.8,605.266"
     stroke-linejoin="bevel"
     stroke-width="2.34"
     stroke="#000000"
     class="Stem" />
  <polyline
     transform="translate(-360,-432.194)"
     id="polyline22056"
     points="2438.39,533.781 2438.39,615.123"
     stroke-linejoin="bevel"
     stroke-width="2.34"
     stroke="#000000"
     class="Stem" />
  <polyline
     transform="translate(-360,-432.194)"
     id="polyline22058"
     points="2478.29,544.401 2478.29,621.951"
     stroke-linejoin="bevel"
     stroke-width="2.34"
     stroke="#000000"
     class="Stem" />
  <polyline
     transform="translate(-360,-432.194)"
     id="polyline22060"
     points="2518.19,555.021 2518.19,628.779"
     stroke-linejoin="bevel"
     stroke-width="2.34"
     stroke="#000000"
     class="Stem" />
  <polyline
     transform="translate(-360,-432.194)"
     id="polyline22062"
     points="2558.08,565.641 2558.08,635.608"
     stroke-linejoin="bevel"
     stroke-width="2.34"
     stroke="#000000"
     class="Stem" />
  <polyline
     transform="translate(-360,-432.194)"
     id="polyline22064"
     points="2597.98,576.261 2597.98,642.436"
     stroke-linejoin="bevel"
     stroke-width="2.34"
     stroke="#000000"
     class="Stem" />
  <polyline
     transform="translate(-360,-432.194)"
     id="polyline22066"
     points="2637.88,565.641 2637.88,637.126"
     stroke-linejoin="bevel"
     stroke-width="2.34"
     stroke="#000000"
     class="Stem" />
  <path
     style="stroke-width:0.8496"
     id="path22154"
     d="m 189.6994,176.81024 c -1.52928,-2.80368 -4.75776,-4.33296 -8.66592,-4.33296 -2.88864,0 -6.03216,0.8496 -9.09072,2.46384 -5.60736,2.9736 -9.00576,7.98624 -9.00576,12.3192 0,1.18944 0.25488,2.37888 0.8496,3.48336 1.52928,2.80368 4.75776,4.248 8.66592,4.248 2.88864,0 6.03216,-0.76464 9.09072,-2.37888 5.60736,-2.9736 9.00576,-7.98624 9.00576,-12.3192 0,-1.18944 -0.25488,-2.37888 -0.8496,-3.48336"
     class="Note" />
  <path
     style="stroke-width:0.8496"
     id="path22156"
     d="m 250.7784,155.57024 c -1.52928,-2.80368 -4.75776,-4.33296 -8.66592,-4.33296 -2.88864,0 -6.03216,0.8496 -9.09072,2.46384 -5.60736,2.9736 -9.00576,7.98624 -9.00576,12.3192 0,1.18944 0.25488,2.37888 0.8496,3.48336 1.52928,2.80368 4.75776,4.248 8.66592,4.248 2.88864,0 6.03216,-0.76464 9.09072,-2.37888 5.60736,-2.9736 9.00576,-7.98624 9.00576,-12.3192 0,-1.18944 -0.25488,-2.37888 -0.8496,-3.48336"
     class="Note" />
  <path
     style="stroke-width:0.8496"
     id="path22158"
     d="m 290.0394,144.95024 c -1.52928,-2.80368 -4.75776,-4.33296 -8.66592,-4.33296 -2.88864,0 -6.03216,0.8496 -9.09072,2.46384 -5.60736,2.9736 -9.00576,7.98624 -9.00576,12.3192 0,1.18944 0.25488,2.37888 0.8496,3.48336 1.52928,2.80368 4.75776,4.248 8.66592,4.248 2.88864,0 6.03216,-0.76464 9.09072,-2.37888 5.60736,-2.9736 9.00576,-7.98624 9.00576,-12.3192 0,-1.18944 -0.25488,-2.37888 -0.8496,-3.48336"
     class="Note" />
  <path
     style="stroke-width:0.8496"
     id="path22160"
     d="m 329.3004,123.71024 c -1.52928,-2.80368 -4.75776,-4.33296 -8.66592,-4.33296 -2.88864,0 -6.03216,0.8496 -9.09072,2.46384 -5.60736,2.9736 -9.00576,7.98624 -9.00576,12.3192 0,1.18944 0.25488,2.37888 0.8496,3.48336 1.52928,2.80368 4.75776,4.248 8.66592,4.248 2.88864,0 6.03216,-0.76464 9.09072,-2.37888 5.60736,-2.9736 9.00576,-7.98624 9.00576,-12.3192 0,-1.18944 -0.25488,-2.37888 -0.8496,-3.48336"
     class="Note" />
  <path
     style="stroke-width:0.8496"
     id="path22162"
     d="m 368.5614,102.47024 c -1.52928,-2.80368 -4.75776,-4.33296 -8.66592,-4.33296 -2.88864,0 -6.03216,0.8496 -9.09072,2.46384 -5.60736,2.9736 -9.00576,7.98624 -9.00576,12.3192 0,1.18944 0.25488,2.37888 0.8496,3.48336 1.52928,2.80368 4.75776,4.248 8.66592,4.248 2.88864,0 6.03216,-0.76464 9.09072,-2.37888 5.60736,-2.9736 9.00576,-7.98624 9.00576,-12.3192 0,-1.18944 -0.25488,-2.37888 -0.8496,-3.48336"
     class="Note" />
  <path
     style="stroke-width:0.8496"
     id="path22164"
     d="m 407.8224,70.61024 c -1.52928,-2.80368 -4.75776,-4.33296 -8.66592,-4.33296 -2.88864,0 -6.03216,0.8496 -9.09072,2.46384 -5.60736,2.9736 -9.00576,7.98624 -9.00576,12.3192 0,1.18944 0.25488,2.37888 0.8496,3.48336 1.52928,2.80368 4.75776,4.248 8.66592,4.248 2.88864,0 6.03216,-0.76464 9.09072,-2.37888 5.60736,-2.9736 9.00576,-7.98624 9.00576,-12.3192 0,-1.18944 -0.25488,-2.37888 -0.8496,-3.48336"
     class="Note" />
  <path
     style="stroke-width:0.8496"
     id="path22166"
     d="m 512.1444,91.85024 c -1.52928,-2.80368 -4.75776,-4.33296 -8.66592,-4.33296 -2.88864,0 -6.03216,0.8496 -9.09072,2.46384 -5.60736,2.9736 -9.00576,7.98624 -9.00576,12.3192 0,1.18944 0.25488,2.37888 0.8496,3.48336 1.52928,2.80368 4.75776,4.248 8.66592,4.248 2.88864,0 6.03216,-0.76464 9.09072,-2.37888 5.60736,-2.9736 9.00576,-7.98624 9.00576,-12.3192 0,-1.18944 -0.25488,-2.37888 -0.8496,-3.48336"
     class="Note" />
  <path
     style="stroke-width:0.8496"
     id="path22168"
     d="m 549.5374,102.47024 c -1.52928,-2.80368 -4.75776,-4.33296 -8.66592,-4.33296 -2.88864,0 -6.03216,0.8496 -9.09072,2.46384 -5.60736,2.9736 -9.00576,7.98624 -9.00576,12.3192 0,1.18944 0.25488,2.37888 0.8496,3.48336 1.52928,2.80368 4.75776,4.248 8.66592,4.248 2.88864,0 6.03216,-0.76464 9.09072,-2.37888 5.60736,-2.9736 9.00576,-7.98624 9.00576,-12.3192 0,-1.18944 -0.25488,-2.37888 -0.8496,-3.48336"
     class="Note" />
  <path
     style="stroke-width:0.8496"
     id="path22170"
     d="m 586.9294,91.85024 c -1.52928,-2.80368 -4.75776,-4.33296 -8.66592,-4.33296 -2.88864,0 -6.03216,0.8496 -9.09072,2.46384 -5.60736,2.9736 -9.00576,7.98624 -9.00576,12.3192 0,1.18944 0.25488,2.37888 0.8496,3.48336 1.52928,2.80368 4.75776,4.248 8.66592,4.248 2.88864,0 6.03216,-0.76464 9.09072,-2.37888 5.60736,-2.9736 9.00576,-7.98624 9.00576,-12.3192 0,-1.18944 -0.25488,-2.37888 -0.8496,-3.48336"
     class="Note" />
  <path
     style="stroke-width:0.8496"
     id="path22172"
     d="m 624.3224,81.23024 c -1.52928,-2.80368 -4.75776,-4.33296 -8.66592,-4.33296 -2.88864,0 -6.03216,0.8496 -9.09072,2.46384 -5.60736,2.9736 -9.00576,7.98624 -9.00576,12.3192 0,1.18944 0.25488,2.37888 0.8496,3.48336 1.52928,2.80368 4.75776,4.248 8.66592,4.248 2.88864,0 6.03216,-0.76464 9.09072,-2.37888 5.60736,-2.9736 9.00576,-7.98624 9.00576,-12.3192 0,-1.18944 -0.25488,-2.37888 -0.8496,-3.48336"
     class="Note" />
  <path
     style="stroke-width:0.8496"
     id="path22174"
     d="m 661.7154,70.61024 c -1.52928,-2.80368 -4.75776,-4.33296 -8.66592,-4.33296 -2.88864,0 -6.03216,0.8496 -9.09072,2.46384 -5.60736,2.9736 -9.00576,7.98624 -9.00576,12.3192 0,1.18944 0.25488,2.37888 0.8496,3.48336 1.52928,2.80368 4.75776,4.248 8.66592,4.248 2.88864,0 6.03216,-0.76464 9.09072,-2.37888 5.60736,-2.9736 9.00576,-7.98624 9.00576,-12.3192 0,-1.18944 -0.25488,-2.37888 -0.8496,-3.48336"
     class="Note" />
  <path
     style="stroke-width:0.8496"
     id="path22176"
     d="m 699.1124,91.85024 c -1.52928,-2.80368 -4.75776,-4.33296 -8.66592,-4.33296 -2.88864,0 -6.03216,0.8496 -9.09072,2.46384 -5.60736,2.9736 -9.00576,7.98624 -9.00576,12.3192 0,1.18944 0.25488,2.37888 0.8496,3.48336 1.52928,2.80368 4.75776,4.248 8.66592,4.248 2.88864,0 6.03216,-0.76464 9.09072,-2.37888 5.60736,-2.9736 9.00576,-7.98624 9.00576,-12.3192 0,-1.18944 -0.25488,-2.37888 -0.8496,-3.48336"
     class="Note" />
  <path
     style="stroke-width:0.8496"
     id="path22178"
     d="m 736.5024,113.09024 c -1.52928,-2.80368 -4.75776,-4.33296 -8.66592,-4.33296 -2.88864,0 -6.03216,0.8496 -9.09072,2.46384 -5.60736,2.9736 -9.00576,7.98624 -9.00576,12.3192 0,1.18944 0.25488,2.37888 0.8496,3.48336 1.52928,2.80368 4.75776,4.248 8.66592,4.248 2.88864,0 6.03216,-0.76464 9.09072,-2.37888 5.60736,-2.9736 9.00576,-7.98624 9.00576,-12.3192 0,-1.18944 -0.25488,-2.37888 -0.8496,-3.48336"
     class="Note" />
  <path
     style="stroke-width:0.8496"
     id="path22180"
     d="m 773.8924,123.71024 c -1.52928,-2.80368 -4.75776,-4.33296 -8.66592,-4.33296 -2.88864,0 -6.03216,0.8496 -9.09072,2.46384 -5.60736,2.9736 -9.00576,7.98624 -9.00576,12.3192 0,1.18944 0.25488,2.37888 0.8496,3.48336 1.52928,2.80368 4.75776,4.248 8.66592,4.248 2.88864,0 6.03216,-0.76464 9.09072,-2.37888 5.60736,-2.9736 9.00576,-7.98624 9.00576,-12.3192 0,-1.18944 -0.25488,-2.37888 -0.8496,-3.48336"
     class="Note" />
  <path
     style="stroke-width:0.8496"
     id="path22182"
     d="m 811.5824,113.09024 c -1.52928,-2.80368 -4.75776,-4.33296 -8.66592,-4.33296 -2.88864,0 -6.03216,0.8496 -9.09072,2.46384 -5.60736,2.9736 -9.00576,7.98624 -9.00576,12.3192 0,1.18944 0.25488,2.37888 0.8496,3.48336 1.52928,2.80368 4.75776,4.248 8.66592,4.248 2.88864,0 6.03216,-0.76464 9.09072,-2.37888 5.60736,-2.9736 9.00576,-7.98624 9.00576,-12.3192 0,-1.18944 -0.25488,-2.37888 -0.8496,-3.48336"
     class="Note" />
  <path
     style="stroke-width:0.8496"
     id="path22184"
     d="m 848.9824,102.47024 c -1.52928,-2.80368 -4.75776,-4.33296 -8.66592,-4.33296 -2.88864,0 -6.03216,0.8496 -9.09072,2.46384 -5.60736,2.9736 -9.00576,7.98624 -9.00576,12.3192 0,1.18944 0.25488,2.37888 0.8496,3.48336 1.52928,2.80368 4.75776,4.248 8.66592,4.248 2.88864,0 6.03216,-0.76464 9.09072,-2.37888 5.60736,-2.9736 9.00576,-7.98624 9.00576,-12.3192 0,-1.18944 -0.25488,-2.37888 -0.8496,-3.48336"
     class="Note" />
  <path
     style="stroke-width:0.8496"
     id="path22186"
     d="m 886.3724,91.85024 c -1.52928,-2.80368 -4.75776,-4.33296 -8.66592,-4.33296 -2.88864,0 -6.03216,0.8496 -9.09072,2.46384 -5.60736,2.9736 -9.00576,7.98624 -9.00576,12.3192 0,1.18944 0.25488,2.37888 0.8496,3.48336 1.52928,2.80368 4.75776,4.248 8.66592,4.248 2.88864,0 6.03216,-0.76464 9.09072,-2.37888 5.60736,-2.9736 9.00576,-7.98624 9.00576,-12.3192 0,-1.18944 -0.25488,-2.37888 -0.8496,-3.48336"
     class="Note" />
  <path
     style="stroke-width:0.8496"
     id="path22188"
     d="m 923.7624,113.09024 c -1.52928,-2.80368 -4.75776,-4.33296 -8.66592,-4.33296 -2.88864,0 -6.03216,0.8496 -9.09072,2.46384 -5.60736,2.9736 -9.00576,7.98624 -9.00576,12.3192 0,1.18944 0.25488,2.37888 0.8496,3.48336 1.52928,2.80368 4.75776,4.248 8.66592,4.248 2.88864,0 6.03216,-0.76464 9.09072,-2.37888 5.60736,-2.9736 9.00576,-7.98624 9.00576,-12.3192 0,-1.18944 -0.25488,-2.37888 -0.8496,-3.48336"
     class="Note" />
  <path
     style="stroke-width:0.8496"
     id="path22190"
     d="m 961.1524,134.33024 c -1.52928,-2.80368 -4.75776,-4.33296 -8.66592,-4.33296 -2.88864,0 -6.03216,0.8496 -9.09072,2.46384 -5.60736,2.9736 -9.00576,7.98624 -9.00576,12.3192 0,1.18944 0.25488,2.37888 0.8496,3.48336 1.52928,2.80368 4.75776,4.248 8.66592,4.248 2.88864,0 6.03216,-0.76464 9.09072,-2.37888 5.60736,-2.9736 9.00576,-7.98624 9.00576,-12.3192 0,-1.18944 -0.25488,-2.37888 -0.8496,-3.48336"
     class="Note" />
  <path
     style="stroke-width:0.8496"
     id="path22192"
     d="m 998.5524,144.95024 c -1.52928,-2.80368 -4.75776,-4.33296 -8.66592,-4.33296 -2.88864,0 -6.03216,0.8496 -9.09072,2.46384 -5.60736,2.9736 -9.00576,7.98624 -9.00576,12.3192 0,1.18944 0.25488,2.37888 0.8496,3.48336 1.52928,2.80368 4.75776,4.248 8.66592,4.248 2.88864,0 6.03216,-0.76464 9.09072,-2.37888 5.60736,-2.9736 9.00576,-7.98624 9.00576,-12.3192 0,-1.18944 -0.25488,-2.37888 -0.8496,-3.48336"
     class="Note" />
  <path
     style="stroke-width:0.8496"
     id="path22194"
     d="m 1035.9424,134.33024 c -1.5293,-2.80368 -4.7578,-4.33296 -8.6659,-4.33296 -2.8887,0 -6.0322,0.8496 -9.0907,2.46384 -5.6074,2.9736 -9.0058,7.98624 -9.0058,12.3192 0,1.18944 0.2549,2.37888 0.8496,3.48336 1.5293,2.80368 4.7578,4.248 8.6659,4.248 2.8887,0 6.0322,-0.76464 9.0907,-2.37888 5.6074,-2.9736 9.0058,-7.98624 9.0058,-12.3192 0,-1.18944 -0.2549,-2.37888 -0.8496,-3.48336"
     class="Note" />
  <path
     style="stroke-width:0.8496"
     id="path22196"
     d="m 1073.3324,123.71024 c -1.5293,-2.80368 -4.7578,-4.33296 -8.6659,-4.33296 -2.8887,0 -6.0322,0.8496 -9.0907,2.46384 -5.6074,2.9736 -9.0058,7.98624 -9.0058,12.3192 0,1.18944 0.2549,2.37888 0.8496,3.48336 1.5293,2.80368 4.7578,4.248 8.6659,4.248 2.8887,0 6.0322,-0.76464 9.0907,-2.37888 5.6074,-2.9736 9.0058,-7.98624 9.0058,-12.3192 0,-1.18944 -0.2549,-2.37888 -0.8496,-3.48336"
     class="Note" />
  <path
     style="stroke-width:0.8496"
     id="path22198"
     d="m 1110.7324,113.09024 c -1.5293,-2.80368 -4.7578,-4.33296 -8.6659,-4.33296 -2.8887,0 -6.0322,0.8496 -9.0907,2.46384 -5.6074,2.9736 -9.0058,7.98624 -9.0058,12.3192 0,1.18944 0.2549,2.37888 0.8496,3.48336 1.5293,2.80368 4.7578,4.248 8.6659,4.248 2.8887,0 6.0322,-0.76464 9.0907,-2.37888 5.6074,-2.9736 9.0058,-7.98624 9.0058,-12.3192 0,-1.18944 -0.2549,-2.37888 -0.8496,-3.48336"
     class="Note" />
  <path
     style="stroke-width:0.8496"
     id="path22200"
     d="m 1148.1224,134.33024 c -1.5293,-2.80368 -4.7578,-4.33296 -8.6659,-4.33296 -2.8887,0 -6.0322,0.8496 -9.0907,2.46384 -5.6074,2.9736 -9.0058,7.98624 -9.0058,12.3192 0,1.18944 0.2549,2.37888 0.8496,3.48336 1.5293,2.80368 4.7578,4.248 8.6659,4.248 2.8887,0 6.0322,-0.76464 9.0907,-2.37888 5.6074,-2.9736 9.0058,-7.98624 9.0058,-12.3192 0,-1.18944 -0.2549,-2.37888 -0.8496,-3.48336"
     class="Note" />
  <path
     style="stroke-width:0.8496"
     id="path22202"
     d="m 1209.2024,155.57024 c -1.5293,-2.80368 -4.7578,-4.33296 -8.6659,-4.33296 -2.8887,0 -6.0322,0.8496 -9.0907,2.46384 -5.6074,2.9736 -9.0058,7.98624 -9.0058,12.3192 0,1.18944 0.2549,2.37888 0.8496,3.48336 1.5293,2.80368 4.7578,4.248 8.6659,4.248 2.8887,0 6.0322,-0.76464 9.0907,-2.37888 5.6074,-2.9736 9.0058,-7.98624 9.0058,-12.3192 0,-1.18944 -0.2549,-2.37888 -0.8496,-3.48336"
     class="Note" />
  <path
     style="stroke-width:0.8496"
     id="path22204"
     d="m 1246.5924,134.33024 c -1.5293,-2.80368 -4.7578,-4.33296 -8.6659,-4.33296 -2.8887,0 -6.0322,0.8496 -9.0907,2.46384 -5.6074,2.9736 -9.0058,7.98624 -9.0058,12.3192 0,1.18944 0.2549,2.37888 0.8496,3.48336 1.5293,2.80368 4.7578,4.248 8.6659,4.248 2.8887,0 6.0322,-0.76464 9.0907,-2.37888 5.6074,-2.9736 9.0058,-7.98624 9.0058,-12.3192 0,-1.18944 -0.2549,-2.37888 -0.8496,-3.48336"
     class="Note" />
  <path
     style="stroke-width:0.8496"
     id="path22206"
     d="m 1283.9824,102.47024 c -1.5293,-2.80368 -4.7578,-4.33296 -8.6659,-4.33296 -2.8887,0 -6.0322,0.8496 -9.0907,2.46384 -5.6074,2.9736 -9.0058,7.98624 -9.0058,12.3192 0,1.18944 0.2549,2.37888 0.8496,3.48336 1.5293,2.80368 4.7578,4.248 8.6659,4.248 2.8887,0 6.0322,-0.76464 9.0907,-2.37888 5.6074,-2.9736 9.0058,-7.98624 9.0058,-12.3192 0,-1.18944 -0.2549,-2.37888 -0.8496,-3.48336"
     class="Note" />
  <path
     style="stroke-width:0.8496"
     id="path22208"
     d="m 1346.2524,81.23024 c -1.5293,-2.80368 -4.7578,-4.33296 -8.6659,-4.33296 -2.8887,0 -6.0322,0.8496 -9.0907,2.46384 -5.6074,2.9736 -9.0058,7.98624 -9.0058,12.3192 0,1.18944 0.2549,2.37888 0.8496,3.48336 1.5293,2.80368 4.7578,4.248 8.6659,4.248 2.8887,0 6.0322,-0.76464 9.0907,-2.37888 5.6074,-2.9736 9.0058,-7.98624 9.0058,-12.3192 0,-1.18944 -0.2549,-2.37888 -0.8496,-3.48336"
     class="Note" />
  <path
     style="stroke-width:0.8496"
     id="path22210"
     d="m 1383.6524,59.99024 c -1.5293,-2.80368 -4.7578,-4.33296 -8.6659,-4.33296 -2.8887,0 -6.0322,0.8496 -9.0907,2.46384 -5.6074,2.9736 -9.0058,7.98624 -9.0058,12.3192 0,1.18944 0.2549,2.37888 0.8496,3.48336 1.5293,2.80368 4.7578,4.248 8.6659,4.248 2.8887,0 6.0322,-0.76464 9.0907,-2.37888 5.6074,-2.9736 9.0058,-7.98624 9.0058,-12.3192 0,-1.18944 -0.2549,-2.37888 -0.8496,-3.48336"
     class="Note" />
  <path
     style="stroke-width:0.8496"
     id="path22212"
     d="m 1428.8824,38.75024 c -1.5293,-2.80368 -4.7578,-4.33296 -8.6659,-4.33296 -2.8887,0 -6.0322,0.8496 -9.0907,2.46384 -5.6074,2.9736 -9.0058,7.98624 -9.0058,12.3192 0,1.18944 0.2549,2.37888 0.8496,3.48336 1.5293,2.80368 4.7578,4.248 8.6659,4.248 2.8887,0 6.0322,-0.76464 9.0907,-2.37888 5.6074,-2.9736 9.0058,-7.98624 9.0058,-12.3192 0,-1.18944 -0.2549,-2.37888 -0.8496,-3.48336"
     class="Note" />
  <path
     style="stroke-width:0.8496"
     id="path22214"
     d="m 1525.0924,49.37024 c -1.5293,-2.80368 -4.7578,-4.33296 -8.6659,-4.33296 -2.8887,0 -6.0322,0.8496 -9.0907,2.46384 -5.6074,2.9736 -9.0058,7.98624 -9.0058,12.3192 0,1.18944 0.2549,2.37888 0.8496,3.48336 1.5293,2.80368 4.7578,4.248 8.6659,4.248 2.8887,0 6.0322,-0.76464 9.0907,-2.37888 5.6074,-2.9736 9.0058,-7.98624 9.0058,-12.3192 0,-1.18944 -0.2549,-2.37888 -0.8496,-3.48336"
     class="Note" />
  <path
     style="stroke-width:0.8496"
     id="path22216"
     d="m 1570.3324,59.99024 c -1.5293,-2.80368 -4.7578,-4.33296 -8.6659,-4.33296 -2.8887,0 -6.0322,0.8496 -9.0907,2.46384 -5.6074,2.9736 -9.0058,7.98624 -9.0058,12.3192 0,1.18944 0.2549,2.37888 0.8496,3.48336 1.5293,2.80368 4.7578,4.248 8.6659,4.248 2.8887,0 6.0322,-0.76464 9.0907,-2.37888 5.6074,-2.9736 9.0058,-7.98624 9.0058,-12.3192 0,-1.18944 -0.2549,-2.37888 -0.8496,-3.48336"
     class="Note" />
  <path
     style="stroke-width:0.8496"
     id="path22218"
     d="m 1615.5624,38.75024 c -1.5293,-2.80368 -4.7578,-4.33296 -8.6659,-4.33296 -2.8887,0 -6.0322,0.8496 -9.0907,2.46384 -5.6074,2.9736 -9.0058,7.98624 -9.0058,12.3192 0,1.18944 0.2549,2.37888 0.8496,3.48336 1.5293,2.80368 4.7578,4.248 8.6659,4.248 2.8887,0 6.0322,-0.76464 9.0907,-2.37888 5.6074,-2.9736 9.0058,-7.98624 9.0058,-12.3192 0,-1.18944 -0.2549,-2.37888 -0.8496,-3.48336"
     class="Note" />
  <path
     style="stroke-width:0.8496"
     id="path22220"
     d="m 1660.7924,49.37024 c -1.5293,-2.80368 -4.7578,-4.33296 -8.6659,-4.33296 -2.8887,0 -6.0322,0.8496 -9.0907,2.46384 -5.6074,2.9736 -9.0058,7.98624 -9.0058,12.3192 0,1.18944 0.2549,2.37888 0.8496,3.48336 1.5293,2.80368 4.7578,4.248 8.6659,4.248 2.8887,0 6.0322,-0.76464 9.0907,-2.37888 5.6074,-2.9736 9.0058,-7.98624 9.0058,-12.3192 0,-1.18944 -0.2549,-2.37888 -0.8496,-3.48336"
     class="Note" />
  <path
     style="stroke-width:0.8496"
     id="path22222"
     d="m 1706.0324,59.99024 c -1.5293,-2.80368 -4.7578,-4.33296 -8.6659,-4.33296 -2.8887,0 -6.0322,0.8496 -9.0907,2.46384 -5.6074,2.9736 -9.0058,7.98624 -9.0058,12.3192 0,1.18944 0.2549,2.37888 0.8496,3.48336 1.5293,2.80368 4.7578,4.248 8.6659,4.248 2.8887,0 6.0322,-0.76464 9.0907,-2.37888 5.6074,-2.9736 9.0058,-7.98624 9.0058,-12.3192 0,-1.18944 -0.2549,-2.37888 -0.8496,-3.48336"
     class="Note" />
  <path
     style="stroke-width:0.8496"
     id="path22224"
     d="m 1745.9324,70.61024 c -1.5293,-2.80368 -4.7578,-4.33296 -8.6659,-4.33296 -2.8887,0 -6.0322,0.8496 -9.0907,2.46384 -5.6074,2.9736 -9.0058,7.98624 -9.0058,12.3192 0,1.18944 0.2549,2.37888 0.8496,3.48336 1.5293,2.80368 4.7578,4.248 8.6659,4.248 2.8887,0 6.0322,-0.76464 9.0907,-2.37888 5.6074,-2.9736 9.0058,-7.98624 9.0058,-12.3192 0,-1.18944 -0.2549,-2.37888 -0.8496,-3.48336"
     class="Note" />
  <path
     style="stroke-width:0.8496"
     id="path22226"
     d="m 1785.8224,102.47024 c -1.5293,-2.80368 -4.7578,-4.33296 -8.6659,-4.33296 -2.8887,0 -6.0322,0.8496 -9.0907,2.46384 -5.6074,2.9736 -9.0058,7.98624 -9.0058,12.3192 0,1.18944 0.2549,2.37888 0.8496,3.48336 1.5293,2.80368 4.7578,4.248 8.6659,4.248 2.8887,0 6.0322,-0.76464 9.0907,-2.37888 5.6074,-2.9736 9.0058,-7.98624 9.0058,-12.3192 0,-1.18944 -0.2549,-2.37888 -0.8496,-3.48336"
     class="Note" />
  <path
     style="stroke-width:0.8496"
     id="path22228"
     d="m 1825.7224,70.61024 c -1.5293,-2.80368 -4.7578,-4.33296 -8.6659,-4.33296 -2.8887,0 -6.0322,0.8496 -9.0907,2.46384 -5.6074,2.9736 -9.0058,7.98624 -9.0058,12.3192 0,1.18944 0.2549,2.37888 0.8496,3.48336 1.5293,2.80368 4.7578,4.248 8.6659,4.248 2.8887,0 6.0322,-0.76464 9.0907,-2.37888 5.6074,-2.9736 9.0058,-7.98624 9.0058,-12.3192 0,-1.18944 -0.2549,-2.37888 -0.8496,-3.48336"
     class="Note" />
  <path
     style="stroke-width:0.8496"
     id="path22230"
     d="m 1886.8024,81.23024 c -1.5293,-2.80368 -4.7578,-4.33296 -8.6659,-4.33296 -2.8887,0 -6.0322,0.8496 -9.0907,2.46384 -5.6074,2.9736 -9.0058,7.98624 -9.0058,12.3192 0,1.18944 0.2549,2.37888 0.8496,3.48336 1.5293,2.80368 4.7578,4.248 8.6659,4.248 2.8887,0 6.0322,-0.76464 9.0907,-2.37888 5.6074,-2.9736 9.0058,-7.98624 9.0058,-12.3192 0,-1.18944 -0.2549,-2.37888 -0.8496,-3.48336"
     class="Note" />
  <path
     style="stroke-width:0.8496"
     id="path22232"
     d="m 1926.7024,70.61024 c -1.5293,-2.80368 -4.7578,-4.33296 -8.6659,-4.33296 -2.8887,0 -6.0322,0.8496 -9.0907,2.46384 -5.6074,2.9736 -9.0058,7.98624 -9.0058,12.3192 0,1.18944 0.2549,2.37888 0.8496,3.48336 1.5293,2.80368 4.7578,4.248 8.6659,4.248 2.8887,0 6.0322,-0.76464 9.0907,-2.37888 5.6074,-2.9736 9.0058,-7.98624 9.0058,-12.3192 0,-1.18944 -0.2549,-2.37888 -0.8496,-3.48336"
     class="Note" />
  <path
     style="stroke-width:0.8496"
     id="path22234"
     d="m 1966.5924,59.99024 c -1.5293,-2.80368 -4.7578,-4.33296 -8.6659,-4.33296 -2.8887,0 -6.0322,0.8496 -9.0907,2.46384 -5.6074,2.9736 -9.0058,7.98624 -9.0058,12.3192 0,1.18944 0.2549,2.37888 0.8496,3.48336 1.5293,2.80368 4.7578,4.248 8.6659,4.248 2.8887,0 6.0322,-0.76464 9.0907,-2.37888 5.6074,-2.9736 9.0058,-7.98624 9.0058,-12.3192 0,-1.18944 -0.2549,-2.37888 -0.8496,-3.48336"
     class="Note" />
  <path
     style="stroke-width:0.8496"
     id="path22236"
     d="m 2006.4924,81.23024 c -1.5293,-2.80368 -4.7578,-4.33296 -8.6659,-4.33296 -2.8887,0 -6.0322,0.8496 -9.0907,2.46384 -5.6074,2.9736 -9.0058,7.98624 -9.0058,12.3192 0,1.18944 0.2549,2.37888 0.8496,3.48336 1.5293,2.80368 4.7578,4.248 8.6659,4.248 2.8887,0 6.0322,-0.76464 9.0907,-2.37888 5.6074,-2.9736 9.0058,-7.98624 9.0058,-12.3192 0,-1.18944 -0.2549,-2.37888 -0.8496,-3.48336"
     class="Note" />
  <path
     style="stroke-width:0.8496"
     id="path22238"
     d="m 2046.3924,70.61024 c -1.5293,-2.80368 -4.7578,-4.33296 -8.6659,-4.33296 -2.8887,0 -6.0322,0.8496 -9.0907,2.46384 -5.6074,2.9736 -9.0058,7.98624 -9.0058,12.3192 0,1.18944 0.2549,2.37888 0.8496,3.48336 1.5293,2.80368 4.7578,4.248 8.6659,4.248 2.8887,0 6.0322,-0.76464 9.0907,-2.37888 5.6074,-2.9736 9.0058,-7.98624 9.0058,-12.3192 0,-1.18944 -0.2549,-2.37888 -0.8496,-3.48336"
     class="Note" />
  <path
     style="stroke-width:0.8496"
     id="path22240"
     d="m 2103.9824,91.85024 c -1.5293,-2.80368 -4.7578,-4.33296 -8.6659,-4.33296 -2.8887,0 -6.0322,0.8496 -9.0907,2.46384 -5.6074,2.9736 -9.0058,7.98624 -9.0058,12.3192 0,1.18944 0.2549,2.37888 0.8496,3.48336 1.5293,2.80368 4.7578,4.248 8.6659,4.248 2.8887,0 6.0322,-0.76464 9.0907,-2.37888 5.6074,-2.9736 9.0058,-7.98624 9.0058,-12.3192 0,-1.18944 -0.2549,-2.37888 -0.8496,-3.48336"
     class="Note" />
  <path
     style="stroke-width:0.8496"
     id="path22242"
     d="m 2143.8824,102.47024 c -1.5293,-2.80368 -4.7578,-4.33296 -8.6659,-4.33296 -2.8887,0 -6.0322,0.8496 -9.0907,2.46384 -5.6074,2.9736 -9.0058,7.98624 -9.0058,12.3192 0,1.18944 0.2549,2.37888 0.8496,3.48336 1.5293,2.80368 4.7578,4.248 8.6659,4.248 2.8887,0 6.0322,-0.76464 9.0907,-2.37888 5.6074,-2.9736 9.0058,-7.98624 9.0058,-12.3192 0,-1.18944 -0.2549,-2.37888 -0.8496,-3.48336"
     class="Note" />
  <path
     style="stroke-width:0.8496"
     id="path22244"
     d="m 2183.7824,113.09024 c -1.5293,-2.80368 -4.7578,-4.33296 -8.6659,-4.33296 -2.8887,0 -6.0322,0.8496 -9.0907,2.46384 -5.6074,2.9736 -9.0058,7.98624 -9.0058,12.3192 0,1.18944 0.2549,2.37888 0.8496,3.48336 1.5293,2.80368 4.7578,4.248 8.6659,4.248 2.8887,0 6.0322,-0.76464 9.0907,-2.37888 5.6074,-2.9736 9.0058,-7.98624 9.0058,-12.3192 0,-1.18944 -0.2549,-2.37888 -0.8496,-3.48336"
     class="Note" />
  <path
     style="stroke-width:0.8496"
     id="path22246"
     d="m 2223.6824,123.71024 c -1.5293,-2.80368 -4.7578,-4.33296 -8.6659,-4.33296 -2.8887,0 -6.0322,0.8496 -9.0907,2.46384 -5.6074,2.9736 -9.0058,7.98624 -9.0058,12.3192 0,1.18944 0.2549,2.37888 0.8496,3.48336 1.5293,2.80368 4.7578,4.248 8.6659,4.248 2.8887,0 6.0322,-0.76464 9.0907,-2.37888 5.6074,-2.9736 9.0058,-7.98624 9.0058,-12.3192 0,-1.18944 -0.2549,-2.37888 -0.8496,-3.48336"
     class="Note" />
  <path
     style="stroke-width:0.8496"
     id="path22248"
     d="m 2263.5724,134.33024 c -1.5293,-2.80368 -4.7578,-4.33296 -8.6659,-4.33296 -2.8887,0 -6.0322,0.8496 -9.0907,2.46384 -5.6074,2.9736 -9.0058,7.98624 -9.0058,12.3192 0,1.18944 0.2549,2.37888 0.8496,3.48336 1.5293,2.80368 4.7578,4.248 8.6659,4.248 2.8887,0 6.0322,-0.76464 9.0907,-2.37888 5.6074,-2.9736 9.0058,-7.98624 9.0058,-12.3192 0,-1.18944 -0.2549,-2.37888 -0.8496,-3.48336"
     class="Note" />
  <path
     style="stroke-width:0.8496"
     id="path22250"
     d="m 2303.4724,123.71024 c -1.5293,-2.80368 -4.7578,-4.33296 -8.6659,-4.33296 -2.8887,0 -6.0322,0.8496 -9.0907,2.46384 -5.6074,2.9736 -9.0058,7.98624 -9.0058,12.3192 0,1.18944 0.2549,2.37888 0.8496,3.48336 1.5293,2.80368 4.7578,4.248 8.6659,4.248 2.8887,0 6.0322,-0.76464 9.0907,-2.37888 5.6074,-2.9736 9.0058,-7.98624 9.0058,-12.3192 0,-1.18944 -0.2549,-2.37888 -0.8496,-3.48336"
     class="Note" />
  <path
     style="stroke-width:0.8496"
     id="path22338"
     d="m 70.81416,146.84492 c -1.045008,-4.6134 -3.287952,-7.85879 -3.95064,-8.74246 -2.710224,-3.62779 -6.11712,-6.04915 -10.101744,-7.19611 -2.642256,-0.75606 -5.191056,-0.8496 -7.247088,-0.69667 -0.883584,-5.1061 -1.733184,-10.10166 -2.50632,-14.73198 4.63032,-5.24212 7.705872,-10.1698 9.64296,-13.82308 2.948112,-5.590279 3.925152,-9.481447 3.967632,-9.651367 1.461312,-4.426501 1.767168,-10.968421 0.832608,-17.943552 -0.858096,-6.41448 -2.63376,-12.115381 -4.63032,-14.876581 -0.875088,-1.214928 -1.767168,-1.835136 -2.650752,-1.835136 -1.036512,0 -3.169008,1.053504 -5.624352,3.406896 -1.95408,1.86912 -4.732272,5.174064 -6.907248,10.28016 -2.5488,5.998261 -2.727216,14.06088 -2.429856,19.770192 0.322848,6.176592 1.265904,11.010898 1.2744,11.053378 0.01699,0.0764 0.237888,1.35078 0.620208,3.53425 -0.195408,0.19541 -0.399312,0.38232 -0.611712,0.58631 -0.883584,0.8496 -1.894608,1.81806 -3.067056,2.99051 -0.730656,0.73074 -1.537776,1.50379 -2.387376,2.3279 -7.17912,6.91583 -18.045504,17.38282 -18.045504,33.65266 0,3.99312 0.76464,7.74837 2.276911,11.15532 1.350898,3.05856 3.304978,5.84526 5.794289,8.28361 6.567408,6.41448 15.564672,9.14161 21.562848,9.00576 2.50632,-0.0595 4.740768,-0.26346 6.771312,-0.64578 1.554768,8.15616 2.523312,14.12885 2.557296,18.66571 0.03398,5.5309 -1.367856,8.90381 -4.681296,11.2572 -2.064528,1.46981 -4.451904,2.27693 -7.085664,2.40437 -2.200464,0.10195 -4.12056,-0.29736 -5.335488,-0.64561 h -0.0085 c 0,0 -0.246384,-0.068 -0.25488,-0.23789 -0.0085,-0.15301 0.288864,-0.19549 0.29736,-0.19549 h 0.01699 c 1.631232,-0.37374 4.664304,-1.41875 6.66936,-4.22243 1.52928,-2.14099 2.268432,-6.06623 0.705168,-9.41365 -0.943056,-2.03046 -3.075552,-4.53678 -7.850304,-4.9191 -2.115504,-0.16992 -4.044096,0.26329 -5.743296,1.28281 -1.537776,0.91757 -2.812176,2.31091 -3.704256,4.01011 -2.090016,3.99312 -1.6992,8.86133 0.960048,12.12388 2.514816,3.07555 6.439968,5.03804 11.053296,5.53081 0.72216,0.0765 1.44432,0.11045 2.16648,0.11045 3.763728,0 7.501968,-1.01952 10.53504,-2.89714 3.109536,-2.18347 4.910688,-5.56488 5.488416,-10.34804 0.475776,-3.94223 0.144432,-8.96328 -1.045008,-15.81964 -0.305856,-1.77566 -0.76464,-4.34995 -1.325376,-7.54436 4.8852,-1.63132 8.419536,-4.66439 11.622528,-9.63455 2.795184,-4.87663 3.593808,-10.0592 2.37888,-15.41167 m -29.064816,22.25095 c -3.942144,-1.03651 -7.705872,-3.16051 -10.900368,-6.13411 -1.112976,-1.04501 -2.701728,-2.88864 -3.95064,-5.76873 -1.163952,-2.68479 -1.724705,-5.5989 -1.682225,-8.64891 0.05949,-3.98466 1.172465,-8.07977 3.304961,-12.14927 2.480832,-4.74085 6.355008,-9.43914 11.503584,-13.96751 1.23192,-1.0874 2.395872,-2.17489 3.491856,-3.26246 0.645696,3.61938 1.350864,7.60392 2.098512,11.75005 -3.27096,1.07891 -7.30656,3.75515 -9.948816,8.55539 -3.007584,5.58189 -2.88864,10.2717 -2.268432,13.22829 0.798624,3.78927 2.948112,6.98373 5.887728,8.75944 0.790128,0.47569 4.298976,2.28534 5.86224,1.79257 0.314352,-0.10195 0.543744,-0.28886 0.662688,-0.56923 0.433296,-0.99403 -0.433296,-1.53769 -1.758672,-2.35339 -0.50976,-0.31428 -1.078992,-0.67113 -1.6992,-1.1214 -2.820672,-2.11554 -4.052592,-5.89626 -3.14352,-9.61749 0.492768,-2.03904 1.580256,-3.87423 3.14352,-5.31855 1.418832,-1.31688 3.152016,-2.25144 5.174064,-2.7951 1.733184,9.54942 3.48336,19.02246 4.876704,26.1252 0.110448,0.58614 0.229392,1.15537 0.33984,1.7246 -3.721248,0.79013 -7.417008,0.71375 -10.993824,-0.22939 m 9.617472,-28.18973 c 8.79336,-0.39931 12.421152,5.92177 13.177296,10.02532 0.399312,2.14947 0.390816,5.92173 -0.917568,9.49849 -0.994032,2.70173 -3.084048,6.1596 -7.442496,7.90986 -0.05947,-0.35683 -0.12744,-0.72216 -0.195408,-1.08757 -1.308384,-7.45092 -2.956608,-16.78806 -4.621824,-26.3461 M 45.147744,80.63552 c 1.512288,-4.876619 3.840192,-7.637819 5.530896,-9.107627 1.4868,-1.291392 2.88864,-1.894693 3.670272,-1.894693 0.118944,0 0.220896,0.01699 0.305856,0.04248 0.390816,0.118944 0.841104,0.603301 1.240416,1.342453 1.962576,3.644699 1.333872,9.3456 0.195408,13.117739 -1.384848,4.58784 -3.86568,9.362592 -11.34216,17.527248 -0.144432,-0.94306 -0.280368,-1.835136 -0.407808,-2.667659 -1.062,-7.043269 -0.790128,-13.219861 0.80712,-18.359941"
     class="Clef" />
  <path
     style="stroke-width:0.8496"
     id="path22342"
     d="m 109.66996,123.88016 c -0.50976,-3.31344 -2.5488,-6.45696 -6.88176,-6.45696 -4.248,0 -6.71184,2.63376 -7.13664,3.14352 L 95.9914,93.29456 c 0,-0.67968 -0.50976,-1.18944 -1.18944,-1.18944 h -1.01952 c -0.67968,0 -1.18944,0.50976 -1.18944,1.18944 l 0.4248,51.06096 c 0,0.67968 0.50976,1.18944 1.18944,1.18944 0.16992,0 0.50976,-0.085 0.67968,-0.16992 0.33984,-0.16992 5.86224,-2.88864 10.45008,-8.0712 3.22848,-3.65328 4.50288,-7.81632 4.50288,-11.29968 0,-0.76464 -0.085,-1.44432 -0.16992,-2.124 m -5.86224,3.31344 c 0,1.2744 -0.33984,5.18256 -2.46384,8.41104 -1.44432,2.20896 -4.33296,4.50288 -5.9472,5.77728 l 0.25488,-16.5672 c 0.16992,-0.76464 1.44432,-3.22848 4.84272,-3.22848 3.05856,0 3.31344,2.88864 3.31344,4.6728 v 0.93456"
     class="KeySig" />
  <path
     id="path22346"
     d="m 162.937,247.336 220.46,-37.569 v 10.773 l -220.46,37.569 v -10.773"
     fill-rule="evenodd"
     class="Beam" />
  <path
     id="path22348"
     d="m 162.937,231.406 220.46,-37.569 v 10.773 l -220.46,37.569 v -10.773"
     fill-rule="evenodd"
     class="Beam" />
  <path
     id="path22350"
     d="M 485.382,167.762 H 674.68 v 10.62 H 485.382 v -10.62"
     fill-rule="evenodd"
     class="Beam" />
  <path
     id="path22352"
     d="M 485.382,151.832 H 674.68 v 10.62 H 485.382 v -10.62"
     fill-rule="evenodd"
     class="Beam" />
  <path
     id="path22354"
     d="m 709.74,189.002 h 189.6 v 10.62 h -189.6 v -10.62"
     fill-rule="evenodd"
     class="Beam" />
  <path
     id="path22356"
     d="m 709.74,173.072 h 189.6 v 10.62 h -189.6 v -10.62"
     fill-rule="evenodd"
     class="Beam" />
  <path
     id="path22358"
     d="m 959.66,45.632 h 189.3 v 10.62 h -189.3 v -10.62"
     fill-rule="evenodd"
     class="Beam" />
  <path
     id="path22360"
     d="m 959.66,61.562 h 189.3 v 10.62 h -189.3 v -10.62"
     fill-rule="evenodd"
     class="Beam" />
  <path
     id="path22362"
     d="m 1182.44,226.097 222.02,-37.566 v 10.771 l -222.02,37.566 v -10.771"
     fill-rule="evenodd"
     class="Beam" />
  <path
     id="path22364"
     d="m 1182.44,210.167 222.02,-37.566 v 10.771 l -222.02,37.566 v -10.771"
     fill-rule="evenodd"
     class="Beam" />
  <path
     id="path22366"
     d="m 1498.33,119.948 223.17,21.464 v 10.669 l -223.17,-21.464 v -10.669"
     fill-rule="evenodd"
     class="Beam" />
  <path
     id="path22368"
     d="m 1498.33,104.018 223.17,21.464 v 10.669 l -223.17,-21.464 v -10.669"
     fill-rule="evenodd"
     class="Beam" />
  <path
     id="path22370"
     d="m 1759.06,167.738 223.01,-21.465 v 10.669 l -223.01,21.465 v -10.669"
     fill-rule="evenodd"
     class="Beam" />
  <path
     id="path22372"
     d="m 1759.06,151.808 223.01,-21.465 v 10.669 l -223.01,21.465 v -10.669"
     fill-rule="evenodd"
     class="Beam" />
  <path
     id="path22374"
     d="m 2019.63,167.685 219.52,37.57 v 10.774 l -219.52,-37.57 v -10.774"
     fill-rule="evenodd"
     class="Beam" />
  <path
     id="path22376"
     d="m 2019.63,151.755 219.52,37.57 v 10.774 l -219.52,-37.57 v -10.774"
     fill-rule="evenodd"
     class="Beam" />
  <path
     style="stroke-width:0.8496"
     id="path22406"
     d="m 2276.6675,205.58961 c 0,0.57854 0.2745,1.05179 1.2549,1.05179 0.9805,0 1.1572,-0.4316 1.2548,-1.05179 0,0 1.3237,-9.02534 4.5718,-13.7372 3.248,-4.71188 8.5163,-7.39152 12.6258,-12.62676 2.978,-3.79176 4.0433,-8.34562 4.124,-12.78053 0.077,-4.22506 -0.7451,-8.31682 -1.6558,-11.56476 0.2838,-1.79775 0.4528,-3.86483 0.4528,-6.28704 0,-4.81043 -2.1988,-9.40507 -3.7604,-11.84002 -0.4027,-0.62701 -0.8326,-1.52928 -1.7272,-1.0671 -0.8945,0.4621 -0.4962,1.4936 -0.2082,2.29392 1.2388,3.42126 1.819,7.73136 1.8871,9.84772 0.1087,3.38735 -0.1478,6.69399 -3.5548,11.78055 -5.0822,7.58693 -11.8095,11.80944 -14.0099,12.62251 -0.576,0.19872 -1.2549,0.60321 -1.2549,0.81306 v 32.54565 m 19.9656,-43.72808 c 0.2999,4.09082 0.3543,8.17655 -4.445,13.99877 -3.2285,3.91419 -8.4196,7.77308 -12.2292,8.078 l -0.085,0.34927 c 0.053,-0.28215 0.1071,-0.53703 0.1597,-0.74 0.5574,-2.16487 2.1181,-5.12139 5.4443,-8.46202 4.1741,-4.19201 6.7016,-6.88176 8.9989,-9.87065 0.6784,-0.87254 1.646,-2.37489 2.1597,-3.35337 v 0"
     class="Hook" />
  <path
     id="path22408"
     d="m 176.943,53.025 c -4.76,0 -8.228,5.168 -8.228,12.308 0,7.004 3.366,12.138 7.956,12.138 4.76,0 8.092,-4.964 8.092,-12.036 0,-3.604 -0.748,-6.596 -2.176,-8.942 -1.326,-2.142 -3.502,-3.468 -5.644,-3.468 m -0.238,1.462 c 1.122,0 2.21,0.748 3.026,2.108 0.918,1.598 1.224,3.536 1.224,8.194 0,4.794 -0.238,7.038 -0.918,8.534 -0.782,1.666 -2.006,2.686 -3.298,2.686 -1.156,0 -2.21,-0.748 -3.026,-2.108 -0.952,-1.598 -1.224,-3.706 -1.224,-9.282 0,-3.978 0.238,-5.95 0.918,-7.446 0.782,-1.7 2.006,-2.686 3.298,-2.686"
     class="Fingering" />
  <path
     id="path22410"
     d="m 238.312,66.052 c 3.094,-1.122 4.522,-2.856 4.522,-5.576 0,-3.57 -2.72,-5.848 -6.936,-5.848 -3.978,0 -7.004,2.346 -7.004,5.44 0,1.394 0.918,2.38 2.244,2.38 1.19,0 2.006,-0.816 2.006,-2.04 0,-0.748 -0.272,-1.19 -1.054,-1.734 -0.34,-0.238 -0.442,-0.374 -0.442,-0.612 0,-0.952 1.972,-1.972 3.91,-1.972 2.448,0 3.74,1.53 3.74,4.42 0,3.162 -1.292,4.828 -3.706,4.828 -0.306,0 -0.884,-0.034 -1.394,-0.068 -0.272,-0.034 -0.544,-0.034 -0.748,-0.034 -0.714,0 -1.088,0.306 -1.088,0.918 0,0.578 0.34,0.85 1.088,0.85 0.204,0 0.476,0 0.782,-0.034 0.68,-0.034 1.224,-0.034 1.598,-0.034 2.516,0 3.876,1.802 3.876,5.168 0,3.536 -1.7,5.508 -4.76,5.508 -2.142,0 -4.454,-1.156 -4.454,-2.21 0,-0.306 0.068,-0.374 0.714,-0.748 0.952,-0.578 1.326,-1.156 1.326,-2.006 0,-1.224 -0.918,-2.142 -2.142,-2.142 -1.462,0 -2.414,1.19 -2.414,2.992 0,3.298 3.026,5.576 7.378,5.576 4.93,0 8.126,-2.72 8.126,-6.902 0,-3.196 -1.632,-5.134 -5.168,-6.12"
     class="Fingering" />
  <path
     id="path22412"
     d="m 280.154,53.525 -11.56,16.082 v 1.904 h 9.554 v 1.768 c 0,1.734 0,1.802 -0.204,2.108 -0.272,0.374 -0.918,0.476 -2.856,0.476 h -0.374 v 1.598 h 9.928 v -1.598 h -0.136 c -1.938,0 -2.584,-0.102 -2.856,-0.476 -0.204,-0.306 -0.204,-0.34 -0.204,-2.108 v -1.768 h 4.114 v -1.904 h -4.114 v -9.282 c 0,-4.25 0,-4.352 0.17,-6.8 h -1.462 m -2.006,16.082 h -7.48 l 7.48,-10.302 v 10.302"
     class="Fingering" />
  <path
     id="path22414"
     d="m 317.164,53.525 c -1.156,1.394 -4.284,2.448 -7.412,2.516 v 1.462 h 2.992 c 1.972,0.034 2.176,0.238 2.108,2.142 v 13.634 c 0,1.734 0,1.802 -0.204,2.108 -0.272,0.34 -0.918,0.476 -2.822,0.476 h -2.21 v 1.598 h 13.464 v -1.598 h -1.87 c -1.904,0 -2.55,-0.136 -2.822,-0.476 -0.238,-0.306 -0.238,-0.34 -0.238,-2.108 V 59.237 c 0,-1.904 0.068,-3.502 0.238,-5.712 h -1.224"
     class="Fingering" />
  <path
     id="path22416"
     d="m 369.758,65.139 c 0,9.551 -7.743,17.294 -17.294,17.294 -9.552,0 -17.295,-7.743 -17.295,-17.294 0,-9.552 7.743,-17.295 17.295,-17.295 9.551,0 17.294,7.743 17.294,17.295"
     fill-rule="evenodd"
     stroke-miterlimit="2"
     stroke-linejoin="miter"
     stroke-linecap="square"
     stroke-width="2.12"
     stroke="#000000"
     fill="none"
     class="Fingering" />
  <path
     id="path22418"
     d="m 355.538,53.156 -11.56,16.082 v 1.904 h 9.554 v 1.768 c 0,1.734 0,1.802 -0.204,2.108 -0.272,0.374 -0.918,0.476 -2.856,0.476 h -0.374 v 1.598 h 9.928 v -1.598 h -0.136 c -1.938,0 -2.584,-0.102 -2.856,-0.476 -0.204,-0.306 -0.204,-0.34 -0.204,-2.108 v -1.768 h 4.114 v -1.904 h -4.114 v -9.282 c 0,-4.25 0,-4.352 0.17,-6.8 h -1.462 m -2.006,16.082 h -7.48 l 7.48,-10.302 v 10.302"
     class="Fingering" />
  <path
     id="path22420"
     d="m 402.846,48.452 h -1.496 l -0.34,1.734 c -0.442,2.21 -0.714,2.414 -2.822,2.414 h -7.616 c 2.346,-2.448 3.128,-3.162 5.304,-4.862 3.094,-2.38 4.42,-3.57 5.202,-4.59 1.088,-1.496 1.632,-2.992 1.632,-4.658 0,-3.876 -3.196,-6.63 -7.65,-6.63 -4.318,0 -7.616,2.754 -7.616,6.392 0,2.142 1.088,3.604 2.686,3.604 1.258,0 2.108,-0.85 2.108,-2.074 0,-0.85 -0.476,-1.632 -1.19,-1.938 -1.258,-0.51 -1.326,-0.578 -1.326,-1.02 0,-0.51 0.34,-1.292 0.816,-1.87 0.85,-1.054 2.244,-1.632 3.842,-1.632 2.822,0 4.488,1.734 4.488,4.59 0,2.516 -1.19,4.794 -4.012,7.786 -2.516,2.652 -4.08,4.318 -4.658,4.964 -1.224,1.428 -1.836,2.21 -3.332,4.182 v 0.952 H 402.2 l 0.646,-7.344"
     class="Fingering" />
  <path
     id="path22422"
     d="m 507.167,69.692 h -1.496 l -0.34,1.734 c -0.442,2.21 -0.714,2.414 -2.822,2.414 h -7.616 c 2.346,-2.448 3.128,-3.162 5.304,-4.862 3.094,-2.38 4.42,-3.57 5.202,-4.59 1.088,-1.496 1.632,-2.992 1.632,-4.658 0,-3.876 -3.196,-6.63 -7.65,-6.63 -4.318,0 -7.616,2.754 -7.616,6.392 0,2.142 1.088,3.604 2.686,3.604 1.258,0 2.108,-0.85 2.108,-2.074 0,-0.85 -0.476,-1.632 -1.19,-1.938 -1.258,-0.51 -1.326,-0.578 -1.326,-1.02 0,-0.51 0.34,-1.292 0.816,-1.87 0.85,-1.054 2.244,-1.632 3.842,-1.632 2.822,0 4.488,1.734 4.488,4.59 0,2.516 -1.19,4.794 -4.012,7.786 -2.516,2.652 -4.08,4.318 -4.658,4.964 -1.224,1.428 -1.836,2.21 -3.332,4.182 v 0.952 h 15.334 l 0.646,-7.344"
     class="Fingering" />
  <path
     id="path22424"
     d="m 537.4,53.525 c -1.156,1.394 -4.284,2.448 -7.412,2.516 v 1.462 h 2.992 c 1.972,0.034 2.176,0.238 2.108,2.142 v 13.634 c 0,1.734 0,1.802 -0.204,2.108 -0.272,0.34 -0.918,0.476 -2.822,0.476 h -2.21 v 1.598 h 13.464 v -1.598 h -1.87 c -1.904,0 -2.55,-0.136 -2.822,-0.476 -0.238,-0.306 -0.238,-0.34 -0.238,-2.108 V 59.237 c 0,-1.904 0.068,-3.502 0.238,-5.712 H 537.4"
     class="Fingering" />
  <path
     id="path22426"
     d="M 553.722,79.425 V 58.243 l 2.754,7.14 1.802,-0.816 -4.352,-9.724 -2.618,0.034 -4.318,9.69 1.768,0.816 2.788,-7.14 v 21.182 h 2.176 m 22.201,-23.936 c -1.156,1.394 -4.284,2.448 -7.412,2.516 v 1.462 h 2.992 c 1.972,0.034 2.176,0.238 2.108,2.142 v 13.634 c 0,1.734 0,1.802 -0.204,2.108 -0.272,0.34 -0.918,0.476 -2.822,0.476 h -2.21 v 1.598 h 13.464 v -1.598 h -1.87 c -1.904,0 -2.55,-0.136 -2.822,-0.476 -0.238,-0.306 -0.238,-0.34 -0.238,-2.108 V 61.201 c 0,-1.904 0.068,-3.502 0.238,-5.712 h -1.224"
     class="Fingering" />
  <path
     id="path22428"
     d="m 731.52,70.117 h -1.49 l -0.34,1.734 c -0.44,2.21 -0.72,2.414 -2.82,2.414 h -7.62 c 2.35,-2.448 3.13,-3.162 5.3,-4.862 3.1,-2.38 4.42,-3.57 5.21,-4.59 1.08,-1.496 1.63,-2.992 1.63,-4.658 0,-3.876 -3.2,-6.63 -7.65,-6.63 -4.32,0 -7.62,2.754 -7.62,6.392 0,2.142 1.09,3.604 2.69,3.604 1.26,0 2.11,-0.85 2.11,-2.074 0,-0.85 -0.48,-1.632 -1.19,-1.938 -1.26,-0.51 -1.33,-0.578 -1.33,-1.02 0,-0.51 0.34,-1.292 0.82,-1.87 0.85,-1.054 2.24,-1.632 3.84,-1.632 2.82,0 4.49,1.734 4.49,4.59 0,2.516 -1.19,4.794 -4.02,7.786 -2.51,2.652 -4.08,4.318 -4.65,4.964 -1.23,1.428 -1.84,2.21 -3.34,4.182 v 0.952 h 15.34 l 0.64,-7.344"
     class="Fingering" />
  <path
     id="path22430"
     d="m 761.76,53.525 c -1.16,1.394 -4.29,2.448 -7.42,2.516 v 1.462 h 3 c 1.97,0.034 2.17,0.238 2.1,2.142 v 13.634 c 0,1.734 0,1.802 -0.2,2.108 -0.27,0.34 -0.92,0.476 -2.82,0.476 h -2.21 v 1.598 h 13.46 v -1.598 h -1.87 c -1.9,0 -2.55,-0.136 -2.82,-0.476 -0.24,-0.306 -0.24,-0.34 -0.24,-2.108 V 59.237 c 0,-1.904 0.07,-3.502 0.24,-5.712 h -1.22"
     class="Fingering" />
  <path
     id="path22432"
     d="M 777.18,77.461 V 56.279 l 2.76,7.14 1.8,-0.816 -4.35,-9.724 -2.62,0.034 -4.32,9.69 1.77,0.816 2.79,-7.14 v 21.182 h 2.17 m 22.2,-23.936 c -1.15,1.394 -4.28,2.448 -7.41,2.516 v 1.462 h 2.99 c 1.98,0.034 2.18,0.238 2.11,2.142 v 13.634 c 0,1.734 0,1.802 -0.2,2.108 -0.27,0.34 -0.92,0.476 -2.82,0.476 h -2.21 v 1.598 h 13.46 v -1.598 h -1.87 c -1.9,0 -2.55,-0.136 -2.82,-0.476 -0.24,-0.306 -0.24,-0.34 -0.24,-2.108 V 59.237 c 0,-1.904 0.07,-3.502 0.24,-5.712 h -1.23"
     class="Fingering" />
  <path
     id="path22434"
     d="m 948.4,14.687 c -4.76,0 -8.23,5.168 -8.23,12.308 0,7.004 3.37,12.138 7.96,12.138 4.76,0 8.09,-4.964 8.09,-12.036 0,-3.604 -0.75,-6.596 -2.18,-8.942 -1.32,-2.142 -3.5,-3.468 -5.64,-3.468 m -0.24,1.462 c 1.12,0 2.21,0.748 3.03,2.108 0.92,1.598 1.22,3.536 1.22,8.194 0,4.794 -0.24,7.038 -0.92,8.534 -0.78,1.666 -2,2.686 -3.29,2.686 -1.16,0 -2.21,-0.748 -3.03,-2.108 -0.95,-1.598 -1.22,-3.706 -1.22,-9.282 0,-3.978 0.23,-5.95 0.91,-7.446 0.79,-1.7 2.01,-2.686 3.3,-2.686"
     class="Fingering" />
  <path
     id="path22436"
     d="m 1198.82,64.449 c 3.09,-1.122 4.52,-2.856 4.52,-5.576 0,-3.57 -2.72,-5.848 -6.94,-5.848 -3.98,0 -7,2.346 -7,5.44 0,1.394 0.92,2.38 2.24,2.38 1.19,0 2.01,-0.816 2.01,-2.04 0,-0.748 -0.27,-1.19 -1.06,-1.734 -0.34,-0.238 -0.44,-0.374 -0.44,-0.612 0,-0.952 1.97,-1.972 3.91,-1.972 2.45,0 3.74,1.53 3.74,4.42 0,3.162 -1.29,4.828 -3.7,4.828 -0.31,0 -0.89,-0.034 -1.4,-0.068 -0.27,-0.034 -0.54,-0.034 -0.75,-0.034 -0.71,0 -1.08,0.306 -1.08,0.918 0,0.578 0.34,0.85 1.08,0.85 0.21,0 0.48,0 0.79,-0.034 0.68,-0.034 1.22,-0.034 1.59,-0.034 2.52,0 3.88,1.802 3.88,5.168 0,3.536 -1.7,5.508 -4.76,5.508 -2.14,0 -4.45,-1.156 -4.45,-2.21 0,-0.306 0.06,-0.374 0.71,-0.748 0.95,-0.578 1.33,-1.156 1.33,-2.006 0,-1.224 -0.92,-2.142 -2.15,-2.142 -1.46,0 -2.41,1.19 -2.41,2.992 0,3.298 3.03,5.576 7.38,5.576 4.93,0 8.12,-2.72 8.12,-6.902 0,-3.196 -1.63,-5.134 -5.16,-6.12"
     class="Fingering" />
  <path
     id="path22438"
     d="m 1233.83,53.025 c -4.76,0 -8.22,5.168 -8.22,12.308 0,7.004 3.36,12.138 7.95,12.138 4.76,0 8.09,-4.964 8.09,-12.036 0,-3.604 -0.74,-6.596 -2.17,-8.942 -1.33,-2.142 -3.5,-3.468 -5.65,-3.468 m -0.23,1.462 c 1.12,0 2.21,0.748 3.02,2.108 0.92,1.598 1.23,3.536 1.23,8.194 0,4.794 -0.24,7.038 -0.92,8.534 -0.78,1.666 -2.01,2.686 -3.3,2.686 -1.16,0 -2.21,-0.748 -3.03,-2.108 -0.95,-1.598 -1.22,-3.706 -1.22,-9.282 0,-3.978 0.24,-5.95 0.92,-7.446 0.78,-1.7 2,-2.686 3.3,-2.686"
     class="Fingering" />
  <path
     id="path22440"
     d="m 1288.57,57.441 c 0,9.69 -7.86,17.545 -17.55,17.545 -9.69,0 -17.54,-7.855 -17.54,-17.545 0,-9.689 7.85,-17.544 17.54,-17.544 9.69,0 17.55,7.855 17.55,17.544"
     fill-rule="evenodd"
     stroke-miterlimit="2"
     stroke-linejoin="miter"
     stroke-linecap="square"
     stroke-width="2.12"
     stroke="#000000"
     fill="none"
     class="Fingering" />
  <path
     id="path22442"
     d="m 1271.23,45.208 c -4.76,0 -8.23,5.168 -8.23,12.308 0,7.004 3.37,12.138 7.96,12.138 4.76,0 8.09,-4.964 8.09,-12.036 0,-3.604 -0.75,-6.596 -2.18,-8.942 -1.32,-2.142 -3.5,-3.468 -5.64,-3.468 m -0.24,1.462 c 1.12,0 2.21,0.748 3.03,2.108 0.91,1.598 1.22,3.536 1.22,8.194 0,4.794 -0.24,7.038 -0.92,8.534 -0.78,1.666 -2,2.686 -3.3,2.686 -1.15,0 -2.21,-0.748 -3.02,-2.108 -0.95,-1.598 -1.23,-3.706 -1.23,-9.282 0,-3.978 0.24,-5.95 0.92,-7.446 0.78,-1.7 2.01,-2.686 3.3,-2.686"
     class="Fingering" />
  <path
     id="path22444"
     d="m 1341.28,59.072 h -1.5 l -0.34,1.734 c -0.44,2.21 -0.71,2.414 -2.82,2.414 H 1329 c 2.35,-2.448 3.13,-3.162 5.31,-4.862 3.09,-2.38 4.42,-3.57 5.2,-4.59 1.09,-1.496 1.63,-2.992 1.63,-4.658 0,-3.876 -3.19,-6.63 -7.65,-6.63 -4.32,0 -7.61,2.754 -7.61,6.392 0,2.142 1.08,3.604 2.68,3.604 1.26,0 2.11,-0.85 2.11,-2.074 0,-0.85 -0.48,-1.632 -1.19,-1.938 -1.26,-0.51 -1.33,-0.578 -1.33,-1.02 0,-0.51 0.34,-1.292 0.82,-1.87 0.85,-1.054 2.24,-1.632 3.84,-1.632 2.82,0 4.49,1.734 4.49,4.59 0,2.516 -1.19,4.794 -4.01,7.786 -2.52,2.652 -4.08,4.318 -4.66,4.964 -1.22,1.428 -1.84,2.21 -3.33,4.182 v 0.952 h 15.33 l 0.65,-7.344"
     class="Fingering" />
  <path
     id="path22446"
     d="m 1388.23,25.539 c 0,9.689 -7.85,17.544 -17.54,17.544 -9.69,0 -17.55,-7.855 -17.55,-17.544 0,-9.69 7.86,-17.544 17.55,-17.544 9.69,0 17.54,7.854 17.54,17.544"
     fill-rule="evenodd"
     stroke-miterlimit="2"
     stroke-linejoin="miter"
     stroke-linecap="square"
     stroke-width="2.12"
     stroke="#000000"
     fill="none"
     class="Fingering" />
  <path
     id="path22448"
     d="m 1370.89,13.306 c -4.76,0 -8.23,5.168 -8.23,12.308 0,7.004 3.37,12.138 7.96,12.138 4.76,0 8.09,-4.964 8.09,-12.036 0,-3.604 -0.75,-6.596 -2.18,-8.942 -1.32,-2.142 -3.5,-3.468 -5.64,-3.468 m -0.24,1.462 c 1.12,0 2.21,0.748 3.03,2.108 0.92,1.598 1.22,3.536 1.22,8.194 0,4.794 -0.24,7.038 -0.92,8.534 -0.78,1.666 -2,2.686 -3.29,2.686 -1.16,0 -2.21,-0.748 -3.03,-2.108 -0.95,-1.598 -1.22,-3.706 -1.22,-9.282 0,-3.978 0.23,-5.95 0.91,-7.446 0.79,-1.7 2.01,-2.686 3.3,-2.686"
     class="Fingering" />
  <path
     id="path22450"
     d="m 1423.91,16.592 h -1.5 l -0.34,1.734 c -0.44,2.21 -0.71,2.414 -2.82,2.414 h -7.62 c 2.35,-2.448 3.13,-3.162 5.31,-4.862 3.09,-2.38 4.42,-3.57 5.2,-4.59 1.09,-1.496 1.63,-2.992 1.63,-4.658 0,-3.876 -3.2,-6.63 -7.65,-6.63 -4.32,0 -7.62,2.754 -7.62,6.392 0,2.142 1.09,3.604 2.69,3.604 1.26,0 2.11,-0.85 2.11,-2.074 0,-0.85 -0.48,-1.632 -1.19,-1.938 -1.26,-0.51 -1.33,-0.578 -1.33,-1.02 0,-0.51 0.34,-1.292 0.82,-1.87 0.85,-1.054 2.24,-1.632 3.84,-1.632 2.82,0 4.49,1.734 4.49,4.59 0,2.516 -1.19,4.794 -4.01,7.786 -2.52,2.652 -4.08,4.318 -4.66,4.964 -1.23,1.428 -1.84,2.21 -3.33,4.182 v 0.952 h 15.33 l 0.65,-7.344"
     class="Fingering" />
  <path
     id="path22452"
     d="m 1740.95,32.697 h -1.49 l -0.34,1.734 c -0.45,2.21 -0.72,2.414 -2.83,2.414 h -7.61 c 2.34,-2.448 3.13,-3.162 5.3,-4.862 3.1,-2.38 4.42,-3.57 5.2,-4.59 1.09,-1.496 1.64,-2.992 1.64,-4.658 0,-3.876 -3.2,-6.63 -7.65,-6.63 -4.32,0 -7.62,2.754 -7.62,6.392 0,2.142 1.09,3.604 2.69,3.604 1.25,0 2.1,-0.85 2.1,-2.074 0,-0.85 -0.47,-1.632 -1.19,-1.938 -1.25,-0.51 -1.32,-0.578 -1.32,-1.02 0,-0.51 0.34,-1.292 0.81,-1.87 0.85,-1.054 2.25,-1.632 3.85,-1.632 2.82,0 4.48,1.734 4.48,4.59 0,2.516 -1.19,4.794 -4.01,7.786 -2.51,2.652 -4.08,4.318 -4.66,4.964 -1.22,1.428 -1.83,2.21 -3.33,4.182 v 0.952 h 15.34 l 0.64,-7.344"
     class="Fingering" />
  <path
     id="path22454"
     d="m 1775.44,53.829 c 3.1,-1.122 4.53,-2.856 4.53,-5.576 0,-3.57 -2.72,-5.848 -6.94,-5.848 -3.98,0 -7,2.346 -7,5.44 0,1.394 0.91,2.38 2.24,2.38 1.19,0 2.01,-0.816 2.01,-2.04 0,-0.748 -0.28,-1.19 -1.06,-1.734 -0.34,-0.238 -0.44,-0.374 -0.44,-0.612 0,-0.952 1.97,-1.972 3.91,-1.972 2.45,0 3.74,1.53 3.74,4.42 0,3.162 -1.29,4.828 -3.71,4.828 -0.3,0 -0.88,-0.034 -1.39,-0.068 -0.27,-0.034 -0.54,-0.034 -0.75,-0.034 -0.71,0 -1.09,0.306 -1.09,0.918 0,0.578 0.34,0.85 1.09,0.85 0.21,0 0.48,0 0.78,-0.034 0.68,-0.034 1.23,-0.034 1.6,-0.034 2.52,0 3.88,1.802 3.88,5.168 0,3.536 -1.7,5.508 -4.76,5.508 -2.14,0 -4.46,-1.156 -4.46,-2.21 0,-0.306 0.07,-0.374 0.72,-0.748 0.95,-0.578 1.32,-1.156 1.32,-2.006 0,-1.224 -0.91,-2.142 -2.14,-2.142 -1.46,0 -2.41,1.19 -2.41,2.992 0,3.298 3.02,5.576 7.38,5.576 4.93,0 8.12,-2.72 8.12,-6.902 0,-3.196 -1.63,-5.134 -5.17,-6.12"
     class="Fingering" />
  <path
     id="path22456"
     d="m 1820.75,44.204 h -1.5 l -0.34,1.734 c -0.44,2.21 -0.71,2.414 -2.82,2.414 h -7.62 c 2.35,-2.448 3.13,-3.162 5.31,-4.862 3.09,-2.38 4.42,-3.57 5.2,-4.59 1.09,-1.496 1.63,-2.992 1.63,-4.658 0,-3.876 -3.2,-6.63 -7.65,-6.63 -4.32,0 -7.62,2.754 -7.62,6.392 0,2.142 1.09,3.604 2.69,3.604 1.26,0 2.11,-0.85 2.11,-2.074 0,-0.85 -0.48,-1.632 -1.19,-1.938 -1.26,-0.51 -1.33,-0.578 -1.33,-1.02 0,-0.51 0.34,-1.292 0.82,-1.87 0.85,-1.054 2.24,-1.632 3.84,-1.632 2.82,0 4.49,1.734 4.49,4.59 0,2.516 -1.19,4.794 -4.01,7.786 -2.52,2.652 -4.08,4.318 -4.66,4.964 -1.23,1.428 -1.84,2.21 -3.33,4.182 v 0.952 h 15.33 l 0.65,-7.344"
     class="Fingering" />
  <path
     id="path22458"
     d="m 2041.42,48.452 h -1.5 l -0.34,1.734 c -0.44,2.21 -0.71,2.414 -2.82,2.414 h -7.62 c 2.35,-2.448 3.13,-3.162 5.31,-4.862 3.09,-2.38 4.42,-3.57 5.2,-4.59 1.09,-1.496 1.63,-2.992 1.63,-4.658 0,-3.876 -3.2,-6.63 -7.65,-6.63 -4.32,0 -7.62,2.754 -7.62,6.392 0,2.142 1.09,3.604 2.69,3.604 1.26,0 2.11,-0.85 2.11,-2.074 0,-0.85 -0.48,-1.632 -1.19,-1.938 -1.26,-0.51 -1.33,-0.578 -1.33,-1.02 0,-0.51 0.34,-1.292 0.82,-1.87 0.85,-1.054 2.24,-1.632 3.84,-1.632 2.82,0 4.49,1.734 4.49,4.59 0,2.516 -1.19,4.794 -4.01,7.786 -2.52,2.652 -4.08,4.318 -4.66,4.964 -1.23,1.428 -1.84,2.21 -3.33,4.182 v 0.952 h 15.33 l 0.65,-7.344"
     class="Fingering" />
  <path
     id="path22460"
     d="m 2094.1,39.721 -11.56,16.082 v 1.904 h 9.55 v 1.768 c 0,1.734 0,1.802 -0.2,2.108 -0.27,0.374 -0.92,0.476 -2.86,0.476 h -0.37 v 1.598 h 9.93 v -1.598 h -0.14 c -1.94,0 -2.58,-0.102 -2.85,-0.476 -0.21,-0.306 -0.21,-0.34 -0.21,-2.108 v -1.768 h 4.12 v -1.904 h -4.12 v -9.282 c 0,-4.25 0,-4.352 0.17,-6.8 h -1.46 m -2.01,16.082 h -7.48 l 7.48,-10.302 v 10.302"
     class="Fingering" />
  <path
     id="path22462"
     d="m 2110.66,38.574 -2.17,0.034 V 59.79 l -2.79,-7.14 -1.77,0.782 4.32,9.724 h 2.62 l 4.35,-9.724 -1.8,-0.782 -2.76,7.14 V 38.574 m 23.77,0.646 -11.56,16.082 v 1.904 h 9.55 v 1.768 c 0,1.734 0,1.802 -0.2,2.108 -0.28,0.374 -0.92,0.476 -2.86,0.476 h -0.37 v 1.598 h 9.92 v -1.598 h -0.13 c -1.94,0 -2.59,-0.102 -2.86,-0.476 -0.2,-0.306 -0.2,-0.34 -0.2,-2.108 v -1.768 h 4.11 v -1.904 h -4.11 V 46.02 c 0,-4.25 0,-4.352 0.17,-6.8 h -1.46 m -2.01,16.082 h -7.48 L 2132.42,45 v 10.302"
     class="Fingering" />
</svg>
