<?xml version="1.0" encoding="UTF-8" standalone="no"?>
<svg
   xmlns:dc="http://purl.org/dc/elements/1.1/"
   xmlns:cc="http://creativecommons.org/ns#"
   xmlns:rdf="http://www.w3.org/1999/02/22-rdf-syntax-ns#"
   xmlns:svg="http://www.w3.org/2000/svg"
   xmlns="http://www.w3.org/2000/svg"
   xmlns:sodipodi="http://sodipodi.sourceforge.net/DTD/sodipodi-0.dtd"
   xmlns:inkscape="http://www.inkscape.org/namespaces/inkscape"
   inkscape:version="1.0 (4035a4f, 2020-05-01)"
   sodipodi:docname="snippet10.svg"
   id="svg1248"
   version="1.2"
   viewBox="0 0 2340 316.95328"
   height="316.95328"
   width="2340">
  <metadata
     id="metadata1254">
    <rdf:RDF>
      <cc:Work
         rdf:about="">
        <dc:format>image/svg+xml</dc:format>
        <dc:type
           rdf:resource="http://purl.org/dc/dcmitype/StillImage" />
        <dc:title>Batches6Suite2</dc:title>
      </cc:Work>
    </rdf:RDF>
  </metadata>
  <defs
     id="defs1252" />
  <sodipodi:namedview
     inkscape:current-layer="svg1248"
     inkscape:window-maximized="0"
     inkscape:window-y="23"
     inkscape:window-x="0"
     inkscape:cy="-454.07759"
     inkscape:cx="1319.9243"
     inkscape:zoom="0.18942482"
     fit-margin-bottom="0"
     fit-margin-right="0"
     fit-margin-left="0"
     fit-margin-top="0"
     showgrid="false"
     id="namedview1250"
     inkscape:window-height="855"
     inkscape:window-width="1024"
     inkscape:pageshadow="2"
     inkscape:pageopacity="0"
     guidetolerance="10"
     gridtolerance="10"
     objecttolerance="10"
     borderopacity="1"
     bordercolor="#666666"
     pagecolor="#ffffff" />
  <title
     id="title10">Batches6Suite2</title>
  <desc
     id="desc12">Generated by MuseScore 3.6.2</desc>
  <polyline
     transform="translate(-360,-2228.3067)"
     id="polyline44"
     points="360,2375.33 2700,2375.33"
     stroke-linejoin="bevel"
     stroke-width="2.34"
     stroke="#000000"
     fill="none"
     class="StaffLines" />
  <polyline
     transform="translate(-360,-2228.3067)"
     id="polyline46"
     points="360,2396.57 2700,2396.57"
     stroke-linejoin="bevel"
     stroke-width="2.34"
     stroke="#000000"
     fill="none"
     class="StaffLines" />
  <polyline
     transform="translate(-360,-2228.3067)"
     id="polyline48"
     points="360,2417.81 2700,2417.81"
     stroke-linejoin="bevel"
     stroke-width="2.34"
     stroke="#000000"
     fill="none"
     class="StaffLines" />
  <polyline
     transform="translate(-360,-2228.3067)"
     id="polyline50"
     points="360,2439.05 2700,2439.05"
     stroke-linejoin="bevel"
     stroke-width="2.34"
     stroke="#000000"
     fill="none"
     class="StaffLines" />
  <polyline
     transform="translate(-360,-2228.3067)"
     id="polyline52"
     points="360,2460.29 2700,2460.29"
     stroke-linejoin="bevel"
     stroke-width="2.34"
     stroke="#000000"
     fill="none"
     class="StaffLines" />
  <path
     id="path100"
     d="m 171.656,192.03328 c -10.127,-125.31 69.395,-162.48 159.043,-74.34 -87.13,-82.75 -166.652,-45.58 -159.043,74.34"
     fill-rule="evenodd"
     stroke-linejoin="round"
     stroke-linecap="round"
     stroke-width="1.49"
     stroke="#000000"
     class="SlurSegment" />
  <path
     id="path102"
     d="m 383.713,135.99328 c 45.785,-44.07 141.93,-49.38 192.29,-10.62 -50.032,-32.82 -146.177,-27.51 -192.29,10.62"
     fill-rule="evenodd"
     stroke-linejoin="round"
     stroke-linecap="round"
     stroke-width="1.49"
     stroke="#000000"
     class="SlurSegment" />
  <path
     id="path104"
     d="m 641.65,83.68328 c 35.18,-33.62 102.8,-30.96 135.24,5.31 -32.67,-30.33 -100.29,-32.98 -135.24,-5.31"
     fill-rule="evenodd"
     stroke-linejoin="round"
     stroke-linecap="round"
     stroke-width="1.49"
     stroke="#000000"
     class="SlurSegment" />
  <path
     id="path106"
     d="m 891.07,57.13328 c 23,-32.55 74.86,-37.62 103.73,-10.15 -28.29,-21.55 -80.15,-16.48 -103.73,10.15"
     fill-rule="evenodd"
     stroke-linejoin="round"
     stroke-linecap="round"
     stroke-width="1.49"
     stroke="#000000"
     class="SlurSegment" />
  <path
     id="path108"
     d="m 1047.97,41.78328 c 38.36,-43.06 122.68,-51.32 168.65,-16.51 -45.39,-28.89 -129.72,-20.63 -168.65,16.51"
     fill-rule="evenodd"
     stroke-linejoin="round"
     stroke-linecap="round"
     stroke-width="1.49"
     stroke="#000000"
     class="SlurSegment" />
  <path
     id="path110"
     d="m 1257.72,117.28328 c 53.56,-41.8 202.41,-29.06 248.08,21.24 -46.18,-44.37 -195.03,-57.11 -248.08,-21.24"
     fill-rule="evenodd"
     stroke-linejoin="round"
     stroke-linecap="round"
     stroke-width="1.49"
     stroke="#000000"
     class="SlurSegment" />
  <path
     id="path112"
     d="m 1555.97,120.37328 c 34.68,-51.52 109.97,-69.32 155.48,-20.84 -44.72,-42.59 -120.01,-24.79 -155.48,20.84"
     fill-rule="evenodd"
     stroke-linejoin="round"
     stroke-linecap="round"
     stroke-width="1.49"
     stroke="#000000"
     class="SlurSegment" />
  <path
     id="path114"
     d="m 1919.57,149.14328 c 39.96,-29.85 109.08,-19.23 138.24,21.24 -30.06,-34.59 -99.18,-45.21 -138.24,-21.24"
     fill-rule="evenodd"
     stroke-linejoin="round"
     stroke-linecap="round"
     stroke-width="1.49"
     stroke="#000000"
     class="SlurSegment" />
  <polyline
     transform="translate(-360,-2228.3067)"
     id="polyline132"
     points="1197.19,2374.16 1197.19,2461.46"
     stroke-linejoin="bevel"
     stroke-width="3.82"
     stroke="#000000"
     class="BarLine" />
  <path
     style="stroke-width:0.8496"
     id="path134"
     d="m 2308.0558,178.88328 c 0,-2.46384 -1.954,-4.50288 -4.4179,-4.50288 -2.4638,0 -4.4179,2.03904 -4.4179,4.50288 0,2.46384 1.9541,4.50288 4.4179,4.50288 2.4639,0 4.4179,-2.03904 4.4179,-4.50288"
     class="BarLine" />
  <path
     style="stroke-width:0.8496"
     id="path136"
     d="m 2308.0558,200.12328 c 0,-2.46384 -1.954,-4.50288 -4.4179,-4.50288 -2.4638,0 -4.4179,2.03904 -4.4179,4.50288 0,2.46384 1.9541,4.50288 4.4179,4.50288 2.4639,0 4.4179,-2.03904 4.4179,-4.50288"
     class="BarLine" />
  <polyline
     transform="translate(-360,-2228.3067)"
     id="polyline138"
     points="2678.51,2374.16 2678.51,2461.46"
     stroke-linejoin="bevel"
     stroke-width="3.82"
     stroke="#000000"
     class="BarLine" />
  <polyline
     transform="translate(-360,-2228.3067)"
     id="polyline140"
     points="2693.38,2374.16 2693.38,2461.46"
     stroke-linejoin="bevel"
     stroke-width="11.68"
     stroke="#000000"
     class="BarLine" />
  <path
     style="stroke-width:0.8496"
     id="path166"
     d="m 1177.0234,110.2356 c -0.17,-0.16992 -0.4248,-0.25488 -0.6797,-0.25488 -0.085,0 -0.2549,0.085 -0.3399,0.085 l -10.7049,2.9736 v -14.868 h -2.3789 v 42.0552 c 0,0.67968 0.5098,1.10448 1.1894,1.10448 h 0.3399 l 10.7049,-2.9736 v 14.868 h 2.294 v -42.0552 c 0,-0.33984 -0.17,-0.76464 -0.4248,-0.93456 m -1.8692,21.07008 -9.8553,2.71872 V 120.091 l 9.8553,-2.80368 v 14.0184"
     class="Accidental" />
  <path
     style="stroke-width:0.8496"
     id="path168"
     d="m 1682.0157,116.77752 c 0.5097,-0.085 0.9345,-0.67968 0.9345,-1.18944 v -5.01264 c 0,-0.67968 -0.5097,-1.18944 -1.1894,-1.18944 h -0.1699 l -2.8037,0.59472 V 97.32168 h -2.3789 v 13.1688 l -7.5614,1.52928 V 100.0404 h -2.3789 v 12.48912 l -3.3134,0.67968 c -0.5098,0.085 -0.9346,0.67968 -0.9346,1.18944 v 0.16992 4.92768 -0.16992 c 0,0.67968 0.5098,1.18944 1.1894,1.18944 h 0.2549 l 2.8037,-0.59472 v 14.0184 l -3.3134,0.67968 c -0.5098,0.085 -0.9346,0.67968 -0.9346,1.18944 v 4.92768 c 0,0.67968 0.5098,1.18944 1.1894,1.18944 h 0.2549 l 2.8037,-0.59472 V 153.99 h 2.3789 v -13.1688 l 7.5614,-1.52928 v 11.97936 h 2.3789 v -12.48912 l 3.2285,-0.59472 c 0.5097,-0.085 0.9345,-0.67968 0.9345,-1.18944 v -5.01264 c 0,-0.67968 -0.5097,-1.18944 -1.1894,-1.18944 h -0.1699 l -2.8037,0.59472 v -14.0184 l 3.2285,-0.59472 m -13.1688,16.73712 v -14.10336 l 7.5614,-1.52928 v 14.0184 l -7.5614,1.61424"
     class="Accidental" />
  <polyline
     transform="translate(-360,-2228.3067)"
     id="polyline224"
     points="1542.75,2354.09 1585.22,2354.09"
     stroke-linejoin="bevel"
     stroke-width="3.4"
     stroke="#000000"
     class="LedgerLine" />
  <polyline
     transform="translate(-360,-2228.3067)"
     id="polyline226"
     points="1631.09,2354.09 1665.29,2354.09"
     stroke-linejoin="bevel"
     stroke-width="2.38"
     stroke="#000000"
     class="LedgerLine" />
  <polyline
     transform="translate(-360,-2228.3067)"
     id="polyline228"
     points="1976.99,2354.09 2019.46,2354.09"
     stroke-linejoin="bevel"
     stroke-width="3.4"
     stroke="#000000"
     class="LedgerLine" />
  <polyline
     transform="translate(-360,-2228.3067)"
     id="polyline230"
     points="2048.26,2354.09 2090.73,2354.09"
     stroke-linejoin="bevel"
     stroke-width="3.4"
     stroke="#000000"
     class="LedgerLine" />
  <polyline
     transform="translate(-360,-2228.3067)"
     id="polyline232"
     points="2101.43,2354.09 2143.9,2354.09"
     stroke-linejoin="bevel"
     stroke-width="3.4"
     stroke="#000000"
     class="LedgerLine" />
  <polyline
     transform="translate(-360,-2228.3067)"
     id="polyline234"
     points="2449.74,2481.53 2492.22,2481.53"
     stroke-linejoin="bevel"
     stroke-width="3.4"
     stroke="#000000"
     class="LedgerLine" />
  <polyline
     transform="translate(-360,-2228.3067)"
     id="polyline256"
     points="976.383,2452.52 976.383,2508.08"
     stroke-linejoin="bevel"
     stroke-width="2.34"
     stroke="#000000"
     class="Stem" />
  <polyline
     transform="translate(-360,-2228.3067)"
     id="polyline258"
     points="1225.8,2420.66 1225.8,2513.39"
     stroke-linejoin="bevel"
     stroke-width="2.34"
     stroke="#000000"
     class="Stem" />
  <polyline
     transform="translate(-360,-2228.3067)"
     id="polyline468"
     points="519.021,2463.14 519.021,2539.94"
     stroke-linejoin="bevel"
     stroke-width="2.34"
     stroke="#000000"
     class="Stem" />
  <polyline
     transform="translate(-360,-2228.3067)"
     id="polyline470"
     points="572.036,2367.56 572.036,2537.15"
     stroke-linejoin="bevel"
     stroke-width="2.34"
     stroke="#000000"
     class="Stem" />
  <polyline
     transform="translate(-360,-2228.3067)"
     id="polyline472"
     points="625.05,2378.18 625.05,2534.37"
     stroke-linejoin="bevel"
     stroke-width="2.34"
     stroke="#000000"
     class="Stem" />
  <polyline
     transform="translate(-360,-2228.3067)"
     id="polyline474"
     points="678.064,2388.8 678.064,2531.58"
     stroke-linejoin="bevel"
     stroke-width="2.34"
     stroke="#000000"
     class="Stem" />
  <polyline
     transform="translate(-360,-2228.3067)"
     id="polyline476"
     points="731.079,2399.42 731.079,2528.8"
     stroke-linejoin="bevel"
     stroke-width="2.34"
     stroke="#000000"
     class="Stem" />
  <polyline
     transform="translate(-360,-2228.3067)"
     id="polyline478"
     points="817.34,2431.28 817.34,2524.27"
     stroke-linejoin="bevel"
     stroke-width="2.34"
     stroke="#000000"
     class="Stem" />
  <polyline
     transform="translate(-360,-2228.3067)"
     id="polyline480"
     points="791.336,2405.29 791.336,2343.47"
     stroke-linejoin="bevel"
     stroke-width="1.64"
     stroke="#000000"
     class="Stem" />
  <polyline
     transform="translate(-360,-2228.3067)"
     id="polyline482"
     points="812.593,2415.91 812.593,2354.09"
     stroke-linejoin="bevel"
     stroke-width="1.64"
     stroke="#000000"
     class="Stem" />
  <polyline
     transform="translate(-360,-2228.3067)"
     id="polyline484"
     points="870.354,2420.66 870.354,2521.48"
     stroke-linejoin="bevel"
     stroke-width="2.34"
     stroke="#000000"
     class="Stem" />
  <polyline
     transform="translate(-360,-2228.3067)"
     id="polyline486"
     points="923.369,2388.8 923.369,2518.7"
     stroke-linejoin="bevel"
     stroke-width="2.34"
     stroke="#000000"
     class="Stem" />
  <polyline
     transform="translate(-360,-2228.3067)"
     id="polyline488"
     points="1001.65,2404.47 1001.65,2332.85"
     stroke-linejoin="bevel"
     stroke-width="2.34"
     stroke="#000000"
     class="Stem" />
  <polyline
     transform="translate(-360,-2228.3067)"
     id="polyline490"
     points="1136.89,2415.09 1136.89,2338.16"
     stroke-linejoin="bevel"
     stroke-width="2.34"
     stroke="#000000"
     class="Stem" />
  <polyline
     transform="translate(-360,-2228.3067)"
     id="polyline492"
     points="1251.07,2415.09 1251.07,2306.3"
     stroke-linejoin="bevel"
     stroke-width="2.34"
     stroke="#000000"
     class="Stem" />
  <polyline
     transform="translate(-360,-2228.3067)"
     id="polyline494"
     points="1354.8,2404.47 1354.8,2296.15"
     stroke-linejoin="bevel"
     stroke-width="2.34"
     stroke="#000000"
     class="Stem" />
  <polyline
     transform="translate(-360,-2228.3067)"
     id="polyline496"
     points="1407.97,2393.85 1407.97,2290.94"
     stroke-linejoin="bevel"
     stroke-width="2.34"
     stroke="#000000"
     class="Stem" />
  <polyline
     transform="translate(-360,-2228.3067)"
     id="polyline498"
     points="1461.14,2383.23 1461.14,2285.74"
     stroke-linejoin="bevel"
     stroke-width="2.34"
     stroke="#000000"
     class="Stem" />
  <polyline
     transform="translate(-360,-2228.3067)"
     id="polyline500"
     points="1514.31,2372.61 1514.31,2280.54"
     stroke-linejoin="bevel"
     stroke-width="2.34"
     stroke="#000000"
     class="Stem" />
  <polyline
     transform="translate(-360,-2228.3067)"
     id="polyline502"
     points="1576.62,2351.37 1576.62,2274.44"
     stroke-linejoin="bevel"
     stroke-width="2.34"
     stroke="#000000"
     class="Stem" />
  <polyline
     transform="translate(-360,-2228.3067)"
     id="polyline504"
     points="1605.08,2367.56 1605.08,2497.46"
     stroke-linejoin="bevel"
     stroke-width="2.34"
     stroke="#000000"
     class="Stem" />
  <polyline
     transform="translate(-360,-2228.3067)"
     id="polyline506"
     points="1639.35,2356.09 1639.35,2406.13"
     stroke-linejoin="bevel"
     stroke-width="1.64"
     stroke="#000000"
     class="Stem" />
  <polyline
     transform="translate(-360,-2228.3067)"
     id="polyline508"
     points="1693.66,2378.18 1693.66,2497.46"
     stroke-linejoin="bevel"
     stroke-width="2.34"
     stroke="#000000"
     class="Stem" />
  <polyline
     transform="translate(-360,-2228.3067)"
     id="polyline510"
     points="1669.1,2366.71 1669.1,2416.75"
     stroke-linejoin="bevel"
     stroke-width="1.64"
     stroke="#000000"
     class="Stem" />
  <polyline
     transform="translate(-360,-2228.3067)"
     id="polyline512"
     points="1746.83,2388.8 1746.83,2497.46"
     stroke-linejoin="bevel"
     stroke-width="2.34"
     stroke="#000000"
     class="Stem" />
  <polyline
     transform="translate(-360,-2228.3067)"
     id="polyline514"
     points="1800,2399.42 1800,2497.46"
     stroke-linejoin="bevel"
     stroke-width="2.34"
     stroke="#000000"
     class="Stem" />
  <polyline
     transform="translate(-360,-2228.3067)"
     id="polyline516"
     points="1853.17,2388.8 1853.17,2497.46"
     stroke-linejoin="bevel"
     stroke-width="2.34"
     stroke="#000000"
     class="Stem" />
  <polyline
     transform="translate(-360,-2228.3067)"
     id="polyline518"
     points="1906.34,2410.04 1906.34,2497.46"
     stroke-linejoin="bevel"
     stroke-width="2.34"
     stroke="#000000"
     class="Stem" />
  <polyline
     transform="translate(-360,-2228.3067)"
     id="polyline520"
     points="1974.24,2384.05 1974.24,2316.92"
     stroke-linejoin="bevel"
     stroke-width="1.64"
     stroke="#000000"
     class="Stem" />
  <polyline
     transform="translate(-360,-2228.3067)"
     id="polyline522"
     points="1952.98,2394.67 1952.98,2327.54"
     stroke-linejoin="bevel"
     stroke-width="1.64"
     stroke="#000000"
     class="Stem" />
  <polyline
     transform="translate(-360,-2228.3067)"
     id="polyline524"
     points="1985.59,2346.32 1985.59,2497.46"
     stroke-linejoin="bevel"
     stroke-width="2.34"
     stroke="#000000"
     class="Stem" />
  <polyline
     transform="translate(-360,-2228.3067)"
     id="polyline526"
     points="2056.86,2356.94 2056.86,2497.46"
     stroke-linejoin="bevel"
     stroke-width="2.34"
     stroke="#000000"
     class="Stem" />
  <polyline
     transform="translate(-360,-2228.3067)"
     id="polyline528"
     points="2110.03,2346.32 2110.03,2476.22"
     stroke-linejoin="bevel"
     stroke-width="2.34"
     stroke="#000000"
     class="Stem" />
  <polyline
     transform="translate(-360,-2228.3067)"
     id="polyline530"
     points="2213.77,2378.18 2213.77,2483.68"
     stroke-linejoin="bevel"
     stroke-width="2.34"
     stroke="#000000"
     class="Stem" />
  <polyline
     transform="translate(-360,-2228.3067)"
     id="polyline532"
     points="2266.94,2399.42 2266.94,2487.51"
     stroke-linejoin="bevel"
     stroke-width="2.34"
     stroke="#000000"
     class="Stem" />
  <polyline
     transform="translate(-360,-2228.3067)"
     id="polyline534"
     points="2352.01,2410.04 2352.01,2493.63"
     stroke-linejoin="bevel"
     stroke-width="2.34"
     stroke="#000000"
     class="Stem" />
  <polyline
     transform="translate(-360,-2228.3067)"
     id="polyline536"
     points="2405.18,2420.66 2405.18,2497.46"
     stroke-linejoin="bevel"
     stroke-width="2.34"
     stroke="#000000"
     class="Stem" />
  <polyline
     transform="translate(-360,-2228.3067)"
     id="polyline538"
     points="2483.62,2489.43 2483.62,2417.81"
     stroke-linejoin="bevel"
     stroke-width="2.34"
     stroke="#000000"
     class="Stem" />
  <path
     style="stroke-width:0.8496"
     id="path560"
     d="m 641.9774,214.48152 c -1.52928,-2.80368 -4.75776,-4.33296 -8.66592,-4.33296 -2.88864,0 -6.03216,0.8496 -9.09072,2.46384 -5.60736,2.9736 -9.00576,7.98624 -9.00576,12.3192 0,1.18944 0.25488,2.37888 0.8496,3.48336 1.52928,2.80368 4.75776,4.248 8.66592,4.248 2.88864,0 6.03216,-0.76464 9.09072,-2.37888 5.60736,-2.9736 9.00576,-7.98624 9.00576,-12.3192 0,-1.18944 -0.25488,-2.37888 -0.8496,-3.48336"
     class="Note" />
  <path
     style="stroke-width:0.8496"
     id="path562"
     d="m 891.3924,182.62152 c -1.52928,-2.80368 -4.75776,-4.33296 -8.66592,-4.33296 -2.88864,0 -6.03216,0.8496 -9.09072,2.46384 -5.60736,2.9736 -9.00576,7.98624 -9.00576,12.3192 0,1.18944 0.25488,2.37888 0.8496,3.48336 1.52928,2.80368 4.75776,4.248 8.66592,4.248 2.88864,0 6.03216,-0.76464 9.09072,-2.37888 5.60736,-2.9736 9.00576,-7.98624 9.00576,-12.3192 0,-1.18944 -0.25488,-2.37888 -0.8496,-3.48336"
     class="Note" />
  <path
     style="stroke-width:0.8496"
     id="path772"
     d="m 184.6154,225.10152 c -1.52928,-2.80368 -4.75776,-4.33296 -8.66592,-4.33296 -2.88864,0 -6.03216,0.8496 -9.09072,2.46384 -5.60736,2.9736 -9.00576,7.98624 -9.00576,12.3192 0,1.18944 0.25488,2.37888 0.8496,3.48336 1.52928,2.80368 4.75776,4.248 8.66592,4.248 2.88864,0 6.03216,-0.76464 9.09072,-2.37888 5.60736,-2.9736 9.00576,-7.98624 9.00576,-12.3192 0,-1.18944 -0.25488,-2.37888 -0.8496,-3.48336"
     class="Note" />
  <path
     style="stroke-width:0.8496"
     id="path774"
     d="m 237.6294,129.52152 c -1.52928,-2.80368 -4.75776,-4.33296 -8.66592,-4.33296 -2.88864,0 -6.03216,0.8496 -9.09072,2.46384 -5.60736,2.9736 -9.00576,7.98624 -9.00576,12.3192 0,1.18944 0.25488,2.37888 0.8496,3.48336 1.52928,2.80368 4.75776,4.248 8.66592,4.248 2.88864,0 6.03216,-0.76464 9.09072,-2.37888 5.60736,-2.9736 9.00576,-7.98624 9.00576,-12.3192 0,-1.18944 -0.25488,-2.37888 -0.8496,-3.48336"
     class="Note" />
  <path
     style="stroke-width:0.8496"
     id="path776"
     d="m 290.6444,140.14152 c -1.52928,-2.80368 -4.75776,-4.33296 -8.66592,-4.33296 -2.88864,0 -6.03216,0.8496 -9.09072,2.46384 -5.60736,2.9736 -9.00576,7.98624 -9.00576,12.3192 0,1.18944 0.25488,2.37888 0.8496,3.48336 1.52928,2.80368 4.75776,4.248 8.66592,4.248 2.88864,0 6.03216,-0.76464 9.09072,-2.37888 5.60736,-2.9736 9.00576,-7.98624 9.00576,-12.3192 0,-1.18944 -0.25488,-2.37888 -0.8496,-3.48336"
     class="Note" />
  <path
     style="stroke-width:0.8496"
     id="path778"
     d="m 343.6584,150.76152 c -1.52928,-2.80368 -4.75776,-4.33296 -8.66592,-4.33296 -2.88864,0 -6.03216,0.8496 -9.09072,2.46384 -5.60736,2.9736 -9.00576,7.98624 -9.00576,12.3192 0,1.18944 0.25488,2.37888 0.8496,3.48336 1.52928,2.80368 4.75776,4.248 8.66592,4.248 2.88864,0 6.03216,-0.76464 9.09072,-2.37888 5.60736,-2.9736 9.00576,-7.98624 9.00576,-12.3192 0,-1.18944 -0.25488,-2.37888 -0.8496,-3.48336"
     class="Note" />
  <path
     style="stroke-width:0.8496"
     id="path780"
     d="m 396.6734,161.38152 c -1.52928,-2.80368 -4.75776,-4.33296 -8.66592,-4.33296 -2.88864,0 -6.03216,0.8496 -9.09072,2.46384 -5.60736,2.9736 -9.00576,7.98624 -9.00576,12.3192 0,1.18944 0.25488,2.37888 0.8496,3.48336 1.52928,2.80368 4.75776,4.248 8.66592,4.248 2.88864,0 6.03216,-0.76464 9.09072,-2.37888 5.60736,-2.9736 9.00576,-7.98624 9.00576,-12.3192 0,-1.18944 -0.25488,-2.37888 -0.8496,-3.48336"
     class="Note" />
  <path
     style="stroke-width:0.8496"
     id="path782"
     d="m 482.9344,193.24152 c -1.52928,-2.80368 -4.75776,-4.33296 -8.66592,-4.33296 -2.88864,0 -6.03216,0.8496 -9.09072,2.46384 -5.60736,2.9736 -9.00576,7.98624 -9.00576,12.3192 0,1.18944 0.25488,2.37888 0.8496,3.48336 1.52928,2.80368 4.75776,4.248 8.66592,4.248 2.88864,0 6.03216,-0.76464 9.09072,-2.37888 5.60736,-2.9736 9.00576,-7.98624 9.00576,-12.3192 0,-1.18944 -0.25488,-2.37888 -0.8496,-3.48336"
     class="Note" />
  <path
     style="stroke-width:0.59472"
     id="path784"
     d="m 431.56368,174.06605 c -1.0705,-1.96258 -3.33043,-3.03307 -6.06614,-3.03307 -2.02205,0 -4.22252,0.59472 -6.36351,1.72468 -3.92515,2.08152 -6.30403,5.59037 -6.30403,8.62344 0,0.83261 0.17842,1.66522 0.59472,2.43836 1.0705,1.96257 3.33043,2.9736 6.06614,2.9736 2.02205,0 4.22252,-0.53525 6.36351,-1.66522 3.92515,-2.08152 6.30403,-5.59037 6.30403,-8.62344 0,-0.83261 -0.17842,-1.66522 -0.59472,-2.43835"
     class="Note" />
  <path
     style="stroke-width:0.59472"
     id="path786"
     d="m 452.82068,184.68605 c -1.0705,-1.96258 -3.33043,-3.03307 -6.06614,-3.03307 -2.02205,0 -4.22252,0.59472 -6.36351,1.72468 -3.92515,2.08152 -6.30403,5.59037 -6.30403,8.62344 0,0.83261 0.17842,1.66522 0.59472,2.43836 1.0705,1.96257 3.33043,2.9736 6.06614,2.9736 2.02205,0 4.22252,-0.53525 6.36351,-1.66522 3.92515,-2.08152 6.30403,-5.59037 6.30403,-8.62344 0,-0.83261 -0.17842,-1.66522 -0.59472,-2.43835"
     class="Note" />
  <path
     style="stroke-width:0.8496"
     id="path788"
     d="m 535.9484,182.62152 c -1.52928,-2.80368 -4.75776,-4.33296 -8.66592,-4.33296 -2.88864,0 -6.03216,0.8496 -9.09072,2.46384 -5.60736,2.9736 -9.00576,7.98624 -9.00576,12.3192 0,1.18944 0.25488,2.37888 0.8496,3.48336 1.52928,2.80368 4.75776,4.248 8.66592,4.248 2.88864,0 6.03216,-0.76464 9.09072,-2.37888 5.60736,-2.9736 9.00576,-7.98624 9.00576,-12.3192 0,-1.18944 -0.25488,-2.37888 -0.8496,-3.48336"
     class="Note" />
  <path
     style="stroke-width:0.8496"
     id="path790"
     d="m 588.9624,150.76152 c -1.52928,-2.80368 -4.75776,-4.33296 -8.66592,-4.33296 -2.88864,0 -6.03216,0.8496 -9.09072,2.46384 -5.60736,2.9736 -9.00576,7.98624 -9.00576,12.3192 0,1.18944 0.25488,2.37888 0.8496,3.48336 1.52928,2.80368 4.75776,4.248 8.66592,4.248 2.88864,0 6.03216,-0.76464 9.09072,-2.37888 5.60736,-2.9736 9.00576,-7.98624 9.00576,-12.3192 0,-1.18944 -0.25488,-2.37888 -0.8496,-3.48336"
     class="Note" />
  <path
     style="stroke-width:0.8496"
     id="path792"
     d="m 641.9774,172.00152 c -1.52928,-2.80368 -4.75776,-4.33296 -8.66592,-4.33296 -2.88864,0 -6.03216,0.8496 -9.09072,2.46384 -5.60736,2.9736 -9.00576,7.98624 -9.00576,12.3192 0,1.18944 0.25488,2.37888 0.8496,3.48336 1.52928,2.80368 4.75776,4.248 8.66592,4.248 2.88864,0 6.03216,-0.76464 9.09072,-2.37888 5.60736,-2.9736 9.00576,-7.98624 9.00576,-12.3192 0,-1.18944 -0.25488,-2.37888 -0.8496,-3.48336"
     class="Note" />
  <path
     style="stroke-width:0.8496"
     id="path794"
     d="m 777.2124,182.62152 c -1.52928,-2.80368 -4.75776,-4.33296 -8.66592,-4.33296 -2.88864,0 -6.03216,0.8496 -9.09072,2.46384 -5.60736,2.9736 -9.00576,7.98624 -9.00576,12.3192 0,1.18944 0.25488,2.37888 0.8496,3.48336 1.52928,2.80368 4.75776,4.248 8.66592,4.248 2.88864,0 6.03216,-0.76464 9.09072,-2.37888 5.60736,-2.9736 9.00576,-7.98624 9.00576,-12.3192 0,-1.18944 -0.25488,-2.37888 -0.8496,-3.48336"
     class="Note" />
  <path
     style="stroke-width:0.8496"
     id="path796"
     d="m 891.3924,182.62152 c -1.52928,-2.80368 -4.75776,-4.33296 -8.66592,-4.33296 -2.88864,0 -6.03216,0.8496 -9.09072,2.46384 -5.60736,2.9736 -9.00576,7.98624 -9.00576,12.3192 0,1.18944 0.25488,2.37888 0.8496,3.48336 1.52928,2.80368 4.75776,4.248 8.66592,4.248 2.88864,0 6.03216,-0.76464 9.09072,-2.37888 5.60736,-2.9736 9.00576,-7.98624 9.00576,-12.3192 0,-1.18944 -0.25488,-2.37888 -0.8496,-3.48336"
     class="Note" />
  <path
     style="stroke-width:0.8496"
     id="path798"
     d="m 995.1324,172.00152 c -1.52928,-2.80368 -4.75776,-4.33296 -8.66592,-4.33296 -2.88864,0 -6.03216,0.8496 -9.09072,2.46384 -5.60736,2.9736 -9.00576,7.98624 -9.00576,12.3192 0,1.18944 0.25488,2.37888 0.8496,3.48336 1.52928,2.80368 4.75776,4.248 8.66592,4.248 2.88864,0 6.03216,-0.76464 9.09072,-2.37888 5.60736,-2.9736 9.00576,-7.98624 9.00576,-12.3192 0,-1.18944 -0.25488,-2.37888 -0.8496,-3.48336"
     class="Note" />
  <path
     style="stroke-width:0.8496"
     id="path800"
     d="m 1048.3024,161.38152 c -1.5293,-2.80368 -4.7578,-4.33296 -8.6659,-4.33296 -2.8887,0 -6.0322,0.8496 -9.0907,2.46384 -5.6074,2.9736 -9.0058,7.98624 -9.0058,12.3192 0,1.18944 0.2549,2.37888 0.8496,3.48336 1.5293,2.80368 4.7578,4.248 8.6659,4.248 2.8887,0 6.0322,-0.76464 9.0907,-2.37888 5.6074,-2.9736 9.0058,-7.98624 9.0058,-12.3192 0,-1.18944 -0.2549,-2.37888 -0.8496,-3.48336"
     class="Note" />
  <path
     style="stroke-width:0.8496"
     id="path802"
     d="m 1101.4724,150.76152 c -1.5293,-2.80368 -4.7578,-4.33296 -8.6659,-4.33296 -2.8887,0 -6.0322,0.8496 -9.0907,2.46384 -5.6074,2.9736 -9.0058,7.98624 -9.0058,12.3192 0,1.18944 0.2549,2.37888 0.8496,3.48336 1.5293,2.80368 4.7578,4.248 8.6659,4.248 2.8887,0 6.0322,-0.76464 9.0907,-2.37888 5.6074,-2.9736 9.0058,-7.98624 9.0058,-12.3192 0,-1.18944 -0.2549,-2.37888 -0.8496,-3.48336"
     class="Note" />
  <path
     style="stroke-width:0.8496"
     id="path804"
     d="m 1154.6424,140.14152 c -1.5293,-2.80368 -4.7578,-4.33296 -8.6659,-4.33296 -2.8887,0 -6.0322,0.8496 -9.0907,2.46384 -5.6074,2.9736 -9.0058,7.98624 -9.0058,12.3192 0,1.18944 0.2549,2.37888 0.8496,3.48336 1.5293,2.80368 4.7578,4.248 8.6659,4.248 2.8887,0 6.0322,-0.76464 9.0907,-2.37888 5.6074,-2.9736 9.0058,-7.98624 9.0058,-12.3192 0,-1.18944 -0.2549,-2.37888 -0.8496,-3.48336"
     class="Note" />
  <path
     style="stroke-width:0.8496"
     id="path806"
     d="m 1216.9424,118.90152 c -1.5293,-2.80368 -4.7578,-4.33296 -8.6659,-4.33296 -2.8887,0 -6.0322,0.8496 -9.0907,2.46384 -5.6074,2.9736 -9.0058,7.98624 -9.0058,12.3192 0,1.18944 0.2549,2.37888 0.8496,3.48336 1.5293,2.80368 4.7578,4.248 8.6659,4.248 2.8887,0 6.0322,-0.76464 9.0907,-2.37888 5.6074,-2.9736 9.0058,-7.98624 9.0058,-12.3192 0,-1.18944 -0.2549,-2.37888 -0.8496,-3.48336"
     class="Note" />
  <path
     style="stroke-width:0.8496"
     id="path808"
     d="m 1270.6724,129.52152 c -1.5293,-2.80368 -4.7578,-4.33296 -8.6659,-4.33296 -2.8887,0 -6.0322,0.8496 -9.0907,2.46384 -5.6074,2.9736 -9.0058,7.98624 -9.0058,12.3192 0,1.18944 0.2549,2.37888 0.8496,3.48336 1.5293,2.80368 4.7578,4.248 8.6659,4.248 2.8887,0 6.0322,-0.76464 9.0907,-2.37888 5.6074,-2.9736 9.0058,-7.98624 9.0058,-12.3192 0,-1.18944 -0.2549,-2.37888 -0.8496,-3.48336"
     class="Note" />
  <path
     style="stroke-width:0.59472"
     id="path810"
     d="m 1297.2637,120.96605 c -1.0705,-1.96258 -3.3305,-3.03307 -6.0662,-3.03307 -2.022,0 -4.2225,0.59472 -6.3635,1.72468 -3.9251,2.08152 -6.304,5.59037 -6.304,8.62344 0,0.83261 0.1784,1.66522 0.5947,2.43836 1.0705,1.96257 3.3305,2.9736 6.0662,2.9736 2.022,0 4.2225,-0.53525 6.3635,-1.66522 3.9251,-2.08152 6.304,-5.59037 6.304,-8.62344 0,-0.83261 -0.1784,-1.66522 -0.5947,-2.43835"
     class="Note" />
  <path
     style="stroke-width:0.8496"
     id="path812"
     d="m 1359.2524,140.14152 c -1.5293,-2.80368 -4.7578,-4.33296 -8.6659,-4.33296 -2.8887,0 -6.0322,0.8496 -9.0907,2.46384 -5.6074,2.9736 -9.0058,7.98624 -9.0058,12.3192 0,1.18944 0.2549,2.37888 0.8496,3.48336 1.5293,2.80368 4.7578,4.248 8.6659,4.248 2.8887,0 6.0322,-0.76464 9.0907,-2.37888 5.6074,-2.9736 9.0058,-7.98624 9.0058,-12.3192 0,-1.18944 -0.2549,-2.37888 -0.8496,-3.48336"
     class="Note" />
  <path
     style="stroke-width:0.59472"
     id="path814"
     d="m 1327.0137,131.58605 c -1.0705,-1.96258 -3.3305,-3.03307 -6.0662,-3.03307 -2.022,0 -4.2225,0.59472 -6.3635,1.72468 -3.9251,2.08152 -6.304,5.59037 -6.304,8.62344 0,0.83261 0.1784,1.66522 0.5947,2.43836 1.0705,1.96257 3.3305,2.9736 6.0662,2.9736 2.022,0 4.2225,-0.53525 6.3635,-1.66522 3.9251,-2.08152 6.304,-5.59037 6.304,-8.62344 0,-0.83261 -0.1784,-1.66522 -0.5947,-2.43835"
     class="Note" />
  <path
     style="stroke-width:0.8496"
     id="path816"
     d="m 1412.4224,150.76152 c -1.5293,-2.80368 -4.7578,-4.33296 -8.6659,-4.33296 -2.8887,0 -6.0322,0.8496 -9.0907,2.46384 -5.6074,2.9736 -9.0058,7.98624 -9.0058,12.3192 0,1.18944 0.2549,2.37888 0.8496,3.48336 1.5293,2.80368 4.7578,4.248 8.6659,4.248 2.8887,0 6.0322,-0.76464 9.0907,-2.37888 5.6074,-2.9736 9.0058,-7.98624 9.0058,-12.3192 0,-1.18944 -0.2549,-2.37888 -0.8496,-3.48336"
     class="Note" />
  <path
     style="stroke-width:0.8496"
     id="path818"
     d="m 1465.5924,161.38152 c -1.5293,-2.80368 -4.7578,-4.33296 -8.6659,-4.33296 -2.8887,0 -6.0322,0.8496 -9.0907,2.46384 -5.6074,2.9736 -9.0058,7.98624 -9.0058,12.3192 0,1.18944 0.2549,2.37888 0.8496,3.48336 1.5293,2.80368 4.7578,4.248 8.6659,4.248 2.8887,0 6.0322,-0.76464 9.0907,-2.37888 5.6074,-2.9736 9.0058,-7.98624 9.0058,-12.3192 0,-1.18944 -0.2549,-2.37888 -0.8496,-3.48336"
     class="Note" />
  <path
     style="stroke-width:0.8496"
     id="path820"
     d="m 1518.7624,150.76152 c -1.5293,-2.80368 -4.7578,-4.33296 -8.6659,-4.33296 -2.8887,0 -6.0322,0.8496 -9.0907,2.46384 -5.6074,2.9736 -9.0058,7.98624 -9.0058,12.3192 0,1.18944 0.2549,2.37888 0.8496,3.48336 1.5293,2.80368 4.7578,4.248 8.6659,4.248 2.8887,0 6.0322,-0.76464 9.0907,-2.37888 5.6074,-2.9736 9.0058,-7.98624 9.0058,-12.3192 0,-1.18944 -0.2549,-2.37888 -0.8496,-3.48336"
     class="Note" />
  <path
     style="stroke-width:0.8496"
     id="path822"
     d="m 1571.9324,172.00152 c -1.5293,-2.80368 -4.7578,-4.33296 -8.6659,-4.33296 -2.8887,0 -6.0322,0.8496 -9.0907,2.46384 -5.6074,2.9736 -9.0058,7.98624 -9.0058,12.3192 0,1.18944 0.2549,2.37888 0.8496,3.48336 1.5293,2.80368 4.7578,4.248 8.6659,4.248 2.8887,0 6.0322,-0.76464 9.0907,-2.37888 5.6074,-2.9736 9.0058,-7.98624 9.0058,-12.3192 0,-1.18944 -0.2549,-2.37888 -0.8496,-3.48336"
     class="Note" />
  <path
     style="stroke-width:0.59472"
     id="path824"
     d="m 1614.4637,152.82605 c -1.0705,-1.96258 -3.3305,-3.03307 -6.0662,-3.03307 -2.022,0 -4.2225,0.59472 -6.3635,1.72468 -3.9251,2.08152 -6.304,5.59037 -6.304,8.62344 0,0.83261 0.1784,1.66522 0.5947,2.43836 1.0705,1.96257 3.3305,2.9736 6.0662,2.9736 2.022,0 4.2225,-0.53525 6.3635,-1.66522 3.9251,-2.08152 6.304,-5.59037 6.304,-8.62344 0,-0.83261 -0.1784,-1.66522 -0.5947,-2.43835"
     class="Note" />
  <path
     style="stroke-width:0.59472"
     id="path826"
     d="m 1593.2037,163.44605 c -1.0705,-1.96258 -3.3305,-3.03307 -6.0662,-3.03307 -2.022,0 -4.2225,0.59472 -6.3635,1.72468 -3.9251,2.08152 -6.304,5.59037 -6.304,8.62344 0,0.83261 0.1784,1.66522 0.5947,2.43836 1.0705,1.96257 3.3305,2.9736 6.0662,2.9736 2.022,0 4.2225,-0.53525 6.3635,-1.66522 3.9251,-2.08152 6.304,-5.59037 6.304,-8.62344 0,-0.83261 -0.1784,-1.66522 -0.5947,-2.43835"
     class="Note" />
  <path
     style="stroke-width:0.8496"
     id="path828"
     d="m 1651.1824,108.28152 c -1.5293,-2.80368 -4.7578,-4.33296 -8.6659,-4.33296 -2.8887,0 -6.0322,0.8496 -9.0907,2.46384 -5.6074,2.9736 -9.0058,7.98624 -9.0058,12.3192 0,1.18944 0.2549,2.37888 0.8496,3.48336 1.5293,2.80368 4.7578,4.248 8.6659,4.248 2.8887,0 6.0322,-0.76464 9.0907,-2.37888 5.6074,-2.9736 9.0058,-7.98624 9.0058,-12.3192 0,-1.18944 -0.2549,-2.37888 -0.8496,-3.48336"
     class="Note" />
  <path
     style="stroke-width:0.8496"
     id="path830"
     d="m 1722.4524,118.90152 c -1.5293,-2.80368 -4.7578,-4.33296 -8.6659,-4.33296 -2.8887,0 -6.0322,0.8496 -9.0907,2.46384 -5.6074,2.9736 -9.0058,7.98624 -9.0058,12.3192 0,1.18944 0.2549,2.37888 0.8496,3.48336 1.5293,2.80368 4.7578,4.248 8.6659,4.248 2.8887,0 6.0322,-0.76464 9.0907,-2.37888 5.6074,-2.9736 9.0058,-7.98624 9.0058,-12.3192 0,-1.18944 -0.2549,-2.37888 -0.8496,-3.48336"
     class="Note" />
  <path
     style="stroke-width:0.8496"
     id="path832"
     d="m 1775.6224,108.28152 c -1.5293,-2.80368 -4.7578,-4.33296 -8.6659,-4.33296 -2.8887,0 -6.0322,0.8496 -9.0907,2.46384 -5.6074,2.9736 -9.0058,7.98624 -9.0058,12.3192 0,1.18944 0.2549,2.37888 0.8496,3.48336 1.5293,2.80368 4.7578,4.248 8.6659,4.248 2.8887,0 6.0322,-0.76464 9.0907,-2.37888 5.6074,-2.9736 9.0058,-7.98624 9.0058,-12.3192 0,-1.18944 -0.2549,-2.37888 -0.8496,-3.48336"
     class="Note" />
  <path
     style="stroke-width:0.8496"
     id="path834"
     d="m 1879.3624,140.14152 c -1.5293,-2.80368 -4.7578,-4.33296 -8.6659,-4.33296 -2.8887,0 -6.0322,0.8496 -9.0907,2.46384 -5.6074,2.9736 -9.0058,7.98624 -9.0058,12.3192 0,1.18944 0.2549,2.37888 0.8496,3.48336 1.5293,2.80368 4.7578,4.248 8.6659,4.248 2.8887,0 6.0322,-0.76464 9.0907,-2.37888 5.6074,-2.9736 9.0058,-7.98624 9.0058,-12.3192 0,-1.18944 -0.2549,-2.37888 -0.8496,-3.48336"
     class="Note" />
  <path
     style="stroke-width:0.8496"
     id="path836"
     d="m 1932.5324,161.38152 c -1.5293,-2.80368 -4.7578,-4.33296 -8.6659,-4.33296 -2.8887,0 -6.0322,0.8496 -9.0907,2.46384 -5.6074,2.9736 -9.0058,7.98624 -9.0058,12.3192 0,1.18944 0.2549,2.37888 0.8496,3.48336 1.5293,2.80368 4.7578,4.248 8.6659,4.248 2.8887,0 6.0322,-0.76464 9.0907,-2.37888 5.6074,-2.9736 9.0058,-7.98624 9.0058,-12.3192 0,-1.18944 -0.2549,-2.37888 -0.8496,-3.48336"
     class="Note" />
  <path
     style="stroke-width:0.8496"
     id="path838"
     d="m 2017.6024,172.00152 c -1.5293,-2.80368 -4.7578,-4.33296 -8.6659,-4.33296 -2.8887,0 -6.0322,0.8496 -9.0907,2.46384 -5.6074,2.9736 -9.0058,7.98624 -9.0058,12.3192 0,1.18944 0.2549,2.37888 0.8496,3.48336 1.5293,2.80368 4.7578,4.248 8.6659,4.248 2.8887,0 6.0322,-0.76464 9.0907,-2.37888 5.6074,-2.9736 9.0058,-7.98624 9.0058,-12.3192 0,-1.18944 -0.2549,-2.37888 -0.8496,-3.48336"
     class="Note" />
  <path
     style="stroke-width:0.8496"
     id="path840"
     d="m 2070.7724,182.62152 c -1.5293,-2.80368 -4.7578,-4.33296 -8.6659,-4.33296 -2.8887,0 -6.0322,0.8496 -9.0907,2.46384 -5.6074,2.9736 -9.0058,7.98624 -9.0058,12.3192 0,1.18944 0.2549,2.37888 0.8496,3.48336 1.5293,2.80368 4.7578,4.248 8.6659,4.248 2.8887,0 6.0322,-0.76464 9.0907,-2.37888 5.6074,-2.9736 9.0058,-7.98624 9.0058,-12.3192 0,-1.18944 -0.2549,-2.37888 -0.8496,-3.48336"
     class="Note" />
  <path
     style="stroke-width:0.8496"
     id="path842"
     d="m 2123.9424,256.96152 c -1.5293,-2.80368 -4.7578,-4.33296 -8.6659,-4.33296 -2.8887,0 -6.0322,0.8496 -9.0907,2.46384 -5.6074,2.9736 -9.0058,7.98624 -9.0058,12.3192 0,1.18944 0.2549,2.37888 0.8496,3.48336 1.5293,2.80368 4.7578,4.248 8.6659,4.248 2.8887,0 6.0322,-0.76464 9.0907,-2.37888 5.6074,-2.9736 9.0058,-7.98624 9.0058,-12.3192 0,-1.18944 -0.2549,-2.37888 -0.8496,-3.48336"
     class="Note" />
  <path
     style="stroke-width:0.8496"
     id="path854"
     d="m 38.57184,146.93832 c -6.45696,0 -11.63952,3.73824 -11.72448,3.73824 -4.92768,3.65328 -6.88176,7.98624 -7.6464,10.95984 -0.4248,1.52928 -0.59472,3.05856 -0.59472,4.50288 0,2.03904 0.33984,3.90816 1.10448,5.5224 1.01952,2.29392 2.9736,3.90816 5.5224,4.75776 1.01952,0.33984 2.124,0.50976 3.22848,0.50976 1.86912,0 3.8232,-0.50976 5.43744,-1.44432 2.63376,-1.44432 4.248,-4.50288 4.248,-7.81632 0,-2.9736 -1.52928,-5.69232 -4.07808,-7.30656 -1.78416,-1.18944 -3.48336,-1.52928 -4.92768,-1.52928 -1.01952,0 -1.95408,0.16992 -2.71872,0.4248 -0.8496,0.33984 -2.29392,1.18944 -2.9736,1.78416 0.25488,-1.61424 1.2744,-4.07808 2.20896,-5.43744 0.93456,-1.35936 2.80368,-3.05856 4.248,-3.8232 2.124,-1.18944 4.84272,-1.6992 7.81632,-1.6992 8.66592,0 12.91392,6.96672 12.91392,21.24 0,7.90128 -2.9736,15.46272 -5.5224,20.47536 -2.80368,5.60736 -6.54192,10.95984 -9.85536,13.93344 -8.83584,8.0712 -17.16192,11.8944 -17.24688,11.8944 0,0 -1.2744,0.76464 -0.93456,2.03904 0.25488,0.8496 1.01952,1.01952 1.52928,1.01952 0.08496,0 0.33984,-0.085 0.4248,-0.085 0.08496,0 9.7704,-3.99312 17.50176,-10.02528 4.33296,-3.14352 8.24112,-6.54192 11.63952,-10.1952 3.05856,-3.31344 5.69232,-6.88176 7.81632,-10.45008 3.73824,-6.372 5.86224,-12.99888 5.86224,-18.6912 0,-7.05168 -1.86912,-12.91392 -5.35248,-17.07696 -3.99312,-4.75776 -10.02528,-7.2216 -17.92656,-7.2216 m 26.67744,10.78992 c 0,2.37888 1.86912,4.248 4.07808,4.248 2.20896,0 4.07808,-1.86912 4.07808,-4.248 0,-2.37888 -1.86912,-4.33296 -4.07808,-4.33296 -2.20896,0 -4.07808,1.95408 -4.07808,4.33296 m 0,20.98512 c 0,2.37888 1.86912,4.33296 4.07808,4.33296 2.20896,0 4.07808,-1.95408 4.07808,-4.33296 0,-2.37888 -1.86912,-4.33296 -4.07808,-4.33296 -2.20896,0 -4.07808,1.95408 -4.07808,4.33296"
     class="Clef" />
  <path
     style="stroke-width:0.8496"
     id="path868"
     d="m 135.67968,191.11752 c 0.50976,-0.085 0.93456,-0.67968 0.93456,-1.18944 v -5.01264 c 0,-0.67968 -0.50976,-1.18944 -1.18944,-1.18944 h -0.16992 l -2.80368,0.59472 v -12.65904 h -2.37888 v 13.1688 l -7.56144,1.52928 V 174.3804 H 120.132 v 12.48912 l -3.31344,0.67968 c -0.50976,0.085 -0.93456,0.67968 -0.93456,1.18944 v 0.16992 4.92768 -0.16992 c 0,0.67968 0.50976,1.18944 1.18944,1.18944 h 0.25488 l 2.80368,-0.59472 v 14.0184 l -3.31344,0.67968 c -0.50976,0.085 -0.93456,0.67968 -0.93456,1.18944 v 4.92768 c 0,0.67968 0.50976,1.18944 1.18944,1.18944 h 0.25488 l 2.80368,-0.59472 V 228.33 h 2.37888 v -13.1688 l 7.56144,-1.52928 v 11.97936 h 2.37888 v -12.48912 l 3.22848,-0.59472 c 0.50976,-0.085 0.93456,-0.67968 0.93456,-1.18944 v -5.01264 c 0,-0.67968 -0.50976,-1.18944 -1.18944,-1.18944 h -0.16992 l -2.80368,0.59472 v -14.0184 l 3.22848,-0.59472 m -13.1688,16.73712 v -14.10336 l 7.56144,-1.52928 v 14.0184 l -7.56144,1.61424"
     class="KeySig" />
  <path
     style="stroke-width:0.8496"
     id="path870"
     d="m 114.43968,159.25752 c 0.50976,-0.085 0.93456,-0.67968 0.93456,-1.18944 v -5.01264 c 0,-0.67968 -0.50976,-1.18944 -1.18944,-1.18944 h -0.16992 l -2.80368,0.59472 v -12.65904 h -2.37888 v 13.1688 l -7.56144,1.52928 V 142.5204 H 98.892 v 12.48912 l -3.31344,0.67968 c -0.50976,0.085 -0.93456,0.67968 -0.93456,1.18944 v 0.16992 4.92768 -0.16992 c 0,0.67968 0.50976,1.18944 1.18944,1.18944 h 0.25488 l 2.80368,-0.59472 v 14.0184 l -3.31344,0.67968 c -0.50976,0.085 -0.93456,0.67968 -0.93456,1.18944 v 4.92768 c 0,0.67968 0.50976,1.18944 1.18944,1.18944 h 0.25488 L 98.892,183.81096 V 196.47 h 2.37888 v -13.1688 l 7.56144,-1.52928 v 11.97936 h 2.37888 v -12.48912 l 3.22848,-0.59472 c 0.50976,-0.085 0.93456,-0.67968 0.93456,-1.18944 v -5.01264 c 0,-0.67968 -0.50976,-1.18944 -1.18944,-1.18944 h -0.16992 l -2.80368,0.59472 v -14.0184 l 3.22848,-0.59472 m -13.1688,16.73712 v -14.10336 l 7.56144,-1.52928 v 14.0184 l -7.56144,1.61424"
     class="KeySig" />
  <path
     style="stroke-width:0.8496"
     id="path898"
     d="M 182.6206,69.46176 C 182.45068,69.20688 181.94092,68.952 181.60108,68.952 h -1.18944 c -0.4248,0 -0.93456,0.33984 -1.10448,0.76464 l -7.6464,21.40992 -7.6464,-21.40992 c -0.16992,-0.4248 -0.67968,-0.76464 -1.10448,-0.76464 h -1.18944 c -0.67968,0 -1.18944,0.50976 -1.18944,1.18944 0,0.08496 0.085,0.33984 0.085,0.4248 l 9.94032,26.7624 c 0.16992,0.4248 0.67968,0.76464 1.10448,0.76464 0.4248,0 0.93456,-0.33984 1.10448,-0.76464 l 9.94032,-26.7624 c 0,-0.08496 0.085,-0.33984 0.085,-0.4248 0,-0.16992 -0.085,-0.50976 -0.16992,-0.67968"
     class="Articulation" />
  <path
     style="stroke-width:0.8496"
     id="path900"
     d="m 639.59512,28.07928 c -3.31344,0 -5.18256,2.20896 -5.18256,2.20896 l -0.67968,-0.67968 c -0.4248,-0.4248 -1.10448,-0.4248 -1.10448,-0.4248 h -8.75088 l 2.88864,-8.9208 c 0.16992,-0.59472 -0.50976,-1.35936 -1.18944,-1.35936 h -0.76464 c -0.25488,0 -0.67968,0.25488 -0.8496,0.4248 -0.16992,0.16992 -4.07808,3.3984 -4.41792,3.65328 -0.33984,0.25488 -0.4248,0.67968 -0.4248,0.67968 0,0 -0.8496,2.37888 -1.95408,5.5224 h -4.75776 c -1.01952,0 -1.18944,1.01952 -1.18944,1.01952 v 1.10448 c 0,0.93456 1.18944,1.01952 1.18944,1.01952 h 3.73824 c -1.86912,5.60736 -3.90816,12.23424 -3.90816,14.10336 0,4.07808 2.80368,5.01264 5.43744,5.01264 2.63376,0 5.5224,-2.03904 5.5224,-2.03904 0,0 0.25488,0.59472 0.50976,1.2744 0.25488,0.67968 1.01952,0.76464 1.01952,0.76464 h 3.8232 c 1.10448,0 1.2744,-0.93456 1.2744,-0.93456 v -1.61424 c 0,-1.86912 1.35936,-6.11712 1.35936,-6.11712 l 3.56832,-8.0712 c 0,0 0.8496,-1.61424 1.78416,-2.46384 0.93456,-0.76464 1.95408,-1.10448 2.37888,-0.8496 -1.18944,0.76464 -1.44432,2.03904 -1.44432,3.05856 0,1.01952 1.10448,3.22848 3.3984,3.22848 2.88864,0 3.90816,-1.78416 3.90816,-4.41792 0,-2.63376 -1.86912,-5.18256 -5.18256,-5.18256 m -14.27328,14.95296 c -0.67968,2.29392 -2.9736,3.8232 -4.41792,3.8232 -0.25488,0 -0.4248,0 -0.59472,-0.08496 -0.67968,-0.33984 -0.93456,-1.18944 -0.93456,-2.124 0,-1.95408 0.93456,-4.41792 0.93456,-4.41792 l 2.5488,-7.90128 h 5.60736 c 0.25488,0 0.25488,0.25488 0.25488,0.25488 0,0 -2.63376,7.81632 -3.3984,10.45008"
     class="Articulation" />
  <path
     style="stroke-width:0.8496"
     id="path902"
     d="m 865.07,24.89328 h 2.37888 V 7.73136 h 22.00464 v 17.16192 h 2.37888 V 1.18944 C 891.8324,0.50976 891.32264,0 890.64296,0 H 866.25944 C 865.57976,0 865.07,1.18944 865.07,1.18944 v 23.70384"
     class="Articulation" />
  <path
     style="stroke-width:0.8496"
     id="path904"
     d="m 1749.3,62.06328 h 2.3789 V 44.90136 h 22.0046 v 17.16192 h 2.3789 V 38.35944 c 0,-0.67968 -0.5098,-1.18944 -1.1894,-1.18944 h -24.3836 c -0.6796,0 -1.1894,1.18944 -1.1894,1.18944 v 23.70384"
     class="Articulation" />
  <path
     style="stroke-width:0.8496"
     id="path906"
     d="m 1853.03,93.92328 h 2.3789 V 76.76136 h 22.0046 v 17.16192 h 2.3789 V 70.21944 c 0,-0.67968 -0.5098,-1.18944 -1.1894,-1.18944 h -24.3836 c -0.6796,0 -1.1894,1.18944 -1.1894,1.18944 v 23.70384"
     class="Articulation" />
  <path
     style="stroke-width:0.8496"
     id="path908"
     d="m 1930.1471,102.78928 c -3.3134,0 -5.1825,2.20896 -5.1825,2.20896 l -0.6797,-0.67968 c -0.4248,-0.4248 -1.1045,-0.4248 -1.1045,-0.4248 h -8.7509 l 2.8887,-8.9208 c 0.1699,-0.59472 -0.5098,-1.35936 -1.1895,-1.35936 h -0.7646 c -0.2549,0 -0.6797,0.25488 -0.8496,0.4248 -0.1699,0.16992 -4.0781,3.3984 -4.4179,3.65328 -0.3399,0.25488 -0.4248,0.67968 -0.4248,0.67968 0,0 -0.8496,2.37888 -1.9541,5.5224 h -4.7578 c -1.0195,0 -1.1894,1.01952 -1.1894,1.01952 v 1.10448 c 0,0.93456 1.1894,1.01952 1.1894,1.01952 h 3.7383 c -1.8692,5.60736 -3.9082,12.23424 -3.9082,14.10336 0,4.07808 2.8037,5.01264 5.4374,5.01264 2.6338,0 5.5224,-2.03904 5.5224,-2.03904 0,0 0.2549,0.59472 0.5098,1.2744 0.2549,0.67968 1.0195,0.76464 1.0195,0.76464 h 3.8232 c 1.1045,0 1.2744,-0.93456 1.2744,-0.93456 v -1.61424 c 0,-1.86912 1.3594,-6.11712 1.3594,-6.11712 l 3.5683,-8.0712 c 0,0 0.8496,-1.61424 1.7842,-2.46384 0.9345,-0.76464 1.954,-1.10448 2.3788,-0.8496 -1.1894,0.76464 -1.4443,2.03904 -1.4443,3.05856 0,1.01952 1.1045,3.22848 3.3984,3.22848 2.8887,0 3.9082,-1.78416 3.9082,-4.41792 0,-2.63376 -1.8691,-5.18256 -5.1826,-5.18256 m -14.2733,14.95296 c -0.6796,2.29392 -2.9736,3.8232 -4.4179,3.8232 -0.2549,0 -0.4248,0 -0.5947,-0.085 -0.6797,-0.33984 -0.9346,-1.18944 -0.9346,-2.124 0,-1.95408 0.9346,-4.41792 0.9346,-4.41792 l 2.5488,-7.90128 h 5.6074 c 0.2548,0 0.2548,0.25488 0.2548,0.25488 0,0 -2.6337,7.81632 -3.3984,10.45008"
     class="Articulation" />
  <path
     id="path1034"
     d="m 157.853,306.31328 406.684,-21.36 v 10.63 l -406.684,21.37 v -10.64"
     fill-rule="evenodd"
     class="Beam" />
  <path
     id="path1036"
     d="m 157.853,290.38328 406.684,-21.36 v 10.63 l -406.684,21.37 v -10.64"
     fill-rule="evenodd"
     class="Beam" />
  <path
     id="path1038"
     d="m 157.853,274.45328 406.684,-21.36 v 10.63 l -406.684,21.37 v -10.64"
     fill-rule="evenodd"
     class="Beam" />
  <path
     id="path1040"
     d="m 430.518,110.19328 22.892,11.43 v 8.31 l -22.892,-11.43 v -8.31"
     fill-rule="evenodd"
     class="Beam" />
  <path
     id="path1042"
     d="m 430.518,122.58328 22.892,11.43 v 8.31 l -22.892,-11.43 v -8.31"
     fill-rule="evenodd"
     class="Beam" />
  <path
     id="path1044"
     d="m 430.518,134.97328 22.892,11.43 v 8.31 l -22.892,-11.43 v -8.31"
     fill-rule="evenodd"
     class="Beam" />
  <path
     id="path1046"
     d="m 430.518,147.36328 22.892,11.43 v 8.31 l -22.892,-11.43 v -8.31"
     fill-rule="evenodd"
     class="Beam" />
  <path
     id="path1048"
     d="m 640.48,99.13328 137.58,5.4 v 10.63 l -137.58,-5.4 v -10.63"
     fill-rule="evenodd"
     class="Beam" />
  <path
     id="path1050"
     d="m 778.06,120.46328 -27.61,-1.08 v 10.63 l 27.61,1.08 v -10.63"
     fill-rule="evenodd"
     class="Beam" />
  <path
     id="path1052"
     d="m 889.9,72.88328 327.89,-32.09 v 10.67 l -327.89,32.09 v -10.67"
     fill-rule="evenodd"
     class="Beam" />
  <path
     id="path1054"
     d="m 889.9,88.81328 106.07,-10.38 v 10.67 l -106.07,10.38 v -10.67"
     fill-rule="evenodd"
     class="Beam" />
  <path
     id="path1056"
     d="m 1046.81,73.46328 170.98,-16.74 v 10.67 l -170.98,16.74 v -10.67"
     fill-rule="evenodd"
     class="Beam" />
  <path
     id="path1058"
     d="m 995.97,94.36328 -27.61,2.7 v 10.67 l 27.61,-2.7 v -10.67"
     fill-rule="evenodd"
     class="Beam" />
  <path
     id="path1060"
     d="m 1046.81,89.39328 170.98,-16.74 v 10.67 l -170.98,16.74 v -10.67"
     fill-rule="evenodd"
     class="Beam" />
  <path
     id="path1062"
     d="m 1243.91,263.84328 h 454.12 v 10.62 h -454.12 v -10.62"
     fill-rule="evenodd"
     class="Beam" />
  <path
     id="path1064"
     d="m 1243.91,247.91328 h 454.12 v 10.62 h -454.12 v -10.62"
     fill-rule="evenodd"
     class="Beam" />
  <path
     id="path1066"
     d="m 1243.91,231.98328 h 454.12 v 10.62 h -454.12 v -10.62"
     fill-rule="evenodd"
     class="Beam" />
  <path
     id="path1068"
     d="m 1592.16,95.89328 22.89,-11.44 v 8.31 l -22.89,11.44 v -8.31"
     fill-rule="evenodd"
     class="Beam" />
  <path
     id="path1070"
     d="m 1592.16,107.04328 22.89,-11.44 v 8.31 l -22.89,11.44 v -8.31"
     fill-rule="evenodd"
     class="Beam" />
  <path
     id="path1072"
     d="m 1592.16,118.19328 22.89,-11.43 v 8.31 l -22.89,11.43 v -8.31"
     fill-rule="evenodd"
     class="Beam" />
  <path
     id="path1074"
     d="m 1592.16,129.34328 22.89,-11.43 v 8.31 l -22.89,11.43 v -8.31"
     fill-rule="evenodd"
     class="Beam" />
  <path
     id="path1076"
     d="m 1592.16,140.49328 22.89,-11.43 v 8.31 l -22.89,11.43 v -8.31"
     fill-rule="evenodd"
     class="Beam" />
  <path
     id="path1078"
     d="m 1748.86,242.58328 297.49,21.41 v 10.65 l -297.49,-21.41 v -10.65"
     fill-rule="evenodd"
     class="Beam" />
  <path
     id="path1080"
     d="m 1748.86,226.65328 297.49,21.41 v 10.65 l -297.49,-21.41 v -10.65"
     fill-rule="evenodd"
     class="Beam" />
  <path
     id="path1082"
     d="m 1854.93,218.36328 -27.61,-1.99 v 10.65 l 27.61,1.99 v -10.65"
     fill-rule="evenodd"
     class="Beam" />
  <path
     id="path1084"
     d="m 1990.84,228.14328 55.51,3.99 v 10.65 l -55.51,-3.99 v -10.65"
     fill-rule="evenodd"
     class="Beam" />
  <path
     style="stroke-width:0.8496"
     id="path1100"
     d="m 864.58752,285.74089 c 0,0.57854 0.27446,1.05179 1.2549,1.05179 0.98044,0 1.15717,-0.4316 1.25482,-1.05179 0,0 1.32368,-9.02534 4.57175,-13.7372 3.24797,-4.71188 8.51634,-7.39152 12.62585,-12.62676 2.97793,-3.79176 4.04325,-8.34562 4.12396,-12.78053 0.0765,-4.22506 -0.7451,-8.31682 -1.65579,-11.56476 0.28377,-1.79775 0.45276,-3.86483 0.45276,-6.28704 0,-4.81043 -2.19877,-9.40507 -3.76033,-11.84002 -0.40271,-0.62701 -0.83261,-1.52928 -1.72724,-1.0671 -0.89454,0.4621 -0.49617,1.4936 -0.20815,2.29392 1.23871,3.42126 1.81899,7.73136 1.88704,9.84772 0.10867,3.38735 -0.14783,6.69399 -3.55481,11.78055 -5.08222,7.58693 -11.80945,11.80944 -14.00986,12.62251 -0.57605,0.19872 -1.2549,0.60321 -1.2549,0.81306 v 32.54565 m 19.9656,-43.72808 c 0.29991,4.09082 0.35428,8.17655 -4.44502,13.99877 -3.22848,3.91419 -8.41961,7.77308 -12.22921,8.078 l -0.085,0.34927 c 0.0535,-0.28215 0.10703,-0.53703 0.15971,-0.74 0.55739,-2.16487 2.11803,-5.12139 5.44423,-8.46202 4.17409,-4.19201 6.70165,-6.88176 8.99897,-9.87065 0.6784,-0.87254 1.64593,-2.37489 2.15968,-3.35337 h -0.003"
     class="Hook" />
  <path
     style="stroke-width:0.59472"
     id="path1118"
     d="m 1278.53,196.73538 c 0,0.4163 0.1784,0.77313 0.8921,0.77313 0.7136,0 0.8326,-0.35683 0.8921,-0.77313 0,0 0.892,-6.30404 3.152,-9.575 2.2599,-3.27096 6.0066,-4.63881 8.8613,-8.32608 2.0815,-2.67624 2.7952,-5.82825 2.8547,-8.9208 v -0.53524 c 0,-1.90311 -0.2974,-3.74674 -0.5948,-5.41196 0.2974,-1.01102 0.5948,-2.73571 0.5948,-3.8062 v -0.53525 c 0,-1.90311 -0.2974,-3.74674 -0.5948,-5.35248 0.3569,-1.24891 0.5948,-2.49783 0.5948,-3.80621 v -0.47578 c 0,-2.61676 -0.4758,-5.11459 -1.0111,-7.19611 0.1785,-1.24891 0.3569,-2.67624 0.3569,-4.40093 0,-3.3899 -1.5463,-6.54192 -2.6168,-8.2666 -0.2974,-0.41631 -0.5352,-1.0705 -1.1894,-0.77314 -0.6542,0.29736 -0.3569,1.0705 -0.1785,1.60574 0.8327,2.37888 1.249,5.41196 1.3084,6.89876 v 0.59472 c 0,2.20046 -0.3568,4.34145 -2.5573,7.61241 -3.5683,5.29301 -8.2666,8.26661 -9.8128,8.80186 -0.4164,0.11894 -0.8921,0.4163 -0.8921,0.59472 l -0.06,41.27357 m 14.0354,-38.35944 v 0.4163 c 0,2.31941 -0.5353,4.75776 -3.152,7.96925 -2.26,2.73571 -5.8878,5.41195 -8.564,5.64984 l -0.06,0.23789 c 0.119,-0.89208 0.5353,-3.50885 2.5573,-5.35248 3.3305,-3.03308 5.8878,-4.51988 8.7424,-8.20714 0.1784,-0.23789 0.2974,-0.47578 0.4758,-0.71366 m -11.716,23.7888 -0.06,0.29736 c 0.06,-0.71367 0.4163,-3.50885 2.5573,-5.47143 3.3305,-3.03307 5.8878,-4.51987 8.7424,-8.20713 0.1784,-0.23789 0.2974,-0.47578 0.4758,-0.71367 v 0.47578 c 0,2.31941 -0.4758,4.75776 -3.152,7.96925 -2.26,2.73571 -5.8878,5.41195 -8.564,5.64984 m 11.716,-34.37482 c 0,0.4163 0.06,0.89208 0.06,1.30838 0,2.31941 -0.5353,4.75776 -3.2115,7.96925 -2.2005,2.67624 -5.7688,5.35248 -8.445,5.64984 0.4163,-1.4868 1.4868,-3.56832 3.8062,-5.82825 2.9141,-2.91413 4.6982,-4.81724 6.304,-6.89876 0.4758,-0.59472 1.13,-1.54627 1.4868,-2.20046"
     class="Hook" />
  <path
     style="stroke-width:0.59472"
     id="path1120"
     d="m 1308.28,207.35538 c 0,0.4163 0.1784,0.77313 0.8921,0.77313 0.7136,0 0.8326,-0.35683 0.8921,-0.77313 0,0 0.892,-6.30404 3.152,-9.575 2.2599,-3.27096 6.0066,-4.63881 8.8613,-8.32608 2.0815,-2.67624 2.7952,-5.82825 2.8547,-8.9208 v -0.53524 c 0,-1.90311 -0.2974,-3.74674 -0.5948,-5.41196 0.2974,-1.01102 0.5948,-2.73571 0.5948,-3.8062 v -0.53525 c 0,-1.90311 -0.2974,-3.74674 -0.5948,-5.35248 0.3569,-1.24891 0.5948,-2.49783 0.5948,-3.80621 v -0.47578 c 0,-2.61676 -0.4758,-5.11459 -1.0111,-7.19611 0.1785,-1.24891 0.3569,-2.67624 0.3569,-4.40093 0,-3.3899 -1.5463,-6.54192 -2.6168,-8.2666 -0.2974,-0.41631 -0.5352,-1.0705 -1.1894,-0.77314 -0.6542,0.29736 -0.3569,1.0705 -0.1785,1.60574 0.8327,2.37888 1.249,5.41196 1.3084,6.89876 v 0.59472 c 0,2.20046 -0.3568,4.34145 -2.5573,7.61241 -3.5683,5.29301 -8.2666,8.26661 -9.8128,8.80186 -0.4164,0.11894 -0.8921,0.4163 -0.8921,0.59472 l -0.06,41.27357 m 14.0354,-38.35944 v 0.4163 c 0,2.31941 -0.5353,4.75776 -3.152,7.96925 -2.26,2.73571 -5.8878,5.41195 -8.564,5.64984 l -0.06,0.23789 c 0.119,-0.89208 0.5353,-3.50885 2.5573,-5.35248 3.3305,-3.03308 5.8878,-4.51988 8.7424,-8.20714 0.1784,-0.23789 0.2974,-0.47578 0.4758,-0.71366 m -11.716,23.7888 -0.06,0.29736 c 0.06,-0.71367 0.4163,-3.50885 2.5573,-5.47143 3.3305,-3.03307 5.8878,-4.51987 8.7424,-8.20713 0.1784,-0.23789 0.2974,-0.47578 0.4758,-0.71367 v 0.47578 c 0,2.31941 -0.4758,4.75776 -3.152,7.96925 -2.26,2.73571 -5.8878,5.41195 -8.564,5.64984 m 11.716,-34.37482 c 0,0.4163 0.06,0.89208 0.06,1.30838 0,2.31941 -0.5353,4.75776 -3.2115,7.96925 -2.2005,2.67624 -5.7688,5.35248 -8.445,5.64984 0.4163,-1.4868 1.4868,-3.56832 3.8062,-5.82825 2.9141,-2.91413 4.6982,-4.81724 6.304,-6.89876 0.4758,-0.59472 1.13,-1.54627 1.4868,-2.20046"
     class="Hook" />
  <path
     style="stroke-width:0.8496"
     id="path1122"
     d="m 2125.4236,192.47688 c -0.085,-0.25488 -0.8496,-3.22848 -0.8496,-3.3984 -0.085,-0.33984 -0.5947,-0.59472 -1.0195,-0.59472 -0.5947,0 -1.1045,0.50976 -1.1045,1.10448 v 13.93344 5.26752 c 0,0.4248 0.3398,0.76464 0.6797,0.93456 3.5683,1.10448 10.9598,5.77728 16.4822,15.20784 1.5293,2.63376 3.9931,6.20208 3.9931,13.33872 0,6.11712 -0.9345,12.57408 -2.4638,18.52128 -0.2549,0.93456 -0.5098,1.78416 0.4248,2.124 0.9346,0.33984 1.2744,-0.33984 1.6142,-1.18944 3.0586,-7.47648 3.8232,-15.2928 3.8232,-20.56032 v -1.61424 c -0.4248,-10.95984 -6.7118,-19.03104 -6.7118,-19.03104 0.2549,0 -7.8163,-10.45008 -10.1102,-14.0184 -3.1436,-4.84272 -4.6728,-9.68544 -4.7578,-10.02528"
     class="Hook" />
  <path
     id="path1184"
     d="m 227.745,90.77328 -11.56,16.08 v 1.9 h 9.554 v 1.77 c 0,1.73 0,1.8 -0.204,2.11 -0.272,0.37 -0.918,0.47 -2.856,0.47 h -0.374 v 1.6 h 9.928 v -1.6 h -0.136 c -1.938,0 -2.584,-0.1 -2.856,-0.47 -0.204,-0.31 -0.204,-0.34 -0.204,-2.11 v -1.77 h 4.114 v -1.9 h -4.114 v -9.28 c 0,-4.25 0,-4.36 0.17,-6.8 h -1.462 m -2.006,16.08 h -7.48 l 7.48,-10.3 v 10.3"
     class="Fingering" />
  <path
     id="path1186"
     d="m 386.29,109.70328 c 3.094,-1.12 4.522,-2.86 4.522,-5.58 0,-3.57 -2.72,-5.85 -6.936,-5.85 -3.978,0 -7.004,2.35 -7.004,5.44 0,1.4 0.918,2.38 2.244,2.38 1.19,0 2.006,-0.81 2.006,-2.04 0,-0.74 -0.272,-1.19 -1.054,-1.73 -0.34,-0.24 -0.442,-0.37 -0.442,-0.61 0,-0.95 1.972,-1.97 3.91,-1.97 2.448,0 3.74,1.53 3.74,4.42 0,3.16 -1.292,4.82 -3.706,4.82 -0.306,0 -0.884,-0.03 -1.394,-0.06 -0.272,-0.04 -0.544,-0.04 -0.748,-0.04 -0.714,0 -1.088,0.31 -1.088,0.92 0,0.58 0.34,0.85 1.088,0.85 0.204,0 0.476,0 0.782,-0.03 0.68,-0.04 1.224,-0.04 1.598,-0.04 2.516,0 3.876,1.8 3.876,5.17 0,3.54 -1.7,5.51 -4.76,5.51 -2.142,0 -4.454,-1.16 -4.454,-2.21 0,-0.31 0.068,-0.38 0.714,-0.75 0.952,-0.58 1.326,-1.16 1.326,-2.01 0,-1.22 -0.918,-2.14 -2.142,-2.14 -1.462,0 -2.414,1.19 -2.414,2.99 0,3.3 3.026,5.58 7.378,5.58 4.93,0 8.126,-2.72 8.126,-6.9 0,-3.2 -1.632,-5.14 -5.168,-6.12"
     class="Fingering" />
  <path
     style="stroke-width:0.8496"
     id="path1240"
     d="m 653.44,178.88187 c 0,2.34611 1.90189,4.248 4.248,4.248 2.34611,0 4.248,-1.90189 4.248,-4.248 0,-2.34611 -1.90189,-4.248 -4.248,-4.248 -2.34611,0 -4.248,1.90189 -4.248,4.248"
     class="NoteDot" />
  <path
     style="stroke-width:0.8496"
     id="path1242"
     d="m 902.86,178.88187 c 0,2.34611 1.90189,4.248 4.248,4.248 2.34611,0 4.248,-1.90189 4.248,-4.248 0,-2.34611 -1.90189,-4.248 -4.248,-4.248 -2.34611,0 -4.248,1.90189 -4.248,4.248"
     class="NoteDot" />
  <path
     style="stroke-width:0.8496"
     id="path1244"
     d="m 1787.09,115.16187 c 0,2.34611 1.9019,4.248 4.248,4.248 2.3461,0 4.248,-1.90189 4.248,-4.248 0,-2.34611 -1.9019,-4.248 -4.248,-4.248 -2.3461,0 -4.248,1.90189 -4.248,4.248"
     class="NoteDot" />
  <path
     style="stroke-width:0.8496"
     id="path1246"
     d="m 2135.4,263.84187 c 0,2.34611 1.9019,4.248 4.248,4.248 2.3461,0 4.248,-1.90189 4.248,-4.248 0,-2.34611 -1.9019,-4.248 -4.248,-4.248 -2.3461,0 -4.248,1.90189 -4.248,4.248"
     class="NoteDot" />
</svg>
