<?xml version="1.0" encoding="UTF-8" standalone="no"?>
<svg
   xmlns:dc="http://purl.org/dc/elements/1.1/"
   xmlns:cc="http://creativecommons.org/ns#"
   xmlns:rdf="http://www.w3.org/1999/02/22-rdf-syntax-ns#"
   xmlns:svg="http://www.w3.org/2000/svg"
   xmlns="http://www.w3.org/2000/svg"
   xmlns:sodipodi="http://sodipodi.sourceforge.net/DTD/sodipodi-0.dtd"
   xmlns:inkscape="http://www.inkscape.org/namespaces/inkscape"
   inkscape:version="1.0 (4035a4f, 2020-05-01)"
   sodipodi:docname="snippet26.svg"
   id="svg21084"
   version="1.2"
   viewBox="0 0 2340 311.66953"
   height="311.66953"
   width="2340">
  <metadata
     id="metadata21090">
    <rdf:RDF>
      <cc:Work
         rdf:about="">
        <dc:format>image/svg+xml</dc:format>
        <dc:type
           rdf:resource="http://purl.org/dc/dcmitype/StillImage" />
        <dc:title>Batches2Partita3</dc:title>
      </cc:Work>
    </rdf:RDF>
  </metadata>
  <defs
     id="defs21088" />
  <sodipodi:namedview
     inkscape:current-layer="svg21084"
     inkscape:window-maximized="0"
     inkscape:window-y="23"
     inkscape:window-x="0"
     inkscape:cy="906.94162"
     inkscape:cx="1303.9617"
     inkscape:zoom="0.20368705"
     showgrid="false"
     id="namedview21086"
     inkscape:window-height="845"
     inkscape:window-width="1037"
     inkscape:pageshadow="2"
     inkscape:pageopacity="0"
     guidetolerance="10"
     gridtolerance="10"
     objecttolerance="10"
     borderopacity="1"
     bordercolor="#666666"
     pagecolor="#ffffff" />
  <title
     id="title19846">Batches2Partita3</title>
  <desc
     id="desc19848">Generated by MuseScore 3.6.2</desc>
  <polyline
     transform="translate(-360,-1723.6)"
     id="polyline19870"
     points="360,1853.71 2700,1853.71"
     stroke-linejoin="bevel"
     stroke-width="2.34"
     stroke="#000000"
     fill="none"
     class="StaffLines" />
  <polyline
     transform="translate(-360,-1723.6)"
     id="polyline19872"
     points="360,1874.95 2700,1874.95"
     stroke-linejoin="bevel"
     stroke-width="2.34"
     stroke="#000000"
     fill="none"
     class="StaffLines" />
  <polyline
     transform="translate(-360,-1723.6)"
     id="polyline19874"
     points="360,1896.19 2700,1896.19"
     stroke-linejoin="bevel"
     stroke-width="2.34"
     stroke="#000000"
     fill="none"
     class="StaffLines" />
  <polyline
     transform="translate(-360,-1723.6)"
     id="polyline19876"
     points="360,1917.43 2700,1917.43"
     stroke-linejoin="bevel"
     stroke-width="2.34"
     stroke="#000000"
     fill="none"
     class="StaffLines" />
  <polyline
     transform="translate(-360,-1723.6)"
     id="polyline19878"
     points="360,1938.67 2700,1938.67"
     stroke-linejoin="bevel"
     stroke-width="2.34"
     stroke="#000000"
     fill="none"
     class="StaffLines" />
  <path
     id="path19904"
     d="m 273.867,170.47 c 3.998,8.43 22.505,14.8 30.845,10.62 -9.308,6.99 -27.815,0.62 -30.845,-10.62"
     fill-rule="evenodd"
     stroke-linejoin="round"
     stroke-linecap="round"
     stroke-width="1.49"
     stroke="#000000"
     class="SlurSegment" />
  <path
     id="path19906"
     d="m 478.161,77.57 c 26.847,-25.66 74.19,-20.35 94.685,10.62 -21.158,-25.06 -68.5,-30.37 -94.685,-10.62"
     fill-rule="evenodd"
     stroke-linejoin="round"
     stroke-linecap="round"
     stroke-width="1.49"
     stroke="#000000"
     class="SlurSegment" />
  <path
     id="path19908"
     d="m 690.38,70.81 c 14.57,-21.53 43.21,-19.94 57.28,3.18 -14.4,-17.18 -43.04,-18.77 -57.28,-3.18"
     fill-rule="evenodd"
     stroke-linejoin="round"
     stroke-linecap="round"
     stroke-width="1.49"
     stroke="#000000"
     class="SlurSegment" />
  <path
     id="path19910"
     d="m 781.03,40.23 c 17.54,-8.57 38.61,2.05 42.16,21.24 -6.22,-13.88 -27.3,-24.5 -42.16,-21.24"
     fill-rule="evenodd"
     stroke-linejoin="round"
     stroke-linecap="round"
     stroke-width="1.49"
     stroke="#000000"
     class="SlurSegment" />
  <path
     id="path19912"
     d="m 880.79,61.47 c 17.53,-8.57 38.61,2.05 42.15,21.24 -6.22,-13.88 -27.3,-24.5 -42.15,-21.24"
     fill-rule="evenodd"
     stroke-linejoin="round"
     stroke-linecap="round"
     stroke-width="1.49"
     stroke="#000000"
     class="SlurSegment" />
  <path
     id="path19914"
     d="m 1011.72,66.78 c 19.22,-32.45 67.13,-40.41 95.82,-15.93 -27.71,-18.62 -75.62,-10.65 -95.82,15.93"
     fill-rule="evenodd"
     stroke-linejoin="round"
     stroke-linecap="round"
     stroke-width="1.49"
     stroke="#000000"
     class="SlurSegment" />
  <path
     id="path19916"
     d="m 1232.44,181.09 c 15.25,29.47 60.8,45.4 91.1,31.86 -32.26,19.16 -77.81,3.23 -91.1,-31.86"
     fill-rule="evenodd"
     stroke-linejoin="round"
     stroke-linecap="round"
     stroke-width="1.49"
     stroke="#000000"
     class="SlurSegment" />
  <path
     id="path19918"
     d="m 1417.63,142.86 c 23.53,-37.43 82.21,-48.05 117.37,-21.24 -34.1,-20.96 -92.78,-10.34 -117.37,21.24"
     fill-rule="evenodd"
     stroke-linejoin="round"
     stroke-linecap="round"
     stroke-width="1.49"
     stroke="#000000"
     class="SlurSegment" />
  <path
     id="path19920"
     d="m 1570.67,79.14 c 14.79,-12.19 37.41,-6.88 45.23,10.62 -9.18,-11.71 -31.8,-17.02 -45.23,-10.62"
     fill-rule="evenodd"
     stroke-linejoin="round"
     stroke-linecap="round"
     stroke-width="1.49"
     stroke="#000000"
     class="SlurSegment" />
  <path
     id="path19922"
     d="m 1651.56,153.48 c 15.55,-32.1 59.56,-42.72 88.03,-21.24 -27.08,-15.7 -71.09,-5.08 -88.03,21.24"
     fill-rule="evenodd"
     stroke-linejoin="round"
     stroke-linecap="round"
     stroke-width="1.49"
     stroke="#000000"
     class="SlurSegment" />
  <path
     id="path19924"
     d="m 1775.25,89.76 c 11.02,-10.19 33.7,-3.82 37.8,10.62 -5.71,-8.71 -28.39,-15.08 -37.8,-10.62"
     fill-rule="evenodd"
     stroke-linejoin="round"
     stroke-linecap="round"
     stroke-width="1.49"
     stroke="#000000"
     class="SlurSegment" />
  <path
     id="path19926"
     d="m 1876.88,202.33 c 46.89,16.16 119,-10.39 144.22,-53.1 -23.16,48.29 -95.27,74.84 -144.22,53.1"
     fill-rule="evenodd"
     stroke-linejoin="round"
     stroke-linecap="round"
     stroke-width="1.49"
     stroke="#000000"
     class="SlurSegment" />
  <path
     id="path19928"
     d="m 2220.09,287.29 c 11.66,9.37 34.98,9.37 46.64,0 -11.66,15.32 -34.98,15.32 -46.64,0"
     fill-rule="evenodd"
     stroke-linejoin="round"
     stroke-linecap="round"
     stroke-width="1.49"
     stroke="#000000"
     class="SlurSegment" />
  <path
     id="path19946"
     d="m 346.653,82.32 c 11.916,-12.02 47.663,-12.02 59.578,0 -11.915,-6.08 -47.662,-6.08 -59.578,0"
     fill-rule="evenodd"
     stroke-linejoin="round"
     stroke-linecap="round"
     stroke-width="1.49"
     stroke="#000000"
     class="TieSegment" />
  <polyline
     transform="translate(-360,-1723.6)"
     id="polyline19966"
     points="980.42,1852.55 980.42,1939.84"
     stroke-linejoin="bevel"
     stroke-width="3.82"
     stroke="#000000"
     class="BarLine" />
  <polyline
     transform="translate(-360,-1723.6)"
     id="polyline19968"
     points="1317.88,1852.55 1317.88,1939.84"
     stroke-linejoin="bevel"
     stroke-width="3.82"
     stroke="#000000"
     class="BarLine" />
  <polyline
     transform="translate(-360,-1723.6)"
     id="polyline19970"
     points="1731.11,1852.55 1731.11,1939.84"
     stroke-linejoin="bevel"
     stroke-width="3.82"
     stroke="#000000"
     class="BarLine" />
  <polyline
     transform="translate(-360,-1723.6)"
     id="polyline19972"
     points="2428.68,1852.55 2428.68,1939.84"
     stroke-linejoin="bevel"
     stroke-width="3.82"
     stroke="#000000"
     class="BarLine" />
  <path
     style="stroke-width:0.8496"
     id="path20006"
     d="m 451.44696,102.15816 c -0.50976,-3.31344 -2.5488,-6.45696 -6.88176,-6.45696 -4.248,0 -6.71184,2.63376 -7.13664,3.14352 l 0.33984,-27.27216 c 0,-0.67968 -0.50976,-1.18944 -1.18944,-1.18944 h -1.01952 c -0.67968,0 -1.18944,0.50976 -1.18944,1.18944 l 0.4248,51.06096 c 0,0.67968 0.50976,1.18944 1.18944,1.18944 0.16992,0 0.50976,-0.085 0.67968,-0.16992 0.33984,-0.16992 5.86224,-2.88864 10.45008,-8.0712 3.22848,-3.65328 4.50288,-7.81632 4.50288,-11.29968 0,-0.76464 -0.085,-1.44432 -0.16992,-2.124 m -5.86224,3.31344 c 0,1.2744 -0.33984,5.18256 -2.46384,8.41104 -1.44432,2.20896 -4.33296,4.50288 -5.9472,5.77728 l 0.25488,-16.5672 c 0.16992,-0.76464 1.44432,-3.22848 4.84272,-3.22848 3.05856,0 3.31344,2.88864 3.31344,4.6728 v 0.93456"
     class="Accidental" />
  <path
     style="stroke-width:0.8496"
     id="path20008"
     d="m 521.95468,121.10424 c 0.50976,-0.085 0.93456,-0.67968 0.93456,-1.18944 v -5.01264 c 0,-0.67968 -0.50976,-1.18944 -1.18944,-1.18944 h -0.16992 l -2.80368,0.59472 V 101.6484 h -2.37888 v 13.1688 l -7.56144,1.52928 V 104.36712 H 506.407 v 12.48912 l -3.31344,0.67968 c -0.50976,0.085 -0.93456,0.67968 -0.93456,1.18944 v 0.16992 4.92768 -0.16992 c 0,0.67968 0.50976,1.18944 1.18944,1.18944 h 0.25488 l 2.80368,-0.59472 v 14.0184 l -3.31344,0.67968 c -0.50976,0.085 -0.93456,0.67968 -0.93456,1.18944 v 4.92768 c 0,0.67968 0.50976,1.18944 1.18944,1.18944 h 0.25488 l 2.80368,-0.59472 v 12.65904 h 2.37888 v -13.1688 l 7.56144,-1.52928 V 155.598 h 2.37888 v -12.48912 l 3.22848,-0.59472 c 0.50976,-0.085 0.93456,-0.67968 0.93456,-1.18944 v -5.01264 c 0,-0.67968 -0.50976,-1.18944 -1.18944,-1.18944 h -0.16992 l -2.80368,0.59472 v -14.0184 l 3.22848,-0.59472 m -13.1688,16.73712 V 123.738 l 7.56144,-1.52928 v 14.0184 l -7.56144,1.61424"
     class="Accidental" />
  <path
     style="stroke-width:0.8496"
     id="path20010"
     d="m 660.60568,121.10424 c 0.50976,-0.085 0.93456,-0.67968 0.93456,-1.18944 v -5.01264 c 0,-0.67968 -0.50976,-1.18944 -1.18944,-1.18944 h -0.16992 l -2.80368,0.59472 V 101.6484 h -2.37888 v 13.1688 l -7.56144,1.52928 V 104.36712 H 645.058 v 12.48912 l -3.31344,0.67968 c -0.50976,0.085 -0.93456,0.67968 -0.93456,1.18944 v 0.16992 4.92768 -0.16992 c 0,0.67968 0.50976,1.18944 1.18944,1.18944 h 0.25488 l 2.80368,-0.59472 v 14.0184 l -3.31344,0.67968 c -0.50976,0.085 -0.93456,0.67968 -0.93456,1.18944 v 4.92768 c 0,0.67968 0.50976,1.18944 1.18944,1.18944 h 0.25488 l 2.80368,-0.59472 v 12.65904 h 2.37888 v -13.1688 l 7.56144,-1.52928 V 155.598 h 2.37888 v -12.48912 l 3.22848,-0.59472 c 0.50976,-0.085 0.93456,-0.67968 0.93456,-1.18944 v -5.01264 c 0,-0.67968 -0.50976,-1.18944 -1.18944,-1.18944 h -0.16992 l -2.80368,0.59472 v -14.0184 l 3.22848,-0.59472 m -13.1688,16.73712 V 123.738 l 7.56144,-1.52928 v 14.0184 l -7.56144,1.61424"
     class="Accidental" />
  <path
     style="stroke-width:0.8496"
     id="path20012"
     d="m 848.86696,134.01816 c -0.50976,-3.31344 -2.5488,-6.45696 -6.88176,-6.45696 -4.248,0 -6.71184,2.63376 -7.13664,3.14352 l 0.33984,-27.27216 c 0,-0.67968 -0.50976,-1.18944 -1.18944,-1.18944 h -1.01952 c -0.67968,0 -1.18944,0.50976 -1.18944,1.18944 l 0.4248,51.06096 c 0,0.67968 0.50976,1.18944 1.18944,1.18944 0.16992,0 0.50976,-0.085 0.67968,-0.16992 0.33984,-0.16992 5.86224,-2.88864 10.45008,-8.0712 3.22848,-3.65328 4.50288,-7.81632 4.50288,-11.29968 0,-0.76464 -0.085,-1.44432 -0.16992,-2.124 m -5.86224,3.31344 c 0,1.2744 -0.33984,5.18256 -2.46384,8.41104 -1.44432,2.20896 -4.33296,4.50288 -5.9472,5.77728 l 0.25488,-16.5672 c 0.16992,-0.76464 1.44432,-3.22848 4.84272,-3.22848 3.05856,0 3.31344,2.88864 3.31344,4.6728 v 0.93456"
     class="Accidental" />
  <path
     style="stroke-width:0.8496"
     id="path20014"
     d="m 1075.627,134.01816 c -0.5098,-3.31344 -2.5488,-6.45696 -6.8818,-6.45696 -4.248,0 -6.7118,2.63376 -7.1366,3.14352 l 0.3398,-27.27216 c 0,-0.67968 -0.5098,-1.18944 -1.1894,-1.18944 h -1.0196 c -0.6796,0 -1.1894,0.50976 -1.1894,1.18944 l 0.4248,51.06096 c 0,0.67968 0.5098,1.18944 1.1894,1.18944 0.17,0 0.5098,-0.085 0.6797,-0.16992 0.3399,-0.16992 5.8623,-2.88864 10.4501,-8.0712 3.2285,-3.65328 4.5029,-7.81632 4.5029,-11.29968 0,-0.76464 -0.085,-1.44432 -0.1699,-2.124 m -5.8623,3.31344 c 0,1.2744 -0.3398,5.18256 -2.4638,8.41104 -1.4443,2.20896 -4.333,4.50288 -5.9472,5.77728 l 0.2549,-16.5672 c 0.1699,-0.76464 1.4443,-3.22848 4.8427,-3.22848 3.0585,0 3.3134,2.88864 3.3134,4.6728 v 0.93456"
     class="Accidental" />
  <path
     style="stroke-width:0.8496"
     id="path20016"
     d="m 1135.9357,195.44424 c 0.5097,-0.085 0.9345,-0.67968 0.9345,-1.18944 v -5.01264 c 0,-0.67968 -0.5097,-1.18944 -1.1894,-1.18944 h -0.1699 l -2.8037,0.59472 V 175.9884 h -2.3789 v 13.1688 l -7.5614,1.52928 v -11.97936 h -2.3789 v 12.48912 l -3.3134,0.67968 c -0.5098,0.085 -0.9346,0.67968 -0.9346,1.18944 v 0.16992 4.92768 -0.16992 c 0,0.67968 0.5098,1.18944 1.1894,1.18944 h 0.2549 l 2.8037,-0.59472 v 14.0184 l -3.3134,0.67968 c -0.5098,0.085 -0.9346,0.67968 -0.9346,1.18944 v 4.92768 c 0,0.67968 0.5098,1.18944 1.1894,1.18944 h 0.2549 l 2.8037,-0.59472 v 12.65904 h 2.3789 v -13.1688 l 7.5614,-1.52928 V 229.938 h 2.3789 v -12.48912 l 3.2285,-0.59472 c 0.5097,-0.085 0.9345,-0.67968 0.9345,-1.18944 v -5.01264 c 0,-0.67968 -0.5097,-1.18944 -1.1894,-1.18944 h -0.1699 l -2.8037,0.59472 v -14.0184 l 3.2285,-0.59472 m -13.1688,16.73712 V 198.078 l 7.5614,-1.52928 v 14.0184 l -7.5614,1.61424"
     class="Accidental" />
  <path
     style="stroke-width:0.8496"
     id="path20018"
     d="m 1515.717,134.01816 c -0.5098,-3.31344 -2.5488,-6.45696 -6.8818,-6.45696 -4.248,0 -6.7118,2.63376 -7.1366,3.14352 l 0.3398,-27.27216 c 0,-0.67968 -0.5098,-1.18944 -1.1894,-1.18944 h -1.0196 c -0.6796,0 -1.1894,0.50976 -1.1894,1.18944 l 0.4248,51.06096 c 0,0.67968 0.5098,1.18944 1.1894,1.18944 0.17,0 0.5098,-0.085 0.6797,-0.16992 0.3399,-0.16992 5.8623,-2.88864 10.4501,-8.0712 3.2285,-3.65328 4.5029,-7.81632 4.5029,-11.29968 0,-0.76464 -0.085,-1.44432 -0.1699,-2.124 m -5.8623,3.31344 c 0,1.2744 -0.3398,5.18256 -2.4638,8.41104 -1.4443,2.20896 -4.333,4.50288 -5.9472,5.77728 l 0.2549,-16.5672 c 0.1699,-0.76464 1.4443,-3.22848 4.8427,-3.22848 3.0585,0 3.3134,2.88864 3.3134,4.6728 v 0.93456"
     class="Accidental" />
  <path
     style="stroke-width:0.8496"
     id="path20020"
     d="m 2001.0557,121.10424 c 0.5097,-0.085 0.9345,-0.67968 0.9345,-1.18944 v -5.01264 c 0,-0.67968 -0.5097,-1.18944 -1.1894,-1.18944 h -0.1699 l -2.8037,0.59472 V 101.6484 h -2.3789 v 13.1688 l -7.5614,1.52928 v -11.97936 h -2.3789 v 12.48912 l -3.3134,0.67968 c -0.5098,0.085 -0.9346,0.67968 -0.9346,1.18944 v 0.16992 4.92768 -0.16992 c 0,0.67968 0.5098,1.18944 1.1894,1.18944 h 0.2549 l 2.8037,-0.59472 v 14.0184 l -3.3134,0.67968 c -0.5098,0.085 -0.9346,0.67968 -0.9346,1.18944 v 4.92768 c 0,0.67968 0.5098,1.18944 1.1894,1.18944 h 0.2549 l 2.8037,-0.59472 v 12.65904 h 2.3789 v -13.1688 l 7.5614,-1.52928 V 155.598 h 2.3789 v -12.48912 l 3.2285,-0.59472 c 0.5097,-0.085 0.9345,-0.67968 0.9345,-1.18944 v -5.01264 c 0,-0.67968 -0.5097,-1.18944 -1.1894,-1.18944 h -0.1699 l -2.8037,0.59472 v -14.0184 l 3.2285,-0.59472 m -13.1688,16.73712 V 123.738 l 7.5614,-1.52928 v 14.0184 l -7.5614,1.61424"
     class="Accidental" />
  <path
     style="stroke-width:0.59472"
     id="path20022"
     d="m 2116.537,123.80597 c 0.3568,-0.0595 0.6542,-0.47578 0.6542,-0.83261 v -3.50885 c 0,-0.47577 -0.3569,-0.83261 -0.8326,-0.83261 h -0.119 l -1.9626,0.41631 v -8.86133 h -1.6652 v 9.21816 l -5.293,1.0705 v -8.38556 h -1.6652 v 8.74239 l -2.3194,0.47577 c -0.3568,0.0595 -0.6542,0.47578 -0.6542,0.83261 v 0.11895 3.44937 -0.11894 c 0,0.47577 0.3568,0.83261 0.8326,0.83261 h 0.1784 l 1.9626,-0.41631 v 9.81288 l -2.3194,0.47578 c -0.3568,0.0595 -0.6542,0.47577 -0.6542,0.83261 v 3.44937 c 0,0.47578 0.3568,0.83261 0.8326,0.83261 h 0.1784 l 1.9626,-0.4163 v 8.86132 h 1.6652 v -9.21816 l 5.293,-1.07049 v 8.38555 h 1.6652 v -8.74238 l 2.26,-0.41631 c 0.3568,-0.0595 0.6542,-0.47577 0.6542,-0.83261 v -3.50884 c 0,-0.47578 -0.3569,-0.83261 -0.8326,-0.83261 h -0.119 l -1.9626,0.4163 v -9.81288 l 2.26,-0.4163 m -9.2182,11.71598 v -9.87235 l 5.293,-1.0705 v 9.81288 l -5.293,1.12997"
     class="Accidental" />
  <polyline
     transform="translate(-360,-1723.6)"
     id="polyline20060"
     points="532.911,1959.91 575.385,1959.91"
     stroke-linejoin="bevel"
     stroke-width="3.4"
     stroke="#000000"
     class="LedgerLine" />
  <polyline
     transform="translate(-360,-1723.6)"
     id="polyline20062"
     points="681.276,1832.47 723.749,1832.47"
     stroke-linejoin="bevel"
     stroke-width="3.4"
     stroke="#000000"
     class="LedgerLine" />
  <polyline
     transform="translate(-360,-1723.6)"
     id="polyline20064"
     points="749.136,1832.47 791.609,1832.47"
     stroke-linejoin="bevel"
     stroke-width="3.4"
     stroke="#000000"
     class="LedgerLine" />
  <polyline
     transform="translate(-360,-1723.6)"
     id="polyline20066"
     points="816.924,1832.47 859.398,1832.47"
     stroke-linejoin="bevel"
     stroke-width="3.4"
     stroke="#000000"
     class="LedgerLine" />
  <polyline
     transform="translate(-360,-1723.6)"
     id="polyline20068"
     points="1909.43,1832.47 1951.9,1832.47"
     stroke-linejoin="bevel"
     stroke-width="3.4"
     stroke="#000000"
     class="LedgerLine" />
  <polyline
     transform="translate(-360,-1723.6)"
     id="polyline20070"
     points="1954.66,1832.47 1997.14,1832.47"
     stroke-linejoin="bevel"
     stroke-width="3.4"
     stroke="#000000"
     class="LedgerLine" />
  <polyline
     transform="translate(-360,-1723.6)"
     id="polyline20072"
     points="2114.02,1832.47 2156.49,1832.47"
     stroke-linejoin="bevel"
     stroke-width="3.4"
     stroke="#000000"
     class="LedgerLine" />
  <polyline
     transform="translate(-360,-1723.6)"
     id="polyline20074"
     points="2558.85,1981.15 2601.32,1981.15"
     stroke-linejoin="bevel"
     stroke-width="3.4"
     stroke="#000000"
     class="LedgerLine" />
  <polyline
     transform="translate(-360,-1723.6)"
     id="polyline20076"
     points="2558.85,1959.91 2601.32,1959.91"
     stroke-linejoin="bevel"
     stroke-width="3.4"
     stroke="#000000"
     class="LedgerLine" />
  <polyline
     transform="translate(-360,-1723.6)"
     id="polyline20100"
     points="541.514,1962.77 541.514,2034.25"
     stroke-linejoin="bevel"
     stroke-width="2.34"
     stroke="#000000"
     class="Stem" />
  <polyline
     transform="translate(-360,-1723.6)"
     id="polyline20118"
     points="591.583,1914.72 591.583,1870.55"
     stroke-linejoin="bevel"
     stroke-width="2.34"
     stroke="#000000"
     class="Stem" />
  <polyline
     transform="translate(-360,-1723.6)"
     id="polyline20152"
     points="579.183,1882.86 579.183,1797.05"
     stroke-linejoin="bevel"
     stroke-width="2.34"
     stroke="#000000"
     class="Stem" />
  <polyline
     transform="translate(-360,-1723.6)"
     id="polyline20154"
     points="1028.02,1888.43 1028.02,1954.6"
     stroke-linejoin="bevel"
     stroke-width="2.34"
     stroke="#000000"
     class="Stem" />
  <polyline
     transform="translate(-360,-1723.6)"
     id="polyline20156"
     points="1115.77,1899.05 1115.77,1970.53"
     stroke-linejoin="bevel"
     stroke-width="2.34"
     stroke="#000000"
     class="Stem" />
  <polyline
     transform="translate(-360,-1723.6)"
     id="polyline20158"
     points="1215.52,1920.29 1215.52,1991.77"
     stroke-linejoin="bevel"
     stroke-width="2.34"
     stroke="#000000"
     class="Stem" />
  <polyline
     transform="translate(-360,-1723.6)"
     id="polyline20160"
     points="1346.45,1920.29 1346.45,1978.5"
     stroke-linejoin="bevel"
     stroke-width="2.34"
     stroke="#000000"
     class="Stem" />
  <polyline
     transform="translate(-360,-1723.6)"
     id="polyline20162"
     points="2196.08,1952.15 2196.08,2023.63"
     stroke-linejoin="bevel"
     stroke-width="2.34"
     stroke="#000000"
     class="Stem" />
  <polyline
     transform="translate(-360,-1723.6)"
     id="polyline20238"
     points="566.783,1861.62 566.783,1779.31"
     stroke-linejoin="bevel"
     stroke-width="2.34"
     stroke="#000000"
     class="Stem" />
  <polyline
     transform="translate(-360,-1723.6)"
     id="polyline20240"
     points="646.501,1872.24 646.501,1797.2"
     stroke-linejoin="bevel"
     stroke-width="2.34"
     stroke="#000000"
     class="Stem" />
  <polyline
     transform="translate(-360,-1723.6)"
     id="polyline20242"
     points="677.347,1882.86 677.347,1804.11"
     stroke-linejoin="bevel"
     stroke-width="2.34"
     stroke="#000000"
     class="Stem" />
  <polyline
     transform="translate(-360,-1723.6)"
     id="polyline20244"
     points="689.878,1824.71 689.878,1896.19"
     stroke-linejoin="bevel"
     stroke-width="2.34"
     stroke="#000000"
     class="Stem" />
  <polyline
     transform="translate(-360,-1723.6)"
     id="polyline20246"
     points="757.738,1824.71 757.738,1917.43"
     stroke-linejoin="bevel"
     stroke-width="2.34"
     stroke="#000000"
     class="Stem" />
  <polyline
     transform="translate(-360,-1723.6)"
     id="polyline20248"
     points="825.527,1835.33 825.527,1917.43"
     stroke-linejoin="bevel"
     stroke-width="2.34"
     stroke="#000000"
     class="Stem" />
  <polyline
     transform="translate(-360,-1723.6)"
     id="polyline20250"
     points="889.366,1856.57 889.366,1917.43"
     stroke-linejoin="bevel"
     stroke-width="2.34"
     stroke="#000000"
     class="Stem" />
  <polyline
     transform="translate(-360,-1723.6)"
     id="polyline20252"
     points="920.211,1845.95 920.211,1917.43"
     stroke-linejoin="bevel"
     stroke-width="2.34"
     stroke="#000000"
     class="Stem" />
  <polyline
     transform="translate(-360,-1723.6)"
     id="polyline20254"
     points="1053.29,1851 1053.29,1797.96"
     stroke-linejoin="bevel"
     stroke-width="2.34"
     stroke="#000000"
     class="Stem" />
  <polyline
     transform="translate(-360,-1723.6)"
     id="polyline20256"
     points="1111.85,1851.81 1111.85,1805.92"
     stroke-linejoin="bevel"
     stroke-width="1.64"
     stroke="#000000"
     class="Stem" />
  <polyline
     transform="translate(-360,-1723.6)"
     id="polyline20258"
     points="1090.59,1862.43 1090.59,1811.23"
     stroke-linejoin="bevel"
     stroke-width="1.64"
     stroke="#000000"
     class="Stem" />
  <polyline
     transform="translate(-360,-1723.6)"
     id="polyline20260"
     points="1141.03,1840.38 1141.03,1784.68"
     stroke-linejoin="bevel"
     stroke-width="2.34"
     stroke="#000000"
     class="Stem" />
  <polyline
     transform="translate(-360,-1723.6)"
     id="polyline20262"
     points="1183.19,1872.24 1183.19,1805.92"
     stroke-linejoin="bevel"
     stroke-width="2.34"
     stroke="#000000"
     class="Stem" />
  <polyline
     transform="translate(-360,-1723.6)"
     id="polyline20264"
     points="1240.79,1861.62 1240.79,1805.92"
     stroke-linejoin="bevel"
     stroke-width="2.34"
     stroke="#000000"
     class="Stem" />
  <polyline
     transform="translate(-360,-1723.6)"
     id="polyline20266"
     points="1282.94,1893.48 1282.94,1827.16"
     stroke-linejoin="bevel"
     stroke-width="2.34"
     stroke="#000000"
     class="Stem" />
  <polyline
     transform="translate(-360,-1723.6)"
     id="polyline20268"
     points="1371.72,1882.86 1371.72,1811.23"
     stroke-linejoin="bevel"
     stroke-width="2.34"
     stroke="#000000"
     class="Stem" />
  <polyline
     transform="translate(-360,-1723.6)"
     id="polyline20270"
     points="1409.95,1872.24 1409.95,1804.88"
     stroke-linejoin="bevel"
     stroke-width="2.34"
     stroke="#000000"
     class="Stem" />
  <polyline
     transform="translate(-360,-1723.6)"
     id="polyline20272"
     points="1467.54,1861.62 1467.54,1795.3"
     stroke-linejoin="bevel"
     stroke-width="2.34"
     stroke="#000000"
     class="Stem" />
  <polyline
     transform="translate(-360,-1723.6)"
     id="polyline20274"
     points="1528.62,1925.34 1528.62,1837.78"
     stroke-linejoin="bevel"
     stroke-width="2.34"
     stroke="#000000"
     class="Stem" />
  <polyline
     transform="translate(-360,-1723.6)"
     id="polyline20276"
     points="1566.85,1872.24 1566.85,1816.54"
     stroke-linejoin="bevel"
     stroke-width="2.34"
     stroke="#000000"
     class="Stem" />
  <polyline
     transform="translate(-360,-1723.6)"
     id="polyline20278"
     points="1605.07,1882.86 1605.07,1816.54"
     stroke-linejoin="bevel"
     stroke-width="2.34"
     stroke="#000000"
     class="Stem" />
  <polyline
     transform="translate(-360,-1723.6)"
     id="polyline20280"
     points="1635.44,1893.48 1635.44,1823.62"
     stroke-linejoin="bevel"
     stroke-width="2.34"
     stroke="#000000"
     class="Stem" />
  <polyline
     transform="translate(-360,-1723.6)"
     id="polyline20282"
     points="1665.81,1904.1 1665.81,1830.7"
     stroke-linejoin="bevel"
     stroke-width="2.34"
     stroke="#000000"
     class="Stem" />
  <polyline
     transform="translate(-360,-1723.6)"
     id="polyline20284"
     points="1696.17,1914.72 1696.17,1837.78"
     stroke-linejoin="bevel"
     stroke-width="2.34"
     stroke="#000000"
     class="Stem" />
  <polyline
     transform="translate(-360,-1723.6)"
     id="polyline20286"
     points="1764.99,1888.43 1764.99,1959.91"
     stroke-linejoin="bevel"
     stroke-width="2.34"
     stroke="#000000"
     class="Stem" />
  <polyline
     transform="translate(-360,-1723.6)"
     id="polyline20288"
     points="1882.37,1867.19 1882.37,1944.2"
     stroke-linejoin="bevel"
     stroke-width="2.34"
     stroke="#000000"
     class="Stem" />
  <polyline
     transform="translate(-360,-1723.6)"
     id="polyline20290"
     points="1833.74,1873.05 1833.74,1822.92"
     stroke-linejoin="bevel"
     stroke-width="1.64"
     stroke="#000000"
     class="Stem" />
  <polyline
     transform="translate(-360,-1723.6)"
     id="polyline20292"
     points="1918.03,1824.71 1918.03,1939.42"
     stroke-linejoin="bevel"
     stroke-width="2.34"
     stroke="#000000"
     class="Stem" />
  <polyline
     transform="translate(-360,-1723.6)"
     id="polyline20294"
     points="1963.27,1835.33 1963.27,1933.36"
     stroke-linejoin="bevel"
     stroke-width="2.34"
     stroke="#000000"
     class="Stem" />
  <polyline
     transform="translate(-360,-1723.6)"
     id="polyline20296"
     points="1998.93,1899.05 1998.93,1959.91"
     stroke-linejoin="bevel"
     stroke-width="2.34"
     stroke="#000000"
     class="Stem" />
  <polyline
     transform="translate(-360,-1723.6)"
     id="polyline20298"
     points="2086.95,1877.81 2086.95,1945.44"
     stroke-linejoin="bevel"
     stroke-width="2.34"
     stroke="#000000"
     class="Stem" />
  <polyline
     transform="translate(-360,-1723.6)"
     id="polyline20300"
     points="2065.56,1883.67 2065.56,1833.54"
     stroke-linejoin="bevel"
     stroke-width="1.64"
     stroke="#000000"
     class="Stem" />
  <polyline
     transform="translate(-360,-1723.6)"
     id="polyline20302"
     points="2122.62,1835.33 2122.62,1939.58"
     stroke-linejoin="bevel"
     stroke-width="2.34"
     stroke="#000000"
     class="Stem" />
  <polyline
     transform="translate(-360,-1723.6)"
     id="polyline20304"
     points="2160.42,1845.95 2160.42,1933.36"
     stroke-linejoin="bevel"
     stroke-width="2.34"
     stroke="#000000"
     class="Stem" />
  <polyline
     transform="translate(-360,-1723.6)"
     id="polyline20306"
     points="2221.35,1904.1 2221.35,1774.06"
     stroke-linejoin="bevel"
     stroke-width="2.34"
     stroke="#000000"
     class="Stem" />
  <polyline
     transform="translate(-360,-1723.6)"
     id="polyline20308"
     points="2296.99,1882.86 2296.99,1774.06"
     stroke-linejoin="bevel"
     stroke-width="2.34"
     stroke="#000000"
     class="Stem" />
  <polyline
     transform="translate(-360,-1723.6)"
     id="polyline20310"
     points="2245.72,1904.91 2245.72,1859.02"
     stroke-linejoin="bevel"
     stroke-width="1.64"
     stroke="#000000"
     class="Stem" />
  <polyline
     transform="translate(-360,-1723.6)"
     id="polyline20312"
     points="2266.98,1894.29 2266.98,1853.71"
     stroke-linejoin="bevel"
     stroke-width="1.64"
     stroke="#000000"
     class="Stem" />
  <polyline
     transform="translate(-360,-1723.6)"
     id="polyline20314"
     points="2332.66,1840.38 2332.66,1774.06"
     stroke-linejoin="bevel"
     stroke-width="2.34"
     stroke="#000000"
     class="Stem" />
  <polyline
     transform="translate(-360,-1723.6)"
     id="polyline20316"
     points="2393.74,1851 2393.74,1774.06"
     stroke-linejoin="bevel"
     stroke-width="2.34"
     stroke="#000000"
     class="Stem" />
  <polyline
     transform="translate(-360,-1723.6)"
     id="polyline20318"
     points="2520.81,1845.95 2520.81,1917.43"
     stroke-linejoin="bevel"
     stroke-width="2.34"
     stroke="#000000"
     class="Stem" />
  <polyline
     transform="translate(-360,-1723.6)"
     id="polyline20320"
     points="2499.41,1851.81 2499.41,1801.68"
     stroke-linejoin="bevel"
     stroke-width="1.64"
     stroke="#000000"
     class="Stem" />
  <polyline
     transform="translate(-360,-1723.6)"
     id="polyline20322"
     points="2592.72,1989.06 2592.72,1896.19"
     stroke-linejoin="bevel"
     stroke-width="2.34"
     stroke="#000000"
     class="Stem" />
  <path
     style="stroke-width:0.8496"
     id="path20386"
     d="m 207.1074,229.42824 c -1.52928,-2.80368 -4.75776,-4.33296 -8.66592,-4.33296 -2.88864,0 -6.03216,0.8496 -9.09072,2.46384 -5.60736,2.9736 -9.00576,7.98624 -9.00576,12.3192 0,1.18944 0.25488,2.37888 0.8496,3.48336 1.52928,2.80368 4.75776,4.248 8.66592,4.248 2.88864,0 6.03216,-0.76464 9.09072,-2.37888 5.60736,-2.9736 9.00576,-7.98624 9.00576,-12.3192 0,-1.18944 -0.25488,-2.37888 -0.8496,-3.48336"
     class="Note" />
  <path
     style="stroke-width:0.8496"
     id="path20404"
     d="m 231.9074,186.94824 c -1.52928,-2.80368 -4.75776,-4.33296 -8.66592,-4.33296 -2.88864,0 -6.03216,0.8496 -9.09072,2.46384 -5.60736,2.9736 -9.00576,7.98624 -9.00576,12.3192 0,1.18944 0.25488,2.37888 0.8496,3.48336 1.52928,2.80368 4.75776,4.248 8.66592,4.248 2.88864,0 6.03216,-0.76464 9.09072,-2.37888 5.60736,-2.9736 9.00576,-7.98624 9.00576,-12.3192 0,-1.18944 -0.25488,-2.37888 -0.8496,-3.48336"
     class="Note" />
  <path
     style="stroke-width:0.8496"
     id="path20438"
     d="m 219.5074,155.08824 c -1.52928,-2.80368 -4.75776,-4.33296 -8.66592,-4.33296 -2.88864,0 -6.03216,0.8496 -9.09072,2.46384 -5.60736,2.9736 -9.00576,7.98624 -9.00576,12.3192 0,1.18944 0.25488,2.37888 0.8496,3.48336 1.52928,2.80368 4.75776,4.248 8.66592,4.248 2.88864,0 6.03216,-0.76464 9.09072,-2.37888 5.60736,-2.9736 9.00576,-7.98624 9.00576,-12.3192 0,-1.18944 -0.25488,-2.37888 -0.8496,-3.48336"
     class="Note" />
  <path
     style="stroke-width:0.8496"
     id="path20440"
     d="m 693.6124,155.08824 c -1.52928,-2.80368 -4.75776,-4.33296 -8.66592,-4.33296 -2.88864,0 -6.03216,0.8496 -9.09072,2.46384 -5.60736,2.9736 -9.00576,7.98624 -9.00576,12.3192 0,1.18944 0.25488,2.37888 0.8496,3.48336 1.52928,2.80368 4.75776,4.248 8.66592,4.248 2.88864,0 6.03216,-0.76464 9.09072,-2.37888 5.60736,-2.9736 9.00576,-7.98624 9.00576,-12.3192 0,-1.18944 -0.25488,-2.37888 -0.8496,-3.48336"
     class="Note" />
  <path
     style="stroke-width:0.8496"
     id="path20442"
     d="m 781.3624,165.70824 c -1.52928,-2.80368 -4.75776,-4.33296 -8.66592,-4.33296 -2.88864,0 -6.03216,0.8496 -9.09072,2.46384 -5.60736,2.9736 -9.00576,7.98624 -9.00576,12.3192 0,1.18944 0.25488,2.37888 0.8496,3.48336 1.52928,2.80368 4.75776,4.248 8.66592,4.248 2.88864,0 6.03216,-0.76464 9.09072,-2.37888 5.60736,-2.9736 9.00576,-7.98624 9.00576,-12.3192 0,-1.18944 -0.25488,-2.37888 -0.8496,-3.48336"
     class="Note" />
  <path
     style="stroke-width:0.8496"
     id="path20444"
     d="m 881.1124,186.94824 c -1.52928,-2.80368 -4.75776,-4.33296 -8.66592,-4.33296 -2.88864,0 -6.03216,0.8496 -9.09072,2.46384 -5.60736,2.9736 -9.00576,7.98624 -9.00576,12.3192 0,1.18944 0.25488,2.37888 0.8496,3.48336 1.52928,2.80368 4.75776,4.248 8.66592,4.248 2.88864,0 6.03216,-0.76464 9.09072,-2.37888 5.60736,-2.9736 9.00576,-7.98624 9.00576,-12.3192 0,-1.18944 -0.25488,-2.37888 -0.8496,-3.48336"
     class="Note" />
  <path
     style="stroke-width:0.8496"
     id="path20446"
     d="m 1012.0424,186.94824 c -1.5293,-2.80368 -4.7578,-4.33296 -8.6659,-4.33296 -2.8887,0 -6.03218,0.8496 -9.09074,2.46384 -5.60736,2.9736 -9.00576,7.98624 -9.00576,12.3192 0,1.18944 0.25488,2.37888 0.8496,3.48336 1.52928,2.80368 4.75776,4.248 8.66592,4.248 2.88864,0 6.03218,-0.76464 9.09068,-2.37888 5.6074,-2.9736 9.0058,-7.98624 9.0058,-12.3192 0,-1.18944 -0.2549,-2.37888 -0.8496,-3.48336"
     class="Note" />
  <path
     style="stroke-width:0.8496"
     id="path20448"
     d="m 1861.6824,218.80824 c -1.5293,-2.80368 -4.7578,-4.33296 -8.6659,-4.33296 -2.8887,0 -6.0322,0.8496 -9.0907,2.46384 -5.6074,2.9736 -9.0058,7.98624 -9.0058,12.3192 0,1.18944 0.2549,2.37888 0.8496,3.48336 1.5293,2.80368 4.7578,4.248 8.6659,4.248 2.8887,0 6.0322,-0.76464 9.0907,-2.37888 5.6074,-2.9736 9.0058,-7.98624 9.0058,-12.3192 0,-1.18944 -0.2549,-2.37888 -0.8496,-3.48336"
     class="Note" />
  <path
     style="stroke-width:0.8496"
     id="path20524"
     d="m 207.1074,133.84824 c -1.52928,-2.80368 -4.75776,-4.33296 -8.66592,-4.33296 -2.88864,0 -6.03216,0.8496 -9.09072,2.46384 -5.60736,2.9736 -9.00576,7.98624 -9.00576,12.3192 0,1.18944 0.25488,2.37888 0.8496,3.48336 1.52928,2.80368 4.75776,4.248 8.66592,4.248 2.88864,0 6.03216,-0.76464 9.09072,-2.37888 5.60736,-2.9736 9.00576,-7.98624 9.00576,-12.3192 0,-1.18944 -0.25488,-2.37888 -0.8496,-3.48336"
     class="Note" />
  <path
     style="stroke-width:0.8496"
     id="path20526"
     d="m 286.8264,144.46824 c -1.52928,-2.80368 -4.75776,-4.33296 -8.66592,-4.33296 -2.88864,0 -6.03216,0.8496 -9.09072,2.46384 -5.60736,2.9736 -9.00576,7.98624 -9.00576,12.3192 0,1.18944 0.25488,2.37888 0.8496,3.48336 1.52928,2.80368 4.75776,4.248 8.66592,4.248 2.88864,0 6.03216,-0.76464 9.09072,-2.37888 5.60736,-2.9736 9.00576,-7.98624 9.00576,-12.3192 0,-1.18944 -0.25488,-2.37888 -0.8496,-3.48336"
     class="Note" />
  <path
     style="stroke-width:0.8496"
     id="path20528"
     d="m 317.6714,155.08824 c -1.52928,-2.80368 -4.75776,-4.33296 -8.66592,-4.33296 -2.88864,0 -6.03216,0.8496 -9.09072,2.46384 -5.60736,2.9736 -9.00576,7.98624 -9.00576,12.3192 0,1.18944 0.25488,2.37888 0.8496,3.48336 1.52928,2.80368 4.75776,4.248 8.66592,4.248 2.88864,0 6.03216,-0.76464 9.09072,-2.37888 5.60736,-2.9736 9.00576,-7.98624 9.00576,-12.3192 0,-1.18944 -0.25488,-2.37888 -0.8496,-3.48336"
     class="Note" />
  <path
     style="stroke-width:0.8496"
     id="path20530"
     d="m 355.4724,91.36824 c -1.52928,-2.80368 -4.75776,-4.33296 -8.66592,-4.33296 -2.88864,0 -6.03216,0.8496 -9.09072,2.46384 -5.60736,2.9736 -9.00576,7.98624 -9.00576,12.3192 0,1.18944 0.25488,2.37888 0.8496,3.48336 1.52928,2.80368 4.75776,4.248 8.66592,4.248 2.88864,0 6.03216,-0.76464 9.09072,-2.37888 5.60736,-2.9736 9.00576,-7.98624 9.00576,-12.3192 0,-1.18944 -0.25488,-2.37888 -0.8496,-3.48336"
     class="Note" />
  <path
     style="stroke-width:0.8496"
     id="path20532"
     d="m 423.3324,91.36824 c -1.52928,-2.80368 -4.75776,-4.33296 -8.66592,-4.33296 -2.88864,0 -6.03216,0.8496 -9.09072,2.46384 -5.60736,2.9736 -9.00576,7.98624 -9.00576,12.3192 0,1.18944 0.25488,2.37888 0.8496,3.48336 1.52928,2.80368 4.75776,4.248 8.66592,4.248 2.88864,0 6.03216,-0.76464 9.09072,-2.37888 5.60736,-2.9736 9.00576,-7.98624 9.00576,-12.3192 0,-1.18944 -0.25488,-2.37888 -0.8496,-3.48336"
     class="Note" />
  <path
     style="stroke-width:0.8496"
     id="path20534"
     d="m 491.1204,101.98824 c -1.52928,-2.80368 -4.75776,-4.33296 -8.66592,-4.33296 -2.88864,0 -6.03216,0.8496 -9.09072,2.46384 -5.60736,2.9736 -9.00576,7.98624 -9.00576,12.3192 0,1.18944 0.25488,2.37888 0.8496,3.48336 1.52928,2.80368 4.75776,4.248 8.66592,4.248 2.88864,0 6.03216,-0.76464 9.09072,-2.37888 5.60736,-2.9736 9.00576,-7.98624 9.00576,-12.3192 0,-1.18944 -0.25488,-2.37888 -0.8496,-3.48336"
     class="Note" />
  <path
     style="stroke-width:0.8496"
     id="path20536"
     d="m 554.9604,123.22824 c -1.52928,-2.80368 -4.75776,-4.33296 -8.66592,-4.33296 -2.88864,0 -6.03216,0.8496 -9.09072,2.46384 -5.60736,2.9736 -9.00576,7.98624 -9.00576,12.3192 0,1.18944 0.25488,2.37888 0.8496,3.48336 1.52928,2.80368 4.75776,4.248 8.66592,4.248 2.88864,0 6.03216,-0.76464 9.09072,-2.37888 5.60736,-2.9736 9.00576,-7.98624 9.00576,-12.3192 0,-1.18944 -0.25488,-2.37888 -0.8496,-3.48336"
     class="Note" />
  <path
     style="stroke-width:0.8496"
     id="path20538"
     d="m 585.8054,112.60824 c -1.52928,-2.80368 -4.75776,-4.33296 -8.66592,-4.33296 -2.88864,0 -6.03216,0.8496 -9.09072,2.46384 -5.60736,2.9736 -9.00576,7.98624 -9.00576,12.3192 0,1.18944 0.25488,2.37888 0.8496,3.48336 1.52928,2.80368 4.75776,4.248 8.66592,4.248 2.88864,0 6.03216,-0.76464 9.09072,-2.37888 5.60736,-2.9736 9.00576,-7.98624 9.00576,-12.3192 0,-1.18944 -0.25488,-2.37888 -0.8496,-3.48336"
     class="Note" />
  <path
     style="stroke-width:0.8496"
     id="path20540"
     d="m 693.6124,123.22824 c -1.52928,-2.80368 -4.75776,-4.33296 -8.66592,-4.33296 -2.88864,0 -6.03216,0.8496 -9.09072,2.46384 -5.60736,2.9736 -9.00576,7.98624 -9.00576,12.3192 0,1.18944 0.25488,2.37888 0.8496,3.48336 1.52928,2.80368 4.75776,4.248 8.66592,4.248 2.88864,0 6.03216,-0.76464 9.09072,-2.37888 5.60736,-2.9736 9.00576,-7.98624 9.00576,-12.3192 0,-1.18944 -0.25488,-2.37888 -0.8496,-3.48336"
     class="Note" />
  <path
     style="stroke-width:0.59472"
     id="path20542"
     d="m 752.07368,125.29277 c -1.0705,-1.96258 -3.33043,-3.03307 -6.06614,-3.03307 -2.02205,0 -4.22252,0.59472 -6.36351,1.72468 -3.92515,2.08152 -6.30403,5.59037 -6.30403,8.62344 0,0.83261 0.17842,1.66522 0.59472,2.43836 1.0705,1.96257 3.33043,2.9736 6.06614,2.9736 2.02205,0 4.22252,-0.53525 6.36351,-1.66522 3.92515,-2.08152 6.30403,-5.59037 6.30403,-8.62344 0,-0.83261 -0.17842,-1.66522 -0.59472,-2.43835"
     class="Note" />
  <path
     style="stroke-width:0.59472"
     id="path20544"
     d="m 730.81368,135.91277 c -1.0705,-1.96258 -3.33043,-3.03307 -6.06614,-3.03307 -2.02205,0 -4.22252,0.59472 -6.36351,1.72468 -3.92515,2.08152 -6.30403,5.59037 -6.30403,8.62344 0,0.83261 0.17842,1.66522 0.59472,2.43836 1.0705,1.96257 3.33043,2.9736 6.06614,2.9736 2.02205,0 4.22252,-0.53525 6.36351,-1.66522 3.92515,-2.08152 6.30403,-5.59037 6.30403,-8.62344 0,-0.83261 -0.17842,-1.66522 -0.59472,-2.43835"
     class="Note" />
  <path
     style="stroke-width:0.8496"
     id="path20546"
     d="m 781.3624,112.60824 c -1.52928,-2.80368 -4.75776,-4.33296 -8.66592,-4.33296 -2.88864,0 -6.03216,0.8496 -9.09072,2.46384 -5.60736,2.9736 -9.00576,7.98624 -9.00576,12.3192 0,1.18944 0.25488,2.37888 0.8496,3.48336 1.52928,2.80368 4.75776,4.248 8.66592,4.248 2.88864,0 6.03216,-0.76464 9.09072,-2.37888 5.60736,-2.9736 9.00576,-7.98624 9.00576,-12.3192 0,-1.18944 -0.25488,-2.37888 -0.8496,-3.48336"
     class="Note" />
  <path
     style="stroke-width:0.8496"
     id="path20548"
     d="m 823.5124,144.46824 c -1.52928,-2.80368 -4.75776,-4.33296 -8.66592,-4.33296 -2.88864,0 -6.03216,0.8496 -9.09072,2.46384 -5.60736,2.9736 -9.00576,7.98624 -9.00576,12.3192 0,1.18944 0.25488,2.37888 0.8496,3.48336 1.52928,2.80368 4.75776,4.248 8.66592,4.248 2.88864,0 6.03216,-0.76464 9.09072,-2.37888 5.60736,-2.9736 9.00576,-7.98624 9.00576,-12.3192 0,-1.18944 -0.25488,-2.37888 -0.8496,-3.48336"
     class="Note" />
  <path
     style="stroke-width:0.8496"
     id="path20550"
     d="m 881.1124,133.84824 c -1.52928,-2.80368 -4.75776,-4.33296 -8.66592,-4.33296 -2.88864,0 -6.03216,0.8496 -9.09072,2.46384 -5.60736,2.9736 -9.00576,7.98624 -9.00576,12.3192 0,1.18944 0.25488,2.37888 0.8496,3.48336 1.52928,2.80368 4.75776,4.248 8.66592,4.248 2.88864,0 6.03216,-0.76464 9.09072,-2.37888 5.60736,-2.9736 9.00576,-7.98624 9.00576,-12.3192 0,-1.18944 -0.25488,-2.37888 -0.8496,-3.48336"
     class="Note" />
  <path
     style="stroke-width:0.8496"
     id="path20552"
     d="m 923.2724,165.70824 c -1.52928,-2.80368 -4.75776,-4.33296 -8.66592,-4.33296 -2.88864,0 -6.03216,0.8496 -9.09072,2.46384 -5.60736,2.9736 -9.00576,7.98624 -9.00576,12.3192 0,1.18944 0.25488,2.37888 0.8496,3.48336 1.52928,2.80368 4.75776,4.248 8.66592,4.248 2.88864,0 6.03216,-0.76464 9.09072,-2.37888 5.60736,-2.9736 9.00576,-7.98624 9.00576,-12.3192 0,-1.18944 -0.25488,-2.37888 -0.8496,-3.48336"
     class="Note" />
  <path
     style="stroke-width:0.8496"
     id="path20554"
     d="m 1012.0424,155.08824 c -1.5293,-2.80368 -4.7578,-4.33296 -8.6659,-4.33296 -2.8887,0 -6.03218,0.8496 -9.09074,2.46384 -5.60736,2.9736 -9.00576,7.98624 -9.00576,12.3192 0,1.18944 0.25488,2.37888 0.8496,3.48336 1.52928,2.80368 4.75776,4.248 8.66592,4.248 2.88864,0 6.03218,-0.76464 9.09068,-2.37888 5.6074,-2.9736 9.0058,-7.98624 9.0058,-12.3192 0,-1.18944 -0.2549,-2.37888 -0.8496,-3.48336"
     class="Note" />
  <path
     style="stroke-width:0.8496"
     id="path20556"
     d="m 1050.2724,144.46824 c -1.5293,-2.80368 -4.7578,-4.33296 -8.6659,-4.33296 -2.8887,0 -6.0322,0.8496 -9.0907,2.46384 -5.6074,2.9736 -9.0058,7.98624 -9.0058,12.3192 0,1.18944 0.2549,2.37888 0.8496,3.48336 1.5293,2.80368 4.7578,4.248 8.6659,4.248 2.8887,0 6.0322,-0.76464 9.0907,-2.37888 5.6074,-2.9736 9.0058,-7.98624 9.0058,-12.3192 0,-1.18944 -0.2549,-2.37888 -0.8496,-3.48336"
     class="Note" />
  <path
     style="stroke-width:0.8496"
     id="path20558"
     d="m 1107.8624,133.84824 c -1.5293,-2.80368 -4.7578,-4.33296 -8.6659,-4.33296 -2.8887,0 -6.0322,0.8496 -9.0907,2.46384 -5.6074,2.9736 -9.0058,7.98624 -9.0058,12.3192 0,1.18944 0.2549,2.37888 0.8496,3.48336 1.5293,2.80368 4.7578,4.248 8.6659,4.248 2.8887,0 6.0322,-0.76464 9.0907,-2.37888 5.6074,-2.9736 9.0058,-7.98624 9.0058,-12.3192 0,-1.18944 -0.2549,-2.37888 -0.8496,-3.48336"
     class="Note" />
  <path
     style="stroke-width:0.8496"
     id="path20560"
     d="m 1168.9424,197.56824 c -1.5293,-2.80368 -4.7578,-4.33296 -8.6659,-4.33296 -2.8887,0 -6.0322,0.8496 -9.0907,2.46384 -5.6074,2.9736 -9.0058,7.98624 -9.0058,12.3192 0,1.18944 0.2549,2.37888 0.8496,3.48336 1.5293,2.80368 4.7578,4.248 8.6659,4.248 2.8887,0 6.0322,-0.76464 9.0907,-2.37888 5.6074,-2.9736 9.0058,-7.98624 9.0058,-12.3192 0,-1.18944 -0.2549,-2.37888 -0.8496,-3.48336"
     class="Note" />
  <path
     style="stroke-width:0.8496"
     id="path20562"
     d="m 1207.1724,144.46824 c -1.5293,-2.80368 -4.7578,-4.33296 -8.6659,-4.33296 -2.8887,0 -6.0322,0.8496 -9.0907,2.46384 -5.6074,2.9736 -9.0058,7.98624 -9.0058,12.3192 0,1.18944 0.2549,2.37888 0.8496,3.48336 1.5293,2.80368 4.7578,4.248 8.6659,4.248 2.8887,0 6.0322,-0.76464 9.0907,-2.37888 5.6074,-2.9736 9.0058,-7.98624 9.0058,-12.3192 0,-1.18944 -0.2549,-2.37888 -0.8496,-3.48336"
     class="Note" />
  <path
     style="stroke-width:0.8496"
     id="path20564"
     d="m 1245.4024,155.08824 c -1.5293,-2.80368 -4.7578,-4.33296 -8.6659,-4.33296 -2.8887,0 -6.0322,0.8496 -9.0907,2.46384 -5.6074,2.9736 -9.0058,7.98624 -9.0058,12.3192 0,1.18944 0.2549,2.37888 0.8496,3.48336 1.5293,2.80368 4.7578,4.248 8.6659,4.248 2.8887,0 6.0322,-0.76464 9.0907,-2.37888 5.6074,-2.9736 9.0058,-7.98624 9.0058,-12.3192 0,-1.18944 -0.2549,-2.37888 -0.8496,-3.48336"
     class="Note" />
  <path
     style="stroke-width:0.8496"
     id="path20566"
     d="m 1275.7624,165.70824 c -1.5293,-2.80368 -4.7578,-4.33296 -8.6659,-4.33296 -2.8887,0 -6.0322,0.8496 -9.0907,2.46384 -5.6074,2.9736 -9.0058,7.98624 -9.0058,12.3192 0,1.18944 0.2549,2.37888 0.8496,3.48336 1.5293,2.80368 4.7578,4.248 8.6659,4.248 2.8887,0 6.0322,-0.76464 9.0907,-2.37888 5.6074,-2.9736 9.0058,-7.98624 9.0058,-12.3192 0,-1.18944 -0.2549,-2.37888 -0.8496,-3.48336"
     class="Note" />
  <path
     style="stroke-width:0.8496"
     id="path20568"
     d="m 1306.1324,176.32824 c -1.5293,-2.80368 -4.7578,-4.33296 -8.6659,-4.33296 -2.8887,0 -6.0322,0.8496 -9.0907,2.46384 -5.6074,2.9736 -9.0058,7.98624 -9.0058,12.3192 0,1.18944 0.2549,2.37888 0.8496,3.48336 1.5293,2.80368 4.7578,4.248 8.6659,4.248 2.8887,0 6.0322,-0.76464 9.0907,-2.37888 5.6074,-2.9736 9.0058,-7.98624 9.0058,-12.3192 0,-1.18944 -0.2549,-2.37888 -0.8496,-3.48336"
     class="Note" />
  <path
     style="stroke-width:0.8496"
     id="path20570"
     d="m 1336.5024,186.94824 c -1.5293,-2.80368 -4.7578,-4.33296 -8.6659,-4.33296 -2.8887,0 -6.0322,0.8496 -9.0907,2.46384 -5.6074,2.9736 -9.0058,7.98624 -9.0058,12.3192 0,1.18944 0.2549,2.37888 0.8496,3.48336 1.5293,2.80368 4.7578,4.248 8.6659,4.248 2.8887,0 6.0322,-0.76464 9.0907,-2.37888 5.6074,-2.9736 9.0058,-7.98624 9.0058,-12.3192 0,-1.18944 -0.2549,-2.37888 -0.8496,-3.48336"
     class="Note" />
  <path
     style="stroke-width:0.8496"
     id="path20572"
     d="m 1430.5824,155.08824 c -1.5293,-2.80368 -4.7578,-4.33296 -8.6659,-4.33296 -2.8887,0 -6.0322,0.8496 -9.0907,2.46384 -5.6074,2.9736 -9.0058,7.98624 -9.0058,12.3192 0,1.18944 0.2549,2.37888 0.8496,3.48336 1.5293,2.80368 4.7578,4.248 8.6659,4.248 2.8887,0 6.0322,-0.76464 9.0907,-2.37888 5.6074,-2.9736 9.0058,-7.98624 9.0058,-12.3192 0,-1.18944 -0.2549,-2.37888 -0.8496,-3.48336"
     class="Note" />
  <path
     style="stroke-width:0.8496"
     id="path20574"
     d="m 1547.9624,133.84824 c -1.5293,-2.80368 -4.7578,-4.33296 -8.6659,-4.33296 -2.8887,0 -6.0322,0.8496 -9.0907,2.46384 -5.6074,2.9736 -9.0058,7.98624 -9.0058,12.3192 0,1.18944 0.2549,2.37888 0.8496,3.48336 1.5293,2.80368 4.7578,4.248 8.6659,4.248 2.8887,0 6.0322,-0.76464 9.0907,-2.37888 5.6074,-2.9736 9.0058,-7.98624 9.0058,-12.3192 0,-1.18944 -0.2549,-2.37888 -0.8496,-3.48336"
     class="Note" />
  <path
     style="stroke-width:0.59472"
     id="path20576"
     d="m 1473.9737,146.53277 c -1.0705,-1.96258 -3.3305,-3.03307 -6.0662,-3.03307 -2.022,0 -4.2225,0.59472 -6.3635,1.72468 -3.9251,2.08152 -6.304,5.59037 -6.304,8.62344 0,0.83261 0.1784,1.66522 0.5947,2.43836 1.0705,1.96257 3.3305,2.9736 6.0662,2.9736 2.022,0 4.2225,-0.53525 6.3635,-1.66522 3.9251,-2.08152 6.304,-5.59037 6.304,-8.62344 0,-0.83261 -0.1784,-1.66522 -0.5947,-2.43835"
     class="Note" />
  <path
     style="stroke-width:0.8496"
     id="path20578"
     d="m 1583.6224,91.36824 c -1.5293,-2.80368 -4.7578,-4.33296 -8.6659,-4.33296 -2.8887,0 -6.0322,0.8496 -9.0907,2.46384 -5.6074,2.9736 -9.0058,7.98624 -9.0058,12.3192 0,1.18944 0.2549,2.37888 0.8496,3.48336 1.5293,2.80368 4.7578,4.248 8.6659,4.248 2.8887,0 6.0322,-0.76464 9.0907,-2.37888 5.6074,-2.9736 9.0058,-7.98624 9.0058,-12.3192 0,-1.18944 -0.2549,-2.37888 -0.8496,-3.48336"
     class="Note" />
  <path
     style="stroke-width:0.8496"
     id="path20580"
     d="m 1628.8624,101.98824 c -1.5293,-2.80368 -4.7578,-4.33296 -8.6659,-4.33296 -2.8887,0 -6.0322,0.8496 -9.0907,2.46384 -5.6074,2.9736 -9.0058,7.98624 -9.0058,12.3192 0,1.18944 0.2549,2.37888 0.8496,3.48336 1.5293,2.80368 4.7578,4.248 8.6659,4.248 2.8887,0 6.0322,-0.76464 9.0907,-2.37888 5.6074,-2.9736 9.0058,-7.98624 9.0058,-12.3192 0,-1.18944 -0.2549,-2.37888 -0.8496,-3.48336"
     class="Note" />
  <path
     style="stroke-width:0.8496"
     id="path20582"
     d="m 1664.5224,165.70824 c -1.5293,-2.80368 -4.7578,-4.33296 -8.6659,-4.33296 -2.8887,0 -6.0322,0.8496 -9.0907,2.46384 -5.6074,2.9736 -9.0058,7.98624 -9.0058,12.3192 0,1.18944 0.2549,2.37888 0.8496,3.48336 1.5293,2.80368 4.7578,4.248 8.6659,4.248 2.8887,0 6.0322,-0.76464 9.0907,-2.37888 5.6074,-2.9736 9.0058,-7.98624 9.0058,-12.3192 0,-1.18944 -0.2549,-2.37888 -0.8496,-3.48336"
     class="Note" />
  <path
     style="stroke-width:0.8496"
     id="path20584"
     d="m 1752.5524,144.46824 c -1.5293,-2.80368 -4.7578,-4.33296 -8.6659,-4.33296 -2.8887,0 -6.0322,0.8496 -9.0907,2.46384 -5.6074,2.9736 -9.0058,7.98624 -9.0058,12.3192 0,1.18944 0.2549,2.37888 0.8496,3.48336 1.5293,2.80368 4.7578,4.248 8.6659,4.248 2.8887,0 6.0322,-0.76464 9.0907,-2.37888 5.6074,-2.9736 9.0058,-7.98624 9.0058,-12.3192 0,-1.18944 -0.2549,-2.37888 -0.8496,-3.48336"
     class="Note" />
  <path
     style="stroke-width:0.59472"
     id="path20586"
     d="m 1705.7837,157.15277 c -1.0705,-1.96258 -3.3305,-3.03307 -6.0662,-3.03307 -2.022,0 -4.2225,0.59472 -6.3635,1.72468 -3.9251,2.08152 -6.304,5.59037 -6.304,8.62344 0,0.83261 0.1784,1.66522 0.5947,2.43836 1.0705,1.96257 3.3305,2.9736 6.0662,2.9736 2.022,0 4.2225,-0.53525 6.3635,-1.66522 3.9251,-2.08152 6.304,-5.59037 6.304,-8.62344 0,-0.83261 -0.1784,-1.66522 -0.5947,-2.43835"
     class="Note" />
  <path
     style="stroke-width:0.8496"
     id="path20588"
     d="m 1788.2124,101.98824 c -1.5293,-2.80368 -4.7578,-4.33296 -8.6659,-4.33296 -2.8887,0 -6.0322,0.8496 -9.0907,2.46384 -5.6074,2.9736 -9.0058,7.98624 -9.0058,12.3192 0,1.18944 0.2549,2.37888 0.8496,3.48336 1.5293,2.80368 4.7578,4.248 8.6659,4.248 2.8887,0 6.0322,-0.76464 9.0907,-2.37888 5.6074,-2.9736 9.0058,-7.98624 9.0058,-12.3192 0,-1.18944 -0.2549,-2.37888 -0.8496,-3.48336"
     class="Note" />
  <path
     style="stroke-width:0.8496"
     id="path20590"
     d="m 1826.0124,112.60824 c -1.5293,-2.80368 -4.7578,-4.33296 -8.6659,-4.33296 -2.8887,0 -6.0322,0.8496 -9.0907,2.46384 -5.6074,2.9736 -9.0058,7.98624 -9.0058,12.3192 0,1.18944 0.2549,2.37888 0.8496,3.48336 1.5293,2.80368 4.7578,4.248 8.6659,4.248 2.8887,0 6.0322,-0.76464 9.0907,-2.37888 5.6074,-2.9736 9.0058,-7.98624 9.0058,-12.3192 0,-1.18944 -0.2549,-2.37888 -0.8496,-3.48336"
     class="Note" />
  <path
     style="stroke-width:0.8496"
     id="path20592"
     d="m 1861.6824,176.32824 c -1.5293,-2.80368 -4.7578,-4.33296 -8.6659,-4.33296 -2.8887,0 -6.0322,0.8496 -9.0907,2.46384 -5.6074,2.9736 -9.0058,7.98624 -9.0058,12.3192 0,1.18944 0.2549,2.37888 0.8496,3.48336 1.5293,2.80368 4.7578,4.248 8.6659,4.248 2.8887,0 6.0322,-0.76464 9.0907,-2.37888 5.6074,-2.9736 9.0058,-7.98624 9.0058,-12.3192 0,-1.18944 -0.2549,-2.37888 -0.8496,-3.48336"
     class="Note" />
  <path
     style="stroke-width:0.8496"
     id="path20594"
     d="m 1937.3224,155.08824 c -1.5293,-2.80368 -4.7578,-4.33296 -8.6659,-4.33296 -2.8887,0 -6.0322,0.8496 -9.0907,2.46384 -5.6074,2.9736 -9.0058,7.98624 -9.0058,12.3192 0,1.18944 0.2549,2.37888 0.8496,3.48336 1.5293,2.80368 4.7578,4.248 8.6659,4.248 2.8887,0 6.0322,-0.76464 9.0907,-2.37888 5.6074,-2.9736 9.0058,-7.98624 9.0058,-12.3192 0,-1.18944 -0.2549,-2.37888 -0.8496,-3.48336"
     class="Note" />
  <path
     style="stroke-width:0.59472"
     id="path20596"
     d="m 1885.9437,178.39277 c -1.0705,-1.96258 -3.3305,-3.03307 -6.0662,-3.03307 -2.022,0 -4.2225,0.59472 -6.3635,1.72468 -3.9251,2.08152 -6.304,5.59037 -6.304,8.62344 0,0.83261 0.1784,1.66522 0.5947,2.43836 1.0705,1.96257 3.3305,2.9736 6.0662,2.9736 2.022,0 4.2225,-0.53525 6.3635,-1.66522 3.9251,-2.08152 6.304,-5.59037 6.304,-8.62344 0,-0.83261 -0.1784,-1.66522 -0.5947,-2.43835"
     class="Note" />
  <path
     style="stroke-width:0.59472"
     id="path20598"
     d="m 1907.2037,167.77277 c -1.0705,-1.96258 -3.3305,-3.03307 -6.0662,-3.03307 -2.022,0 -4.2225,0.59472 -6.3635,1.72468 -3.9251,2.08152 -6.304,5.59037 -6.304,8.62344 0,0.83261 0.1784,1.66522 0.5947,2.43836 1.0705,1.96257 3.3305,2.9736 6.0662,2.9736 2.022,0 4.2225,-0.53525 6.3635,-1.66522 3.9251,-2.08152 6.304,-5.59037 6.304,-8.62344 0,-0.83261 -0.1784,-1.66522 -0.5947,-2.43835"
     class="Note" />
  <path
     style="stroke-width:0.8496"
     id="path20600"
     d="m 1972.9824,112.60824 c -1.5293,-2.80368 -4.7578,-4.33296 -8.6659,-4.33296 -2.8887,0 -6.0322,0.8496 -9.0907,2.46384 -5.6074,2.9736 -9.0058,7.98624 -9.0058,12.3192 0,1.18944 0.2549,2.37888 0.8496,3.48336 1.5293,2.80368 4.7578,4.248 8.6659,4.248 2.8887,0 6.0322,-0.76464 9.0907,-2.37888 5.6074,-2.9736 9.0058,-7.98624 9.0058,-12.3192 0,-1.18944 -0.2549,-2.37888 -0.8496,-3.48336"
     class="Note" />
  <path
     style="stroke-width:0.8496"
     id="path20602"
     d="m 2034.0624,123.22824 c -1.5293,-2.80368 -4.7578,-4.33296 -8.6659,-4.33296 -2.8887,0 -6.0322,0.8496 -9.0907,2.46384 -5.6074,2.9736 -9.0058,7.98624 -9.0058,12.3192 0,1.18944 0.2549,2.37888 0.8496,3.48336 1.5293,2.80368 4.7578,4.248 8.6659,4.248 2.8887,0 6.0322,-0.76464 9.0907,-2.37888 5.6074,-2.9736 9.0058,-7.98624 9.0058,-12.3192 0,-1.18944 -0.2549,-2.37888 -0.8496,-3.48336"
     class="Note" />
  <path
     style="stroke-width:0.8496"
     id="path20604"
     d="m 2186.4024,112.60824 c -1.5293,-2.80368 -4.7578,-4.33296 -8.6659,-4.33296 -2.8887,0 -6.0322,0.8496 -9.0907,2.46384 -5.6074,2.9736 -9.0058,7.98624 -9.0058,12.3192 0,1.18944 0.2549,2.37888 0.8496,3.48336 1.5293,2.80368 4.7578,4.248 8.6659,4.248 2.8887,0 6.0322,-0.76464 9.0907,-2.37888 5.6074,-2.9736 9.0058,-7.98624 9.0058,-12.3192 0,-1.18944 -0.2549,-2.37888 -0.8496,-3.48336"
     class="Note" />
  <path
     style="stroke-width:0.59472"
     id="path20606"
     d="m 2139.6437,125.29277 c -1.0705,-1.96258 -3.3305,-3.03307 -6.0662,-3.03307 -2.022,0 -4.2225,0.59472 -6.3635,1.72468 -3.9251,2.08152 -6.304,5.59037 -6.304,8.62344 0,0.83261 0.1784,1.66522 0.5947,2.43836 1.0705,1.96257 3.3305,2.9736 6.0662,2.9736 2.022,0 4.2225,-0.53525 6.3635,-1.66522 3.9251,-2.08152 6.304,-5.59037 6.304,-8.62344 0,-0.83261 -0.1784,-1.66522 -0.5947,-2.43835"
     class="Note" />
  <path
     style="stroke-width:0.8496"
     id="path20608"
     d="m 2233.0524,261.28824 c -1.5293,-2.80368 -4.7578,-4.33296 -8.6659,-4.33296 -2.8887,0 -6.0322,0.8496 -9.0907,2.46384 -5.6074,2.9736 -9.0058,7.98624 -9.0058,12.3192 0,1.18944 0.2549,2.37888 0.8496,3.48336 1.5293,2.80368 4.7578,4.248 8.6659,4.248 2.8887,0 6.0322,-0.76464 9.0907,-2.37888 5.6074,-2.9736 9.0058,-7.98624 9.0058,-12.3192 0,-1.18944 -0.2549,-2.37888 -0.8496,-3.48336"
     class="Note" />
  <path
     style="stroke-width:0.8496"
     id="path20676"
     d="m 70.81416,188.84292 c -1.045008,-4.6134 -3.287952,-7.85879 -3.95064,-8.74246 -2.710224,-3.62779 -6.11712,-6.04915 -10.101744,-7.19611 -2.642256,-0.75606 -5.191056,-0.8496 -7.247088,-0.69667 -0.883584,-5.1061 -1.733184,-10.10166 -2.50632,-14.73198 4.63032,-5.24212 7.705872,-10.1698 9.64296,-13.82308 2.948112,-5.59028 3.925152,-9.48145 3.967632,-9.65137 1.461312,-4.4265 1.767168,-10.96842 0.832608,-17.94355 -0.858096,-6.41448 -2.63376,-12.11538 -4.63032,-14.87658 -0.875088,-1.214928 -1.767168,-1.835136 -2.650752,-1.835136 -1.036512,0 -3.169008,1.053506 -5.624352,3.406896 -1.95408,1.86912 -4.732272,5.17406 -6.907248,10.28016 -2.5488,5.99826 -2.727216,14.06088 -2.429856,19.77019 0.322848,6.17659 1.265904,11.0109 1.2744,11.05338 0.01699,0.0764 0.237888,1.35078 0.620208,3.53425 -0.195408,0.19541 -0.399312,0.38232 -0.611712,0.58631 -0.883584,0.8496 -1.894608,1.81806 -3.067056,2.99051 -0.730656,0.73074 -1.537776,1.50379 -2.387376,2.3279 -7.17912,6.91583 -18.045504,17.38282 -18.045504,33.65266 0,3.99312 0.76464,7.74837 2.276911,11.15532 1.350898,3.05856 3.304978,5.84526 5.794289,8.28361 6.567408,6.41448 15.564672,9.14161 21.562848,9.00576 2.50632,-0.0595 4.740768,-0.26346 6.771312,-0.64578 1.554768,8.15616 2.523312,14.12885 2.557296,18.66571 0.03398,5.5309 -1.367856,8.90381 -4.681296,11.2572 -2.064528,1.46981 -4.451904,2.27693 -7.085664,2.40437 -2.200464,0.10195 -4.12056,-0.29736 -5.335488,-0.64561 h -0.0085 c 0,0 -0.246384,-0.068 -0.25488,-0.23789 -0.0085,-0.15301 0.288864,-0.19549 0.29736,-0.19549 h 0.01699 c 1.631232,-0.37374 4.664304,-1.41875 6.66936,-4.22243 1.52928,-2.14099 2.268432,-6.06623 0.705168,-9.41365 -0.943056,-2.03046 -3.075552,-4.53678 -7.850304,-4.9191 -2.115504,-0.16992 -4.044096,0.26329 -5.743296,1.28281 -1.537776,0.91757 -2.812176,2.31091 -3.704256,4.01011 -2.090016,3.99312 -1.6992,8.86133 0.960048,12.12388 2.514816,3.07555 6.439968,5.03804 11.053296,5.53081 0.72216,0.0765 1.44432,0.11045 2.16648,0.11045 3.763728,0 7.501968,-1.01952 10.53504,-2.89714 3.109536,-2.18347 4.910688,-5.56488 5.488416,-10.34804 0.475776,-3.94223 0.144432,-8.96328 -1.045008,-15.81964 -0.305856,-1.77566 -0.76464,-4.34995 -1.325376,-7.54436 4.8852,-1.63132 8.419536,-4.66439 11.622528,-9.63455 2.795184,-4.87663 3.593808,-10.0592 2.37888,-15.41167 m -29.064816,22.25095 c -3.942144,-1.03651 -7.705872,-3.16051 -10.900368,-6.13411 -1.112976,-1.04501 -2.701728,-2.88864 -3.95064,-5.76873 -1.163952,-2.68479 -1.724705,-5.5989 -1.682225,-8.64891 0.05949,-3.98466 1.172465,-8.07977 3.304961,-12.14927 2.480832,-4.74085 6.355008,-9.43914 11.503584,-13.96751 1.23192,-1.0874 2.395872,-2.17489 3.491856,-3.26246 0.645696,3.61938 1.350864,7.60392 2.098512,11.75005 -3.27096,1.07891 -7.30656,3.75515 -9.948816,8.55539 -3.007584,5.58189 -2.88864,10.2717 -2.268432,13.22829 0.798624,3.78927 2.948112,6.98373 5.887728,8.75944 0.790128,0.47569 4.298976,2.28534 5.86224,1.79257 0.314352,-0.10195 0.543744,-0.28886 0.662688,-0.56923 0.433296,-0.99403 -0.433296,-1.53769 -1.758672,-2.35339 -0.50976,-0.31428 -1.078992,-0.67113 -1.6992,-1.1214 -2.820672,-2.11554 -4.052592,-5.89626 -3.14352,-9.61749 0.492768,-2.03904 1.580256,-3.87423 3.14352,-5.31855 1.418832,-1.31688 3.152016,-2.25144 5.174064,-2.7951 1.733184,9.54942 3.48336,19.02246 4.876704,26.1252 0.110448,0.58614 0.229392,1.15537 0.33984,1.7246 -3.721248,0.79013 -7.417008,0.71375 -10.993824,-0.22939 m 9.617472,-28.18973 c 8.79336,-0.39931 12.421152,5.92177 13.177296,10.02532 0.399312,2.14947 0.390816,5.92173 -0.917568,9.49849 -0.994032,2.70173 -3.084048,6.1596 -7.442496,7.90986 -0.05947,-0.35683 -0.12744,-0.72216 -0.195408,-1.08757 -1.308384,-7.45092 -2.956608,-16.78806 -4.621824,-26.3461 m -6.219072,-60.27062 c 1.512288,-4.87662 3.840192,-7.63782 5.530896,-9.10763 1.4868,-1.29139 2.88864,-1.89469 3.670272,-1.89469 0.118944,0 0.220896,0.017 0.305856,0.0425 0.390816,0.11894 0.841104,0.6033 1.240416,1.34245 1.962576,3.6447 1.333872,9.3456 0.195408,13.11774 -1.384848,4.58784 -3.86568,9.36259 -11.34216,17.52725 -0.144432,-0.94306 -0.280368,-1.83514 -0.407808,-2.66766 -1.062,-7.04327 -0.790128,-13.21986 0.80712,-18.35994"
     class="Clef" />
  <path
     style="stroke-width:0.8496"
     id="path20684"
     d="m 109.66996,165.87816 c -0.50976,-3.31344 -2.5488,-6.45696 -6.88176,-6.45696 -4.248,0 -6.71184,2.63376 -7.13664,3.14352 l 0.33984,-27.27216 c 0,-0.67968 -0.50976,-1.18944 -1.18944,-1.18944 h -1.01952 c -0.67968,0 -1.18944,0.50976 -1.18944,1.18944 l 0.4248,51.06096 c 0,0.67968 0.50976,1.18944 1.18944,1.18944 0.16992,0 0.50976,-0.085 0.67968,-0.16992 0.33984,-0.16992 5.86224,-2.88864 10.45008,-8.0712 3.22848,-3.65328 4.50288,-7.81632 4.50288,-11.29968 0,-0.76464 -0.085,-1.44432 -0.16992,-2.124 m -5.86224,3.31344 c 0,1.2744 -0.33984,5.18256 -2.46384,8.41104 -1.44432,2.20896 -4.33296,4.50288 -5.9472,5.77728 l 0.25488,-16.5672 c 0.16992,-0.76464 1.44432,-3.22848 4.84272,-3.22848 3.05856,0 3.31344,2.88864 3.31344,4.6728 v 0.93456"
     class="KeySig" />
  <path
     style="stroke-width:0.8496"
     id="path20688"
     d="m 819.45981,197.8571 c -0.62879,-0.2378 -1.20643,0.0425 -1.4868,0.56074 -0.28037,0.51834 -2.98218,5.55638 -6.74591,8.32608 -1.18086,0.86661 -2.52331,1.41039 -3.8571,1.69074 0.95147,-1.07046 1.52928,-2.48087 1.52928,-4.02714 0,-3.35592 -2.71872,-6.07464 -6.07464,-6.07464 -3.35592,0 -6.07464,2.71872 -6.07464,6.07464 0,2.55735 1.58868,4.7493 3.83166,5.64138 1.29987,0.62019 2.92266,0.99405 4.66434,0.99405 2.42136,0 5.06362,-0.70515 7.36595,-2.39589 1.07058,-0.79011 2.0901,-1.80117 3.00767,-2.8716 l -9.67703,30.27116 2.24303,0.72216 11.95387,-37.45886 c 0.19541,-0.62021 -0.0511,-1.20635 -0.67968,-1.45282"
     class="Rest" />
  <path
     style="stroke-width:0.8496"
     id="path20690"
     d="m 919.21981,197.8571 c -0.62879,-0.2378 -1.20643,0.0425 -1.4868,0.56074 -0.28037,0.51834 -2.98218,5.55638 -6.74591,8.32608 -1.18086,0.86661 -2.52331,1.41039 -3.8571,1.69074 0.95147,-1.07046 1.52928,-2.48087 1.52928,-4.02714 0,-3.35592 -2.71872,-6.07464 -6.07464,-6.07464 -3.35592,0 -6.07464,2.71872 -6.07464,6.07464 0,2.55735 1.58868,4.7493 3.83166,5.64138 1.29987,0.62019 2.92266,0.99405 4.66434,0.99405 2.42136,0 5.06362,-0.70515 7.36595,-2.39589 1.07058,-0.79011 2.0901,-1.80117 3.00767,-2.8716 l -9.67703,30.27116 2.24303,0.72216 11.95387,-37.45886 c 0.19541,-0.62021 -0.0511,-1.20635 -0.67968,-1.45282"
     class="Rest" />
  <path
     style="stroke-width:0.8496"
     id="path20726"
     d="m 691.22712,29.426 c -3.31344,0 -5.18256,2.20896 -5.18256,2.20896 l -0.67968,-0.67968 c -0.4248,-0.4248 -1.10448,-0.4248 -1.10448,-0.4248 h -8.75088 l 2.88864,-8.9208 c 0.16992,-0.59472 -0.50976,-1.35936 -1.18944,-1.35936 h -0.76464 c -0.25488,0 -0.67968,0.25488 -0.8496,0.4248 -0.16992,0.16992 -4.07808,3.3984 -4.41792,3.65328 -0.33984,0.25488 -0.4248,0.67968 -0.4248,0.67968 0,0 -0.8496,2.37888 -1.95408,5.5224 h -4.75776 c -1.01952,0 -1.18944,1.01952 -1.18944,1.01952 v 1.10448 c 0,0.93456 1.18944,1.01952 1.18944,1.01952 h 3.73824 c -1.86912,5.60736 -3.90816,12.23424 -3.90816,14.10336 0,4.07808 2.80368,5.01264 5.43744,5.01264 2.63376,0 5.5224,-2.03904 5.5224,-2.03904 0,0 0.25488,0.59472 0.50976,1.2744 0.25488,0.67968 1.01952,0.76464 1.01952,0.76464 h 3.8232 c 1.10448,0 1.2744,-0.93456 1.2744,-0.93456 V 50.2412 c 0,-1.86912 1.35936,-6.11712 1.35936,-6.11712 l 3.56832,-8.0712 c 0,0 0.8496,-1.61424 1.78416,-2.46384 0.93456,-0.76464 1.95408,-1.10448 2.37888,-0.8496 -1.18944,0.76464 -1.44432,2.03904 -1.44432,3.05856 0,1.01952 1.10448,3.22848 3.3984,3.22848 2.88864,0 3.90816,-1.78416 3.90816,-4.41792 0,-2.63376 -1.86912,-5.18256 -5.18256,-5.18256 m -14.27328,14.95296 c -0.67968,2.29392 -2.9736,3.8232 -4.41792,3.8232 -0.25488,0 -0.4248,0 -0.59472,-0.08496 -0.67968,-0.33984 -0.93456,-1.18944 -0.93456,-2.124 0,-1.95408 0.93456,-4.41792 0.93456,-4.41792 L 674.49,33.674 h 5.60736 c 0.25488,0 0.25488,0.25488 0.25488,0.25488 0,0 -2.63376,7.81632 -3.3984,10.45008"
     class="Articulation" />
  <path
     style="stroke-width:0.8496"
     id="path20728"
     d="m 2198.5161,60.6728 -2.0391,-1.2744 -5.0126,8.0712 -6.7968,-10.70496 c -0.1699,-0.33984 -0.6797,-0.59472 -1.0195,-0.59472 -0.3399,0 -0.7647,0.25488 -0.9346,0.59472 l -2.9736,5.01264 v -10.1952 c 0,-0.67968 -0.5097,-1.18944 -1.1894,-1.18944 h -0.6797 c -0.6797,0 -1.1894,0.50976 -1.1894,1.18944 V 67.0448 l -0.085,0.08496 -6.287,-10.36512 c -0.17,-0.33984 -0.6797,-0.59472 -1.0196,-0.59472 -0.3398,0 -0.8496,0.25488 -1.0195,0.59472 l -9.9403,16.39728 2.039,1.2744 5.0127,-8.32608 6.287,10.53504 c 0.1699,0.33984 0.6797,0.59472 1.0195,0.59472 0.3399,0 0.8496,-0.25488 1.0196,-0.59472 l 2.9736,-5.01264 v 10.95984 c 0,0.67968 0.5097,1.18944 1.1894,1.18944 h 0.6797 c 0.6797,0 1.1894,-0.50976 1.1894,-1.18944 V 66.36512 l 0.1699,-0.25488 6.6269,10.53504 c 0.1699,0.33984 0.6797,0.59472 1.0195,0.59472 0.3399,0 0.8496,-0.25488 1.0196,-0.59472 l 9.9403,-15.97248"
     class="Articulation" />
  <path
     id="path20768"
     d="M 205.614,49.75 318.515,75.07 V 85.96 L 205.614,60.63 V 49.75"
     fill-rule="evenodd"
     class="Beam" />
  <path
     id="path20770"
     d="M 285.333,83.56 318.515,91 v 10.89 L 285.333,94.44 V 83.56"
     fill-rule="evenodd"
     class="Beam" />
  <path
     id="path20772"
     d="m 396.57,188.52 h 164.81 v 10.62 H 396.57 v -10.62"
     fill-rule="evenodd"
     class="Beam" />
  <path
     id="path20774"
     d="m 396.57,172.59 h 164.81 v 10.62 H 396.57 v -10.62"
     fill-rule="evenodd"
     class="Beam" />
  <path
     id="path20776"
     d="m 729.77,84.21 22.89,-5.72 v 7.67 l -22.89,5.71 v -7.66"
     fill-rule="evenodd"
     class="Beam" />
  <path
     id="path20778"
     d="m 729.77,95.36 22.89,-5.72 v 7.67 l -22.89,5.72 v -7.67"
     fill-rule="evenodd"
     class="Beam" />
  <path
     id="path20780"
     d="m 779.87,53.96 44.49,22.42 V 88.27 L 779.87,65.85 V 53.96"
     fill-rule="evenodd"
     class="Beam" />
  <path
     id="path20782"
     d="m 879.62,75.2 44.49,22.42 v 11.89 L 879.62,87.09 V 75.2"
     fill-rule="evenodd"
     class="Beam" />
  <path
     id="path20784"
     d="m 1010.55,82.64 98.16,-16.32 v 10.77 l -98.16,16.32 V 82.64"
     fill-rule="evenodd"
     class="Beam" />
  <path
     id="path20786"
     d="m 1048.78,92.22 59.93,-9.97 v 10.77 l -59.93,9.96 V 92.22"
     fill-rule="evenodd"
     class="Beam" />
  <path
     id="path20788"
     d="m 1167.45,109.41 40.56,-22.54 v 12.15 l -40.56,22.54 v -12.15"
     fill-rule="evenodd"
     class="Beam" />
  <path
     id="path20790"
     d="m 1243.91,86.95 93.43,21.78 v 10.91 l -93.43,-21.79 v -10.9"
     fill-rule="evenodd"
     class="Beam" />
  <path
     id="path20792"
     d="m 1243.91,102.88 93.43,21.78 v 10.91 l -93.43,-21.79 v -10.9"
     fill-rule="evenodd"
     class="Beam" />
  <path
     id="path20794"
     d="m 1403.82,230.96 200.61,-26.87 v 10.72 l -200.61,26.86 v -10.71"
     fill-rule="evenodd"
     class="Beam" />
  <path
     id="path20796"
     d="m 1403.82,215.03 200.61,-26.87 v 10.72 l -200.61,26.86 v -10.71"
     fill-rule="evenodd"
     class="Beam" />
  <path
     id="path20798"
     d="M 1637.76,230.93 1801.59,204 v 10.76 l -163.83,26.94 v -10.77"
     fill-rule="evenodd"
     class="Beam" />
  <path
     id="path20800"
     d="m 1637.76,215 163.83,-26.93 v 10.76 l -163.83,26.94 V 215"
     fill-rule="evenodd"
     class="Beam" />
  <path
     id="path20802"
     d="M 1860.18,45.15 H 2034.9 V 55.77 H 1860.18 V 45.15"
     fill-rule="evenodd"
     class="Beam" />
  <path
     id="path20804"
     d="M 1860.18,61.08 H 2034.9 V 71.7 H 1860.18 V 61.08"
     fill-rule="evenodd"
     class="Beam" />
  <path
     id="path20806"
     d="m 1884.9,132 22.9,-5.72 v 7.67 l -22.9,5.71 V 132"
     fill-rule="evenodd"
     class="Beam" />
  <path
     id="path20808"
     d="m 1884.9,143.15 22.9,-5.72 v 7.67 l -22.9,5.72 v -7.67"
     fill-rule="evenodd"
     class="Beam" />
  <path
     style="stroke-width:0.8496"
     id="path20840"
     d="m 182.469,310.98984 c 0,-0.16992 0.76464,-3.05856 0.8496,-3.31344 0.085,-0.33984 1.61424,-5.18256 4.75776,-10.02528 2.29392,-3.56832 10.36512,-14.0184 10.11024,-14.0184 0,0 6.28704,-8.0712 6.71184,-19.03104 v -1.95408 c 0,-5.18256 -0.67968,-12.48912 -3.65328,-19.88064 -0.33984,-0.8496 -0.67968,-1.6992 -1.61424,-1.35936 -0.93456,0.33984 -0.67968,1.35936 -0.4248,2.29392 1.52928,5.9472 2.37888,12.06432 2.37888,18.18144 0,7.13664 -2.5488,10.70496 -4.07808,13.33872 -5.60736,9.43056 -12.91392,14.0184 -16.48224,15.20784 -0.4248,0.16992 -0.67968,0.50976 -0.67968,0.93456 v 5.26752 13.93344 c 0,0.59472 0.50976,1.10448 1.10448,1.10448 0.4248,0 0.93456,-0.33984 1.01952,-0.67968"
     class="Hook" />
  <path
     style="stroke-width:0.8496"
     id="path20844"
     d="m 233.3876,149.9236 c -0.085,-0.25488 -0.8496,-3.22848 -0.8496,-3.3984 -0.085,-0.33984 -0.59472,-0.59472 -1.01952,-0.59472 -0.59472,0 -1.10448,0.50976 -1.10448,1.10448 v 13.93344 5.26752 c 0,0.4248 0.33984,0.76464 0.67968,0.93456 3.56832,1.10448 10.95984,5.77728 16.48224,15.20784 1.52928,2.63376 3.99312,6.20208 3.99312,13.33872 0,6.11712 -0.93456,12.57408 -2.46384,18.52128 -0.25488,0.93456 -0.50976,1.78416 0.4248,2.124 0.93456,0.33984 1.2744,-0.33984 1.61424,-1.18944 3.05856,-7.47648 3.8232,-15.2928 3.8232,-20.56032 v -1.61424 c -0.4248,-10.95984 -6.71184,-19.03104 -6.71184,-19.03104 0.25488,0 -7.81632,-10.45008 -10.11024,-14.0184 -3.14352,-4.84272 -4.6728,-9.68544 -4.75776,-10.02528"
     class="Hook" />
  <path
     style="stroke-width:0.8496"
     id="path20854"
     d="m 220.9876,76.4236 c -0.085,-0.25488 -0.8496,-3.22848 -0.8496,-3.3984 -0.085,-0.33984 -0.59472,-0.59472 -1.01952,-0.59472 -0.59472,0 -1.10448,0.50976 -1.10448,1.10448 v 13.93344 5.26752 c 0,0.4248 0.33984,0.76464 0.67968,0.93456 3.56832,1.10448 10.95984,5.77728 16.48224,15.20784 1.52928,2.63376 3.99312,6.20208 3.99312,13.33872 0,6.11712 -0.93456,12.57408 -2.46384,18.52128 -0.25488,0.93456 -0.50976,1.78416 0.4248,2.124 0.93456,0.33984 1.2744,-0.33984 1.61424,-1.18944 3.05856,-7.47648 3.8232,-15.2928 3.8232,-20.56032 v -1.61424 c -0.4248,-10.95984 -6.71184,-19.03104 -6.71184,-19.03104 0.25488,0 -7.81632,-10.45008 -10.11024,-14.0184 -3.14352,-4.84272 -4.6728,-9.68544 -4.75776,-10.02528"
     class="Hook" />
  <path
     style="stroke-width:0.8496"
     id="path20856"
     d="m 756.724,247.26984 c 0,-0.16992 0.76464,-3.05856 0.8496,-3.31344 0.085,-0.33984 1.61424,-5.18256 4.75776,-10.02528 2.29392,-3.56832 10.36512,-14.0184 10.11024,-14.0184 0,0 6.28704,-8.0712 6.71184,-19.03104 v -1.95408 c 0,-5.18256 -0.67968,-12.48912 -3.65328,-19.88064 -0.33984,-0.8496 -0.67968,-1.6992 -1.61424,-1.35936 -0.93456,0.33984 -0.67968,1.35936 -0.4248,2.29392 1.52928,5.9472 2.37888,12.06432 2.37888,18.18144 0,7.13664 -2.5488,10.70496 -4.07808,13.33872 -5.60736,9.43056 -12.91392,14.0184 -16.48224,15.20784 -0.4248,0.16992 -0.67968,0.50976 -0.67968,0.93456 v 5.26752 13.93344 c 0,0.59472 0.50976,1.10448 1.10448,1.10448 0.4248,0 0.93456,-0.33984 1.01952,-0.67968"
     class="Hook" />
  <path
     style="stroke-width:0.8496"
     id="path20858"
     d="m 856.474,268.50984 c 0,-0.16992 0.76464,-3.05856 0.8496,-3.31344 0.085,-0.33984 1.61424,-5.18256 4.75776,-10.02528 2.29392,-3.56832 10.36512,-14.0184 10.11024,-14.0184 0,0 6.28704,-8.0712 6.71184,-19.03104 v -1.95408 c 0,-5.18256 -0.67968,-12.48912 -3.65328,-19.88064 -0.33984,-0.8496 -0.67968,-1.6992 -1.61424,-1.35936 -0.93456,0.33984 -0.67968,1.35936 -0.4248,2.29392 1.52928,5.9472 2.37888,12.06432 2.37888,18.18144 0,7.13664 -2.5488,10.70496 -4.07808,13.33872 -5.60736,9.43056 -12.91392,14.0184 -16.48224,15.20784 -0.4248,0.16992 -0.67968,0.50976 -0.67968,0.93456 v 5.26752 13.93344 c 0,0.59472 0.50976,1.10448 1.10448,1.10448 0.4248,0 0.93456,-0.33984 1.01952,-0.67968"
     class="Hook" />
  <path
     style="stroke-width:0.8496"
     id="path20860"
     d="m 1837.044,300.36984 c 0,-0.16992 0.7646,-3.05856 0.8496,-3.31344 0.085,-0.33984 1.6142,-5.18256 4.7578,-10.02528 2.2939,-3.56832 10.3651,-14.0184 10.1102,-14.0184 0,0 6.287,-8.0712 6.7118,-19.03104 v -1.95408 c 0,-5.18256 -0.6796,-12.48912 -3.6532,-19.88064 -0.3399,-0.8496 -0.6797,-1.6992 -1.6143,-1.35936 -0.9345,0.33984 -0.6797,1.35936 -0.4248,2.29392 1.5293,5.9472 2.3789,12.06432 2.3789,18.18144 0,7.13664 -2.5488,10.70496 -4.0781,13.33872 -5.6073,9.43056 -12.9139,14.0184 -16.4822,15.20784 -0.4248,0.16992 -0.6797,0.50976 -0.6797,0.93456 v 5.26752 13.93344 c 0,0.59472 0.5098,1.10448 1.1045,1.10448 0.4248,0 0.9345,-0.33984 1.0195,-0.67968"
     class="Hook" />
  <path
     style="stroke-width:0.59472"
     id="path20868"
     d="m 1489.5822,126.37976 c -0.06,-3.09254 -0.7732,-6.30403 -2.8547,-8.98027 -2.8547,-3.68727 -6.6014,-5.5309 -8.8613,-8.80186 -2.26,-3.27096 -3.2115,-9.634462 -3.2115,-9.634462 -0.06,-0.416304 -0.1784,-0.713664 -0.8921,-0.713664 -0.7137,0 -0.8326,0.29736 -0.8326,0.713664 v 9.456052 3.50884 6.95823 2.85465 c 0,0.11895 0.4163,0.47578 0.8326,0.59472 1.5463,0.59472 6.2446,3.50885 9.8129,8.80186 2.141,3.27096 2.4978,5.47142 2.4978,7.61242 v 0.65419 c -0.06,1.4868 -0.4163,4.51987 -1.3084,6.89875 -0.1784,0.53525 -0.4757,1.30838 0.119,1.60574 0.5947,0.29736 0.9515,-0.35683 1.2489,-0.77313 1.0705,-1.72469 2.6168,-4.87671 2.6168,-8.26661 0,-1.66522 -0.119,-3.15202 -0.2974,-4.40093 0.5947,-2.14099 1.13,-4.81723 1.13,-7.61241 v -0.47578 m -4.2226,0.83261 c -1.6057,-2.08152 -3.3899,-3.98463 -6.304,-6.89875 -2.3194,-2.31941 -3.3899,-4.34146 -3.8062,-5.88773 -0.059,-0.11895 -0.059,-0.35683 -0.1189,-0.53525 l 0.059,0.23789 c 2.6763,0.23789 6.3041,2.91413 8.564,5.64984 2.6762,3.21149 3.2115,5.70931 3.2115,8.02872 0,0.59472 0,1.12997 -0.06,1.72469 -0.3568,-0.6542 -1.0705,-1.72469 -1.5463,-2.31941"
     class="Hook" />
  <path
     style="stroke-width:0.59472"
     id="path20870"
     d="m 1721.3922,136.99976 c -0.06,-3.09254 -0.7732,-6.30403 -2.8547,-8.98027 -2.8547,-3.68727 -6.6014,-5.5309 -8.8613,-8.80186 -2.26,-3.27096 -3.2115,-9.63446 -3.2115,-9.63446 -0.06,-0.41631 -0.1784,-0.71367 -0.8921,-0.71367 -0.7137,0 -0.8326,0.29736 -0.8326,0.71367 v 9.45605 3.50884 6.95823 2.85465 c 0,0.11895 0.4163,0.47578 0.8326,0.59472 1.5463,0.59472 6.2446,3.50885 9.8129,8.80186 2.141,3.27096 2.4978,5.47142 2.4978,7.61242 v 0.65419 c -0.06,1.4868 -0.4163,4.51987 -1.3084,6.89875 -0.1784,0.53525 -0.4757,1.30838 0.119,1.60574 0.5947,0.29736 0.9515,-0.35683 1.2489,-0.77313 1.0705,-1.72469 2.6168,-4.87671 2.6168,-8.26661 0,-1.66522 -0.119,-3.15202 -0.2974,-4.40093 0.5947,-2.14099 1.13,-4.81723 1.13,-7.61241 v -0.47578 m -4.2226,0.83261 c -1.6057,-2.08152 -3.3899,-3.98463 -6.304,-6.89875 -2.3194,-2.31941 -3.3899,-4.34146 -3.8062,-5.88773 -0.06,-0.11895 -0.06,-0.35683 -0.1189,-0.53525 l 0.059,0.23789 c 2.6763,0.23789 6.3041,2.91413 8.564,5.64984 2.6762,3.21149 3.2115,5.70931 3.2115,8.02872 0,0.59472 0,1.12997 -0.06,1.72469 -0.3568,-0.6542 -1.0705,-1.72469 -1.5463,-2.31941"
     class="Hook" />
  <path
     style="stroke-width:0.59472"
     id="path20872"
     d="m 2155.2522,105.13976 c -0.059,-3.09254 -0.7732,-6.304032 -2.8547,-8.980272 -2.8547,-3.687264 -6.6014,-5.530896 -8.8613,-8.801856 -2.26,-3.27096 -3.2115,-9.634464 -3.2115,-9.634464 -0.06,-0.416304 -0.1784,-0.713664 -0.8921,-0.713664 -0.7137,0 -0.8326,0.29736 -0.8326,0.713664 v 9.456048 3.508848 6.958224 2.854652 c 0,0.11895 0.4163,0.47578 0.8326,0.59472 1.5463,0.59472 6.2446,3.50885 9.8129,8.80186 2.141,3.27096 2.4978,5.47142 2.4978,7.61242 v 0.65419 c -0.06,1.4868 -0.4163,4.51987 -1.3084,6.89875 -0.1784,0.53525 -0.4757,1.30838 0.119,1.60574 0.5947,0.29736 0.9515,-0.35683 1.2489,-0.77313 1.0705,-1.72469 2.6168,-4.87671 2.6168,-8.26661 0,-1.66522 -0.119,-3.15202 -0.2974,-4.40093 0.5947,-2.14099 1.13,-4.81723 1.13,-7.61241 v -0.47578 m -4.2226,0.83261 c -1.6057,-2.08152 -3.3899,-3.98463 -6.304,-6.898754 -2.3194,-2.319408 -3.3899,-4.341456 -3.8062,-5.887728 -0.06,-0.118944 -0.06,-0.356832 -0.1189,-0.535248 l 0.059,0.237888 c 2.6763,0.237888 6.3041,2.914128 8.564,5.64984 2.6762,3.211492 3.2115,5.709312 3.2115,8.028722 0,0.59472 0,1.12997 -0.06,1.72469 -0.3568,-0.6542 -1.0705,-1.72469 -1.5463,-2.31941"
     class="Hook" />
  <path
     id="path20882"
     d="m 200.15,107.82 c 0,9.68 -7.855,17.54 -17.544,17.54 -9.69,0 -17.545,-7.86 -17.545,-17.54 0,-9.69 7.855,-17.55 17.545,-17.55 9.689,0 17.544,7.86 17.544,17.55"
     fill-rule="evenodd"
     stroke-miterlimit="2"
     stroke-linejoin="miter"
     stroke-linecap="square"
     stroke-width="2.12"
     stroke="#000000"
     fill="none"
     class="Fingering" />
  <path
     id="path20884"
     d="m 185.182,107.01 c 3.094,-1.13 4.522,-2.86 4.522,-5.58 0,-3.57 -2.72,-5.85 -6.936,-5.85 -3.978,0 -7.004,2.35 -7.004,5.44 0,1.4 0.918,2.38 2.244,2.38 1.19,0 2.006,-0.81 2.006,-2.04 0,-0.75 -0.272,-1.19 -1.054,-1.73 -0.34,-0.24 -0.442,-0.38 -0.442,-0.61 0,-0.96 1.972,-1.98 3.91,-1.98 2.448,0 3.74,1.53 3.74,4.42 0,3.17 -1.292,4.83 -3.706,4.83 -0.306,0 -0.884,-0.03 -1.394,-0.07 -0.272,-0.03 -0.544,-0.03 -0.748,-0.03 -0.714,0 -1.088,0.31 -1.088,0.92 0,0.58 0.34,0.85 1.088,0.85 0.204,0 0.476,0 0.782,-0.04 0.68,-0.03 1.224,-0.03 1.598,-0.03 2.516,0 3.876,1.8 3.876,5.17 0,3.53 -1.7,5.51 -4.76,5.51 -2.142,0 -4.454,-1.16 -4.454,-2.21 0,-0.31 0.068,-0.38 0.714,-0.75 0.952,-0.58 1.326,-1.16 1.326,-2.01 0,-1.22 -0.918,-2.14 -2.142,-2.14 -1.462,0 -2.414,1.19 -2.414,2.99 0,3.3 3.026,5.58 7.378,5.58 4.93,0 8.126,-2.72 8.126,-6.9 0,-3.2 -1.632,-5.14 -5.168,-6.12"
     class="Fingering" />
  <path
     id="path20904"
     d="m 200.09,71.85 c 0,9.69 -7.855,17.55 -17.545,17.55 -9.689,0 -17.544,-7.86 -17.544,-17.55 0,-9.69 7.855,-17.54 17.544,-17.54 9.69,0 17.545,7.85 17.545,17.54"
     fill-rule="evenodd"
     stroke-miterlimit="2"
     stroke-linejoin="miter"
     stroke-linecap="square"
     stroke-width="2.12"
     stroke="#000000"
     fill="none"
     class="Fingering" />
  <path
     id="path20906"
     d="m 185.122,71.04 c 3.094,-1.12 4.522,-2.85 4.522,-5.57 0,-3.57 -2.72,-5.85 -6.936,-5.85 -3.978,0 -7.004,2.35 -7.004,5.44 0,1.39 0.918,2.38 2.244,2.38 1.19,0 2.006,-0.82 2.006,-2.04 0,-0.75 -0.272,-1.19 -1.054,-1.73 -0.34,-0.24 -0.442,-0.38 -0.442,-0.62 0,-0.95 1.972,-1.97 3.91,-1.97 2.448,0 3.74,1.53 3.74,4.42 0,3.16 -1.292,4.83 -3.706,4.83 -0.306,0 -0.884,-0.03 -1.394,-0.07 -0.272,-0.03 -0.544,-0.03 -0.748,-0.03 -0.714,0 -1.088,0.3 -1.088,0.92 0,0.57 0.34,0.85 1.088,0.85 0.204,0 0.476,0 0.782,-0.04 0.68,-0.03 1.224,-0.03 1.598,-0.03 2.516,0 3.876,1.8 3.876,5.17 0,3.53 -1.7,5.5 -4.76,5.5 -2.142,0 -4.454,-1.15 -4.454,-2.21 0,-0.3 0.068,-0.37 0.714,-0.74 0.952,-0.58 1.326,-1.16 1.326,-2.01 0,-1.22 -0.918,-2.14 -2.142,-2.14 -1.462,0 -2.414,1.19 -2.414,2.99 0,3.3 3.026,5.58 7.378,5.58 4.93,0 8.126,-2.72 8.126,-6.91 0,-3.19 -1.632,-5.13 -5.168,-6.12"
     class="Fingering" />
  <path
     id="path20928"
     d="m 185.198,27.67 -11.56,16.08 v 1.91 h 9.554 v 1.77 c 0,1.73 0,1.8 -0.204,2.1 -0.272,0.38 -0.918,0.48 -2.856,0.48 h -0.374 v 1.6 h 9.928 v -1.6 h -0.136 c -1.938,0 -2.584,-0.1 -2.856,-0.48 -0.204,-0.3 -0.204,-0.34 -0.204,-2.1 v -1.77 h 4.114 v -1.91 h -4.114 v -9.28 c 0,-4.25 0,-4.35 0.17,-6.8 h -1.462 m -2.006,16.08 h -7.48 l 7.48,-10.3 v 10.3"
     class="Fingering" />
  <path
     id="path20930"
     d="m 681.77,108.98 h -1.5 l -0.34,1.73 c -0.44,2.21 -0.71,2.42 -2.82,2.42 h -7.62 c 2.35,-2.45 3.13,-3.17 5.31,-4.87 3.09,-2.38 4.42,-3.57 5.2,-4.59 1.09,-1.49 1.63,-2.99 1.63,-4.65 0,-3.88 -3.19,-6.63 -7.65,-6.63 -4.32,0 -7.61,2.75 -7.61,6.39 0,2.14 1.08,3.6 2.68,3.6 1.26,0 2.11,-0.85 2.11,-2.07 0,-0.85 -0.48,-1.63 -1.19,-1.94 -1.26,-0.51 -1.33,-0.58 -1.33,-1.02 0,-0.51 0.34,-1.29 0.82,-1.87 0.85,-1.05 2.24,-1.63 3.84,-1.63 2.82,0 4.49,1.73 4.49,4.59 0,2.51 -1.19,4.79 -4.01,7.78 -2.52,2.66 -4.08,4.32 -4.66,4.97 -1.22,1.43 -1.84,2.21 -3.33,4.18 v 0.95 h 15.33 l 0.65,-7.34"
     class="Fingering" />
  <path
     id="path20982"
     d="m 185.628,0 c -1.156,1.39 -4.284,2.45 -7.412,2.51 v 1.47 h 2.992 c 1.972,0.03 2.176,0.23 2.108,2.14 v 13.63 c 0,1.74 0,1.8 -0.204,2.11 -0.272,0.34 -0.918,0.48 -2.822,0.48 h -2.21 v 1.59 h 13.464 v -1.59 h -1.87 c -1.904,0 -2.55,-0.14 -2.822,-0.48 -0.238,-0.31 -0.238,-0.34 -0.238,-2.11 V 5.71 c 0,-1.9 0.068,-3.5 0.238,-5.71 h -1.224"
     class="Fingering" />
  <path
     id="path20984"
     d="m 281.849,49.04 h -1.496 l -0.34,1.74 c -0.442,2.21 -0.714,2.41 -2.822,2.41 h -7.616 c 2.346,-2.45 3.128,-3.16 5.304,-4.86 3.094,-2.38 4.42,-3.57 5.202,-4.59 1.088,-1.5 1.632,-2.99 1.632,-4.66 0,-3.87 -3.196,-6.63 -7.65,-6.63 -4.318,0 -7.616,2.76 -7.616,6.39 0,2.15 1.088,3.61 2.686,3.61 1.258,0 2.108,-0.85 2.108,-2.08 0,-0.85 -0.476,-1.63 -1.19,-1.93 -1.258,-0.51 -1.326,-0.58 -1.326,-1.02 0,-0.51 0.34,-1.3 0.816,-1.87 0.85,-1.06 2.244,-1.64 3.842,-1.64 2.822,0 4.488,1.74 4.488,4.59 0,2.52 -1.19,4.8 -4.012,7.79 -2.516,2.65 -4.08,4.32 -4.658,4.96 -1.224,1.43 -1.836,2.21 -3.332,4.19 v 0.95 h 15.334 l 0.646,-7.35"
     class="Fingering" />
  <path
     id="path20986"
     d="m 305.535,36.67 c -1.156,1.4 -4.284,2.45 -7.412,2.52 v 1.46 h 2.992 c 1.972,0.03 2.176,0.24 2.108,2.14 v 13.64 c 0,1.73 0,1.8 -0.204,2.1 -0.272,0.34 -0.918,0.48 -2.822,0.48 h -2.21 v 1.6 h 13.464 v -1.6 h -1.87 c -1.904,0 -2.55,-0.14 -2.822,-0.48 -0.238,-0.3 -0.238,-0.34 -0.238,-2.1 V 42.38 c 0,-1.9 0.068,-3.5 0.238,-5.71 h -1.224"
     class="Fingering" />
  <path
     id="path20988"
     d="m 345.089,63.55 c 3.094,-1.13 4.522,-2.86 4.522,-5.58 0,-3.57 -2.72,-5.85 -6.936,-5.85 -3.978,0 -7.004,2.35 -7.004,5.44 0,1.4 0.918,2.38 2.244,2.38 1.19,0 2.006,-0.81 2.006,-2.04 0,-0.75 -0.272,-1.19 -1.054,-1.73 -0.34,-0.24 -0.442,-0.38 -0.442,-0.61 0,-0.96 1.972,-1.98 3.91,-1.98 2.448,0 3.74,1.53 3.74,4.42 0,3.17 -1.292,4.83 -3.706,4.83 -0.306,0 -0.884,-0.03 -1.394,-0.07 -0.272,-0.03 -0.544,-0.03 -0.748,-0.03 -0.714,0 -1.088,0.31 -1.088,0.92 0,0.58 0.34,0.85 1.088,0.85 0.204,0 0.476,0 0.782,-0.04 0.68,-0.03 1.224,-0.03 1.598,-0.03 2.516,0 3.876,1.8 3.876,5.17 0,3.53 -1.7,5.51 -4.76,5.51 -2.142,0 -4.454,-1.16 -4.454,-2.21 0,-0.31 0.068,-0.38 0.714,-0.75 0.952,-0.58 1.326,-1.16 1.326,-2.01 0,-1.22 -0.918,-2.14 -2.142,-2.14 -1.462,0 -2.414,1.19 -2.414,2.99 0,3.3 3.026,5.58 7.378,5.58 4.93,0 8.126,-2.72 8.126,-6.9 0,-3.2 -1.632,-5.14 -5.168,-6.12"
     class="Fingering" />
  <path
     id="path20990"
     d="m 486.144,66.91 h -1.496 l -0.34,1.74 c -0.442,2.21 -0.714,2.41 -2.822,2.41 h -7.616 c 2.346,-2.45 3.128,-3.16 5.304,-4.86 3.094,-2.38 4.42,-3.57 5.202,-4.59 1.088,-1.5 1.632,-2.99 1.632,-4.66 0,-3.88 -3.196,-6.63 -7.65,-6.63 -4.318,0 -7.616,2.75 -7.616,6.39 0,2.14 1.088,3.61 2.686,3.61 1.258,0 2.108,-0.85 2.108,-2.08 0,-0.85 -0.476,-1.63 -1.19,-1.94 -1.258,-0.51 -1.326,-0.57 -1.326,-1.02 0,-0.51 0.34,-1.29 0.816,-1.87 0.85,-1.05 2.244,-1.63 3.842,-1.63 2.822,0 4.488,1.74 4.488,4.59 0,2.52 -1.19,4.8 -4.012,7.79 -2.516,2.65 -4.08,4.32 -4.658,4.96 -1.224,1.43 -1.836,2.21 -3.332,4.18 v 0.96 h 15.334 l 0.646,-7.35"
     class="Fingering" />
  <path
     id="path20992"
     d="m 542.824,84.48 c -1.156,1.4 -4.284,2.45 -7.412,2.52 v 1.46 h 2.992 c 1.972,0.03 2.176,0.24 2.108,2.14 v 13.64 c 0,1.73 0,1.8 -0.204,2.1 -0.272,0.34 -0.918,0.48 -2.822,0.48 h -2.21 v 1.6 h 13.464 v -1.6 h -1.87 c -1.904,0 -2.55,-0.14 -2.822,-0.48 -0.238,-0.3 -0.238,-0.34 -0.238,-2.1 V 90.19 c 0,-1.9 0.068,-3.5 0.238,-5.71 h -1.224"
     class="Fingering" />
  <path
     id="path20994"
     d="m 575.422,84.79 c 3.094,-1.13 4.522,-2.86 4.522,-5.58 0,-3.57 -2.72,-5.85 -6.936,-5.85 -3.978,0 -7.004,2.35 -7.004,5.44 0,1.4 0.918,2.38 2.244,2.38 1.19,0 2.006,-0.81 2.006,-2.04 0,-0.75 -0.272,-1.19 -1.054,-1.73 -0.34,-0.24 -0.442,-0.38 -0.442,-0.61 0,-0.96 1.972,-1.98 3.91,-1.98 2.448,0 3.74,1.53 3.74,4.42 0,3.17 -1.292,4.83 -3.706,4.83 -0.306,0 -0.884,-0.03 -1.394,-0.07 -0.272,-0.03 -0.544,-0.03 -0.748,-0.03 -0.714,0 -1.088,0.31 -1.088,0.92 0,0.58 0.34,0.85 1.088,0.85 0.204,0 0.476,0 0.782,-0.04 0.68,-0.03 1.224,-0.03 1.598,-0.03 2.516,0 3.876,1.8 3.876,5.17 0,3.53 -1.7,5.51 -4.76,5.51 -2.142,0 -4.454,-1.16 -4.454,-2.21 0,-0.31 0.068,-0.38 0.714,-0.75 0.952,-0.58 1.326,-1.16 1.326,-2.01 0,-1.22 -0.918,-2.14 -2.142,-2.14 -1.462,0 -2.414,1.19 -2.414,2.99 0,3.3 3.026,5.58 7.378,5.58 4.93,0 8.126,-2.72 8.126,-6.9 0,-3.2 -1.632,-5.14 -5.168,-6.12"
     class="Fingering" />
  <path
     id="path20996"
     d="m 664.25,75.58 c 3.09,-1.13 4.52,-2.86 4.52,-5.58 0,-3.57 -2.72,-5.85 -6.94,-5.85 -3.97,0 -7,2.35 -7,5.44 0,1.4 0.92,2.38 2.24,2.38 1.19,0 2.01,-0.81 2.01,-2.04 0,-0.75 -0.27,-1.19 -1.05,-1.73 -0.34,-0.24 -0.45,-0.38 -0.45,-0.61 0,-0.96 1.98,-1.98 3.91,-1.98 2.45,0 3.74,1.53 3.74,4.42 0,3.17 -1.29,4.83 -3.7,4.83 -0.31,0 -0.89,-0.03 -1.4,-0.07 -0.27,-0.03 -0.54,-0.03 -0.74,-0.03 -0.72,0 -1.09,0.31 -1.09,0.92 0,0.58 0.34,0.85 1.09,0.85 0.2,0 0.47,0 0.78,-0.04 0.68,-0.03 1.22,-0.03 1.6,-0.03 2.51,0 3.87,1.8 3.87,5.17 0,3.53 -1.7,5.51 -4.76,5.51 -2.14,0 -4.45,-1.16 -4.45,-2.21 0,-0.31 0.07,-0.38 0.71,-0.75 0.95,-0.58 1.33,-1.16 1.33,-2.01 0,-1.22 -0.92,-2.14 -2.14,-2.14 -1.47,0 -2.42,1.19 -2.42,2.99 0,3.3 3.03,5.58 7.38,5.58 4.93,0 8.13,-2.72 8.13,-6.9 0,-3.2 -1.64,-5.14 -5.17,-6.12"
     class="Fingering" />
  <path
     id="path20998"
     d="m 682.38,63.41 c -1.16,1.39 -4.29,2.45 -7.42,2.51 v 1.47 h 3 c 1.97,0.03 2.17,0.23 2.1,2.14 v 13.63 c 0,1.74 0,1.8 -0.2,2.11 -0.27,0.34 -0.92,0.48 -2.82,0.48 h -2.21 v 1.59 h 13.46 v -1.59 h -1.87 c -1.9,0 -2.55,-0.14 -2.82,-0.48 -0.24,-0.31 -0.24,-0.34 -0.24,-2.11 V 69.12 c 0,-1.9 0.07,-3.5 0.24,-5.71 h -1.22"
     class="Fingering" />
  <path
     id="path21000"
     d="m 771.47,25.33 -11.56,16.08 v 1.91 h 9.56 v 1.76 c 0,1.74 0,1.81 -0.21,2.11 -0.27,0.38 -0.91,0.48 -2.85,0.48 h -0.38 v 1.6 h 9.93 v -1.6 h -0.13 c -1.94,0 -2.59,-0.1 -2.86,-0.48 -0.2,-0.3 -0.2,-0.34 -0.2,-2.11 v -1.76 h 4.11 v -1.91 h -4.11 v -9.28 c 0,-4.25 0,-4.35 0.17,-6.8 h -1.47 m -2,16.08 h -7.48 l 7.48,-10.3 v 10.3"
     class="Fingering" />
  <path
     id="path21002"
     d="m 829.27,23.99 c -1.15,1.4 -4.28,2.45 -7.41,2.52 v 1.46 h 2.99 c 1.98,0.04 2.18,0.24 2.11,2.14 v 13.64 c 0,1.73 0,1.8 -0.2,2.11 -0.27,0.34 -0.92,0.47 -2.82,0.47 h -2.21 v 1.6 h 13.46 v -1.6 h -1.87 c -1.9,0 -2.55,-0.13 -2.82,-0.47 -0.24,-0.31 -0.24,-0.34 -0.24,-2.11 V 29.71 c 0,-1.91 0.07,-3.51 0.24,-5.72 h -1.23"
     class="Fingering" />
  <path
     id="path21004"
     d="m 876.13,63.16 h -1.49 l -0.34,1.74 c -0.44,2.21 -0.72,2.41 -2.82,2.41 h -7.62 c 2.35,-2.45 3.13,-3.16 5.3,-4.86 3.1,-2.38 4.42,-3.57 5.21,-4.59 1.08,-1.5 1.63,-2.99 1.63,-4.66 0,-3.88 -3.2,-6.63 -7.65,-6.63 -4.32,0 -7.62,2.75 -7.62,6.39 0,2.14 1.09,3.61 2.69,3.61 1.26,0 2.11,-0.85 2.11,-2.08 0,-0.85 -0.48,-1.63 -1.19,-1.94 -1.26,-0.51 -1.33,-0.57 -1.33,-1.02 0,-0.51 0.34,-1.29 0.82,-1.87 0.85,-1.05 2.24,-1.63 3.84,-1.63 2.82,0 4.49,1.74 4.49,4.59 0,2.52 -1.19,4.8 -4.02,7.79 -2.51,2.65 -4.08,4.32 -4.65,4.96 -1.23,1.43 -1.84,2.21 -3.34,4.18 v 0.96 h 15.34 l 0.64,-7.35"
     class="Fingering" />
  <path
     id="path21006"
     d="m 935.25,52.19 -11.56,16.08 v 1.91 h 9.56 v 1.77 c 0,1.73 0,1.8 -0.21,2.1 -0.27,0.38 -0.91,0.48 -2.85,0.48 h -0.38 v 1.6 h 9.93 v -1.6 h -0.13 c -1.94,0 -2.59,-0.1 -2.86,-0.48 -0.2,-0.3 -0.2,-0.34 -0.2,-2.1 v -1.77 h 4.11 v -1.91 h -4.11 v -9.28 c 0,-4.25 0,-4.35 0.17,-6.8 h -1.47 m -2,16.08 h -7.48 l 7.48,-10.3 v 10.3"
     class="Fingering" />
  <path
     id="path21008"
     d="m 999.91,51.88 c -1.16,1.39 -4.29,2.45 -7.41,2.52 v 1.46 h 2.99 c 1.97,0.03 2.17,0.24 2.11,2.14 v 13.63 c 0,1.74 0,1.81 -0.21,2.11 -0.27,0.34 -0.92,0.48 -2.82,0.48 h -2.21 v 1.6 h 13.46 v -1.6 h -1.87 c -1.9,0 -2.55,-0.14 -2.82,-0.48 -0.24,-0.3 -0.24,-0.34 -0.24,-2.11 V 57.59 c 0,-1.9 0.07,-3.5 0.24,-5.71 h -1.22"
     class="Fingering" />
  <path
     id="path21010"
     d="m 1240.42,73.78 h -1.49 l -0.34,1.74 c -0.45,2.21 -0.72,2.41 -2.83,2.41 h -7.61 c 2.34,-2.45 3.13,-3.16 5.3,-4.86 3.1,-2.38 4.42,-3.57 5.2,-4.59 1.09,-1.5 1.64,-2.99 1.64,-4.66 0,-3.88 -3.2,-6.63 -7.65,-6.63 -4.32,0 -7.62,2.75 -7.62,6.39 0,2.14 1.09,3.61 2.69,3.61 1.25,0 2.1,-0.85 2.1,-2.08 0,-0.85 -0.47,-1.63 -1.19,-1.94 -1.25,-0.51 -1.32,-0.57 -1.32,-1.02 0,-0.51 0.34,-1.29 0.81,-1.87 0.85,-1.05 2.25,-1.63 3.85,-1.63 2.82,0 4.48,1.74 4.48,4.59 0,2.52 -1.19,4.8 -4.01,7.79 -2.51,2.65 -4.08,4.32 -4.66,4.96 -1.22,1.43 -1.83,2.21 -3.33,4.18 v 0.96 h 15.34 l 0.64,-7.35"
     class="Fingering" />
  <path
     id="path21012"
     d="m 1418.45,95.53 c -1.16,1.39 -4.29,2.45 -7.41,2.51 v 1.47 h 2.99 c 1.97,0.03 2.17,0.23 2.11,2.14 v 13.63 c 0,1.74 0,1.8 -0.21,2.11 -0.27,0.34 -0.92,0.48 -2.82,0.48 h -2.21 v 1.59 h 13.46 v -1.59 h -1.87 c -1.9,0 -2.55,-0.14 -2.82,-0.48 -0.24,-0.31 -0.24,-0.34 -0.24,-2.11 v -14.04 c 0,-1.9 0.07,-3.5 0.24,-5.71 h -1.22"
     class="Fingering" />
  <path
     id="path21014"
     d="m 1536.58,97.08 c 3.1,-1.12 4.53,-2.86 4.53,-5.58 0,-3.57 -2.72,-5.84 -6.94,-5.84 -3.98,0 -7,2.34 -7,5.44 0,1.39 0.91,2.38 2.24,2.38 1.19,0 2.01,-0.82 2.01,-2.04 0,-0.75 -0.28,-1.19 -1.06,-1.74 -0.34,-0.24 -0.44,-0.37 -0.44,-0.61 0,-0.95 1.97,-1.97 3.91,-1.97 2.45,0 3.74,1.53 3.74,4.42 0,3.16 -1.29,4.83 -3.71,4.83 -0.3,0 -0.88,-0.04 -1.39,-0.07 -0.27,-0.04 -0.54,-0.04 -0.75,-0.04 -0.71,0 -1.09,0.31 -1.09,0.92 0,0.58 0.34,0.85 1.09,0.85 0.21,0 0.48,0 0.78,-0.03 0.68,-0.04 1.23,-0.04 1.6,-0.04 2.52,0 3.88,1.81 3.88,5.17 0,3.54 -1.7,5.51 -4.76,5.51 -2.14,0 -4.46,-1.16 -4.46,-2.21 0,-0.31 0.07,-0.37 0.72,-0.75 0.95,-0.58 1.32,-1.15 1.32,-2 0,-1.23 -0.91,-2.15 -2.14,-2.15 -1.46,0 -2.41,1.19 -2.41,3 0,3.29 3.02,5.57 7.38,5.57 4.93,0 8.12,-2.72 8.12,-6.9 0,-3.2 -1.63,-5.13 -5.17,-6.12"
     class="Fingering" />
  <path
     id="path21016"
     d="m 1652.39,95.53 c -1.16,1.39 -4.29,2.45 -7.41,2.51 v 1.47 h 2.99 c 1.97,0.03 2.17,0.23 2.11,2.14 v 13.63 c 0,1.74 0,1.8 -0.21,2.11 -0.27,0.34 -0.92,0.48 -2.82,0.48 h -2.21 v 1.59 h 13.46 v -1.59 h -1.87 c -1.9,0 -2.55,-0.14 -2.82,-0.48 -0.24,-0.31 -0.24,-0.34 -0.24,-2.11 v -14.04 c 0,-1.9 0.07,-3.5 0.24,-5.71 h -1.22"
     class="Fingering" />
  <path
     id="path21018"
     d="m 1742.66,95.53 -11.56,16.08 v 1.9 h 9.56 v 1.77 c 0,1.74 0,1.8 -0.21,2.11 -0.27,0.37 -0.92,0.48 -2.85,0.48 h -0.38 v 1.59 h 9.93 v -1.59 h -0.14 c -1.93,0 -2.58,-0.11 -2.85,-0.48 -0.21,-0.31 -0.21,-0.34 -0.21,-2.11 v -1.77 h 4.12 v -1.9 h -4.12 v -9.28 c 0,-4.25 0,-4.35 0.17,-6.8 h -1.46 m -2,16.08 h -7.48 l 7.48,-10.3 v 10.3"
     class="Fingering" />
  <path
     id="path21020"
     d="m 1776.34,55.29 -11.56,16.08 v 1.91 h 9.55 v 1.76 c 0,1.74 0,1.81 -0.2,2.11 -0.27,0.38 -0.92,0.48 -2.86,0.48 h -0.37 v 1.6 h 9.93 v -1.6 h -0.14 c -1.94,0 -2.58,-0.1 -2.85,-0.48 -0.21,-0.3 -0.21,-0.34 -0.21,-2.11 v -1.76 h 4.12 v -1.91 h -4.12 v -9.28 c 0,-4.25 0,-4.35 0.17,-6.8 h -1.46 m -2.01,16.08 h -7.48 l 7.48,-10.3 v 10.3"
     class="Fingering" />
  <path
     id="path21022"
     d="m 1846.93,58.94 c -4.76,0 -8.23,5.17 -8.23,12.31 0,7 3.37,12.14 7.96,12.14 4.76,0 8.09,-4.97 8.09,-12.04 0,-3.6 -0.75,-6.59 -2.17,-8.94 -1.33,-2.14 -3.51,-3.47 -5.65,-3.47 m -0.24,1.46 c 1.13,0 2.21,0.75 3.03,2.11 0.92,1.6 1.22,3.54 1.22,8.2 0,4.79 -0.23,7.03 -0.91,8.53 -0.79,1.67 -2.01,2.69 -3.3,2.69 -1.16,0 -2.21,-0.75 -3.03,-2.11 -0.95,-1.6 -1.22,-3.71 -1.22,-9.28 0,-3.98 0.24,-5.95 0.92,-7.45 0.78,-1.7 2,-2.69 3.29,-2.69"
     class="Fingering" />
  <path
     id="path21070"
     d="m 260.075,288.45 h 14.184 v -0.92 h -1.196 c -0.293,0 -0.594,-0.04 -0.903,-0.11 -0.309,-0.08 -0.606,-0.17 -0.891,-0.27 -0.285,-0.11 -0.533,-0.23 -0.745,-0.37 -0.212,-0.14 -0.358,-0.27 -0.439,-0.4 -0.179,-0.29 -0.318,-0.73 -0.415,-1.32 -0.098,-0.58 -0.147,-1.41 -0.147,-2.49 v -21.39 c 0,-0.99 0.057,-1.79 0.171,-2.41 0.114,-0.62 0.26,-1.07 0.439,-1.35 0.651,-0.79 1.628,-1.19 2.93,-1.19 h 1.196 v -0.88 h -14.184 v 0.88 h 1.196 c 0.57,0 1.131,0.11 1.685,0.33 0.553,0.22 0.984,0.52 1.294,0.91 0.13,0.15 0.232,0.32 0.305,0.52 0.073,0.19 0.126,0.43 0.159,0.72 0.032,0.28 0.052,0.62 0.061,1.02 0.008,0.4 0.012,0.88 0.012,1.45 v 21.39 c 0,2.05 -0.196,3.31 -0.586,3.76 -0.326,0.42 -0.724,0.73 -1.196,0.92 -0.472,0.18 -1.05,0.28 -1.734,0.28 h -1.196 v 0.92 m 16.64,0 H 290.9 v -0.92 h -1.196 c -0.293,0 -0.594,-0.04 -0.904,-0.11 -0.309,-0.08 -0.606,-0.17 -0.891,-0.27 -0.285,-0.11 -0.533,-0.23 -0.744,-0.37 -0.212,-0.14 -0.358,-0.27 -0.44,-0.4 -0.179,-0.29 -0.317,-0.73 -0.415,-1.32 -0.097,-0.58 -0.146,-1.41 -0.146,-2.49 v -21.39 c 0,-0.99 0.057,-1.79 0.171,-2.41 0.114,-0.62 0.26,-1.07 0.439,-1.35 0.651,-0.79 1.628,-1.19 2.93,-1.19 h 1.196 v -0.88 h -14.185 v 0.88 h 1.197 c 0.569,0 1.131,0.11 1.684,0.33 0.554,0.22 0.985,0.52 1.294,0.91 0.13,0.15 0.232,0.32 0.305,0.52 0.074,0.19 0.127,0.43 0.159,0.72 0.033,0.28 0.053,0.62 0.061,1.02 0.008,0.4 0.012,0.88 0.012,1.45 v 21.39 c 0,2.05 -0.195,3.31 -0.586,3.76 -0.325,0.42 -0.724,0.73 -1.196,0.92 -0.472,0.18 -1.05,0.28 -1.733,0.28 h -1.197 v 0.92"
     class="Harmony" />
  <path
     id="path21072"
     d="m 1403.83,288.45 h 14.19 v -0.92 h -1.2 c -0.29,0 -0.59,-0.04 -0.9,-0.11 -0.31,-0.08 -0.61,-0.17 -0.89,-0.27 -0.29,-0.11 -0.54,-0.23 -0.75,-0.37 -0.21,-0.14 -0.35,-0.27 -0.44,-0.4 -0.18,-0.29 -0.31,-0.73 -0.41,-1.32 -0.1,-0.58 -0.15,-1.41 -0.15,-2.49 v -21.39 c 0,-0.99 0.06,-1.79 0.17,-2.41 0.12,-0.62 0.26,-1.07 0.44,-1.35 0.65,-0.79 1.63,-1.19 2.93,-1.19 h 1.2 v -0.88 h -14.19 v 0.88 h 1.2 c 0.57,0 1.13,0.11 1.68,0.33 0.56,0.22 0.99,0.52 1.3,0.91 0.13,0.15 0.23,0.32 0.3,0.52 0.08,0.19 0.13,0.43 0.16,0.72 0.04,0.28 0.06,0.62 0.06,1.02 0.01,0.4 0.02,0.88 0.02,1.45 v 21.39 c 0,2.05 -0.2,3.31 -0.59,3.76 -0.33,0.42 -0.72,0.73 -1.2,0.92 -0.47,0.18 -1.05,0.28 -1.73,0.28 h -1.2 v 0.92 m 16.64,0 h 14.19 v -0.92 h -1.2 c -0.29,0 -0.59,-0.04 -0.9,-0.11 -0.31,-0.08 -0.61,-0.17 -0.89,-0.27 -0.29,-0.11 -0.53,-0.23 -0.75,-0.37 -0.21,-0.14 -0.35,-0.27 -0.44,-0.4 -0.17,-0.29 -0.31,-0.73 -0.41,-1.32 -0.1,-0.58 -0.15,-1.41 -0.15,-2.49 v -21.39 c 0,-0.99 0.06,-1.79 0.17,-2.41 0.12,-0.62 0.26,-1.07 0.44,-1.35 0.65,-0.79 1.63,-1.19 2.93,-1.19 h 1.2 v -0.88 h -14.19 v 0.88 h 1.2 c 0.57,0 1.13,0.11 1.69,0.33 0.55,0.22 0.98,0.52 1.29,0.91 0.13,0.15 0.23,0.32 0.3,0.52 0.08,0.19 0.13,0.43 0.16,0.72 0.04,0.28 0.06,0.62 0.06,1.02 0.01,0.4 0.02,0.88 0.02,1.45 v 21.39 c 0,2.05 -0.2,3.31 -0.59,3.76 -0.32,0.42 -0.72,0.73 -1.2,0.92 -0.47,0.18 -1.05,0.28 -1.73,0.28 h -1.2 v 0.92"
     class="Harmony" />
</svg>
