<?xml version="1.0" encoding="UTF-8" standalone="no"?>
<svg
   xmlns:dc="http://purl.org/dc/elements/1.1/"
   xmlns:cc="http://creativecommons.org/ns#"
   xmlns:rdf="http://www.w3.org/1999/02/22-rdf-syntax-ns#"
   xmlns:svg="http://www.w3.org/2000/svg"
   xmlns="http://www.w3.org/2000/svg"
   xmlns:sodipodi="http://sodipodi.sourceforge.net/DTD/sodipodi-0.dtd"
   xmlns:inkscape="http://www.inkscape.org/namespaces/inkscape"
   inkscape:version="1.0 (4035a4f, 2020-05-01)"
   sodipodi:docname="snippet17.svg"
   id="svg22514"
   version="1.2"
   viewBox="0 0 2340 248.37"
   height="248.37"
   width="2340">
  <metadata
     id="metadata22520">
    <rdf:RDF>
      <cc:Work
         rdf:about="">
        <dc:format>image/svg+xml</dc:format>
        <dc:type
           rdf:resource="http://purl.org/dc/dcmitype/StillImage" />
        <dc:title>Batches2Partita4</dc:title>
      </cc:Work>
    </rdf:RDF>
  </metadata>
  <defs
     id="defs22518" />
  <sodipodi:namedview
     inkscape:current-layer="svg22514"
     inkscape:window-maximized="0"
     inkscape:window-y="23"
     inkscape:window-x="0"
     inkscape:cy="-408.77444"
     inkscape:cx="1282.5025"
     inkscape:zoom="0.11827543"
     showgrid="false"
     id="namedview22516"
     inkscape:window-height="480"
     inkscape:window-width="735"
     inkscape:pageshadow="2"
     inkscape:pageopacity="0"
     guidetolerance="10"
     gridtolerance="10"
     objecttolerance="10"
     borderopacity="1"
     bordercolor="#666666"
     pagecolor="#ffffff" />
  <title
     id="title21856">Batches2Partita4</title>
  <desc
     id="desc21858">Generated by MuseScore 3.6.2</desc>
  <polyline
     transform="translate(-360,-1015.79)"
     id="polyline21870"
     points="360,1115.03 2700,1115.03"
     stroke-linejoin="bevel"
     stroke-width="2.34"
     stroke="#000000"
     fill="none"
     class="StaffLines" />
  <polyline
     transform="translate(-360,-1015.79)"
     id="polyline21872"
     points="360,1136.27 2700,1136.27"
     stroke-linejoin="bevel"
     stroke-width="2.34"
     stroke="#000000"
     fill="none"
     class="StaffLines" />
  <polyline
     transform="translate(-360,-1015.79)"
     id="polyline21874"
     points="360,1157.51 2700,1157.51"
     stroke-linejoin="bevel"
     stroke-width="2.34"
     stroke="#000000"
     fill="none"
     class="StaffLines" />
  <polyline
     transform="translate(-360,-1015.79)"
     id="polyline21876"
     points="360,1178.75 2700,1178.75"
     stroke-linejoin="bevel"
     stroke-width="2.34"
     stroke="#000000"
     fill="none"
     class="StaffLines" />
  <polyline
     transform="translate(-360,-1015.79)"
     id="polyline21878"
     points="360,1199.99 2700,1199.99"
     stroke-linejoin="bevel"
     stroke-width="2.34"
     stroke="#000000"
     fill="none"
     class="StaffLines" />
  <path
     id="path21892"
     d="M 499.726,80.12 C 549.691,45.25 640.19,55.87 680.72,101.36 639.496,61.77 548.998,51.15 499.726,80.12"
     fill-rule="evenodd"
     stroke-linejoin="round"
     stroke-linecap="round"
     stroke-width="1.49"
     stroke="#000000"
     class="SlurSegment" />
  <path
     id="path21894"
     d="m 1165.38,90.74 c 16.21,-32.61 61.46,-43.23 90.5,-21.24 -27.68,-16.2 -72.93,-5.58 -90.5,21.24"
     fill-rule="evenodd"
     stroke-linejoin="round"
     stroke-linecap="round"
     stroke-width="1.49"
     stroke="#000000"
     class="SlurSegment" />
  <polyline
     transform="translate(-360,-1015.79)"
     id="polyline21900"
     points="1708.7,1113.86 1708.7,1201.15"
     stroke-linejoin="bevel"
     stroke-width="3.82"
     stroke="#000000"
     class="BarLine" />
  <polyline
     transform="translate(-360,-1015.79)"
     id="polyline21902"
     points="2679.29,1113.86 2679.29,1201.15"
     stroke-linejoin="bevel"
     stroke-width="3.82"
     stroke="#000000"
     class="BarLine" />
  <polyline
     transform="translate(-360,-1015.79)"
     id="polyline21904"
     points="2694.16,1113.86 2694.16,1201.15"
     stroke-linejoin="bevel"
     stroke-width="11.68"
     stroke="#000000"
     class="BarLine" />
  <path
     style="stroke-width:0.8496"
     id="path21918"
     d="m 182.73268,153.95424 c 0.50976,-0.085 0.93456,-0.67968 0.93456,-1.18944 v -5.01264 c 0,-0.67968 -0.50976,-1.18944 -1.18944,-1.18944 h -0.16992 l -2.80368,0.59472 V 134.4984 h -2.37888 v 13.1688 l -7.56144,1.52928 V 137.21712 H 167.185 v 12.48912 l -3.31344,0.67968 c -0.50976,0.085 -0.93456,0.67968 -0.93456,1.18944 v 0.16992 4.92768 -0.16992 c 0,0.67968 0.50976,1.18944 1.18944,1.18944 h 0.25488 l 2.80368,-0.59472 v 14.0184 l -3.31344,0.67968 c -0.50976,0.085 -0.93456,0.67968 -0.93456,1.18944 v 4.92768 c 0,0.67968 0.50976,1.18944 1.18944,1.18944 h 0.25488 l 2.80368,-0.59472 v 12.65904 h 2.37888 v -13.1688 l 7.56144,-1.52928 V 188.448 h 2.37888 v -12.48912 l 3.22848,-0.59472 c 0.50976,-0.085 0.93456,-0.67968 0.93456,-1.18944 v -5.01264 c 0,-0.67968 -0.50976,-1.18944 -1.18944,-1.18944 h -0.16992 l -2.80368,0.59472 v -14.0184 l 3.22848,-0.59472 m -13.1688,16.73712 V 156.588 l 7.56144,-1.52928 v 14.0184 l -7.56144,1.61424"
     class="Accidental" />
  <path
     style="stroke-width:0.8496"
     id="path21920"
     d="m 283.36836,126.17232 c -0.16992,-0.16992 -0.4248,-0.25488 -0.67968,-0.25488 -0.085,0 -0.25488,0.085 -0.33984,0.085 l -10.70496,2.9736 V 114.108 H 269.265 v 42.0552 c 0,0.67968 0.50976,1.10448 1.18944,1.10448 h 0.33984 l 10.70496,-2.9736 v 14.868 h 2.29392 v -42.0552 c 0,-0.33984 -0.16992,-0.76464 -0.4248,-0.93456 m -1.86912,21.07008 -9.85536,2.71872 v -13.93344 l 9.85536,-2.80368 v 14.0184"
     class="Accidental" />
  <path
     style="stroke-width:0.8496"
     id="path21922"
     d="m 343.93268,122.09424 c 0.50976,-0.085 0.93456,-0.67968 0.93456,-1.18944 v -5.01264 c 0,-0.67968 -0.50976,-1.18944 -1.18944,-1.18944 h -0.16992 l -2.80368,0.59472 V 102.6384 h -2.37888 v 13.1688 l -7.56144,1.52928 V 105.35712 H 328.385 v 12.48912 l -3.31344,0.67968 c -0.50976,0.085 -0.93456,0.67968 -0.93456,1.18944 v 0.16992 4.92768 -0.16992 c 0,0.67968 0.50976,1.18944 1.18944,1.18944 h 0.25488 l 2.80368,-0.59472 v 14.0184 l -3.31344,0.67968 c -0.50976,0.085 -0.93456,0.67968 -0.93456,1.18944 v 4.92768 c 0,0.67968 0.50976,1.18944 1.18944,1.18944 h 0.25488 l 2.80368,-0.59472 v 12.65904 h 2.37888 v -13.1688 l 7.56144,-1.52928 V 156.588 h 2.37888 v -12.48912 l 3.22848,-0.59472 c 0.50976,-0.085 0.93456,-0.67968 0.93456,-1.18944 v -5.01264 c 0,-0.67968 -0.50976,-1.18944 -1.18944,-1.18944 h -0.16992 l -2.80368,0.59472 v -14.0184 l 3.22848,-0.59472 m -13.1688,16.73712 V 124.728 l 7.56144,-1.52928 v 14.0184 l -7.56144,1.61424"
     class="Accidental" />
  <path
     style="stroke-width:0.8496"
     id="path21924"
     d="m 987.55336,73.07232 c -0.16992,-0.16992 -0.4248,-0.25488 -0.67968,-0.25488 -0.085,0 -0.25488,0.08496 -0.33984,0.08496 L 975.82888,75.876 V 61.008 H 973.45 v 42.0552 c 0,0.67968 0.50976,1.10448 1.18944,1.10448 h 0.33984 l 10.70496,-2.9736 v 14.868 h 2.29392 v -42.0552 c 0,-0.33984 -0.16992,-0.76464 -0.4248,-0.93456 m -1.86912,21.07008 -9.85536,2.71872 V 82.92768 l 9.85536,-2.80368 v 14.0184"
     class="Accidental" />
  <path
     style="stroke-width:0.8496"
     id="path21926"
     d="m 1093.417,60.66816 c -0.5098,-3.31344 -2.5488,-6.45696 -6.8818,-6.45696 -4.248,0 -6.7118,2.63376 -7.1366,3.14352 l 0.3398,-27.27216 c 0,-0.67968 -0.5098,-1.18944 -1.1894,-1.18944 h -1.0196 c -0.6796,0 -1.1894,0.50976 -1.1894,1.18944 l 0.4248,51.06096 c 0,0.67968 0.5098,1.18944 1.1894,1.18944 0.17,0 0.5098,-0.08496 0.6797,-0.16992 0.3399,-0.16992 5.8623,-2.88864 10.4501,-8.0712 3.2285,-3.65328 4.5029,-7.81632 4.5029,-11.29968 0,-0.76464 -0.085,-1.44432 -0.1699,-2.124 m -5.8623,3.31344 c 0,1.2744 -0.3398,5.18256 -2.4638,8.41104 -1.4443,2.20896 -4.333,4.50288 -5.9472,5.77728 l 0.2549,-16.5672 c 0.1699,-0.76464 1.4443,-3.22848 4.8427,-3.22848 3.0585,0 3.3134,2.88864 3.3134,4.6728 v 0.93456"
     class="Accidental" />
  <path
     style="stroke-width:0.8496"
     id="path21928"
     d="m 1886.8257,47.75424 c 0.5097,-0.08496 0.9345,-0.67968 0.9345,-1.18944 v -5.01264 c 0,-0.67968 -0.5097,-1.18944 -1.1894,-1.18944 h -0.1699 l -2.8037,0.59472 V 28.2984 h -2.3789 v 13.1688 l -7.5614,1.52928 V 31.01712 h -2.3789 v 12.48912 l -3.3134,0.67968 c -0.5098,0.08496 -0.9346,0.67968 -0.9346,1.18944 v 0.16992 4.92768 -0.16992 c 0,0.67968 0.5098,1.18944 1.1894,1.18944 h 0.2549 l 2.8037,-0.59472 v 14.0184 l -3.3134,0.67968 c -0.5098,0.08496 -0.9346,0.67968 -0.9346,1.18944 v 4.92768 c 0,0.67968 0.5098,1.18944 1.1894,1.18944 h 0.2549 l 2.8037,-0.59472 v 12.65904 h 2.3789 v -13.1688 l 7.5614,-1.52928 V 82.248 h 2.3789 V 69.75888 l 3.2285,-0.59472 c 0.5097,-0.08496 0.9345,-0.67968 0.9345,-1.18944 v -5.01264 c 0,-0.67968 -0.5097,-1.18944 -1.1894,-1.18944 h -0.1699 l -2.8037,0.59472 v -14.0184 l 3.2285,-0.59472 m -13.1688,16.73712 V 50.388 l 7.5614,-1.52928 v 14.0184 l -7.5614,1.61424"
     class="Accidental" />
  <polyline
     transform="translate(-360,-1015.79)"
     id="polyline21950"
     points="1391.1,1093.79 1433.58,1093.79"
     stroke-linejoin="bevel"
     stroke-width="3.4"
     stroke="#000000"
     class="LedgerLine" />
  <polyline
     transform="translate(-360,-1015.79)"
     id="polyline21952"
     points="1458.89,1093.79 1501.36,1093.79"
     stroke-linejoin="bevel"
     stroke-width="3.4"
     stroke="#000000"
     class="LedgerLine" />
  <polyline
     transform="translate(-360,-1015.79)"
     id="polyline21954"
     points="2136.48,1093.79 2178.95,1093.79"
     stroke-linejoin="bevel"
     stroke-width="3.4"
     stroke="#000000"
     class="LedgerLine" />
  <polyline
     transform="translate(-360,-1015.79)"
     id="polyline21956"
     points="2181.79,1093.79 2224.27,1093.79"
     stroke-linejoin="bevel"
     stroke-width="3.4"
     stroke="#000000"
     class="LedgerLine" />
  <polyline
     transform="translate(-360,-1015.79)"
     id="polyline21958"
     points="2181.79,1072.55 2224.27,1072.55"
     stroke-linejoin="bevel"
     stroke-width="3.4"
     stroke="#000000"
     class="LedgerLine" />
  <polyline
     transform="translate(-360,-1015.79)"
     id="polyline21960"
     points="2253.07,1093.79 2295.54,1093.79"
     stroke-linejoin="bevel"
     stroke-width="3.4"
     stroke="#000000"
     class="LedgerLine" />
  <polyline
     transform="translate(-360,-1015.79)"
     id="polyline21962"
     points="2253.07,1072.55 2295.54,1072.55"
     stroke-linejoin="bevel"
     stroke-width="3.4"
     stroke="#000000"
     class="LedgerLine" />
  <polyline
     transform="translate(-360,-1015.79)"
     id="polyline21964"
     points="2298.38,1093.79 2340.85,1093.79"
     stroke-linejoin="bevel"
     stroke-width="3.4"
     stroke="#000000"
     class="LedgerLine" />
  <polyline
     transform="translate(-360,-1015.79)"
     id="polyline21966"
     points="2298.38,1072.55 2340.85,1072.55"
     stroke-linejoin="bevel"
     stroke-width="3.4"
     stroke="#000000"
     class="LedgerLine" />
  <polyline
     transform="translate(-360,-1015.79)"
     id="polyline21968"
     points="2343.69,1093.79 2386.17,1093.79"
     stroke-linejoin="bevel"
     stroke-width="3.4"
     stroke="#000000"
     class="LedgerLine" />
  <polyline
     transform="translate(-360,-1015.79)"
     id="polyline22068"
     points="550.144,1181.6 550.144,1242.47"
     stroke-linejoin="bevel"
     stroke-width="2.34"
     stroke="#000000"
     class="Stem" />
  <polyline
     transform="translate(-360,-1015.79)"
     id="polyline22070"
     points="595.394,1170.98 595.394,1237.69"
     stroke-linejoin="bevel"
     stroke-width="2.34"
     stroke="#000000"
     class="Stem" />
  <polyline
     transform="translate(-360,-1015.79)"
     id="polyline22072"
     points="650.266,1160.36 650.266,1231.9"
     stroke-linejoin="bevel"
     stroke-width="2.34"
     stroke="#000000"
     class="Stem" />
  <polyline
     transform="translate(-360,-1015.79)"
     id="polyline22074"
     points="711.344,1149.74 711.344,1225.46"
     stroke-linejoin="bevel"
     stroke-width="2.34"
     stroke="#000000"
     class="Stem" />
  <polyline
     transform="translate(-360,-1015.79)"
     id="polyline22076"
     points="756.593,1139.12 756.593,1220.69"
     stroke-linejoin="bevel"
     stroke-width="2.34"
     stroke="#000000"
     class="Stem" />
  <polyline
     transform="translate(-360,-1015.79)"
     id="polyline22078"
     points="801.842,1128.5 801.842,1215.92"
     stroke-linejoin="bevel"
     stroke-width="2.34"
     stroke="#000000"
     class="Stem" />
  <polyline
     transform="translate(-360,-1015.79)"
     id="polyline22080"
     points="847.092,1117.88 847.092,1215.92"
     stroke-linejoin="bevel"
     stroke-width="2.34"
     stroke="#000000"
     class="Stem" />
  <polyline
     transform="translate(-360,-1015.79)"
     id="polyline22082"
     points="892.341,1128.5 892.341,1221.23"
     stroke-linejoin="bevel"
     stroke-width="2.34"
     stroke="#000000"
     class="Stem" />
  <polyline
     transform="translate(-360,-1015.79)"
     id="polyline22084"
     points="937.59,1139.12 937.59,1226.54"
     stroke-linejoin="bevel"
     stroke-width="2.34"
     stroke="#000000"
     class="Stem" />
  <polyline
     transform="translate(-360,-1015.79)"
     id="polyline22086"
     points="982.839,1149.74 982.839,1231.85"
     stroke-linejoin="bevel"
     stroke-width="2.34"
     stroke="#000000"
     class="Stem" />
  <polyline
     transform="translate(-360,-1015.79)"
     id="polyline22088"
     points="1028.09,1139.12 1028.09,1237.16"
     stroke-linejoin="bevel"
     stroke-width="2.34"
     stroke="#000000"
     class="Stem" />
  <polyline
     transform="translate(-360,-1015.79)"
     id="polyline22090"
     points="1073.34,1181.6 1073.34,1242.47"
     stroke-linejoin="bevel"
     stroke-width="2.34"
     stroke="#000000"
     class="Stem" />
  <polyline
     transform="translate(-360,-1015.79)"
     id="polyline22092"
     points="1118.59,1170.98 1118.59,1237.16"
     stroke-linejoin="bevel"
     stroke-width="2.34"
     stroke="#000000"
     class="Stem" />
  <polyline
     transform="translate(-360,-1015.79)"
     id="polyline22094"
     points="1163.84,1149.74 1163.84,1230.03"
     stroke-linejoin="bevel"
     stroke-width="2.34"
     stroke="#000000"
     class="Stem" />
  <polyline
     transform="translate(-360,-1015.79)"
     id="polyline22096"
     points="1209.09,1139.12 1209.09,1222.89"
     stroke-linejoin="bevel"
     stroke-width="2.34"
     stroke="#000000"
     class="Stem" />
  <polyline
     transform="translate(-360,-1015.79)"
     id="polyline22098"
     points="1254.33,1128.5 1254.33,1215.76"
     stroke-linejoin="bevel"
     stroke-width="2.34"
     stroke="#000000"
     class="Stem" />
  <polyline
     transform="translate(-360,-1015.79)"
     id="polyline22100"
     points="1299.58,1117.88 1299.58,1208.63"
     stroke-linejoin="bevel"
     stroke-width="2.34"
     stroke="#000000"
     class="Stem" />
  <polyline
     transform="translate(-360,-1015.79)"
     id="polyline22102"
     points="1354.46,1107.26 1354.46,1199.99"
     stroke-linejoin="bevel"
     stroke-width="2.34"
     stroke="#000000"
     class="Stem" />
  <polyline
     transform="translate(-360,-1015.79)"
     id="polyline22104"
     points="1399.7,1096.64 1399.7,1194.68"
     stroke-linejoin="bevel"
     stroke-width="2.34"
     stroke="#000000"
     class="Stem" />
  <polyline
     transform="translate(-360,-1015.79)"
     id="polyline22106"
     points="1467.49,1086.02 1467.49,1201.91"
     stroke-linejoin="bevel"
     stroke-width="2.34"
     stroke="#000000"
     class="Stem" />
  <polyline
     transform="translate(-360,-1015.79)"
     id="polyline22108"
     points="1512.74,1128.5 1512.74,1206.74"
     stroke-linejoin="bevel"
     stroke-width="2.34"
     stroke="#000000"
     class="Stem" />
  <polyline
     transform="translate(-360,-1015.79)"
     id="polyline22110"
     points="1557.99,1117.88 1557.99,1211.57"
     stroke-linejoin="bevel"
     stroke-width="2.34"
     stroke="#000000"
     class="Stem" />
  <polyline
     transform="translate(-360,-1015.79)"
     id="polyline22112"
     points="1603.24,1107.26 1603.24,1216.4"
     stroke-linejoin="bevel"
     stroke-width="2.34"
     stroke="#000000"
     class="Stem" />
  <polyline
     transform="translate(-360,-1015.79)"
     id="polyline22114"
     points="1648.49,1149.74 1648.49,1221.23"
     stroke-linejoin="bevel"
     stroke-width="2.34"
     stroke="#000000"
     class="Stem" />
  <polyline
     transform="translate(-360,-1015.79)"
     id="polyline22116"
     points="1762.54,1133.55 1762.54,1056.62"
     stroke-linejoin="bevel"
     stroke-width="2.34"
     stroke="#000000"
     class="Stem" />
  <polyline
     transform="translate(-360,-1015.79)"
     id="polyline22118"
     points="1807.85,1207.89 1807.85,1055.55"
     stroke-linejoin="bevel"
     stroke-width="2.34"
     stroke="#000000"
     class="Stem" />
  <polyline
     transform="translate(-360,-1015.79)"
     id="polyline22120"
     points="1853.16,1186.65 1853.16,1054.49"
     stroke-linejoin="bevel"
     stroke-width="2.34"
     stroke="#000000"
     class="Stem" />
  <polyline
     transform="translate(-360,-1015.79)"
     id="polyline22122"
     points="1898.47,1165.41 1898.47,1053.43"
     stroke-linejoin="bevel"
     stroke-width="2.34"
     stroke="#000000"
     class="Stem" />
  <polyline
     transform="translate(-360,-1015.79)"
     id="polyline22124"
     points="1943.79,1133.55 1943.79,1052.37"
     stroke-linejoin="bevel"
     stroke-width="2.34"
     stroke="#000000"
     class="Stem" />
  <polyline
     transform="translate(-360,-1015.79)"
     id="polyline22126"
     points="1989.1,1122.93 1989.1,1051.31"
     stroke-linejoin="bevel"
     stroke-width="2.34"
     stroke="#000000"
     class="Stem" />
  <polyline
     transform="translate(-360,-1015.79)"
     id="polyline22128"
     points="2009.14,1117.88 2009.14,1199.99"
     stroke-linejoin="bevel"
     stroke-width="2.34"
     stroke="#000000"
     class="Stem" />
  <polyline
     transform="translate(-360,-1015.79)"
     id="polyline22130"
     points="2054.46,1139.12 2054.46,1199.99"
     stroke-linejoin="bevel"
     stroke-width="2.34"
     stroke="#000000"
     class="Stem" />
  <polyline
     transform="translate(-360,-1015.79)"
     id="polyline22132"
     points="2099.77,1117.88 2099.77,1199.99"
     stroke-linejoin="bevel"
     stroke-width="2.34"
     stroke="#000000"
     class="Stem" />
  <polyline
     transform="translate(-360,-1015.79)"
     id="polyline22134"
     points="2145.08,1096.64 2145.08,1199.99"
     stroke-linejoin="bevel"
     stroke-width="2.34"
     stroke="#000000"
     class="Stem" />
  <polyline
     transform="translate(-360,-1015.79)"
     id="polyline22136"
     points="2190.4,1064.78 2190.4,1199.99"
     stroke-linejoin="bevel"
     stroke-width="2.34"
     stroke="#000000"
     class="Stem" />
  <polyline
     transform="translate(-360,-1015.79)"
     id="polyline22138"
     points="2261.67,1075.4 2261.67,1199.99"
     stroke-linejoin="bevel"
     stroke-width="2.34"
     stroke="#000000"
     class="Stem" />
  <polyline
     transform="translate(-360,-1015.79)"
     id="polyline22140"
     points="2306.98,1064.78 2306.98,1221.23"
     stroke-linejoin="bevel"
     stroke-width="2.34"
     stroke="#000000"
     class="Stem" />
  <polyline
     transform="translate(-360,-1015.79)"
     id="polyline22142"
     points="2352.29,1096.64 2352.29,1228.66"
     stroke-linejoin="bevel"
     stroke-width="2.34"
     stroke="#000000"
     class="Stem" />
  <polyline
     transform="translate(-360,-1015.79)"
     id="polyline22144"
     points="2397.61,1117.88 2397.61,1236.09"
     stroke-linejoin="bevel"
     stroke-width="2.34"
     stroke="#000000"
     class="Stem" />
  <polyline
     transform="translate(-360,-1015.79)"
     id="polyline22146"
     points="2442.92,1139.12 2442.92,1243.53"
     stroke-linejoin="bevel"
     stroke-width="2.34"
     stroke="#000000"
     class="Stem" />
  <polyline
     transform="translate(-360,-1015.79)"
     id="polyline22148"
     points="2488.23,1170.98 2488.23,1250.96"
     stroke-linejoin="bevel"
     stroke-width="2.34"
     stroke="#000000"
     class="Stem" />
  <polyline
     transform="translate(-360,-1015.79)"
     id="polyline22150"
     points="2533.55,1192.22 2533.55,1258.4"
     stroke-linejoin="bevel"
     stroke-width="2.34"
     stroke="#000000"
     class="Stem" />
  <polyline
     transform="translate(-360,-1015.79)"
     id="polyline22152"
     points="2604.13,1207.89 2604.13,1136.27"
     stroke-linejoin="bevel"
     stroke-width="2.34"
     stroke="#000000"
     class="Stem" />
  <path
     style="stroke-width:0.8496"
     id="path22252"
     d="m 215.7384,156.07824 c -1.52928,-2.80368 -4.75776,-4.33296 -8.66592,-4.33296 -2.88864,0 -6.03216,0.8496 -9.09072,2.46384 -5.60736,2.9736 -9.00576,7.98624 -9.00576,12.3192 0,1.18944 0.25488,2.37888 0.8496,3.48336 1.52928,2.80368 4.75776,4.248 8.66592,4.248 2.88864,0 6.03216,-0.76464 9.09072,-2.37888 5.60736,-2.9736 9.00576,-7.98624 9.00576,-12.3192 0,-1.18944 -0.25488,-2.37888 -0.8496,-3.48336"
     class="Note" />
  <path
     style="stroke-width:0.8496"
     id="path22254"
     d="m 260.9874,145.45824 c -1.52928,-2.80368 -4.75776,-4.33296 -8.66592,-4.33296 -2.88864,0 -6.03216,0.8496 -9.09072,2.46384 -5.60736,2.9736 -9.00576,7.98624 -9.00576,12.3192 0,1.18944 0.25488,2.37888 0.8496,3.48336 1.52928,2.80368 4.75776,4.248 8.66592,4.248 2.88864,0 6.03216,-0.76464 9.09072,-2.37888 5.60736,-2.9736 9.00576,-7.98624 9.00576,-12.3192 0,-1.18944 -0.25488,-2.37888 -0.8496,-3.48336"
     class="Note" />
  <path
     style="stroke-width:0.8496"
     id="path22256"
     d="m 315.8604,134.83824 c -1.52928,-2.80368 -4.75776,-4.33296 -8.66592,-4.33296 -2.88864,0 -6.03216,0.8496 -9.09072,2.46384 -5.60736,2.9736 -9.00576,7.98624 -9.00576,12.3192 0,1.18944 0.25488,2.37888 0.8496,3.48336 1.52928,2.80368 4.75776,4.248 8.66592,4.248 2.88864,0 6.03216,-0.76464 9.09072,-2.37888 5.60736,-2.9736 9.00576,-7.98624 9.00576,-12.3192 0,-1.18944 -0.25488,-2.37888 -0.8496,-3.48336"
     class="Note" />
  <path
     style="stroke-width:0.8496"
     id="path22258"
     d="m 376.9384,124.21824 c -1.52928,-2.80368 -4.75776,-4.33296 -8.66592,-4.33296 -2.88864,0 -6.03216,0.8496 -9.09072,2.46384 -5.60736,2.9736 -9.00576,7.98624 -9.00576,12.3192 0,1.18944 0.25488,2.37888 0.8496,3.48336 1.52928,2.80368 4.75776,4.248 8.66592,4.248 2.88864,0 6.03216,-0.76464 9.09072,-2.37888 5.60736,-2.9736 9.00576,-7.98624 9.00576,-12.3192 0,-1.18944 -0.25488,-2.37888 -0.8496,-3.48336"
     class="Note" />
  <path
     style="stroke-width:0.8496"
     id="path22260"
     d="m 422.1874,113.59824 c -1.52928,-2.80368 -4.75776,-4.33296 -8.66592,-4.33296 -2.88864,0 -6.03216,0.8496 -9.09072,2.46384 -5.60736,2.9736 -9.00576,7.98624 -9.00576,12.3192 0,1.18944 0.25488,2.37888 0.8496,3.48336 1.52928,2.80368 4.75776,4.248 8.66592,4.248 2.88864,0 6.03216,-0.76464 9.09072,-2.37888 5.60736,-2.9736 9.00576,-7.98624 9.00576,-12.3192 0,-1.18944 -0.25488,-2.37888 -0.8496,-3.48336"
     class="Note" />
  <path
     style="stroke-width:0.8496"
     id="path22262"
     d="m 467.4364,102.97824 c -1.52928,-2.80368 -4.75776,-4.33296 -8.66592,-4.33296 -2.88864,0 -6.03216,0.8496 -9.09072,2.46384 -5.60736,2.9736 -9.00576,7.98624 -9.00576,12.3192 0,1.18944 0.25488,2.37888 0.8496,3.48336 1.52928,2.80368 4.75776,4.248 8.66592,4.248 2.88864,0 6.03216,-0.76464 9.09072,-2.37888 5.60736,-2.9736 9.00576,-7.98624 9.00576,-12.3192 0,-1.18944 -0.25488,-2.37888 -0.8496,-3.48336"
     class="Note" />
  <path
     style="stroke-width:0.8496"
     id="path22264"
     d="m 512.6854,92.35824 c -1.52928,-2.80368 -4.75776,-4.33296 -8.66592,-4.33296 -2.88864,0 -6.03216,0.8496 -9.09072,2.46384 -5.60736,2.9736 -9.00576,7.98624 -9.00576,12.3192 0,1.18944 0.25488,2.37888 0.8496,3.48336 1.52928,2.80368 4.75776,4.248 8.66592,4.248 2.88864,0 6.03216,-0.76464 9.09072,-2.37888 5.60736,-2.9736 9.00576,-7.98624 9.00576,-12.3192 0,-1.18944 -0.25488,-2.37888 -0.8496,-3.48336"
     class="Note" />
  <path
     style="stroke-width:0.8496"
     id="path22266"
     d="m 557.9354,102.97824 c -1.52928,-2.80368 -4.75776,-4.33296 -8.66592,-4.33296 -2.88864,0 -6.03216,0.8496 -9.09072,2.46384 -5.60736,2.9736 -9.00576,7.98624 -9.00576,12.3192 0,1.18944 0.25488,2.37888 0.8496,3.48336 1.52928,2.80368 4.75776,4.248 8.66592,4.248 2.88864,0 6.03216,-0.76464 9.09072,-2.37888 5.60736,-2.9736 9.00576,-7.98624 9.00576,-12.3192 0,-1.18944 -0.25488,-2.37888 -0.8496,-3.48336"
     class="Note" />
  <path
     style="stroke-width:0.8496"
     id="path22268"
     d="m 603.1844,113.59824 c -1.52928,-2.80368 -4.75776,-4.33296 -8.66592,-4.33296 -2.88864,0 -6.03216,0.8496 -9.09072,2.46384 -5.60736,2.9736 -9.00576,7.98624 -9.00576,12.3192 0,1.18944 0.25488,2.37888 0.8496,3.48336 1.52928,2.80368 4.75776,4.248 8.66592,4.248 2.88864,0 6.03216,-0.76464 9.09072,-2.37888 5.60736,-2.9736 9.00576,-7.98624 9.00576,-12.3192 0,-1.18944 -0.25488,-2.37888 -0.8496,-3.48336"
     class="Note" />
  <path
     style="stroke-width:0.8496"
     id="path22270"
     d="m 648.4334,124.21824 c -1.52928,-2.80368 -4.75776,-4.33296 -8.66592,-4.33296 -2.88864,0 -6.03216,0.8496 -9.09072,2.46384 -5.60736,2.9736 -9.00576,7.98624 -9.00576,12.3192 0,1.18944 0.25488,2.37888 0.8496,3.48336 1.52928,2.80368 4.75776,4.248 8.66592,4.248 2.88864,0 6.03216,-0.76464 9.09072,-2.37888 5.60736,-2.9736 9.00576,-7.98624 9.00576,-12.3192 0,-1.18944 -0.25488,-2.37888 -0.8496,-3.48336"
     class="Note" />
  <path
     style="stroke-width:0.8496"
     id="path22272"
     d="m 693.6824,113.59824 c -1.52928,-2.80368 -4.75776,-4.33296 -8.66592,-4.33296 -2.88864,0 -6.03216,0.8496 -9.09072,2.46384 -5.60736,2.9736 -9.00576,7.98624 -9.00576,12.3192 0,1.18944 0.25488,2.37888 0.8496,3.48336 1.52928,2.80368 4.75776,4.248 8.66592,4.248 2.88864,0 6.03216,-0.76464 9.09072,-2.37888 5.60736,-2.9736 9.00576,-7.98624 9.00576,-12.3192 0,-1.18944 -0.25488,-2.37888 -0.8496,-3.48336"
     class="Note" />
  <path
     style="stroke-width:0.8496"
     id="path22274"
     d="m 738.9324,156.07824 c -1.52928,-2.80368 -4.75776,-4.33296 -8.66592,-4.33296 -2.88864,0 -6.03216,0.8496 -9.09072,2.46384 -5.60736,2.9736 -9.00576,7.98624 -9.00576,12.3192 0,1.18944 0.25488,2.37888 0.8496,3.48336 1.52928,2.80368 4.75776,4.248 8.66592,4.248 2.88864,0 6.03216,-0.76464 9.09072,-2.37888 5.60736,-2.9736 9.00576,-7.98624 9.00576,-12.3192 0,-1.18944 -0.25488,-2.37888 -0.8496,-3.48336"
     class="Note" />
  <path
     style="stroke-width:0.8496"
     id="path22276"
     d="m 784.1824,145.45824 c -1.52928,-2.80368 -4.75776,-4.33296 -8.66592,-4.33296 -2.88864,0 -6.03216,0.8496 -9.09072,2.46384 -5.60736,2.9736 -9.00576,7.98624 -9.00576,12.3192 0,1.18944 0.25488,2.37888 0.8496,3.48336 1.52928,2.80368 4.75776,4.248 8.66592,4.248 2.88864,0 6.03216,-0.76464 9.09072,-2.37888 5.60736,-2.9736 9.00576,-7.98624 9.00576,-12.3192 0,-1.18944 -0.25488,-2.37888 -0.8496,-3.48336"
     class="Note" />
  <path
     style="stroke-width:0.8496"
     id="path22278"
     d="m 829.4324,124.21824 c -1.52928,-2.80368 -4.75776,-4.33296 -8.66592,-4.33296 -2.88864,0 -6.03216,0.8496 -9.09072,2.46384 -5.60736,2.9736 -9.00576,7.98624 -9.00576,12.3192 0,1.18944 0.25488,2.37888 0.8496,3.48336 1.52928,2.80368 4.75776,4.248 8.66592,4.248 2.88864,0 6.03216,-0.76464 9.09072,-2.37888 5.60736,-2.9736 9.00576,-7.98624 9.00576,-12.3192 0,-1.18944 -0.25488,-2.37888 -0.8496,-3.48336"
     class="Note" />
  <path
     style="stroke-width:0.8496"
     id="path22280"
     d="m 874.6824,113.59824 c -1.52928,-2.80368 -4.75776,-4.33296 -8.66592,-4.33296 -2.88864,0 -6.03216,0.8496 -9.09072,2.46384 -5.60736,2.9736 -9.00576,7.98624 -9.00576,12.3192 0,1.18944 0.25488,2.37888 0.8496,3.48336 1.52928,2.80368 4.75776,4.248 8.66592,4.248 2.88864,0 6.03216,-0.76464 9.09072,-2.37888 5.60736,-2.9736 9.00576,-7.98624 9.00576,-12.3192 0,-1.18944 -0.25488,-2.37888 -0.8496,-3.48336"
     class="Note" />
  <path
     style="stroke-width:0.8496"
     id="path22282"
     d="m 919.9324,102.97824 c -1.52928,-2.80368 -4.75776,-4.33296 -8.66592,-4.33296 -2.88864,0 -6.03216,0.8496 -9.09072,2.46384 -5.60736,2.9736 -9.00576,7.98624 -9.00576,12.3192 0,1.18944 0.25488,2.37888 0.8496,3.48336 1.52928,2.80368 4.75776,4.248 8.66592,4.248 2.88864,0 6.03216,-0.76464 9.09072,-2.37888 5.60736,-2.9736 9.00576,-7.98624 9.00576,-12.3192 0,-1.18944 -0.25488,-2.37888 -0.8496,-3.48336"
     class="Note" />
  <path
     style="stroke-width:0.8496"
     id="path22284"
     d="m 965.1824,92.35824 c -1.52928,-2.80368 -4.75776,-4.33296 -8.66592,-4.33296 -2.88864,0 -6.03216,0.8496 -9.09072,2.46384 -5.60736,2.9736 -9.00576,7.98624 -9.00576,12.3192 0,1.18944 0.25488,2.37888 0.8496,3.48336 1.52928,2.80368 4.75776,4.248 8.66592,4.248 2.88864,0 6.03216,-0.76464 9.09072,-2.37888 5.60736,-2.9736 9.00576,-7.98624 9.00576,-12.3192 0,-1.18944 -0.25488,-2.37888 -0.8496,-3.48336"
     class="Note" />
  <path
     style="stroke-width:0.8496"
     id="path22286"
     d="m 1020.0524,81.73824 c -1.5293,-2.80368 -4.7578,-4.33296 -8.6659,-4.33296 -2.8887,0 -6.0322,0.8496 -9.0907,2.46384 -5.6074,2.9736 -9.0058,7.98624 -9.0058,12.3192 0,1.18944 0.25488,2.37888 0.8496,3.48336 1.52928,2.80368 4.75776,4.248 8.6659,4.248 2.8887,0 6.0322,-0.76464 9.0907,-2.37888 5.6074,-2.9736 9.0058,-7.98624 9.0058,-12.3192 0,-1.18944 -0.2549,-2.37888 -0.8496,-3.48336"
     class="Note" />
  <path
     style="stroke-width:0.8496"
     id="path22288"
     d="m 1065.3024,71.11824 c -1.5293,-2.80368 -4.7578,-4.33296 -8.6659,-4.33296 -2.8887,0 -6.0322,0.8496 -9.0907,2.46384 -5.6074,2.9736 -9.0058,7.98624 -9.0058,12.3192 0,1.18944 0.2549,2.37888 0.8496,3.48336 1.5293,2.80368 4.7578,4.248 8.6659,4.248 2.8887,0 6.0322,-0.76464 9.0907,-2.37888 5.6074,-2.9736 9.0058,-7.98624 9.0058,-12.3192 0,-1.18944 -0.2549,-2.37888 -0.8496,-3.48336"
     class="Note" />
  <path
     style="stroke-width:0.8496"
     id="path22290"
     d="m 1133.0924,60.49824 c -1.5293,-2.80368 -4.7578,-4.33296 -8.6659,-4.33296 -2.8887,0 -6.0322,0.8496 -9.0907,2.46384 -5.6074,2.9736 -9.0058,7.98624 -9.0058,12.3192 0,1.18944 0.2549,2.37888 0.8496,3.48336 1.5293,2.80368 4.7578,4.248 8.6659,4.248 2.8887,0 6.0322,-0.76464 9.0907,-2.37888 5.6074,-2.9736 9.0058,-7.98624 9.0058,-12.3192 0,-1.18944 -0.2549,-2.37888 -0.8496,-3.48336"
     class="Note" />
  <path
     style="stroke-width:0.8496"
     id="path22292"
     d="m 1178.3324,102.97824 c -1.5293,-2.80368 -4.7578,-4.33296 -8.6659,-4.33296 -2.8887,0 -6.0322,0.8496 -9.0907,2.46384 -5.6074,2.9736 -9.0058,7.98624 -9.0058,12.3192 0,1.18944 0.2549,2.37888 0.8496,3.48336 1.5293,2.80368 4.7578,4.248 8.6659,4.248 2.8887,0 6.0322,-0.76464 9.0907,-2.37888 5.6074,-2.9736 9.0058,-7.98624 9.0058,-12.3192 0,-1.18944 -0.2549,-2.37888 -0.8496,-3.48336"
     class="Note" />
  <path
     style="stroke-width:0.8496"
     id="path22294"
     d="m 1223.5824,92.35824 c -1.5293,-2.80368 -4.7578,-4.33296 -8.6659,-4.33296 -2.8887,0 -6.0322,0.8496 -9.0907,2.46384 -5.6074,2.9736 -9.0058,7.98624 -9.0058,12.3192 0,1.18944 0.2549,2.37888 0.8496,3.48336 1.5293,2.80368 4.7578,4.248 8.6659,4.248 2.8887,0 6.0322,-0.76464 9.0907,-2.37888 5.6074,-2.9736 9.0058,-7.98624 9.0058,-12.3192 0,-1.18944 -0.2549,-2.37888 -0.8496,-3.48336"
     class="Note" />
  <path
     style="stroke-width:0.8496"
     id="path22296"
     d="m 1268.8324,81.73824 c -1.5293,-2.80368 -4.7578,-4.33296 -8.6659,-4.33296 -2.8887,0 -6.0322,0.8496 -9.0907,2.46384 -5.6074,2.9736 -9.0058,7.98624 -9.0058,12.3192 0,1.18944 0.2549,2.37888 0.8496,3.48336 1.5293,2.80368 4.7578,4.248 8.6659,4.248 2.8887,0 6.0322,-0.76464 9.0907,-2.37888 5.6074,-2.9736 9.0058,-7.98624 9.0058,-12.3192 0,-1.18944 -0.2549,-2.37888 -0.8496,-3.48336"
     class="Note" />
  <path
     style="stroke-width:0.8496"
     id="path22298"
     d="m 1314.0824,124.21824 c -1.5293,-2.80368 -4.7578,-4.33296 -8.6659,-4.33296 -2.8887,0 -6.0322,0.8496 -9.0907,2.46384 -5.6074,2.9736 -9.0058,7.98624 -9.0058,12.3192 0,1.18944 0.2549,2.37888 0.8496,3.48336 1.5293,2.80368 4.7578,4.248 8.6659,4.248 2.8887,0 6.0322,-0.76464 9.0907,-2.37888 5.6074,-2.9736 9.0058,-7.98624 9.0058,-12.3192 0,-1.18944 -0.2549,-2.37888 -0.8496,-3.48336"
     class="Note" />
  <path
     style="stroke-width:0.8496"
     id="path22300"
     d="m 1402.8624,113.59824 c -1.5293,-2.80368 -4.7578,-4.33296 -8.6659,-4.33296 -2.8887,0 -6.0322,0.8496 -9.0907,2.46384 -5.6074,2.9736 -9.0058,7.98624 -9.0058,12.3192 0,1.18944 0.2549,2.37888 0.8496,3.48336 1.5293,2.80368 4.7578,4.248 8.6659,4.248 2.8887,0 6.0322,-0.76464 9.0907,-2.37888 5.6074,-2.9736 9.0058,-7.98624 9.0058,-12.3192 0,-1.18944 -0.2549,-2.37888 -0.8496,-3.48336"
     class="Note" />
  <path
     style="stroke-width:0.8496"
     id="path22302"
     d="m 1448.1724,187.93824 c -1.5293,-2.80368 -4.7578,-4.33296 -8.6659,-4.33296 -2.8887,0 -6.0322,0.8496 -9.0907,2.46384 -5.6074,2.9736 -9.0058,7.98624 -9.0058,12.3192 0,1.18944 0.2549,2.37888 0.8496,3.48336 1.5293,2.80368 4.7578,4.248 8.6659,4.248 2.8887,0 6.0322,-0.76464 9.0907,-2.37888 5.6074,-2.9736 9.0058,-7.98624 9.0058,-12.3192 0,-1.18944 -0.2549,-2.37888 -0.8496,-3.48336"
     class="Note" />
  <path
     style="stroke-width:0.8496"
     id="path22304"
     d="m 1493.4824,166.69824 c -1.5293,-2.80368 -4.7578,-4.33296 -8.6659,-4.33296 -2.8887,0 -6.0322,0.8496 -9.0907,2.46384 -5.6074,2.9736 -9.0058,7.98624 -9.0058,12.3192 0,1.18944 0.2549,2.37888 0.8496,3.48336 1.5293,2.80368 4.7578,4.248 8.6659,4.248 2.8887,0 6.0322,-0.76464 9.0907,-2.37888 5.6074,-2.9736 9.0058,-7.98624 9.0058,-12.3192 0,-1.18944 -0.2549,-2.37888 -0.8496,-3.48336"
     class="Note" />
  <path
     style="stroke-width:0.8496"
     id="path22306"
     d="m 1538.8024,145.45824 c -1.5293,-2.80368 -4.7578,-4.33296 -8.6659,-4.33296 -2.8887,0 -6.0322,0.8496 -9.0907,2.46384 -5.6074,2.9736 -9.0058,7.98624 -9.0058,12.3192 0,1.18944 0.2549,2.37888 0.8496,3.48336 1.5293,2.80368 4.7578,4.248 8.6659,4.248 2.8887,0 6.0322,-0.76464 9.0907,-2.37888 5.6074,-2.9736 9.0058,-7.98624 9.0058,-12.3192 0,-1.18944 -0.2549,-2.37888 -0.8496,-3.48336"
     class="Note" />
  <path
     style="stroke-width:0.8496"
     id="path22308"
     d="m 1584.1124,113.59824 c -1.5293,-2.80368 -4.7578,-4.33296 -8.6659,-4.33296 -2.8887,0 -6.0322,0.8496 -9.0907,2.46384 -5.6074,2.9736 -9.0058,7.98624 -9.0058,12.3192 0,1.18944 0.2549,2.37888 0.8496,3.48336 1.5293,2.80368 4.7578,4.248 8.6659,4.248 2.8887,0 6.0322,-0.76464 9.0907,-2.37888 5.6074,-2.9736 9.0058,-7.98624 9.0058,-12.3192 0,-1.18944 -0.2549,-2.37888 -0.8496,-3.48336"
     class="Note" />
  <path
     style="stroke-width:0.8496"
     id="path22310"
     d="m 1629.4224,102.97824 c -1.5293,-2.80368 -4.7578,-4.33296 -8.6659,-4.33296 -2.8887,0 -6.0322,0.8496 -9.0907,2.46384 -5.6074,2.9736 -9.0058,7.98624 -9.0058,12.3192 0,1.18944 0.2549,2.37888 0.8496,3.48336 1.5293,2.80368 4.7578,4.248 8.6659,4.248 2.8887,0 6.0322,-0.76464 9.0907,-2.37888 5.6074,-2.9736 9.0058,-7.98624 9.0058,-12.3192 0,-1.18944 -0.2549,-2.37888 -0.8496,-3.48336"
     class="Note" />
  <path
     style="stroke-width:0.8496"
     id="path22312"
     d="m 1674.7424,92.35824 c -1.5293,-2.80368 -4.7578,-4.33296 -8.6659,-4.33296 -2.8887,0 -6.0322,0.8496 -9.0907,2.46384 -5.6074,2.9736 -9.0058,7.98624 -9.0058,12.3192 0,1.18944 0.2549,2.37888 0.8496,3.48336 1.5293,2.80368 4.7578,4.248 8.6659,4.248 2.8887,0 6.0322,-0.76464 9.0907,-2.37888 5.6074,-2.9736 9.0058,-7.98624 9.0058,-12.3192 0,-1.18944 -0.2549,-2.37888 -0.8496,-3.48336"
     class="Note" />
  <path
     style="stroke-width:0.8496"
     id="path22314"
     d="m 1720.0524,113.59824 c -1.5293,-2.80368 -4.7578,-4.33296 -8.6659,-4.33296 -2.8887,0 -6.0322,0.8496 -9.0907,2.46384 -5.6074,2.9736 -9.0058,7.98624 -9.0058,12.3192 0,1.18944 0.2549,2.37888 0.8496,3.48336 1.5293,2.80368 4.7578,4.248 8.6659,4.248 2.8887,0 6.0322,-0.76464 9.0907,-2.37888 5.6074,-2.9736 9.0058,-7.98624 9.0058,-12.3192 0,-1.18944 -0.2549,-2.37888 -0.8496,-3.48336"
     class="Note" />
  <path
     style="stroke-width:0.8496"
     id="path22316"
     d="m 1765.3624,92.35824 c -1.5293,-2.80368 -4.7578,-4.33296 -8.6659,-4.33296 -2.8887,0 -6.0322,0.8496 -9.0907,2.46384 -5.6074,2.9736 -9.0058,7.98624 -9.0058,12.3192 0,1.18944 0.2549,2.37888 0.8496,3.48336 1.5293,2.80368 4.7578,4.248 8.6659,4.248 2.8887,0 6.0322,-0.76464 9.0907,-2.37888 5.6074,-2.9736 9.0058,-7.98624 9.0058,-12.3192 0,-1.18944 -0.2549,-2.37888 -0.8496,-3.48336"
     class="Note" />
  <path
     style="stroke-width:0.8496"
     id="path22318"
     d="m 1810.6724,71.11824 c -1.5293,-2.80368 -4.7578,-4.33296 -8.6659,-4.33296 -2.8887,0 -6.0322,0.8496 -9.0907,2.46384 -5.6074,2.9736 -9.0058,7.98624 -9.0058,12.3192 0,1.18944 0.2549,2.37888 0.8496,3.48336 1.5293,2.80368 4.7578,4.248 8.6659,4.248 2.8887,0 6.0322,-0.76464 9.0907,-2.37888 5.6074,-2.9736 9.0058,-7.98624 9.0058,-12.3192 0,-1.18944 -0.2549,-2.37888 -0.8496,-3.48336"
     class="Note" />
  <path
     style="stroke-width:0.8496"
     id="path22320"
     d="m 1855.9924,39.25824 c -1.5293,-2.80368 -4.7578,-4.33296 -8.6659,-4.33296 -2.8887,0 -6.0322,0.8496 -9.0907,2.46384 -5.6074,2.9736 -9.0058,7.98624 -9.0058,12.3192 0,1.18944 0.2549,2.37888 0.8496,3.48336 1.5293,2.80368 4.7578,4.248 8.6659,4.248 2.8887,0 6.0322,-0.76464 9.0907,-2.37888 5.6074,-2.9736 9.0058,-7.98624 9.0058,-12.3192 0,-1.18944 -0.2549,-2.37888 -0.8496,-3.48336"
     class="Note" />
  <path
     style="stroke-width:0.8496"
     id="path22322"
     d="m 1927.2624,49.87824 c -1.5293,-2.80368 -4.7578,-4.33296 -8.6659,-4.33296 -2.8887,0 -6.0322,0.8496 -9.0907,2.46384 -5.6074,2.9736 -9.0058,7.98624 -9.0058,12.3192 0,1.18944 0.2549,2.37888 0.8496,3.48336 1.5293,2.80368 4.7578,4.248 8.6659,4.248 2.8887,0 6.0322,-0.76464 9.0907,-2.37888 5.6074,-2.9736 9.0058,-7.98624 9.0058,-12.3192 0,-1.18944 -0.2549,-2.37888 -0.8496,-3.48336"
     class="Note" />
  <path
     style="stroke-width:0.8496"
     id="path22324"
     d="m 1972.5724,39.25824 c -1.5293,-2.80368 -4.7578,-4.33296 -8.6659,-4.33296 -2.8887,0 -6.0322,0.8496 -9.0907,2.46384 -5.6074,2.9736 -9.0058,7.98624 -9.0058,12.3192 0,1.18944 0.2549,2.37888 0.8496,3.48336 1.5293,2.80368 4.7578,4.248 8.6659,4.248 2.8887,0 6.0322,-0.76464 9.0907,-2.37888 5.6074,-2.9736 9.0058,-7.98624 9.0058,-12.3192 0,-1.18944 -0.2549,-2.37888 -0.8496,-3.48336"
     class="Note" />
  <path
     style="stroke-width:0.8496"
     id="path22326"
     d="m 2017.8924,71.11824 c -1.5293,-2.80368 -4.7578,-4.33296 -8.6659,-4.33296 -2.8887,0 -6.0322,0.8496 -9.0907,2.46384 -5.6074,2.9736 -9.0058,7.98624 -9.0058,12.3192 0,1.18944 0.2549,2.37888 0.8496,3.48336 1.5293,2.80368 4.7578,4.248 8.6659,4.248 2.8887,0 6.0322,-0.76464 9.0907,-2.37888 5.6074,-2.9736 9.0058,-7.98624 9.0058,-12.3192 0,-1.18944 -0.2549,-2.37888 -0.8496,-3.48336"
     class="Note" />
  <path
     style="stroke-width:0.8496"
     id="path22328"
     d="m 2063.2024,92.35824 c -1.5293,-2.80368 -4.7578,-4.33296 -8.6659,-4.33296 -2.8887,0 -6.0322,0.8496 -9.0907,2.46384 -5.6074,2.9736 -9.0058,7.98624 -9.0058,12.3192 0,1.18944 0.2549,2.37888 0.8496,3.48336 1.5293,2.80368 4.7578,4.248 8.6659,4.248 2.8887,0 6.0322,-0.76464 9.0907,-2.37888 5.6074,-2.9736 9.0058,-7.98624 9.0058,-12.3192 0,-1.18944 -0.2549,-2.37888 -0.8496,-3.48336"
     class="Note" />
  <path
     style="stroke-width:0.8496"
     id="path22330"
     d="m 2108.5124,113.59824 c -1.5293,-2.80368 -4.7578,-4.33296 -8.6659,-4.33296 -2.8887,0 -6.0322,0.8496 -9.0907,2.46384 -5.6074,2.9736 -9.0058,7.98624 -9.0058,12.3192 0,1.18944 0.2549,2.37888 0.8496,3.48336 1.5293,2.80368 4.7578,4.248 8.6659,4.248 2.8887,0 6.0322,-0.76464 9.0907,-2.37888 5.6074,-2.9736 9.0058,-7.98624 9.0058,-12.3192 0,-1.18944 -0.2549,-2.37888 -0.8496,-3.48336"
     class="Note" />
  <path
     style="stroke-width:0.8496"
     id="path22332"
     d="m 2153.8324,145.45824 c -1.5293,-2.80368 -4.7578,-4.33296 -8.6659,-4.33296 -2.8887,0 -6.0322,0.8496 -9.0907,2.46384 -5.6074,2.9736 -9.0058,7.98624 -9.0058,12.3192 0,1.18944 0.2549,2.37888 0.8496,3.48336 1.5293,2.80368 4.7578,4.248 8.6659,4.248 2.8887,0 6.0322,-0.76464 9.0907,-2.37888 5.6074,-2.9736 9.0058,-7.98624 9.0058,-12.3192 0,-1.18944 -0.2549,-2.37888 -0.8496,-3.48336"
     class="Note" />
  <path
     style="stroke-width:0.8496"
     id="path22334"
     d="m 2199.1424,166.69824 c -1.5293,-2.80368 -4.7578,-4.33296 -8.6659,-4.33296 -2.8887,0 -6.0322,0.8496 -9.0907,2.46384 -5.6074,2.9736 -9.0058,7.98624 -9.0058,12.3192 0,1.18944 0.2549,2.37888 0.8496,3.48336 1.5293,2.80368 4.7578,4.248 8.6659,4.248 2.8887,0 6.0322,-0.76464 9.0907,-2.37888 5.6074,-2.9736 9.0058,-7.98624 9.0058,-12.3192 0,-1.18944 -0.2549,-2.37888 -0.8496,-3.48336"
     class="Note" />
  <path
     style="stroke-width:0.8496"
     id="path22336"
     d="m 2244.4524,187.93824 c -1.5293,-2.80368 -4.7578,-4.33296 -8.6659,-4.33296 -2.8887,0 -6.0322,0.8496 -9.0907,2.46384 -5.6074,2.9736 -9.0058,7.98624 -9.0058,12.3192 0,1.18944 0.2549,2.37888 0.8496,3.48336 1.5293,2.80368 4.7578,4.248 8.6659,4.248 2.8887,0 6.0322,-0.76464 9.0907,-2.37888 5.6074,-2.9736 9.0058,-7.98624 9.0058,-12.3192 0,-1.18944 -0.2549,-2.37888 -0.8496,-3.48336"
     class="Note" />
  <path
     style="stroke-width:0.8496"
     id="path22340"
     d="m 70.81416,157.97292 c -1.045008,-4.6134 -3.287952,-7.85879 -3.95064,-8.74246 -2.710224,-3.62779 -6.11712,-6.04915 -10.101744,-7.19611 -2.642256,-0.75606 -5.191056,-0.8496 -7.247088,-0.69667 -0.883584,-5.1061 -1.733184,-10.10166 -2.50632,-14.73198 4.63032,-5.24212 7.705872,-10.1698 9.64296,-13.82308 2.948112,-5.59028 3.925152,-9.48145 3.967632,-9.65137 1.461312,-4.426498 1.767168,-10.968418 0.832608,-17.943549 -0.858096,-6.41448 -2.63376,-12.115381 -4.63032,-14.876581 -0.875088,-1.214928 -1.767168,-1.835136 -2.650752,-1.835136 -1.036512,0 -3.169008,1.053504 -5.624352,3.406896 -1.95408,1.86912 -4.732272,5.174064 -6.907248,10.28016 -2.5488,5.998261 -2.727216,14.06088 -2.429856,19.77019 0.322848,6.17659 1.265904,11.0109 1.2744,11.05338 0.01699,0.0764 0.237888,1.35078 0.620208,3.53425 -0.195408,0.19541 -0.399312,0.38232 -0.611712,0.58631 -0.883584,0.8496 -1.894608,1.81806 -3.067056,2.99051 -0.730656,0.73074 -1.537776,1.50379 -2.387376,2.3279 -7.17912,6.91583 -18.045504,17.38282 -18.045504,33.65266 0,3.99312 0.76464,7.74837 2.276911,11.15532 1.350898,3.05856 3.304978,5.84526 5.794289,8.28361 6.567408,6.41448 15.564672,9.14161 21.562848,9.00576 2.50632,-0.0595 4.740768,-0.26346 6.771312,-0.64578 1.554768,8.15616 2.523312,14.12885 2.557296,18.66571 0.03398,5.5309 -1.367856,8.90381 -4.681296,11.2572 -2.064528,1.46981 -4.451904,2.27693 -7.085664,2.40437 -2.200464,0.10195 -4.12056,-0.29736 -5.335488,-0.64561 h -0.0085 c 0,0 -0.246384,-0.068 -0.25488,-0.23789 -0.0085,-0.15301 0.288864,-0.19549 0.29736,-0.19549 h 0.01699 c 1.631232,-0.37374 4.664304,-1.41875 6.66936,-4.22243 1.52928,-2.14099 2.268432,-6.06623 0.705168,-9.41365 -0.943056,-2.03046 -3.075552,-4.53678 -7.850304,-4.9191 -2.115504,-0.16992 -4.044096,0.26329 -5.743296,1.28281 -1.537776,0.91757 -2.812176,2.31091 -3.704256,4.01011 -2.090016,3.99312 -1.6992,8.86133 0.960048,12.12388 2.514816,3.07555 6.439968,5.03804 11.053296,5.53081 0.72216,0.0766 1.44432,0.11045 2.16648,0.11045 3.763728,0 7.501968,-1.01952 10.53504,-2.89714 3.109536,-2.18347 4.910688,-5.56488 5.488416,-10.34804 0.475776,-3.94223 0.144432,-8.96328 -1.045008,-15.81964 -0.305856,-1.77566 -0.76464,-4.34995 -1.325376,-7.54436 4.8852,-1.63132 8.419536,-4.66439 11.622528,-9.63455 2.795184,-4.87663 3.593808,-10.0592 2.37888,-15.41167 m -29.064816,22.25095 c -3.942144,-1.03651 -7.705872,-3.16051 -10.900368,-6.13411 -1.112976,-1.04501 -2.701728,-2.88864 -3.95064,-5.76873 -1.163952,-2.68479 -1.724705,-5.5989 -1.682225,-8.64891 0.05949,-3.98466 1.172465,-8.07977 3.304961,-12.14927 2.480832,-4.74085 6.355008,-9.43914 11.503584,-13.96751 1.23192,-1.0874 2.395872,-2.17489 3.491856,-3.26246 0.645696,3.61938 1.350864,7.60392 2.098512,11.75005 -3.27096,1.07891 -7.30656,3.75515 -9.948816,8.55539 -3.007584,5.58189 -2.88864,10.2717 -2.268432,13.22829 0.798624,3.78927 2.948112,6.98373 5.887728,8.75944 0.790128,0.47569 4.298976,2.28534 5.86224,1.79257 0.314352,-0.10195 0.543744,-0.28886 0.662688,-0.56923 0.433296,-0.99403 -0.433296,-1.53769 -1.758672,-2.35339 -0.50976,-0.31428 -1.078992,-0.67113 -1.6992,-1.1214 -2.820672,-2.11554 -4.052592,-5.89626 -3.14352,-9.61749 0.492768,-2.03904 1.580256,-3.87423 3.14352,-5.31855 1.418832,-1.31688 3.152016,-2.25144 5.174064,-2.7951 1.733184,9.54942 3.48336,19.02246 4.876704,26.1252 0.110448,0.58614 0.229392,1.15537 0.33984,1.7246 -3.721248,0.79013 -7.417008,0.71375 -10.993824,-0.22939 m 9.617472,-28.18973 c 8.79336,-0.39931 12.421152,5.92177 13.177296,10.02532 0.399312,2.14947 0.390816,5.92173 -0.917568,9.49849 -0.994032,2.70173 -3.084048,6.1596 -7.442496,7.90986 -0.05947,-0.35683 -0.12744,-0.72216 -0.195408,-1.08757 -1.308384,-7.45092 -2.956608,-16.78806 -4.621824,-26.3461 M 45.147744,91.76352 c 1.512288,-4.876619 3.840192,-7.637819 5.530896,-9.107627 1.4868,-1.291392 2.88864,-1.894693 3.670272,-1.894693 0.118944,0 0.220896,0.01699 0.305856,0.04248 0.390816,0.118944 0.841104,0.603301 1.240416,1.342453 1.962576,3.644699 1.333872,9.3456 0.195408,13.117739 -1.384848,4.58784 -3.86568,9.362588 -11.34216,17.527248 -0.144432,-0.94306 -0.280368,-1.83514 -0.407808,-2.66766 -1.062,-7.04327 -0.790128,-13.21986 0.80712,-18.35994"
     class="Clef" />
  <path
     style="stroke-width:0.8496"
     id="path22344"
     d="m 109.66996,135.00816 c -0.50976,-3.31344 -2.5488,-6.45696 -6.88176,-6.45696 -4.248,0 -6.71184,2.63376 -7.13664,3.14352 l 0.33984,-27.27216 c 0,-0.67968 -0.50976,-1.18944 -1.18944,-1.18944 h -1.01952 c -0.67968,0 -1.18944,0.50976 -1.18944,1.18944 l 0.4248,51.06096 c 0,0.67968 0.50976,1.18944 1.18944,1.18944 0.16992,0 0.50976,-0.085 0.67968,-0.16992 0.33984,-0.16992 5.86224,-2.88864 10.45008,-8.0712 3.22848,-3.65328 4.50288,-7.81632 4.50288,-11.29968 0,-0.76464 -0.085,-1.44432 -0.16992,-2.124 m -5.86224,3.31344 c 0,1.2744 -0.33984,5.18256 -2.46384,8.41104 -1.44432,2.20896 -4.33296,4.50288 -5.9472,5.77728 l 0.25488,-16.5672 c 0.16992,-0.76464 1.44432,-3.22848 4.84272,-3.22848 3.05856,0 3.31344,2.88864 3.31344,4.6728 v 0.93456"
     class="KeySig" />
  <path
     id="path22378"
     d="m 188.976,221.34 254.035,-26.8 v 10.68 l -254.035,26.8 v -10.68"
     fill-rule="evenodd"
     class="Beam" />
  <path
     id="path22380"
     d="m 188.976,205.41 254.035,-26.8 v 10.68 l -254.035,26.8 v -10.68"
     fill-rule="evenodd"
     class="Beam" />
  <path
     id="path22382"
     d="M 485.923,194.78 714.51,221.6 v 10.7 L 485.923,205.47 v -10.69"
     fill-rule="evenodd"
     class="Beam" />
  <path
     id="path22384"
     d="m 485.923,178.85 228.587,26.82 v 10.7 L 485.923,189.54 v -10.69"
     fill-rule="evenodd"
     class="Beam" />
  <path
     id="path22386"
     d="m 757.42,215.99 238.2,-37.54 v 10.75 l -238.2,37.54 v -10.75"
     fill-rule="evenodd"
     class="Beam" />
  <path
     id="path22388"
     d="m 757.42,200.06 238.2,-37.54 v 10.75 l -238.2,37.54 v -10.75"
     fill-rule="evenodd"
     class="Beam" />
  <path
     id="path22390"
     d="m 1038.54,173.55 251.12,26.8 v 10.68 l -251.12,-26.8 v -10.68"
     fill-rule="evenodd"
     class="Beam" />
  <path
     id="path22392"
     d="m 1038.54,157.62 251.12,26.8 v 10.68 l -251.12,-26.8 v -10.68"
     fill-rule="evenodd"
     class="Beam" />
  <path
     id="path22394"
     d="m 1401.37,35.57 228.9,-5.37 v 10.63 l -228.9,5.36 V 35.57"
     fill-rule="evenodd"
     class="Beam" />
  <path
     id="path22396"
     d="m 1401.37,51.5 228.9,-5.37 v 10.63 l -228.9,5.36 V 51.5"
     fill-rule="evenodd"
     class="Beam" />
  <path
     id="path22398"
     d="m 1647.98,178.89 h 254.86 v 10.62 h -254.86 v -10.62"
     fill-rule="evenodd"
     class="Beam" />
  <path
     id="path22400"
     d="m 1647.98,162.96 h 254.86 v 10.62 h -254.86 v -10.62"
     fill-rule="evenodd"
     class="Beam" />
  <path
     id="path22402"
     d="m 1945.81,200.06 228.9,37.55 v 10.76 l -228.9,-37.55 v -10.76"
     fill-rule="evenodd"
     class="Beam" />
  <path
     id="path22404"
     d="m 1945.81,184.13 228.9,37.55 v 10.76 l -228.9,-37.55 v -10.76"
     fill-rule="evenodd"
     class="Beam" />
  <path
     id="path22464"
     d="m 205.853,64.65 -11.56,16.08 v 1.9 h 9.554 v 1.77 c 0,1.74 0,1.8 -0.204,2.11 -0.272,0.37 -0.918,0.48 -2.856,0.48 h -0.374 v 1.59 h 9.928 v -1.59 h -0.136 c -1.938,0 -2.584,-0.11 -2.856,-0.48 -0.204,-0.31 -0.204,-0.34 -0.204,-2.11 v -1.77 h 4.114 v -1.9 h -4.114 v -9.28 c 0,-4.25 0,-4.35 0.17,-6.8 h -1.462 m -2.006,16.08 h -7.48 l 7.48,-10.3 v 10.3"
     class="Fingering" />
  <path
     id="path22466"
     d="m 410.051,64.65 c -1.156,1.39 -4.284,2.45 -7.412,2.51 v 1.47 h 2.992 c 1.972,0.03 2.176,0.23 2.108,2.14 V 84.4 c 0,1.74 0,1.8 -0.204,2.11 -0.272,0.34 -0.918,0.48 -2.822,0.48 h -2.21 v 1.59 h 13.464 v -1.59 h -1.87 c -1.904,0 -2.55,-0.14 -2.822,-0.48 -0.238,-0.31 -0.238,-0.34 -0.238,-2.11 V 70.36 c 0,-1.9 0.068,-3.5 0.238,-5.71 h -1.224"
     class="Fingering" />
  <path
     id="path22468"
     d="m 500.425,27.47 -11.56,16.09 v 1.9 h 9.554 v 1.77 c 0,1.73 0,1.8 -0.204,2.11 -0.272,0.37 -0.918,0.47 -2.856,0.47 h -0.374 v 1.6 h 9.928 v -1.6 h -0.136 c -1.938,0 -2.584,-0.1 -2.856,-0.47 -0.204,-0.31 -0.204,-0.34 -0.204,-2.11 v -1.77 h 4.114 v -1.9 h -4.114 v -9.29 c 0,-4.25 0,-4.35 0.17,-6.8 h -1.462 m -2.006,16.09 h -7.48 l 7.48,-10.31 v 10.31"
     class="Fingering" />
  <path
     id="path22470"
     d="m 545.176,43.08 c 3.094,-1.12 4.522,-2.86 4.522,-5.58 0,-3.57 -2.72,-5.84 -6.936,-5.84 -3.978,0 -7.004,2.34 -7.004,5.44 0,1.39 0.918,2.38 2.244,2.38 1.19,0 2.006,-0.82 2.006,-2.04 0,-0.75 -0.272,-1.19 -1.054,-1.74 -0.34,-0.24 -0.442,-0.37 -0.442,-0.61 0,-0.95 1.972,-1.97 3.91,-1.97 2.448,0 3.74,1.53 3.74,4.42 0,3.16 -1.292,4.83 -3.706,4.83 -0.306,0 -0.884,-0.04 -1.394,-0.07 -0.272,-0.04 -0.544,-0.04 -0.748,-0.04 -0.714,0 -1.088,0.31 -1.088,0.92 0,0.58 0.34,0.85 1.088,0.85 0.204,0 0.476,0 0.782,-0.03 0.68,-0.04 1.224,-0.04 1.598,-0.04 2.516,0 3.876,1.81 3.876,5.17 0,3.54 -1.7,5.51 -4.76,5.51 -2.142,0 -4.454,-1.16 -4.454,-2.21 0,-0.31 0.068,-0.37 0.714,-0.75 0.952,-0.58 1.326,-1.15 1.326,-2 0,-1.23 -0.918,-2.15 -2.142,-2.15 -1.462,0 -2.414,1.19 -2.414,3 0,3.29 3.026,5.57 7.378,5.57 4.93,0 8.126,-2.72 8.126,-6.9 0,-3.2 -1.632,-5.13 -5.168,-6.12"
     class="Fingering" />
  <path
     id="path22472"
     d="m 569.876,31.93 -2.176,0.04 v 21.18 l -2.788,-7.14 -1.768,0.78 4.318,9.73 h 2.618 l 4.352,-9.73 -1.802,-0.78 -2.754,7.14 V 31.93 m 28.423,17.24 h -1.496 l -0.34,1.74 c -0.442,2.21 -0.714,2.41 -2.822,2.41 h -7.616 c 2.346,-2.45 3.128,-3.16 5.304,-4.86 3.094,-2.38 4.42,-3.57 5.202,-4.59 1.088,-1.5 1.632,-2.99 1.632,-4.66 0,-3.88 -3.196,-6.63 -7.65,-6.63 -4.318,0 -7.616,2.75 -7.616,6.39 0,2.14 1.088,3.61 2.686,3.61 1.258,0 2.108,-0.85 2.108,-2.08 0,-0.85 -0.476,-1.63 -1.19,-1.94 -1.258,-0.51 -1.326,-0.57 -1.326,-1.02 0,-0.51 0.34,-1.29 0.816,-1.87 0.85,-1.05 2.244,-1.63 3.842,-1.63 2.822,0 4.488,1.74 4.488,4.59 0,2.52 -1.19,4.8 -4.012,7.79 -2.516,2.65 -4.08,4.32 -4.658,4.96 -1.224,1.43 -1.836,2.21 -3.332,4.18 v 0.96 h 15.334 l 0.646,-7.35"
     class="Fingering" />
  <path
     id="path22474"
     d="m 636.297,34.96 c -1.156,1.39 -4.284,2.44 -7.412,2.51 v 1.46 h 2.992 c 1.972,0.04 2.176,0.24 2.108,2.15 v 13.63 c 0,1.73 0,1.8 -0.204,2.11 -0.272,0.34 -0.918,0.47 -2.822,0.47 h -2.21 v 1.6 h 13.461 v -1.6 h -1.87 c -1.901,0 -2.547,-0.13 -2.819,-0.47 -0.238,-0.31 -0.238,-0.34 -0.238,-2.11 V 40.67 c 0,-1.91 0.068,-3.5 0.238,-5.71 h -1.224"
     class="Fingering" />
  <path
     id="path22476"
     d="m 683.95,51.55 h -1.49 l -0.34,1.73 c -0.44,2.21 -0.72,2.42 -2.82,2.42 h -7.62 c 2.35,-2.45 3.13,-3.17 5.3,-4.87 3.1,-2.38 4.42,-3.57 5.21,-4.59 1.08,-1.49 1.63,-2.99 1.63,-4.65 0,-3.88 -3.2,-6.63 -7.65,-6.63 -4.32,0 -7.62,2.75 -7.62,6.39 0,2.14 1.09,3.6 2.69,3.6 1.26,0 2.11,-0.85 2.11,-2.07 0,-0.85 -0.48,-1.63 -1.19,-1.94 -1.26,-0.51 -1.33,-0.58 -1.33,-1.02 0,-0.51 0.34,-1.29 0.82,-1.87 0.85,-1.05 2.24,-1.63 3.84,-1.63 2.82,0 4.49,1.73 4.49,4.59 0,2.51 -1.19,4.79 -4.02,7.78 -2.51,2.66 -4.08,4.32 -4.65,4.97 -1.23,1.43 -1.84,2.21 -3.34,4.18 v 0.95 h 15.34 l 0.64,-7.34"
     class="Fingering" />
  <path
     id="path22478"
     d="m 727.36,72.01 c 3.09,-1.12 4.52,-2.86 4.52,-5.58 0,-3.57 -2.72,-5.84 -6.93,-5.84 -3.98,0 -7.01,2.34 -7.01,5.44 0,1.39 0.92,2.38 2.25,2.38 1.19,0 2,-0.82 2,-2.04 0,-0.75 -0.27,-1.19 -1.05,-1.74 -0.34,-0.24 -0.44,-0.37 -0.44,-0.61 0,-0.95 1.97,-1.97 3.91,-1.97 2.44,0 3.74,1.53 3.74,4.42 0,3.16 -1.3,4.83 -3.71,4.83 -0.31,0 -0.88,-0.04 -1.39,-0.07 -0.28,-0.04 -0.55,-0.04 -0.75,-0.04 -0.72,0 -1.09,0.31 -1.09,0.92 0,0.58 0.34,0.85 1.09,0.85 0.2,0 0.47,0 0.78,-0.03 0.68,-0.04 1.22,-0.04 1.6,-0.04 2.51,0 3.87,1.81 3.87,5.17 0,3.54 -1.7,5.51 -4.76,5.51 -2.14,0 -4.45,-1.16 -4.45,-2.21 0,-0.31 0.07,-0.37 0.71,-0.75 0.96,-0.58 1.33,-1.15 1.33,-2 0,-1.23 -0.92,-2.15 -2.14,-2.15 -1.46,0 -2.42,1.19 -2.42,3 0,3.29 3.03,5.57 7.38,5.57 4.93,0 8.13,-2.72 8.13,-6.9 0,-3.2 -1.63,-5.13 -5.17,-6.12"
     class="Fingering" />
  <path
     id="path22480"
     d="m 774.3,64.65 -11.56,16.08 v 1.9 h 9.55 v 1.77 c 0,1.74 0,1.8 -0.2,2.11 -0.28,0.37 -0.92,0.48 -2.86,0.48 h -0.37 v 1.59 h 9.92 v -1.59 h -0.13 c -1.94,0 -2.59,-0.11 -2.86,-0.48 -0.2,-0.31 -0.2,-0.34 -0.2,-2.11 v -1.77 h 4.11 v -1.9 h -4.11 v -9.28 c 0,-4.25 0,-4.35 0.17,-6.8 h -1.46 m -2.01,16.08 h -7.48 l 7.48,-10.3 v 10.3"
     class="Fingering" />
  <path
     id="path22482"
     d="m 817.29,64.65 c -1.15,1.39 -4.28,2.45 -7.41,2.51 v 1.47 h 2.99 c 1.98,0.03 2.18,0.23 2.11,2.14 V 84.4 c 0,1.74 0,1.8 -0.2,2.11 -0.27,0.34 -0.92,0.48 -2.82,0.48 h -2.21 v 1.59 h 13.46 v -1.59 h -1.87 c -1.9,0 -2.55,-0.14 -2.82,-0.48 -0.24,-0.31 -0.24,-0.34 -0.24,-2.11 V 70.36 c 0,-1.9 0.07,-3.5 0.24,-5.71 h -1.23"
     class="Fingering" />
  <path
     id="path22484"
     d="m 953.04,53.6 c -1.16,1.4 -4.28,2.45 -7.41,2.52 v 1.46 h 2.99 c 1.97,0.04 2.18,0.24 2.11,2.14 v 13.64 c 0,1.73 0,1.8 -0.21,2.11 -0.27,0.34 -0.91,0.47 -2.82,0.47 h -2.21 v 1.6 h 13.47 v -1.6 h -1.87 c -1.91,0 -2.55,-0.13 -2.83,-0.47 -0.23,-0.31 -0.23,-0.34 -0.23,-2.11 V 59.32 c 0,-1.91 0.06,-3.51 0.23,-5.72 h -1.22"
     class="Fingering" />
  <path
     id="path22486"
     d="m 988.61,58.25 3.88,-4.52 c 0.85,-0.99 1.63,-1.43 2.55,-1.43 h 0.3 v -1.22 h -7.04 v 1.22 h 0.65 c 1.02,0 1.53,0.24 1.53,0.75 0,0.34 -0.24,0.81 -0.68,1.36 l -2.14,2.58 -2.62,-3.33 c -0.2,-0.27 -0.34,-0.54 -0.34,-0.75 0,-0.44 0.44,-0.61 1.5,-0.61 h 0.47 v -1.22 h -8.06 v 1.22 c 1.26,0.1 1.74,0.41 2.83,1.84 l 4.14,5.2 -3.91,4.55 c -1.15,1.3 -2.14,1.84 -3.06,1.81 h -0.2 v 1.22 h 7.17 V 65.7 h -0.51 c -0.78,0 -0.95,-0.04 -1.19,-0.14 -0.27,-0.17 -0.47,-0.48 -0.47,-0.78 0,-0.24 0.1,-0.55 0.27,-0.75 l 2.86,-3.4 2.58,3.43 c 0.24,0.34 0.44,0.79 0.44,1.02 0,0.45 -0.51,0.62 -1.8,0.62 h -0.24 v 1.22 h 8.57 V 65.7 h -0.24 c -1.19,0 -1.97,-0.45 -2.96,-1.67 l -4.28,-5.78 m 24.91,1.33 h -1.49 l -0.34,1.73 c -0.44,2.21 -0.72,2.41 -2.82,2.41 h -7.62 c 2.35,-2.44 3.13,-3.16 5.3,-4.86 3.1,-2.38 4.42,-3.57 5.21,-4.59 1.08,-1.49 1.63,-2.99 1.63,-4.66 0,-3.87 -3.2,-6.63 -7.65,-6.63 -4.32,0 -7.62,2.76 -7.62,6.4 0,2.14 1.09,3.6 2.69,3.6 1.26,0 2.11,-0.85 2.11,-2.07 0,-0.85 -0.48,-1.64 -1.19,-1.94 -1.26,-0.51 -1.33,-0.58 -1.33,-1.02 0,-0.51 0.34,-1.29 0.82,-1.87 0.85,-1.06 2.24,-1.63 3.84,-1.63 2.82,0 4.49,1.73 4.49,4.59 0,2.51 -1.19,4.79 -4.02,7.78 -2.51,2.65 -4.08,4.32 -4.65,4.97 -1.23,1.42 -1.84,2.21 -3.34,4.18 v 0.95 h 15.34 l 0.64,-7.34"
     class="Fingering" />
  <path
     id="path22488"
     d="m 1035.3,48.02 3.88,-4.52 c 0.85,-0.99 1.63,-1.43 2.55,-1.43 h 0.31 V 40.85 H 1035 v 1.22 h 0.64 c 1.02,0 1.53,0.24 1.53,0.75 0,0.34 -0.23,0.81 -0.68,1.36 l -2.14,2.58 -2.62,-3.33 c -0.2,-0.27 -0.34,-0.54 -0.34,-0.75 0,-0.44 0.45,-0.61 1.5,-0.61 h 0.48 v -1.22 h -8.06 v 1.22 c 1.26,0.1 1.73,0.41 2.82,1.84 l 4.15,5.2 -3.91,4.55 c -1.16,1.3 -2.14,1.84 -3.06,1.81 h -0.21 v 1.22 h 7.18 v -1.22 h -0.51 c -0.78,0 -0.95,-0.04 -1.19,-0.14 -0.27,-0.17 -0.48,-0.48 -0.48,-0.78 0,-0.24 0.1,-0.55 0.27,-0.75 l 2.86,-3.4 2.58,3.43 c 0.24,0.34 0.45,0.79 0.45,1.02 0,0.45 -0.51,0.62 -1.81,0.62 h -0.23 v 1.22 h 8.56 v -1.22 h -0.23 c -1.19,0 -1.98,-0.45 -2.96,-1.67 l -4.29,-5.78 m 19.51,-3.84 c 3.1,-1.12 4.52,-2.86 4.52,-5.58 0,-3.57 -2.72,-5.85 -6.93,-5.85 -3.98,0 -7.01,2.35 -7.01,5.44 0,1.4 0.92,2.38 2.25,2.38 1.19,0 2,-0.81 2,-2.04 0,-0.74 -0.27,-1.19 -1.05,-1.73 -0.34,-0.24 -0.44,-0.37 -0.44,-0.61 0,-0.95 1.97,-1.97 3.91,-1.97 2.45,0 3.74,1.53 3.74,4.42 0,3.16 -1.29,4.82 -3.71,4.82 -0.3,0 -0.88,-0.03 -1.39,-0.06 -0.27,-0.04 -0.55,-0.04 -0.75,-0.04 -0.71,0 -1.09,0.31 -1.09,0.92 0,0.58 0.34,0.85 1.09,0.85 0.2,0 0.48,0 0.78,-0.03 0.68,-0.04 1.23,-0.04 1.6,-0.04 2.52,0 3.88,1.8 3.88,5.17 0,3.54 -1.7,5.51 -4.76,5.51 -2.15,0 -4.46,-1.16 -4.46,-2.21 0,-0.31 0.07,-0.38 0.72,-0.75 0.95,-0.58 1.32,-1.16 1.32,-2.01 0,-1.22 -0.92,-2.14 -2.14,-2.14 -1.46,0 -2.41,1.19 -2.41,2.99 0,3.3 3.02,5.58 7.37,5.58 4.93,0 8.13,-2.72 8.13,-6.9 0,-3.2 -1.63,-5.14 -5.17,-6.12"
     class="Fingering" />
  <path
     id="path22490"
     d="m 1123.2,21.74 -11.56,16.09 v 1.9 h 9.56 v 1.77 c 0,1.73 0,1.8 -0.21,2.11 -0.27,0.37 -0.92,0.47 -2.85,0.47 h -0.38 v 1.6 h 9.93 v -1.6 h -0.14 c -1.93,0 -2.58,-0.1 -2.85,-0.47 -0.21,-0.31 -0.21,-0.34 -0.21,-2.11 v -1.77 h 4.12 v -1.9 h -4.12 v -9.29 c 0,-4.25 0,-4.35 0.17,-6.8 h -1.46 m -2,16.09 h -7.48 l 7.48,-10.31 v 10.31"
     class="Fingering" />
  <path
     id="path22492"
     d="m 1166.2,54.72 c -1.16,1.4 -4.28,2.45 -7.41,2.52 v 1.46 h 2.99 c 1.97,0.03 2.18,0.24 2.11,2.14 v 13.64 c 0,1.73 0,1.8 -0.21,2.1 -0.27,0.34 -0.91,0.48 -2.82,0.48 h -2.21 v 1.6 h 13.47 v -1.6 h -1.87 c -1.91,0 -2.55,-0.14 -2.83,-0.48 -0.23,-0.3 -0.23,-0.34 -0.23,-2.1 V 60.43 c 0,-1.9 0.06,-3.5 0.23,-5.71 h -1.22"
     class="Fingering" />
  <path
     id="path22494"
     d="m 1309.11,81.24 h -1.5 l -0.34,1.73 c -0.44,2.21 -0.71,2.42 -2.82,2.42 h -7.62 c 2.35,-2.45 3.13,-3.16 5.31,-4.86 3.09,-2.38 4.42,-3.57 5.2,-4.59 1.09,-1.5 1.63,-3 1.63,-4.66 0,-3.88 -3.19,-6.63 -7.65,-6.63 -4.32,0 -7.61,2.75 -7.61,6.39 0,2.14 1.08,3.6 2.68,3.6 1.26,0 2.11,-0.85 2.11,-2.07 0,-0.85 -0.48,-1.63 -1.19,-1.94 -1.26,-0.51 -1.33,-0.58 -1.33,-1.02 0,-0.51 0.34,-1.29 0.82,-1.87 0.85,-1.05 2.24,-1.63 3.84,-1.63 2.82,0 4.49,1.73 4.49,4.59 0,2.52 -1.19,4.79 -4.01,7.79 -2.52,2.65 -4.08,4.31 -4.66,4.96 -1.22,1.43 -1.84,2.21 -3.33,4.18 v 0.95 h 15.33 l 0.65,-7.34"
     class="Fingering" />
  <path
     id="path22496"
     d="m 1571.98,0.82 c -1.16,1.4 -4.29,2.45 -7.42,2.52 V 4.8 h 3 c 1.97,0.03 2.17,0.24 2.1,2.14 v 13.64 c 0,1.73 0,1.8 -0.2,2.1 -0.27,0.34 -0.92,0.48 -2.82,0.48 h -2.21 v 1.6 h 13.46 v -1.6 h -1.87 c -1.9,0 -2.55,-0.14 -2.82,-0.48 -0.24,-0.3 -0.24,-0.34 -0.24,-2.1 V 6.53 c 0,-1.9 0.07,-3.5 0.24,-5.71 h -1.22"
     class="Fingering" />
  <path
     id="path22498"
     d="m 1815.26,36.66 c 0,9.69 -7.85,17.55 -17.54,17.55 -9.69,0 -17.55,-7.86 -17.55,-17.55 0,-9.69 7.86,-17.54 17.55,-17.54 9.69,0 17.54,7.85 17.54,17.54"
     fill-rule="evenodd"
     stroke-miterlimit="2"
     stroke-linejoin="miter"
     stroke-linecap="square"
     stroke-width="2.12"
     stroke="#000000"
     fill="none"
     class="Fingering" />
  <path
     id="path22500"
     d="m 1797.92,24.43 c -4.76,0 -8.23,5.17 -8.23,12.31 0,7 3.37,12.14 7.96,12.14 4.76,0 8.09,-4.97 8.09,-12.04 0,-3.6 -0.75,-6.6 -2.18,-8.94 -1.32,-2.14 -3.5,-3.47 -5.64,-3.47 m -0.24,1.46 c 1.12,0 2.21,0.75 3.03,2.11 0.92,1.6 1.22,3.54 1.22,8.19 0,4.8 -0.24,7.04 -0.92,8.54 -0.78,1.66 -2,2.68 -3.29,2.68 -1.16,0 -2.21,-0.74 -3.03,-2.1 -0.95,-1.6 -1.22,-3.71 -1.22,-9.29 0,-3.97 0.23,-5.95 0.91,-7.44 0.79,-1.7 2.01,-2.69 3.3,-2.69"
     class="Fingering" />
  <path
     id="path22502"
     d="m 1962.19,11.43 c 3.1,-1.12 4.52,-2.86 4.52,-5.58 0,-3.57 -2.72,-5.85 -6.93,-5.85 -3.98,0 -7.01,2.35 -7.01,5.44 0,1.4 0.92,2.38 2.25,2.38 1.19,0 2,-0.81 2,-2.04 0,-0.74 -0.27,-1.19 -1.05,-1.73 -0.34,-0.24 -0.44,-0.37 -0.44,-0.61 0,-0.95 1.97,-1.97 3.91,-1.97 2.45,0 3.74,1.53 3.74,4.42 0,3.16 -1.29,4.82 -3.71,4.82 -0.3,0 -0.88,-0.03 -1.39,-0.06 -0.27,-0.04 -0.55,-0.04 -0.75,-0.04 -0.71,0 -1.09,0.31 -1.09,0.92 0,0.58 0.34,0.85 1.09,0.85 0.2,0 0.48,0 0.78,-0.03 0.68,-0.04 1.23,-0.04 1.6,-0.04 2.52,0 3.88,1.8 3.88,5.17 0,3.54 -1.7,5.51 -4.76,5.51 -2.15,0 -4.46,-1.16 -4.46,-2.21 0,-0.31 0.07,-0.38 0.72,-0.75 0.95,-0.58 1.32,-1.16 1.32,-2.01 0,-1.22 -0.92,-2.14 -2.14,-2.14 -1.46,0 -2.41,1.19 -2.41,2.99 0,3.3 3.02,5.58 7.37,5.58 4.93,0 8.13,-2.72 8.13,-6.9 0,-3.2 -1.63,-5.14 -5.17,-6.12"
     class="Fingering" />
  <path
     id="path22504"
     d="m 2053.32,53.6 -11.56,16.09 v 1.9 h 9.55 v 1.77 c 0,1.73 0,1.8 -0.2,2.11 -0.28,0.37 -0.92,0.47 -2.86,0.47 h -0.37 v 1.6 h 9.92 v -1.6 h -0.13 c -1.94,0 -2.59,-0.1 -2.86,-0.47 -0.2,-0.31 -0.2,-0.34 -0.2,-2.11 v -1.77 h 4.11 v -1.9 h -4.11 V 60.4 c 0,-4.25 0,-4.35 0.17,-6.8 h -1.46 m -2.01,16.09 h -7.48 l 7.48,-10.31 v 10.31"
     class="Fingering" />
  <path
     id="path22506"
     d="m 2141.07,64.15 c -4.76,0 -8.23,5.17 -8.23,12.31 0,7 3.37,12.13 7.96,12.13 4.76,0 8.09,-4.96 8.09,-12.03 0,-3.61 -0.75,-6.6 -2.18,-8.94 -1.32,-2.15 -3.5,-3.47 -5.64,-3.47 m -0.24,1.46 c 1.12,0 2.21,0.75 3.03,2.11 0.92,1.6 1.22,3.53 1.22,8.19 0,4.8 -0.24,7.04 -0.92,8.54 -0.78,1.66 -2,2.68 -3.29,2.68 -1.16,0 -2.21,-0.75 -3.03,-2.11 -0.95,-1.59 -1.22,-3.7 -1.22,-9.28 0,-3.98 0.23,-5.95 0.91,-7.44 0.79,-1.7 2.01,-2.69 3.3,-2.69"
     class="Fingering" />
</svg>
