<?xml version="1.0" encoding="UTF-8" standalone="no"?>
<svg
   xmlns:dc="http://purl.org/dc/elements/1.1/"
   xmlns:cc="http://creativecommons.org/ns#"
   xmlns:rdf="http://www.w3.org/1999/02/22-rdf-syntax-ns#"
   xmlns:svg="http://www.w3.org/2000/svg"
   xmlns="http://www.w3.org/2000/svg"
   xmlns:sodipodi="http://sodipodi.sourceforge.net/DTD/sodipodi-0.dtd"
   xmlns:inkscape="http://www.inkscape.org/namespaces/inkscape"
   inkscape:version="1.0 (4035a4f, 2020-05-01)"
   sodipodi:docname="snippet16.svg"
   id="svg10950"
   version="1.2"
   viewBox="0 0 2340 497.61499"
   height="497.61499"
   width="2340">
  <metadata
     id="metadata10956">
    <rdf:RDF>
      <cc:Work
         rdf:about="">
        <dc:format>image/svg+xml</dc:format>
        <dc:type
           rdf:resource="http://purl.org/dc/dcmitype/StillImage" />
        <dc:title>Batches6Suite4</dc:title>
      </cc:Work>
    </rdf:RDF>
  </metadata>
  <defs
     id="defs10954" />
  <sodipodi:namedview
     inkscape:current-layer="svg10950"
     inkscape:window-maximized="0"
     inkscape:window-y="23"
     inkscape:window-x="0"
     inkscape:cy="1069.911"
     inkscape:cx="1289.9215"
     inkscape:zoom="0.21067036"
     showgrid="false"
     id="namedview10952"
     inkscape:window-height="855"
     inkscape:window-width="919"
     inkscape:pageshadow="2"
     inkscape:pageopacity="0"
     guidetolerance="10"
     gridtolerance="10"
     objecttolerance="10"
     borderopacity="1"
     bordercolor="#666666"
     pagecolor="#ffffff" />
  <title
     id="title9758">Batches6Suite4</title>
  <desc
     id="desc9760">Generated by MuseScore 3.6.2</desc>
  <polyline
     transform="translate(-360,-649.875)"
     id="polyline9762"
     points="360,832.832 2700,832.832"
     stroke-linejoin="bevel"
     stroke-width="2.34"
     stroke="#000000"
     fill="none"
     class="StaffLines" />
  <polyline
     transform="translate(-360,-649.875)"
     id="polyline9764"
     points="360,854.072 2700,854.072"
     stroke-linejoin="bevel"
     stroke-width="2.34"
     stroke="#000000"
     fill="none"
     class="StaffLines" />
  <polyline
     transform="translate(-360,-649.875)"
     id="polyline9766"
     points="360,875.312 2700,875.312"
     stroke-linejoin="bevel"
     stroke-width="2.34"
     stroke="#000000"
     fill="none"
     class="StaffLines" />
  <polyline
     transform="translate(-360,-649.875)"
     id="polyline9768"
     points="360,896.552 2700,896.552"
     stroke-linejoin="bevel"
     stroke-width="2.34"
     stroke="#000000"
     fill="none"
     class="StaffLines" />
  <polyline
     transform="translate(-360,-649.875)"
     id="polyline9770"
     points="360,917.792 2700,917.792"
     stroke-linejoin="bevel"
     stroke-width="2.34"
     stroke="#000000"
     fill="none"
     class="StaffLines" />
  <path
     id="path9810"
     d="M 372.934,153.221 C 414.967,84.73 551.66,78.358 600.756,142.601 551.937,84.298 415.244,90.67 372.934,153.221"
     fill-rule="evenodd"
     stroke-linejoin="round"
     stroke-linecap="round"
     stroke-width="1.49"
     stroke="#000000"
     class="SlurSegment" />
  <path
     id="path9812"
     d="m 821.83,174.461 c 10.85,-9.945 32.96,-3.573 36.85,10.62 -5.54,-8.478 -27.65,-14.85 -36.85,-10.62"
     fill-rule="evenodd"
     stroke-linejoin="round"
     stroke-linecap="round"
     stroke-width="1.49"
     stroke="#000000"
     class="SlurSegment" />
  <path
     id="path9814"
     d="m 947.65,157.469 c 10.32,-4.43 26.11,5.766 26.32,16.992 -1.82,-8.728 -17.61,-18.923 -26.32,-16.992"
     fill-rule="evenodd"
     stroke-linejoin="round"
     stroke-linecap="round"
     stroke-width="1.49"
     stroke="#000000"
     class="SlurSegment" />
  <path
     id="path9816"
     d="m 1051.42,109.947 c 40.51,-49.264 123.29,-67.39 147.48,11.414 -24.64,-72.874 -107.43,-54.748 -147.48,-11.414"
     fill-rule="evenodd"
     stroke-linejoin="round"
     stroke-linecap="round"
     stroke-width="1.49"
     stroke="#000000"
     class="SlurSegment" />
  <path
     id="path9818"
     d="m 1409.02,180.833 c 4.36,8.908 24.04,15.28 32.79,10.62 -9.67,7.489 -29.35,1.117 -32.79,-10.62"
     fill-rule="evenodd"
     stroke-linejoin="round"
     stroke-linecap="round"
     stroke-width="1.49"
     stroke="#000000"
     class="SlurSegment" />
  <path
     id="path9820"
     d="m 1876.64,142.601 c 34.42,-50.033 122.53,-71.67 176.21,-43.274 -52.26,-22.621 -140.37,-0.984 -176.21,43.274"
     fill-rule="evenodd"
     stroke-linejoin="round"
     stroke-linecap="round"
     stroke-width="1.49"
     stroke="#000000"
     class="SlurSegment" />
  <polyline
     transform="translate(-360,-649.875)"
     id="polyline9848"
     points="1054.75,831.664 1054.75,918.96"
     stroke-linejoin="bevel"
     stroke-width="3.82"
     stroke="#000000"
     class="BarLine" />
  <polyline
     transform="translate(-360,-649.875)"
     id="polyline9850"
     points="1662.3,831.664 1662.3,918.96"
     stroke-linejoin="bevel"
     stroke-width="3.82"
     stroke="#000000"
     class="BarLine" />
  <polyline
     transform="translate(-360,-649.875)"
     id="polyline9852"
     points="2167.83,831.664 2167.83,918.96"
     stroke-linejoin="bevel"
     stroke-width="3.82"
     stroke="#000000"
     class="BarLine" />
  <polyline
     transform="translate(-360,-649.875)"
     id="polyline9854"
     points="2698.09,831.664 2698.09,918.96"
     stroke-linejoin="bevel"
     stroke-width="3.82"
     stroke="#000000"
     class="BarLine" />
  <polyline
     transform="translate(-360,-649.875)"
     id="polyline9890"
     points="811.184,811.592 845.376,811.592"
     stroke-linejoin="bevel"
     stroke-width="2.38"
     stroke="#000000"
     class="LedgerLine" />
  <polyline
     transform="translate(-360,-649.875)"
     id="polyline9892"
     points="939.519,811.592 981.993,811.592"
     stroke-linejoin="bevel"
     stroke-width="3.4"
     stroke="#000000"
     class="LedgerLine" />
  <polyline
     transform="translate(-360,-649.875)"
     id="polyline9894"
     points="1082.15,960.272 1124.62,960.272"
     stroke-linejoin="bevel"
     stroke-width="3.4"
     stroke="#000000"
     class="LedgerLine" />
  <polyline
     transform="translate(-360,-649.875)"
     id="polyline9896"
     points="1082.15,939.032 1124.62,939.032"
     stroke-linejoin="bevel"
     stroke-width="3.4"
     stroke="#000000"
     class="LedgerLine" />
  <polyline
     transform="translate(-360,-649.875)"
     id="polyline9898"
     points="1537.66,811.592 1580.13,811.592"
     stroke-linejoin="bevel"
     stroke-width="3.4"
     stroke="#000000"
     class="LedgerLine" />
  <polyline
     transform="translate(-360,-649.875)"
     id="polyline9900"
     points="1537.66,790.352 1580.13,790.352"
     stroke-linejoin="bevel"
     stroke-width="3.4"
     stroke="#000000"
     class="LedgerLine" />
  <polyline
     transform="translate(-360,-649.875)"
     id="polyline9902"
     points="1473.08,811.592 1507.27,811.592"
     stroke-linejoin="bevel"
     stroke-width="2.38"
     stroke="#000000"
     class="LedgerLine" />
  <polyline
     transform="translate(-360,-649.875)"
     id="polyline9904"
     points="1504.96,811.592 1539.15,811.592"
     stroke-linejoin="bevel"
     stroke-width="2.38"
     stroke="#000000"
     class="LedgerLine" />
  <polyline
     transform="translate(-360,-649.875)"
     id="polyline9906"
     points="1689.7,811.592 1732.17,811.592"
     stroke-linejoin="bevel"
     stroke-width="3.4"
     stroke="#000000"
     class="LedgerLine" />
  <polyline
     transform="translate(-360,-649.875)"
     id="polyline9908"
     points="1689.7,939.032 1732.17,939.032"
     stroke-linejoin="bevel"
     stroke-width="3.4"
     stroke="#000000"
     class="LedgerLine" />
  <polyline
     transform="translate(-360,-649.875)"
     id="polyline9910"
     points="1751.92,811.592 1786.11,811.592"
     stroke-linejoin="bevel"
     stroke-width="2.38"
     stroke="#000000"
     class="LedgerLine" />
  <polyline
     transform="translate(-360,-649.875)"
     id="polyline9912"
     points="1873.35,811.592 1915.82,811.592"
     stroke-linejoin="bevel"
     stroke-width="3.4"
     stroke="#000000"
     class="LedgerLine" />
  <polyline
     transform="translate(-360,-649.875)"
     id="polyline9914"
     points="2076.33,811.592 2118.8,811.592"
     stroke-linejoin="bevel"
     stroke-width="3.4"
     stroke="#000000"
     class="LedgerLine" />
  <polyline
     transform="translate(-360,-649.875)"
     id="polyline9916"
     points="2195.23,811.592 2237.7,811.592"
     stroke-linejoin="bevel"
     stroke-width="3.4"
     stroke="#000000"
     class="LedgerLine" />
  <polyline
     transform="translate(-360,-649.875)"
     id="polyline9918"
     points="2318.32,811.592 2352.51,811.592"
     stroke-linejoin="bevel"
     stroke-width="2.38"
     stroke="#000000"
     class="LedgerLine" />
  <polyline
     transform="translate(-360,-649.875)"
     id="polyline9920"
     points="2413.96,811.592 2456.44,811.592"
     stroke-linejoin="bevel"
     stroke-width="3.4"
     stroke="#000000"
     class="LedgerLine" />
  <polyline
     transform="translate(-360,-649.875)"
     id="polyline10012"
     points="1723.57,946.933 1723.57,785.042"
     stroke-linejoin="bevel"
     stroke-width="2.34"
     stroke="#000000"
     class="Stem" />
  <polyline
     transform="translate(-360,-649.875)"
     id="polyline10014"
     points="2229.1,915.073 2229.1,808.937"
     stroke-linejoin="bevel"
     stroke-width="2.34"
     stroke="#000000"
     class="Stem" />
  <polyline
     transform="translate(-360,-649.875)"
     id="polyline10050"
     points="572.121,825.067 572.121,973.547"
     stroke-linejoin="bevel"
     stroke-width="2.34"
     stroke="#000000"
     class="Stem" />
  <polyline
     transform="translate(-360,-649.875)"
     id="polyline10052"
     points="720.299,825.067 720.299,941.687"
     stroke-linejoin="bevel"
     stroke-width="2.34"
     stroke="#000000"
     class="Stem" />
  <polyline
     transform="translate(-360,-649.875)"
     id="polyline10054"
     points="879.638,830.929 879.638,785.042"
     stroke-linejoin="bevel"
     stroke-width="1.64"
     stroke="#000000"
     class="Stem" />
  <polyline
     transform="translate(-360,-649.875)"
     id="polyline10056"
     points="858.381,820.309 858.381,774.422"
     stroke-linejoin="bevel"
     stroke-width="1.64"
     stroke="#000000"
     class="Stem" />
  <polyline
     transform="translate(-360,-649.875)"
     id="polyline10058"
     points="837.124,809.689 837.124,763.802"
     stroke-linejoin="bevel"
     stroke-width="1.64"
     stroke="#000000"
     class="Stem" />
  <polyline
     transform="translate(-360,-649.875)"
     id="polyline10060"
     points="948.121,814.447 948.121,885.932"
     stroke-linejoin="bevel"
     stroke-width="2.34"
     stroke="#000000"
     class="Stem" />
  <polyline
     transform="translate(-360,-649.875)"
     id="polyline10062"
     points="904.446,824.21 904.446,874.25"
     stroke-linejoin="bevel"
     stroke-width="1.64"
     stroke="#000000"
     class="Stem" />
  <polyline
     transform="translate(-360,-649.875)"
     id="polyline10064"
     points="1116.02,957.553 1116.02,777.077"
     stroke-linejoin="bevel"
     stroke-width="2.34"
     stroke="#000000"
     class="Stem" />
  <polyline
     transform="translate(-360,-649.875)"
     id="polyline10066"
     points="1206.04,856.927 1206.04,925.757"
     stroke-linejoin="bevel"
     stroke-width="2.34"
     stroke="#000000"
     class="Stem" />
  <polyline
     transform="translate(-360,-649.875)"
     id="polyline10068"
     points="1172.99,845.45 1172.99,895.49"
     stroke-linejoin="bevel"
     stroke-width="1.64"
     stroke="#000000"
     class="Stem" />
  <polyline
     transform="translate(-360,-649.875)"
     id="polyline10070"
     points="1321.33,846.307 1321.33,957.617"
     stroke-linejoin="bevel"
     stroke-width="2.34"
     stroke="#000000"
     class="Stem" />
  <polyline
     transform="translate(-360,-649.875)"
     id="polyline10072"
     points="1449.09,820.309 1449.09,763.802"
     stroke-linejoin="bevel"
     stroke-width="1.64"
     stroke="#000000"
     class="Stem" />
  <polyline
     transform="translate(-360,-649.875)"
     id="polyline10074"
     points="1417.21,830.929 1417.21,769.112"
     stroke-linejoin="bevel"
     stroke-width="1.64"
     stroke="#000000"
     class="Stem" />
  <polyline
     transform="translate(-360,-649.875)"
     id="polyline10076"
     points="1299.4,852.169 1299.4,802.034"
     stroke-linejoin="bevel"
     stroke-width="1.64"
     stroke="#000000"
     class="Stem" />
  <polyline
     transform="translate(-360,-649.875)"
     id="polyline10078"
     points="1546.26,793.207 1546.26,875.312"
     stroke-linejoin="bevel"
     stroke-width="2.34"
     stroke="#000000"
     class="Stem" />
  <polyline
     transform="translate(-360,-649.875)"
     id="polyline10080"
     points="1499.02,809.689 1499.02,747.872"
     stroke-linejoin="bevel"
     stroke-width="1.64"
     stroke="#000000"
     class="Stem" />
  <polyline
     transform="translate(-360,-649.875)"
     id="polyline10082"
     points="1530.9,799.069 1530.9,742.562"
     stroke-linejoin="bevel"
     stroke-width="1.64"
     stroke="#000000"
     class="Stem" />
  <polyline
     transform="translate(-360,-649.875)"
     id="polyline10084"
     points="1723.57,798.253 1723.57,753.182"
     stroke-linejoin="bevel"
     stroke-width="2.34"
     stroke="#000000"
     class="Stem" />
  <polyline
     transform="translate(-360,-649.875)"
     id="polyline10086"
     points="1814.45,819.493 1814.45,769.112"
     stroke-linejoin="bevel"
     stroke-width="2.34"
     stroke="#000000"
     class="Stem" />
  <polyline
     transform="translate(-360,-649.875)"
     id="polyline10088"
     points="1777.86,809.689 1777.86,759.554"
     stroke-linejoin="bevel"
     stroke-width="1.64"
     stroke="#000000"
     class="Stem" />
  <polyline
     transform="translate(-360,-649.875)"
     id="polyline10090"
     points="1881.95,814.447 1881.95,949.652"
     stroke-linejoin="bevel"
     stroke-width="2.34"
     stroke="#000000"
     class="Stem" />
  <polyline
     transform="translate(-360,-649.875)"
     id="polyline10092"
     points="2084.93,803.827 2084.93,875.312"
     stroke-linejoin="bevel"
     stroke-width="2.34"
     stroke="#000000"
     class="Stem" />
  <polyline
     transform="translate(-360,-649.875)"
     id="polyline10094"
     points="2229.1,808.873 2229.1,761.147"
     stroke-linejoin="bevel"
     stroke-width="2.34"
     stroke="#000000"
     class="Stem" />
  <polyline
     transform="translate(-360,-649.875)"
     id="polyline10096"
     points="2306.61,819.493 2306.61,769.112"
     stroke-linejoin="bevel"
     stroke-width="2.34"
     stroke="#000000"
     class="Stem" />
  <polyline
     transform="translate(-360,-649.875)"
     id="polyline10098"
     points="2408.03,820.309 2408.03,753.182"
     stroke-linejoin="bevel"
     stroke-width="1.64"
     stroke="#000000"
     class="Stem" />
  <polyline
     transform="translate(-360,-649.875)"
     id="polyline10100"
     points="2386.77,830.929 2386.77,751.412"
     stroke-linejoin="bevel"
     stroke-width="1.64"
     stroke="#000000"
     class="Stem" />
  <polyline
     transform="translate(-360,-649.875)"
     id="polyline10102"
     points="2365.51,820.309 2365.51,749.642"
     stroke-linejoin="bevel"
     stroke-width="1.64"
     stroke="#000000"
     class="Stem" />
  <polyline
     transform="translate(-360,-649.875)"
     id="polyline10104"
     points="2344.26,809.689 2344.26,747.872"
     stroke-linejoin="bevel"
     stroke-width="1.64"
     stroke="#000000"
     class="Stem" />
  <polyline
     transform="translate(-360,-649.875)"
     id="polyline10106"
     points="2422.57,814.447 2422.57,885.932"
     stroke-linejoin="bevel"
     stroke-width="2.34"
     stroke="#000000"
     class="Stem" />
  <polyline
     transform="translate(-360,-649.875)"
     id="polyline10108"
     points="2489.45,835.687 2489.45,907.172"
     stroke-linejoin="bevel"
     stroke-width="2.34"
     stroke="#000000"
     class="Stem" />
  <polyline
     transform="translate(-360,-649.875)"
     id="polyline10110"
     points="2556.34,825.067 2556.34,896.552"
     stroke-linejoin="bevel"
     stroke-width="2.34"
     stroke="#000000"
     class="Stem" />
  <path
     style="stroke-width:0.8496"
     id="path10244"
     d="m 1363.8924,292.89524 c -1.5293,-2.80368 -4.7578,-4.33296 -8.6659,-4.33296 -2.8887,0 -6.0322,0.8496 -9.0907,2.46384 -5.6074,2.9736 -9.0058,7.98624 -9.0058,12.3192 0,1.18944 0.2549,2.37888 0.8496,3.48336 1.5293,2.80368 4.7578,4.248 8.6659,4.248 2.8887,0 6.0322,-0.76464 9.0907,-2.37888 5.6074,-2.9736 9.0058,-7.98624 9.0058,-12.3192 0,-1.18944 -0.2549,-2.37888 -0.8496,-3.48336 m -3.6533,5.77728 c -1.4443,1.44432 -4.3329,3.22848 -7.3915,4.92768 -3.0586,1.6992 -6.1171,2.9736 -8.1562,3.3984 -0.4248,0.085 -0.8496,0.16992 -1.2744,0.16992 -1.3593,0 -2.3788,-0.50976 -2.9736,-1.61424 -0.2548,-0.4248 -0.4248,-0.93456 -0.4248,-1.44432 0,-0.93456 0.5948,-2.03904 1.5293,-2.9736 1.4443,-1.44432 4.248,-3.22848 7.3066,-4.92768 3.0585,-1.6992 6.1171,-2.9736 8.1561,-3.3984 0.4248,-0.085 0.8496,-0.16992 1.2744,-0.16992 1.3594,0 2.4639,0.50976 3.0586,1.61424 0.2549,0.4248 0.3398,0.93456 0.3398,1.44432 0,0.93456 -0.5097,1.95408 -1.4443,2.9736"
     class="Note" />
  <path
     style="stroke-width:0.8496"
     id="path10246"
     d="m 1363.8924,239.79524 c -1.5293,-2.80368 -4.7578,-4.33296 -8.6659,-4.33296 -2.8887,0 -6.0322,0.8496 -9.0907,2.46384 -5.6074,2.9736 -9.0058,7.98624 -9.0058,12.3192 0,1.18944 0.2549,2.37888 0.8496,3.48336 1.5293,2.80368 4.7578,4.248 8.6659,4.248 2.8887,0 6.0322,-0.76464 9.0907,-2.37888 5.6074,-2.9736 9.0058,-7.98624 9.0058,-12.3192 0,-1.18944 -0.2549,-2.37888 -0.8496,-3.48336 m -3.6533,5.77728 c -1.4443,1.44432 -4.3329,3.22848 -7.3915,4.92768 -3.0586,1.6992 -6.1171,2.9736 -8.1562,3.3984 -0.4248,0.085 -0.8496,0.16992 -1.2744,0.16992 -1.3593,0 -2.3788,-0.50976 -2.9736,-1.61424 -0.2548,-0.4248 -0.4248,-0.93456 -0.4248,-1.44432 0,-0.93456 0.5948,-2.03904 1.5293,-2.9736 1.4443,-1.44432 4.248,-3.22848 7.3066,-4.92768 3.0585,-1.6992 6.1171,-2.9736 8.1561,-3.3984 0.4248,-0.085 0.8496,-0.16992 1.2744,-0.16992 1.3594,0 2.4639,0.50976 3.0586,1.61424 0.2549,0.4248 0.3398,0.93456 0.3398,1.44432 0,0.93456 -0.5097,1.95408 -1.4443,2.9736"
     class="Note" />
  <path
     style="stroke-width:0.8496"
     id="path10248"
     d="m 1363.8924,186.69524 c -1.5293,-2.80368 -4.7578,-4.33296 -8.6659,-4.33296 -2.8887,0 -6.0322,0.8496 -9.0907,2.46384 -5.6074,2.9736 -9.0058,7.98624 -9.0058,12.3192 0,1.18944 0.2549,2.37888 0.8496,3.48336 1.5293,2.80368 4.7578,4.248 8.6659,4.248 2.8887,0 6.0322,-0.76464 9.0907,-2.37888 5.6074,-2.9736 9.0058,-7.98624 9.0058,-12.3192 0,-1.18944 -0.2549,-2.37888 -0.8496,-3.48336 m -3.6533,5.77728 c -1.4443,1.44432 -4.3329,3.22848 -7.3915,4.92768 -3.0586,1.6992 -6.1171,2.9736 -8.1562,3.3984 -0.4248,0.085 -0.8496,0.16992 -1.2744,0.16992 -1.3593,0 -2.3788,-0.50976 -2.9736,-1.61424 -0.2548,-0.4248 -0.4248,-0.93456 -0.4248,-1.44432 0,-0.93456 0.5948,-2.03904 1.5293,-2.9736 1.4443,-1.44432 4.248,-3.22848 7.3066,-4.92768 3.0585,-1.6992 6.1171,-2.9736 8.1561,-3.3984 0.4248,-0.085 0.8496,-0.16992 1.2744,-0.16992 1.3594,0 2.4639,0.50976 3.0586,1.61424 0.2549,0.4248 0.3398,0.93456 0.3398,1.44432 0,0.93456 -0.5097,1.95408 -1.4443,2.9736"
     class="Note" />
  <path
     style="stroke-width:0.8496"
     id="path10250"
     d="m 1869.4224,261.03524 c -1.5293,-2.80368 -4.7578,-4.33296 -8.6659,-4.33296 -2.8887,0 -6.0322,0.8496 -9.0907,2.46384 -5.6074,2.9736 -9.0058,7.98624 -9.0058,12.3192 0,1.18944 0.2549,2.37888 0.8496,3.48336 1.5293,2.80368 4.7578,4.248 8.6659,4.248 2.8887,0 6.0322,-0.76464 9.0907,-2.37888 5.6074,-2.9736 9.0058,-7.98624 9.0058,-12.3192 0,-1.18944 -0.2549,-2.37888 -0.8496,-3.48336 m -3.6533,5.77728 c -1.4443,1.44432 -4.3329,3.22848 -7.3915,4.92768 -3.0586,1.6992 -6.1171,2.9736 -8.1562,3.3984 -0.4248,0.085 -0.8496,0.16992 -1.2744,0.16992 -1.3593,0 -2.3788,-0.50976 -2.9736,-1.61424 -0.2548,-0.4248 -0.4248,-0.93456 -0.4248,-1.44432 0,-0.93456 0.5948,-2.03904 1.5293,-2.9736 1.4443,-1.44432 4.248,-3.22848 7.3066,-4.92768 3.0585,-1.6992 6.1171,-2.9736 8.1561,-3.3984 0.4248,-0.085 0.8496,-0.16992 1.2744,-0.16992 1.3594,0 2.4639,0.50976 3.0586,1.61424 0.2549,0.4248 0.3398,0.93456 0.3398,1.44432 0,0.93456 -0.5097,1.95408 -1.4443,2.9736"
     class="Note" />
  <path
     style="stroke-width:0.8496"
     id="path10252"
     d="m 1869.4224,218.55524 c -1.5293,-2.80368 -4.7578,-4.33296 -8.6659,-4.33296 -2.8887,0 -6.0322,0.8496 -9.0907,2.46384 -5.6074,2.9736 -9.0058,7.98624 -9.0058,12.3192 0,1.18944 0.2549,2.37888 0.8496,3.48336 1.5293,2.80368 4.7578,4.248 8.6659,4.248 2.8887,0 6.0322,-0.76464 9.0907,-2.37888 5.6074,-2.9736 9.0058,-7.98624 9.0058,-12.3192 0,-1.18944 -0.2549,-2.37888 -0.8496,-3.48336 m -3.6533,5.77728 c -1.4443,1.44432 -4.3329,3.22848 -7.3915,4.92768 -3.0586,1.6992 -6.1171,2.9736 -8.1562,3.3984 -0.4248,0.085 -0.8496,0.16992 -1.2744,0.16992 -1.3593,0 -2.3788,-0.50976 -2.9736,-1.61424 -0.2548,-0.4248 -0.4248,-0.93456 -0.4248,-1.44432 0,-0.93456 0.5948,-2.03904 1.5293,-2.9736 1.4443,-1.44432 4.248,-3.22848 7.3066,-4.92768 3.0585,-1.6992 6.1171,-2.9736 8.1561,-3.3984 0.4248,-0.085 0.8496,-0.16992 1.2744,-0.16992 1.3594,0 2.4639,0.50976 3.0586,1.61424 0.2549,0.4248 0.3398,0.93456 0.3398,1.44432 0,0.93456 -0.5097,1.95408 -1.4443,2.9736"
     class="Note" />
  <path
     style="stroke-width:0.8496"
     id="path10294"
     d="m 237.7154,261.03524 c -1.52928,-2.80368 -4.75776,-4.33296 -8.66592,-4.33296 -2.88864,0 -6.03216,0.8496 -9.09072,2.46384 -5.60736,2.9736 -9.00576,7.98624 -9.00576,12.3192 0,1.18944 0.25488,2.37888 0.8496,3.48336 1.52928,2.80368 4.75776,4.248 8.66592,4.248 2.88864,0 6.03216,-0.76464 9.09072,-2.37888 5.60736,-2.9736 9.00576,-7.98624 9.00576,-12.3192 0,-1.18944 -0.25488,-2.37888 -0.8496,-3.48336 m -3.65328,5.77728 c -1.44432,1.44432 -4.33296,3.22848 -7.39152,4.92768 -3.05856,1.6992 -6.11712,2.9736 -8.15616,3.3984 -0.4248,0.085 -0.8496,0.16992 -1.2744,0.16992 -1.35936,0 -2.37888,-0.50976 -2.9736,-1.61424 -0.25488,-0.4248 -0.4248,-0.93456 -0.4248,-1.44432 0,-0.93456 0.59472,-2.03904 1.52928,-2.9736 1.44432,-1.44432 4.248,-3.22848 7.30656,-4.92768 3.05856,-1.6992 6.11712,-2.9736 8.15616,-3.3984 0.4248,-0.085 0.8496,-0.16992 1.2744,-0.16992 1.35936,0 2.46384,0.50976 3.05856,1.61424 0.25488,0.4248 0.33984,0.93456 0.33984,1.44432 0,0.93456 -0.50976,1.95408 -1.44432,2.9736"
     class="Note" />
  <path
     style="stroke-width:0.8496"
     id="path10296"
     d="m 237.7154,218.55524 c -1.52928,-2.80368 -4.75776,-4.33296 -8.66592,-4.33296 -2.88864,0 -6.03216,0.8496 -9.09072,2.46384 -5.60736,2.9736 -9.00576,7.98624 -9.00576,12.3192 0,1.18944 0.25488,2.37888 0.8496,3.48336 1.52928,2.80368 4.75776,4.248 8.66592,4.248 2.88864,0 6.03216,-0.76464 9.09072,-2.37888 5.60736,-2.9736 9.00576,-7.98624 9.00576,-12.3192 0,-1.18944 -0.25488,-2.37888 -0.8496,-3.48336 m -3.65328,5.77728 c -1.44432,1.44432 -4.33296,3.22848 -7.39152,4.92768 -3.05856,1.6992 -6.11712,2.9736 -8.15616,3.3984 -0.4248,0.085 -0.8496,0.16992 -1.2744,0.16992 -1.35936,0 -2.37888,-0.50976 -2.9736,-1.61424 -0.25488,-0.4248 -0.4248,-0.93456 -0.4248,-1.44432 0,-0.93456 0.59472,-2.03904 1.52928,-2.9736 1.44432,-1.44432 4.248,-3.22848 7.30656,-4.92768 3.05856,-1.6992 6.11712,-2.9736 8.15616,-3.3984 0.4248,-0.085 0.8496,-0.16992 1.2744,-0.16992 1.35936,0 2.46384,0.50976 3.05856,1.61424 0.25488,0.4248 0.33984,0.93456 0.33984,1.44432 0,0.93456 -0.50976,1.95408 -1.44432,2.9736"
     class="Note" />
  <path
     style="stroke-width:0.8496"
     id="path10298"
     d="m 237.7154,165.45524 c -1.52928,-2.80368 -4.75776,-4.33296 -8.66592,-4.33296 -2.88864,0 -6.03216,0.8496 -9.09072,2.46384 -5.60736,2.9736 -9.00576,7.98624 -9.00576,12.3192 0,1.18944 0.25488,2.37888 0.8496,3.48336 1.52928,2.80368 4.75776,4.248 8.66592,4.248 2.88864,0 6.03216,-0.76464 9.09072,-2.37888 5.60736,-2.9736 9.00576,-7.98624 9.00576,-12.3192 0,-1.18944 -0.25488,-2.37888 -0.8496,-3.48336 m -3.65328,5.77728 c -1.44432,1.44432 -4.33296,3.22848 -7.39152,4.92768 -3.05856,1.6992 -6.11712,2.9736 -8.15616,3.3984 -0.4248,0.085 -0.8496,0.16992 -1.2744,0.16992 -1.35936,0 -2.37888,-0.50976 -2.9736,-1.61424 -0.25488,-0.4248 -0.4248,-0.93456 -0.4248,-1.44432 0,-0.93456 0.59472,-2.03904 1.52928,-2.9736 1.44432,-1.44432 4.248,-3.22848 7.30656,-4.92768 3.05856,-1.6992 6.11712,-2.9736 8.15616,-3.3984 0.4248,-0.085 0.8496,-0.16992 1.2744,-0.16992 1.35936,0 2.46384,0.50976 3.05856,1.61424 0.25488,0.4248 0.33984,0.93456 0.33984,1.44432 0,0.93456 -0.50976,1.95408 -1.44432,2.9736"
     class="Note" />
  <path
     style="stroke-width:0.8496"
     id="path10300"
     d="m 385.8934,218.55524 c -1.52928,-2.80368 -4.75776,-4.33296 -8.66592,-4.33296 -2.88864,0 -6.03216,0.8496 -9.09072,2.46384 -5.60736,2.9736 -9.00576,7.98624 -9.00576,12.3192 0,1.18944 0.25488,2.37888 0.8496,3.48336 1.52928,2.80368 4.75776,4.248 8.66592,4.248 2.88864,0 6.03216,-0.76464 9.09072,-2.37888 5.60736,-2.9736 9.00576,-7.98624 9.00576,-12.3192 0,-1.18944 -0.25488,-2.37888 -0.8496,-3.48336 m -3.65328,5.77728 c -1.44432,1.44432 -4.33296,3.22848 -7.39152,4.92768 -3.05856,1.6992 -6.11712,2.9736 -8.15616,3.3984 -0.4248,0.085 -0.8496,0.16992 -1.2744,0.16992 -1.35936,0 -2.37888,-0.50976 -2.9736,-1.61424 -0.25488,-0.4248 -0.4248,-0.93456 -0.4248,-1.44432 0,-0.93456 0.59472,-2.03904 1.52928,-2.9736 1.44432,-1.44432 4.248,-3.22848 7.30656,-4.92768 3.05856,-1.6992 6.11712,-2.9736 8.15616,-3.3984 0.4248,-0.085 0.8496,-0.16992 1.2744,-0.16992 1.35936,0 2.46384,0.50976 3.05856,1.61424 0.25488,0.4248 0.33984,0.93456 0.33984,1.44432 0,0.93456 -0.50976,1.95408 -1.44432,2.9736"
     class="Note" />
  <path
     style="stroke-width:0.8496"
     id="path10302"
     d="m 385.8934,165.45524 c -1.52928,-2.80368 -4.75776,-4.33296 -8.66592,-4.33296 -2.88864,0 -6.03216,0.8496 -9.09072,2.46384 -5.60736,2.9736 -9.00576,7.98624 -9.00576,12.3192 0,1.18944 0.25488,2.37888 0.8496,3.48336 1.52928,2.80368 4.75776,4.248 8.66592,4.248 2.88864,0 6.03216,-0.76464 9.09072,-2.37888 5.60736,-2.9736 9.00576,-7.98624 9.00576,-12.3192 0,-1.18944 -0.25488,-2.37888 -0.8496,-3.48336 m -3.65328,5.77728 c -1.44432,1.44432 -4.33296,3.22848 -7.39152,4.92768 -3.05856,1.6992 -6.11712,2.9736 -8.15616,3.3984 -0.4248,0.085 -0.8496,0.16992 -1.2744,0.16992 -1.35936,0 -2.37888,-0.50976 -2.9736,-1.61424 -0.25488,-0.4248 -0.4248,-0.93456 -0.4248,-1.44432 0,-0.93456 0.59472,-2.03904 1.52928,-2.9736 1.44432,-1.44432 4.248,-3.22848 7.30656,-4.92768 3.05856,-1.6992 6.11712,-2.9736 8.15616,-3.3984 0.4248,-0.085 0.8496,-0.16992 1.2744,-0.16992 1.35936,0 2.46384,0.50976 3.05856,1.61424 0.25488,0.4248 0.33984,0.93456 0.33984,1.44432 0,0.93456 -0.50976,1.95408 -1.44432,2.9736"
     class="Note" />
  <path
     style="stroke-width:0.59472"
     id="path10304"
     d="m 519.86568,178.13977 c -1.0705,-1.96258 -3.33043,-3.03307 -6.06614,-3.03307 -2.02205,0 -4.22252,0.59472 -6.36351,1.72468 -3.92515,2.08152 -6.30403,5.59037 -6.30403,8.62344 0,0.83261 0.17842,1.66522 0.59472,2.43836 1.0705,1.96257 3.33043,2.9736 6.06614,2.9736 2.02205,0 4.22252,-0.53525 6.36351,-1.66522 3.92515,-2.08152 6.30403,-5.59037 6.30403,-8.62344 0,-0.83261 -0.17842,-1.66522 -0.59472,-2.43835"
     class="Note" />
  <path
     style="stroke-width:0.59472"
     id="path10306"
     d="m 498.60868,167.51977 c -1.0705,-1.96258 -3.33043,-3.03307 -6.06614,-3.03307 -2.02205,0 -4.22252,0.59472 -6.36351,1.72468 -3.92515,2.08152 -6.30403,5.59037 -6.30403,8.62344 0,0.83261 0.17842,1.66522 0.59472,2.43836 1.0705,1.96257 3.33043,2.9736 6.06614,2.9736 2.02205,0 4.22252,-0.53525 6.36351,-1.66522 3.92515,-2.08152 6.30403,-5.59037 6.30403,-8.62344 0,-0.83261 -0.17842,-1.66522 -0.59472,-2.43835"
     class="Note" />
  <path
     style="stroke-width:0.59472"
     id="path10308"
     d="m 477.35168,156.89977 c -1.0705,-1.96258 -3.33043,-3.03307 -6.06614,-3.03307 -2.02205,0 -4.22252,0.59472 -6.36351,1.72468 -3.92515,2.08152 -6.30403,5.59037 -6.30403,8.62344 0,0.83261 0.17842,1.66522 0.59472,2.43836 1.0705,1.96257 3.33043,2.9736 6.06614,2.9736 2.02205,0 4.22252,-0.53525 6.36351,-1.66522 3.92515,-2.08152 6.30403,-5.59037 6.30403,-8.62344 0,-0.83261 -0.17842,-1.66522 -0.59472,-2.43835"
     class="Note" />
  <path
     style="stroke-width:0.8496"
     id="path10310"
     d="m 613.7154,154.83524 c -1.52928,-2.80368 -4.75776,-4.33296 -8.66592,-4.33296 -2.88864,0 -6.03216,0.8496 -9.09072,2.46384 -5.60736,2.9736 -9.00576,7.98624 -9.00576,12.3192 0,1.18944 0.25488,2.37888 0.8496,3.48336 1.52928,2.80368 4.75776,4.248 8.66592,4.248 2.88864,0 6.03216,-0.76464 9.09072,-2.37888 5.60736,-2.9736 9.00576,-7.98624 9.00576,-12.3192 0,-1.18944 -0.25488,-2.37888 -0.8496,-3.48336"
     class="Note" />
  <path
     style="stroke-width:0.59472"
     id="path10312"
     d="m 562.36168,167.51977 c -1.0705,-1.96258 -3.33043,-3.03307 -6.06614,-3.03307 -2.02205,0 -4.22252,0.59472 -6.36351,1.72468 -3.92515,2.08152 -6.30403,5.59037 -6.30403,8.62344 0,0.83261 0.17842,1.66522 0.59472,2.43836 1.0705,1.96257 3.33043,2.9736 6.06614,2.9736 2.02205,0 4.22252,-0.53525 6.36351,-1.66522 3.92515,-2.08152 6.30403,-5.59037 6.30403,-8.62344 0,-0.83261 -0.17842,-1.66522 -0.59472,-2.43835"
     class="Note" />
  <path
     style="stroke-width:0.8496"
     id="path10314"
     d="m 756.3424,303.51524 c -1.52928,-2.80368 -4.75776,-4.33296 -8.66592,-4.33296 -2.88864,0 -6.03216,0.8496 -9.09072,2.46384 -5.60736,2.9736 -9.00576,7.98624 -9.00576,12.3192 0,1.18944 0.25488,2.37888 0.8496,3.48336 1.52928,2.80368 4.75776,4.248 8.66592,4.248 2.88864,0 6.03216,-0.76464 9.09072,-2.37888 5.60736,-2.9736 9.00576,-7.98624 9.00576,-12.3192 0,-1.18944 -0.25488,-2.37888 -0.8496,-3.48336"
     class="Note" />
  <path
     style="stroke-width:0.8496"
     id="path10316"
     d="m 756.3424,229.17524 c -1.52928,-2.80368 -4.75776,-4.33296 -8.66592,-4.33296 -2.88864,0 -6.03216,0.8496 -9.09072,2.46384 -5.60736,2.9736 -9.00576,7.98624 -9.00576,12.3192 0,1.18944 0.25488,2.37888 0.8496,3.48336 1.52928,2.80368 4.75776,4.248 8.66592,4.248 2.88864,0 6.03216,-0.76464 9.09072,-2.37888 5.60736,-2.9736 9.00576,-7.98624 9.00576,-12.3192 0,-1.18944 -0.25488,-2.37888 -0.8496,-3.48336"
     class="Note" />
  <path
     style="stroke-width:0.8496"
     id="path10318"
     d="m 756.3424,207.93524 c -1.52928,-2.80368 -4.75776,-4.33296 -8.66592,-4.33296 -2.88864,0 -6.03216,0.8496 -9.09072,2.46384 -5.60736,2.9736 -9.00576,7.98624 -9.00576,12.3192 0,1.18944 0.25488,2.37888 0.8496,3.48336 1.52928,2.80368 4.75776,4.248 8.66592,4.248 2.88864,0 6.03216,-0.76464 9.09072,-2.37888 5.60736,-2.9736 9.00576,-7.98624 9.00576,-12.3192 0,-1.18944 -0.25488,-2.37888 -0.8496,-3.48336"
     class="Note" />
  <path
     style="stroke-width:0.8496"
     id="path10320"
     d="m 756.3424,176.07524 c -1.52928,-2.80368 -4.75776,-4.33296 -8.66592,-4.33296 -2.88864,0 -6.03216,0.8496 -9.09072,2.46384 -5.60736,2.9736 -9.00576,7.98624 -9.00576,12.3192 0,1.18944 0.25488,2.37888 0.8496,3.48336 1.52928,2.80368 4.75776,4.248 8.66592,4.248 2.88864,0 6.03216,-0.76464 9.09072,-2.37888 5.60736,-2.9736 9.00576,-7.98624 9.00576,-12.3192 0,-1.18944 -0.25488,-2.37888 -0.8496,-3.48336"
     class="Note" />
  <path
     style="stroke-width:0.8496"
     id="path10322"
     d="m 871.6424,197.31524 c -1.52928,-2.80368 -4.75776,-4.33296 -8.66592,-4.33296 -2.88864,0 -6.03216,0.8496 -9.09072,2.46384 -5.60736,2.9736 -9.00576,7.98624 -9.00576,12.3192 0,1.18944 0.25488,2.37888 0.8496,3.48336 1.52928,2.80368 4.75776,4.248 8.66592,4.248 2.88864,0 6.03216,-0.76464 9.09072,-2.37888 5.60736,-2.9736 9.00576,-7.98624 9.00576,-12.3192 0,-1.18944 -0.25488,-2.37888 -0.8496,-3.48336"
     class="Note" />
  <path
     style="stroke-width:0.59472"
     id="path10324"
     d="m 830.90368,188.75977 c -1.0705,-1.96258 -3.33043,-3.03307 -6.06614,-3.03307 -2.02205,0 -4.22252,0.59472 -6.36351,1.72468 -3.92515,2.08152 -6.30403,5.59037 -6.30403,8.62344 0,0.83261 0.17842,1.66522 0.59472,2.43836 1.0705,1.96257 3.33043,2.9736 6.06614,2.9736 2.02205,0 4.22252,-0.53525 6.36351,-1.66522 3.92515,-2.08152 6.30403,-5.59037 6.30403,-8.62344 0,-0.83261 -0.17842,-1.66522 -0.59472,-2.43835"
     class="Note" />
  <path
     style="stroke-width:0.8496"
     id="path10326"
     d="m 986.9324,239.79524 c -1.52928,-2.80368 -4.75776,-4.33296 -8.66592,-4.33296 -2.88864,0 -6.03216,0.8496 -9.09072,2.46384 -5.60736,2.9736 -9.00576,7.98624 -9.00576,12.3192 0,1.18944 0.25488,2.37888 0.8496,3.48336 1.52928,2.80368 4.75776,4.248 8.66592,4.248 2.88864,0 6.03216,-0.76464 9.09072,-2.37888 5.60736,-2.9736 9.00576,-7.98624 9.00576,-12.3192 0,-1.18944 -0.25488,-2.37888 -0.8496,-3.48336 m -3.65328,5.77728 c -1.44432,1.44432 -4.33296,3.22848 -7.39152,4.92768 -3.05856,1.6992 -6.11712,2.9736 -8.15616,3.3984 -0.4248,0.085 -0.8496,0.16992 -1.2744,0.16992 -1.35936,0 -2.37888,-0.50976 -2.9736,-1.61424 -0.25488,-0.4248 -0.4248,-0.93456 -0.4248,-1.44432 0,-0.93456 0.59472,-2.03904 1.52928,-2.9736 1.44432,-1.44432 4.248,-3.22848 7.30656,-4.92768 3.05856,-1.6992 6.11712,-2.9736 8.15616,-3.3984 0.4248,-0.085 0.8496,-0.16992 1.2744,-0.16992 1.35936,0 2.46384,0.50976 3.05856,1.61424 0.25488,0.4248 0.33984,0.93456 0.33984,1.44432 0,0.93456 -0.50976,1.95408 -1.44432,2.9736"
     class="Note" />
  <path
     style="stroke-width:0.8496"
     id="path10328"
     d="m 986.9324,186.69524 c -1.52928,-2.80368 -4.75776,-4.33296 -8.66592,-4.33296 -2.88864,0 -6.03216,0.8496 -9.09072,2.46384 -5.60736,2.9736 -9.00576,7.98624 -9.00576,12.3192 0,1.18944 0.25488,2.37888 0.8496,3.48336 1.52928,2.80368 4.75776,4.248 8.66592,4.248 2.88864,0 6.03216,-0.76464 9.09072,-2.37888 5.60736,-2.9736 9.00576,-7.98624 9.00576,-12.3192 0,-1.18944 -0.25488,-2.37888 -0.8496,-3.48336 m -3.65328,5.77728 c -1.44432,1.44432 -4.33296,3.22848 -7.39152,4.92768 -3.05856,1.6992 -6.11712,2.9736 -8.15616,3.3984 -0.4248,0.085 -0.8496,0.16992 -1.2744,0.16992 -1.35936,0 -2.37888,-0.50976 -2.9736,-1.61424 -0.25488,-0.4248 -0.4248,-0.93456 -0.4248,-1.44432 0,-0.93456 0.59472,-2.03904 1.52928,-2.9736 1.44432,-1.44432 4.248,-3.22848 7.30656,-4.92768 3.05856,-1.6992 6.11712,-2.9736 8.15616,-3.3984 0.4248,-0.085 0.8496,-0.16992 1.2744,-0.16992 1.35936,0 2.46384,0.50976 3.05856,1.61424 0.25488,0.4248 0.33984,0.93456 0.33984,1.44432 0,0.93456 -0.50976,1.95408 -1.44432,2.9736"
     class="Note" />
  <path
     style="stroke-width:0.59472"
     id="path10330"
     d="m 1089.3137,167.51977 c -1.0705,-1.96258 -3.3305,-3.03307 -6.0662,-3.03307 -2.022,0 -4.2225,0.59472 -6.3635,1.72468 -3.9251,2.08152 -6.304,5.59037 -6.304,8.62344 0,0.83261 0.1784,1.66522 0.5947,2.43836 1.0705,1.96257 3.3305,2.9736 6.0662,2.9736 2.022,0 4.2225,-0.53525 6.3635,-1.66522 3.9251,-2.08152 6.304,-5.59037 6.304,-8.62344 0,-0.83261 -0.1784,-1.66522 -0.5947,-2.43835"
     class="Note" />
  <path
     style="stroke-width:0.59472"
     id="path10332"
     d="m 1057.4437,178.13977 c -1.0705,-1.96258 -3.3305,-3.03307 -6.0662,-3.03307 -2.022,0 -4.2225,0.59472 -6.3635,1.72468 -3.9251,2.08152 -6.304,5.59037 -6.304,8.62344 0,0.83261 0.1784,1.66522 0.5947,2.43836 1.0705,1.96257 3.3305,2.9736 6.0662,2.9736 2.022,0 4.2225,-0.53525 6.3635,-1.66522 3.9251,-2.08152 6.304,-5.59037 6.304,-8.62344 0,-0.83261 -0.1784,-1.66522 -0.5947,-2.43835"
     class="Note" />
  <path
     style="stroke-width:0.59472"
     id="path10334"
     d="m 939.62368,199.37977 c -1.0705,-1.96258 -3.33043,-3.03307 -6.06614,-3.03307 -2.02205,0 -4.22252,0.59472 -6.36351,1.72468 -3.92515,2.08152 -6.30403,5.59037 -6.30403,8.62344 0,0.83261 0.17842,1.66522 0.59472,2.43836 1.0705,1.96257 3.33043,2.9736 6.06614,2.9736 2.02205,0 4.22252,-0.53525 6.36351,-1.66522 3.92515,-2.08152 6.30403,-5.59037 6.30403,-8.62344 0,-0.83261 -0.17842,-1.66522 -0.59472,-2.43835"
     class="Note" />
  <path
     style="stroke-width:0.8496"
     id="path10336"
     d="m 1211.8524,133.59524 c -1.5293,-2.80368 -4.7578,-4.33296 -8.6659,-4.33296 -2.8887,0 -6.0322,0.8496 -9.0907,2.46384 -5.6074,2.9736 -9.0058,7.98624 -9.0058,12.3192 0,1.18944 0.2549,2.37888 0.8496,3.48336 1.5293,2.80368 4.7578,4.248 8.6659,4.248 2.8887,0 6.0322,-0.76464 9.0907,-2.37888 5.6074,-2.9736 9.0058,-7.98624 9.0058,-12.3192 0,-1.18944 -0.2549,-2.37888 -0.8496,-3.48336"
     class="Note" />
  <path
     style="stroke-width:0.59472"
     id="path10338"
     d="m 1139.2437,156.89977 c -1.0705,-1.96258 -3.3305,-3.03307 -6.0662,-3.03307 -2.022,0 -4.2225,0.59472 -6.3635,1.72468 -3.9251,2.08152 -6.304,5.59037 -6.304,8.62344 0,0.83261 0.1784,1.66522 0.5947,2.43836 1.0705,1.96257 3.3305,2.9736 6.0662,2.9736 2.022,0 4.2225,-0.53525 6.3635,-1.66522 3.9251,-2.08152 6.304,-5.59037 6.304,-8.62344 0,-0.83261 -0.1784,-1.66522 -0.5947,-2.43835"
     class="Note" />
  <path
     style="stroke-width:0.59472"
     id="path10340"
     d="m 1171.1237,146.27977 c -1.0705,-1.96258 -3.3305,-3.03307 -6.0662,-3.03307 -2.022,0 -4.2225,0.59472 -6.3635,1.72468 -3.9251,2.08152 -6.304,5.59037 -6.304,8.62344 0,0.83261 0.1784,1.66522 0.5947,2.43836 1.0705,1.96257 3.3305,2.9736 6.0662,2.9736 2.022,0 4.2225,-0.53525 6.3635,-1.66522 3.9251,-2.08152 6.304,-5.59037 6.304,-8.62344 0,-0.83261 -0.1784,-1.66522 -0.5947,-2.43835"
     class="Note" />
  <path
     style="stroke-width:0.8496"
     id="path10342"
     d="m 1363.8924,144.21524 c -1.5293,-2.80368 -4.7578,-4.33296 -8.6659,-4.33296 -2.8887,0 -6.0322,0.8496 -9.0907,2.46384 -5.6074,2.9736 -9.0058,7.98624 -9.0058,12.3192 0,1.18944 0.2549,2.37888 0.8496,3.48336 1.5293,2.80368 4.7578,4.248 8.6659,4.248 2.8887,0 6.0322,-0.76464 9.0907,-2.37888 5.6074,-2.9736 9.0058,-7.98624 9.0058,-12.3192 0,-1.18944 -0.2549,-2.37888 -0.8496,-3.48336"
     class="Note" />
  <path
     style="stroke-width:0.8496"
     id="path10344"
     d="m 1454.7724,165.45524 c -1.5293,-2.80368 -4.7578,-4.33296 -8.6659,-4.33296 -2.8887,0 -6.0322,0.8496 -9.0907,2.46384 -5.6074,2.9736 -9.0058,7.98624 -9.0058,12.3192 0,1.18944 0.2549,2.37888 0.8496,3.48336 1.5293,2.80368 4.7578,4.248 8.6659,4.248 2.8887,0 6.0322,-0.76464 9.0907,-2.37888 5.6074,-2.9736 9.0058,-7.98624 9.0058,-12.3192 0,-1.18944 -0.2549,-2.37888 -0.8496,-3.48336"
     class="Note" />
  <path
     style="stroke-width:0.59472"
     id="path10346"
     d="m 1418.0937,156.89977 c -1.0705,-1.96258 -3.3305,-3.03307 -6.0662,-3.03307 -2.022,0 -4.2225,0.59472 -6.3635,1.72468 -3.9251,2.08152 -6.304,5.59037 -6.304,8.62344 0,0.83261 0.1784,1.66522 0.5947,2.43836 1.0705,1.96257 3.3305,2.9736 6.0662,2.9736 2.022,0 4.2225,-0.53525 6.3635,-1.66522 3.9251,-2.08152 6.304,-5.59037 6.304,-8.62344 0,-0.83261 -0.1784,-1.66522 -0.5947,-2.43835"
     class="Note" />
  <path
     style="stroke-width:0.8496"
     id="path10348"
     d="m 1547.5424,229.17524 c -1.5293,-2.80368 -4.7578,-4.33296 -8.6659,-4.33296 -2.8887,0 -6.0322,0.8496 -9.0907,2.46384 -5.6074,2.9736 -9.0058,7.98624 -9.0058,12.3192 0,1.18944 0.2549,2.37888 0.8496,3.48336 1.5293,2.80368 4.7578,4.248 8.6659,4.248 2.8887,0 6.0322,-0.76464 9.0907,-2.37888 5.6074,-2.9736 9.0058,-7.98624 9.0058,-12.3192 0,-1.18944 -0.2549,-2.37888 -0.8496,-3.48336 m -3.6533,5.77728 c -1.4443,1.44432 -4.3329,3.22848 -7.3915,4.92768 -3.0586,1.6992 -6.1171,2.9736 -8.1562,3.3984 -0.4248,0.085 -0.8496,0.16992 -1.2744,0.16992 -1.3593,0 -2.3788,-0.50976 -2.9736,-1.61424 -0.2548,-0.4248 -0.4248,-0.93456 -0.4248,-1.44432 0,-0.93456 0.5948,-2.03904 1.5293,-2.9736 1.4443,-1.44432 4.248,-3.22848 7.3066,-4.92768 3.0585,-1.6992 6.1171,-2.9736 8.1561,-3.3984 0.4248,-0.085 0.8496,-0.16992 1.2744,-0.16992 1.3594,0 2.4639,0.50976 3.0586,1.61424 0.2549,0.4248 0.3398,0.93456 0.3398,1.44432 0,0.93456 -0.5097,1.95408 -1.4443,2.9736"
     class="Note" />
  <path
     style="stroke-width:0.8496"
     id="path10350"
     d="m 1547.5424,197.31524 c -1.5293,-2.80368 -4.7578,-4.33296 -8.6659,-4.33296 -2.8887,0 -6.0322,0.8496 -9.0907,2.46384 -5.6074,2.9736 -9.0058,7.98624 -9.0058,12.3192 0,1.18944 0.2549,2.37888 0.8496,3.48336 1.5293,2.80368 4.7578,4.248 8.6659,4.248 2.8887,0 6.0322,-0.76464 9.0907,-2.37888 5.6074,-2.9736 9.0058,-7.98624 9.0058,-12.3192 0,-1.18944 -0.2549,-2.37888 -0.8496,-3.48336 m -3.6533,5.77728 c -1.4443,1.44432 -4.3329,3.22848 -7.3915,4.92768 -3.0586,1.6992 -6.1171,2.9736 -8.1562,3.3984 -0.4248,0.085 -0.8496,0.16992 -1.2744,0.16992 -1.3593,0 -2.3788,-0.50976 -2.9736,-1.61424 -0.2548,-0.4248 -0.4248,-0.93456 -0.4248,-1.44432 0,-0.93456 0.5948,-2.03904 1.5293,-2.9736 1.4443,-1.44432 4.248,-3.22848 7.3066,-4.92768 3.0585,-1.6992 6.1171,-2.9736 8.1561,-3.3984 0.4248,-0.085 0.8496,-0.16992 1.2744,-0.16992 1.3594,0 2.4639,0.50976 3.0586,1.61424 0.2549,0.4248 0.3398,0.93456 0.3398,1.44432 0,0.93456 -0.5097,1.95408 -1.4443,2.9736"
     class="Note" />
  <path
     style="stroke-width:0.8496"
     id="path10352"
     d="m 1547.5424,154.83524 c -1.5293,-2.80368 -4.7578,-4.33296 -8.6659,-4.33296 -2.8887,0 -6.0322,0.8496 -9.0907,2.46384 -5.6074,2.9736 -9.0058,7.98624 -9.0058,12.3192 0,1.18944 0.2549,2.37888 0.8496,3.48336 1.5293,2.80368 4.7578,4.248 8.6659,4.248 2.8887,0 6.0322,-0.76464 9.0907,-2.37888 5.6074,-2.9736 9.0058,-7.98624 9.0058,-12.3192 0,-1.18944 -0.2549,-2.37888 -0.8496,-3.48336 m -3.6533,5.77728 c -1.4443,1.44432 -4.3329,3.22848 -7.3915,4.92768 -3.0586,1.6992 -6.1171,2.9736 -8.1562,3.3984 -0.4248,0.085 -0.8496,0.16992 -1.2744,0.16992 -1.3593,0 -2.3788,-0.50976 -2.9736,-1.61424 -0.2548,-0.4248 -0.4248,-0.93456 -0.4248,-1.44432 0,-0.93456 0.5948,-2.03904 1.5293,-2.9736 1.4443,-1.44432 4.248,-3.22848 7.3066,-4.92768 3.0585,-1.6992 6.1171,-2.9736 8.1561,-3.3984 0.4248,-0.085 0.8496,-0.16992 1.2744,-0.16992 1.3594,0 2.4639,0.50976 3.0586,1.61424 0.2549,0.4248 0.3398,0.93456 0.3398,1.44432 0,0.93456 -0.5097,1.95408 -1.4443,2.9736"
     class="Note" />
  <path
     style="stroke-width:0.8496"
     id="path10354"
     d="m 1750.5224,144.21524 c -1.5293,-2.80368 -4.7578,-4.33296 -8.6659,-4.33296 -2.8887,0 -6.0322,0.8496 -9.0907,2.46384 -5.6074,2.9736 -9.0058,7.98624 -9.0058,12.3192 0,1.18944 0.2549,2.37888 0.8496,3.48336 1.5293,2.80368 4.7578,4.248 8.6659,4.248 2.8887,0 6.0322,-0.76464 9.0907,-2.37888 5.6074,-2.9736 9.0058,-7.98624 9.0058,-12.3192 0,-1.18944 -0.2549,-2.37888 -0.8496,-3.48336"
     class="Note" />
  <path
     style="stroke-width:0.8496"
     id="path10356"
     d="m 1869.4224,154.83524 c -1.5293,-2.80368 -4.7578,-4.33296 -8.6659,-4.33296 -2.8887,0 -6.0322,0.8496 -9.0907,2.46384 -5.6074,2.9736 -9.0058,7.98624 -9.0058,12.3192 0,1.18944 0.2549,2.37888 0.8496,3.48336 1.5293,2.80368 4.7578,4.248 8.6659,4.248 2.8887,0 6.0322,-0.76464 9.0907,-2.37888 5.6074,-2.9736 9.0058,-7.98624 9.0058,-12.3192 0,-1.18944 -0.2549,-2.37888 -0.8496,-3.48336"
     class="Note" />
  <path
     style="stroke-width:0.8496"
     id="path10358"
     d="m 1946.9324,165.45524 c -1.5293,-2.80368 -4.7578,-4.33296 -8.6659,-4.33296 -2.8887,0 -6.0322,0.8496 -9.0907,2.46384 -5.6074,2.9736 -9.0058,7.98624 -9.0058,12.3192 0,1.18944 0.2549,2.37888 0.8496,3.48336 1.5293,2.80368 4.7578,4.248 8.6659,4.248 2.8887,0 6.0322,-0.76464 9.0907,-2.37888 5.6074,-2.9736 9.0058,-7.98624 9.0058,-12.3192 0,-1.18944 -0.2549,-2.37888 -0.8496,-3.48336"
     class="Note" />
  <path
     style="stroke-width:0.59472"
     id="path10360"
     d="m 2048.2537,167.51977 c -1.0705,-1.96258 -3.3305,-3.03307 -6.0662,-3.03307 -2.022,0 -4.2225,0.59472 -6.3635,1.72468 -3.9251,2.08152 -6.304,5.59037 -6.304,8.62344 0,0.83261 0.1784,1.66522 0.5947,2.43836 1.0705,1.96257 3.3305,2.9736 6.0662,2.9736 2.022,0 4.2225,-0.53525 6.3635,-1.66522 3.9251,-2.08152 6.304,-5.59037 6.304,-8.62344 0,-0.83261 -0.1784,-1.66522 -0.5947,-2.43835"
     class="Note" />
  <path
     style="stroke-width:0.59472"
     id="path10362"
     d="m 2026.9937,178.13977 c -1.0705,-1.96258 -3.3305,-3.03307 -6.0662,-3.03307 -2.022,0 -4.2225,0.59472 -6.3635,1.72468 -3.9251,2.08152 -6.304,5.59037 -6.304,8.62344 0,0.83261 0.1784,1.66522 0.5947,2.43836 1.0705,1.96257 3.3305,2.9736 6.0662,2.9736 2.022,0 4.2225,-0.53525 6.3635,-1.66522 3.9251,-2.08152 6.304,-5.59037 6.304,-8.62344 0,-0.83261 -0.1784,-1.66522 -0.5947,-2.43835"
     class="Note" />
  <path
     style="stroke-width:0.59472"
     id="path10364"
     d="m 2005.7437,167.51977 c -1.0705,-1.96258 -3.3305,-3.03307 -6.0662,-3.03307 -2.022,0 -4.2225,0.59472 -6.3635,1.72468 -3.9251,2.08152 -6.304,5.59037 -6.304,8.62344 0,0.83261 0.1784,1.66522 0.5947,2.43836 1.0705,1.96257 3.3305,2.9736 6.0662,2.9736 2.022,0 4.2225,-0.53525 6.3635,-1.66522 3.9251,-2.08152 6.304,-5.59037 6.304,-8.62344 0,-0.83261 -0.1784,-1.66522 -0.5947,-2.43835"
     class="Note" />
  <path
     style="stroke-width:0.59472"
     id="path10366"
     d="m 1984.4837,156.89977 c -1.0705,-1.96258 -3.3305,-3.03307 -6.0662,-3.03307 -2.022,0 -4.2225,0.59472 -6.3635,1.72468 -3.9251,2.08152 -6.304,5.59037 -6.304,8.62344 0,0.83261 0.1784,1.66522 0.5947,2.43836 1.0705,1.96257 3.3305,2.9736 6.0662,2.9736 2.022,0 4.2225,-0.53525 6.3635,-1.66522 3.9251,-2.08152 6.304,-5.59037 6.304,-8.62344 0,-0.83261 -0.1784,-1.66522 -0.5947,-2.43835"
     class="Note" />
  <path
     style="stroke-width:0.8496"
     id="path10368"
     d="m 2088.1624,154.83524 c -1.5293,-2.80368 -4.7578,-4.33296 -8.6659,-4.33296 -2.8887,0 -6.0322,0.8496 -9.0907,2.46384 -5.6074,2.9736 -9.0058,7.98624 -9.0058,12.3192 0,1.18944 0.2549,2.37888 0.8496,3.48336 1.5293,2.80368 4.7578,4.248 8.6659,4.248 2.8887,0 6.0322,-0.76464 9.0907,-2.37888 5.6074,-2.9736 9.0058,-7.98624 9.0058,-12.3192 0,-1.18944 -0.2549,-2.37888 -0.8496,-3.48336"
     class="Note" />
  <path
     style="stroke-width:0.8496"
     id="path10370"
     d="m 2155.0524,176.07524 c -1.5293,-2.80368 -4.7578,-4.33296 -8.6659,-4.33296 -2.8887,0 -6.0322,0.8496 -9.0907,2.46384 -5.6074,2.9736 -9.0058,7.98624 -9.0058,12.3192 0,1.18944 0.2549,2.37888 0.8496,3.48336 1.5293,2.80368 4.7578,4.248 8.6659,4.248 2.8887,0 6.0322,-0.76464 9.0907,-2.37888 5.6074,-2.9736 9.0058,-7.98624 9.0058,-12.3192 0,-1.18944 -0.2549,-2.37888 -0.8496,-3.48336"
     class="Note" />
  <path
     style="stroke-width:0.8496"
     id="path10372"
     d="m 2221.9324,165.45524 c -1.5293,-2.80368 -4.7578,-4.33296 -8.6659,-4.33296 -2.8887,0 -6.0322,0.8496 -9.0907,2.46384 -5.6074,2.9736 -9.0058,7.98624 -9.0058,12.3192 0,1.18944 0.2549,2.37888 0.8496,3.48336 1.5293,2.80368 4.7578,4.248 8.6659,4.248 2.8887,0 6.0322,-0.76464 9.0907,-2.37888 5.6074,-2.9736 9.0058,-7.98624 9.0058,-12.3192 0,-1.18944 -0.2549,-2.37888 -0.8496,-3.48336 m -3.6533,5.77728 c -1.4443,1.44432 -4.3329,3.22848 -7.3915,4.92768 -3.0586,1.6992 -6.1171,2.9736 -8.1562,3.3984 -0.4248,0.085 -0.8496,0.16992 -1.2744,0.16992 -1.3593,0 -2.3788,-0.50976 -2.9736,-1.61424 -0.2548,-0.4248 -0.4248,-0.93456 -0.4248,-1.44432 0,-0.93456 0.5948,-2.03904 1.5293,-2.9736 1.4443,-1.44432 4.248,-3.22848 7.3066,-4.92768 3.0585,-1.6992 6.1171,-2.9736 8.1561,-3.3984 0.4248,-0.085 0.8496,-0.16992 1.2744,-0.16992 1.3594,0 2.4639,0.50976 3.0586,1.61424 0.2549,0.4248 0.3398,0.93456 0.3398,1.44432 0,0.93456 -0.5097,1.95408 -1.4443,2.9736"
     class="Note" />
  <path
     style="stroke-width:0.8496"
     id="path10524"
     d="m 24.2136,164.35076 h -6.11712 c -0.59472,0 -1.10448,0.50976 -1.10448,1.10448 v 77.3136 c 0,0.59472 0.50976,1.10448 1.10448,1.10448 h 6.11712 c 0.59472,0 1.10448,-0.50976 1.10448,-1.10448 v -77.3136 c 0,-0.59472 -0.50976,-1.10448 -1.10448,-1.10448 m 30.5856,43.24464 h -1.2744 c -1.95408,0 -3.3984,0.16992 -6.71184,2.20896 0,0 -1.86912,-3.73824 -4.6728,-5.69232 2.80368,-1.95408 4.6728,-5.69232 4.6728,-5.69232 3.31344,2.03904 4.75776,2.20896 6.71184,2.20896 h 1.2744 c 10.36512,0 15.46272,-9.60048 15.46272,-18.77616 0,-11.8944 -8.75088,-18.60624 -19.03104,-18.60624 -9.3456,0 -13.25376,4.6728 -13.25376,4.6728 -1.52928,1.86912 -2.20896,3.90816 -2.20896,5.77728 0,1.52928 0.4248,2.9736 1.2744,4.248 1.18944,1.6992 3.56832,2.63376 5.77728,2.63376 1.52928,0 2.9736,-0.4248 3.99312,-1.2744 1.44432,-1.2744 2.37888,-3.14352 2.37888,-5.18256 0,-1.18944 -0.33984,-2.37888 -0.93456,-3.48336 -1.35936,-2.46384 -3.90816,-2.80368 -5.26752,-2.80368 -0.50976,0 -0.93456,0.085 -0.93456,0.085 1.95408,-1.35936 4.58784,-2.124 7.2216,-2.124 2.37888,0 4.6728,0.59472 6.28704,1.78416 2.9736,2.20896 4.07808,6.88176 4.07808,12.99888 0,6.54192 -0.16992,16.05744 -7.6464,16.05744 -7.47648,0 -9.17568,-8.9208 -9.17568,-8.9208 0,0 0,-1.18944 -1.18944,-1.18944 -1.18944,0 -1.2744,1.18944 -1.2744,1.18944 0,0 -0.67968,4.33296 -2.9736,9.60048 -1.35936,3.14352 -3.3984,4.58784 -4.84272,5.18256 v -37.04256 c 0,-0.59472 -0.4248,-1.10448 -1.01952,-1.10448 -0.59472,0 -1.10448,0.50976 -1.10448,1.10448 v 77.3136 c 0,0.59472 0.50976,1.10448 1.10448,1.10448 0.59472,0 1.01952,-0.50976 1.01952,-1.10448 v -37.04256 c 1.44432,0.59472 3.48336,2.03904 4.84272,5.18256 2.29392,5.26752 2.9736,9.68544 2.9736,9.68544 0,0 0.08496,1.10448 1.2744,1.10448 1.18944,0 1.18944,-1.10448 1.18944,-1.10448 0,0 1.6992,-9.00576 9.17568,-9.00576 7.47648,0 7.6464,9.51552 7.6464,16.05744 0,6.11712 -1.10448,10.78992 -4.07808,12.99888 -1.61424,1.18944 -3.90816,1.78416 -6.28704,1.78416 -2.63376,0 -5.26752,-0.76464 -7.2216,-2.124 0,0 0.4248,0.085 0.93456,0.085 1.35936,0 3.90816,-0.33984 5.26752,-2.80368 0.59472,-1.10448 0.93456,-2.29392 0.93456,-3.48336 0,-2.03904 -0.93456,-3.90816 -2.37888,-5.18256 -1.01952,-0.8496 -2.46384,-1.2744 -3.99312,-1.2744 -2.20896,0 -4.58784,0.93456 -5.77728,2.63376 -0.8496,1.2744 -1.2744,2.71872 -1.2744,4.248 0,1.86912 0.67968,3.90816 2.20896,5.77728 0,0 3.90816,4.6728 13.25376,4.6728 10.28016,0 19.03104,-6.71184 19.03104,-18.60624 0,-9.17568 -5.0976,-18.77616 -15.46272,-18.77616"
     class="Clef" />
  <path
     style="stroke-width:0.8496"
     id="path10532"
     d="m 132.53368,195.19124 c 0.50976,-0.085 0.93456,-0.67968 0.93456,-1.18944 v -5.01264 c 0,-0.67968 -0.50976,-1.18944 -1.18944,-1.18944 h -0.16992 l -2.80368,0.59472 V 175.7354 h -2.37888 v 13.1688 l -7.56144,1.52928 V 178.45412 H 116.986 v 12.48912 l -3.31344,0.67968 c -0.50976,0.085 -0.93456,0.67968 -0.93456,1.18944 v 0.16992 4.92768 -0.16992 c 0,0.67968 0.50976,1.18944 1.18944,1.18944 h 0.25488 l 2.80368,-0.59472 v 14.0184 l -3.31344,0.67968 c -0.50976,0.085 -0.93456,0.67968 -0.93456,1.18944 v 4.92768 c 0,0.67968 0.50976,1.18944 1.18944,1.18944 h 0.25488 l 2.80368,-0.59472 v 12.65904 h 2.37888 v -13.1688 l 7.56144,-1.52928 V 229.685 h 2.37888 v -12.48912 l 3.22848,-0.59472 c 0.50976,-0.085 0.93456,-0.67968 0.93456,-1.18944 v -5.01264 c 0,-0.67968 -0.50976,-1.18944 -1.18944,-1.18944 h -0.16992 l -2.80368,0.59472 v -14.0184 l 3.22848,-0.59472 m -13.1688,16.73712 V 197.825 l 7.56144,-1.52928 v 14.0184 l -7.56144,1.61424"
     class="KeySig" />
  <path
     style="stroke-width:0.8496"
     id="path10534"
     d="m 111.29368,237.67124 c 0.50976,-0.085 0.93456,-0.67968 0.93456,-1.18944 v -5.01264 c 0,-0.67968 -0.50976,-1.18944 -1.18944,-1.18944 h -0.16992 l -2.80368,0.59472 V 218.2154 h -2.37888 v 13.1688 l -7.56144,1.52928 V 220.93412 H 95.746 v 12.48912 l -3.31344,0.67968 c -0.50976,0.085 -0.93456,0.67968 -0.93456,1.18944 v 0.16992 4.92768 -0.16992 c 0,0.67968 0.50976,1.18944 1.18944,1.18944 h 0.25488 l 2.80368,-0.59472 v 14.0184 l -3.31344,0.67968 c -0.50976,0.085 -0.93456,0.67968 -0.93456,1.18944 v 4.92768 c 0,0.67968 0.50976,1.18944 1.18944,1.18944 h 0.25488 l 2.80368,-0.59472 v 12.65904 h 2.37888 v -13.1688 l 7.56144,-1.52928 V 272.165 h 2.37888 v -12.48912 l 3.22848,-0.59472 c 0.50976,-0.085 0.93456,-0.67968 0.93456,-1.18944 v -5.01264 c 0,-0.67968 -0.50976,-1.18944 -1.18944,-1.18944 h -0.16992 l -2.80368,0.59472 v -14.0184 l 3.22848,-0.59472 m -13.1688,16.73712 V 240.305 l 7.56144,-1.52928 v 14.0184 l -7.56144,1.61424"
     class="KeySig" />
  <path
     style="stroke-width:0.8496"
     id="path10544"
     d="m 176.93681,203.26264 h 0.16992 c 6.7968,-2.63376 7.2216,-7.05168 7.2216,-8.58096 v -0.4248 c 0,-0.76464 -0.25488,-10.36512 -14.868,-10.36512 -14.61313,0 -14.18833,10.36512 -14.18833,10.36512 h 0.085 l -0.085,0.16992 c 0,3.05856 2.46384,5.43744 5.5224,5.43744 3.05857,0 5.43745,-2.37888 5.43745,-5.43744 0,-2.46384 -1.86912,-4.84272 -4.24801,-5.35248 l 0.25488,-0.25488 c 1.18945,-0.8496 2.80369,-1.2744 4.41793,-1.2744 3.56832,0 7.39152,2.124 7.39152,6.71184 0,5.35248 -3.99312,6.11712 -5.01264,6.28704 -1.01952,0.16992 -5.77728,0.50976 -6.79681,0.50976 -1.01952,0 -1.10448,1.18944 -1.10448,1.18944 v 1.6992 c 0,0 0.16992,0.93456 1.10448,1.01952 1.44433,0.085 3.39841,0.085 6.11713,0.50976 3.73824,0.50976 5.69232,3.05856 5.69232,9.00576 0,5.69232 -3.8232,7.2216 -7.39152,7.2216 -2.37888,0 -4.58785,-0.67968 -5.52241,-1.35936 2.80369,-0.16992 5.09761,-2.63376 5.09761,-5.43744 0,-3.05856 -2.37888,-5.5224 -5.43745,-5.5224 -3.05856,0 -5.5224,2.46384 -5.5224,5.5224 0,0 -0.4248,3.8232 3.31344,7.30656 3.31344,3.05856 7.47649,3.14352 9.34561,3.14352 8.15616,0 16.992,-2.80368 16.992,-12.06432 0,-6.20208 -4.248,-8.83584 -7.98624,-10.02528"
     class="TimeSig" />
  <path
     style="stroke-width:0.8496"
     id="path10546"
     d="m 182.49532,249.56544 c -0.67968,1.86912 -2.37888,7.98624 -6.54192,7.98624 -5.5224,0 -6.71184,-3.3984 -11.29968,-3.3984 -0.67968,0 -1.35936,0.085 -2.20896,0.25488 0,0 2.124,-3.22848 11.12976,-6.03216 9.00576,-2.80368 11.29968,-7.2216 11.29968,-12.3192 0,-3.56832 -1.61424,-10.62 -14.4432,-10.62 -12.82896,0 -15.20784,7.73136 -15.20784,11.63952 0,3.48336 2.88864,6.28704 6.372,6.28704 3.48336,0 6.28704,-2.80368 6.28704,-6.28704 0,-2.37888 -1.6992,-5.01264 -3.90816,-5.86224 -0.25488,-0.085 -0.59472,-0.50976 -0.59472,-0.93456 0,-0.50976 0.4248,-1.10448 1.95408,-1.52928 0.4248,-0.16992 1.61424,-0.4248 2.88864,-0.4248 1.18944,0 2.5488,0.25488 3.56832,0.93456 1.61424,1.01952 2.20896,2.5488 2.20896,6.372 0,9.94032 -11.80944,12.06432 -16.73712,19.45584 0,0 -2.5488,3.56832 -2.5488,7.56144 0,3.99312 2.03904,4.248 3.05856,4.248 1.35936,0 2.80368,-1.10448 2.80368,-2.63376 0,-0.33984 -0.085,-0.67968 -0.25488,-1.10448 -0.50976,-1.18944 -0.67968,-2.124 -0.67968,-2.80368 0,-0.25488 0,-0.50976 0.085,-0.76464 0.085,-0.50976 0.76464,-1.35936 2.80368,-1.35936 2.46384,0 3.3984,2.88864 4.92768,5.0976 1.52928,2.20896 3.90816,3.56832 6.62688,3.56832 2.71872,0 6.372,-1.95408 7.90128,-5.0976 1.52928,-3.14352 3.48336,-9.51552 3.48336,-11.80944 0,-1.10448 -0.67968,-1.61424 -1.44432,-1.61424 -0.59472,0 -1.18944,0.33984 -1.52928,1.18944"
     class="TimeSig" />
  <path
     style="stroke-width:0.8496"
     id="path10552"
     d="m 994.06608,117.8328 -2.03904,-1.2744 -5.01264,8.0712 -6.7968,-10.70496 c -0.16992,-0.33984 -0.67968,-0.59472 -1.01952,-0.59472 -0.33984,0 -0.76464,0.25488 -0.93456,0.59472 l -2.9736,5.01264 v -10.1952 c 0,-0.67968 -0.50976,-1.18944 -1.18944,-1.18944 h -0.67968 c -0.67968,0 -1.18944,0.50976 -1.18944,1.18944 v 15.46272 l -0.085,0.085 -6.28704,-10.36512 c -0.16992,-0.33984 -0.67968,-0.59472 -1.01952,-0.59472 -0.33984,0 -0.8496,0.25488 -1.01952,0.59472 l -9.94032,16.39728 2.03904,1.2744 5.01264,-8.32608 6.28704,10.53504 c 0.16992,0.33984 0.67968,0.59472 1.01952,0.59472 0.33984,0 0.8496,-0.25488 1.01952,-0.59472 l 2.9736,-5.01264 v 10.95984 c 0,0.67968 0.50976,1.18944 1.18944,1.18944 h 0.67968 c 0.67968,0 1.18944,-0.50976 1.18944,-1.18944 v -16.22736 l 0.16992,-0.25488 6.62688,10.53504 c 0.16992,0.33984 0.67968,0.59472 1.01952,0.59472 0.33984,0 0.8496,-0.25488 1.01952,-0.59472 l 9.94032,-15.97248"
     class="Articulation" />
  <path
     style="stroke-width:0.59472"
     id="path10554"
     d="m 1056.0427,46.326936 c -0.1189,-0.178416 -0.4758,-0.356832 -0.7136,-0.356832 h -0.8327 c -0.2973,0 -0.6541,0.237888 -0.7731,0.535248 l -5.3525,14.986944 -5.3524,-14.986944 c -0.119,-0.29736 -0.4758,-0.535248 -0.7732,-0.535248 h -0.8326 c -0.4758,0 -0.8326,0.356832 -0.8326,0.832608 0,0.05947 0.06,0.237888 0.06,0.29736 l 6.9582,18.73368 c 0.1189,0.29736 0.4758,0.535248 0.7731,0.535248 0.2974,0 0.6542,-0.237888 0.7732,-0.535248 l 6.9582,-18.73368 c 0,-0.05947 0.06,-0.237888 0.06,-0.29736 0,-0.118944 -0.06,-0.356832 -0.119,-0.475776"
     class="Articulation" />
  <path
     style="stroke-width:0.8496"
     id="path10556"
     d="m 2087.4379,124.07148 h -24.4685 c -0.6796,0 -1.1894,0.50976 -1.1894,1.18944 v 1.52928 c 0,0.67968 0.5098,1.18944 1.1894,1.18944 h 24.4685 c 0.6797,0 1.1895,-0.50976 1.1895,-1.18944 v -1.52928 c 0,-0.67968 -0.5098,-1.18944 -1.1895,-1.18944 m -14.5772,14.92442 c 1.294,1.29398 3.392,1.29398 4.6859,0 1.294,-1.29398 1.294,-3.39193 0,-4.68591 -1.2939,-1.29398 -3.3919,-1.29398 -4.6859,0 -1.294,1.29398 -1.294,3.39193 0,4.68591"
     class="Articulation" />
  <path
     style="stroke-width:0.8496"
     id="path10558"
     d="m 2154.3279,145.31148 h -24.4685 c -0.6796,0 -1.1894,0.50976 -1.1894,1.18944 v 1.52928 c 0,0.67968 0.5098,1.18944 1.1894,1.18944 h 24.4685 c 0.6797,0 1.1895,-0.50976 1.1895,-1.18944 v -1.52928 c 0,-0.67968 -0.5098,-1.18944 -1.1895,-1.18944 m -14.5772,14.92442 c 1.294,1.29398 3.392,1.29398 4.6859,0 1.294,-1.29398 1.294,-3.39193 0,-4.68591 -1.2939,-1.29398 -3.3919,-1.29398 -4.6859,0 -1.294,1.29398 -1.294,3.39193 0,4.68591"
     class="Articulation" />
  <path
     style="stroke-width:0.8496"
     id="path10560"
     d="m 2219.9396,63.37848 c -0.1699,-0.25488 -0.6797,-0.50976 -1.0195,-0.50976 h -1.1895 c -0.4248,0 -0.9345,0.33984 -1.1044,0.76464 l -7.6464,21.40992 -7.6464,-21.40992 c -0.17,-0.4248 -0.6797,-0.76464 -1.1045,-0.76464 h -1.1895 c -0.6796,0 -1.1894,0.50976 -1.1894,1.18944 0,0.08496 0.085,0.33984 0.085,0.4248 l 9.9403,26.7624 c 0.1699,0.4248 0.6797,0.76464 1.1045,0.76464 0.4248,0 0.9345,-0.33984 1.1044,-0.76464 l 9.9404,-26.7624 c 0,-0.08496 0.085,-0.33984 0.085,-0.4248 0,-0.16992 -0.085,-0.50976 -0.1699,-0.67968"
     class="Articulation" />
  <path
     style="stroke-width:0.8496"
     id="path10562"
     d="m 2221.2079,134.49248 h -24.4685 c -0.6796,0 -1.1894,0.50976 -1.1894,1.18944 v 1.52928 c 0,0.67968 0.5098,1.18944 1.1894,1.18944 h 24.4685 c 0.6797,0 1.1895,-0.50976 1.1895,-1.18944 v -1.52928 c 0,-0.67968 -0.5098,-1.18944 -1.1895,-1.18944 m -14.5772,14.92442 c 1.294,1.29398 3.392,1.29398 4.6859,0 1.294,-1.29398 1.294,-3.39193 0,-4.68591 -1.2939,-1.29398 -3.3919,-1.29398 -4.6859,0 -1.294,1.29398 -1.294,3.39193 0,4.68591"
     class="Articulation" />
  <path
     id="path10592"
     d="m 476.307,108.955 44.148,22.057 v 8.31 l -44.148,-22.057 v -8.31"
     fill-rule="evenodd"
     class="Beam" />
  <path
     id="path10594"
     d="m 476.307,120.106 44.148,22.057 v 8.31 l -44.148,-22.057 v -8.31"
     fill-rule="evenodd"
     class="Beam" />
  <path
     id="path10596"
     d="m 1056.39,115.741 33.52,-5.582 v 7.536 l -33.52,5.583 v -7.537"
     fill-rule="evenodd"
     class="Beam" />
  <path
     id="path10598"
     d="m 1056.39,126.892 33.52,-5.582 v 7.536 l -33.52,5.583 v -7.537"
     fill-rule="evenodd"
     class="Beam" />
  <path
     id="path10600"
     d="m 1138.2,94.501 33.51,-5.582 v 7.536 l -33.51,5.583 v -7.537"
     fill-rule="evenodd"
     class="Beam" />
  <path
     id="path10602"
     d="m 1138.2,105.652 33.51,-5.582 v 7.536 l -33.51,5.583 v -7.537"
     fill-rule="evenodd"
     class="Beam" />
  <path
     id="path10604"
     d="m 1983.44,94.131 65.4,5.446 v 7.46 l -65.4,-5.446 v -7.46"
     fill-rule="evenodd"
     class="Beam" />
  <path
     id="path10606"
     d="m 1983.44,105.282 65.4,5.446 v 7.46 l -65.4,-5.446 v -7.46"
     fill-rule="evenodd"
     class="Beam" />
  <path
     id="path10608"
     d="m 1983.44,116.433 65.4,5.446 v 7.46 l -65.4,-5.446 v -7.46"
     fill-rule="evenodd"
     class="Beam" />
  <path
     style="stroke-width:0.59472"
     id="path10638"
     d="m 545.1148,224.61289 c 0,-0.11895 0.53525,-2.14099 0.59472,-2.31941 0.0595,-0.23789 1.12997,-3.62779 3.33043,-7.0177 1.60575,-2.49782 7.25559,-9.81288 7.07717,-9.81288 0,0 4.40093,-5.64984 4.69829,-13.32172 v -1.36786 c 0,-3.62779 -0.47578,-8.74238 -2.5573,-13.91645 -0.23789,-0.59472 -0.47577,-1.18944 -1.12997,-0.95155 -0.65419,0.23789 -0.47577,0.95155 -0.29736,1.60574 1.0705,4.16304 1.66522,8.44503 1.66522,12.72701 0,4.99565 -1.78416,7.49347 -2.85466,9.33711 -3.92515,6.60139 -9.03974,9.81288 -11.53756,10.64548 -0.29736,0.11895 -0.47578,0.35684 -0.47578,0.6542 v 3.68726 9.75341 c 0,0.4163 0.35683,0.77313 0.77314,0.77313 0.29736,0 0.65419,-0.23788 0.71366,-0.47577"
     class="Hook" />
  <path
     style="stroke-width:0.59472"
     id="path10640"
     d="m 813.6568,245.85289 c 0,-0.11895 0.53525,-2.14099 0.59472,-2.31941 0.0595,-0.23789 1.12997,-3.62779 3.33043,-7.0177 1.60575,-2.49782 7.25559,-9.81288 7.07717,-9.81288 0,0 4.40093,-5.64984 4.69829,-13.32172 v -1.36786 c 0,-3.62779 -0.47578,-8.74238 -2.5573,-13.91645 -0.23789,-0.59472 -0.47577,-1.18944 -1.12997,-0.95155 -0.65419,0.23789 -0.47577,0.95155 -0.29736,1.60574 1.0705,4.16304 1.66522,8.44503 1.66522,12.72701 0,4.99565 -1.78416,7.49347 -2.85466,9.33711 -3.92515,6.60139 -9.03974,9.81288 -11.53756,10.64548 -0.29736,0.11895 -0.47578,0.35684 -0.47578,0.6542 v 3.68726 9.75341 c 0,0.4163 0.35683,0.77313 0.77314,0.77313 0.29736,0 0.65419,-0.23788 0.71366,-0.47577"
     class="Hook" />
  <path
     style="stroke-width:0.59472"
     id="path10642"
     d="m 940.66152,154.24052 c -0.0595,-0.17842 -0.59472,-2.25994 -0.59472,-2.37888 -0.0595,-0.23789 -0.4163,-0.4163 -0.71366,-0.4163 -0.41631,0 -0.77314,0.35683 -0.77314,0.77313 v 9.75341 3.68726 c 0,0.29736 0.23789,0.53525 0.47578,0.6542 2.49782,0.77313 7.67188,4.04409 11.53756,10.64548 1.0705,1.84364 2.79519,4.34146 2.79519,9.33711 0,4.28198 -0.65419,8.80185 -1.72469,12.96489 -0.17842,0.6542 -0.35683,1.24892 0.29736,1.4868 0.65419,0.23789 0.89208,-0.23788 1.12997,-0.8326 2.14099,-5.23354 2.67624,-10.70496 2.67624,-14.39223 v -1.12997 c -0.29736,-7.67188 -4.69829,-13.32172 -4.69829,-13.32172 0.17842,0 -5.47142,-7.31506 -7.07717,-9.81288 -2.20046,-3.38991 -3.27096,-6.77981 -3.33043,-7.0177"
     class="Hook" />
  <path
     style="stroke-width:0.59472"
     id="path10644"
     d="m 1419.1315,111.76052 c -0.06,-0.17842 -0.5947,-2.25994 -0.5947,-2.37888 -0.06,-0.23789 -0.4163,-0.4163 -0.7137,-0.4163 -0.4163,0 -0.7731,0.35683 -0.7731,0.77313 v 9.75341 3.68726 c 0,0.29736 0.2379,0.53525 0.4758,0.6542 2.4978,0.77313 7.6719,4.04409 11.5375,10.64548 1.0705,1.84364 2.7952,4.34146 2.7952,9.33711 0,4.28198 -0.6542,8.80185 -1.7247,12.96489 -0.1784,0.6542 -0.3568,1.24892 0.2974,1.4868 0.6542,0.23789 0.8921,-0.23788 1.13,-0.8326 2.141,-5.23354 2.6762,-10.70496 2.6762,-14.39223 v -1.12997 c -0.2974,-7.67188 -4.6983,-13.32172 -4.6983,-13.32172 0.1784,0 -5.4714,-7.31506 -7.0771,-9.81288 -2.2005,-3.38991 -3.271,-6.77981 -3.3305,-7.0177"
     class="Hook" />
  <path
     id="path10660"
     d="m 1351.76,110.093 c -1.16,1.394 -4.29,2.448 -7.42,2.516 v 1.462 h 3 c 1.97,0.034 2.17,0.238 2.1,2.142 v 13.634 c 0,1.734 0,1.802 -0.2,2.108 -0.27,0.34 -0.92,0.476 -2.82,0.476 h -2.21 v 1.598 h 13.46 v -1.598 h -1.87 c -1.9,0 -2.55,-0.136 -2.82,-0.476 -0.24,-0.306 -0.24,-0.34 -0.24,-2.108 v -14.042 c 0,-1.904 0.07,-3.502 0.24,-5.712 h -1.22"
     class="Fingering" />
  <path
     id="path10662"
     d="m 1358.92,96.724 h -1.5 l -0.34,1.734 c -0.44,2.21 -0.71,2.414 -2.82,2.414 h -7.62 c 2.35,-2.448 3.13,-3.162 5.31,-4.862 3.09,-2.38 4.42,-3.57 5.2,-4.59 1.09,-1.496 1.63,-2.992 1.63,-4.658 0,-3.876 -3.2,-6.63 -7.65,-6.63 -4.32,0 -7.62,2.754 -7.62,6.392 0,2.142 1.09,3.604 2.69,3.604 1.26,0 2.11,-0.85 2.11,-2.074 0,-0.85 -0.48,-1.632 -1.19,-1.938 -1.26,-0.51 -1.33,-0.578 -1.33,-1.02 0,-0.51 0.34,-1.292 0.82,-1.87 0.85,-1.054 2.24,-1.632 3.84,-1.632 2.82,0 4.49,1.734 4.49,4.59 0,2.516 -1.19,4.794 -4.01,7.786 -2.52,2.652 -4.08,4.318 -4.66,4.964 -1.23,1.428 -1.84,2.21 -3.33,4.182 v 0.952 h 15.33 l 0.65,-7.344"
     class="Fingering" />
  <path
     id="path10664"
     d="m 1368.48,59.369 c 0,9.69 -7.86,17.545 -17.55,17.545 -9.69,0 -17.54,-7.855 -17.54,-17.545 0,-9.689 7.85,-17.544 17.54,-17.544 9.69,0 17.55,7.855 17.55,17.544"
     fill-rule="evenodd"
     stroke-miterlimit="2"
     stroke-linejoin="miter"
     stroke-linecap="square"
     stroke-width="2.12"
     stroke="#000000"
     fill="none"
     class="Fingering" />
  <path
     id="path10666"
     d="m 1353.51,58.56 c 3.09,-1.122 4.52,-2.856 4.52,-5.576 0,-3.57 -2.72,-5.848 -6.93,-5.848 -3.98,0 -7.01,2.346 -7.01,5.44 0,1.394 0.92,2.38 2.25,2.38 1.19,0 2,-0.816 2,-2.04 0,-0.748 -0.27,-1.19 -1.05,-1.734 -0.34,-0.238 -0.44,-0.374 -0.44,-0.612 0,-0.952 1.97,-1.972 3.91,-1.972 2.44,0 3.74,1.53 3.74,4.42 0,3.162 -1.3,4.828 -3.71,4.828 -0.31,0 -0.88,-0.034 -1.39,-0.068 -0.28,-0.034 -0.55,-0.034 -0.75,-0.034 -0.72,0 -1.09,0.306 -1.09,0.918 0,0.578 0.34,0.85 1.09,0.85 0.2,0 0.47,0 0.78,-0.034 0.68,-0.034 1.22,-0.034 1.6,-0.034 2.51,0 3.87,1.802 3.87,5.168 0,3.536 -1.7,5.508 -4.76,5.508 -2.14,0 -4.45,-1.156 -4.45,-2.21 0,-0.306 0.07,-0.374 0.71,-0.748 0.96,-0.578 1.33,-1.156 1.33,-2.006 0,-1.224 -0.92,-2.142 -2.14,-2.142 -1.46,0 -2.42,1.19 -2.42,2.992 0,3.298 3.03,5.576 7.38,5.576 4.93,0 8.13,-2.72 8.13,-6.902 0,-3.196 -1.63,-5.134 -5.17,-6.12"
     class="Fingering" />
  <path
     id="path10668"
     d="m 1857.29,120.713 c -1.16,1.394 -4.29,2.448 -7.41,2.516 v 1.462 h 2.99 c 1.97,0.034 2.17,0.238 2.11,2.142 v 13.634 c 0,1.734 0,1.802 -0.21,2.108 -0.27,0.34 -0.92,0.476 -2.82,0.476 h -2.21 v 1.598 h 13.46 v -1.598 h -1.87 c -1.9,0 -2.55,-0.136 -2.82,-0.476 -0.24,-0.306 -0.24,-0.34 -0.24,-2.108 v -14.042 c 0,-1.904 0.07,-3.502 0.24,-5.712 h -1.22"
     class="Fingering" />
  <path
     id="path10670"
     d="m 1857.29,90.752 c -1.16,1.394 -4.29,2.448 -7.41,2.516 v 1.462 h 2.99 c 1.97,0.034 2.17,0.238 2.11,2.142 v 13.634 c 0,1.734 0,1.802 -0.21,2.108 -0.27,0.34 -0.92,0.476 -2.82,0.476 h -2.21 v 1.598 h 13.46 v -1.598 h -1.87 c -1.9,0 -2.55,-0.136 -2.82,-0.476 -0.24,-0.306 -0.24,-0.34 -0.24,-2.108 V 96.464 c 0,-1.904 0.07,-3.502 0.24,-5.712 h -1.22"
     class="Fingering" />
  <path
     id="path10702"
     d="m 225.579,126.506 c -1.156,1.394 -4.284,2.448 -7.412,2.516 v 1.462 h 2.992 c 1.972,0.034 2.176,0.238 2.108,2.142 v 13.634 c 0,1.734 0,1.802 -0.204,2.108 -0.272,0.34 -0.918,0.476 -2.822,0.476 h -2.21 v 1.598 h 13.464 v -1.598 h -1.87 c -1.904,0 -2.55,-0.136 -2.822,-0.476 -0.238,-0.306 -0.238,-0.34 -0.238,-2.108 v -14.042 c 0,-1.904 0.068,-3.502 0.238,-5.712 h -1.224"
     class="Fingering" />
  <path
     id="path10704"
     d="m 225.579,96.545 c -1.156,1.394 -4.284,2.448 -7.412,2.516 v 1.462 h 2.992 c 1.972,0.034 2.176,0.238 2.108,2.142 v 13.634 c 0,1.734 0,1.802 -0.204,2.108 -0.272,0.34 -0.918,0.476 -2.822,0.476 h -2.21 v 1.598 h 13.464 v -1.598 h -1.87 c -1.904,0 -2.55,-0.136 -2.822,-0.476 -0.238,-0.306 -0.238,-0.34 -0.238,-2.108 v -14.042 c 0,-1.904 0.068,-3.502 0.238,-5.712 h -1.224"
     class="Fingering" />
  <path
     id="path10706"
     d="m 227.332,77.383 c 3.094,-1.122 4.522,-2.856 4.522,-5.576 0,-3.57 -2.72,-5.848 -6.936,-5.848 -3.978,0 -7.004,2.346 -7.004,5.44 0,1.394 0.918,2.38 2.244,2.38 1.19,0 2.006,-0.816 2.006,-2.04 0,-0.748 -0.272,-1.19 -1.054,-1.734 -0.34,-0.238 -0.442,-0.374 -0.442,-0.612 0,-0.952 1.972,-1.972 3.91,-1.972 2.448,0 3.74,1.53 3.74,4.42 0,3.162 -1.292,4.828 -3.706,4.828 -0.306,0 -0.884,-0.034 -1.394,-0.068 -0.272,-0.034 -0.544,-0.034 -0.748,-0.034 -0.714,0 -1.088,0.306 -1.088,0.918 0,0.578 0.34,0.85 1.088,0.85 0.204,0 0.476,0 0.782,-0.034 0.68,-0.034 1.224,-0.034 1.598,-0.034 2.516,0 3.876,1.802 3.876,5.168 0,3.536 -1.7,5.508 -4.76,5.508 -2.142,0 -4.454,-1.156 -4.454,-2.21 0,-0.306 0.068,-0.374 0.714,-0.748 0.952,-0.578 1.326,-1.156 1.326,-2.006 0,-1.224 -0.918,-2.142 -2.142,-2.142 -1.462,0 -2.414,1.19 -2.414,2.992 0,3.298 3.026,5.576 7.378,5.576 4.93,0 8.126,-2.72 8.126,-6.902 0,-3.196 -1.632,-5.134 -5.168,-6.12"
     class="Fingering" />
  <path
     id="path10708"
     d="m 743.59,136.825 c -4.76,0 -8.23,5.168 -8.23,12.308 0,7.004 3.37,12.138 7.96,12.138 4.76,0 8.09,-4.964 8.09,-12.036 0,-3.604 -0.75,-6.596 -2.18,-8.942 -1.32,-2.142 -3.5,-3.468 -5.64,-3.468 m -0.24,1.462 c 1.12,0 2.21,0.748 3.03,2.108 0.92,1.598 1.22,3.536 1.22,8.194 0,4.794 -0.24,7.038 -0.92,8.534 -0.78,1.666 -2,2.686 -3.29,2.686 -1.16,0 -2.21,-0.748 -3.03,-2.108 -0.95,-1.598 -1.22,-3.706 -1.22,-9.282 0,-3.978 0.23,-5.95 0.91,-7.446 0.79,-1.7 2.01,-2.686 3.3,-2.686"
     class="Fingering" />
  <path
     id="path10710"
     d="m 760.68,110.104 c 0,9.551 -7.74,17.294 -17.29,17.294 -9.55,0 -17.3,-7.743 -17.3,-17.294 0,-9.551 7.75,-17.294 17.3,-17.294 9.55,0 17.29,7.743 17.29,17.294"
     fill-rule="evenodd"
     stroke-miterlimit="2"
     stroke-linejoin="miter"
     stroke-linecap="square"
     stroke-width="2.12"
     stroke="#000000"
     fill="none"
     class="Fingering" />
  <path
     id="path10712"
     d="m 744.21,98.121 c -1.16,1.394 -4.28,2.448 -7.41,2.516 v 1.462 h 2.99 c 1.97,0.034 2.18,0.238 2.11,2.142 v 13.634 c 0,1.734 0,1.802 -0.21,2.108 -0.27,0.34 -0.91,0.476 -2.82,0.476 h -2.21 v 1.598 h 13.47 v -1.598 h -1.87 c -1.91,0 -2.55,-0.136 -2.83,-0.476 -0.23,-0.306 -0.23,-0.34 -0.23,-2.108 v -14.042 c 0,-1.904 0.06,-3.502 0.23,-5.712 h -1.22"
     class="Fingering" />
  <path
     id="path10714"
     d="m 745.96,71.525 c 3.1,-1.122 4.53,-2.856 4.53,-5.576 0,-3.57 -2.72,-5.848 -6.94,-5.848 -3.98,0 -7,2.346 -7,5.44 0,1.394 0.91,2.38 2.24,2.38 1.19,0 2.01,-0.816 2.01,-2.04 0,-0.748 -0.28,-1.19 -1.06,-1.734 -0.34,-0.238 -0.44,-0.374 -0.44,-0.612 0,-0.952 1.97,-1.972 3.91,-1.972 2.45,0 3.74,1.53 3.74,4.42 0,3.162 -1.29,4.828 -3.71,4.828 -0.3,0 -0.88,-0.034 -1.39,-0.068 -0.27,-0.034 -0.54,-0.034 -0.75,-0.034 -0.71,0 -1.09,0.306 -1.09,0.918 0,0.578 0.34,0.85 1.09,0.85 0.21,0 0.48,0 0.78,-0.034 0.68,-0.034 1.23,-0.034 1.6,-0.034 2.52,0 3.88,1.802 3.88,5.168 0,3.536 -1.7,5.508 -4.76,5.508 -2.14,0 -4.46,-1.156 -4.46,-2.21 0,-0.306 0.07,-0.374 0.72,-0.748 0.95,-0.578 1.32,-1.156 1.32,-2.006 0,-1.224 -0.91,-2.142 -2.14,-2.142 -1.46,0 -2.41,1.19 -2.41,2.992 0,3.298 3.02,5.576 7.38,5.576 4.93,0 8.12,-2.72 8.12,-6.902 0,-3.196 -1.63,-5.134 -5.17,-6.12"
     class="Fingering" />
  <path
     id="path10716"
     d="m 744.21,30.14 c -1.16,1.394 -4.28,2.448 -7.41,2.516 v 1.462 h 2.99 c 1.97,0.034 2.18,0.238 2.11,2.142 v 13.634 c 0,1.734 0,1.802 -0.21,2.108 -0.27,0.34 -0.91,0.476 -2.82,0.476 h -2.21 v 1.598 h 13.47 v -1.598 h -1.87 c -1.91,0 -2.55,-0.136 -2.83,-0.476 -0.23,-0.306 -0.23,-0.34 -0.23,-2.108 V 35.852 c 0,-1.904 0.06,-3.502 0.23,-5.712 h -1.22"
     class="Fingering" />
  <path
     id="path10718"
     d="m 829.81,164.962 h -1.49 l -0.34,1.734 c -0.44,2.21 -0.72,2.414 -2.82,2.414 h -7.62 c 2.35,-2.448 3.13,-3.162 5.3,-4.862 3.1,-2.38 4.42,-3.57 5.21,-4.59 1.08,-1.496 1.63,-2.992 1.63,-4.658 0,-3.876 -3.2,-6.63 -7.65,-6.63 -4.32,0 -7.62,2.754 -7.62,6.392 0,2.142 1.09,3.604 2.69,3.604 1.26,0 2.11,-0.85 2.11,-2.074 0,-0.85 -0.48,-1.632 -1.19,-1.938 -1.26,-0.51 -1.33,-0.578 -1.33,-1.02 0,-0.51 0.34,-1.292 0.82,-1.87 0.85,-1.054 2.24,-1.632 3.84,-1.632 2.82,0 4.49,1.734 4.49,4.59 0,2.516 -1.19,4.794 -4.02,7.786 -2.51,2.652 -4.08,4.318 -4.65,4.964 -1.23,1.428 -1.84,2.21 -3.34,4.182 v 0.952 h 15.34 l 0.64,-7.344"
     class="Fingering" />
  <path
     id="path10720"
     d="m 1049.19,76.991 c -1.15,1.394 -4.28,2.448 -7.41,2.516 v 1.462 h 2.99 c 1.97,0.034 2.18,0.238 2.11,2.142 v 13.634 c 0,1.734 0,1.802 -0.2,2.108 -0.28,0.34 -0.92,0.476 -2.83,0.476 h -2.21 v 1.598 h 13.47 v -1.598 h -1.87 c -1.91,0 -2.55,-0.136 -2.82,-0.476 -0.24,-0.306 -0.24,-0.34 -0.24,-2.108 V 82.703 c 0,-1.904 0.07,-3.502 0.24,-5.712 h -1.23"
     class="Fingering" />
  <path
     id="path10722"
     d="m 1131,74.274 c -1.16,1.394 -4.29,2.448 -7.41,2.516 v 1.462 h 2.99 c 1.97,0.034 2.17,0.238 2.11,2.142 v 13.634 c 0,1.734 0,1.802 -0.21,2.108 -0.27,0.34 -0.92,0.476 -2.82,0.476 h -2.21 v 1.598 h 13.46 v -1.598 h -1.87 c -1.9,0 -2.55,-0.136 -2.82,-0.476 -0.24,-0.306 -0.24,-0.34 -0.24,-2.108 V 79.986 c 0,-1.904 0.07,-3.502 0.24,-5.712 H 1131"
     class="Fingering" />
  <path
     id="path10724"
     d="m 1368.12,18.605 c 0,9.689 -7.86,17.544 -17.55,17.544 -9.69,0 -17.54,-7.855 -17.54,-17.544 0,-9.6900001 7.85,-17.5450001 17.54,-17.5450001 9.69,0 17.55,7.855 17.55,17.5450001"
     fill-rule="evenodd"
     stroke-miterlimit="2"
     stroke-linejoin="miter"
     stroke-linecap="square"
     stroke-width="2.12"
     stroke="#000000"
     fill="none"
     class="Fingering" />
  <path
     id="path10726"
     d="m 1353.15,17.796 c 3.09,-1.122 4.52,-2.856 4.52,-5.576 0,-3.5700001 -2.72,-5.8480001 -6.94,-5.8480001 -3.97,0 -7,2.346 -7,5.4400001 0,1.394 0.92,2.38 2.24,2.38 1.19,0 2.01,-0.816 2.01,-2.04 0,-0.748 -0.27,-1.19 -1.05,-1.734 -0.34,-0.238 -0.45,-0.374 -0.45,-0.6120001 0,-0.952 1.98,-1.972 3.91,-1.972 2.45,0 3.74,1.53 3.74,4.4200001 0,3.162 -1.29,4.828 -3.7,4.828 -0.31,0 -0.89,-0.034 -1.4,-0.068 -0.27,-0.034 -0.54,-0.034 -0.74,-0.034 -0.72,0 -1.09,0.306 -1.09,0.918 0,0.578 0.34,0.85 1.09,0.85 0.2,0 0.47,0 0.78,-0.034 0.68,-0.034 1.22,-0.034 1.6,-0.034 2.51,0 3.87,1.802 3.87,5.168 0,3.536 -1.7,5.508 -4.76,5.508 -2.14,0 -4.45,-1.156 -4.45,-2.21 0,-0.306 0.07,-0.374 0.71,-0.748 0.95,-0.578 1.33,-1.156 1.33,-2.006 0,-1.224 -0.92,-2.142 -2.14,-2.142 -1.47,0 -2.42,1.19 -2.42,2.992 0,3.298 3.03,5.576 7.38,5.576 4.93,0 8.13,-2.72 8.13,-6.902 0,-3.196 -1.64,-5.134 -5.17,-6.12"
     class="Fingering" />
  <path
     id="path10728"
     d="m 1441.28,95.513 c 3.09,-1.122 4.52,-2.856 4.52,-5.576 0,-3.57 -2.72,-5.848 -6.93,-5.848 -3.98,0 -7.01,2.346 -7.01,5.44 0,1.394 0.92,2.38 2.25,2.38 1.19,0 2,-0.816 2,-2.04 0,-0.748 -0.27,-1.19 -1.05,-1.734 -0.34,-0.238 -0.44,-0.374 -0.44,-0.612 0,-0.952 1.97,-1.972 3.91,-1.972 2.44,0 3.74,1.53 3.74,4.42 0,3.162 -1.3,4.828 -3.71,4.828 -0.31,0 -0.88,-0.034 -1.39,-0.068 -0.28,-0.034 -0.55,-0.034 -0.75,-0.034 -0.72,0 -1.09,0.306 -1.09,0.918 0,0.578 0.34,0.85 1.09,0.85 0.2,0 0.47,0 0.78,-0.034 0.68,-0.034 1.22,-0.034 1.6,-0.034 2.51,0 3.87,1.802 3.87,5.168 0,3.536 -1.7,5.508 -4.76,5.508 -2.14,0 -4.45,-1.156 -4.45,-2.21 0,-0.306 0.07,-0.374 0.71,-0.748 0.96,-0.578 1.33,-1.156 1.33,-2.006 0,-1.224 -0.92,-2.142 -2.14,-2.142 -1.46,0 -2.42,1.19 -2.42,2.992 0,3.298 3.03,5.576 7.38,5.576 4.93,0 8.13,-2.72 8.13,-6.902 0,-3.196 -1.63,-5.134 -5.17,-6.12"
     class="Fingering" />
  <path
     id="path10730"
     d="m 1413.02,76.06 -11.56,16.082 v 1.904 h 9.56 v 1.768 c 0,1.734 0,1.802 -0.21,2.108 -0.27,0.374 -0.92,0.476 -2.85,0.476 h -0.38 v 1.598 h 9.93 v -1.598 h -0.14 c -1.93,0 -2.58,-0.102 -2.85,-0.476 -0.21,-0.306 -0.21,-0.34 -0.21,-2.108 v -1.768 h 4.12 v -1.904 h -4.12 V 82.86 c 0,-4.25 0,-4.352 0.17,-6.8 h -1.46 m -2,16.082 h -7.48 l 7.48,-10.302 v 10.302"
     class="Fingering" />
  <path
     id="path10732"
     d="m 1542.57,132.478 h -1.5 l -0.34,1.734 c -0.44,2.21 -0.71,2.414 -2.82,2.414 h -7.62 c 2.35,-2.448 3.13,-3.162 5.31,-4.862 3.09,-2.38 4.42,-3.57 5.2,-4.59 1.09,-1.496 1.63,-2.992 1.63,-4.658 0,-3.876 -3.19,-6.63 -7.65,-6.63 -4.32,0 -7.61,2.754 -7.61,6.392 0,2.142 1.08,3.604 2.68,3.604 1.26,0 2.11,-0.85 2.11,-2.074 0,-0.85 -0.48,-1.632 -1.19,-1.938 -1.26,-0.51 -1.33,-0.578 -1.33,-1.02 0,-0.51 0.34,-1.292 0.82,-1.87 0.85,-1.054 2.24,-1.632 3.84,-1.632 2.82,0 4.49,1.734 4.49,4.59 0,2.516 -1.19,4.794 -4.01,7.786 -2.52,2.652 -4.08,4.318 -4.66,4.964 -1.22,1.428 -1.84,2.21 -3.33,4.182 v 0.952 h 15.33 l 0.65,-7.344"
     class="Fingering" />
  <path
     id="path10734"
     d="m 1537.66,85.925 -11.56,16.082 v 1.904 h 9.55 v 1.768 c 0,1.734 0,1.802 -0.2,2.108 -0.27,0.374 -0.92,0.476 -2.86,0.476 h -0.37 v 1.598 h 9.93 v -1.598 h -0.14 c -1.94,0 -2.58,-0.102 -2.85,-0.476 -0.21,-0.306 -0.21,-0.34 -0.21,-2.108 v -1.768 h 4.12 v -1.904 h -4.12 v -9.282 c 0,-4.25 0,-4.352 0.17,-6.8 h -1.46 m -2.01,16.082 h -7.48 l 7.48,-10.302 v 10.302"
     class="Fingering" />
  <path
     id="path10736"
     d="M 1513.85,78.66 V 57.478 l 2.76,7.14 1.8,-0.816 -4.35,-9.724 -2.62,0.034 -4.32,9.69 1.77,0.816 2.79,-7.14 V 78.66 h 2.17 m 23.02,-12.512 c 3.09,-1.122 4.52,-2.856 4.52,-5.576 0,-3.57 -2.72,-5.848 -6.93,-5.848 -3.98,0 -7.01,2.346 -7.01,5.44 0,1.394 0.92,2.38 2.25,2.38 1.19,0 2,-0.816 2,-2.04 0,-0.748 -0.27,-1.19 -1.05,-1.734 -0.34,-0.238 -0.44,-0.374 -0.44,-0.612 0,-0.952 1.97,-1.972 3.91,-1.972 2.44,0 3.74,1.53 3.74,4.42 0,3.162 -1.3,4.828 -3.71,4.828 -0.31,0 -0.88,-0.034 -1.39,-0.068 -0.28,-0.034 -0.55,-0.034 -0.75,-0.034 -0.72,0 -1.09,0.306 -1.09,0.918 0,0.578 0.34,0.85 1.09,0.85 0.2,0 0.47,0 0.78,-0.034 0.68,-0.034 1.22,-0.034 1.6,-0.034 2.51,0 3.87,1.802 3.87,5.168 0,3.536 -1.7,5.508 -4.76,5.508 -2.14,0 -4.45,-1.156 -4.45,-2.21 0,-0.306 0.07,-0.374 0.71,-0.748 0.96,-0.578 1.33,-1.156 1.33,-2.006 0,-1.224 -0.92,-2.142 -2.14,-2.142 -1.46,0 -2.42,1.19 -2.42,2.992 0,3.298 3.03,5.576 7.38,5.576 4.93,0 8.13,-2.72 8.13,-6.902 0,-3.196 -1.63,-5.134 -5.17,-6.12"
     class="Fingering" />
  <path
     id="path10738"
     d="m 1754.86,110.014 c 0,9.551 -7.74,17.294 -17.29,17.294 -9.56,0 -17.3,-7.743 -17.3,-17.294 0,-9.551 7.74,-17.294 17.3,-17.294 9.55,0 17.29,7.743 17.29,17.294"
     fill-rule="evenodd"
     stroke-miterlimit="2"
     stroke-linejoin="miter"
     stroke-linecap="square"
     stroke-width="2.12"
     stroke="#000000"
     fill="none"
     class="Fingering" />
  <path
     id="path10740"
     d="m 1740.64,98.031 -11.56,16.082 v 1.904 h 9.55 v 1.768 c 0,1.734 0,1.802 -0.2,2.108 -0.27,0.374 -0.92,0.476 -2.86,0.476 h -0.37 v 1.598 h 9.93 v -1.598 h -0.14 c -1.94,0 -2.58,-0.102 -2.85,-0.476 -0.21,-0.306 -0.21,-0.34 -0.21,-2.108 v -1.768 h 4.12 v -1.904 h -4.12 v -9.282 c 0,-4.25 0,-4.352 0.17,-6.8 h -1.46 m -2.01,16.082 h -7.48 l 7.48,-10.302 v 10.302"
     class="Fingering" />
  <path
     id="path10742"
     d="m 1855.41,57.076 -11.56,16.082 v 1.904 h 9.56 v 1.768 c 0,1.734 0,1.802 -0.21,2.108 -0.27,0.374 -0.91,0.476 -2.85,0.476 h -0.38 v 1.598 h 9.93 v -1.598 h -0.13 c -1.94,0 -2.59,-0.102 -2.86,-0.476 -0.2,-0.306 -0.2,-0.34 -0.2,-2.108 v -1.768 h 4.11 v -1.904 h -4.11 v -9.282 c 0,-4.25 0,-4.352 0.17,-6.8 h -1.47 m -2,16.082 h -7.48 l 7.48,-10.302 v 10.302"
     class="Fingering" />
  <path
     id="path10844"
     d="m 729.6,365.595 h 14.18 v -0.93 h -1.2 c -0.29,0 -0.59,-0.03 -0.9,-0.11 -0.31,-0.07 -0.61,-0.16 -0.89,-0.27 -0.29,-0.1 -0.53,-0.22 -0.75,-0.36 -0.21,-0.14 -0.35,-0.27 -0.43,-0.4 -0.18,-0.3 -0.32,-0.74 -0.42,-1.32 -0.1,-0.59 -0.15,-1.42 -0.15,-2.49 v -21.389 c 0,-0.993 0.06,-1.799 0.17,-2.417 0.12,-0.619 0.27,-1.066 0.44,-1.343 0.66,-0.798 1.63,-1.196 2.93,-1.196 h 1.2 v -0.879 H 729.6 v 0.879 h 1.19 c 0.57,0 1.13,0.109 1.69,0.329 0.55,0.22 0.98,0.525 1.29,0.916 0.13,0.146 0.23,0.317 0.31,0.512 0.07,0.196 0.12,0.436 0.15,0.721 0.04,0.284 0.06,0.626 0.07,1.025 0,0.399 0.01,0.883 0.01,1.453 v 21.389 c 0,2.05 -0.2,3.3 -0.59,3.76 -0.32,0.42 -0.72,0.73 -1.19,0.91 -0.48,0.19 -1.05,0.28 -1.74,0.28 h -1.19 v 0.93"
     class="Harmony" />
  <path
     id="path10846"
     d="m 729.6,409.345 h 14.18 v -0.93 h -1.2 c -0.29,0 -0.59,-0.04 -0.9,-0.11 -0.31,-0.07 -0.61,-0.16 -0.89,-0.27 -0.29,-0.11 -0.53,-0.23 -0.75,-0.37 -0.21,-0.13 -0.35,-0.27 -0.43,-0.4 -0.18,-0.29 -0.32,-0.73 -0.42,-1.32 -0.1,-0.58 -0.15,-1.41 -0.15,-2.49 v -21.38 c 0,-1 0.06,-1.8 0.17,-2.42 0.12,-0.62 0.27,-1.07 0.44,-1.34 0.66,-0.8 1.63,-1.2 2.93,-1.2 h 1.2 v -0.88 H 729.6 v 0.88 h 1.19 c 0.57,0 1.13,0.11 1.69,0.33 0.55,0.22 0.98,0.52 1.29,0.91 0.13,0.15 0.23,0.32 0.31,0.52 0.07,0.19 0.12,0.43 0.15,0.72 0.04,0.28 0.06,0.62 0.07,1.02 0,0.4 0.01,0.89 0.01,1.46 v 21.38 c 0,2.05 -0.2,3.31 -0.59,3.76 -0.32,0.43 -0.72,0.73 -1.19,0.92 -0.48,0.18 -1.05,0.28 -1.74,0.28 h -1.19 v 0.93 m 16.64,0 h 14.18 v -0.93 h -1.2 c -0.29,0 -0.59,-0.04 -0.9,-0.11 -0.31,-0.07 -0.61,-0.16 -0.89,-0.27 -0.28,-0.11 -0.53,-0.23 -0.74,-0.37 -0.22,-0.13 -0.36,-0.27 -0.44,-0.4 -0.18,-0.29 -0.32,-0.73 -0.42,-1.32 -0.1,-0.58 -0.15,-1.41 -0.15,-2.49 v -21.38 c 0,-1 0.06,-1.8 0.18,-2.42 0.11,-0.62 0.26,-1.07 0.43,-1.34 0.66,-0.8 1.63,-1.2 2.93,-1.2 h 1.2 v -0.88 h -14.18 v 0.88 h 1.19 c 0.57,0 1.13,0.11 1.69,0.33 0.55,0.22 0.98,0.52 1.29,0.91 0.13,0.15 0.23,0.32 0.31,0.52 0.07,0.19 0.12,0.43 0.15,0.72 0.04,0.28 0.06,0.62 0.07,1.02 0,0.4 0.01,0.89 0.01,1.46 v 21.38 c 0,2.05 -0.2,3.31 -0.59,3.76 -0.32,0.43 -0.72,0.73 -1.19,0.92 -0.48,0.18 -1.05,0.28 -1.74,0.28 h -1.19 v 0.93"
     class="Harmony" />
  <path
     id="path10848"
     d="m 729.6,453.085 h 14.18 v -0.93 h -1.2 c -0.29,0 -0.59,-0.03 -0.9,-0.11 -0.31,-0.07 -0.61,-0.16 -0.89,-0.27 -0.29,-0.1 -0.53,-0.22 -0.75,-0.36 -0.21,-0.14 -0.35,-0.27 -0.43,-0.4 -0.18,-0.3 -0.32,-0.74 -0.42,-1.32 -0.1,-0.59 -0.15,-1.42 -0.15,-2.49 v -21.39 c 0,-0.99 0.06,-1.8 0.17,-2.42 0.12,-0.61 0.27,-1.06 0.44,-1.34 0.66,-0.8 1.63,-1.2 2.93,-1.2 h 1.2 v -0.87 H 729.6 v 0.87 h 1.19 c 0.57,0 1.13,0.11 1.69,0.33 0.55,0.22 0.98,0.53 1.29,0.92 0.13,0.15 0.23,0.32 0.31,0.51 0.07,0.2 0.12,0.44 0.15,0.72 0.04,0.29 0.06,0.63 0.07,1.03 0,0.4 0.01,0.88 0.01,1.45 v 21.39 c 0,2.05 -0.2,3.3 -0.59,3.76 -0.32,0.42 -0.72,0.73 -1.19,0.91 -0.48,0.19 -1.05,0.28 -1.74,0.28 h -1.19 v 0.93 m 50.89,-32.23 v -0.87 h -10.18 v 0.87 c 0.6,0.1 1.09,0.21 1.48,0.33 0.38,0.13 0.69,0.25 0.92,0.38 0.24,0.13 0.42,0.26 0.55,0.39 0.13,0.13 0.24,0.27 0.32,0.42 0.26,0.44 0.29,1.03 0.1,1.78 -0.2,0.75 -0.53,1.73 -1,2.95 l -7.82,19.24 -8.47,-19.43 c -0.55,-1.27 -0.9,-2.29 -1.04,-3.06 -0.13,-0.78 -0.06,-1.38 0.24,-1.8 0.21,-0.34 0.58,-0.61 1.11,-0.79 0.53,-0.19 1.28,-0.32 2.26,-0.41 v -0.87 h -13.55 v 0.87 c 0.78,0.07 1.4,0.18 1.88,0.33 0.47,0.16 0.89,0.38 1.27,0.68 0.14,0.11 0.28,0.22 0.41,0.33 0.13,0.1 0.28,0.26 0.44,0.48 0.16,0.22 0.35,0.53 0.56,0.93 0.21,0.4 0.47,0.96 0.76,1.67 l 12.35,28.59 h 0.93 l 11.52,-28.24 c 0.7,-1.66 1.48,-2.89 2.32,-3.67 0.28,-0.29 0.65,-0.53 1.1,-0.7 0.46,-0.18 0.97,-0.31 1.54,-0.4"
     class="Harmony" />
  <path
     id="path10850"
     d="m 729.6,497.615 h 14.18 v -0.93 h -1.2 c -0.29,0 -0.59,-0.04 -0.9,-0.11 -0.31,-0.07 -0.61,-0.16 -0.89,-0.27 -0.29,-0.1 -0.53,-0.23 -0.75,-0.37 -0.21,-0.13 -0.35,-0.27 -0.43,-0.4 -0.18,-0.29 -0.32,-0.73 -0.42,-1.32 -0.1,-0.58 -0.15,-1.41 -0.15,-2.49 v -21.38 c 0,-1 0.06,-1.8 0.17,-2.42 0.12,-0.62 0.27,-1.07 0.44,-1.34 0.66,-0.8 1.63,-1.2 2.93,-1.2 h 1.2 v -0.88 H 729.6 v 0.88 h 1.19 c 0.57,0 1.13,0.11 1.69,0.33 0.55,0.22 0.98,0.53 1.29,0.92 0.13,0.14 0.23,0.31 0.31,0.51 0.07,0.19 0.12,0.43 0.15,0.72 0.04,0.28 0.06,0.63 0.07,1.02 0,0.4 0.01,0.89 0.01,1.46 v 21.38 c 0,2.05 -0.2,3.31 -0.59,3.76 -0.32,0.43 -0.72,0.73 -1.19,0.92 -0.48,0.19 -1.05,0.28 -1.74,0.28 h -1.19 v 0.93 m 16.64,0 h 14.18 v -0.93 h -1.2 c -0.29,0 -0.59,-0.04 -0.9,-0.11 -0.31,-0.07 -0.61,-0.16 -0.89,-0.27 -0.28,-0.1 -0.53,-0.23 -0.74,-0.37 -0.22,-0.13 -0.36,-0.27 -0.44,-0.4 -0.18,-0.29 -0.32,-0.73 -0.42,-1.32 -0.1,-0.58 -0.15,-1.41 -0.15,-2.49 v -21.38 c 0,-1 0.06,-1.8 0.18,-2.42 0.11,-0.62 0.26,-1.07 0.43,-1.34 0.66,-0.8 1.63,-1.2 2.93,-1.2 h 1.2 v -0.88 h -14.18 v 0.88 h 1.19 c 0.57,0 1.13,0.11 1.69,0.33 0.55,0.22 0.98,0.53 1.29,0.92 0.13,0.14 0.23,0.31 0.31,0.51 0.07,0.19 0.12,0.43 0.15,0.72 0.04,0.28 0.06,0.63 0.07,1.02 0,0.4 0.01,0.89 0.01,1.46 v 21.38 c 0,2.05 -0.2,3.31 -0.59,3.76 -0.32,0.43 -0.72,0.73 -1.19,0.92 -0.48,0.19 -1.05,0.28 -1.74,0.28 h -1.19 v 0.93 m 16.64,0 h 14.18 v -0.93 h -1.19 c -0.3,0 -0.6,-0.04 -0.91,-0.11 -0.31,-0.07 -0.6,-0.16 -0.89,-0.27 -0.28,-0.1 -0.53,-0.23 -0.74,-0.37 -0.22,-0.13 -0.36,-0.27 -0.44,-0.4 -0.18,-0.29 -0.32,-0.73 -0.42,-1.32 -0.1,-0.58 -0.14,-1.41 -0.14,-2.49 v -21.38 c 0,-1 0.05,-1.8 0.17,-2.42 0.11,-0.62 0.26,-1.07 0.44,-1.34 0.65,-0.8 1.62,-1.2 2.93,-1.2 h 1.19 v -0.88 h -14.18 v 0.88 h 1.19 c 0.57,0 1.13,0.11 1.69,0.33 0.55,0.22 0.98,0.53 1.29,0.92 0.13,0.14 0.23,0.31 0.31,0.51 0.07,0.19 0.12,0.43 0.16,0.72 0.03,0.28 0.05,0.63 0.06,1.02 0,0.4 0.01,0.89 0.01,1.46 v 21.38 c 0,2.05 -0.2,3.31 -0.59,3.76 -0.32,0.43 -0.72,0.73 -1.19,0.92 -0.48,0.19 -1.05,0.28 -1.74,0.28 h -1.19 v 0.93"
     class="Harmony" />
  <polyline
     transform="translate(-360,-649.875)"
     id="polyline10868"
     points="719.131,958.892 719.131,984.38"
     stroke-linejoin="bevel"
     stroke-linecap="square"
     stroke-width="2.34"
     stroke="#000000"
     fill="none"
     class="PedalSegment" />
  <polyline
     transform="translate(-360,-649.875)"
     id="polyline10870"
     points="719.131,984.38 882.986,984.38"
     stroke-linejoin="bevel"
     stroke-linecap="square"
     stroke-width="2.34"
     stroke="#000000"
     fill="none"
     class="PedalSegment" />
  <polyline
     transform="translate(-360,-649.875)"
     id="polyline10872"
     points="882.986,984.38 882.986,958.892"
     stroke-linejoin="bevel"
     stroke-linecap="square"
     stroke-width="2.34"
     stroke="#000000"
     fill="none"
     class="PedalSegment" />
  <polyline
     transform="translate(-360,-649.875)"
     id="polyline10874"
     points="901.865,945.404 901.865,970.892"
     stroke-linejoin="bevel"
     stroke-linecap="square"
     stroke-width="2.34"
     stroke="#000000"
     fill="none"
     class="PedalSegment" />
  <polyline
     transform="translate(-360,-649.875)"
     id="polyline10876"
     points="901.865,970.892 980.146,970.892"
     stroke-linejoin="bevel"
     stroke-linecap="square"
     stroke-width="2.34"
     stroke="#000000"
     fill="none"
     class="PedalSegment" />
  <polyline
     transform="translate(-360,-649.875)"
     id="polyline10878"
     points="980.146,970.892 980.146,945.404"
     stroke-linejoin="bevel"
     stroke-linecap="square"
     stroke-width="2.34"
     stroke="#000000"
     fill="none"
     class="PedalSegment" />
  <polyline
     transform="translate(-360,-649.875)"
     id="polyline10880"
     points="1320.17,974.822 1320.17,1000.31"
     stroke-linejoin="bevel"
     stroke-linecap="square"
     stroke-width="2.34"
     stroke="#000000"
     fill="none"
     class="PedalSegment" />
  <polyline
     transform="translate(-360,-649.875)"
     id="polyline10882"
     points="1320.17,1000.31 1453.87,1000.31"
     stroke-linejoin="bevel"
     stroke-linecap="square"
     stroke-width="2.34"
     stroke="#000000"
     fill="none"
     class="PedalSegment" />
  <polyline
     transform="translate(-360,-649.875)"
     id="polyline10884"
     points="1453.87,1000.31 1453.87,974.822"
     stroke-linejoin="bevel"
     stroke-linecap="square"
     stroke-width="2.34"
     stroke="#000000"
     fill="none"
     class="PedalSegment" />
  <polyline
     transform="translate(-360,-649.875)"
     id="polyline10886"
     points="1479.28,945.404 1479.28,970.892"
     stroke-linejoin="bevel"
     stroke-linecap="square"
     stroke-width="2.34"
     stroke="#000000"
     fill="none"
     class="PedalSegment" />
  <polyline
     transform="translate(-360,-649.875)"
     id="polyline10888"
     points="1479.28,970.892 1586.03,970.892"
     stroke-linejoin="bevel"
     stroke-linecap="square"
     stroke-width="2.34"
     stroke="#000000"
     fill="none"
     class="PedalSegment" />
  <polyline
     transform="translate(-360,-649.875)"
     id="polyline10890"
     points="1586.03,970.892 1586.03,945.404"
     stroke-linejoin="bevel"
     stroke-linecap="square"
     stroke-width="2.34"
     stroke="#000000"
     fill="none"
     class="PedalSegment" />
  <polyline
     transform="translate(-360,-649.875)"
     id="polyline10892"
     points="2202.66,945.404 2202.66,970.892"
     stroke-linejoin="bevel"
     stroke-linecap="square"
     stroke-width="2.34"
     stroke="#000000"
     fill="none"
     class="PedalSegment" />
  <polyline
     transform="translate(-360,-649.875)"
     id="polyline10894"
     points="2202.66,970.892 2411.16,970.892"
     stroke-linejoin="bevel"
     stroke-linecap="square"
     stroke-width="2.34"
     stroke="#000000"
     fill="none"
     class="PedalSegment" />
  <polyline
     transform="translate(-360,-649.875)"
     id="polyline10896"
     points="2411.16,970.892 2411.16,945.404"
     stroke-linejoin="bevel"
     stroke-linecap="square"
     stroke-width="2.34"
     stroke="#000000"
     fill="none"
     class="PedalSegment" />
  <path
     style="stroke-width:0.8496"
     id="path10926"
     d="m 397.357,214.81559 c 0,2.34611 1.90189,4.248 4.248,4.248 2.34611,0 4.248,-1.90189 4.248,-4.248 0,-2.34611 -1.90189,-4.248 -4.248,-4.248 -2.34611,0 -4.248,1.90189 -4.248,4.248"
     class="NoteDot" />
  <path
     style="stroke-width:0.8496"
     id="path10928"
     d="m 397.357,172.33559 c 0,2.34611 1.90189,4.248 4.248,4.248 2.34611,0 4.248,-1.90189 4.248,-4.248 0,-2.34611 -1.90189,-4.248 -4.248,-4.248 -2.34611,0 -4.248,1.90189 -4.248,4.248"
     class="NoteDot" />
  <path
     style="stroke-width:0.8496"
     id="path10930"
     d="m 998.39,236.05559 c 0,2.34611 1.9019,4.248 4.248,4.248 2.3461,0 4.248,-1.90189 4.248,-4.248 0,-2.34611 -1.9019,-4.248 -4.248,-4.248 -2.3461,0 -4.248,1.90189 -4.248,4.248"
     class="NoteDot" />
  <path
     style="stroke-width:0.8496"
     id="path10932"
     d="m 998.39,193.57559 c 0,2.34611 1.9019,4.248 4.248,4.248 2.3461,0 4.248,-1.90189 4.248,-4.248 0,-2.34611 -1.9019,-4.248 -4.248,-4.248 -2.3461,0 -4.248,1.90189 -4.248,4.248"
     class="NoteDot" />
  <path
     style="stroke-width:0.8496"
     id="path10934"
     d="m 1559.01,236.05559 c 0,2.34611 1.9019,4.248 4.248,4.248 2.3461,0 4.248,-1.90189 4.248,-4.248 0,-2.34611 -1.9019,-4.248 -4.248,-4.248 -2.3461,0 -4.248,1.90189 -4.248,4.248"
     class="NoteDot" />
  <path
     style="stroke-width:0.8496"
     id="path10936"
     d="m 1559.01,193.57559 c 0,2.34611 1.9019,4.248 4.248,4.248 2.3461,0 4.248,-1.90189 4.248,-4.248 0,-2.34611 -1.9019,-4.248 -4.248,-4.248 -2.3461,0 -4.248,1.90189 -4.248,4.248"
     class="NoteDot" />
  <path
     style="stroke-width:0.8496"
     id="path10938"
     d="m 1559.01,151.09559 c 0,2.34611 1.9019,4.248 4.248,4.248 2.3461,0 4.248,-1.90189 4.248,-4.248 0,-2.34611 -1.9019,-4.248 -4.248,-4.248 -2.3461,0 -4.248,1.90189 -4.248,4.248"
     class="NoteDot" />
</svg>
