<?xml version="1.0" encoding="UTF-8" standalone="no"?>
<svg
   xmlns:dc="http://purl.org/dc/elements/1.1/"
   xmlns:cc="http://creativecommons.org/ns#"
   xmlns:rdf="http://www.w3.org/1999/02/22-rdf-syntax-ns#"
   xmlns:svg="http://www.w3.org/2000/svg"
   xmlns="http://www.w3.org/2000/svg"
   xmlns:sodipodi="http://sodipodi.sourceforge.net/DTD/sodipodi-0.dtd"
   xmlns:inkscape="http://www.inkscape.org/namespaces/inkscape"
   inkscape:version="1.0 (4035a4f, 2020-05-01)"
   sodipodi:docname="snippet14.svg"
   id="svg2644"
   version="1.2"
   viewBox="0 0 2340 240.48001"
   height="2.5050001in"
   width="24.375in">
  <metadata
     id="metadata2650">
    <rdf:RDF>
      <cc:Work
         rdf:about="">
        <dc:format>image/svg+xml</dc:format>
        <dc:type
           rdf:resource="http://purl.org/dc/dcmitype/StillImage" />
        <dc:title>Batches6Suite2</dc:title>
      </cc:Work>
    </rdf:RDF>
  </metadata>
  <defs
     id="defs2648" />
  <sodipodi:namedview
     fit-margin-bottom="0"
     fit-margin-right="0"
     fit-margin-left="0"
     fit-margin-top="0"
     inkscape:document-units="in"
     inkscape:current-layer="svg2644"
     inkscape:window-maximized="0"
     inkscape:window-y="23"
     inkscape:window-x="0"
     inkscape:cy="1942.3532"
     inkscape:cx="1859.6155"
     inkscape:zoom="0.14474045"
     units="in"
     showgrid="false"
     id="namedview2646"
     inkscape:window-height="855"
     inkscape:window-width="1123"
     inkscape:pageshadow="2"
     inkscape:pageopacity="0"
     guidetolerance="10"
     gridtolerance="10"
     objecttolerance="10"
     borderopacity="1"
     bordercolor="#666666"
     pagecolor="#ffffff" />
  <title
     id="title1374">Batches6Suite2</title>
  <desc
     id="desc1376">Generated by MuseScore 3.6.2</desc>
  <polyline
     transform="translate(-360,-1688.81)"
     id="polyline1398"
     points="360,1780.61 2700,1780.61"
     stroke-linejoin="bevel"
     stroke-width="2.34"
     stroke="#000000"
     fill="none"
     class="StaffLines" />
  <polyline
     transform="translate(-360,-1688.81)"
     id="polyline1400"
     points="360,1801.85 2700,1801.85"
     stroke-linejoin="bevel"
     stroke-width="2.34"
     stroke="#000000"
     fill="none"
     class="StaffLines" />
  <polyline
     transform="translate(-360,-1688.81)"
     id="polyline1402"
     points="360,1823.09 2700,1823.09"
     stroke-linejoin="bevel"
     stroke-width="2.34"
     stroke="#000000"
     fill="none"
     class="StaffLines" />
  <polyline
     transform="translate(-360,-1688.81)"
     id="polyline1404"
     points="360,1844.33 2700,1844.33"
     stroke-linejoin="bevel"
     stroke-width="2.34"
     stroke="#000000"
     fill="none"
     class="StaffLines" />
  <polyline
     transform="translate(-360,-1688.81)"
     id="polyline1406"
     points="360,1865.57 2700,1865.57"
     stroke-linejoin="bevel"
     stroke-width="2.34"
     stroke="#000000"
     fill="none"
     class="StaffLines" />
  <path
     id="path1450"
     d="m 188.342,83.3 c 40.428,-38.25 121.282,-38.25 161.71,0 -40.428,-32.31 -121.282,-32.31 -161.71,0"
     fill-rule="evenodd"
     stroke-linejoin="round"
     stroke-linecap="round"
     stroke-width="1.49"
     stroke="#000000"
     class="SlurSegment" />
  <path
     id="path1452"
     d="M 549.774,123.83 C 596.587,73.13 748.7,60.39 803.3,102.59 749.2,66.31 597.084,79.06 549.774,123.83"
     fill-rule="evenodd"
     stroke-linejoin="round"
     stroke-linecap="round"
     stroke-width="1.49"
     stroke="#000000"
     class="SlurSegment" />
  <path
     id="path1454"
     d="M 864.38,42.23 C 912.7,12.66 993.79,29.32 1026.54,75.54 992.59,35.14 911.51,18.49 864.38,42.23"
     fill-rule="evenodd"
     stroke-linejoin="round"
     stroke-linecap="round"
     stroke-width="1.49"
     stroke="#000000"
     class="SlurSegment" />
  <path
     id="path1456"
     d="m 1087.62,83.3 c 30.34,-44.69 106.4,-60.62 152.12,-31.86 -44.5,-22.94 -120.56,-7.01 -152.12,31.86"
     fill-rule="evenodd"
     stroke-linejoin="round"
     stroke-linecap="round"
     stroke-width="1.49"
     stroke="#000000"
     class="SlurSegment" />
  <path
     id="path1458"
     d="M 1290.44,40.82 C 1331.06,6.3999999 1407.12,11.71 1442.56,51.44 1406.7,17.64 1330.65,12.33 1290.44,40.82"
     fill-rule="evenodd"
     stroke-linejoin="round"
     stroke-linecap="round"
     stroke-width="1.49"
     stroke="#000000"
     class="SlurSegment" />
  <path
     id="path1460"
     d="M 1493.26,40.82 C 1547.97,7.7299999 1643.71,23.66 1684.75,72.68 1642.74,29.52 1546.99,13.59 1493.26,40.82"
     fill-rule="evenodd"
     stroke-linejoin="round"
     stroke-linecap="round"
     stroke-width="1.49"
     stroke="#000000"
     class="SlurSegment" />
  <path
     id="path1462"
     d="M 1879.6,125.78 C 1929.98,82.25 2075.11,88.62 2121.48,136.4 2074.85,94.56 1929.72,88.19 1879.6,125.78"
     fill-rule="evenodd"
     stroke-linejoin="round"
     stroke-linecap="round"
     stroke-width="1.49"
     stroke="#000000"
     class="SlurSegment" />
  <polyline
     transform="translate(-360,-1688.81)"
     id="polyline1492"
     points="757.626,1779.44 757.626,1866.74"
     stroke-linejoin="bevel"
     stroke-width="3.82"
     stroke="#000000"
     class="BarLine" />
  <polyline
     transform="translate(-360,-1688.81)"
     id="polyline1494"
     points="2524.91,1779.44 2524.91,1866.74"
     stroke-linejoin="bevel"
     stroke-width="3.82"
     stroke="#000000"
     class="BarLine" />
  <path
     style="stroke-width:0.8496"
     id="path1516"
     d="m 168.81036,86.87232 c -0.16992,-0.16992 -0.4248,-0.25488 -0.67968,-0.25488 -0.085,0 -0.25488,0.08496 -0.33984,0.08496 L 157.08588,89.676 V 74.808 H 154.707 v 42.0552 c 0,0.67968 0.50976,1.10448 1.18944,1.10448 h 0.33984 l 10.70496,-2.9736 v 14.868 h 2.29392 v -42.0552 c 0,-0.33984 -0.16992,-0.76464 -0.4248,-0.93456 m -1.86912,21.07008 -9.85536,2.71872 V 96.72768 l 9.85536,-2.80368 v 14.0184"
     class="Accidental" />
  <path
     style="stroke-width:0.8496"
     id="path1518"
     d="m 229.37468,104.03424 c 0.50976,-0.085 0.93456,-0.67968 0.93456,-1.18944 v -5.01264 c 0,-0.67968 -0.50976,-1.18944 -1.18944,-1.18944 h -0.16992 l -2.80368,0.59472 V 84.5784 h -2.37888 v 13.1688 l -7.56144,1.52928 V 87.29712 H 213.827 v 12.48912 l -3.31344,0.67968 c -0.50976,0.085 -0.93456,0.67968 -0.93456,1.18944 v 0.16992 4.92768 -0.16992 c 0,0.67968 0.50976,1.18944 1.18944,1.18944 h 0.25488 l 2.80368,-0.59472 v 14.0184 l -3.31344,0.67968 c -0.50976,0.085 -0.93456,0.67968 -0.93456,1.18944 v 4.92768 c 0,0.67968 0.50976,1.18944 1.18944,1.18944 h 0.25488 l 2.80368,-0.59472 v 12.65904 h 2.37888 v -13.1688 l 7.56144,-1.52928 V 138.528 h 2.37888 v -12.48912 l 3.22848,-0.59472 c 0.50976,-0.085 0.93456,-0.67968 0.93456,-1.18944 v -5.01264 c 0,-0.67968 -0.50976,-1.18944 -1.18944,-1.18944 h -0.16992 l -2.80368,0.59472 v -14.0184 l 3.22848,-0.59472 m -13.1688,16.73712 V 106.668 l 7.56144,-1.52928 v 14.0184 l -7.56144,1.61424"
     class="Accidental" />
  <path
     style="stroke-width:0.8496"
     id="path1520"
     d="m 844.33568,93.41424 c 0.50976,-0.08496 0.93456,-0.67968 0.93456,-1.18944 v -5.01264 c 0,-0.67968 -0.50976,-1.18944 -1.18944,-1.18944 h -0.16992 l -2.80368,0.59472 V 73.9584 h -2.37888 v 13.1688 l -7.56144,1.52928 V 76.67712 H 828.788 v 12.48912 l -3.31344,0.67968 C 824.9648,89.93088 824.54,90.5256 824.54,91.03536 v 0.16992 4.92768 -0.16992 c 0,0.67968 0.50976,1.18944 1.18944,1.18944 h 0.25488 l 2.80368,-0.59472 v 14.0184 l -3.31344,0.67968 c -0.50976,0.085 -0.93456,0.67968 -0.93456,1.18944 v 4.92768 c 0,0.67968 0.50976,1.18944 1.18944,1.18944 h 0.25488 l 2.80368,-0.59472 v 12.65904 h 2.37888 v -13.1688 l 7.56144,-1.52928 V 127.908 h 2.37888 v -12.48912 l 3.22848,-0.59472 c 0.50976,-0.085 0.93456,-0.67968 0.93456,-1.18944 v -5.01264 c 0,-0.67968 -0.50976,-1.18944 -1.18944,-1.18944 h -0.16992 l -2.80368,0.59472 v -14.0184 l 3.22848,-0.59472 m -13.1688,16.73712 V 96.048 l 7.56144,-1.52928 v 14.0184 l -7.56144,1.61424"
     class="Accidental" />
  <path
     style="stroke-width:0.8496"
     id="path1522"
     d="m 1067.5757,93.41424 c 0.5097,-0.08496 0.9345,-0.67968 0.9345,-1.18944 v -5.01264 c 0,-0.67968 -0.5097,-1.18944 -1.1894,-1.18944 h -0.1699 l -2.8037,0.59472 V 73.9584 h -2.3789 v 13.1688 l -7.5614,1.52928 V 76.67712 h -2.3789 v 12.48912 l -3.3134,0.67968 c -0.5098,0.08496 -0.9346,0.67968 -0.9346,1.18944 v 0.16992 4.92768 -0.16992 c 0,0.67968 0.5098,1.18944 1.1894,1.18944 h 0.2549 l 2.8037,-0.59472 v 14.0184 l -3.3134,0.67968 c -0.5098,0.085 -0.9346,0.67968 -0.9346,1.18944 v 4.92768 c 0,0.67968 0.5098,1.18944 1.1894,1.18944 h 0.2549 l 2.8037,-0.59472 v 12.65904 h 2.3789 v -13.1688 l 7.5614,-1.52928 V 127.908 h 2.3789 v -12.48912 l 3.2285,-0.59472 c 0.5097,-0.085 0.9345,-0.67968 0.9345,-1.18944 v -5.01264 c 0,-0.67968 -0.5097,-1.18944 -1.1894,-1.18944 h -0.1699 l -2.8037,0.59472 v -14.0184 l 3.2285,-0.59472 m -13.1688,16.73712 V 96.048 l 7.5614,-1.52928 v 14.0184 l -7.5614,1.61424"
     class="Accidental" />
  <path
     style="stroke-width:0.8496"
     id="path1524"
     d="m 1860.0634,129.35232 c -0.17,-0.16992 -0.4248,-0.25488 -0.6797,-0.25488 -0.085,0 -0.2549,0.085 -0.3399,0.085 l -10.7049,2.9736 v -14.868 h -2.3789 v 42.0552 c 0,0.67968 0.5098,1.10448 1.1894,1.10448 h 0.3399 l 10.7049,-2.9736 v 14.868 h 2.294 v -42.0552 c 0,-0.33984 -0.17,-0.76464 -0.4248,-0.93456 m -1.8692,21.07008 -9.8553,2.71872 v -13.93344 l 9.8553,-2.80368 v 14.0184"
     class="Accidental" />
  <polyline
     transform="translate(-360,-1688.81)"
     id="polyline1568"
     points="1578.5,1759.37 1620.97,1759.37"
     stroke-linejoin="bevel"
     stroke-width="3.4"
     stroke="#000000"
     class="LedgerLine" />
  <polyline
     transform="translate(-360,-1688.81)"
     id="polyline1570"
     points="1629.21,1759.37 1671.68,1759.37"
     stroke-linejoin="bevel"
     stroke-width="3.4"
     stroke="#000000"
     class="LedgerLine" />
  <polyline
     transform="translate(-360,-1688.81)"
     id="polyline1572"
     points="1679.91,1759.37 1722.38,1759.37"
     stroke-linejoin="bevel"
     stroke-width="3.4"
     stroke="#000000"
     class="LedgerLine" />
  <polyline
     transform="translate(-360,-1688.81)"
     id="polyline1574"
     points="1781.32,1759.37 1823.79,1759.37"
     stroke-linejoin="bevel"
     stroke-width="3.4"
     stroke="#000000"
     class="LedgerLine" />
  <polyline
     transform="translate(-360,-1688.81)"
     id="polyline1576"
     points="1832.03,1759.37 1874.5,1759.37"
     stroke-linejoin="bevel"
     stroke-width="3.4"
     stroke="#000000"
     class="LedgerLine" />
  <polyline
     transform="translate(-360,-1688.81)"
     id="polyline1578"
     points="1877.26,1759.37 1911.45,1759.37"
     stroke-linejoin="bevel"
     stroke-width="2.38"
     stroke="#000000"
     class="LedgerLine" />
  <polyline
     transform="translate(-360,-1688.81)"
     id="polyline1580"
     points="1948.45,1759.37 1990.92,1759.37"
     stroke-linejoin="bevel"
     stroke-width="3.4"
     stroke="#000000"
     class="LedgerLine" />
  <polyline
     transform="translate(-360,-1688.81)"
     id="polyline1582"
     points="2131.97,1759.37 2174.44,1759.37"
     stroke-linejoin="bevel"
     stroke-width="3.4"
     stroke="#000000"
     class="LedgerLine" />
  <polyline
     transform="translate(-360,-1688.81)"
     id="polyline1750"
     points="535.708,1794.08 535.708,1881.5"
     stroke-linejoin="bevel"
     stroke-width="2.34"
     stroke="#000000"
     class="Stem" />
  <polyline
     transform="translate(-360,-1688.81)"
     id="polyline1752"
     points="596.786,1804.7 596.786,1881.5"
     stroke-linejoin="bevel"
     stroke-width="2.34"
     stroke="#000000"
     class="Stem" />
  <polyline
     transform="translate(-360,-1688.81)"
     id="polyline1754"
     points="647.102,1783.46 647.102,1881.5"
     stroke-linejoin="bevel"
     stroke-width="2.34"
     stroke="#000000"
     class="Stem" />
  <polyline
     transform="translate(-360,-1688.81)"
     id="polyline1756"
     points="697.417,1794.08 697.417,1881.5"
     stroke-linejoin="bevel"
     stroke-width="2.34"
     stroke="#000000"
     class="Stem" />
  <polyline
     transform="translate(-360,-1688.81)"
     id="polyline1758"
     points="786.194,1794.08 786.194,1923.98"
     stroke-linejoin="bevel"
     stroke-width="2.34"
     stroke="#000000"
     class="Stem" />
  <polyline
     transform="translate(-360,-1688.81)"
     id="polyline1760"
     points="897.14,1847.18 897.14,1923.98"
     stroke-linejoin="bevel"
     stroke-width="2.34"
     stroke="#000000"
     class="Stem" />
  <polyline
     transform="translate(-360,-1688.81)"
     id="polyline1762"
     points="947.845,1836.56 947.845,1923.98"
     stroke-linejoin="bevel"
     stroke-width="2.34"
     stroke="#000000"
     class="Stem" />
  <polyline
     transform="translate(-360,-1688.81)"
     id="polyline1764"
     points="998.55,1825.94 998.55,1923.98"
     stroke-linejoin="bevel"
     stroke-width="2.34"
     stroke="#000000"
     class="Stem" />
  <polyline
     transform="translate(-360,-1688.81)"
     id="polyline1766"
     points="1049.25,1815.32 1049.25,1923.98"
     stroke-linejoin="bevel"
     stroke-width="2.34"
     stroke="#000000"
     class="Stem" />
  <polyline
     transform="translate(-360,-1688.81)"
     id="polyline1768"
     points="1099.96,1804.7 1099.96,1923.98"
     stroke-linejoin="bevel"
     stroke-width="2.34"
     stroke="#000000"
     class="Stem" />
  <polyline
     transform="translate(-360,-1688.81)"
     id="polyline1770"
     points="1150.66,1825.94 1150.66,1923.98"
     stroke-linejoin="bevel"
     stroke-width="2.34"
     stroke="#000000"
     class="Stem" />
  <polyline
     transform="translate(-360,-1688.81)"
     id="polyline1772"
     points="1211.74,1794.08 1211.74,1902.74"
     stroke-linejoin="bevel"
     stroke-width="2.34"
     stroke="#000000"
     class="Stem" />
  <polyline
     transform="translate(-360,-1688.81)"
     id="polyline1774"
     points="1272.5,1772.84 1272.5,1902.74"
     stroke-linejoin="bevel"
     stroke-width="2.34"
     stroke="#000000"
     class="Stem" />
  <polyline
     transform="translate(-360,-1688.81)"
     id="polyline1776"
     points="1250.06,1782.61 1250.06,1832.65"
     stroke-linejoin="bevel"
     stroke-width="1.64"
     stroke="#000000"
     class="Stem" />
  <polyline
     transform="translate(-360,-1688.81)"
     id="polyline1778"
     points="1323.2,1815.32 1323.2,1902.74"
     stroke-linejoin="bevel"
     stroke-width="2.34"
     stroke="#000000"
     class="Stem" />
  <polyline
     transform="translate(-360,-1688.81)"
     id="polyline1780"
     points="1373.91,1804.7 1373.91,1902.74"
     stroke-linejoin="bevel"
     stroke-width="2.34"
     stroke="#000000"
     class="Stem" />
  <polyline
     transform="translate(-360,-1688.81)"
     id="polyline1782"
     points="1434.99,1794.08 1434.99,1902.74"
     stroke-linejoin="bevel"
     stroke-width="2.34"
     stroke="#000000"
     class="Stem" />
  <polyline
     transform="translate(-360,-1688.81)"
     id="polyline1784"
     points="1485.69,1783.46 1485.69,1902.74"
     stroke-linejoin="bevel"
     stroke-width="2.34"
     stroke="#000000"
     class="Stem" />
  <polyline
     transform="translate(-360,-1688.81)"
     id="polyline1786"
     points="1536.4,1772.84 1536.4,1902.74"
     stroke-linejoin="bevel"
     stroke-width="2.34"
     stroke="#000000"
     class="Stem" />
  <polyline
     transform="translate(-360,-1688.81)"
     id="polyline1788"
     points="1587.1,1762.22 1587.1,1902.74"
     stroke-linejoin="bevel"
     stroke-width="2.34"
     stroke="#000000"
     class="Stem" />
  <polyline
     transform="translate(-360,-1688.81)"
     id="polyline1790"
     points="1637.81,1751.6 1637.81,1860.26"
     stroke-linejoin="bevel"
     stroke-width="2.34"
     stroke="#000000"
     class="Stem" />
  <polyline
     transform="translate(-360,-1688.81)"
     id="polyline1792"
     points="1688.51,1762.22 1688.51,1862.99"
     stroke-linejoin="bevel"
     stroke-width="2.34"
     stroke="#000000"
     class="Stem" />
  <polyline
     transform="translate(-360,-1688.81)"
     id="polyline1794"
     points="1739.22,1772.84 1739.22,1865.72"
     stroke-linejoin="bevel"
     stroke-width="2.34"
     stroke="#000000"
     class="Stem" />
  <polyline
     transform="translate(-360,-1688.81)"
     id="polyline1796"
     points="1789.92,1762.22 1789.92,1868.45"
     stroke-linejoin="bevel"
     stroke-width="2.34"
     stroke="#000000"
     class="Stem" />
  <polyline
     transform="translate(-360,-1688.81)"
     id="polyline1798"
     points="1840.63,1751.6 1840.63,1871.18"
     stroke-linejoin="bevel"
     stroke-width="2.34"
     stroke="#000000"
     class="Stem" />
  <polyline
     transform="translate(-360,-1688.81)"
     id="polyline1800"
     points="1885.51,1761.37 1885.51,1873.62"
     stroke-linejoin="bevel"
     stroke-width="1.64"
     stroke="#000000"
     class="Stem" />
  <polyline
     transform="translate(-360,-1688.81)"
     id="polyline1802"
     points="1919.25,1772.84 1919.25,1875.42"
     stroke-linejoin="bevel"
     stroke-width="2.34"
     stroke="#000000"
     class="Stem" />
  <polyline
     transform="translate(-360,-1688.81)"
     id="polyline1804"
     points="1957.05,1762.22 1957.05,1877.45"
     stroke-linejoin="bevel"
     stroke-width="2.34"
     stroke="#000000"
     class="Stem" />
  <polyline
     transform="translate(-360,-1688.81)"
     id="polyline1806"
     points="1998.38,1771.99 1998.38,1879.7"
     stroke-linejoin="bevel"
     stroke-width="1.64"
     stroke="#000000"
     class="Stem" />
  <polyline
     transform="translate(-360,-1688.81)"
     id="polyline1808"
     points="2032.12,1783.46 2032.12,1881.5"
     stroke-linejoin="bevel"
     stroke-width="2.34"
     stroke="#000000"
     class="Stem" />
  <polyline
     transform="translate(-360,-1688.81)"
     id="polyline1810"
     points="2140.57,1751.6 2140.57,1923.98"
     stroke-linejoin="bevel"
     stroke-width="2.34"
     stroke="#000000"
     class="Stem" />
  <polyline
     transform="translate(-360,-1688.81)"
     id="polyline1812"
     points="2226.97,1836.56 2226.97,1923.98"
     stroke-linejoin="bevel"
     stroke-width="2.34"
     stroke="#000000"
     class="Stem" />
  <polyline
     transform="translate(-360,-1688.81)"
     id="polyline1814"
     points="2277.67,1825.94 2277.67,1923.98"
     stroke-linejoin="bevel"
     stroke-width="2.34"
     stroke="#000000"
     class="Stem" />
  <polyline
     transform="translate(-360,-1688.81)"
     id="polyline1816"
     points="2328.38,1836.56 2328.38,1923.98"
     stroke-linejoin="bevel"
     stroke-width="2.34"
     stroke="#000000"
     class="Stem" />
  <polyline
     transform="translate(-360,-1688.81)"
     id="polyline1818"
     points="2379.08,1847.18 2379.08,1923.98"
     stroke-linejoin="bevel"
     stroke-width="2.34"
     stroke="#000000"
     class="Stem" />
  <polyline
     transform="translate(-360,-1688.81)"
     id="polyline1820"
     points="2411.22,1825.09 2411.22,1875.13"
     stroke-linejoin="bevel"
     stroke-width="1.64"
     stroke="#000000"
     class="Stem" />
  <polyline
     transform="translate(-360,-1688.81)"
     id="polyline1822"
     points="2443.45,1836.56 2443.45,1923.98"
     stroke-linejoin="bevel"
     stroke-width="2.34"
     stroke="#000000"
     class="Stem" />
  <polyline
     transform="translate(-360,-1688.81)"
     id="polyline1824"
     points="2472.64,1846.33 2472.64,1896.37"
     stroke-linejoin="bevel"
     stroke-width="1.64"
     stroke="#000000"
     class="Stem" />
  <polyline
     transform="translate(-360,-1688.81)"
     id="polyline1826"
     points="2578.75,1841.61 2578.75,1759.37"
     stroke-linejoin="bevel"
     stroke-width="2.34"
     stroke="#000000"
     class="Stem" />
  <path
     style="stroke-width:0.8496"
     id="path2054"
     d="m 201.3024,95.53824 c -1.52928,-2.80368 -4.75776,-4.33296 -8.66592,-4.33296 -2.88864,0 -6.03216,0.8496 -9.09072,2.46384 -5.60736,2.9736 -9.00576,7.98624 -9.00576,12.3192 0,1.18944 0.25488,2.37888 0.8496,3.48336 1.52928,2.80368 4.75776,4.248 8.66592,4.248 2.88864,0 6.03216,-0.76464 9.09072,-2.37888 5.60736,-2.9736 9.00576,-7.98624 9.00576,-12.3192 0,-1.18944 -0.25488,-2.37888 -0.8496,-3.48336"
     class="Note" />
  <path
     style="stroke-width:0.8496"
     id="path2056"
     d="m 262.3804,106.15824 c -1.52928,-2.80368 -4.75776,-4.33296 -8.66592,-4.33296 -2.88864,0 -6.03216,0.8496 -9.09072,2.46384 -5.60736,2.9736 -9.00576,7.98624 -9.00576,12.3192 0,1.18944 0.25488,2.37888 0.8496,3.48336 1.52928,2.80368 4.75776,4.248 8.66592,4.248 2.88864,0 6.03216,-0.76464 9.09072,-2.37888 5.60736,-2.9736 9.00576,-7.98624 9.00576,-12.3192 0,-1.18944 -0.25488,-2.37888 -0.8496,-3.48336"
     class="Note" />
  <path
     style="stroke-width:0.8496"
     id="path2058"
     d="m 312.6964,84.91824 c -1.52928,-2.80368 -4.75776,-4.33296 -8.66592,-4.33296 -2.88864,0 -6.03216,0.8496 -9.09072,2.46384 -5.60736,2.9736 -9.00576,7.98624 -9.00576,12.3192 0,1.18944 0.25488,2.37888 0.8496,3.48336 1.52928,2.80368 4.75776,4.248 8.66592,4.248 2.88864,0 6.03216,-0.76464 9.09072,-2.37888 5.60736,-2.9736 9.00576,-7.98624 9.00576,-12.3192 0,-1.18944 -0.25488,-2.37888 -0.8496,-3.48336"
     class="Note" />
  <path
     style="stroke-width:0.8496"
     id="path2060"
     d="m 363.0114,95.53824 c -1.52928,-2.80368 -4.75776,-4.33296 -8.66592,-4.33296 -2.88864,0 -6.03216,0.8496 -9.09072,2.46384 -5.60736,2.9736 -9.00576,7.98624 -9.00576,12.3192 0,1.18944 0.25488,2.37888 0.8496,3.48336 1.52928,2.80368 4.75776,4.248 8.66592,4.248 2.88864,0 6.03216,-0.76464 9.09072,-2.37888 5.60736,-2.9736 9.00576,-7.98624 9.00576,-12.3192 0,-1.18944 -0.25488,-2.37888 -0.8496,-3.48336"
     class="Note" />
  <path
     style="stroke-width:0.8496"
     id="path2062"
     d="m 451.7884,95.53824 c -1.52928,-2.80368 -4.75776,-4.33296 -8.66592,-4.33296 -2.88864,0 -6.03216,0.8496 -9.09072,2.46384 -5.60736,2.9736 -9.00576,7.98624 -9.00576,12.3192 0,1.18944 0.25488,2.37888 0.8496,3.48336 1.52928,2.80368 4.75776,4.248 8.66592,4.248 2.88864,0 6.03216,-0.76464 9.09072,-2.37888 5.60736,-2.9736 9.00576,-7.98624 9.00576,-12.3192 0,-1.18944 -0.25488,-2.37888 -0.8496,-3.48336"
     class="Note" />
  <path
     style="stroke-width:0.8496"
     id="path2064"
     d="m 562.7344,148.63824 c -1.52928,-2.80368 -4.75776,-4.33296 -8.66592,-4.33296 -2.88864,0 -6.03216,0.8496 -9.09072,2.46384 -5.60736,2.9736 -9.00576,7.98624 -9.00576,12.3192 0,1.18944 0.25488,2.37888 0.8496,3.48336 1.52928,2.80368 4.75776,4.248 8.66592,4.248 2.88864,0 6.03216,-0.76464 9.09072,-2.37888 5.60736,-2.9736 9.00576,-7.98624 9.00576,-12.3192 0,-1.18944 -0.25488,-2.37888 -0.8496,-3.48336"
     class="Note" />
  <path
     style="stroke-width:0.8496"
     id="path2066"
     d="m 613.4394,138.01824 c -1.52928,-2.80368 -4.75776,-4.33296 -8.66592,-4.33296 -2.88864,0 -6.03216,0.8496 -9.09072,2.46384 -5.60736,2.9736 -9.00576,7.98624 -9.00576,12.3192 0,1.18944 0.25488,2.37888 0.8496,3.48336 1.52928,2.80368 4.75776,4.248 8.66592,4.248 2.88864,0 6.03216,-0.76464 9.09072,-2.37888 5.60736,-2.9736 9.00576,-7.98624 9.00576,-12.3192 0,-1.18944 -0.25488,-2.37888 -0.8496,-3.48336"
     class="Note" />
  <path
     style="stroke-width:0.8496"
     id="path2068"
     d="m 664.1444,127.39824 c -1.52928,-2.80368 -4.75776,-4.33296 -8.66592,-4.33296 -2.88864,0 -6.03216,0.8496 -9.09072,2.46384 -5.60736,2.9736 -9.00576,7.98624 -9.00576,12.3192 0,1.18944 0.25488,2.37888 0.8496,3.48336 1.52928,2.80368 4.75776,4.248 8.66592,4.248 2.88864,0 6.03216,-0.76464 9.09072,-2.37888 5.60736,-2.9736 9.00576,-7.98624 9.00576,-12.3192 0,-1.18944 -0.25488,-2.37888 -0.8496,-3.48336"
     class="Note" />
  <path
     style="stroke-width:0.8496"
     id="path2070"
     d="m 714.8524,116.77824 c -1.52928,-2.80368 -4.75776,-4.33296 -8.66592,-4.33296 -2.88864,0 -6.03216,0.8496 -9.09072,2.46384 -5.60736,2.9736 -9.00576,7.98624 -9.00576,12.3192 0,1.18944 0.25488,2.37888 0.8496,3.48336 1.52928,2.80368 4.75776,4.248 8.66592,4.248 2.88864,0 6.03216,-0.76464 9.09072,-2.37888 5.60736,-2.9736 9.00576,-7.98624 9.00576,-12.3192 0,-1.18944 -0.25488,-2.37888 -0.8496,-3.48336"
     class="Note" />
  <path
     style="stroke-width:0.8496"
     id="path2072"
     d="m 765.5524,106.15824 c -1.52928,-2.80368 -4.75776,-4.33296 -8.66592,-4.33296 -2.88864,0 -6.03216,0.8496 -9.09072,2.46384 -5.60736,2.9736 -9.00576,7.98624 -9.00576,12.3192 0,1.18944 0.25488,2.37888 0.8496,3.48336 1.52928,2.80368 4.75776,4.248 8.66592,4.248 2.88864,0 6.03216,-0.76464 9.09072,-2.37888 5.60736,-2.9736 9.00576,-7.98624 9.00576,-12.3192 0,-1.18944 -0.25488,-2.37888 -0.8496,-3.48336"
     class="Note" />
  <path
     style="stroke-width:0.8496"
     id="path2074"
     d="m 816.2624,127.39824 c -1.52928,-2.80368 -4.75776,-4.33296 -8.66592,-4.33296 -2.88864,0 -6.03216,0.8496 -9.09072,2.46384 -5.60736,2.9736 -9.00576,7.98624 -9.00576,12.3192 0,1.18944 0.25488,2.37888 0.8496,3.48336 1.52928,2.80368 4.75776,4.248 8.66592,4.248 2.88864,0 6.03216,-0.76464 9.09072,-2.37888 5.60736,-2.9736 9.00576,-7.98624 9.00576,-12.3192 0,-1.18944 -0.25488,-2.37888 -0.8496,-3.48336"
     class="Note" />
  <path
     style="stroke-width:0.8496"
     id="path2076"
     d="m 877.3324,95.53824 c -1.52928,-2.80368 -4.75776,-4.33296 -8.66592,-4.33296 -2.88864,0 -6.03216,0.8496 -9.09072,2.46384 -5.60736,2.9736 -9.00576,7.98624 -9.00576,12.3192 0,1.18944 0.25488,2.37888 0.8496,3.48336 1.52928,2.80368 4.75776,4.248 8.66592,4.248 2.88864,0 6.03216,-0.76464 9.09072,-2.37888 5.60736,-2.9736 9.00576,-7.98624 9.00576,-12.3192 0,-1.18944 -0.25488,-2.37888 -0.8496,-3.48336"
     class="Note" />
  <path
     style="stroke-width:0.8496"
     id="path2078"
     d="m 938.0924,74.29824 c -1.52928,-2.80368 -4.75776,-4.33296 -8.66592,-4.33296 -2.88864,0 -6.03216,0.8496 -9.09072,2.46384 -5.60736,2.9736 -9.00576,7.98624 -9.00576,12.3192 0,1.18944 0.25488,2.37888 0.8496,3.48336 1.52928,2.80368 4.75776,4.248 8.66592,4.248 2.88864,0 6.03216,-0.76464 9.09072,-2.37888 5.60736,-2.9736 9.00576,-7.98624 9.00576,-12.3192 0,-1.18944 -0.25488,-2.37888 -0.8496,-3.48336"
     class="Note" />
  <path
     style="stroke-width:0.59472"
     id="path2080"
     d="m 907.98368,86.982768 c -1.0705,-1.962576 -3.33043,-3.033072 -6.06614,-3.033072 -2.02205,0 -4.22252,0.59472 -6.36351,1.724688 -3.92515,2.08152 -6.30403,5.590368 -6.30403,8.62344 0,0.832608 0.17842,1.665216 0.59472,2.438352 1.0705,1.962576 3.33043,2.9736 6.06614,2.9736 2.02205,0 4.22252,-0.535248 6.36351,-1.665216 3.92515,-2.08152 6.30403,-5.590368 6.30403,-8.62344 0,-0.832608 -0.17842,-1.665216 -0.59472,-2.438352"
     class="Note" />
  <path
     style="stroke-width:0.8496"
     id="path2082"
     d="m 988.8024,116.77824 c -1.52928,-2.80368 -4.75776,-4.33296 -8.66592,-4.33296 -2.88864,0 -6.03216,0.8496 -9.09072,2.46384 -5.60736,2.9736 -9.00576,7.98624 -9.00576,12.3192 0,1.18944 0.25488,2.37888 0.8496,3.48336 1.52928,2.80368 4.75776,4.248 8.66592,4.248 2.88864,0 6.03216,-0.76464 9.09072,-2.37888 5.60736,-2.9736 9.00576,-7.98624 9.00576,-12.3192 0,-1.18944 -0.25488,-2.37888 -0.8496,-3.48336"
     class="Note" />
  <path
     style="stroke-width:0.8496"
     id="path2084"
     d="m 1039.5024,106.15824 c -1.5293,-2.80368 -4.7578,-4.33296 -8.6659,-4.33296 -2.8887,0 -6.0322,0.8496 -9.0907,2.46384 -5.6074,2.9736 -9.0058,7.98624 -9.0058,12.3192 0,1.18944 0.2549,2.37888 0.8496,3.48336 1.5293,2.80368 4.7578,4.248 8.6659,4.248 2.8887,0 6.0322,-0.76464 9.0907,-2.37888 5.6074,-2.9736 9.0058,-7.98624 9.0058,-12.3192 0,-1.18944 -0.2549,-2.37888 -0.8496,-3.48336"
     class="Note" />
  <path
     style="stroke-width:0.8496"
     id="path2086"
     d="m 1100.5824,95.53824 c -1.5293,-2.80368 -4.7578,-4.33296 -8.6659,-4.33296 -2.8887,0 -6.0322,0.8496 -9.0907,2.46384 -5.6074,2.9736 -9.0058,7.98624 -9.0058,12.3192 0,1.18944 0.2549,2.37888 0.8496,3.48336 1.5293,2.80368 4.7578,4.248 8.6659,4.248 2.8887,0 6.0322,-0.76464 9.0907,-2.37888 5.6074,-2.9736 9.0058,-7.98624 9.0058,-12.3192 0,-1.18944 -0.2549,-2.37888 -0.8496,-3.48336"
     class="Note" />
  <path
     style="stroke-width:0.8496"
     id="path2088"
     d="m 1151.2824,84.91824 c -1.5293,-2.80368 -4.7578,-4.33296 -8.6659,-4.33296 -2.8887,0 -6.0322,0.8496 -9.0907,2.46384 -5.6074,2.9736 -9.0058,7.98624 -9.0058,12.3192 0,1.18944 0.2549,2.37888 0.8496,3.48336 1.5293,2.80368 4.7578,4.248 8.6659,4.248 2.8887,0 6.0322,-0.76464 9.0907,-2.37888 5.6074,-2.9736 9.0058,-7.98624 9.0058,-12.3192 0,-1.18944 -0.2549,-2.37888 -0.8496,-3.48336"
     class="Note" />
  <path
     style="stroke-width:0.8496"
     id="path2090"
     d="m 1201.9924,74.29824 c -1.5293,-2.80368 -4.7578,-4.33296 -8.6659,-4.33296 -2.8887,0 -6.0322,0.8496 -9.0907,2.46384 -5.6074,2.9736 -9.0058,7.98624 -9.0058,12.3192 0,1.18944 0.2549,2.37888 0.8496,3.48336 1.5293,2.80368 4.7578,4.248 8.6659,4.248 2.8887,0 6.0322,-0.76464 9.0907,-2.37888 5.6074,-2.9736 9.0058,-7.98624 9.0058,-12.3192 0,-1.18944 -0.2549,-2.37888 -0.8496,-3.48336"
     class="Note" />
  <path
     style="stroke-width:0.8496"
     id="path2092"
     d="m 1252.6924,63.67824 c -1.5293,-2.80368 -4.7578,-4.33296 -8.6659,-4.33296 -2.8887,0 -6.0322,0.8496 -9.0907,2.46384 -5.6074,2.9736 -9.0058,7.98624 -9.0058,12.3192 0,1.18944 0.2549,2.37888 0.8496,3.48336 1.5293,2.80368 4.7578,4.248 8.6659,4.248 2.8887,0 6.0322,-0.76464 9.0907,-2.37888 5.6074,-2.9736 9.0058,-7.98624 9.0058,-12.3192 0,-1.18944 -0.2549,-2.37888 -0.8496,-3.48336"
     class="Note" />
  <path
     style="stroke-width:0.8496"
     id="path2094"
     d="m 1303.4024,53.05824 c -1.5293,-2.80368 -4.7578,-4.33296 -8.6659,-4.33296 -2.8887,0 -6.0322,0.8496 -9.0907,2.46384 -5.6074,2.9736 -9.0058,7.98624 -9.0058,12.3192 0,1.18944 0.2549,2.37888 0.8496,3.48336 1.5293,2.80368 4.7578,4.248 8.6659,4.248 2.8887,0 6.0322,-0.76464 9.0907,-2.37888 5.6074,-2.9736 9.0058,-7.98624 9.0058,-12.3192 0,-1.18944 -0.2549,-2.37888 -0.8496,-3.48336"
     class="Note" />
  <path
     style="stroke-width:0.8496"
     id="path2096"
     d="m 1354.1024,63.67824 c -1.5293,-2.80368 -4.7578,-4.33296 -8.6659,-4.33296 -2.8887,0 -6.0322,0.8496 -9.0907,2.46384 -5.6074,2.9736 -9.0058,7.98624 -9.0058,12.3192 0,1.18944 0.2549,2.37888 0.8496,3.48336 1.5293,2.80368 4.7578,4.248 8.6659,4.248 2.8887,0 6.0322,-0.76464 9.0907,-2.37888 5.6074,-2.9736 9.0058,-7.98624 9.0058,-12.3192 0,-1.18944 -0.2549,-2.37888 -0.8496,-3.48336"
     class="Note" />
  <path
     style="stroke-width:0.8496"
     id="path2098"
     d="m 1404.8124,74.29824 c -1.5293,-2.80368 -4.7578,-4.33296 -8.6659,-4.33296 -2.8887,0 -6.0322,0.8496 -9.0907,2.46384 -5.6074,2.9736 -9.0058,7.98624 -9.0058,12.3192 0,1.18944 0.2549,2.37888 0.8496,3.48336 1.5293,2.80368 4.7578,4.248 8.6659,4.248 2.8887,0 6.0322,-0.76464 9.0907,-2.37888 5.6074,-2.9736 9.0058,-7.98624 9.0058,-12.3192 0,-1.18944 -0.2549,-2.37888 -0.8496,-3.48336"
     class="Note" />
  <path
     style="stroke-width:0.8496"
     id="path2100"
     d="m 1455.5124,63.67824 c -1.5293,-2.80368 -4.7578,-4.33296 -8.6659,-4.33296 -2.8887,0 -6.0322,0.8496 -9.0907,2.46384 -5.6074,2.9736 -9.0058,7.98624 -9.0058,12.3192 0,1.18944 0.2549,2.37888 0.8496,3.48336 1.5293,2.80368 4.7578,4.248 8.6659,4.248 2.8887,0 6.0322,-0.76464 9.0907,-2.37888 5.6074,-2.9736 9.0058,-7.98624 9.0058,-12.3192 0,-1.18944 -0.2549,-2.37888 -0.8496,-3.48336"
     class="Note" />
  <path
     style="stroke-width:0.8496"
     id="path2102"
     d="m 1506.2224,53.05824 c -1.5293,-2.80368 -4.7578,-4.33296 -8.6659,-4.33296 -2.8887,0 -6.0322,0.8496 -9.0907,2.46384 -5.6074,2.9736 -9.0058,7.98624 -9.0058,12.3192 0,1.18944 0.2549,2.37888 0.8496,3.48336 1.5293,2.80368 4.7578,4.248 8.6659,4.248 2.8887,0 6.0322,-0.76464 9.0907,-2.37888 5.6074,-2.9736 9.0058,-7.98624 9.0058,-12.3192 0,-1.18944 -0.2549,-2.37888 -0.8496,-3.48336"
     class="Note" />
  <path
     style="stroke-width:0.59472"
     id="path2104"
     d="m 1543.4237,65.742768 c -1.0705,-1.962576 -3.3305,-3.033072 -6.0662,-3.033072 -2.022,0 -4.2225,0.59472 -6.3635,1.724688 -3.9251,2.08152 -6.304,5.590368 -6.304,8.62344 0,0.832608 0.1784,1.665216 0.5947,2.438352 1.0705,1.962576 3.3305,2.9736 6.0662,2.9736 2.022,0 4.2225,-0.535248 6.3635,-1.665216 3.9251,-2.08152 6.304,-5.590368 6.304,-8.62344 0,-0.832608 -0.1784,-1.665216 -0.5947,-2.438352"
     class="Note" />
  <path
     style="stroke-width:0.8496"
     id="path2106"
     d="m 1584.8524,74.29824 c -1.5293,-2.80368 -4.7578,-4.33296 -8.6659,-4.33296 -2.8887,0 -6.0322,0.8496 -9.0907,2.46384 -5.6074,2.9736 -9.0058,7.98624 -9.0058,12.3192 0,1.18944 0.2549,2.37888 0.8496,3.48336 1.5293,2.80368 4.7578,4.248 8.6659,4.248 2.8887,0 6.0322,-0.76464 9.0907,-2.37888 5.6074,-2.9736 9.0058,-7.98624 9.0058,-12.3192 0,-1.18944 -0.2549,-2.37888 -0.8496,-3.48336"
     class="Note" />
  <path
     style="stroke-width:0.8496"
     id="path2108"
     d="m 1622.6524,63.67824 c -1.5293,-2.80368 -4.7578,-4.33296 -8.6659,-4.33296 -2.8887,0 -6.0322,0.8496 -9.0907,2.46384 -5.6074,2.9736 -9.0058,7.98624 -9.0058,12.3192 0,1.18944 0.2549,2.37888 0.8496,3.48336 1.5293,2.80368 4.7578,4.248 8.6659,4.248 2.8887,0 6.0322,-0.76464 9.0907,-2.37888 5.6074,-2.9736 9.0058,-7.98624 9.0058,-12.3192 0,-1.18944 -0.2549,-2.37888 -0.8496,-3.48336"
     class="Note" />
  <path
     style="stroke-width:0.59472"
     id="path2110"
     d="m 1656.2937,76.362768 c -1.0705,-1.962576 -3.3305,-3.033072 -6.0662,-3.033072 -2.022,0 -4.2225,0.59472 -6.3635,1.724688 -3.9251,2.08152 -6.304,5.590368 -6.304,8.62344 0,0.832608 0.1784,1.665216 0.5947,2.438352 1.0705,1.962576 3.3305,2.9736 6.0662,2.9736 2.022,0 4.2225,-0.535248 6.3635,-1.665216 3.9251,-2.08152 6.304,-5.590368 6.304,-8.62344 0,-0.832608 -0.1784,-1.665216 -0.5947,-2.438352"
     class="Note" />
  <path
     style="stroke-width:0.8496"
     id="path2112"
     d="m 1697.7124,84.91824 c -1.5293,-2.80368 -4.7578,-4.33296 -8.6659,-4.33296 -2.8887,0 -6.0322,0.8496 -9.0907,2.46384 -5.6074,2.9736 -9.0058,7.98624 -9.0058,12.3192 0,1.18944 0.2549,2.37888 0.8496,3.48336 1.5293,2.80368 4.7578,4.248 8.6659,4.248 2.8887,0 6.0322,-0.76464 9.0907,-2.37888 5.6074,-2.9736 9.0058,-7.98624 9.0058,-12.3192 0,-1.18944 -0.2549,-2.37888 -0.8496,-3.48336"
     class="Note" />
  <path
     style="stroke-width:0.8496"
     id="path2114"
     d="m 1806.1624,53.05824 c -1.5293,-2.80368 -4.7578,-4.33296 -8.6659,-4.33296 -2.8887,0 -6.0322,0.8496 -9.0907,2.46384 -5.6074,2.9736 -9.0058,7.98624 -9.0058,12.3192 0,1.18944 0.2549,2.37888 0.8496,3.48336 1.5293,2.80368 4.7578,4.248 8.6659,4.248 2.8887,0 6.0322,-0.76464 9.0907,-2.37888 5.6074,-2.9736 9.0058,-7.98624 9.0058,-12.3192 0,-1.18944 -0.2549,-2.37888 -0.8496,-3.48336"
     class="Note" />
  <path
     style="stroke-width:0.8496"
     id="path2116"
     d="m 1892.5624,138.01824 c -1.5293,-2.80368 -4.7578,-4.33296 -8.6659,-4.33296 -2.8887,0 -6.0322,0.8496 -9.0907,2.46384 -5.6074,2.9736 -9.0058,7.98624 -9.0058,12.3192 0,1.18944 0.2549,2.37888 0.8496,3.48336 1.5293,2.80368 4.7578,4.248 8.6659,4.248 2.8887,0 6.0322,-0.76464 9.0907,-2.37888 5.6074,-2.9736 9.0058,-7.98624 9.0058,-12.3192 0,-1.18944 -0.2549,-2.37888 -0.8496,-3.48336"
     class="Note" />
  <path
     style="stroke-width:0.8496"
     id="path2118"
     d="m 1943.2624,127.39824 c -1.5293,-2.80368 -4.7578,-4.33296 -8.6659,-4.33296 -2.8887,0 -6.0322,0.8496 -9.0907,2.46384 -5.6074,2.9736 -9.0058,7.98624 -9.0058,12.3192 0,1.18944 0.2549,2.37888 0.8496,3.48336 1.5293,2.80368 4.7578,4.248 8.6659,4.248 2.8887,0 6.0322,-0.76464 9.0907,-2.37888 5.6074,-2.9736 9.0058,-7.98624 9.0058,-12.3192 0,-1.18944 -0.2549,-2.37888 -0.8496,-3.48336"
     class="Note" />
  <path
     style="stroke-width:0.8496"
     id="path2120"
     d="m 1993.9724,138.01824 c -1.5293,-2.80368 -4.7578,-4.33296 -8.6659,-4.33296 -2.8887,0 -6.0322,0.8496 -9.0907,2.46384 -5.6074,2.9736 -9.0058,7.98624 -9.0058,12.3192 0,1.18944 0.2549,2.37888 0.8496,3.48336 1.5293,2.80368 4.7578,4.248 8.6659,4.248 2.8887,0 6.0322,-0.76464 9.0907,-2.37888 5.6074,-2.9736 9.0058,-7.98624 9.0058,-12.3192 0,-1.18944 -0.2549,-2.37888 -0.8496,-3.48336"
     class="Note" />
  <path
     style="stroke-width:0.8496"
     id="path2122"
     d="m 2044.6724,148.63824 c -1.5293,-2.80368 -4.7578,-4.33296 -8.6659,-4.33296 -2.8887,0 -6.0322,0.8496 -9.0907,2.46384 -5.6074,2.9736 -9.0058,7.98624 -9.0058,12.3192 0,1.18944 0.2549,2.37888 0.8496,3.48336 1.5293,2.80368 4.7578,4.248 8.6659,4.248 2.8887,0 6.0322,-0.76464 9.0907,-2.37888 5.6074,-2.9736 9.0058,-7.98624 9.0058,-12.3192 0,-1.18944 -0.2549,-2.37888 -0.8496,-3.48336"
     class="Note" />
  <path
     style="stroke-width:0.59472"
     id="path2124"
     d="m 2069.1337,129.46277 c -1.0705,-1.96258 -3.3305,-3.03307 -6.0662,-3.03307 -2.022,0 -4.2225,0.59472 -6.3635,1.72468 -3.9251,2.08152 -6.304,5.59037 -6.304,8.62344 0,0.83261 0.1784,1.66522 0.5947,2.43836 1.0705,1.96257 3.3305,2.9736 6.0662,2.9736 2.022,0 4.2225,-0.53525 6.3635,-1.66522 3.9251,-2.08152 6.304,-5.59037 6.304,-8.62344 0,-0.83261 -0.1784,-1.66522 -0.5947,-2.43835"
     class="Note" />
  <path
     style="stroke-width:0.8496"
     id="path2126"
     d="m 2109.0424,138.01824 c -1.5293,-2.80368 -4.7578,-4.33296 -8.6659,-4.33296 -2.8887,0 -6.0322,0.8496 -9.0907,2.46384 -5.6074,2.9736 -9.0058,7.98624 -9.0058,12.3192 0,1.18944 0.2549,2.37888 0.8496,3.48336 1.5293,2.80368 4.7578,4.248 8.6659,4.248 2.8887,0 6.0322,-0.76464 9.0907,-2.37888 5.6074,-2.9736 9.0058,-7.98624 9.0058,-12.3192 0,-1.18944 -0.2549,-2.37888 -0.8496,-3.48336"
     class="Note" />
  <path
     style="stroke-width:0.59472"
     id="path2128"
     d="m 2130.5537,150.70277 c -1.0705,-1.96258 -3.3305,-3.03307 -6.0662,-3.03307 -2.022,0 -4.2225,0.59472 -6.3635,1.72468 -3.9251,2.08152 -6.304,5.59037 -6.304,8.62344 0,0.83261 0.1784,1.66522 0.5947,2.43836 1.0705,1.96257 3.3305,2.9736 6.0662,2.9736 2.022,0 4.2225,-0.53525 6.3635,-1.66522 3.9251,-2.08152 6.304,-5.59037 6.304,-8.62344 0,-0.83261 -0.1784,-1.66522 -0.5947,-2.43835"
     class="Note" />
  <path
     style="stroke-width:0.8496"
     id="path2130"
     d="m 2219.0724,148.63824 c -1.5293,-2.80368 -4.7578,-4.33296 -8.6659,-4.33296 -2.8887,0 -6.0322,0.8496 -9.0907,2.46384 -5.6074,2.9736 -9.0058,7.98624 -9.0058,12.3192 0,1.18944 0.2549,2.37888 0.8496,3.48336 1.5293,2.80368 4.7578,4.248 8.6659,4.248 2.8887,0 6.0322,-0.76464 9.0907,-2.37888 5.6074,-2.9736 9.0058,-7.98624 9.0058,-12.3192 0,-1.18944 -0.2549,-2.37888 -0.8496,-3.48336"
     class="Note" />
  <path
     style="stroke-width:0.8496"
     id="path2208"
     d="m 24.2136,73.19376 h -6.11712 c -0.59472,0 -1.10448,0.50976 -1.10448,1.10448 v 77.3136 c 0,0.59472 0.50976,1.10448 1.10448,1.10448 h 6.11712 c 0.59472,0 1.10448,-0.50976 1.10448,-1.10448 v -77.3136 c 0,-0.59472 -0.50976,-1.10448 -1.10448,-1.10448 m 30.5856,43.24464 h -1.2744 c -1.95408,0 -3.3984,0.16992 -6.71184,2.20896 0,0 -1.86912,-3.73824 -4.6728,-5.69232 2.80368,-1.95408 4.6728,-5.69232 4.6728,-5.69232 3.31344,2.03904 4.75776,2.20896 6.71184,2.20896 h 1.2744 c 10.36512,0 15.46272,-9.60048 15.46272,-18.77616 0,-11.8944 -8.75088,-18.60624 -19.03104,-18.60624 -9.3456,0 -13.25376,4.6728 -13.25376,4.6728 -1.52928,1.86912 -2.20896,3.90816 -2.20896,5.77728 0,1.52928 0.4248,2.9736 1.2744,4.248 1.18944,1.6992 3.56832,2.63376 5.77728,2.63376 1.52928,0 2.9736,-0.4248 3.99312,-1.2744 1.44432,-1.2744 2.37888,-3.14352 2.37888,-5.18256 0,-1.18944 -0.33984,-2.37888 -0.93456,-3.48336 -1.35936,-2.46384 -3.90816,-2.80368 -5.26752,-2.80368 -0.50976,0 -0.93456,0.08496 -0.93456,0.08496 1.95408,-1.35936 4.58784,-2.124 7.2216,-2.124 2.37888,0 4.6728,0.59472 6.28704,1.78416 2.9736,2.20896 4.07808,6.88176 4.07808,12.99888 0,6.54192 -0.16992,16.05744 -7.6464,16.05744 -7.47648,0 -9.17568,-8.9208 -9.17568,-8.9208 0,0 0,-1.18944 -1.18944,-1.18944 -1.18944,0 -1.2744,1.18944 -1.2744,1.18944 0,0 -0.67968,4.33296 -2.9736,9.60048 -1.35936,3.14352 -3.3984,4.58784 -4.84272,5.18256 V 74.29824 c 0,-0.59472 -0.4248,-1.10448 -1.01952,-1.10448 -0.59472,0 -1.10448,0.50976 -1.10448,1.10448 v 77.3136 c 0,0.59472 0.50976,1.10448 1.10448,1.10448 0.59472,0 1.01952,-0.50976 1.01952,-1.10448 v -37.04256 c 1.44432,0.59472 3.48336,2.03904 4.84272,5.18256 2.29392,5.26752 2.9736,9.68544 2.9736,9.68544 0,0 0.08496,1.10448 1.2744,1.10448 1.18944,0 1.18944,-1.10448 1.18944,-1.10448 0,0 1.6992,-9.00576 9.17568,-9.00576 7.47648,0 7.6464,9.51552 7.6464,16.05744 0,6.11712 -1.10448,10.78992 -4.07808,12.99888 -1.61424,1.18944 -3.90816,1.78416 -6.28704,1.78416 -2.63376,0 -5.26752,-0.76464 -7.2216,-2.124 0,0 0.4248,0.085 0.93456,0.085 1.35936,0 3.90816,-0.33984 5.26752,-2.80368 0.59472,-1.10448 0.93456,-2.29392 0.93456,-3.48336 0,-2.03904 -0.93456,-3.90816 -2.37888,-5.18256 -1.01952,-0.8496 -2.46384,-1.2744 -3.99312,-1.2744 -2.20896,0 -4.58784,0.93456 -5.77728,2.63376 -0.8496,1.2744 -1.2744,2.71872 -1.2744,4.248 0,1.86912 0.67968,3.90816 2.20896,5.77728 0,0 3.90816,4.6728 13.25376,4.6728 10.28016,0 19.03104,-6.71184 19.03104,-18.60624 0,-9.17568 -5.0976,-18.77616 -15.46272,-18.77616"
     class="Clef" />
  <path
     style="stroke-width:0.67968"
     id="path2210"
     d="m 486.86587,95.980032 c -5.16557,0 -9.31161,2.990592 -9.37958,2.990592 -3.94215,2.922626 -5.50541,6.388996 -6.11712,8.767876 -0.33984,1.22342 -0.47578,2.44684 -0.47578,3.6023 0,1.63123 0.27187,3.12653 0.88359,4.41792 0.81561,1.83514 2.37888,3.12653 4.41792,3.80621 0.81561,0.27187 1.6992,0.40781 2.58278,0.40781 1.4953,0 3.05856,-0.40781 4.34995,-1.15546 2.10701,-1.15546 3.3984,-3.6023 3.3984,-6.25306 0,-2.37888 -1.22342,-4.55385 -3.26246,-5.84524 -1.42733,-0.95156 -2.78669,-1.22343 -3.94215,-1.22343 -0.81561,0 -1.56326,0.13594 -2.17497,0.33984 -0.67968,0.27187 -1.83514,0.95155 -2.37888,1.42733 0.2039,-1.29139 1.01952,-3.26246 1.76717,-4.34995 0.74764,-1.08749 2.24294,-2.44685 3.3984,-3.058562 1.6992,-0.951552 3.87417,-1.35936 6.25305,-1.35936 6.93274,0 10.33114,5.573372 10.33114,16.992002 0,6.32102 -2.37888,12.37017 -4.41792,16.38029 -2.24295,4.48588 -5.23354,8.76787 -7.88429,11.14675 -7.06867,6.45696 -13.72954,9.51552 -13.7975,9.51552 0,0 -1.01952,0.61171 -0.74765,1.63123 0.2039,0.67968 0.81561,0.81562 1.22342,0.81562 0.068,0 0.27187,-0.068 0.33984,-0.068 0.068,0 7.81632,-3.1945 14.00141,-8.02023 3.46637,-2.51481 6.5929,-5.23353 9.31162,-8.15616 2.44684,-2.65075 4.55385,-5.5054 6.25305,-8.36006 2.99059,-5.0976 4.68979,-10.3991 4.68979,-14.95296 0,-5.64134 -1.49529,-10.33114 -4.28198,-13.66157 -3.1945,-3.806206 -8.02022,-5.777278 -14.34125,-5.777278 m 21.34195,8.631938 c 0,1.9031 1.4953,3.3984 3.26247,3.3984 1.76717,0 3.26246,-1.4953 3.26246,-3.3984 0,-1.90311 -1.49529,-3.46637 -3.26246,-3.46637 -1.76717,0 -3.26247,1.56326 -3.26247,3.46637 m 0,16.78809 c 0,1.90311 1.4953,3.46637 3.26247,3.46637 1.76717,0 3.26246,-1.56326 3.26246,-3.46637 0,-1.9031 -1.49529,-3.46636 -3.26246,-3.46636 -1.76717,0 -3.26247,1.56326 -3.26247,3.46636"
     class="Clef" />
  <path
     style="stroke-width:0.67968"
     id="path2212"
     d="m 1721.3273,81.163008 h -4.8937 c -0.4758,0 -0.8836,0.407808 -0.8836,0.883584 v 61.850878 c 0,0.47578 0.4078,0.88359 0.8836,0.88359 h 4.8937 c 0.4758,0 0.8836,-0.40781 0.8836,-0.88359 V 82.046592 c 0,-0.475776 -0.4078,-0.883584 -0.8836,-0.883584 m 24.4685,34.595712 h -1.0196 c -1.5632,0 -2.7187,0.13594 -5.3694,1.76717 0,0 -1.4953,-2.99059 -3.7383,-4.55386 2.243,-1.56326 3.7383,-4.55385 3.7383,-4.55385 2.6507,1.63123 3.8062,1.76716 5.3694,1.76716 h 1.0196 c 8.2921,0 12.3701,-7.68038 12.3701,-15.020924 0,-9.51552 -7.0007,-14.884992 -15.2248,-14.884992 -7.4765,0 -10.603,3.73824 -10.603,3.73824 -1.2234,1.495296 -1.7672,3.126528 -1.7672,4.621824 0,1.223424 0.3399,2.37888 1.0195,3.3984 0.9516,1.35936 2.8547,2.107008 4.6219,2.107008 1.2234,0 2.3789,-0.33984 3.1945,-1.01952 1.1554,-1.01952 1.9031,-2.514816 1.9031,-4.146048 0,-0.951552 -0.2719,-1.903104 -0.7477,-2.786688 -1.0875,-1.971072 -3.1265,-2.242944 -4.214,-2.242944 -0.4078,0 -0.7476,0.06797 -0.7476,0.06797 1.5632,-1.087488 3.6702,-1.6992 5.7772,-1.6992 1.9031,0 3.7383,0.475776 5.0297,1.427328 2.3789,1.767168 3.2624,5.505408 3.2624,10.399104 0,5.233536 -0.1359,12.845952 -6.1171,12.845952 -5.9812,0 -7.3405,-7.13664 -7.3405,-7.13664 0,0 0,-0.951552 -0.9516,-0.951552 -0.9515,0 -1.0195,0.951552 -1.0195,0.951552 0,0 -0.5437,3.46637 -2.3789,7.68038 -1.0875,2.51482 -2.7187,3.67027 -3.8742,4.14605 V 82.046592 c 0,-0.475776 -0.3398,-0.883584 -0.8156,-0.883584 -0.4757,0 -0.8836,0.407808 -0.8836,0.883584 v 61.850878 c 0,0.47578 0.4079,0.88359 0.8836,0.88359 0.4758,0 0.8156,-0.40781 0.8156,-0.88359 v -29.63405 c 1.1555,0.47578 2.7867,1.63124 3.8742,4.14605 1.8352,4.21402 2.3789,7.74835 2.3789,7.74835 0,0 0.068,0.88359 1.0195,0.88359 0.9516,0 0.9516,-0.88359 0.9516,-0.88359 0,0 1.3593,-7.2046 7.3405,-7.2046 5.9812,0 6.1171,7.61241 6.1171,12.84595 0,4.89369 -0.8835,8.63193 -3.2624,10.3991 -1.2914,0.95155 -3.1266,1.42733 -5.0297,1.42733 -2.107,0 -4.214,-0.61171 -5.7772,-1.6992 0,0 0.3398,0.068 0.7476,0.068 1.0875,0 3.1265,-0.27187 4.214,-2.24295 0.4758,-0.88358 0.7477,-1.83513 0.7477,-2.78668 0,-1.63124 -0.7477,-3.12653 -1.9031,-4.14605 -0.8156,-0.67968 -1.9711,-1.01952 -3.1945,-1.01952 -1.7672,0 -3.6703,0.74765 -4.6219,2.10701 -0.6796,1.01952 -1.0195,2.17497 -1.0195,3.3984 0,1.49529 0.5438,3.12652 1.7672,4.62182 0,0 3.1265,3.73824 10.603,3.73824 8.2241,0 15.2248,-5.36947 15.2248,-14.88499 0,-7.34055 -4.078,-15.02093 -12.3701,-15.02093"
     class="Clef" />
  <path
     style="stroke-width:0.8496"
     id="path2224"
     d="m 132.53368,104.03424 c 0.50976,-0.085 0.93456,-0.67968 0.93456,-1.18944 v -5.01264 c 0,-0.67968 -0.50976,-1.18944 -1.18944,-1.18944 h -0.16992 l -2.80368,0.59472 V 84.5784 h -2.37888 v 13.1688 l -7.56144,1.52928 V 87.29712 H 116.986 v 12.48912 l -3.31344,0.67968 c -0.50976,0.085 -0.93456,0.67968 -0.93456,1.18944 v 0.16992 4.92768 -0.16992 c 0,0.67968 0.50976,1.18944 1.18944,1.18944 h 0.25488 l 2.80368,-0.59472 v 14.0184 l -3.31344,0.67968 c -0.50976,0.085 -0.93456,0.67968 -0.93456,1.18944 v 4.92768 c 0,0.67968 0.50976,1.18944 1.18944,1.18944 h 0.25488 l 2.80368,-0.59472 v 12.65904 h 2.37888 v -13.1688 l 7.56144,-1.52928 V 138.528 h 2.37888 v -12.48912 l 3.22848,-0.59472 c 0.50976,-0.085 0.93456,-0.67968 0.93456,-1.18944 v -5.01264 c 0,-0.67968 -0.50976,-1.18944 -1.18944,-1.18944 h -0.16992 l -2.80368,0.59472 v -14.0184 l 3.22848,-0.59472 m -13.1688,16.73712 V 106.668 l 7.56144,-1.52928 v 14.0184 l -7.56144,1.61424"
     class="KeySig" />
  <path
     style="stroke-width:0.8496"
     id="path2226"
     d="m 111.29368,146.51424 c 0.50976,-0.085 0.93456,-0.67968 0.93456,-1.18944 v -5.01264 c 0,-0.67968 -0.50976,-1.18944 -1.18944,-1.18944 h -0.16992 l -2.80368,0.59472 V 127.0584 h -2.37888 v 13.1688 l -7.56144,1.52928 V 129.77712 H 95.746 v 12.48912 l -3.31344,0.67968 c -0.50976,0.085 -0.93456,0.67968 -0.93456,1.18944 v 0.16992 4.92768 -0.16992 c 0,0.67968 0.50976,1.18944 1.18944,1.18944 h 0.25488 l 2.80368,-0.59472 v 14.0184 l -3.31344,0.67968 c -0.50976,0.085 -0.93456,0.67968 -0.93456,1.18944 v 4.92768 c 0,0.67968 0.50976,1.18944 1.18944,1.18944 h 0.25488 l 2.80368,-0.59472 v 12.65904 h 2.37888 v -13.1688 l 7.56144,-1.52928 V 181.008 h 2.37888 v -12.48912 l 3.22848,-0.59472 c 0.50976,-0.085 0.93456,-0.67968 0.93456,-1.18944 v -5.01264 c 0,-0.67968 -0.50976,-1.18944 -1.18944,-1.18944 h -0.16992 l -2.80368,0.59472 v -14.0184 l 3.22848,-0.59472 m -13.1688,16.73712 V 149.148 l 7.56144,-1.52928 v 14.0184 l -7.56144,1.61424"
     class="KeySig" />
  <path
     style="stroke-width:0.8496"
     id="path2254"
     d="m 199.3076,4.7884799 c -0.16992,-0.25488 -0.67968,-0.50976 -1.01952,-0.50976 h -1.18944 c -0.4248,0 -0.93456,0.33984 -1.10448,0.76464 l -7.6464,21.4099201 -7.6464,-21.4099201 c -0.16992,-0.4248 -0.67968,-0.76464 -1.10448,-0.76464 h -1.18944 c -0.67968,0 -1.18944,0.50976 -1.18944,1.18944 0,0.08496 0.085,0.33984 0.085,0.4248 l 9.94032,26.7624001 c 0.16992,0.4248 0.67968,0.76464 1.10448,0.76464 0.4248,0 0.93456,-0.33984 1.10448,-0.76464 L 199.3926,5.8929599 c 0,-0.08496 0.085,-0.33984 0.085,-0.4248 0,-0.16992 -0.085,-0.50976 -0.16992,-0.67968"
     class="Articulation" />
  <path
     style="stroke-width:0.8496"
     id="path2256"
     d="m 425.46,49.32 h 2.37888 V 32.15808 h 22.00464 V 49.32 h 2.37888 V 25.61616 c 0,-0.67968 -0.50976,-1.18944 -1.18944,-1.18944 h -24.38352 c -0.67968,0 -1.18944,1.18944 -1.18944,1.18944 V 49.32"
     class="Articulation" />
  <path
     id="path2360"
     d="M 174.54,187.38 H 338.586 V 198 H 174.54 v -10.62"
     fill-rule="evenodd"
     class="Beam" />
  <path
     id="path2362"
     d="m 174.54,171.45 h 164.046 v 10.62 H 174.54 v -10.62"
     fill-rule="evenodd"
     class="Beam" />
  <path
     id="path2364"
     d="m 174.54,155.52 h 164.046 v 10.62 H 174.54 v -10.62"
     fill-rule="evenodd"
     class="Beam" />
  <path
     id="path2366"
     d="M 425.026,229.86 H 791.83 v 10.62 H 425.026 v -10.62"
     fill-rule="evenodd"
     class="Beam" />
  <path
     id="path2368"
     d="M 425.026,213.93 H 791.83 v 10.62 H 425.026 v -10.62"
     fill-rule="evenodd"
     class="Beam" />
  <path
     id="path2370"
     d="m 535.972,198 h 53.041 v 10.62 H 535.972 V 198"
     fill-rule="evenodd"
     class="Beam" />
  <path
     id="path2372"
     d="M 637.382,198 H 791.83 v 10.62 H 637.382 V 198"
     fill-rule="evenodd"
     class="Beam" />
  <path
     id="path2374"
     d="m 850.57,208.62 h 377.7 v 10.62 h -377.7 v -10.62"
     fill-rule="evenodd"
     class="Beam" />
  <path
     id="path2376"
     d="m 850.57,192.69 h 377.7 v 10.62 h -377.7 v -10.62"
     fill-rule="evenodd"
     class="Beam" />
  <path
     id="path2378"
     d="m 850.57,176.76 h 377.7 v 10.62 h -377.7 v -10.62"
     fill-rule="evenodd"
     class="Beam" />
  <path
     id="path2380"
     d="m 1276.64,166.13 396.65,21.37 v 10.63 l -396.65,-21.36 v -10.64"
     fill-rule="evenodd"
     class="Beam" />
  <path
     id="path2382"
     d="m 1276.64,150.2 396.65,21.37 V 182.2 L 1276.64,160.84 V 150.2"
     fill-rule="evenodd"
     class="Beam" />
  <path
     id="path2384"
     d="m 1276.64,134.27 396.65,21.37 v 10.63 l -396.65,-21.36 v -10.64"
     fill-rule="evenodd"
     class="Beam" />
  <path
     id="path2386"
     d="m 1779.4,229.86 h 305.22 v 10.62 H 1779.4 v -10.62"
     fill-rule="evenodd"
     class="Beam" />
  <path
     id="path2388"
     d="m 1779.4,213.93 h 305.22 v 10.62 H 1779.4 v -10.62"
     fill-rule="evenodd"
     class="Beam" />
  <path
     id="path2390"
     d="m 1868.13,198 h -27.61 v 10.62 h 27.61 V 198"
     fill-rule="evenodd"
     class="Beam" />
  <path
     id="path2392"
     d="m 1916.5,198 h 168.12 v 10.62 H 1916.5 V 198"
     fill-rule="evenodd"
     class="Beam" />
  <path
     style="stroke-width:0.59472"
     id="path2506"
     d="m 905.90216,116.48288 v -0.47578 c 0,-2.73571 -0.53525,-5.35248 -1.0705,-7.49347 0.17842,-1.07049 0.23789,-2.85465 0.23789,-3.92515 v -0.17842 c 0,-3.3899 -1.54627,-6.601388 -2.61677,-8.326076 -0.29736,-0.416304 -0.59472,-1.011024 -1.24891,-0.713664 -0.65419,0.29736 -0.29736,1.070496 -0.11894,1.605744 0.89208,2.37888 1.24891,5.411956 1.30838,6.898756 v 0.65419 c 0,2.14099 -0.35683,4.28198 -2.49782,7.55294 -3.56832,5.29301 -8.26661,8.26661 -9.81288,8.86133 -0.41631,0.11894 -0.83261,0.4163 -0.83261,0.53525 v 2.91413 6.54192 3.44937 1.01103 3.68726 0.0595 3.44938 9.45605 c 0,0.4163 0.11894,0.77313 0.83261,0.77313 0.71366,0 0.83261,-0.35683 0.89208,-0.77313 0,0 0.95155,-5.1146 3.21149,-8.38556 2.25993,-3.27096 6.00667,-5.11459 8.86132,-8.80185 2.08152,-2.67624 2.79519,-5.88773 2.85466,-8.98027 v -0.59472 c 0,-1.66522 -0.23789,-3.56832 -0.47578,-5.35248 0.23789,-0.95156 0.47578,-2.49783 0.47578,-3.44938 m -4.22251,-0.47578 c 0.47577,-0.59472 1.18944,-1.66521 1.54627,-2.37888 0.0595,0.47578 0.0595,0.89208 0.0595,1.36786 0,2.31941 -0.53525,4.81723 -3.21149,8.02872 -2.25993,2.73571 -5.76878,5.35248 -8.44502,5.64984 0.4163,-1.4868 1.4868,-3.50885 3.74674,-5.76878 2.91412,-2.91413 4.69828,-4.81724 6.30403,-6.89876 m -1.60575,16.47375 c -2.25993,2.73571 -5.82825,5.41195 -8.50449,5.64984 0.17841,-1.12997 0.77313,-3.21149 2.49782,-4.81723 3.33043,-3.03308 5.88773,-4.51988 8.74239,-8.20714 0.17841,-0.23789 0.29736,-0.4163 0.47577,-0.65419 0,2.31941 -0.53525,4.75776 -3.21149,8.02872"
     class="Hook" />
  <path
     style="stroke-width:0.59472"
     id="path2508"
     d="m 2067.0522,158.96288 v -0.47578 c 0,-2.73571 -0.5353,-5.35248 -1.0705,-7.49347 0.1784,-1.07049 0.2379,-2.85465 0.2379,-3.92515 v -0.17842 c 0,-3.3899 -1.5463,-6.60139 -2.6168,-8.32608 -0.2974,-0.4163 -0.5947,-1.01102 -1.2489,-0.71366 -0.6542,0.29736 -0.2974,1.0705 -0.119,1.60574 0.8921,2.37888 1.2489,5.41196 1.3084,6.89876 v 0.65419 c 0,2.14099 -0.3568,4.28198 -2.4978,7.55294 -3.5683,5.29301 -8.2666,8.26661 -9.8129,8.86133 -0.4163,0.11894 -0.8326,0.4163 -0.8326,0.53525 v 2.91413 6.54192 3.44937 1.01103 3.68726 0.0595 3.44938 9.45605 c 0,0.4163 0.1189,0.77313 0.8326,0.77313 0.7137,0 0.8326,-0.35683 0.8921,-0.77313 0,0 0.9515,-5.1146 3.2115,-8.38556 2.2599,-3.27096 6.0066,-5.11459 8.8613,-8.80185 2.0815,-2.67624 2.7952,-5.88773 2.8547,-8.98027 v -0.59472 c 0,-1.66522 -0.2379,-3.56832 -0.4758,-5.35248 0.2379,-0.95156 0.4758,-2.49783 0.4758,-3.44938 m -4.2226,-0.47578 c 0.4758,-0.59472 1.1895,-1.66521 1.5463,-2.37888 0.059,0.47578 0.059,0.89208 0.059,1.36786 0,2.31941 -0.5353,4.81723 -3.2115,8.02872 -2.2599,2.73571 -5.7688,5.35248 -8.445,5.64984 0.4163,-1.4868 1.4868,-3.50885 3.7467,-5.76878 2.9141,-2.91413 4.6983,-4.81724 6.304,-6.89876 m -1.6057,16.47375 c -2.2599,2.73571 -5.8283,5.41195 -8.5045,5.64984 0.1784,-1.12997 0.7731,-3.21149 2.4978,-4.81723 3.3305,-3.03308 5.8878,-4.51988 8.7424,-8.20714 0.1784,-0.23789 0.2974,-0.4163 0.4758,-0.65419 0,2.31941 -0.5353,4.75776 -3.2115,8.02872"
     class="Hook" />
  <path
     style="stroke-width:0.59472"
     id="path2510"
     d="m 2128.4722,180.20288 v -0.47578 c 0,-2.73571 -0.5353,-5.35248 -1.0705,-7.49347 0.1784,-1.07049 0.2379,-2.85465 0.2379,-3.92515 v -0.17842 c 0,-3.3899 -1.5463,-6.60139 -2.6168,-8.32608 -0.2974,-0.4163 -0.5947,-1.01102 -1.2489,-0.71366 -0.6542,0.29736 -0.2974,1.0705 -0.119,1.60574 0.8921,2.37888 1.2489,5.41196 1.3084,6.89876 v 0.65419 c 0,2.14099 -0.3568,4.28198 -2.4978,7.55294 -3.5683,5.29301 -8.2666,8.26661 -9.8129,8.86133 -0.4163,0.11894 -0.8326,0.4163 -0.8326,0.53525 v 2.91413 6.54192 3.44937 1.01103 3.68726 0.0595 3.44938 9.45605 c 0,0.4163 0.1189,0.77313 0.8326,0.77313 0.7137,0 0.8326,-0.35683 0.8921,-0.77313 0,0 0.9515,-5.1146 3.2115,-8.38556 2.2599,-3.27096 6.0066,-5.11459 8.8613,-8.80185 2.0815,-2.67624 2.7952,-5.88773 2.8547,-8.98027 v -0.59472 c 0,-1.66522 -0.2379,-3.56832 -0.4758,-5.35248 0.2379,-0.95156 0.4758,-2.49783 0.4758,-3.44938 m -4.2226,-0.47578 c 0.4758,-0.59472 1.1895,-1.66521 1.5463,-2.37888 0.059,0.47578 0.059,0.89208 0.059,1.36786 0,2.31941 -0.5353,4.81723 -3.2115,8.02872 -2.2599,2.73571 -5.7688,5.35248 -8.445,5.64984 0.4163,-1.4868 1.4868,-3.50885 3.7467,-5.76878 2.9141,-2.91413 4.6983,-4.81724 6.304,-6.89876 m -1.6057,16.47375 c -2.2599,2.73571 -5.8283,5.41195 -8.5045,5.64984 0.1784,-1.12997 0.7731,-3.21149 2.4978,-4.81723 3.3305,-3.03308 5.8878,-4.51988 8.7424,-8.20714 0.1784,-0.23789 0.2974,-0.4163 0.4758,-0.65419 0,2.31941 -0.5353,4.75776 -3.2115,8.02872"
     class="Hook" />
  <path
     style="stroke-width:0.8496"
     id="path2512"
     d="m 2220.5536,73.5336 c -0.085,-0.25488 -0.8496,-3.22848 -0.8496,-3.3984 -0.085,-0.33984 -0.5947,-0.59472 -1.0195,-0.59472 -0.5947,0 -1.1045,0.50976 -1.1045,1.10448 v 13.93344 5.26752 c 0,0.4248 0.3398,0.76464 0.6797,0.93456 3.5683,1.10448 10.9598,5.77728 16.4822,15.20784 1.5293,2.63376 3.9931,6.20208 3.9931,13.33872 0,6.11712 -0.9345,12.57408 -2.4638,18.52128 -0.2549,0.93456 -0.5098,1.78416 0.4248,2.124 0.9346,0.33984 1.2744,-0.33984 1.6142,-1.18944 3.0586,-7.47648 3.8232,-15.2928 3.8232,-20.56032 v -1.61424 c -0.4248,-10.95984 -6.7118,-19.03104 -6.7118,-19.03104 0.2549,0 -7.8163,-10.45008 -10.1102,-14.0184 -3.1436,-4.84272 -4.6728,-9.68544 -4.7578,-10.02528"
     class="Hook" />
  <path
     id="path2566"
     d="m 196.325,60.63 h -1.496 l -0.34,1.74 c -0.442,2.21 -0.714,2.41 -2.822,2.41 h -7.616 c 2.346,-2.45 3.128,-3.16 5.304,-4.86 3.094,-2.38 4.42,-3.57 5.202,-4.59 1.088,-1.5 1.632,-2.99 1.632,-4.66 0,-3.87 -3.196,-6.63 -7.65,-6.63 -4.318,0 -7.616,2.76 -7.616,6.39 0,2.15 1.088,3.61 2.686,3.61 1.258,0 2.108,-0.85 2.108,-2.08 0,-0.85 -0.476,-1.63 -1.19,-1.93 -1.258,-0.51 -1.326,-0.58 -1.326,-1.02 0,-0.51 0.34,-1.3 0.816,-1.87 0.85,-1.06 2.244,-1.64 3.842,-1.64 2.822,0 4.488,1.74 4.488,4.59 0,2.52 -1.19,4.8 -4.012,7.79 -2.516,2.65 -4.08,4.32 -4.658,4.96 -1.224,1.43 -1.836,2.21 -3.332,4.19 v 0.95 h 15.334 l 0.646,-7.35"
     class="Fingering" />
  <path
     id="path2568"
     d="m 550.597,57.21 c -1.156,1.39 -4.284,2.45 -7.412,2.52 v 1.46 h 2.992 c 1.972,0.03 2.176,0.24 2.108,2.14 v 13.63 c 0,1.74 0,1.81 -0.204,2.11 -0.272,0.34 -0.918,0.48 -2.822,0.48 h -2.21 v 1.6 h 13.464 v -1.6 h -1.87 c -1.904,0 -2.55,-0.14 -2.822,-0.48 -0.238,-0.3 -0.238,-0.34 -0.238,-2.11 V 62.92 c 0,-1.9 0.068,-3.5 0.238,-5.71 h -1.224"
     class="Fingering" />
  <path
     id="path2570"
     d="m 649.68,50.96 c -4.76,0 -8.22,5.17 -8.22,12.31 0,7 3.36,12.13 7.95,12.13 4.76,0 8.09,-4.96 8.09,-12.03 0,-3.61 -0.74,-6.6 -2.17,-8.94 -1.33,-2.15 -3.5,-3.47 -5.65,-3.47 m -0.23,1.46 c 1.12,0 2.21,0.75 3.02,2.11 0.92,1.6 1.23,3.53 1.23,8.19 0,4.8 -0.24,7.04 -0.92,8.54 -0.78,1.66 -2.01,2.68 -3.3,2.68 -1.16,0 -2.21,-0.75 -3.03,-2.11 -0.95,-1.59 -1.22,-3.7 -1.22,-9.28 0,-3.98 0.24,-5.95 0.92,-7.44 0.78,-1.7 2,-2.69 3.3,-2.69"
     class="Fingering" />
  <path
     id="path2572"
     d="m 865.2,48.29 c -1.16,1.39 -4.28,2.45 -7.41,2.52 v 1.46 h 2.99 c 1.97,0.03 2.18,0.24 2.11,2.14 v 13.63 c 0,1.74 0,1.81 -0.21,2.11 -0.27,0.34 -0.91,0.48 -2.82,0.48 h -2.21 v 1.6 h 13.47 v -1.6 h -1.87 c -1.91,0 -2.55,-0.14 -2.83,-0.48 -0.23,-0.3 -0.23,-0.34 -0.23,-2.11 V 54 c 0,-1.9 0.06,-3.5 0.23,-5.71 h -1.22"
     class="Fingering" />
  <path
     id="path2574"
     d="m 976.66,57.21 c -1.15,1.39 -4.28,2.45 -7.41,2.52 v 1.46 h 2.99 c 1.97,0.03 2.18,0.24 2.11,2.14 v 13.63 c 0,1.74 0,1.81 -0.2,2.11 -0.28,0.34 -0.92,0.48 -2.83,0.48 h -2.21 v 1.6 h 13.47 v -1.6 h -1.87 c -1.91,0 -2.55,-0.14 -2.82,-0.48 -0.24,-0.3 -0.24,-0.34 -0.24,-2.11 V 62.92 c 0,-1.9 0.07,-3.5 0.24,-5.71 h -1.23"
     class="Fingering" />
  <path
     id="path2576"
     d="m 1810.75,18.61 c 0,9.68 -7.86,17.54 -17.55,17.54 -9.69,0 -17.54,-7.86 -17.54,-17.54 0,-9.6900001 7.85,-17.5500001 17.54,-17.5500001 9.69,0 17.55,7.86 17.55,17.5500001"
     fill-rule="evenodd"
     stroke-miterlimit="2"
     stroke-linejoin="miter"
     stroke-linecap="square"
     stroke-width="2.12"
     stroke="#000000"
     fill="none"
     class="Fingering" />
  <path
     id="path2578"
     d="m 1795.78,17.8 c 3.09,-1.13 4.52,-2.86 4.52,-5.58 0,-3.5700001 -2.72,-5.8500001 -6.93,-5.8500001 -3.98,0 -7.01,2.35 -7.01,5.4400001 0,1.4 0.92,2.38 2.25,2.38 1.19,0 2,-0.81 2,-2.04 0,-0.75 -0.27,-1.19 -1.05,-1.73 -0.34,-0.24 -0.44,-0.38 -0.44,-0.6100001 0,-0.96 1.97,-1.98 3.91,-1.98 2.44,0 3.74,1.53 3.74,4.4200001 0,3.17 -1.3,4.83 -3.71,4.83 -0.31,0 -0.88,-0.03 -1.39,-0.07 -0.28,-0.03 -0.55,-0.03 -0.75,-0.03 -0.72,0 -1.09,0.31 -1.09,0.92 0,0.58 0.34,0.85 1.09,0.85 0.2,0 0.47,0 0.78,-0.04 0.68,-0.03 1.22,-0.03 1.6,-0.03 2.51,0 3.87,1.8 3.87,5.17 0,3.53 -1.7,5.51 -4.76,5.51 -2.14,0 -4.45,-1.16 -4.45,-2.21 0,-0.31 0.07,-0.38 0.71,-0.75 0.96,-0.58 1.33,-1.16 1.33,-2.01 0,-1.22 -0.92,-2.14 -2.14,-2.14 -1.46,0 -2.42,1.19 -2.42,2.99 0,3.3 3.03,5.58 7.38,5.58 4.93,0 8.13,-2.72 8.13,-6.9 0,-3.2 -1.63,-5.14 -5.17,-6.12"
     class="Fingering" />
  <path
     id="path2584"
     d="m 1522.1,219.29 c 1.78,-0.57 2.51,-0.87 3.42,-1.48 1.78,-1.18 2.89,-3.27 2.89,-5.4 0,-3.61 -2.89,-6.04 -7.15,-6.04 -4.14,0 -7.64,2.59 -7.64,5.7 0,1.56 0.95,2.62 2.4,2.62 1.25,0 2.16,-0.91 2.16,-2.16 0,-0.65 -0.19,-1.1 -0.79,-1.71 -0.38,-0.34 -0.54,-0.61 -0.54,-0.88 0,-0.91 1.9,-1.86 3.69,-1.86 2.55,0 4.07,1.41 4.07,3.76 0,3.39 -2.4,6.58 -4.94,6.58 -0.12,0 -0.46,-0.04 -0.88,-0.08 -1.1,-0.07 -1.1,-0.07 -1.33,-0.07 -0.83,0 -1.29,0.38 -1.29,1.06 0,0.61 0.42,0.99 1.1,0.99 0.19,0 0.46,-0.04 0.76,-0.08 0.53,-0.11 1.1,-0.15 1.45,-0.15 1.78,0 3,1.6 3,3.95 0,1.83 -0.42,3.57 -1.26,5.02 -1.14,2.05 -2.88,3.04 -5.35,3.04 -2.13,0 -3.96,-1.07 -3.96,-2.28 0,-0.42 0.16,-0.57 0.76,-0.84 1.11,-0.49 1.56,-1.18 1.56,-2.2 0,-1.33 -1.06,-2.36 -2.43,-2.36 -1.63,0 -2.7,1.29 -2.7,3.27 0,3.69 2.81,6 7.37,6 5.74,0 10.11,-3.83 10.11,-8.93 0,-1.36 -0.42,-2.54 -1.21,-3.49 -0.84,-0.99 -1.6,-1.45 -3.27,-1.98"
     class="Tuplet" />
  <path
     id="path2586"
     d="m 1636.74,222.43 c 1.79,-0.57 2.51,-0.88 3.42,-1.48 1.79,-1.18 2.89,-3.27 2.89,-5.4 0,-3.61 -2.89,-6.04 -7.14,-6.04 -4.14,0 -7.64,2.58 -7.64,5.7 0,1.56 0.95,2.62 2.39,2.62 1.26,0 2.17,-0.91 2.17,-2.17 0,-0.64 -0.19,-1.1 -0.8,-1.71 -0.38,-0.34 -0.53,-0.6 -0.53,-0.87 0,-0.91 1.9,-1.86 3.69,-1.86 2.54,0 4.06,1.4 4.06,3.76 0,3.38 -2.39,6.57 -4.94,6.57 -0.11,0 -0.45,-0.03 -0.87,-0.07 -1.1,-0.08 -1.1,-0.08 -1.33,-0.08 -0.84,0 -1.29,0.38 -1.29,1.07 0,0.6 0.41,0.98 1.1,0.98 0.19,0 0.45,-0.03 0.76,-0.07 0.53,-0.12 1.1,-0.15 1.44,-0.15 1.79,0 3,1.59 3,3.95 0,1.82 -0.41,3.57 -1.25,5.01 -1.14,2.06 -2.89,3.04 -5.36,3.04 -2.13,0 -3.95,-1.06 -3.95,-2.28 0,-0.41 0.15,-0.57 0.76,-0.83 1.1,-0.5 1.56,-1.18 1.56,-2.21 0,-1.33 -1.07,-2.35 -2.43,-2.35 -1.64,0 -2.7,1.29 -2.7,3.27 0,3.68 2.81,6 7.37,6 5.74,0 10.11,-3.84 10.11,-8.93 0,-1.37 -0.42,-2.55 -1.22,-3.5 -0.83,-0.98 -1.59,-1.44 -3.27,-1.97"
     class="Tuplet" />
  <path
     style="stroke-width:0.8496"
     id="path2632"
     d="m 1817.63,59.938589 c 0,2.346112 1.9019,4.248001 4.248,4.248001 2.3461,0 4.248,-1.901889 4.248,-4.248001 0,-2.34611 -1.9019,-4.247999 -4.248,-4.247999 -2.3461,0 -4.248,1.901889 -4.248,4.247999"
     class="NoteDot" />
  <path
     style="stroke-width:0.8496"
     id="path2634"
     d="m 2230.54,144.89859 c 0,2.34611 1.9019,4.248 4.248,4.248 2.3461,0 4.248,-1.90189 4.248,-4.248 0,-2.34611 -1.9019,-4.248 -4.248,-4.248 -2.3461,0 -4.248,1.90189 -4.248,4.248"
     class="NoteDot" />
</svg>
