<?xml version="1.0" encoding="UTF-8" standalone="no"?>
<svg
   xmlns:dc="http://purl.org/dc/elements/1.1/"
   xmlns:cc="http://creativecommons.org/ns#"
   xmlns:rdf="http://www.w3.org/1999/02/22-rdf-syntax-ns#"
   xmlns:svg="http://www.w3.org/2000/svg"
   xmlns="http://www.w3.org/2000/svg"
   xmlns:sodipodi="http://sodipodi.sourceforge.net/DTD/sodipodi-0.dtd"
   xmlns:inkscape="http://www.inkscape.org/namespaces/inkscape"
   inkscape:version="1.0 (4035a4f, 2020-05-01)"
   sodipodi:docname="snippet12.svg"
   id="svg16214"
   version="1.2"
   viewBox="0 0 2340 354.7514"
   height="354.7514"
   width="2340">
  <metadata
     id="metadata16220">
    <rdf:RDF>
      <cc:Work
         rdf:about="">
        <dc:format>image/svg+xml</dc:format>
        <dc:type
           rdf:resource="http://purl.org/dc/dcmitype/StillImage" />
        <dc:title>Batches6Suite7</dc:title>
      </cc:Work>
    </rdf:RDF>
  </metadata>
  <defs
     id="defs16218" />
  <sodipodi:namedview
     inkscape:current-layer="svg16214"
     inkscape:window-maximized="0"
     inkscape:window-y="23"
     inkscape:window-x="0"
     inkscape:cy="-892.03694"
     inkscape:cx="1490.5479"
     inkscape:zoom="0.14593512"
     showgrid="false"
     id="namedview16216"
     inkscape:window-height="760"
     inkscape:window-width="876"
     inkscape:pageshadow="2"
     inkscape:pageopacity="0"
     guidetolerance="10"
     gridtolerance="10"
     objecttolerance="10"
     borderopacity="1"
     bordercolor="#666666"
     pagecolor="#ffffff" />
  <title
     id="title15500">Batches6Suite7</title>
  <desc
     id="desc15502">Generated by MuseScore 3.6.2</desc>
  <polyline
     transform="translate(-360,-1076.8486)"
     id="polyline15514"
     points="360,1235.08 2700,1235.08"
     stroke-linejoin="bevel"
     stroke-width="2.34"
     stroke="#000000"
     fill="none"
     class="StaffLines" />
  <polyline
     transform="translate(-360,-1076.8486)"
     id="polyline15516"
     points="360,1256.32 2700,1256.32"
     stroke-linejoin="bevel"
     stroke-width="2.34"
     stroke="#000000"
     fill="none"
     class="StaffLines" />
  <polyline
     transform="translate(-360,-1076.8486)"
     id="polyline15518"
     points="360,1277.56 2700,1277.56"
     stroke-linejoin="bevel"
     stroke-width="2.34"
     stroke="#000000"
     fill="none"
     class="StaffLines" />
  <polyline
     transform="translate(-360,-1076.8486)"
     id="polyline15520"
     points="360,1298.8 2700,1298.8"
     stroke-linejoin="bevel"
     stroke-width="2.34"
     stroke="#000000"
     fill="none"
     class="StaffLines" />
  <polyline
     transform="translate(-360,-1076.8486)"
     id="polyline15522"
     points="360,1320.04 2700,1320.04"
     stroke-linejoin="bevel"
     stroke-width="2.34"
     stroke="#000000"
     fill="none"
     class="StaffLines" />
  <path
     id="path15528"
     d="m 518.214,279.8414 c 9.606,8.96 30.732,11.61 42.251,5.3 -12.259,12.21 -33.385,9.56 -42.251,-5.3"
     fill-rule="evenodd"
     stroke-linejoin="round"
     stroke-linecap="round"
     stroke-width="1.49"
     stroke="#000000"
     class="SlurSegment" />
  <path
     id="path15530"
     d="m 592.322,289.1414 c 5.542,7.26 24.601,9.65 31.765,3.98 -7.534,8.62 -26.593,6.23 -31.765,-3.98"
     fill-rule="evenodd"
     stroke-linejoin="round"
     stroke-linecap="round"
     stroke-width="1.49"
     stroke="#000000"
     class="SlurSegment" />
  <path
     id="path15532"
     d="m 655.85,297.1014 c 5.54,7.26 24.6,9.65 31.77,3.98 -7.54,8.62 -26.6,6.24 -31.77,-3.98"
     fill-rule="evenodd"
     stroke-linejoin="round"
     stroke-linecap="round"
     stroke-width="1.49"
     stroke="#000000"
     class="SlurSegment" />
  <path
     id="path15534"
     d="m 983.38,279.8414 c 5.34,7.13 23.93,9.68 30.99,4.25 -7.46,8.37 -26.06,5.82 -30.99,-4.25"
     fill-rule="evenodd"
     stroke-linejoin="round"
     stroke-linecap="round"
     stroke-width="1.49"
     stroke="#000000"
     class="SlurSegment" />
  <path
     id="path15536"
     d="m 1045.36,288.3414 c 5.33,7.12 23.93,9.67 30.99,4.25 -7.47,8.37 -26.06,5.82 -30.99,-4.25"
     fill-rule="evenodd"
     stroke-linejoin="round"
     stroke-linecap="round"
     stroke-width="1.49"
     stroke="#000000"
     class="SlurSegment" />
  <path
     id="path15538"
     d="m 1107.33,296.8414 c 5.34,7.12 23.93,9.67 30.99,4.24 -7.46,8.38 -26.05,5.83 -30.99,-4.24"
     fill-rule="evenodd"
     stroke-linejoin="round"
     stroke-linecap="round"
     stroke-width="1.49"
     stroke="#000000"
     class="SlurSegment" />
  <path
     id="path15540"
     d="m 1227.1,322.3214 c 5.32,6.87 23.54,9.1 30.36,3.73 -7.18,8.32 -25.4,6.09 -30.36,-3.73"
     fill-rule="evenodd"
     stroke-linejoin="round"
     stroke-linecap="round"
     stroke-width="1.49"
     stroke="#000000"
     class="SlurSegment" />
  <path
     id="path15542"
     d="m 1287.83,329.7814 c 5.32,6.86 23.54,9.1 30.37,3.73 -7.19,8.32 -25.41,6.08 -30.37,-3.73"
     fill-rule="evenodd"
     stroke-linejoin="round"
     stroke-linecap="round"
     stroke-width="1.49"
     stroke="#000000"
     class="SlurSegment" />
  <path
     id="path15544"
     d="m 1348.56,337.2414 c 11.51,12.85 37.28,16.01 51.54,6.32 -14.99,15.59 -40.76,12.43 -51.54,-6.32"
     fill-rule="evenodd"
     stroke-linejoin="round"
     stroke-linecap="round"
     stroke-width="1.49"
     stroke="#000000"
     class="SlurSegment" />
  <path
     id="path15558"
     d="m 213.004,15.251398 c 19.766,-21.63 55.403,-18.63 71.273,6 -16.37,-18.7 -52.006,-21.69999999 -71.273,-6"
     fill-rule="evenodd"
     stroke-linejoin="round"
     stroke-linecap="round"
     stroke-width="1.49"
     stroke="#000000"
     class="SlurSegment" />
  <path
     id="path15560"
     d="m 329.512,25.061398 c 12.552,-13.82 35.169,-11.91 45.235,3.81 -10.565,-9.8 -33.182,-11.7 -45.235,-3.81"
     fill-rule="evenodd"
     stroke-linejoin="round"
     stroke-linecap="round"
     stroke-width="1.49"
     stroke="#000000"
     class="SlurSegment" />
  <path
     id="path15562"
     d="m 419.981,32.681398 c 12.552,-13.82 35.17,-11.91 45.235,3.81 -10.564,-9.8 -33.182,-11.7 -45.235,-3.81"
     fill-rule="evenodd"
     stroke-linejoin="round"
     stroke-linecap="round"
     stroke-width="1.49"
     stroke="#000000"
     class="SlurSegment" />
  <path
     id="path15564"
     d="m 809.1,15.251398 c 7.36,-8.45 25.95,-6.1 30.98,3.9 -5.4,-7.05 -24,-9.4 -30.98,-3.9"
     fill-rule="evenodd"
     stroke-linejoin="round"
     stroke-linecap="round"
     stroke-width="1.49"
     stroke="#000000"
     class="SlurSegment" />
  <path
     id="path15566"
     d="m 877.89,23.911398 c 7.35,-8.44 25.95,-6.1 30.98,3.91 -5.4,-7.06 -24,-9.4 -30.98,-3.91"
     fill-rule="evenodd"
     stroke-linejoin="round"
     stroke-linecap="round"
     stroke-width="1.49"
     stroke="#000000"
     class="SlurSegment" />
  <path
     id="path15568"
     d="m 946.67,32.581398 c 7.36,-8.44 25.96,-6.1 30.99,3.91 -5.41,-7.06 -24,-9.4 -30.99,-3.91"
     fill-rule="evenodd"
     stroke-linejoin="round"
     stroke-linecap="round"
     stroke-width="1.49"
     stroke="#000000"
     class="SlurSegment" />
  <polyline
     transform="translate(-360,-1076.8486)"
     id="polyline15578"
     points="1107.83,1233.91 1107.83,1321.21"
     stroke-linejoin="bevel"
     stroke-width="3.82"
     stroke="#000000"
     class="BarLine" />
  <polyline
     transform="translate(-360,-1076.8486)"
     id="polyline15580"
     points="1558.53,1233.91 1558.53,1321.21"
     stroke-linejoin="bevel"
     stroke-width="3.82"
     stroke="#000000"
     class="BarLine" />
  <polyline
     transform="translate(-360,-1076.8486)"
     id="polyline15582"
     points="2050.87,1233.91 2050.87,1321.21"
     stroke-linejoin="bevel"
     stroke-width="3.82"
     stroke="#000000"
     class="BarLine" />
  <polyline
     transform="translate(-360,-1076.8486)"
     id="polyline15584"
     points="2566.27,1233.91 2566.27,1321.21"
     stroke-linejoin="bevel"
     stroke-width="3.82"
     stroke="#000000"
     class="BarLine" />
  <path
     style="stroke-width:0.8496"
     id="path15588"
     d="m 1501.7757,234.18564 c 0.5097,-0.085 0.9345,-0.67968 0.9345,-1.18944 v -5.01264 c 0,-0.67968 -0.5097,-1.18944 -1.1894,-1.18944 h -0.1699 l -2.8037,0.59472 V 214.7298 h -2.3789 v 13.1688 l -7.5614,1.52928 v -11.97936 h -2.3789 v 12.48912 l -3.3134,0.67968 c -0.5098,0.085 -0.9346,0.67968 -0.9346,1.18944 v 0.16992 4.92768 -0.16992 c 0,0.67968 0.5098,1.18944 1.1894,1.18944 h 0.2549 l 2.8037,-0.59472 v 14.0184 l -3.3134,0.67968 c -0.5098,0.085 -0.9346,0.67968 -0.9346,1.18944 v 4.92768 c 0,0.67968 0.5098,1.18944 1.1894,1.18944 h 0.2549 l 2.8037,-0.59472 v 12.65904 h 2.3789 v -13.1688 l 7.5614,-1.52928 v 11.97936 h 2.3789 v -12.48912 l 3.2285,-0.59472 c 0.5097,-0.085 0.9345,-0.67968 0.9345,-1.18944 v -5.01264 c 0,-0.67968 -0.5097,-1.18944 -1.1894,-1.18944 h -0.1699 l -2.8037,0.59472 v -14.0184 l 3.2285,-0.59472 m -13.1688,16.73712 V 236.8194 l 7.5614,-1.52928 v 14.0184 l -7.5614,1.61424"
     class="Accidental" />
  <path
     style="stroke-width:0.8496"
     id="path15596"
     d="m 244.16268,127.98564 c 0.50976,-0.085 0.93456,-0.67968 0.93456,-1.18944 v -5.01264 c 0,-0.67968 -0.50976,-1.18944 -1.18944,-1.18944 h -0.16992 l -2.80368,0.59472 V 108.5298 h -2.37888 v 13.1688 l -7.56144,1.52928 V 111.24852 H 228.615 v 12.48912 l -3.31344,0.67968 c -0.50976,0.085 -0.93456,0.67968 -0.93456,1.18944 v 0.16992 4.92768 -0.16992 c 0,0.67968 0.50976,1.18944 1.18944,1.18944 h 0.25488 l 2.80368,-0.59472 v 14.0184 l -3.31344,0.67968 c -0.50976,0.085 -0.93456,0.67968 -0.93456,1.18944 v 4.92768 c 0,0.67968 0.50976,1.18944 1.18944,1.18944 h 0.25488 l 2.80368,-0.59472 v 12.65904 h 2.37888 v -13.1688 l 7.56144,-1.52928 v 11.97936 h 2.37888 v -12.48912 l 3.22848,-0.59472 c 0.50976,-0.085 0.93456,-0.67968 0.93456,-1.18944 v -5.01264 c 0,-0.67968 -0.50976,-1.18944 -1.18944,-1.18944 h -0.16992 l -2.80368,0.59472 v -14.0184 l 3.22848,-0.59472 m -13.1688,16.73712 V 130.6194 l 7.56144,-1.52928 v 14.0184 l -7.56144,1.61424"
     class="Accidental" />
  <path
     style="stroke-width:0.8496"
     id="path15598"
     d="m 2138.6457,159.84564 c 0.5097,-0.085 0.9345,-0.67968 0.9345,-1.18944 v -5.01264 c 0,-0.67968 -0.5097,-1.18944 -1.1894,-1.18944 h -0.1699 l -2.8037,0.59472 V 140.3898 h -2.3789 v 13.1688 l -7.5614,1.52928 v -11.97936 h -2.3789 v 12.48912 l -3.3134,0.67968 c -0.5098,0.085 -0.9346,0.67968 -0.9346,1.18944 v 0.16992 4.92768 -0.16992 c 0,0.67968 0.5098,1.18944 1.1894,1.18944 h 0.2549 l 2.8037,-0.59472 v 14.0184 l -3.3134,0.67968 c -0.5098,0.085 -0.9346,0.67968 -0.9346,1.18944 v 4.92768 c 0,0.67968 0.5098,1.18944 1.1894,1.18944 h 0.2549 l 2.8037,-0.59472 v 12.65904 h 2.3789 v -13.1688 l 7.5614,-1.52928 v 11.97936 h 2.3789 v -12.48912 l 3.2285,-0.59472 c 0.5097,-0.085 0.9345,-0.67968 0.9345,-1.18944 v -5.01264 c 0,-0.67968 -0.5097,-1.18944 -1.1894,-1.18944 h -0.1699 l -2.8037,0.59472 v -14.0184 l 3.2285,-0.59472 m -13.1688,16.73712 V 162.4794 l 7.5614,-1.52928 v 14.0184 l -7.5614,1.61424"
     class="Accidental" />
  <polyline
     transform="translate(-360,-1076.8486)"
     id="polyline15606"
     points="539.133,1213.84 581.606,1213.84"
     stroke-linejoin="bevel"
     stroke-width="3.4"
     stroke="#000000"
     class="LedgerLine" />
  <polyline
     transform="translate(-360,-1076.8486)"
     id="polyline15608"
     points="539.133,1192.6 581.606,1192.6"
     stroke-linejoin="bevel"
     stroke-width="3.4"
     stroke="#000000"
     class="LedgerLine" />
  <polyline
     transform="translate(-360,-1076.8486)"
     id="polyline15610"
     points="610.406,1213.84 652.88,1213.84"
     stroke-linejoin="bevel"
     stroke-width="3.4"
     stroke="#000000"
     class="LedgerLine" />
  <polyline
     transform="translate(-360,-1076.8486)"
     id="polyline15612"
     points="655.641,1213.84 698.114,1213.84"
     stroke-linejoin="bevel"
     stroke-width="3.4"
     stroke="#000000"
     class="LedgerLine" />
  <polyline
     transform="translate(-360,-1076.8486)"
     id="polyline15614"
     points="655.641,1192.6 698.114,1192.6"
     stroke-linejoin="bevel"
     stroke-width="3.4"
     stroke="#000000"
     class="LedgerLine" />
  <polyline
     transform="translate(-360,-1076.8486)"
     id="polyline15616"
     points="700.875,1213.84 743.349,1213.84"
     stroke-linejoin="bevel"
     stroke-width="3.4"
     stroke="#000000"
     class="LedgerLine" />
  <polyline
     transform="translate(-360,-1076.8486)"
     id="polyline15618"
     points="746.11,1213.84 788.583,1213.84"
     stroke-linejoin="bevel"
     stroke-width="3.4"
     stroke="#000000"
     class="LedgerLine" />
  <polyline
     transform="translate(-360,-1076.8486)"
     id="polyline15620"
     points="746.11,1192.6 788.583,1192.6"
     stroke-linejoin="bevel"
     stroke-width="3.4"
     stroke="#000000"
     class="LedgerLine" />
  <polyline
     transform="translate(-360,-1076.8486)"
     id="polyline15622"
     points="791.345,1213.84 833.818,1213.84"
     stroke-linejoin="bevel"
     stroke-width="3.4"
     stroke="#000000"
     class="LedgerLine" />
  <polyline
     transform="translate(-360,-1076.8486)"
     id="polyline15624"
     points="1135.23,1213.84 1177.7,1213.84"
     stroke-linejoin="bevel"
     stroke-width="3.4"
     stroke="#000000"
     class="LedgerLine" />
  <polyline
     transform="translate(-360,-1076.8486)"
     id="polyline15626"
     points="1204.01,1213.84 1246.49,1213.84"
     stroke-linejoin="bevel"
     stroke-width="3.4"
     stroke="#000000"
     class="LedgerLine" />
  <polyline
     transform="translate(-360,-1076.8486)"
     id="polyline15628"
     points="1272.8,1213.84 1315.28,1213.84"
     stroke-linejoin="bevel"
     stroke-width="3.4"
     stroke="#000000"
     class="LedgerLine" />
  <polyline
     transform="translate(-360,-1076.8486)"
     id="polyline15630"
     points="2067.65,1362.52 2110.12,1362.52"
     stroke-linejoin="bevel"
     stroke-width="3.4"
     stroke="#000000"
     class="LedgerLine" />
  <polyline
     transform="translate(-360,-1076.8486)"
     id="polyline15632"
     points="2067.65,1341.28 2110.12,1341.28"
     stroke-linejoin="bevel"
     stroke-width="3.4"
     stroke="#000000"
     class="LedgerLine" />
  <polyline
     transform="translate(-360,-1076.8486)"
     id="polyline15634"
     points="2099.13,1213.84 2141.6,1213.84"
     stroke-linejoin="bevel"
     stroke-width="3.4"
     stroke="#000000"
     class="LedgerLine" />
  <polyline
     transform="translate(-360,-1076.8486)"
     id="polyline15636"
     points="2099.13,1192.6 2141.6,1192.6"
     stroke-linejoin="bevel"
     stroke-width="3.4"
     stroke="#000000"
     class="LedgerLine" />
  <polyline
     transform="translate(-360,-1076.8486)"
     id="polyline15638"
     points="2144.37,1213.84 2186.84,1213.84"
     stroke-linejoin="bevel"
     stroke-width="3.4"
     stroke="#000000"
     class="LedgerLine" />
  <polyline
     transform="translate(-360,-1076.8486)"
     id="polyline15640"
     points="2189.6,1213.84 2232.07,1213.84"
     stroke-linejoin="bevel"
     stroke-width="3.4"
     stroke="#000000"
     class="LedgerLine" />
  <polyline
     transform="translate(-360,-1076.8486)"
     id="polyline15642"
     points="2321.86,1213.84 2364.33,1213.84"
     stroke-linejoin="bevel"
     stroke-width="3.4"
     stroke="#000000"
     class="LedgerLine" />
  <polyline
     transform="translate(-360,-1076.8486)"
     id="polyline15644"
     points="2367.09,1213.84 2409.56,1213.84"
     stroke-linejoin="bevel"
     stroke-width="3.4"
     stroke="#000000"
     class="LedgerLine" />
  <polyline
     transform="translate(-360,-1076.8486)"
     id="polyline15672"
     points="547.735,1248.56 547.735,1304.11"
     stroke-linejoin="bevel"
     stroke-width="2.34"
     stroke="#000000"
     class="Stem" />
  <polyline
     transform="translate(-360,-1076.8486)"
     id="polyline15674"
     points="664.243,1248.56 664.243,1304.11"
     stroke-linejoin="bevel"
     stroke-width="2.34"
     stroke="#000000"
     class="Stem" />
  <polyline
     transform="translate(-360,-1076.8486)"
     id="polyline15676"
     points="754.712,1248.56 754.712,1304.11"
     stroke-linejoin="bevel"
     stroke-width="2.34"
     stroke="#000000"
     class="Stem" />
  <polyline
     transform="translate(-360,-1076.8486)"
     id="polyline15678"
     points="878.214,1248.56 878.214,1335.97"
     stroke-linejoin="bevel"
     stroke-width="2.34"
     stroke="#000000"
     class="Stem" />
  <polyline
     transform="translate(-360,-1076.8486)"
     id="polyline15680"
     points="920.465,1269.8 920.465,1341.27"
     stroke-linejoin="bevel"
     stroke-width="2.34"
     stroke="#000000"
     class="Stem" />
  <polyline
     transform="translate(-360,-1076.8486)"
     id="polyline15682"
     points="952.322,1248.56 952.322,1345.26"
     stroke-linejoin="bevel"
     stroke-width="2.34"
     stroke="#000000"
     class="Stem" />
  <polyline
     transform="translate(-360,-1076.8486)"
     id="polyline15684"
     points="984.087,1269.8 984.087,1349.25"
     stroke-linejoin="bevel"
     stroke-width="2.34"
     stroke="#000000"
     class="Stem" />
  <polyline
     transform="translate(-360,-1076.8486)"
     id="polyline15686"
     points="1015.85,1248.56 1015.85,1353.23"
     stroke-linejoin="bevel"
     stroke-width="2.34"
     stroke="#000000"
     class="Stem" />
  <polyline
     transform="translate(-360,-1076.8486)"
     id="polyline15688"
     points="1047.62,1269.8 1047.62,1357.21"
     stroke-linejoin="bevel"
     stroke-width="2.34"
     stroke="#000000"
     class="Stem" />
  <polyline
     transform="translate(-360,-1076.8486)"
     id="polyline15690"
     points="1143.83,1259.18 1143.83,1320.04"
     stroke-linejoin="bevel"
     stroke-width="2.34"
     stroke="#000000"
     class="Stem" />
  <polyline
     transform="translate(-360,-1076.8486)"
     id="polyline15692"
     points="1212.62,1259.18 1212.62,1320.04"
     stroke-linejoin="bevel"
     stroke-width="2.34"
     stroke="#000000"
     class="Stem" />
  <polyline
     transform="translate(-360,-1076.8486)"
     id="polyline15694"
     points="1281.4,1259.18 1281.4,1320.04"
     stroke-linejoin="bevel"
     stroke-width="2.34"
     stroke="#000000"
     class="Stem" />
  <polyline
     transform="translate(-360,-1076.8486)"
     id="polyline15696"
     points="1343.38,1259.18 1343.38,1335.97"
     stroke-linejoin="bevel"
     stroke-width="2.34"
     stroke="#000000"
     class="Stem" />
  <polyline
     transform="translate(-360,-1076.8486)"
     id="polyline15698"
     points="1374.37,1280.42 1374.37,1340.22"
     stroke-linejoin="bevel"
     stroke-width="2.34"
     stroke="#000000"
     class="Stem" />
  <polyline
     transform="translate(-360,-1076.8486)"
     id="polyline15700"
     points="1405.36,1259.18 1405.36,1344.47"
     stroke-linejoin="bevel"
     stroke-width="2.34"
     stroke="#000000"
     class="Stem" />
  <polyline
     transform="translate(-360,-1076.8486)"
     id="polyline15702"
     points="1436.35,1280.42 1436.35,1348.72"
     stroke-linejoin="bevel"
     stroke-width="2.34"
     stroke="#000000"
     class="Stem" />
  <polyline
     transform="translate(-360,-1076.8486)"
     id="polyline15704"
     points="1467.33,1259.18 1467.33,1352.97"
     stroke-linejoin="bevel"
     stroke-width="2.34"
     stroke="#000000"
     class="Stem" />
  <polyline
     transform="translate(-360,-1076.8486)"
     id="polyline15706"
     points="1498.32,1280.42 1498.32,1357.21"
     stroke-linejoin="bevel"
     stroke-width="2.34"
     stroke="#000000"
     class="Stem" />
  <polyline
     transform="translate(-360,-1076.8486)"
     id="polyline15708"
     points="1587.1,1301.66 1587.1,1378.45"
     stroke-linejoin="bevel"
     stroke-width="2.34"
     stroke="#000000"
     class="Stem" />
  <polyline
     transform="translate(-360,-1076.8486)"
     id="polyline15710"
     points="1617.46,1322.9 1617.46,1382.18"
     stroke-linejoin="bevel"
     stroke-width="2.34"
     stroke="#000000"
     class="Stem" />
  <polyline
     transform="translate(-360,-1076.8486)"
     id="polyline15712"
     points="1647.83,1301.66 1647.83,1385.91"
     stroke-linejoin="bevel"
     stroke-width="2.34"
     stroke="#000000"
     class="Stem" />
  <polyline
     transform="translate(-360,-1076.8486)"
     id="polyline15714"
     points="1678.2,1322.9 1678.2,1389.64"
     stroke-linejoin="bevel"
     stroke-width="2.34"
     stroke="#000000"
     class="Stem" />
  <polyline
     transform="translate(-360,-1076.8486)"
     id="polyline15716"
     points="1708.56,1301.66 1708.56,1393.37"
     stroke-linejoin="bevel"
     stroke-width="2.34"
     stroke="#000000"
     class="Stem" />
  <polyline
     transform="translate(-360,-1076.8486)"
     id="polyline15718"
     points="1760.1,1322.9 1760.1,1399.69"
     stroke-linejoin="bevel"
     stroke-width="2.34"
     stroke="#000000"
     class="Stem" />
  <polyline
     transform="translate(-360,-1076.8486)"
     id="polyline15720"
     points="1808.11,1301.66 1808.11,1378.45"
     stroke-linejoin="bevel"
     stroke-width="2.34"
     stroke="#000000"
     class="Stem" />
  <polyline
     transform="translate(-360,-1076.8486)"
     id="polyline15722"
     points="1869.19,1322.9 1869.19,1385.56"
     stroke-linejoin="bevel"
     stroke-width="2.34"
     stroke="#000000"
     class="Stem" />
  <polyline
     transform="translate(-360,-1076.8486)"
     id="polyline15724"
     points="1899.56,1301.66 1899.56,1389.09"
     stroke-linejoin="bevel"
     stroke-width="2.34"
     stroke="#000000"
     class="Stem" />
  <polyline
     transform="translate(-360,-1076.8486)"
     id="polyline15726"
     points="1929.92,1322.9 1929.92,1392.63"
     stroke-linejoin="bevel"
     stroke-width="2.34"
     stroke="#000000"
     class="Stem" />
  <polyline
     transform="translate(-360,-1076.8486)"
     id="polyline15728"
     points="1960.29,1301.66 1960.29,1396.16"
     stroke-linejoin="bevel"
     stroke-width="2.34"
     stroke="#000000"
     class="Stem" />
  <polyline
     transform="translate(-360,-1076.8486)"
     id="polyline15730"
     points="1990.66,1322.9 1990.66,1399.69"
     stroke-linejoin="bevel"
     stroke-width="2.34"
     stroke="#000000"
     class="Stem" />
  <polyline
     transform="translate(-360,-1076.8486)"
     id="polyline15776"
     points="573.004,1189.88 573.004,1112.95"
     stroke-linejoin="bevel"
     stroke-width="2.34"
     stroke="#000000"
     class="Stem" />
  <polyline
     transform="translate(-360,-1076.8486)"
     id="polyline15778"
     points="644.277,1211.12 644.277,1118.96"
     stroke-linejoin="bevel"
     stroke-width="2.34"
     stroke="#000000"
     class="Stem" />
  <polyline
     transform="translate(-360,-1076.8486)"
     id="polyline15780"
     points="689.512,1189.88 689.512,1122.76"
     stroke-linejoin="bevel"
     stroke-width="2.34"
     stroke="#000000"
     class="Stem" />
  <polyline
     transform="translate(-360,-1076.8486)"
     id="polyline15782"
     points="734.747,1211.12 734.747,1126.57"
     stroke-linejoin="bevel"
     stroke-width="2.34"
     stroke="#000000"
     class="Stem" />
  <polyline
     transform="translate(-360,-1076.8486)"
     id="polyline15784"
     points="779.981,1189.88 779.981,1130.38"
     stroke-linejoin="bevel"
     stroke-width="2.34"
     stroke="#000000"
     class="Stem" />
  <polyline
     transform="translate(-360,-1076.8486)"
     id="polyline15786"
     points="825.216,1211.12 825.216,1134.19"
     stroke-linejoin="bevel"
     stroke-width="2.34"
     stroke="#000000"
     class="Stem" />
  <polyline
     transform="translate(-360,-1076.8486)"
     id="polyline15788"
     points="856.981,1232.36 856.981,1179.33"
     stroke-linejoin="bevel"
     stroke-width="2.34"
     stroke="#000000"
     class="Stem" />
  <polyline
     transform="translate(-360,-1076.8486)"
     id="polyline15790"
     points="1169.1,1200.5 1169.1,1112.95"
     stroke-linejoin="bevel"
     stroke-width="2.34"
     stroke="#000000"
     class="Stem" />
  <polyline
     transform="translate(-360,-1076.8486)"
     id="polyline15792"
     points="1200.08,1232.36 1200.08,1116.86"
     stroke-linejoin="bevel"
     stroke-width="2.34"
     stroke="#000000"
     class="Stem" />
  <polyline
     transform="translate(-360,-1076.8486)"
     id="polyline15794"
     points="1237.89,1200.5 1237.89,1121.62"
     stroke-linejoin="bevel"
     stroke-width="2.34"
     stroke="#000000"
     class="Stem" />
  <polyline
     transform="translate(-360,-1076.8486)"
     id="polyline15796"
     points="1268.87,1232.36 1268.87,1125.53"
     stroke-linejoin="bevel"
     stroke-width="2.34"
     stroke="#000000"
     class="Stem" />
  <polyline
     transform="translate(-360,-1076.8486)"
     id="polyline15798"
     points="1306.67,1200.5 1306.67,1130.29"
     stroke-linejoin="bevel"
     stroke-width="2.34"
     stroke="#000000"
     class="Stem" />
  <polyline
     transform="translate(-360,-1076.8486)"
     id="polyline15800"
     points="1337.66,1232.36 1337.66,1134.19"
     stroke-linejoin="bevel"
     stroke-width="2.34"
     stroke="#000000"
     class="Stem" />
  <polyline
     transform="translate(-360,-1076.8486)"
     id="polyline15802"
     points="1368.65,1232.36 1368.65,1171.36"
     stroke-linejoin="bevel"
     stroke-width="2.34"
     stroke="#000000"
     class="Stem" />
  <polyline
     transform="translate(-360,-1076.8486)"
     id="polyline15804"
     points="1430.63,1232.36 1430.63,1171.36"
     stroke-linejoin="bevel"
     stroke-width="2.34"
     stroke="#000000"
     class="Stem" />
  <polyline
     transform="translate(-360,-1076.8486)"
     id="polyline15806"
     points="1492.6,1232.36 1492.6,1171.36"
     stroke-linejoin="bevel"
     stroke-width="2.34"
     stroke="#000000"
     class="Stem" />
  <polyline
     transform="translate(-360,-1076.8486)"
     id="polyline15808"
     points="1612.37,1274.84 1612.37,1213.84"
     stroke-linejoin="bevel"
     stroke-width="2.34"
     stroke="#000000"
     class="Stem" />
  <polyline
     transform="translate(-360,-1076.8486)"
     id="polyline15810"
     points="1673.1,1274.84 1673.1,1213.84"
     stroke-linejoin="bevel"
     stroke-width="2.34"
     stroke="#000000"
     class="Stem" />
  <polyline
     transform="translate(-360,-1076.8486)"
     id="polyline15812"
     points="1733.83,1274.84 1733.83,1213.84"
     stroke-linejoin="bevel"
     stroke-width="2.34"
     stroke="#000000"
     class="Stem" />
  <polyline
     transform="translate(-360,-1076.8486)"
     id="polyline15814"
     points="1833.38,1274.84 1833.38,1213.84"
     stroke-linejoin="bevel"
     stroke-width="2.34"
     stroke="#000000"
     class="Stem" />
  <polyline
     transform="translate(-360,-1076.8486)"
     id="polyline15816"
     points="1924.83,1274.84 1924.83,1213.84"
     stroke-linejoin="bevel"
     stroke-width="2.34"
     stroke="#000000"
     class="Stem" />
  <polyline
     transform="translate(-360,-1076.8486)"
     id="polyline15818"
     points="1985.56,1274.84 1985.56,1213.84"
     stroke-linejoin="bevel"
     stroke-width="2.34"
     stroke="#000000"
     class="Stem" />
  <polyline
     transform="translate(-360,-1076.8486)"
     id="polyline15820"
     points="2076.25,1365.38 2076.25,1426.24"
     stroke-linejoin="bevel"
     stroke-width="2.34"
     stroke="#000000"
     class="Stem" />
  <polyline
     transform="translate(-360,-1076.8486)"
     id="polyline15822"
     points="2107.73,1195.46 2107.73,1421.87"
     stroke-linejoin="bevel"
     stroke-width="2.34"
     stroke="#000000"
     class="Stem" />
  <polyline
     transform="translate(-360,-1076.8486)"
     id="polyline15824"
     points="2152.97,1206.08 2152.97,1415.59"
     stroke-linejoin="bevel"
     stroke-width="2.34"
     stroke="#000000"
     class="Stem" />
  <polyline
     transform="translate(-360,-1076.8486)"
     id="polyline15826"
     points="2198.2,1216.7 2198.2,1409.31"
     stroke-linejoin="bevel"
     stroke-width="2.34"
     stroke="#000000"
     class="Stem" />
  <polyline
     transform="translate(-360,-1076.8486)"
     id="polyline15828"
     points="2236,1227.32 2236,1404.06"
     stroke-linejoin="bevel"
     stroke-width="2.34"
     stroke="#000000"
     class="Stem" />
  <polyline
     transform="translate(-360,-1076.8486)"
     id="polyline15830"
     points="2267.49,1237.94 2267.49,1399.69"
     stroke-linejoin="bevel"
     stroke-width="2.34"
     stroke="#000000"
     class="Stem" />
  <polyline
     transform="translate(-360,-1076.8486)"
     id="polyline15832"
     points="2298.97,1269.8 2298.97,1335.97"
     stroke-linejoin="bevel"
     stroke-width="2.34"
     stroke="#000000"
     class="Stem" />
  <polyline
     transform="translate(-360,-1076.8486)"
     id="polyline15834"
     points="2330.46,1206.08 2330.46,1333.55"
     stroke-linejoin="bevel"
     stroke-width="2.34"
     stroke="#000000"
     class="Stem" />
  <polyline
     transform="translate(-360,-1076.8486)"
     id="polyline15836"
     points="2375.69,1216.7 2375.69,1330.07"
     stroke-linejoin="bevel"
     stroke-width="2.34"
     stroke="#000000"
     class="Stem" />
  <polyline
     transform="translate(-360,-1076.8486)"
     id="polyline15838"
     points="2413.49,1227.32 2413.49,1327.16"
     stroke-linejoin="bevel"
     stroke-width="2.34"
     stroke="#000000"
     class="Stem" />
  <polyline
     transform="translate(-360,-1076.8486)"
     id="polyline15840"
     points="2444.98,1237.94 2444.98,1324.74"
     stroke-linejoin="bevel"
     stroke-width="2.34"
     stroke="#000000"
     class="Stem" />
  <polyline
     transform="translate(-360,-1076.8486)"
     id="polyline15842"
     points="2506.06,1248.56 2506.06,1320.04"
     stroke-linejoin="bevel"
     stroke-width="2.34"
     stroke="#000000"
     class="Stem" />
  <polyline
     transform="translate(-360,-1076.8486)"
     id="polyline15844"
     points="2620.1,1306.7 2620.1,1235.08"
     stroke-linejoin="bevel"
     stroke-width="2.34"
     stroke="#000000"
     class="Stem" />
  <path
     style="stroke-width:0.8496"
     id="path15872"
     d="m 213.3294,161.96964 c -1.52928,-2.80368 -4.75776,-4.33296 -8.66592,-4.33296 -2.88864,0 -6.03216,0.8496 -9.09072,2.46384 -5.60736,2.9736 -9.00576,7.98624 -9.00576,12.3192 0,1.18944 0.25488,2.37888 0.8496,3.48336 1.52928,2.80368 4.75776,4.248 8.66592,4.248 2.88864,0 6.03216,-0.76464 9.09072,-2.37888 5.60736,-2.9736 9.00576,-7.98624 9.00576,-12.3192 0,-1.18944 -0.25488,-2.37888 -0.8496,-3.48336"
     class="Note" />
  <path
     style="stroke-width:0.8496"
     id="path15874"
     d="m 329.8374,161.96964 c -1.52928,-2.80368 -4.75776,-4.33296 -8.66592,-4.33296 -2.88864,0 -6.03216,0.8496 -9.09072,2.46384 -5.60736,2.9736 -9.00576,7.98624 -9.00576,12.3192 0,1.18944 0.25488,2.37888 0.8496,3.48336 1.52928,2.80368 4.75776,4.248 8.66592,4.248 2.88864,0 6.03216,-0.76464 9.09072,-2.37888 5.60736,-2.9736 9.00576,-7.98624 9.00576,-12.3192 0,-1.18944 -0.25488,-2.37888 -0.8496,-3.48336"
     class="Note" />
  <path
     style="stroke-width:0.8496"
     id="path15876"
     d="m 420.3064,161.96964 c -1.52928,-2.80368 -4.75776,-4.33296 -8.66592,-4.33296 -2.88864,0 -6.03216,0.8496 -9.09072,2.46384 -5.60736,2.9736 -9.00576,7.98624 -9.00576,12.3192 0,1.18944 0.25488,2.37888 0.8496,3.48336 1.52928,2.80368 4.75776,4.248 8.66592,4.248 2.88864,0 6.03216,-0.76464 9.09072,-2.37888 5.60736,-2.9736 9.00576,-7.98624 9.00576,-12.3192 0,-1.18944 -0.25488,-2.37888 -0.8496,-3.48336"
     class="Note" />
  <path
     style="stroke-width:0.8496"
     id="path15878"
     d="m 543.8084,161.96964 c -1.52928,-2.80368 -4.75776,-4.33296 -8.66592,-4.33296 -2.88864,0 -6.03216,0.8496 -9.09072,2.46384 -5.60736,2.9736 -9.00576,7.98624 -9.00576,12.3192 0,1.18944 0.25488,2.37888 0.8496,3.48336 1.52928,2.80368 4.75776,4.248 8.66592,4.248 2.88864,0 6.03216,-0.76464 9.09072,-2.37888 5.60736,-2.9736 9.00576,-7.98624 9.00576,-12.3192 0,-1.18944 -0.25488,-2.37888 -0.8496,-3.48336"
     class="Note" />
  <path
     style="stroke-width:0.8496"
     id="path15880"
     d="m 586.0594,183.20964 c -1.52928,-2.80368 -4.75776,-4.33296 -8.66592,-4.33296 -2.88864,0 -6.03216,0.8496 -9.09072,2.46384 -5.60736,2.9736 -9.00576,7.98624 -9.00576,12.3192 0,1.18944 0.25488,2.37888 0.8496,3.48336 1.52928,2.80368 4.75776,4.248 8.66592,4.248 2.88864,0 6.03216,-0.76464 9.09072,-2.37888 5.60736,-2.9736 9.00576,-7.98624 9.00576,-12.3192 0,-1.18944 -0.25488,-2.37888 -0.8496,-3.48336"
     class="Note" />
  <path
     style="stroke-width:0.8496"
     id="path15882"
     d="m 617.9164,161.96964 c -1.52928,-2.80368 -4.75776,-4.33296 -8.66592,-4.33296 -2.88864,0 -6.03216,0.8496 -9.09072,2.46384 -5.60736,2.9736 -9.00576,7.98624 -9.00576,12.3192 0,1.18944 0.25488,2.37888 0.8496,3.48336 1.52928,2.80368 4.75776,4.248 8.66592,4.248 2.88864,0 6.03216,-0.76464 9.09072,-2.37888 5.60736,-2.9736 9.00576,-7.98624 9.00576,-12.3192 0,-1.18944 -0.25488,-2.37888 -0.8496,-3.48336"
     class="Note" />
  <path
     style="stroke-width:0.8496"
     id="path15884"
     d="m 649.6814,183.20964 c -1.52928,-2.80368 -4.75776,-4.33296 -8.66592,-4.33296 -2.88864,0 -6.03216,0.8496 -9.09072,2.46384 -5.60736,2.9736 -9.00576,7.98624 -9.00576,12.3192 0,1.18944 0.25488,2.37888 0.8496,3.48336 1.52928,2.80368 4.75776,4.248 8.66592,4.248 2.88864,0 6.03216,-0.76464 9.09072,-2.37888 5.60736,-2.9736 9.00576,-7.98624 9.00576,-12.3192 0,-1.18944 -0.25488,-2.37888 -0.8496,-3.48336"
     class="Note" />
  <path
     style="stroke-width:0.8496"
     id="path15886"
     d="m 681.4424,161.96964 c -1.52928,-2.80368 -4.75776,-4.33296 -8.66592,-4.33296 -2.88864,0 -6.03216,0.8496 -9.09072,2.46384 -5.60736,2.9736 -9.00576,7.98624 -9.00576,12.3192 0,1.18944 0.25488,2.37888 0.8496,3.48336 1.52928,2.80368 4.75776,4.248 8.66592,4.248 2.88864,0 6.03216,-0.76464 9.09072,-2.37888 5.60736,-2.9736 9.00576,-7.98624 9.00576,-12.3192 0,-1.18944 -0.25488,-2.37888 -0.8496,-3.48336"
     class="Note" />
  <path
     style="stroke-width:0.8496"
     id="path15888"
     d="m 713.2124,183.20964 c -1.52928,-2.80368 -4.75776,-4.33296 -8.66592,-4.33296 -2.88864,0 -6.03216,0.8496 -9.09072,2.46384 -5.60736,2.9736 -9.00576,7.98624 -9.00576,12.3192 0,1.18944 0.25488,2.37888 0.8496,3.48336 1.52928,2.80368 4.75776,4.248 8.66592,4.248 2.88864,0 6.03216,-0.76464 9.09072,-2.37888 5.60736,-2.9736 9.00576,-7.98624 9.00576,-12.3192 0,-1.18944 -0.25488,-2.37888 -0.8496,-3.48336"
     class="Note" />
  <path
     style="stroke-width:0.8496"
     id="path15890"
     d="m 809.4224,172.58964 c -1.52928,-2.80368 -4.75776,-4.33296 -8.66592,-4.33296 -2.88864,0 -6.03216,0.8496 -9.09072,2.46384 -5.60736,2.9736 -9.00576,7.98624 -9.00576,12.3192 0,1.18944 0.25488,2.37888 0.8496,3.48336 1.52928,2.80368 4.75776,4.248 8.66592,4.248 2.88864,0 6.03216,-0.76464 9.09072,-2.37888 5.60736,-2.9736 9.00576,-7.98624 9.00576,-12.3192 0,-1.18944 -0.25488,-2.37888 -0.8496,-3.48336"
     class="Note" />
  <path
     style="stroke-width:0.8496"
     id="path15892"
     d="m 878.2124,172.58964 c -1.52928,-2.80368 -4.75776,-4.33296 -8.66592,-4.33296 -2.88864,0 -6.03216,0.8496 -9.09072,2.46384 -5.60736,2.9736 -9.00576,7.98624 -9.00576,12.3192 0,1.18944 0.25488,2.37888 0.8496,3.48336 1.52928,2.80368 4.75776,4.248 8.66592,4.248 2.88864,0 6.03216,-0.76464 9.09072,-2.37888 5.60736,-2.9736 9.00576,-7.98624 9.00576,-12.3192 0,-1.18944 -0.25488,-2.37888 -0.8496,-3.48336"
     class="Note" />
  <path
     style="stroke-width:0.8496"
     id="path15894"
     d="m 947.0024,172.58964 c -1.52928,-2.80368 -4.75776,-4.33296 -8.66592,-4.33296 -2.88864,0 -6.03216,0.8496 -9.09072,2.46384 -5.60736,2.9736 -9.00576,7.98624 -9.00576,12.3192 0,1.18944 0.25488,2.37888 0.8496,3.48336 1.52928,2.80368 4.75776,4.248 8.66592,4.248 2.88864,0 6.03216,-0.76464 9.09072,-2.37888 5.60736,-2.9736 9.00576,-7.98624 9.00576,-12.3192 0,-1.18944 -0.25488,-2.37888 -0.8496,-3.48336"
     class="Note" />
  <path
     style="stroke-width:0.8496"
     id="path15896"
     d="m 1008.9724,172.58964 c -1.5293,-2.80368 -4.7578,-4.33296 -8.6659,-4.33296 -2.88866,0 -6.03218,0.8496 -9.09074,2.46384 -5.60736,2.9736 -9.00576,7.98624 -9.00576,12.3192 0,1.18944 0.25488,2.37888 0.8496,3.48336 1.52928,2.80368 4.75776,4.248 8.66592,4.248 2.88864,0 6.03216,-0.76464 9.09068,-2.37888 5.6074,-2.9736 9.0058,-7.98624 9.0058,-12.3192 0,-1.18944 -0.2549,-2.37888 -0.8496,-3.48336"
     class="Note" />
  <path
     style="stroke-width:0.8496"
     id="path15898"
     d="m 1039.9624,193.82964 c -1.5293,-2.80368 -4.7578,-4.33296 -8.6659,-4.33296 -2.8887,0 -6.0322,0.8496 -9.0907,2.46384 -5.6074,2.9736 -9.0058,7.98624 -9.0058,12.3192 0,1.18944 0.2549,2.37888 0.8496,3.48336 1.5293,2.80368 4.7578,4.248 8.6659,4.248 2.8887,0 6.0322,-0.76464 9.0907,-2.37888 5.6074,-2.9736 9.0058,-7.98624 9.0058,-12.3192 0,-1.18944 -0.2549,-2.37888 -0.8496,-3.48336"
     class="Note" />
  <path
     style="stroke-width:0.8496"
     id="path15900"
     d="m 1070.9524,172.58964 c -1.5293,-2.80368 -4.7578,-4.33296 -8.6659,-4.33296 -2.8887,0 -6.0322,0.8496 -9.0907,2.46384 -5.6074,2.9736 -9.0058,7.98624 -9.0058,12.3192 0,1.18944 0.2549,2.37888 0.8496,3.48336 1.5293,2.80368 4.7578,4.248 8.6659,4.248 2.8887,0 6.0322,-0.76464 9.0907,-2.37888 5.6074,-2.9736 9.0058,-7.98624 9.0058,-12.3192 0,-1.18944 -0.2549,-2.37888 -0.8496,-3.48336"
     class="Note" />
  <path
     style="stroke-width:0.8496"
     id="path15902"
     d="m 1101.9424,193.82964 c -1.5293,-2.80368 -4.7578,-4.33296 -8.6659,-4.33296 -2.8887,0 -6.0322,0.8496 -9.0907,2.46384 -5.6074,2.9736 -9.0058,7.98624 -9.0058,12.3192 0,1.18944 0.2549,2.37888 0.8496,3.48336 1.5293,2.80368 4.7578,4.248 8.6659,4.248 2.8887,0 6.0322,-0.76464 9.0907,-2.37888 5.6074,-2.9736 9.0058,-7.98624 9.0058,-12.3192 0,-1.18944 -0.2549,-2.37888 -0.8496,-3.48336"
     class="Note" />
  <path
     style="stroke-width:0.8496"
     id="path15904"
     d="m 1132.9324,172.58964 c -1.5293,-2.80368 -4.7578,-4.33296 -8.6659,-4.33296 -2.8887,0 -6.0322,0.8496 -9.0907,2.46384 -5.6074,2.9736 -9.0058,7.98624 -9.0058,12.3192 0,1.18944 0.2549,2.37888 0.8496,3.48336 1.5293,2.80368 4.7578,4.248 8.6659,4.248 2.8887,0 6.0322,-0.76464 9.0907,-2.37888 5.6074,-2.9736 9.0058,-7.98624 9.0058,-12.3192 0,-1.18944 -0.2549,-2.37888 -0.8496,-3.48336"
     class="Note" />
  <path
     style="stroke-width:0.8496"
     id="path15906"
     d="m 1163.9124,193.82964 c -1.5293,-2.80368 -4.7578,-4.33296 -8.6659,-4.33296 -2.8887,0 -6.0322,0.8496 -9.0907,2.46384 -5.6074,2.9736 -9.0058,7.98624 -9.0058,12.3192 0,1.18944 0.2549,2.37888 0.8496,3.48336 1.5293,2.80368 4.7578,4.248 8.6659,4.248 2.8887,0 6.0322,-0.76464 9.0907,-2.37888 5.6074,-2.9736 9.0058,-7.98624 9.0058,-12.3192 0,-1.18944 -0.2549,-2.37888 -0.8496,-3.48336"
     class="Note" />
  <path
     style="stroke-width:0.8496"
     id="path15908"
     d="m 1252.6924,215.06964 c -1.5293,-2.80368 -4.7578,-4.33296 -8.6659,-4.33296 -2.8887,0 -6.0322,0.8496 -9.0907,2.46384 -5.6074,2.9736 -9.0058,7.98624 -9.0058,12.3192 0,1.18944 0.2549,2.37888 0.8496,3.48336 1.5293,2.80368 4.7578,4.248 8.6659,4.248 2.8887,0 6.0322,-0.76464 9.0907,-2.37888 5.6074,-2.9736 9.0058,-7.98624 9.0058,-12.3192 0,-1.18944 -0.2549,-2.37888 -0.8496,-3.48336"
     class="Note" />
  <path
     style="stroke-width:0.8496"
     id="path15910"
     d="m 1283.0624,236.30964 c -1.5293,-2.80368 -4.7578,-4.33296 -8.6659,-4.33296 -2.8887,0 -6.0322,0.8496 -9.0907,2.46384 -5.6074,2.9736 -9.0058,7.98624 -9.0058,12.3192 0,1.18944 0.2549,2.37888 0.8496,3.48336 1.5293,2.80368 4.7578,4.248 8.6659,4.248 2.8887,0 6.0322,-0.76464 9.0907,-2.37888 5.6074,-2.9736 9.0058,-7.98624 9.0058,-12.3192 0,-1.18944 -0.2549,-2.37888 -0.8496,-3.48336"
     class="Note" />
  <path
     style="stroke-width:0.8496"
     id="path15912"
     d="m 1313.4224,215.06964 c -1.5293,-2.80368 -4.7578,-4.33296 -8.6659,-4.33296 -2.8887,0 -6.0322,0.8496 -9.0907,2.46384 -5.6074,2.9736 -9.0058,7.98624 -9.0058,12.3192 0,1.18944 0.2549,2.37888 0.8496,3.48336 1.5293,2.80368 4.7578,4.248 8.6659,4.248 2.8887,0 6.0322,-0.76464 9.0907,-2.37888 5.6074,-2.9736 9.0058,-7.98624 9.0058,-12.3192 0,-1.18944 -0.2549,-2.37888 -0.8496,-3.48336"
     class="Note" />
  <path
     style="stroke-width:0.8496"
     id="path15914"
     d="m 1343.7924,236.30964 c -1.5293,-2.80368 -4.7578,-4.33296 -8.6659,-4.33296 -2.8887,0 -6.0322,0.8496 -9.0907,2.46384 -5.6074,2.9736 -9.0058,7.98624 -9.0058,12.3192 0,1.18944 0.2549,2.37888 0.8496,3.48336 1.5293,2.80368 4.7578,4.248 8.6659,4.248 2.8887,0 6.0322,-0.76464 9.0907,-2.37888 5.6074,-2.9736 9.0058,-7.98624 9.0058,-12.3192 0,-1.18944 -0.2549,-2.37888 -0.8496,-3.48336"
     class="Note" />
  <path
     style="stroke-width:0.8496"
     id="path15916"
     d="m 1374.1624,215.06964 c -1.5293,-2.80368 -4.7578,-4.33296 -8.6659,-4.33296 -2.8887,0 -6.0322,0.8496 -9.0907,2.46384 -5.6074,2.9736 -9.0058,7.98624 -9.0058,12.3192 0,1.18944 0.2549,2.37888 0.8496,3.48336 1.5293,2.80368 4.7578,4.248 8.6659,4.248 2.8887,0 6.0322,-0.76464 9.0907,-2.37888 5.6074,-2.9736 9.0058,-7.98624 9.0058,-12.3192 0,-1.18944 -0.2549,-2.37888 -0.8496,-3.48336"
     class="Note" />
  <path
     style="stroke-width:0.8496"
     id="path15918"
     d="m 1425.7024,236.30964 c -1.5293,-2.80368 -4.7578,-4.33296 -8.6659,-4.33296 -2.8887,0 -6.0322,0.8496 -9.0907,2.46384 -5.6074,2.9736 -9.0058,7.98624 -9.0058,12.3192 0,1.18944 0.2549,2.37888 0.8496,3.48336 1.5293,2.80368 4.7578,4.248 8.6659,4.248 2.8887,0 6.0322,-0.76464 9.0907,-2.37888 5.6074,-2.9736 9.0058,-7.98624 9.0058,-12.3192 0,-1.18944 -0.2549,-2.37888 -0.8496,-3.48336"
     class="Note" />
  <path
     style="stroke-width:0.8496"
     id="path15920"
     d="m 1473.7024,215.06964 c -1.5293,-2.80368 -4.7578,-4.33296 -8.6659,-4.33296 -2.8887,0 -6.0322,0.8496 -9.0907,2.46384 -5.6074,2.9736 -9.0058,7.98624 -9.0058,12.3192 0,1.18944 0.2549,2.37888 0.8496,3.48336 1.5293,2.80368 4.7578,4.248 8.6659,4.248 2.8887,0 6.0322,-0.76464 9.0907,-2.37888 5.6074,-2.9736 9.0058,-7.98624 9.0058,-12.3192 0,-1.18944 -0.2549,-2.37888 -0.8496,-3.48336"
     class="Note" />
  <path
     style="stroke-width:0.8496"
     id="path15922"
     d="m 1534.7824,236.30964 c -1.5293,-2.80368 -4.7578,-4.33296 -8.6659,-4.33296 -2.8887,0 -6.0322,0.8496 -9.0907,2.46384 -5.6074,2.9736 -9.0058,7.98624 -9.0058,12.3192 0,1.18944 0.2549,2.37888 0.8496,3.48336 1.5293,2.80368 4.7578,4.248 8.6659,4.248 2.8887,0 6.0322,-0.76464 9.0907,-2.37888 5.6074,-2.9736 9.0058,-7.98624 9.0058,-12.3192 0,-1.18944 -0.2549,-2.37888 -0.8496,-3.48336"
     class="Note" />
  <path
     style="stroke-width:0.8496"
     id="path15924"
     d="m 1565.1524,215.06964 c -1.5293,-2.80368 -4.7578,-4.33296 -8.6659,-4.33296 -2.8887,0 -6.0322,0.8496 -9.0907,2.46384 -5.6074,2.9736 -9.0058,7.98624 -9.0058,12.3192 0,1.18944 0.2549,2.37888 0.8496,3.48336 1.5293,2.80368 4.7578,4.248 8.6659,4.248 2.8887,0 6.0322,-0.76464 9.0907,-2.37888 5.6074,-2.9736 9.0058,-7.98624 9.0058,-12.3192 0,-1.18944 -0.2549,-2.37888 -0.8496,-3.48336"
     class="Note" />
  <path
     style="stroke-width:0.8496"
     id="path15926"
     d="m 1595.5224,236.30964 c -1.5293,-2.80368 -4.7578,-4.33296 -8.6659,-4.33296 -2.8887,0 -6.0322,0.8496 -9.0907,2.46384 -5.6074,2.9736 -9.0058,7.98624 -9.0058,12.3192 0,1.18944 0.2549,2.37888 0.8496,3.48336 1.5293,2.80368 4.7578,4.248 8.6659,4.248 2.8887,0 6.0322,-0.76464 9.0907,-2.37888 5.6074,-2.9736 9.0058,-7.98624 9.0058,-12.3192 0,-1.18944 -0.2549,-2.37888 -0.8496,-3.48336"
     class="Note" />
  <path
     style="stroke-width:0.8496"
     id="path15928"
     d="m 1625.8824,215.06964 c -1.5293,-2.80368 -4.7578,-4.33296 -8.6659,-4.33296 -2.8887,0 -6.0322,0.8496 -9.0907,2.46384 -5.6074,2.9736 -9.0058,7.98624 -9.0058,12.3192 0,1.18944 0.2549,2.37888 0.8496,3.48336 1.5293,2.80368 4.7578,4.248 8.6659,4.248 2.8887,0 6.0322,-0.76464 9.0907,-2.37888 5.6074,-2.9736 9.0058,-7.98624 9.0058,-12.3192 0,-1.18944 -0.2549,-2.37888 -0.8496,-3.48336"
     class="Note" />
  <path
     style="stroke-width:0.8496"
     id="path15930"
     d="m 1656.2524,236.30964 c -1.5293,-2.80368 -4.7578,-4.33296 -8.6659,-4.33296 -2.8887,0 -6.0322,0.8496 -9.0907,2.46384 -5.6074,2.9736 -9.0058,7.98624 -9.0058,12.3192 0,1.18944 0.2549,2.37888 0.8496,3.48336 1.5293,2.80368 4.7578,4.248 8.6659,4.248 2.8887,0 6.0322,-0.76464 9.0907,-2.37888 5.6074,-2.9736 9.0058,-7.98624 9.0058,-12.3192 0,-1.18944 -0.2549,-2.37888 -0.8496,-3.48336"
     class="Note" />
  <path
     style="stroke-width:0.8496"
     id="path15976"
     d="m 213.3294,108.86964 c -1.52928,-2.80368 -4.75776,-4.33296 -8.66592,-4.33296 -2.88864,0 -6.03216,0.8496 -9.09072,2.46384 -5.60736,2.9736 -9.00576,7.98624 -9.00576,12.3192 0,1.18944 0.25488,2.37888 0.8496,3.48336 1.52928,2.80368 4.75776,4.248 8.66592,4.248 2.88864,0 6.03216,-0.76464 9.09072,-2.37888 5.60736,-2.9736 9.00576,-7.98624 9.00576,-12.3192 0,-1.18944 -0.25488,-2.37888 -0.8496,-3.48336"
     class="Note" />
  <path
     style="stroke-width:0.8496"
     id="path15978"
     d="m 284.6024,130.10964 c -1.52928,-2.80368 -4.75776,-4.33296 -8.66592,-4.33296 -2.88864,0 -6.03216,0.8496 -9.09072,2.46384 -5.60736,2.9736 -9.00576,7.98624 -9.00576,12.3192 0,1.18944 0.25488,2.37888 0.8496,3.48336 1.52928,2.80368 4.75776,4.248 8.66592,4.248 2.88864,0 6.03216,-0.76464 9.09072,-2.37888 5.60736,-2.9736 9.00576,-7.98624 9.00576,-12.3192 0,-1.18944 -0.25488,-2.37888 -0.8496,-3.48336"
     class="Note" />
  <path
     style="stroke-width:0.8496"
     id="path15980"
     d="m 329.8374,108.86964 c -1.52928,-2.80368 -4.75776,-4.33296 -8.66592,-4.33296 -2.88864,0 -6.03216,0.8496 -9.09072,2.46384 -5.60736,2.9736 -9.00576,7.98624 -9.00576,12.3192 0,1.18944 0.25488,2.37888 0.8496,3.48336 1.52928,2.80368 4.75776,4.248 8.66592,4.248 2.88864,0 6.03216,-0.76464 9.09072,-2.37888 5.60736,-2.9736 9.00576,-7.98624 9.00576,-12.3192 0,-1.18944 -0.25488,-2.37888 -0.8496,-3.48336"
     class="Note" />
  <path
     style="stroke-width:0.8496"
     id="path15982"
     d="m 375.0714,130.10964 c -1.52928,-2.80368 -4.75776,-4.33296 -8.66592,-4.33296 -2.88864,0 -6.03216,0.8496 -9.09072,2.46384 -5.60736,2.9736 -9.00576,7.98624 -9.00576,12.3192 0,1.18944 0.25488,2.37888 0.8496,3.48336 1.52928,2.80368 4.75776,4.248 8.66592,4.248 2.88864,0 6.03216,-0.76464 9.09072,-2.37888 5.60736,-2.9736 9.00576,-7.98624 9.00576,-12.3192 0,-1.18944 -0.25488,-2.37888 -0.8496,-3.48336"
     class="Note" />
  <path
     style="stroke-width:0.8496"
     id="path15984"
     d="m 420.3064,108.86964 c -1.52928,-2.80368 -4.75776,-4.33296 -8.66592,-4.33296 -2.88864,0 -6.03216,0.8496 -9.09072,2.46384 -5.60736,2.9736 -9.00576,7.98624 -9.00576,12.3192 0,1.18944 0.25488,2.37888 0.8496,3.48336 1.52928,2.80368 4.75776,4.248 8.66592,4.248 2.88864,0 6.03216,-0.76464 9.09072,-2.37888 5.60736,-2.9736 9.00576,-7.98624 9.00576,-12.3192 0,-1.18944 -0.25488,-2.37888 -0.8496,-3.48336"
     class="Note" />
  <path
     style="stroke-width:0.8496"
     id="path15986"
     d="m 465.5414,130.10964 c -1.52928,-2.80368 -4.75776,-4.33296 -8.66592,-4.33296 -2.88864,0 -6.03216,0.8496 -9.09072,2.46384 -5.60736,2.9736 -9.00576,7.98624 -9.00576,12.3192 0,1.18944 0.25488,2.37888 0.8496,3.48336 1.52928,2.80368 4.75776,4.248 8.66592,4.248 2.88864,0 6.03216,-0.76464 9.09072,-2.37888 5.60736,-2.9736 9.00576,-7.98624 9.00576,-12.3192 0,-1.18944 -0.25488,-2.37888 -0.8496,-3.48336"
     class="Note" />
  <path
     style="stroke-width:0.8496"
     id="path15988"
     d="m 497.3064,151.34964 c -1.52928,-2.80368 -4.75776,-4.33296 -8.66592,-4.33296 -2.88864,0 -6.03216,0.8496 -9.09072,2.46384 -5.60736,2.9736 -9.00576,7.98624 -9.00576,12.3192 0,1.18944 0.25488,2.37888 0.8496,3.48336 1.52928,2.80368 4.75776,4.248 8.66592,4.248 2.88864,0 6.03216,-0.76464 9.09072,-2.37888 5.60736,-2.9736 9.00576,-7.98624 9.00576,-12.3192 0,-1.18944 -0.25488,-2.37888 -0.8496,-3.48336"
     class="Note" />
  <path
     style="stroke-width:0.8496"
     id="path15990"
     d="m 809.4224,119.48964 c -1.52928,-2.80368 -4.75776,-4.33296 -8.66592,-4.33296 -2.88864,0 -6.03216,0.8496 -9.09072,2.46384 -5.60736,2.9736 -9.00576,7.98624 -9.00576,12.3192 0,1.18944 0.25488,2.37888 0.8496,3.48336 1.52928,2.80368 4.75776,4.248 8.66592,4.248 2.88864,0 6.03216,-0.76464 9.09072,-2.37888 5.60736,-2.9736 9.00576,-7.98624 9.00576,-12.3192 0,-1.18944 -0.25488,-2.37888 -0.8496,-3.48336"
     class="Note" />
  <path
     style="stroke-width:0.8496"
     id="path15992"
     d="m 840.4124,151.34964 c -1.52928,-2.80368 -4.75776,-4.33296 -8.66592,-4.33296 -2.88864,0 -6.03216,0.8496 -9.09072,2.46384 -5.60736,2.9736 -9.00576,7.98624 -9.00576,12.3192 0,1.18944 0.25488,2.37888 0.8496,3.48336 1.52928,2.80368 4.75776,4.248 8.66592,4.248 2.88864,0 6.03216,-0.76464 9.09072,-2.37888 5.60736,-2.9736 9.00576,-7.98624 9.00576,-12.3192 0,-1.18944 -0.25488,-2.37888 -0.8496,-3.48336"
     class="Note" />
  <path
     style="stroke-width:0.8496"
     id="path15994"
     d="m 878.2124,119.48964 c -1.52928,-2.80368 -4.75776,-4.33296 -8.66592,-4.33296 -2.88864,0 -6.03216,0.8496 -9.09072,2.46384 -5.60736,2.9736 -9.00576,7.98624 -9.00576,12.3192 0,1.18944 0.25488,2.37888 0.8496,3.48336 1.52928,2.80368 4.75776,4.248 8.66592,4.248 2.88864,0 6.03216,-0.76464 9.09072,-2.37888 5.60736,-2.9736 9.00576,-7.98624 9.00576,-12.3192 0,-1.18944 -0.25488,-2.37888 -0.8496,-3.48336"
     class="Note" />
  <path
     style="stroke-width:0.8496"
     id="path15996"
     d="m 909.2024,151.34964 c -1.52928,-2.80368 -4.75776,-4.33296 -8.66592,-4.33296 -2.88864,0 -6.03216,0.8496 -9.09072,2.46384 -5.60736,2.9736 -9.00576,7.98624 -9.00576,12.3192 0,1.18944 0.25488,2.37888 0.8496,3.48336 1.52928,2.80368 4.75776,4.248 8.66592,4.248 2.88864,0 6.03216,-0.76464 9.09072,-2.37888 5.60736,-2.9736 9.00576,-7.98624 9.00576,-12.3192 0,-1.18944 -0.25488,-2.37888 -0.8496,-3.48336"
     class="Note" />
  <path
     style="stroke-width:0.8496"
     id="path15998"
     d="m 947.0024,119.48964 c -1.52928,-2.80368 -4.75776,-4.33296 -8.66592,-4.33296 -2.88864,0 -6.03216,0.8496 -9.09072,2.46384 -5.60736,2.9736 -9.00576,7.98624 -9.00576,12.3192 0,1.18944 0.25488,2.37888 0.8496,3.48336 1.52928,2.80368 4.75776,4.248 8.66592,4.248 2.88864,0 6.03216,-0.76464 9.09072,-2.37888 5.60736,-2.9736 9.00576,-7.98624 9.00576,-12.3192 0,-1.18944 -0.25488,-2.37888 -0.8496,-3.48336"
     class="Note" />
  <path
     style="stroke-width:0.8496"
     id="path16000"
     d="m 977.9824,151.34964 c -1.52928,-2.80368 -4.75776,-4.33296 -8.66592,-4.33296 -2.88864,0 -6.03216,0.8496 -9.09072,2.46384 -5.60736,2.9736 -9.00576,7.98624 -9.00576,12.3192 0,1.18944 0.25488,2.37888 0.8496,3.48336 1.52928,2.80368 4.75776,4.248 8.66592,4.248 2.88864,0 6.03216,-0.76464 9.09072,-2.37888 5.60736,-2.9736 9.00576,-7.98624 9.00576,-12.3192 0,-1.18944 -0.25488,-2.37888 -0.8496,-3.48336"
     class="Note" />
  <path
     style="stroke-width:0.8496"
     id="path16002"
     d="m 1008.9724,151.34964 c -1.5293,-2.80368 -4.7578,-4.33296 -8.6659,-4.33296 -2.88866,0 -6.03218,0.8496 -9.09074,2.46384 -5.60736,2.9736 -9.00576,7.98624 -9.00576,12.3192 0,1.18944 0.25488,2.37888 0.8496,3.48336 1.52928,2.80368 4.75776,4.248 8.66592,4.248 2.88864,0 6.03216,-0.76464 9.09068,-2.37888 5.6074,-2.9736 9.0058,-7.98624 9.0058,-12.3192 0,-1.18944 -0.2549,-2.37888 -0.8496,-3.48336"
     class="Note" />
  <path
     style="stroke-width:0.8496"
     id="path16004"
     d="m 1070.9524,151.34964 c -1.5293,-2.80368 -4.7578,-4.33296 -8.6659,-4.33296 -2.8887,0 -6.0322,0.8496 -9.0907,2.46384 -5.6074,2.9736 -9.0058,7.98624 -9.0058,12.3192 0,1.18944 0.2549,2.37888 0.8496,3.48336 1.5293,2.80368 4.7578,4.248 8.6659,4.248 2.8887,0 6.0322,-0.76464 9.0907,-2.37888 5.6074,-2.9736 9.0058,-7.98624 9.0058,-12.3192 0,-1.18944 -0.2549,-2.37888 -0.8496,-3.48336"
     class="Note" />
  <path
     style="stroke-width:0.8496"
     id="path16006"
     d="m 1132.9324,151.34964 c -1.5293,-2.80368 -4.7578,-4.33296 -8.6659,-4.33296 -2.8887,0 -6.0322,0.8496 -9.0907,2.46384 -5.6074,2.9736 -9.0058,7.98624 -9.0058,12.3192 0,1.18944 0.2549,2.37888 0.8496,3.48336 1.5293,2.80368 4.7578,4.248 8.6659,4.248 2.8887,0 6.0322,-0.76464 9.0907,-2.37888 5.6074,-2.9736 9.0058,-7.98624 9.0058,-12.3192 0,-1.18944 -0.2549,-2.37888 -0.8496,-3.48336"
     class="Note" />
  <path
     style="stroke-width:0.8496"
     id="path16008"
     d="m 1252.6924,193.82964 c -1.5293,-2.80368 -4.7578,-4.33296 -8.6659,-4.33296 -2.8887,0 -6.0322,0.8496 -9.0907,2.46384 -5.6074,2.9736 -9.0058,7.98624 -9.0058,12.3192 0,1.18944 0.2549,2.37888 0.8496,3.48336 1.5293,2.80368 4.7578,4.248 8.6659,4.248 2.8887,0 6.0322,-0.76464 9.0907,-2.37888 5.6074,-2.9736 9.0058,-7.98624 9.0058,-12.3192 0,-1.18944 -0.2549,-2.37888 -0.8496,-3.48336"
     class="Note" />
  <path
     style="stroke-width:0.8496"
     id="path16010"
     d="m 1313.4224,193.82964 c -1.5293,-2.80368 -4.7578,-4.33296 -8.6659,-4.33296 -2.8887,0 -6.0322,0.8496 -9.0907,2.46384 -5.6074,2.9736 -9.0058,7.98624 -9.0058,12.3192 0,1.18944 0.2549,2.37888 0.8496,3.48336 1.5293,2.80368 4.7578,4.248 8.6659,4.248 2.8887,0 6.0322,-0.76464 9.0907,-2.37888 5.6074,-2.9736 9.0058,-7.98624 9.0058,-12.3192 0,-1.18944 -0.2549,-2.37888 -0.8496,-3.48336"
     class="Note" />
  <path
     style="stroke-width:0.8496"
     id="path16012"
     d="m 1374.1624,193.82964 c -1.5293,-2.80368 -4.7578,-4.33296 -8.6659,-4.33296 -2.8887,0 -6.0322,0.8496 -9.0907,2.46384 -5.6074,2.9736 -9.0058,7.98624 -9.0058,12.3192 0,1.18944 0.2549,2.37888 0.8496,3.48336 1.5293,2.80368 4.7578,4.248 8.6659,4.248 2.8887,0 6.0322,-0.76464 9.0907,-2.37888 5.6074,-2.9736 9.0058,-7.98624 9.0058,-12.3192 0,-1.18944 -0.2549,-2.37888 -0.8496,-3.48336"
     class="Note" />
  <path
     style="stroke-width:0.8496"
     id="path16014"
     d="m 1473.7024,193.82964 c -1.5293,-2.80368 -4.7578,-4.33296 -8.6659,-4.33296 -2.8887,0 -6.0322,0.8496 -9.0907,2.46384 -5.6074,2.9736 -9.0058,7.98624 -9.0058,12.3192 0,1.18944 0.2549,2.37888 0.8496,3.48336 1.5293,2.80368 4.7578,4.248 8.6659,4.248 2.8887,0 6.0322,-0.76464 9.0907,-2.37888 5.6074,-2.9736 9.0058,-7.98624 9.0058,-12.3192 0,-1.18944 -0.2549,-2.37888 -0.8496,-3.48336"
     class="Note" />
  <path
     style="stroke-width:0.8496"
     id="path16016"
     d="m 1565.1524,193.82964 c -1.5293,-2.80368 -4.7578,-4.33296 -8.6659,-4.33296 -2.8887,0 -6.0322,0.8496 -9.0907,2.46384 -5.6074,2.9736 -9.0058,7.98624 -9.0058,12.3192 0,1.18944 0.2549,2.37888 0.8496,3.48336 1.5293,2.80368 4.7578,4.248 8.6659,4.248 2.8887,0 6.0322,-0.76464 9.0907,-2.37888 5.6074,-2.9736 9.0058,-7.98624 9.0058,-12.3192 0,-1.18944 -0.2549,-2.37888 -0.8496,-3.48336"
     class="Note" />
  <path
     style="stroke-width:0.8496"
     id="path16018"
     d="m 1625.8824,193.82964 c -1.5293,-2.80368 -4.7578,-4.33296 -8.6659,-4.33296 -2.8887,0 -6.0322,0.8496 -9.0907,2.46384 -5.6074,2.9736 -9.0058,7.98624 -9.0058,12.3192 0,1.18944 0.2549,2.37888 0.8496,3.48336 1.5293,2.80368 4.7578,4.248 8.6659,4.248 2.8887,0 6.0322,-0.76464 9.0907,-2.37888 5.6074,-2.9736 9.0058,-7.98624 9.0058,-12.3192 0,-1.18944 -0.2549,-2.37888 -0.8496,-3.48336"
     class="Note" />
  <path
     style="stroke-width:0.8496"
     id="path16020"
     d="m 1741.8424,278.78964 c -1.5293,-2.80368 -4.7578,-4.33296 -8.6659,-4.33296 -2.8887,0 -6.0322,0.8496 -9.0907,2.46384 -5.6074,2.9736 -9.0058,7.98624 -9.0058,12.3192 0,1.18944 0.2549,2.37888 0.8496,3.48336 1.5293,2.80368 4.7578,4.248 8.6659,4.248 2.8887,0 6.0322,-0.76464 9.0907,-2.37888 5.6074,-2.9736 9.0058,-7.98624 9.0058,-12.3192 0,-1.18944 -0.2549,-2.37888 -0.8496,-3.48336"
     class="Note" />
  <path
     style="stroke-width:0.8496"
     id="path16022"
     d="m 1773.3224,108.86964 c -1.5293,-2.80368 -4.7578,-4.33296 -8.6659,-4.33296 -2.8887,0 -6.0322,0.8496 -9.0907,2.46384 -5.6074,2.9736 -9.0058,7.98624 -9.0058,12.3192 0,1.18944 0.2549,2.37888 0.8496,3.48336 1.5293,2.80368 4.7578,4.248 8.6659,4.248 2.8887,0 6.0322,-0.76464 9.0907,-2.37888 5.6074,-2.9736 9.0058,-7.98624 9.0058,-12.3192 0,-1.18944 -0.2549,-2.37888 -0.8496,-3.48336"
     class="Note" />
  <path
     style="stroke-width:0.8496"
     id="path16024"
     d="m 1818.5624,119.48964 c -1.5293,-2.80368 -4.7578,-4.33296 -8.6659,-4.33296 -2.8887,0 -6.0322,0.8496 -9.0907,2.46384 -5.6074,2.9736 -9.0058,7.98624 -9.0058,12.3192 0,1.18944 0.2549,2.37888 0.8496,3.48336 1.5293,2.80368 4.7578,4.248 8.6659,4.248 2.8887,0 6.0322,-0.76464 9.0907,-2.37888 5.6074,-2.9736 9.0058,-7.98624 9.0058,-12.3192 0,-1.18944 -0.2549,-2.37888 -0.8496,-3.48336"
     class="Note" />
  <path
     style="stroke-width:0.8496"
     id="path16026"
     d="m 1863.7924,130.10964 c -1.5293,-2.80368 -4.7578,-4.33296 -8.6659,-4.33296 -2.8887,0 -6.0322,0.8496 -9.0907,2.46384 -5.6074,2.9736 -9.0058,7.98624 -9.0058,12.3192 0,1.18944 0.2549,2.37888 0.8496,3.48336 1.5293,2.80368 4.7578,4.248 8.6659,4.248 2.8887,0 6.0322,-0.76464 9.0907,-2.37888 5.6074,-2.9736 9.0058,-7.98624 9.0058,-12.3192 0,-1.18944 -0.2549,-2.37888 -0.8496,-3.48336"
     class="Note" />
  <path
     style="stroke-width:0.8496"
     id="path16028"
     d="m 1901.5924,140.72964 c -1.5293,-2.80368 -4.7578,-4.33296 -8.6659,-4.33296 -2.8887,0 -6.0322,0.8496 -9.0907,2.46384 -5.6074,2.9736 -9.0058,7.98624 -9.0058,12.3192 0,1.18944 0.2549,2.37888 0.8496,3.48336 1.5293,2.80368 4.7578,4.248 8.6659,4.248 2.8887,0 6.0322,-0.76464 9.0907,-2.37888 5.6074,-2.9736 9.0058,-7.98624 9.0058,-12.3192 0,-1.18944 -0.2549,-2.37888 -0.8496,-3.48336"
     class="Note" />
  <path
     style="stroke-width:0.8496"
     id="path16030"
     d="m 1933.0824,151.34964 c -1.5293,-2.80368 -4.7578,-4.33296 -8.6659,-4.33296 -2.8887,0 -6.0322,0.8496 -9.0907,2.46384 -5.6074,2.9736 -9.0058,7.98624 -9.0058,12.3192 0,1.18944 0.2549,2.37888 0.8496,3.48336 1.5293,2.80368 4.7578,4.248 8.6659,4.248 2.8887,0 6.0322,-0.76464 9.0907,-2.37888 5.6074,-2.9736 9.0058,-7.98624 9.0058,-12.3192 0,-1.18944 -0.2549,-2.37888 -0.8496,-3.48336"
     class="Note" />
  <path
     style="stroke-width:0.8496"
     id="path16032"
     d="m 1964.5724,183.20964 c -1.5293,-2.80368 -4.7578,-4.33296 -8.6659,-4.33296 -2.8887,0 -6.0322,0.8496 -9.0907,2.46384 -5.6074,2.9736 -9.0058,7.98624 -9.0058,12.3192 0,1.18944 0.2549,2.37888 0.8496,3.48336 1.5293,2.80368 4.7578,4.248 8.6659,4.248 2.8887,0 6.0322,-0.76464 9.0907,-2.37888 5.6074,-2.9736 9.0058,-7.98624 9.0058,-12.3192 0,-1.18944 -0.2549,-2.37888 -0.8496,-3.48336"
     class="Note" />
  <path
     style="stroke-width:0.8496"
     id="path16034"
     d="m 1996.0524,119.48964 c -1.5293,-2.80368 -4.7578,-4.33296 -8.6659,-4.33296 -2.8887,0 -6.0322,0.8496 -9.0907,2.46384 -5.6074,2.9736 -9.0058,7.98624 -9.0058,12.3192 0,1.18944 0.2549,2.37888 0.8496,3.48336 1.5293,2.80368 4.7578,4.248 8.6659,4.248 2.8887,0 6.0322,-0.76464 9.0907,-2.37888 5.6074,-2.9736 9.0058,-7.98624 9.0058,-12.3192 0,-1.18944 -0.2549,-2.37888 -0.8496,-3.48336"
     class="Note" />
  <path
     style="stroke-width:0.8496"
     id="path16036"
     d="m 2041.2824,130.10964 c -1.5293,-2.80368 -4.7578,-4.33296 -8.6659,-4.33296 -2.8887,0 -6.0322,0.8496 -9.0907,2.46384 -5.6074,2.9736 -9.0058,7.98624 -9.0058,12.3192 0,1.18944 0.2549,2.37888 0.8496,3.48336 1.5293,2.80368 4.7578,4.248 8.6659,4.248 2.8887,0 6.0322,-0.76464 9.0907,-2.37888 5.6074,-2.9736 9.0058,-7.98624 9.0058,-12.3192 0,-1.18944 -0.2549,-2.37888 -0.8496,-3.48336"
     class="Note" />
  <path
     style="stroke-width:0.8496"
     id="path16038"
     d="m 2079.0924,140.72964 c -1.5293,-2.80368 -4.7578,-4.33296 -8.6659,-4.33296 -2.8887,0 -6.0322,0.8496 -9.0907,2.46384 -5.6074,2.9736 -9.0058,7.98624 -9.0058,12.3192 0,1.18944 0.2549,2.37888 0.8496,3.48336 1.5293,2.80368 4.7578,4.248 8.6659,4.248 2.8887,0 6.0322,-0.76464 9.0907,-2.37888 5.6074,-2.9736 9.0058,-7.98624 9.0058,-12.3192 0,-1.18944 -0.2549,-2.37888 -0.8496,-3.48336"
     class="Note" />
  <path
     style="stroke-width:0.8496"
     id="path16040"
     d="m 2110.5724,151.34964 c -1.5293,-2.80368 -4.7578,-4.33296 -8.6659,-4.33296 -2.8887,0 -6.0322,0.8496 -9.0907,2.46384 -5.6074,2.9736 -9.0058,7.98624 -9.0058,12.3192 0,1.18944 0.2549,2.37888 0.8496,3.48336 1.5293,2.80368 4.7578,4.248 8.6659,4.248 2.8887,0 6.0322,-0.76464 9.0907,-2.37888 5.6074,-2.9736 9.0058,-7.98624 9.0058,-12.3192 0,-1.18944 -0.2549,-2.37888 -0.8496,-3.48336"
     class="Note" />
  <path
     style="stroke-width:0.8496"
     id="path16042"
     d="m 2171.6524,161.96964 c -1.5293,-2.80368 -4.7578,-4.33296 -8.6659,-4.33296 -2.8887,0 -6.0322,0.8496 -9.0907,2.46384 -5.6074,2.9736 -9.0058,7.98624 -9.0058,12.3192 0,1.18944 0.2549,2.37888 0.8496,3.48336 1.5293,2.80368 4.7578,4.248 8.6659,4.248 2.8887,0 6.0322,-0.76464 9.0907,-2.37888 5.6074,-2.9736 9.0058,-7.98624 9.0058,-12.3192 0,-1.18944 -0.2549,-2.37888 -0.8496,-3.48336"
     class="Note" />
  <path
     style="stroke-width:0.8496"
     id="path16044"
     d="m 2260.4324,225.68964 c -1.5293,-2.80368 -4.7578,-4.33296 -8.6659,-4.33296 -2.8887,0 -6.0322,0.8496 -9.0907,2.46384 -5.6074,2.9736 -9.0058,7.98624 -9.0058,12.3192 0,1.18944 0.2549,2.37888 0.8496,3.48336 1.5293,2.80368 4.7578,4.248 8.6659,4.248 2.8887,0 6.0322,-0.76464 9.0907,-2.37888 5.6074,-2.9736 9.0058,-7.98624 9.0058,-12.3192 0,-1.18944 -0.2549,-2.37888 -0.8496,-3.48336"
     class="Note" />
  <path
     style="stroke-width:0.8496"
     id="path16048"
     d="m 24.2136,139.62516 h -6.11712 c -0.59472,0 -1.10448,0.50976 -1.10448,1.10448 v 77.3136 c 0,0.59472 0.50976,1.10448 1.10448,1.10448 h 6.11712 c 0.59472,0 1.10448,-0.50976 1.10448,-1.10448 v -77.3136 c 0,-0.59472 -0.50976,-1.10448 -1.10448,-1.10448 m 30.5856,43.24464 h -1.2744 c -1.95408,0 -3.3984,0.16992 -6.71184,2.20896 0,0 -1.86912,-3.73824 -4.6728,-5.69232 2.80368,-1.95408 4.6728,-5.69232 4.6728,-5.69232 3.31344,2.03904 4.75776,2.20896 6.71184,2.20896 h 1.2744 c 10.36512,0 15.46272,-9.60048 15.46272,-18.77616 0,-11.8944 -8.75088,-18.60624 -19.03104,-18.60624 -9.3456,0 -13.25376,4.6728 -13.25376,4.6728 -1.52928,1.86912 -2.20896,3.90816 -2.20896,5.77728 0,1.52928 0.4248,2.9736 1.2744,4.248 1.18944,1.6992 3.56832,2.63376 5.77728,2.63376 1.52928,0 2.9736,-0.4248 3.99312,-1.2744 1.44432,-1.2744 2.37888,-3.14352 2.37888,-5.18256 0,-1.18944 -0.33984,-2.37888 -0.93456,-3.48336 -1.35936,-2.46384 -3.90816,-2.80368 -5.26752,-2.80368 -0.50976,0 -0.93456,0.085 -0.93456,0.085 1.95408,-1.35936 4.58784,-2.124 7.2216,-2.124 2.37888,0 4.6728,0.59472 6.28704,1.78416 2.9736,2.20896 4.07808,6.88176 4.07808,12.99888 0,6.54192 -0.16992,16.05744 -7.6464,16.05744 -7.47648,0 -9.17568,-8.9208 -9.17568,-8.9208 0,0 0,-1.18944 -1.18944,-1.18944 -1.18944,0 -1.2744,1.18944 -1.2744,1.18944 0,0 -0.67968,4.33296 -2.9736,9.60048 -1.35936,3.14352 -3.3984,4.58784 -4.84272,5.18256 v -37.04256 c 0,-0.59472 -0.4248,-1.10448 -1.01952,-1.10448 -0.59472,0 -1.10448,0.50976 -1.10448,1.10448 v 77.3136 c 0,0.59472 0.50976,1.10448 1.10448,1.10448 0.59472,0 1.01952,-0.50976 1.01952,-1.10448 v -37.04256 c 1.44432,0.59472 3.48336,2.03904 4.84272,5.18256 2.29392,5.26752 2.9736,9.68544 2.9736,9.68544 0,0 0.08496,1.10448 1.2744,1.10448 1.18944,0 1.18944,-1.10448 1.18944,-1.10448 0,0 1.6992,-9.00576 9.17568,-9.00576 7.47648,0 7.6464,9.51552 7.6464,16.05744 0,6.11712 -1.10448,10.78992 -4.07808,12.99888 -1.61424,1.18944 -3.90816,1.78416 -6.28704,1.78416 -2.63376,0 -5.26752,-0.76464 -7.2216,-2.124 0,0 0.4248,0.085 0.93456,0.085 1.35936,0 3.90816,-0.33984 5.26752,-2.80368 0.59472,-1.10448 0.93456,-2.29392 0.93456,-3.48336 0,-2.03904 -0.93456,-3.90816 -2.37888,-5.18256 -1.01952,-0.8496 -2.46384,-1.2744 -3.99312,-1.2744 -2.20896,0 -4.58784,0.93456 -5.77728,2.63376 -0.8496,1.2744 -1.2744,2.71872 -1.2744,4.248 0,1.86912 0.67968,3.90816 2.20896,5.77728 0,0 3.90816,4.6728 13.25376,4.6728 10.28016,0 19.03104,-6.71184 19.03104,-18.60624 0,-9.17568 -5.0976,-18.77616 -15.46272,-18.77616"
     class="Clef" />
  <path
     style="stroke-width:0.67968"
     id="path16050"
     d="m 1397.8339,162.41143 c -5.1656,0 -9.3116,2.99059 -9.3796,2.99059 -3.9422,2.92263 -5.5054,6.38899 -6.1171,8.76787 -0.3399,1.22343 -0.4758,2.44685 -0.4758,3.60231 0,1.63123 0.2719,3.12653 0.8836,4.41792 0.8156,1.83513 2.3789,3.12653 4.4179,3.80621 0.8156,0.27187 1.6992,0.4078 2.5828,0.4078 1.4953,0 3.0585,-0.4078 4.3499,-1.15545 2.107,-1.15546 3.3984,-3.60231 3.3984,-6.25306 0,-2.37888 -1.2234,-4.55385 -3.2624,-5.84525 -1.4274,-0.95155 -2.7867,-1.22342 -3.9422,-1.22342 -0.8156,0 -1.5632,0.13594 -2.175,0.33984 -0.6796,0.27187 -1.8351,0.95155 -2.3788,1.42733 0.2039,-1.29139 1.0195,-3.26247 1.7671,-4.34995 0.7477,-1.08749 2.243,-2.44685 3.3984,-3.05856 1.6992,-0.95156 3.8742,-1.35936 6.2531,-1.35936 6.9327,0 10.3311,5.57337 10.3311,16.992 0,6.32102 -2.3789,12.37017 -4.4179,16.38028 -2.2429,4.48589 -5.2335,8.76788 -7.8843,11.14676 -7.0687,6.45696 -13.7295,9.51552 -13.7975,9.51552 0,0 -1.0195,0.61171 -0.7476,1.63123 0.2039,0.67968 0.8156,0.81561 1.2234,0.81561 0.068,0 0.2719,-0.068 0.3398,-0.068 0.068,0 7.8164,-3.1945 14.0014,-8.02023 3.4664,-2.51481 6.5929,-5.23353 9.3117,-8.15616 2.4468,-2.65075 4.5538,-5.50541 6.253,-8.36006 2.9906,-5.0976 4.6898,-10.39911 4.6898,-14.95296 0,-5.64135 -1.4953,-10.33114 -4.282,-13.66157 -3.1945,-3.80621 -8.0202,-5.77728 -14.3412,-5.77728 m 21.3419,8.63194 c 0,1.9031 1.4953,3.3984 3.2625,3.3984 1.7672,0 3.2625,-1.4953 3.2625,-3.3984 0,-1.90311 -1.4953,-3.46637 -3.2625,-3.46637 -1.7672,0 -3.2625,1.56326 -3.2625,3.46637 m 0,16.78809 c 0,1.90311 1.4953,3.46637 3.2625,3.46637 1.7672,0 3.2625,-1.56326 3.2625,-3.46637 0,-1.9031 -1.4953,-3.46637 -3.2625,-3.46637 -1.7672,0 -3.2625,1.56327 -3.2625,3.46637"
     class="Clef" />
  <path
     style="stroke-width:0.8496"
     id="path16056"
     d="m 132.53368,170.46564 c 0.50976,-0.085 0.93456,-0.67968 0.93456,-1.18944 v -5.01264 c 0,-0.67968 -0.50976,-1.18944 -1.18944,-1.18944 h -0.16992 l -2.80368,0.59472 V 151.0098 h -2.37888 v 13.1688 l -7.56144,1.52928 V 153.72852 H 116.986 v 12.48912 l -3.31344,0.67968 c -0.50976,0.085 -0.93456,0.67968 -0.93456,1.18944 v 0.16992 4.92768 -0.16992 c 0,0.67968 0.50976,1.18944 1.18944,1.18944 h 0.25488 l 2.80368,-0.59472 v 14.0184 l -3.31344,0.67968 c -0.50976,0.085 -0.93456,0.67968 -0.93456,1.18944 v 4.92768 c 0,0.67968 0.50976,1.18944 1.18944,1.18944 h 0.25488 l 2.80368,-0.59472 v 12.65904 h 2.37888 v -13.1688 l 7.56144,-1.52928 v 11.97936 h 2.37888 v -12.48912 l 3.22848,-0.59472 c 0.50976,-0.085 0.93456,-0.67968 0.93456,-1.18944 v -5.01264 c 0,-0.67968 -0.50976,-1.18944 -1.18944,-1.18944 h -0.16992 l -2.80368,0.59472 v -14.0184 l 3.22848,-0.59472 m -13.1688,16.73712 V 173.0994 l 7.56144,-1.52928 v 14.0184 l -7.56144,1.61424"
     class="KeySig" />
  <path
     style="stroke-width:0.8496"
     id="path16058"
     d="m 111.29368,212.94564 c 0.50976,-0.085 0.93456,-0.67968 0.93456,-1.18944 v -5.01264 c 0,-0.67968 -0.50976,-1.18944 -1.18944,-1.18944 h -0.16992 l -2.80368,0.59472 V 193.4898 h -2.37888 v 13.1688 l -7.56144,1.52928 V 196.20852 H 95.746 v 12.48912 l -3.31344,0.67968 c -0.50976,0.085 -0.93456,0.67968 -0.93456,1.18944 v 0.16992 4.92768 -0.16992 c 0,0.67968 0.50976,1.18944 1.18944,1.18944 h 0.25488 l 2.80368,-0.59472 v 14.0184 l -3.31344,0.67968 c -0.50976,0.085 -0.93456,0.67968 -0.93456,1.18944 v 4.92768 c 0,0.67968 0.50976,1.18944 1.18944,1.18944 h 0.25488 l 2.80368,-0.59472 v 12.65904 h 2.37888 v -13.1688 l 7.56144,-1.52928 v 11.97936 h 2.37888 v -12.48912 l 3.22848,-0.59472 c 0.50976,-0.085 0.93456,-0.67968 0.93456,-1.18944 v -5.01264 c 0,-0.67968 -0.50976,-1.18944 -1.18944,-1.18944 h -0.16992 l -2.80368,0.59472 v -14.0184 l 3.22848,-0.59472 m -13.1688,16.73712 V 215.5794 l 7.56144,-1.52928 v 14.0184 l -7.56144,1.61424"
     class="KeySig" />
  <path
     style="stroke-width:0.8496"
     id="path16064"
     d="m 487.3912,68.335238 v 8.15616 h 2.71872 v -8.15616 c 3.3984,-0.76464 5.9472,-4.33296 5.9472,-8.41104 0,-4.6728 -3.22848,-8.58096 -7.30656,-8.58096 -4.07808,0 -7.30656,3.90816 -7.30656,8.58096 0,4.07808 2.5488,7.6464 5.9472,8.41104 m 1.35936,-15.88752 c 1.44432,0 3.22848,3.22848 3.22848,7.2216 0,3.99312 -1.78416,7.30656 -3.22848,7.30656 -1.44432,0 -3.22848,-3.31344 -3.22848,-7.30656 0,-3.99312 1.78416,-7.2216 3.22848,-7.2216"
     class="Articulation" />
  <path
     style="stroke-width:0.8496"
     id="path16066"
     d="m 823.2572,82.305238 v 8.15616 h 2.71872 v -8.15616 c 3.3984,-0.76464 5.9472,-4.33296 5.9472,-8.41104 0,-4.6728 -3.22848,-8.58096 -7.30656,-8.58096 -4.07808,0 -7.30656,3.90816 -7.30656,8.58096 0,4.07808 2.5488,7.6464 5.9472,8.41104 m 1.35936,-15.88752 c 1.44432,0 3.22848,3.22848 3.22848,7.2216 0,3.99312 -1.78416,7.30656 -3.22848,7.30656 -1.44432,0 -3.22848,-3.31344 -3.22848,-7.30656 0,-3.99312 1.78416,-7.2216 3.22848,-7.2216"
     class="Articulation" />
  <path
     style="stroke-width:0.8496"
     id="path16068"
     d="m 1457.2672,139.57524 v 8.15616 h 2.7187 v -8.15616 c 3.3984,-0.76464 5.9472,-4.33296 5.9472,-8.41104 0,-4.6728 -3.2285,-8.58096 -7.3065,-8.58096 -4.0781,0 -7.3066,3.90816 -7.3066,8.58096 0,4.07808 2.5488,7.6464 5.9472,8.41104 m 1.3594,-15.88752 c 1.4443,0 3.2284,3.22848 3.2284,7.2216 0,3.99312 -1.7841,7.30656 -3.2284,7.30656 -1.4444,0 -3.2285,-3.31344 -3.2285,-7.30656 0,-3.99312 1.7841,-7.2216 3.2285,-7.2216"
     class="Articulation" />
  <path
     id="path16078"
     d="M 186.567,221.9514 H 395.88 v 10.62 H 186.567 v -10.62"
     fill-rule="evenodd"
     class="Beam" />
  <path
     id="path16080"
     d="m 517.046,253.7714 171.744,21.53 v 10.71 l -171.744,-21.54 v -10.7"
     fill-rule="evenodd"
     class="Beam" />
  <path
     id="path16082"
     d="m 517.046,237.8414 171.744,21.53 v 10.71 l -171.744,-21.54 v -10.7"
     fill-rule="evenodd"
     class="Beam" />
  <path
     id="path16084"
     d="m 782.66,237.8814 h 139.91 v 10.62 H 782.66 v -10.62"
     fill-rule="evenodd"
     class="Beam" />
  <path
     id="path16086"
     d="m 982.21,253.7614 157.28,21.56 v 10.72 l -157.28,-21.56 v -10.72"
     fill-rule="evenodd"
     class="Beam" />
  <path
     id="path16088"
     d="m 982.21,237.8314 157.28,21.56 v 10.72 l -157.28,-21.56 v -10.72"
     fill-rule="evenodd"
     class="Beam" />
  <path
     id="path16090"
     d="m 1225.93,296.2514 175.34,21.53 v 10.7 l -175.34,-21.53 v -10.7"
     fill-rule="evenodd"
     class="Beam" />
  <path
     id="path16092"
     d="m 1225.93,280.3214 175.34,21.53 v 10.7 l -175.34,-21.53 v -10.7"
     fill-rule="evenodd"
     class="Beam" />
  <path
     id="path16094"
     d="m 1446.94,296.2614 184.89,21.51 v 10.69 l -184.89,-21.51 v -10.69"
     fill-rule="evenodd"
     class="Beam" />
  <path
     id="path16096"
     d="m 1446.94,280.3314 184.89,21.51 v 10.69 l -184.89,-21.51 v -10.69"
     fill-rule="evenodd"
     class="Beam" />
  <path
     id="path16114"
     d="m 211.836,30.581398 254.548,21.43 v 10.66 l -254.548,-21.43 v -10.66"
     fill-rule="evenodd"
     class="Beam" />
  <path
     id="path16116"
     d="m 211.836,46.511398 254.548,21.43 v 10.66 l -254.548,-21.43 v -10.66"
     fill-rule="evenodd"
     class="Beam" />
  <path
     id="path16118"
     d="m 807.93,30.461398 170.9,21.53 v 10.71 l -170.9,-21.54 v -10.7"
     fill-rule="evenodd"
     class="Beam" />
  <path
     id="path16120"
     d="m 807.93,46.391398 170.9,21.53 v 10.71 l -170.9,-21.54 v -10.7"
     fill-rule="evenodd"
     class="Beam" />
  <path
     id="path16122"
     d="m 1007.48,89.201398 h 126.29 v 10.62 h -126.29 v -10.62"
     fill-rule="evenodd"
     class="Beam" />
  <path
     id="path16124"
     d="M 1251.2,131.6814 H 1375 v 10.62 h -123.8 v -10.62"
     fill-rule="evenodd"
     class="Beam" />
  <path
     id="path16126"
     d="m 1472.21,131.6814 h 154.52 v 10.62 h -154.52 v -10.62"
     fill-rule="evenodd"
     class="Beam" />
  <path
     id="path16128"
     d="m 1715.08,344.0314 193.58,-26.87 v 10.72 l -193.58,26.87 v -10.72"
     fill-rule="evenodd"
     class="Beam" />
  <path
     id="path16130"
     d="m 1715.08,328.1014 193.58,-26.87 v 10.72 l -193.58,26.87 v -10.72"
     fill-rule="evenodd"
     class="Beam" />
  <path
     id="path16132"
     d="m 1937.81,253.8014 209.42,-16.11 v 10.65 l -209.42,16.11 v -10.65"
     fill-rule="evenodd"
     class="Beam" />
  <path
     id="path16134"
     d="m 1937.81,237.8714 209.42,-16.11 v 10.65 l -209.42,16.11 v -10.65"
     fill-rule="evenodd"
     class="Beam" />
  <path
     style="stroke-width:0.8496"
     id="path16142"
     d="m 2282.7188,196.8882 c -0.085,-4.41792 -1.1045,-9.00576 -4.0781,-12.82896 -4.0781,-5.26752 -9.4305,-7.90128 -12.659,-12.57408 -3.2285,-4.6728 -4.5879,-13.76352 -4.5879,-13.76352 -0.085,-0.59472 -0.2548,-1.01952 -1.2744,-1.01952 -1.0195,0 -1.1894,0.4248 -1.1894,1.01952 v 13.50864 5.01264 9.94032 4.07808 c 0,0.16992 0.5947,0.67968 1.1894,0.8496 2.209,0.8496 8.9208,5.01264 14.0184,12.57408 3.0586,4.6728 3.5684,7.81632 3.5684,10.87488 v 0.93456 c -0.085,2.124 -0.5948,6.45696 -1.8692,9.85536 -0.2548,0.76464 -0.6796,1.86912 0.17,2.29392 0.8496,0.4248 1.3593,-0.50976 1.7841,-1.10448 1.5293,-2.46384 3.7383,-6.96672 3.7383,-11.80944 0,-2.37888 -0.17,-4.50288 -0.4248,-6.28704 0.8496,-3.05856 1.6142,-6.88176 1.6142,-10.87488 v -0.67968 m -6.0322,1.18944 c -2.2939,-2.9736 -4.8427,-5.69232 -9.0057,-9.85536 -3.3135,-3.31344 -4.8427,-6.20208 -5.4375,-8.41104 -0.085,-0.16992 -0.085,-0.50976 -0.1699,-0.76464 l 0.085,0.33984 c 3.8232,0.33984 9.0057,4.16304 12.2342,8.0712 3.8232,4.58784 4.5879,8.15616 4.5879,11.4696 0,0.8496 0,1.61424 -0.085,2.46384 -0.5098,-0.93456 -1.5293,-2.46384 -2.209,-3.31344"
     class="Hook" />
  <path
     id="path16154"
     d="m 206.153,76.691398 h -1.496 l -0.34,1.73 c -0.442,2.21 -0.714,2.42 -2.822,2.42 h -7.616 c 2.346,-2.45 3.128,-3.16 5.304,-4.86 3.094,-2.38 4.42,-3.57 5.202,-4.59 1.088,-1.5 1.632,-3 1.632,-4.66 0,-3.88 -3.196,-6.63 -7.65,-6.63 -4.318,0 -7.616,2.75 -7.616,6.39 0,2.14 1.088,3.6 2.686,3.6 1.258,0 2.108,-0.85 2.108,-2.07 0,-0.85 -0.476,-1.63 -1.19,-1.94 -1.258,-0.51 -1.326,-0.58 -1.326,-1.02 0,-0.51 0.34,-1.29 0.816,-1.87 0.85,-1.05 2.244,-1.63 3.842,-1.63 2.822,0 4.488,1.73 4.488,4.59 0,2.52 -1.19,4.79 -4.012,7.79 -2.516,2.65 -4.08,4.31 -4.658,4.96 -1.224,1.43 -1.836,2.21 -3.332,4.18 v 0.95 h 15.334 l 0.646,-7.34"
     class="Fingering" />
  <path
     id="path16156"
     d="m 531.226,119.6414 c 3.094,-1.12 4.522,-2.86 4.522,-5.58 0,-3.57 -2.72,-5.84 -6.936,-5.84 -3.978,0 -7.004,2.34 -7.004,5.44 0,1.39 0.918,2.38 2.244,2.38 1.19,0 2.006,-0.82 2.006,-2.04 0,-0.75 -0.272,-1.19 -1.054,-1.74 -0.34,-0.24 -0.442,-0.37 -0.442,-0.61 0,-0.95 1.972,-1.97 3.91,-1.97 2.448,0 3.74,1.53 3.74,4.42 0,3.16 -1.292,4.83 -3.706,4.83 -0.306,0 -0.884,-0.04 -1.394,-0.07 -0.272,-0.04 -0.544,-0.04 -0.748,-0.04 -0.714,0 -1.088,0.31 -1.088,0.92 0,0.58 0.34,0.85 1.088,0.85 0.204,0 0.476,0 0.782,-0.03 0.68,-0.04 1.224,-0.04 1.598,-0.04 2.516,0 3.876,1.81 3.876,5.17 0,3.54 -1.7,5.51 -4.76,5.51 -2.142,0 -4.454,-1.16 -4.454,-2.21 0,-0.31 0.068,-0.37 0.714,-0.75 0.952,-0.58 1.326,-1.15 1.326,-2 0,-1.23 -0.918,-2.15 -2.142,-2.15 -1.462,0 -2.414,1.19 -2.414,3 0,3.29 3.026,5.57 7.378,5.57 4.93,0 8.126,-2.72 8.126,-6.9 0,-3.2 -1.632,-5.13 -5.168,-6.12"
     class="Fingering" />
  <path
     id="path16158"
     d="m 803.6,98.411398 h -1.49 l -0.34,1.730002 c -0.44,2.21 -0.72,2.41 -2.82,2.41 h -7.62 c 2.35,-2.44 3.13,-3.160002 5.3,-4.860002 3.1,-2.38 4.42,-3.57 5.21,-4.59 1.08,-1.49 1.63,-2.99 1.63,-4.66 0,-3.87 -3.2,-6.63 -7.65,-6.63 -4.32,0 -7.62,2.76 -7.62,6.4 0,2.14 1.09,3.6 2.69,3.6 1.26,0 2.11,-0.85 2.11,-2.07 0,-0.85 -0.48,-1.64 -1.19,-1.94 -1.26,-0.51 -1.33,-0.58 -1.33,-1.02 0,-0.51 0.34,-1.29 0.82,-1.87 0.85,-1.06 2.24,-1.63 3.84,-1.63 2.82,0 4.49,1.73 4.49,4.59 0,2.51 -1.19,4.79 -4.02,7.78 -2.51,2.65 -4.08,4.32 -4.65,4.970002 -1.23,1.42 -1.84,2.21 -3.34,4.18 v 0.95 h 15.34 l 0.64,-7.340002"
     class="Fingering" />
  <path
     id="path16160"
     d="m 1463.32,329.2714 c 3.1,-1.12 4.53,-2.85 4.53,-5.57 0,-3.57 -2.72,-5.85 -6.94,-5.85 -3.98,0 -7,2.34 -7,5.44 0,1.39 0.91,2.38 2.24,2.38 1.19,0 2.01,-0.82 2.01,-2.04 0,-0.75 -0.28,-1.19 -1.06,-1.74 -0.34,-0.23 -0.44,-0.37 -0.44,-0.61 0,-0.95 1.97,-1.97 3.91,-1.97 2.45,0 3.74,1.53 3.74,4.42 0,3.16 -1.29,4.83 -3.71,4.83 -0.3,0 -0.88,-0.04 -1.39,-0.07 -0.27,-0.03 -0.54,-0.03 -0.75,-0.03 -0.71,0 -1.09,0.3 -1.09,0.91 0,0.58 0.34,0.85 1.09,0.85 0.21,0 0.48,0 0.78,-0.03 0.68,-0.03 1.23,-0.03 1.6,-0.03 2.52,0 3.88,1.8 3.88,5.16 0,3.54 -1.7,5.51 -4.76,5.51 -2.14,0 -4.46,-1.15 -4.46,-2.21 0,-0.3 0.07,-0.37 0.72,-0.75 0.95,-0.57 1.32,-1.15 1.32,-2 0,-1.23 -0.91,-2.14 -2.14,-2.14 -1.46,0 -2.41,1.19 -2.41,2.99 0,3.3 3.02,5.57 7.38,5.57 4.93,0 8.12,-2.72 8.12,-6.9 0,-3.19 -1.63,-5.13 -5.17,-6.12"
     class="Fingering" />
  <path
     id="path16162"
     d="m 1522.65,322.5014 c -1.16,1.4 -4.29,2.45 -7.41,2.52 v 1.46 h 2.99 c 1.97,0.04 2.17,0.24 2.11,2.14 v 13.64 c 0,1.73 0,1.8 -0.21,2.11 -0.27,0.34 -0.92,0.47 -2.82,0.47 h -2.21 v 1.6 h 13.46 v -1.6 h -1.87 c -1.9,0 -2.55,-0.13 -2.82,-0.47 -0.24,-0.31 -0.24,-0.34 -0.24,-2.11 v -14.04 c 0,-1.91 0.07,-3.51 0.24,-5.72 h -1.22"
     class="Fingering" />
  <path
     id="path16190"
     d="m 201.846,37.671398 c 3.094,-1.13 4.522,-2.86 4.522,-5.58 0,-3.57 -2.72,-5.85 -6.936,-5.85 -3.978,0 -7.004,2.35 -7.004,5.44 0,1.4 0.918,2.38 2.244,2.38 1.19,0 2.006,-0.81 2.006,-2.04 0,-0.75 -0.272,-1.19 -1.054,-1.73 -0.34,-0.24 -0.442,-0.38 -0.442,-0.61 0,-0.96 1.972,-1.98 3.91,-1.98 2.448,0 3.74,1.53 3.74,4.42 0,3.17 -1.292,4.83 -3.706,4.83 -0.306,0 -0.884,-0.03 -1.394,-0.07 -0.272,-0.03 -0.544,-0.03 -0.748,-0.03 -0.714,0 -1.088,0.31 -1.088,0.92 0,0.58 0.34,0.85 1.088,0.85 0.204,0 0.476,0 0.782,-0.04 0.68,-0.03 1.224,-0.03 1.598,-0.03 2.516,0 3.876,1.8 3.876,5.17 0,3.53 -1.7,5.51 -4.76,5.51 -2.142,0 -4.454,-1.16 -4.454,-2.21 0,-0.31 0.068,-0.38 0.714,-0.75 0.952,-0.58 1.326,-1.16 1.326,-2.01 0,-1.22 -0.918,-2.14 -2.142,-2.14 -1.462,0 -2.414,1.19 -2.414,2.99 0,3.3 3.026,5.58 7.378,5.58 4.93,0 8.126,-2.72 8.126,-6.9 0,-3.2 -1.632,-5.14 -5.168,-6.12"
     class="Fingering" />
  <path
     id="path16192"
     d="m 273.566,65.781398 c -1.156,1.39 -4.284,2.44 -7.412,2.51 v 1.46 h 2.992 c 1.972,0.04 2.176,0.24 2.108,2.15 v 13.63 c 0,1.73 0,1.8 -0.204,2.11 -0.272,0.34 -0.918,0.47 -2.822,0.47 h -2.21 v 1.6 h 13.464 v -1.6 h -1.87 c -1.904,0 -2.55,-0.13 -2.822,-0.47 -0.238,-0.31 -0.238,-0.34 -0.238,-2.11 v -14.04 c 0,-1.91 0.068,-3.5 0.238,-5.71 h -1.224"
     class="Fingering" />
  <path
     id="path16194"
     d="m 798.43,56.021398 c 3.09,-1.12 4.52,-2.86 4.52,-5.58 0,-3.57 -2.72,-5.85 -6.94,-5.85 -3.98,0 -7,2.35 -7,5.44 0,1.4 0.92,2.38 2.24,2.38 1.19,0 2.01,-0.81 2.01,-2.04 0,-0.74 -0.27,-1.19 -1.06,-1.73 -0.34,-0.24 -0.44,-0.37 -0.44,-0.61 0,-0.95 1.97,-1.97 3.91,-1.97 2.45,0 3.74,1.53 3.74,4.42 0,3.16 -1.29,4.82 -3.7,4.82 -0.31,0 -0.89,-0.03 -1.4,-0.06 -0.27,-0.04 -0.54,-0.04 -0.75,-0.04 -0.71,0 -1.08,0.31 -1.08,0.92 0,0.58 0.34,0.85 1.08,0.85 0.21,0 0.48,0 0.79,-0.03 0.68,-0.04 1.22,-0.04 1.59,-0.04 2.52,0 3.88,1.8 3.88,5.17 0,3.54 -1.7,5.51 -4.76,5.51 -2.14,0 -4.45,-1.16 -4.45,-2.21 0,-0.31 0.06,-0.38 0.71,-0.75 0.95,-0.58 1.33,-1.16 1.33,-2.01 0,-1.22 -0.92,-2.14 -2.15,-2.14 -1.46,0 -2.41,1.19 -2.41,2.99 0,3.3 3.03,5.58 7.38,5.58 4.93,0 8.12,-2.72 8.12,-6.9 0,-3.2 -1.63,-5.14 -5.16,-6.12"
     class="Fingering" />
  <path
     id="path16196"
     d="m 1727.83,129.2814 c -1.16,1.4 -4.29,2.45 -7.42,2.52 v 1.46 h 3 c 1.97,0.04 2.17,0.24 2.1,2.14 v 13.64 c 0,1.73 0,1.8 -0.2,2.11 -0.27,0.34 -0.92,0.47 -2.82,0.47 h -2.21 v 1.6 h 13.46 v -1.6 h -1.87 c -1.9,0 -2.55,-0.13 -2.82,-0.47 -0.24,-0.31 -0.24,-0.34 -0.24,-2.11 v -14.04 c 0,-1.91 0.07,-3.51 0.24,-5.72 h -1.22"
     class="Fingering" />
  <path
     id="path16198"
     d="m 1763.44,70.121398 -11.56,16.08 v 1.91 h 9.56 v 1.77 c 0,1.73 0,1.8 -0.21,2.1 -0.27,0.38 -0.92,0.48 -2.85,0.48 H 1758 v 1.6 h 9.93 v -1.6 h -0.14 c -1.93,0 -2.58,-0.1 -2.85,-0.48 -0.21,-0.3 -0.21,-0.34 -0.21,-2.1 v -1.77 h 4.12 v -1.91 h -4.12 v -9.28 c 0,-4.25 0,-4.35 0.17,-6.8 h -1.46 m -2,16.08 h -7.48 l 7.48,-10.3 v 10.3"
     class="Fingering" />
  <path
     id="path16200"
     d="m 1784.04,80.091398 -2.17,0.04 V 101.3114 l -2.79,-7.140002 -1.77,0.78 4.32,9.730002 h 2.62 l 4.35,-9.730002 -1.8,-0.78 -2.76,7.140002 V 80.091398 m 23.77,0.65 -11.56,16.08 v 1.91 h 9.55 v 1.760002 c 0,1.74 0,1.81 -0.2,2.11 -0.27,0.38 -0.92,0.48 -2.86,0.48 h -0.37 v 1.6 h 9.93 v -1.6 h -0.14 c -1.94,0 -2.58,-0.1 -2.86,-0.48 -0.2,-0.3 -0.2,-0.34 -0.2,-2.11 v -1.760002 h 4.11 v -1.91 h -4.11 v -9.28 c 0,-4.25 0,-4.35 0.17,-6.8 h -1.46 m -2.01,16.08 h -7.48 l 7.48,-10.3 v 10.3"
     class="Fingering" />
  <path
     style="stroke-width:0.8496"
     id="path16212"
     d="m 508.769,147.60999 c 0,2.34611 1.90189,4.248 4.248,4.248 2.34611,0 4.248,-1.90189 4.248,-4.248 0,-2.34611 -1.90189,-4.248 -4.248,-4.248 -2.34611,0 -4.248,1.90189 -4.248,4.248"
     class="NoteDot" />
</svg>
