<?xml version="1.0" encoding="UTF-8" standalone="no"?>
<svg
   xmlns:dc="http://purl.org/dc/elements/1.1/"
   xmlns:cc="http://creativecommons.org/ns#"
   xmlns:rdf="http://www.w3.org/1999/02/22-rdf-syntax-ns#"
   xmlns:svg="http://www.w3.org/2000/svg"
   xmlns="http://www.w3.org/2000/svg"
   xmlns:sodipodi="http://sodipodi.sourceforge.net/DTD/sodipodi-0.dtd"
   xmlns:inkscape="http://www.inkscape.org/namespaces/inkscape"
   inkscape:version="1.0 (4035a4f, 2020-05-01)"
   sodipodi:docname="snippet27.svg"
   id="svg31014"
   version="1.2"
   viewBox="0 0 2340 388.78128"
   height="388.78128"
   width="2340">
  <metadata
     id="metadata31020">
    <rdf:RDF>
      <cc:Work
         rdf:about="">
        <dc:format>image/svg+xml</dc:format>
        <dc:type
           rdf:resource="http://purl.org/dc/dcmitype/StillImage" />
        <dc:title>Batches2Partita5</dc:title>
      </cc:Work>
    </rdf:RDF>
  </metadata>
  <defs
     id="defs31018" />
  <sodipodi:namedview
     inkscape:current-layer="svg31014"
     inkscape:window-maximized="0"
     inkscape:window-y="23"
     inkscape:window-x="0"
     inkscape:cy="-1081.5487"
     inkscape:cx="1170"
     inkscape:zoom="0.15937679"
     showgrid="false"
     id="namedview31016"
     inkscape:window-height="838"
     inkscape:window-width="1011"
     inkscape:pageshadow="2"
     inkscape:pageopacity="0"
     guidetolerance="10"
     gridtolerance="10"
     objecttolerance="10"
     borderopacity="1"
     bordercolor="#666666"
     pagecolor="#ffffff" />
  <title
     id="title28364">Batches2Partita5</title>
  <desc
     id="desc28366">Generated by MuseScore 3.6.2</desc>
  <polyline
     transform="translate(-360,-3061.5487)"
     id="polyline28418"
     points="360,3270.6 2700,3270.6"
     stroke-linejoin="bevel"
     stroke-width="2.34"
     stroke="#000000"
     fill="none"
     class="StaffLines" />
  <polyline
     transform="translate(-360,-3061.5487)"
     id="polyline28420"
     points="360,3291.84 2700,3291.84"
     stroke-linejoin="bevel"
     stroke-width="2.34"
     stroke="#000000"
     fill="none"
     class="StaffLines" />
  <polyline
     transform="translate(-360,-3061.5487)"
     id="polyline28422"
     points="360,3313.08 2700,3313.08"
     stroke-linejoin="bevel"
     stroke-width="2.34"
     stroke="#000000"
     fill="none"
     class="StaffLines" />
  <polyline
     transform="translate(-360,-3061.5487)"
     id="polyline28424"
     points="360,3334.32 2700,3334.32"
     stroke-linejoin="bevel"
     stroke-width="2.34"
     stroke="#000000"
     fill="none"
     class="StaffLines" />
  <polyline
     transform="translate(-360,-3061.5487)"
     id="polyline28426"
     points="360,3355.56 2700,3355.56"
     stroke-linejoin="bevel"
     stroke-width="2.34"
     stroke="#000000"
     fill="none"
     class="StaffLines" />
  <path
     id="path28436"
     d="m 756.69,320.04128 c 36.08,35.08 113.96,42.13 155.75,14.1 -42.33,33.96 -120.21,26.91 -155.75,-14.1"
     fill-rule="evenodd"
     stroke-linejoin="round"
     stroke-linecap="round"
     stroke-width="1.49"
     stroke="#000000"
     class="SlurSegment" />
  <path
     id="path28438"
     d="m 1305.84,351.90128 c 35.67,34.91 112.77,41.98 154.2,14.14 -41.97,33.77 -119.07,26.69 -154.2,-14.14"
     fill-rule="evenodd"
     stroke-linejoin="round"
     stroke-linecap="round"
     stroke-width="1.49"
     stroke="#000000"
     class="SlurSegment" />
  <path
     id="path28500"
     d="m 577.675,124.47128 c 21.405,-23.67 60.85,-21.02 78.885,5.31 -18.435,-20.39 -57.879,-23.05 -78.885,-5.31"
     fill-rule="evenodd"
     stroke-linejoin="round"
     stroke-linecap="round"
     stroke-width="1.49"
     stroke="#000000"
     class="SlurSegment" />
  <path
     id="path28502"
     d="m 1129.93,140.40128 c 21.03,-23.31 59.69,-20.65 77.34,5.31 -18.05,-20.03 -56.72,-22.68 -77.34,-5.31"
     fill-rule="evenodd"
     stroke-linejoin="round"
     stroke-linecap="round"
     stroke-width="1.49"
     stroke="#000000"
     class="SlurSegment" />
  <path
     id="path28504"
     d="m 1688.8,161.64128 c 21.18,-23.46 60.17,-20.8 77.98,5.31 -18.21,-20.18 -57.2,-22.84 -77.98,-5.31"
     fill-rule="evenodd"
     stroke-linejoin="round"
     stroke-linecap="round"
     stroke-width="1.49"
     stroke="#000000"
     class="SlurSegment" />
  <polyline
     transform="translate(-360,-3061.5487)"
     id="polyline28566"
     points="883.839,3269.43 883.839,3356.72"
     stroke-linejoin="bevel"
     stroke-width="3.82"
     stroke="#000000"
     class="BarLine" />
  <polyline
     transform="translate(-360,-3061.5487)"
     id="polyline28568"
     points="1436.09,3269.43 1436.09,3356.72"
     stroke-linejoin="bevel"
     stroke-width="3.82"
     stroke="#000000"
     class="BarLine" />
  <polyline
     transform="translate(-360,-3061.5487)"
     id="polyline28570"
     points="1982.14,3269.43 1982.14,3356.72"
     stroke-linejoin="bevel"
     stroke-width="3.82"
     stroke="#000000"
     class="BarLine" />
  <polyline
     transform="translate(-360,-3061.5487)"
     id="polyline28572"
     points="2495.07,3269.43 2495.07,3356.72"
     stroke-linejoin="bevel"
     stroke-width="3.82"
     stroke="#000000"
     class="BarLine" />
  <path
     style="stroke-width:0.8496"
     id="path28594"
     d="m 983.92568,253.14552 c 0.50976,-0.085 0.93456,-0.67968 0.93456,-1.18944 v -5.01264 c 0,-0.67968 -0.50976,-1.18944 -1.18944,-1.18944 h -0.16992 l -2.80368,0.59472 v -12.65904 h -2.37888 v 13.1688 l -7.56144,1.52928 V 236.4084 H 968.378 v 12.48912 l -3.31344,0.67968 c -0.50976,0.085 -0.93456,0.67968 -0.93456,1.18944 v 0.16992 4.92768 -0.16992 c 0,0.67968 0.50976,1.18944 1.18944,1.18944 h 0.25488 l 2.80368,-0.59472 v 14.0184 l -3.31344,0.67968 c -0.50976,0.085 -0.93456,0.67968 -0.93456,1.18944 v 4.92768 c 0,0.67968 0.50976,1.18944 1.18944,1.18944 h 0.25488 l 2.80368,-0.59472 V 290.358 h 2.37888 v -13.1688 l 7.56144,-1.52928 v 11.97936 h 2.37888 v -12.48912 l 3.22848,-0.59472 c 0.50976,-0.085 0.93456,-0.67968 0.93456,-1.18944 v -5.01264 c 0,-0.67968 -0.50976,-1.18944 -1.18944,-1.18944 h -0.16992 l -2.80368,0.59472 v -14.0184 l 3.22848,-0.59472 m -13.1688,16.73712 v -14.10336 l 7.56144,-1.52928 v 14.0184 l -7.56144,1.61424"
     class="Accidental" />
  <path
     style="stroke-width:0.8496"
     id="path28596"
     d="m 1812.0757,231.90552 c 0.5097,-0.085 0.9345,-0.67968 0.9345,-1.18944 v -5.01264 c 0,-0.67968 -0.5097,-1.18944 -1.1894,-1.18944 h -0.1699 l -2.8037,0.59472 v -12.65904 h -2.3789 v 13.1688 l -7.5614,1.52928 V 215.1684 h -2.3789 v 12.48912 l -3.3134,0.67968 c -0.5098,0.085 -0.9346,0.67968 -0.9346,1.18944 v 0.16992 4.92768 -0.16992 c 0,0.67968 0.5098,1.18944 1.1894,1.18944 h 0.2549 l 2.8037,-0.59472 v 14.0184 l -3.3134,0.67968 c -0.5098,0.085 -0.9346,0.67968 -0.9346,1.18944 v 4.92768 c 0,0.67968 0.5098,1.18944 1.1894,1.18944 h 0.2549 l 2.8037,-0.59472 V 269.118 h 2.3789 v -13.1688 l 7.5614,-1.52928 v 11.97936 h 2.3789 v -12.48912 l 3.2285,-0.59472 c 0.5097,-0.085 0.9345,-0.67968 0.9345,-1.18944 v -5.01264 c 0,-0.67968 -0.5097,-1.18944 -1.1894,-1.18944 h -0.1699 l -2.8037,0.59472 v -14.0184 l 3.2285,-0.59472 m -13.1688,16.73712 v -14.10336 l 7.5614,-1.52928 v 14.0184 l -7.5614,1.61424"
     class="Accidental" />
  <path
     style="stroke-width:0.8496"
     id="path28650"
     d="m 1252.4334,225.3636 c -0.17,-0.16992 -0.4248,-0.25488 -0.6797,-0.25488 -0.085,0 -0.2549,0.085 -0.3399,0.085 l -10.7049,2.9736 v -14.868 h -2.3789 v 42.0552 c 0,0.67968 0.5098,1.10448 1.1894,1.10448 h 0.3399 l 10.7049,-2.9736 v 14.868 h 2.294 v -42.0552 c 0,-0.33984 -0.17,-0.76464 -0.4248,-0.93456 m -1.8692,21.07008 -9.8553,2.71872 V 235.219 l 9.8553,-2.80368 v 14.0184"
     class="Accidental" />
  <path
     style="stroke-width:0.8496"
     id="path28652"
     d="m 1656.6334,225.3636 c -0.17,-0.16992 -0.4248,-0.25488 -0.6797,-0.25488 -0.085,0 -0.2549,0.085 -0.3399,0.085 l -10.7049,2.9736 v -14.868 h -2.3789 v 42.0552 c 0,0.67968 0.5098,1.10448 1.1894,1.10448 h 0.3399 l 10.7049,-2.9736 v 14.868 h 2.294 v -42.0552 c 0,-0.33984 -0.17,-0.76464 -0.4248,-0.93456 m -1.8692,21.07008 -9.8553,2.71872 V 235.219 l 9.8553,-2.80368 v 14.0184"
     class="Accidental" />
  <polyline
     transform="translate(-360,-3061.5487)"
     id="polyline28818"
     points="2248.86,3249.36 2291.34,3249.36"
     stroke-linejoin="bevel"
     stroke-width="3.4"
     stroke="#000000"
     class="LedgerLine" />
  <polyline
     transform="translate(-360,-3061.5487)"
     id="polyline28820"
     points="2329.77,3249.36 2372.24,3249.36"
     stroke-linejoin="bevel"
     stroke-width="3.4"
     stroke="#000000"
     class="LedgerLine" />
  <polyline
     transform="translate(-360,-3061.5487)"
     id="polyline28828"
     points="2282.73,3337.17 2282.73,3403.35"
     stroke-linejoin="bevel"
     stroke-width="2.34"
     stroke="#000000"
     class="Stem" />
  <polyline
     transform="translate(-360,-3061.5487)"
     id="polyline28830"
     points="2338.37,3347.79 2338.37,3409.98"
     stroke-linejoin="bevel"
     stroke-width="2.34"
     stroke="#000000"
     class="Stem" />
  <polyline
     transform="translate(-360,-3061.5487)"
     id="polyline28832"
     points="2416.35,3358.41 2416.35,3419.28"
     stroke-linejoin="bevel"
     stroke-width="2.34"
     stroke="#000000"
     class="Stem" />
  <polyline
     transform="translate(-360,-3061.5487)"
     id="polyline28834"
     points="2523.64,3369.03 2523.64,3424.59"
     stroke-linejoin="bevel"
     stroke-width="2.34"
     stroke="#000000"
     class="Stem" />
  <polyline
     transform="translate(-360,-3061.5487)"
     id="polyline28908"
     points="555.859,3369.03 555.859,3419.28"
     stroke-linejoin="bevel"
     stroke-width="2.34"
     stroke="#000000"
     class="Stem" />
  <polyline
     transform="translate(-360,-3061.5487)"
     id="polyline28910"
     points="665.448,3294.69 665.448,3363.52"
     stroke-linejoin="bevel"
     stroke-width="2.34"
     stroke="#000000"
     class="Stem" />
  <polyline
     transform="translate(-360,-3061.5487)"
     id="polyline28912"
     points="799.078,3294.69 799.078,3366.18"
     stroke-linejoin="bevel"
     stroke-width="2.34"
     stroke="#000000"
     class="Stem" />
  <polyline
     transform="translate(-360,-3061.5487)"
     id="polyline28914"
     points="912.406,3294.69 912.406,3363.52"
     stroke-linejoin="bevel"
     stroke-width="2.34"
     stroke="#000000"
     class="Stem" />
  <polyline
     transform="translate(-360,-3061.5487)"
     id="polyline28916"
     points="1116.69,3294.69 1116.69,3360.87"
     stroke-linejoin="bevel"
     stroke-width="2.34"
     stroke="#000000"
     class="Stem" />
  <polyline
     transform="translate(-360,-3061.5487)"
     id="polyline28918"
     points="1193.55,3305.31 1193.55,3367.82"
     stroke-linejoin="bevel"
     stroke-width="2.34"
     stroke="#000000"
     class="Stem" />
  <polyline
     transform="translate(-360,-3061.5487)"
     id="polyline28920"
     points="1272.44,3315.93 1272.44,3374.96"
     stroke-linejoin="bevel"
     stroke-width="2.34"
     stroke="#000000"
     class="Stem" />
  <polyline
     transform="translate(-360,-3061.5487)"
     id="polyline28922"
     points="1351.33,3326.55 1351.33,3382.11"
     stroke-linejoin="bevel"
     stroke-width="2.34"
     stroke="#000000"
     class="Stem" />
  <polyline
     transform="translate(-360,-3061.5487)"
     id="polyline28924"
     points="1464.66,3315.93 1464.66,3379.45"
     stroke-linejoin="bevel"
     stroke-width="2.34"
     stroke="#000000"
     class="Stem" />
  <polyline
     transform="translate(-360,-3061.5487)"
     id="polyline28926"
     points="1665.84,3315.93 1665.84,3392.73"
     stroke-linejoin="bevel"
     stroke-width="2.34"
     stroke="#000000"
     class="Stem" />
  <polyline
     transform="translate(-360,-3061.5487)"
     id="polyline28928"
     points="1742.71,3326.55 1742.71,3399.78"
     stroke-linejoin="bevel"
     stroke-width="2.34"
     stroke="#000000"
     class="Stem" />
  <polyline
     transform="translate(-360,-3061.5487)"
     id="polyline28930"
     points="1820.04,3337.17 1820.04,3406.87"
     stroke-linejoin="bevel"
     stroke-width="2.34"
     stroke="#000000"
     class="Stem" />
  <polyline
     transform="translate(-360,-3061.5487)"
     id="polyline28932"
     points="1897.38,3347.79 1897.38,3413.97"
     stroke-linejoin="bevel"
     stroke-width="2.34"
     stroke="#000000"
     class="Stem" />
  <polyline
     transform="translate(-360,-3061.5487)"
     id="polyline28934"
     points="2023.53,3337.17 2023.53,3395.38"
     stroke-linejoin="bevel"
     stroke-width="2.34"
     stroke="#000000"
     class="Stem" />
  <polyline
     transform="translate(-360,-3061.5487)"
     id="polyline28936"
     points="2204.76,3299.74 2204.76,3275.91"
     stroke-linejoin="bevel"
     stroke-width="2.34"
     stroke="#000000"
     class="Stem" />
  <polyline
     transform="translate(-360,-3061.5487)"
     id="polyline28938"
     points="2282.73,3320.98 2282.73,3275.91"
     stroke-linejoin="bevel"
     stroke-width="2.34"
     stroke="#000000"
     class="Stem" />
  <polyline
     transform="translate(-360,-3061.5487)"
     id="polyline28940"
     points="2363.64,3310.36 2363.64,3275.91"
     stroke-linejoin="bevel"
     stroke-width="2.34"
     stroke="#000000"
     class="Stem" />
  <polyline
     transform="translate(-360,-3061.5487)"
     id="polyline28942"
     points="2441.62,3299.74 2441.62,3275.91"
     stroke-linejoin="bevel"
     stroke-width="2.34"
     stroke="#000000"
     class="Stem" />
  <polyline
     transform="translate(-360,-3061.5487)"
     id="polyline28944"
     points="2559.53,3289.12 2559.53,3230.77"
     stroke-linejoin="bevel"
     stroke-width="2.34"
     stroke="#000000"
     class="Stem" />
  <polyline
     transform="translate(-360,-3061.5487)"
     id="polyline29340"
     points="581.127,3289.12 581.127,3214.84"
     stroke-linejoin="bevel"
     stroke-width="2.34"
     stroke="#000000"
     class="Stem" />
  <polyline
     transform="translate(-360,-3061.5487)"
     id="polyline29342"
     points="690.717,3267.88 690.717,3214.84"
     stroke-linejoin="bevel"
     stroke-width="2.34"
     stroke="#000000"
     class="Stem" />
  <polyline
     transform="translate(-360,-3061.5487)"
     id="polyline29344"
     points="824.347,3267.88 824.347,3206.88"
     stroke-linejoin="bevel"
     stroke-width="2.34"
     stroke="#000000"
     class="Stem" />
  <polyline
     transform="translate(-360,-3061.5487)"
     id="polyline29346"
     points="937.675,3267.88 937.675,3206.88"
     stroke-linejoin="bevel"
     stroke-width="2.34"
     stroke="#000000"
     class="Stem" />
  <polyline
     transform="translate(-360,-3061.5487)"
     id="polyline29348"
     points="1016.56,3278.5 1016.56,3212.19"
     stroke-linejoin="bevel"
     stroke-width="2.34"
     stroke="#000000"
     class="Stem" />
  <polyline
     transform="translate(-360,-3061.5487)"
     id="polyline29350"
     points="1095.45,3278.5 1095.45,3222.81"
     stroke-linejoin="bevel"
     stroke-width="2.34"
     stroke="#000000"
     class="Stem" />
  <polyline
     transform="translate(-360,-3061.5487)"
     id="polyline29352"
     points="1376.6,3278.5 1376.6,3217.5"
     stroke-linejoin="bevel"
     stroke-width="2.34"
     stroke="#000000"
     class="Stem" />
  <polyline
     transform="translate(-360,-3061.5487)"
     id="polyline29354"
     points="1489.93,3278.5 1489.93,3222.81"
     stroke-linejoin="bevel"
     stroke-width="2.34"
     stroke="#000000"
     class="Stem" />
  <polyline
     transform="translate(-360,-3061.5487)"
     id="polyline29356"
     points="1567.27,3289.12 1567.27,3228.12"
     stroke-linejoin="bevel"
     stroke-width="2.34"
     stroke="#000000"
     class="Stem" />
  <polyline
     transform="translate(-360,-3061.5487)"
     id="polyline29358"
     points="1644.6,3299.74 1644.6,3238.74"
     stroke-linejoin="bevel"
     stroke-width="2.34"
     stroke="#000000"
     class="Stem" />
  <polyline
     transform="translate(-360,-3061.5487)"
     id="polyline29360"
     points="1922.65,3299.74 1922.65,3238.74"
     stroke-linejoin="bevel"
     stroke-width="2.34"
     stroke="#000000"
     class="Stem" />
  <polyline
     transform="translate(-360,-3061.5487)"
     id="polyline29362"
     points="2048.8,3299.74 2048.8,3244.05"
     stroke-linejoin="bevel"
     stroke-width="2.34"
     stroke="#000000"
     class="Stem" />
  <polyline
     transform="translate(-360,-3061.5487)"
     id="polyline29364"
     points="2126.78,3310.36 2126.78,3249.36"
     stroke-linejoin="bevel"
     stroke-width="2.34"
     stroke="#000000"
     class="Stem" />
  <polyline
     transform="translate(-360,-3061.5487)"
     id="polyline29366"
     points="2282.73,3236.02 2282.73,3180.33"
     stroke-linejoin="bevel"
     stroke-width="2.34"
     stroke="#000000"
     class="Stem" />
  <polyline
     transform="translate(-360,-3061.5487)"
     id="polyline29368"
     points="2363.64,3246.64 2363.64,3191.14"
     stroke-linejoin="bevel"
     stroke-width="2.34"
     stroke="#000000"
     class="Stem" />
  <polyline
     transform="translate(-360,-3061.5487)"
     id="polyline29370"
     points="2441.62,3257.26 2441.62,3201.57"
     stroke-linejoin="bevel"
     stroke-width="2.34"
     stroke="#000000"
     class="Stem" />
  <polyline
     transform="translate(-360,-3061.5487)"
     id="polyline29372"
     points="2548.91,3267.88 2548.91,3214.84"
     stroke-linejoin="bevel"
     stroke-width="2.34"
     stroke="#000000"
     class="Stem" />
  <path
     style="stroke-width:0.8496"
     id="path29380"
     d="m 1948.3324,265.88952 c -1.5293,-2.80368 -4.7578,-4.33296 -8.6659,-4.33296 -2.8887,0 -6.0322,0.8496 -9.0907,2.46384 -5.6074,2.9736 -9.0058,7.98624 -9.0058,12.3192 0,1.18944 0.2549,2.37888 0.8496,3.48336 1.5293,2.80368 4.7578,4.248 8.6659,4.248 2.8887,0 6.0322,-0.76464 9.0907,-2.37888 5.6074,-2.9736 9.0058,-7.98624 9.0058,-12.3192 0,-1.18944 -0.2549,-2.37888 -0.8496,-3.48336"
     class="Note" />
  <path
     style="stroke-width:0.8496"
     id="path29382"
     d="m 2003.9624,276.50952 c -1.5293,-2.80368 -4.7578,-4.33296 -8.6659,-4.33296 -2.8887,0 -6.0322,0.8496 -9.0907,2.46384 -5.6074,2.9736 -9.0058,7.98624 -9.0058,12.3192 0,1.18944 0.2549,2.37888 0.8496,3.48336 1.5293,2.80368 4.7578,4.248 8.6659,4.248 2.8887,0 6.0322,-0.76464 9.0907,-2.37888 5.6074,-2.9736 9.0058,-7.98624 9.0058,-12.3192 0,-1.18944 -0.2549,-2.37888 -0.8496,-3.48336"
     class="Note" />
  <path
     style="stroke-width:0.8496"
     id="path29384"
     d="m 2081.9424,287.12952 c -1.5293,-2.80368 -4.7578,-4.33296 -8.6659,-4.33296 -2.8887,0 -6.0322,0.8496 -9.0907,2.46384 -5.6074,2.9736 -9.0058,7.98624 -9.0058,12.3192 0,1.18944 0.2549,2.37888 0.8496,3.48336 1.5293,2.80368 4.7578,4.248 8.6659,4.248 2.8887,0 6.0322,-0.76464 9.0907,-2.37888 5.6074,-2.9736 9.0058,-7.98624 9.0058,-12.3192 0,-1.18944 -0.2549,-2.37888 -0.8496,-3.48336"
     class="Note" />
  <path
     style="stroke-width:0.8496"
     id="path29386"
     d="m 2189.2324,297.74952 c -1.5293,-2.80368 -4.7578,-4.33296 -8.6659,-4.33296 -2.8887,0 -6.0322,0.8496 -9.0907,2.46384 -5.6074,2.9736 -9.0058,7.98624 -9.0058,12.3192 0,1.18944 0.2549,2.37888 0.8496,3.48336 1.5293,2.80368 4.7578,4.248 8.6659,4.248 2.8887,0 6.0322,-0.76464 9.0907,-2.37888 5.6074,-2.9736 9.0058,-7.98624 9.0058,-12.3192 0,-1.18944 -0.2549,-2.37888 -0.8496,-3.48336"
     class="Note" />
  <path
     style="stroke-width:0.8496"
     id="path29490"
     d="m 221.4524,297.74952 c -1.52928,-2.80368 -4.75776,-4.33296 -8.66592,-4.33296 -2.88864,0 -6.03216,0.8496 -9.09072,2.46384 -5.60736,2.9736 -9.00576,7.98624 -9.00576,12.3192 0,1.18944 0.25488,2.37888 0.8496,3.48336 1.52928,2.80368 4.75776,4.248 8.66592,4.248 2.88864,0 6.03216,-0.76464 9.09072,-2.37888 5.60736,-2.9736 9.00576,-7.98624 9.00576,-12.3192 0,-1.18944 -0.25488,-2.37888 -0.8496,-3.48336"
     class="Note" />
  <path
     style="stroke-width:0.8496"
     id="path29492"
     d="m 331.0424,223.40952 c -1.52928,-2.80368 -4.75776,-4.33296 -8.66592,-4.33296 -2.88864,0 -6.03216,0.8496 -9.09072,2.46384 -5.60736,2.9736 -9.00576,7.98624 -9.00576,12.3192 0,1.18944 0.25488,2.37888 0.8496,3.48336 1.52928,2.80368 4.75776,4.248 8.66592,4.248 2.88864,0 6.03216,-0.76464 9.09072,-2.37888 5.60736,-2.9736 9.00576,-7.98624 9.00576,-12.3192 0,-1.18944 -0.25488,-2.37888 -0.8496,-3.48336"
     class="Note" />
  <path
     style="stroke-width:0.8496"
     id="path29494"
     d="m 464.6724,223.40952 c -1.52928,-2.80368 -4.75776,-4.33296 -8.66592,-4.33296 -2.88864,0 -6.03216,0.8496 -9.09072,2.46384 -5.60736,2.9736 -9.00576,7.98624 -9.00576,12.3192 0,1.18944 0.25488,2.37888 0.8496,3.48336 1.52928,2.80368 4.75776,4.248 8.66592,4.248 2.88864,0 6.03216,-0.76464 9.09072,-2.37888 5.60736,-2.9736 9.00576,-7.98624 9.00576,-12.3192 0,-1.18944 -0.25488,-2.37888 -0.8496,-3.48336"
     class="Note" />
  <path
     style="stroke-width:0.8496"
     id="path29496"
     d="m 578.0004,223.40952 c -1.52928,-2.80368 -4.75776,-4.33296 -8.66592,-4.33296 -2.88864,0 -6.03216,0.8496 -9.09072,2.46384 -5.60736,2.9736 -9.00576,7.98624 -9.00576,12.3192 0,1.18944 0.25488,2.37888 0.8496,3.48336 1.52928,2.80368 4.75776,4.248 8.66592,4.248 2.88864,0 6.03216,-0.76464 9.09072,-2.37888 5.60736,-2.9736 9.00576,-7.98624 9.00576,-12.3192 0,-1.18944 -0.25488,-2.37888 -0.8496,-3.48336"
     class="Note" />
  <path
     style="stroke-width:0.8496"
     id="path29498"
     d="m 782.2824,223.40952 c -1.52928,-2.80368 -4.75776,-4.33296 -8.66592,-4.33296 -2.88864,0 -6.03216,0.8496 -9.09072,2.46384 -5.60736,2.9736 -9.00576,7.98624 -9.00576,12.3192 0,1.18944 0.25488,2.37888 0.8496,3.48336 1.52928,2.80368 4.75776,4.248 8.66592,4.248 2.88864,0 6.03216,-0.76464 9.09072,-2.37888 5.60736,-2.9736 9.00576,-7.98624 9.00576,-12.3192 0,-1.18944 -0.25488,-2.37888 -0.8496,-3.48336"
     class="Note" />
  <path
     style="stroke-width:0.8496"
     id="path29500"
     d="m 859.1524,234.02952 c -1.52928,-2.80368 -4.75776,-4.33296 -8.66592,-4.33296 -2.88864,0 -6.03216,0.8496 -9.09072,2.46384 -5.60736,2.9736 -9.00576,7.98624 -9.00576,12.3192 0,1.18944 0.25488,2.37888 0.8496,3.48336 1.52928,2.80368 4.75776,4.248 8.66592,4.248 2.88864,0 6.03216,-0.76464 9.09072,-2.37888 5.60736,-2.9736 9.00576,-7.98624 9.00576,-12.3192 0,-1.18944 -0.25488,-2.37888 -0.8496,-3.48336"
     class="Note" />
  <path
     style="stroke-width:0.8496"
     id="path29502"
     d="m 938.0424,244.64952 c -1.52928,-2.80368 -4.75776,-4.33296 -8.66592,-4.33296 -2.88864,0 -6.03216,0.8496 -9.09072,2.46384 -5.60736,2.9736 -9.00576,7.98624 -9.00576,12.3192 0,1.18944 0.25488,2.37888 0.8496,3.48336 1.52928,2.80368 4.75776,4.248 8.66592,4.248 2.88864,0 6.03216,-0.76464 9.09072,-2.37888 5.60736,-2.9736 9.00576,-7.98624 9.00576,-12.3192 0,-1.18944 -0.25488,-2.37888 -0.8496,-3.48336"
     class="Note" />
  <path
     style="stroke-width:0.8496"
     id="path29504"
     d="m 1016.9224,255.26952 c -1.5293,-2.80368 -4.7578,-4.33296 -8.6659,-4.33296 -2.8887,0 -6.0322,0.8496 -9.09074,2.46384 -5.60736,2.9736 -9.00576,7.98624 -9.00576,12.3192 0,1.18944 0.25488,2.37888 0.8496,3.48336 1.52928,2.80368 4.75776,4.248 8.66592,4.248 2.88868,0 6.03218,-0.76464 9.09068,-2.37888 5.6074,-2.9736 9.0058,-7.98624 9.0058,-12.3192 0,-1.18944 -0.2549,-2.37888 -0.8496,-3.48336"
     class="Note" />
  <path
     style="stroke-width:0.8496"
     id="path29506"
     d="m 1130.2524,244.64952 c -1.5293,-2.80368 -4.7578,-4.33296 -8.6659,-4.33296 -2.8887,0 -6.0322,0.8496 -9.0907,2.46384 -5.6074,2.9736 -9.0058,7.98624 -9.0058,12.3192 0,1.18944 0.2549,2.37888 0.8496,3.48336 1.5293,2.80368 4.7578,4.248 8.6659,4.248 2.8887,0 6.0322,-0.76464 9.0907,-2.37888 5.6074,-2.9736 9.0058,-7.98624 9.0058,-12.3192 0,-1.18944 -0.2549,-2.37888 -0.8496,-3.48336"
     class="Note" />
  <path
     style="stroke-width:0.8496"
     id="path29508"
     d="m 1331.4324,244.64952 c -1.5293,-2.80368 -4.7578,-4.33296 -8.6659,-4.33296 -2.8887,0 -6.0322,0.8496 -9.0907,2.46384 -5.6074,2.9736 -9.0058,7.98624 -9.0058,12.3192 0,1.18944 0.2549,2.37888 0.8496,3.48336 1.5293,2.80368 4.7578,4.248 8.6659,4.248 2.8887,0 6.0322,-0.76464 9.0907,-2.37888 5.6074,-2.9736 9.0058,-7.98624 9.0058,-12.3192 0,-1.18944 -0.2549,-2.37888 -0.8496,-3.48336"
     class="Note" />
  <path
     style="stroke-width:0.8496"
     id="path29510"
     d="m 1408.3024,255.26952 c -1.5293,-2.80368 -4.7578,-4.33296 -8.6659,-4.33296 -2.8887,0 -6.0322,0.8496 -9.0907,2.46384 -5.6074,2.9736 -9.0058,7.98624 -9.0058,12.3192 0,1.18944 0.2549,2.37888 0.8496,3.48336 1.5293,2.80368 4.7578,4.248 8.6659,4.248 2.8887,0 6.0322,-0.76464 9.0907,-2.37888 5.6074,-2.9736 9.0058,-7.98624 9.0058,-12.3192 0,-1.18944 -0.2549,-2.37888 -0.8496,-3.48336"
     class="Note" />
  <path
     style="stroke-width:0.8496"
     id="path29512"
     d="m 1485.6424,265.88952 c -1.5293,-2.80368 -4.7578,-4.33296 -8.6659,-4.33296 -2.8887,0 -6.0322,0.8496 -9.0907,2.46384 -5.6074,2.9736 -9.0058,7.98624 -9.0058,12.3192 0,1.18944 0.2549,2.37888 0.8496,3.48336 1.5293,2.80368 4.7578,4.248 8.6659,4.248 2.8887,0 6.0322,-0.76464 9.0907,-2.37888 5.6074,-2.9736 9.0058,-7.98624 9.0058,-12.3192 0,-1.18944 -0.2549,-2.37888 -0.8496,-3.48336"
     class="Note" />
  <path
     style="stroke-width:0.8496"
     id="path29514"
     d="m 1562.9724,276.50952 c -1.5293,-2.80368 -4.7578,-4.33296 -8.6659,-4.33296 -2.8887,0 -6.0322,0.8496 -9.0907,2.46384 -5.6074,2.9736 -9.0058,7.98624 -9.0058,12.3192 0,1.18944 0.2549,2.37888 0.8496,3.48336 1.5293,2.80368 4.7578,4.248 8.6659,4.248 2.8887,0 6.0322,-0.76464 9.0907,-2.37888 5.6074,-2.9736 9.0058,-7.98624 9.0058,-12.3192 0,-1.18944 -0.2549,-2.37888 -0.8496,-3.48336"
     class="Note" />
  <path
     style="stroke-width:0.8496"
     id="path29516"
     d="m 1689.1224,265.88952 c -1.5293,-2.80368 -4.7578,-4.33296 -8.6659,-4.33296 -2.8887,0 -6.0322,0.8496 -9.0907,2.46384 -5.6074,2.9736 -9.0058,7.98624 -9.0058,12.3192 0,1.18944 0.2549,2.37888 0.8496,3.48336 1.5293,2.80368 4.7578,4.248 8.6659,4.248 2.8887,0 6.0322,-0.76464 9.0907,-2.37888 5.6074,-2.9736 9.0058,-7.98624 9.0058,-12.3192 0,-1.18944 -0.2549,-2.37888 -0.8496,-3.48336"
     class="Note" />
  <path
     style="stroke-width:0.8496"
     id="path29518"
     d="m 1845.0824,234.02952 c -1.5293,-2.80368 -4.7578,-4.33296 -8.6659,-4.33296 -2.8887,0 -6.0322,0.8496 -9.0907,2.46384 -5.6074,2.9736 -9.0058,7.98624 -9.0058,12.3192 0,1.18944 0.2549,2.37888 0.8496,3.48336 1.5293,2.80368 4.7578,4.248 8.6659,4.248 2.8887,0 6.0322,-0.76464 9.0907,-2.37888 5.6074,-2.9736 9.0058,-7.98624 9.0058,-12.3192 0,-1.18944 -0.2549,-2.37888 -0.8496,-3.48336"
     class="Note" />
  <path
     style="stroke-width:0.8496"
     id="path29520"
     d="m 1923.0624,255.26952 c -1.5293,-2.80368 -4.7578,-4.33296 -8.6659,-4.33296 -2.8887,0 -6.0322,0.8496 -9.0907,2.46384 -5.6074,2.9736 -9.0058,7.98624 -9.0058,12.3192 0,1.18944 0.2549,2.37888 0.8496,3.48336 1.5293,2.80368 4.7578,4.248 8.6659,4.248 2.8887,0 6.0322,-0.76464 9.0907,-2.37888 5.6074,-2.9736 9.0058,-7.98624 9.0058,-12.3192 0,-1.18944 -0.2549,-2.37888 -0.8496,-3.48336"
     class="Note" />
  <path
     style="stroke-width:0.8496"
     id="path29522"
     d="m 2003.9624,244.64952 c -1.5293,-2.80368 -4.7578,-4.33296 -8.6659,-4.33296 -2.8887,0 -6.0322,0.8496 -9.0907,2.46384 -5.6074,2.9736 -9.0058,7.98624 -9.0058,12.3192 0,1.18944 0.2549,2.37888 0.8496,3.48336 1.5293,2.80368 4.7578,4.248 8.6659,4.248 2.8887,0 6.0322,-0.76464 9.0907,-2.37888 5.6074,-2.9736 9.0058,-7.98624 9.0058,-12.3192 0,-1.18944 -0.2549,-2.37888 -0.8496,-3.48336"
     class="Note" />
  <path
     style="stroke-width:0.8496"
     id="path29524"
     d="m 2081.9424,234.02952 c -1.5293,-2.80368 -4.7578,-4.33296 -8.6659,-4.33296 -2.8887,0 -6.0322,0.8496 -9.0907,2.46384 -5.6074,2.9736 -9.0058,7.98624 -9.0058,12.3192 0,1.18944 0.2549,2.37888 0.8496,3.48336 1.5293,2.80368 4.7578,4.248 8.6659,4.248 2.8887,0 6.0322,-0.76464 9.0907,-2.37888 5.6074,-2.9736 9.0058,-7.98624 9.0058,-12.3192 0,-1.18944 -0.2549,-2.37888 -0.8496,-3.48336"
     class="Note" />
  <path
     style="stroke-width:0.8496"
     id="path29526"
     d="m 2199.8524,223.40952 c -1.5293,-2.80368 -4.7578,-4.33296 -8.6659,-4.33296 -2.8887,0 -6.0322,0.8496 -9.0907,2.46384 -5.6074,2.9736 -9.0058,7.98624 -9.0058,12.3192 0,1.18944 0.2549,2.37888 0.8496,3.48336 1.5293,2.80368 4.7578,4.248 8.6659,4.248 2.8887,0 6.0322,-0.76464 9.0907,-2.37888 5.6074,-2.9736 9.0058,-7.98624 9.0058,-12.3192 0,-1.18944 -0.2549,-2.37888 -0.8496,-3.48336"
     class="Note" />
  <path
     style="stroke-width:0.8496"
     id="path30006"
     d="m 221.4524,223.40952 c -1.52928,-2.80368 -4.75776,-4.33296 -8.66592,-4.33296 -2.88864,0 -6.03216,0.8496 -9.09072,2.46384 -5.60736,2.9736 -9.00576,7.98624 -9.00576,12.3192 0,1.18944 0.25488,2.37888 0.8496,3.48336 1.52928,2.80368 4.75776,4.248 8.66592,4.248 2.88864,0 6.03216,-0.76464 9.09072,-2.37888 5.60736,-2.9736 9.00576,-7.98624 9.00576,-12.3192 0,-1.18944 -0.25488,-2.37888 -0.8496,-3.48336"
     class="Note" />
  <path
     style="stroke-width:0.8496"
     id="path30008"
     d="m 221.4524,202.16952 c -1.52928,-2.80368 -4.75776,-4.33296 -8.66592,-4.33296 -2.88864,0 -6.03216,0.8496 -9.09072,2.46384 -5.60736,2.9736 -9.00576,7.98624 -9.00576,12.3192 0,1.18944 0.25488,2.37888 0.8496,3.48336 1.52928,2.80368 4.75776,4.248 8.66592,4.248 2.88864,0 6.03216,-0.76464 9.09072,-2.37888 5.60736,-2.9736 9.00576,-7.98624 9.00576,-12.3192 0,-1.18944 -0.25488,-2.37888 -0.8496,-3.48336"
     class="Note" />
  <path
     style="stroke-width:0.8496"
     id="path30010"
     d="m 331.0424,202.16952 c -1.52928,-2.80368 -4.75776,-4.33296 -8.66592,-4.33296 -2.88864,0 -6.03216,0.8496 -9.09072,2.46384 -5.60736,2.9736 -9.00576,7.98624 -9.00576,12.3192 0,1.18944 0.25488,2.37888 0.8496,3.48336 1.52928,2.80368 4.75776,4.248 8.66592,4.248 2.88864,0 6.03216,-0.76464 9.09072,-2.37888 5.60736,-2.9736 9.00576,-7.98624 9.00576,-12.3192 0,-1.18944 -0.25488,-2.37888 -0.8496,-3.48336"
     class="Note" />
  <path
     style="stroke-width:0.8496"
     id="path30012"
     d="m 464.6724,202.16952 c -1.52928,-2.80368 -4.75776,-4.33296 -8.66592,-4.33296 -2.88864,0 -6.03216,0.8496 -9.09072,2.46384 -5.60736,2.9736 -9.00576,7.98624 -9.00576,12.3192 0,1.18944 0.25488,2.37888 0.8496,3.48336 1.52928,2.80368 4.75776,4.248 8.66592,4.248 2.88864,0 6.03216,-0.76464 9.09072,-2.37888 5.60736,-2.9736 9.00576,-7.98624 9.00576,-12.3192 0,-1.18944 -0.25488,-2.37888 -0.8496,-3.48336"
     class="Note" />
  <path
     style="stroke-width:0.8496"
     id="path30014"
     d="m 578.0004,202.16952 c -1.52928,-2.80368 -4.75776,-4.33296 -8.66592,-4.33296 -2.88864,0 -6.03216,0.8496 -9.09072,2.46384 -5.60736,2.9736 -9.00576,7.98624 -9.00576,12.3192 0,1.18944 0.25488,2.37888 0.8496,3.48336 1.52928,2.80368 4.75776,4.248 8.66592,4.248 2.88864,0 6.03216,-0.76464 9.09072,-2.37888 5.60736,-2.9736 9.00576,-7.98624 9.00576,-12.3192 0,-1.18944 -0.25488,-2.37888 -0.8496,-3.48336"
     class="Note" />
  <path
     style="stroke-width:0.8496"
     id="path30016"
     d="m 656.8894,212.78952 c -1.52928,-2.80368 -4.75776,-4.33296 -8.66592,-4.33296 -2.88864,0 -6.03216,0.8496 -9.09072,2.46384 -5.60736,2.9736 -9.00576,7.98624 -9.00576,12.3192 0,1.18944 0.25488,2.37888 0.8496,3.48336 1.52928,2.80368 4.75776,4.248 8.66592,4.248 2.88864,0 6.03216,-0.76464 9.09072,-2.37888 5.60736,-2.9736 9.00576,-7.98624 9.00576,-12.3192 0,-1.18944 -0.25488,-2.37888 -0.8496,-3.48336"
     class="Note" />
  <path
     style="stroke-width:0.8496"
     id="path30018"
     d="m 735.7824,212.78952 c -1.52928,-2.80368 -4.75776,-4.33296 -8.66592,-4.33296 -2.88864,0 -6.03216,0.8496 -9.09072,2.46384 -5.60736,2.9736 -9.00576,7.98624 -9.00576,12.3192 0,1.18944 0.25488,2.37888 0.8496,3.48336 1.52928,2.80368 4.75776,4.248 8.66592,4.248 2.88864,0 6.03216,-0.76464 9.09072,-2.37888 5.60736,-2.9736 9.00576,-7.98624 9.00576,-12.3192 0,-1.18944 -0.25488,-2.37888 -0.8496,-3.48336"
     class="Note" />
  <path
     style="stroke-width:0.8496"
     id="path30020"
     d="m 1016.9224,212.78952 c -1.5293,-2.80368 -4.7578,-4.33296 -8.6659,-4.33296 -2.8887,0 -6.0322,0.8496 -9.09074,2.46384 -5.60736,2.9736 -9.00576,7.98624 -9.00576,12.3192 0,1.18944 0.25488,2.37888 0.8496,3.48336 1.52928,2.80368 4.75776,4.248 8.66592,4.248 2.88868,0 6.03218,-0.76464 9.09068,-2.37888 5.6074,-2.9736 9.0058,-7.98624 9.0058,-12.3192 0,-1.18944 -0.2549,-2.37888 -0.8496,-3.48336"
     class="Note" />
  <path
     style="stroke-width:0.8496"
     id="path30022"
     d="m 1130.2524,212.78952 c -1.5293,-2.80368 -4.7578,-4.33296 -8.6659,-4.33296 -2.8887,0 -6.0322,0.8496 -9.0907,2.46384 -5.6074,2.9736 -9.0058,7.98624 -9.0058,12.3192 0,1.18944 0.2549,2.37888 0.8496,3.48336 1.5293,2.80368 4.7578,4.248 8.6659,4.248 2.8887,0 6.0322,-0.76464 9.0907,-2.37888 5.6074,-2.9736 9.0058,-7.98624 9.0058,-12.3192 0,-1.18944 -0.2549,-2.37888 -0.8496,-3.48336"
     class="Note" />
  <path
     style="stroke-width:0.8496"
     id="path30024"
     d="m 1207.5924,223.40952 c -1.5293,-2.80368 -4.7578,-4.33296 -8.6659,-4.33296 -2.8887,0 -6.0322,0.8496 -9.0907,2.46384 -5.6074,2.9736 -9.0058,7.98624 -9.0058,12.3192 0,1.18944 0.2549,2.37888 0.8496,3.48336 1.5293,2.80368 4.7578,4.248 8.6659,4.248 2.8887,0 6.0322,-0.76464 9.0907,-2.37888 5.6074,-2.9736 9.0058,-7.98624 9.0058,-12.3192 0,-1.18944 -0.2549,-2.37888 -0.8496,-3.48336"
     class="Note" />
  <path
     style="stroke-width:0.8496"
     id="path30026"
     d="m 1284.9324,234.02952 c -1.5293,-2.80368 -4.7578,-4.33296 -8.6659,-4.33296 -2.8887,0 -6.0322,0.8496 -9.0907,2.46384 -5.6074,2.9736 -9.0058,7.98624 -9.0058,12.3192 0,1.18944 0.2549,2.37888 0.8496,3.48336 1.5293,2.80368 4.7578,4.248 8.6659,4.248 2.8887,0 6.0322,-0.76464 9.0907,-2.37888 5.6074,-2.9736 9.0058,-7.98624 9.0058,-12.3192 0,-1.18944 -0.2549,-2.37888 -0.8496,-3.48336"
     class="Note" />
  <path
     style="stroke-width:0.8496"
     id="path30028"
     d="m 1562.9724,234.02952 c -1.5293,-2.80368 -4.7578,-4.33296 -8.6659,-4.33296 -2.8887,0 -6.0322,0.8496 -9.0907,2.46384 -5.6074,2.9736 -9.0058,7.98624 -9.0058,12.3192 0,1.18944 0.2549,2.37888 0.8496,3.48336 1.5293,2.80368 4.7578,4.248 8.6659,4.248 2.8887,0 6.0322,-0.76464 9.0907,-2.37888 5.6074,-2.9736 9.0058,-7.98624 9.0058,-12.3192 0,-1.18944 -0.2549,-2.37888 -0.8496,-3.48336"
     class="Note" />
  <path
     style="stroke-width:0.8496"
     id="path30030"
     d="m 1689.1224,234.02952 c -1.5293,-2.80368 -4.7578,-4.33296 -8.6659,-4.33296 -2.8887,0 -6.0322,0.8496 -9.0907,2.46384 -5.6074,2.9736 -9.0058,7.98624 -9.0058,12.3192 0,1.18944 0.2549,2.37888 0.8496,3.48336 1.5293,2.80368 4.7578,4.248 8.6659,4.248 2.8887,0 6.0322,-0.76464 9.0907,-2.37888 5.6074,-2.9736 9.0058,-7.98624 9.0058,-12.3192 0,-1.18944 -0.2549,-2.37888 -0.8496,-3.48336"
     class="Note" />
  <path
     style="stroke-width:0.8496"
     id="path30032"
     d="m 1767.1024,244.64952 c -1.5293,-2.80368 -4.7578,-4.33296 -8.6659,-4.33296 -2.8887,0 -6.0322,0.8496 -9.0907,2.46384 -5.6074,2.9736 -9.0058,7.98624 -9.0058,12.3192 0,1.18944 0.2549,2.37888 0.8496,3.48336 1.5293,2.80368 4.7578,4.248 8.6659,4.248 2.8887,0 6.0322,-0.76464 9.0907,-2.37888 5.6074,-2.9736 9.0058,-7.98624 9.0058,-12.3192 0,-1.18944 -0.2549,-2.37888 -0.8496,-3.48336"
     class="Note" />
  <path
     style="stroke-width:0.8496"
     id="path30034"
     d="m 1923.0624,170.30952 c -1.5293,-2.80368 -4.7578,-4.33296 -8.6659,-4.33296 -2.8887,0 -6.0322,0.8496 -9.0907,2.46384 -5.6074,2.9736 -9.0058,7.98624 -9.0058,12.3192 0,1.18944 0.2549,2.37888 0.8496,3.48336 1.5293,2.80368 4.7578,4.248 8.6659,4.248 2.8887,0 6.0322,-0.76464 9.0907,-2.37888 5.6074,-2.9736 9.0058,-7.98624 9.0058,-12.3192 0,-1.18944 -0.2549,-2.37888 -0.8496,-3.48336"
     class="Note" />
  <path
     style="stroke-width:0.8496"
     id="path30036"
     d="m 2003.9624,180.92952 c -1.5293,-2.80368 -4.7578,-4.33296 -8.6659,-4.33296 -2.8887,0 -6.0322,0.8496 -9.0907,2.46384 -5.6074,2.9736 -9.0058,7.98624 -9.0058,12.3192 0,1.18944 0.2549,2.37888 0.8496,3.48336 1.5293,2.80368 4.7578,4.248 8.6659,4.248 2.8887,0 6.0322,-0.76464 9.0907,-2.37888 5.6074,-2.9736 9.0058,-7.98624 9.0058,-12.3192 0,-1.18944 -0.2549,-2.37888 -0.8496,-3.48336"
     class="Note" />
  <path
     style="stroke-width:0.8496"
     id="path30038"
     d="m 2081.9424,191.54952 c -1.5293,-2.80368 -4.7578,-4.33296 -8.6659,-4.33296 -2.8887,0 -6.0322,0.8496 -9.0907,2.46384 -5.6074,2.9736 -9.0058,7.98624 -9.0058,12.3192 0,1.18944 0.2549,2.37888 0.8496,3.48336 1.5293,2.80368 4.7578,4.248 8.6659,4.248 2.8887,0 6.0322,-0.76464 9.0907,-2.37888 5.6074,-2.9736 9.0058,-7.98624 9.0058,-12.3192 0,-1.18944 -0.2549,-2.37888 -0.8496,-3.48336"
     class="Note" />
  <path
     style="stroke-width:0.8496"
     id="path30040"
     d="m 2189.2324,202.16952 c -1.5293,-2.80368 -4.7578,-4.33296 -8.6659,-4.33296 -2.8887,0 -6.0322,0.8496 -9.0907,2.46384 -5.6074,2.9736 -9.0058,7.98624 -9.0058,12.3192 0,1.18944 0.2549,2.37888 0.8496,3.48336 1.5293,2.80368 4.7578,4.248 8.6659,4.248 2.8887,0 6.0322,-0.76464 9.0907,-2.37888 5.6074,-2.9736 9.0058,-7.98624 9.0058,-12.3192 0,-1.18944 -0.2549,-2.37888 -0.8496,-3.48336"
     class="Note" />
  <path
     style="stroke-width:0.8496"
     id="path30052"
     d="m 52.683696,333.74707 c 0.01699,-1.28281 -0.569317,-2.50632 -1.597248,-3.28795 -1.028016,-0.80712 -2.438352,-1.23192 -4.07808,-1.23192 -1.971072,0 -3.755232,0.6033 -5.021136,1.6992 -1.265904,1.09598 -1.979653,2.65933 -1.979653,4.38402 0,1.58875 0.526837,2.75262 1.792741,3.93356 -0.968544,0.39082 -1.6992,0.79871 -2.344981,1.29148 -1.308299,0.99403 -2.08152,2.46384 -2.08152,3.93356 0,2.7697 2.514901,4.62191 6.270133,4.62191 4.596336,0 7.807824,-2.5488 7.807824,-6.18517 0,-1.89461 -0.8496,-3.54275 -2.404368,-4.68971 2.480832,-1.01952 3.636288,-2.44693 3.636288,-4.46898 m -8.470597,13.5936 c -1.86912,0 -3.109451,-1.20643 -3.109451,-2.99909 0,-1.61424 0.781632,-2.98201 2.200464,-3.85718 0.305856,0.16142 0.38232,0.2039 0.671184,0.34842 1.011024,0.50976 1.011024,0.50976 1.223424,0.6372 h 0.0085 c 1.622736,0.92598 2.276843,1.80115 2.276843,3.0075 0,1.62282 -1.410251,2.86315 -3.27096,2.86315 m 3.203077,-10.20361 c -1.214928,-0.6372 -1.546357,-0.8242 -1.86912,-1.01111 l -0.08496,-0.0509 c -1.31688,-0.79871 -1.724688,-1.37644 -1.724688,-2.44685 0,-1.52928 1.172448,-2.59986 2.837664,-2.59986 1.682208,0 2.650667,1.01952 2.650667,2.78669 0,1.41042 -0.492683,2.31949 -1.809563,3.32202 m 7.111152,-8.74247 -0.33984,-0.17833 v 1.85204 l 0.101952,0.068 c 1.31688,0.93456 1.886112,1.60583 2.455259,2.84616 0.815701,1.75867 1.248997,4.22251 1.248997,7.11965 0,2.65075 -0.348336,4.8852 -1.036597,6.62688 -0.611627,1.59733 -1.23192,2.37888 -2.667659,3.37291 l -0.101952,0.068 v 1.85221 l 0.33984,-0.1785 c 1.852128,-0.96846 2.88864,-1.76717 4.112064,-3.186 2.08152,-2.44685 3.186,-5.40337 3.186,-8.56397 0.0085,-2.90563 -0.968544,-5.7348 -2.769696,-8.01164 -1.265904,-1.63132 -2.489328,-2.63376 -4.528368,-3.68735 M 70.81416,267.7842 c -1.045008,-4.6134 -3.287952,-7.85879 -3.95064,-8.74246 -2.710224,-3.62779 -6.11712,-6.04915 -10.101744,-7.19611 -2.642256,-0.75606 -5.191056,-0.8496 -7.247088,-0.69667 -0.883669,-5.1061 -1.733269,-10.10166 -2.50632,-14.73198 4.63032,-5.24212 7.705872,-10.1698 9.64296,-13.82308 2.948112,-5.59028 3.925152,-9.48145 3.967632,-9.65137 1.461312,-4.4265 1.767168,-10.96842 0.832608,-17.94355 -0.858096,-6.41448 -2.63376,-12.11538 -4.63032,-14.87658 -0.875088,-1.21493 -1.767168,-1.83514 -2.650752,-1.83514 -1.036597,0 -3.169008,1.05351 -5.624437,3.4069 -1.95408,1.86912 -4.732187,5.17406 -6.907163,10.28016 -2.5488,5.99826 -2.727216,14.06088 -2.429856,19.77019 0.322848,6.17659 1.265819,11.0109 1.2744,11.05338 0.01699,0.0764 0.237888,1.35078 0.620208,3.53425 -0.195408,0.19541 -0.399312,0.38232 -0.611712,0.58631 -0.883584,0.8496 -1.894608,1.81806 -3.067056,2.99051 -0.730741,0.73074 -1.537861,1.50379 -2.387461,2.3279 -7.17912,6.91583 -18.045419,17.38282 -18.045419,33.65266 0,3.99312 0.76464,7.74837 2.276911,11.15532 1.350898,3.05856 3.304978,5.84526 5.794289,8.28361 6.567408,6.41448 15.564672,9.14161 21.562848,9.00576 2.50632,-0.0595 4.740768,-0.26346 6.771312,-0.64578 1.554768,8.15616 2.523312,14.12885 2.557296,18.66571 0.03398,5.5309 -1.367856,8.90381 -4.681296,11.2572 -2.064528,1.46981 -4.451904,2.27693 -7.085664,2.40437 -2.200464,0.10195 -4.12056,-0.29736 -5.335488,-0.64561 h -0.0085 c 0,0 -0.246384,-0.068 -0.25488,-0.23789 -0.0085,-0.15301 0.288864,-0.19549 0.29736,-0.19549 h 0.01691 c 1.631317,-0.37374 4.664389,-1.41875 6.66936,-4.22243 1.52928,-2.14099 2.268517,-6.06623 0.705253,-9.41365 -0.943056,-2.03046 -3.075552,-4.53678 -7.850304,-4.9191 -2.115589,-0.16992 -4.044096,0.26329 -5.743296,1.28281 -1.537776,0.91757 -2.812176,2.31091 -3.704256,4.01011 -2.090016,3.99312 -1.6992,8.86133 0.959963,12.12388 1.622821,1.98798 3.840277,3.50876 6.448549,4.46881 l -0.03407,0.017 -0.220811,0.11903 c -1.852128,0.96846 -2.88864,1.76717 -4.112149,3.186 -2.03904,2.37888 -3.168923,5.40337 -3.186,8.5299 -0.0084,2.91413 0.968629,5.75179 2.769781,8.0373 1.299888,1.65672 2.523312,2.65925 4.519872,3.70417 l 0.33984,0.17842 v -1.85213 l -0.09346,-0.068 c -1.31688,-0.93456 -1.894608,-1.59716 -2.46384,-2.84616 -0.815616,-1.75867 -1.248997,-4.23092 -1.248997,-7.15363 0,-2.63376 0.348421,-4.85971 1.036597,-6.60139 0.59472,-1.55477 1.223424,-2.3449 2.667744,-3.37283 l 0.101952,-0.0681 v -1.77558 c 1.410336,0.50976 2.922624,0.85801 4.528368,1.02793 0.72216,0.0765 1.44432,0.11045 2.16648,0.11045 3.763728,0 7.501968,-1.01952 10.53504,-2.89714 3.109536,-2.18347 4.910688,-5.56488 5.488416,-10.34804 0.475776,-3.94223 0.144432,-8.96328 -1.045008,-15.81964 -0.305856,-1.77566 -0.76464,-4.34995 -1.325376,-7.54436 4.8852,-1.63132 8.419536,-4.66439 11.622528,-9.63455 2.795099,-4.88518 3.593808,-10.06774 2.37888,-15.41167 M 45.147659,201.5748 c 1.512373,-4.87662 3.840277,-7.63782 5.530981,-9.10763 1.4868,-1.29139 2.88864,-1.89469 3.670272,-1.89469 0.118944,0 0.220896,0.017 0.305856,0.0425 0.390731,0.11894 0.841104,0.6033 1.240331,1.34245 1.962661,3.6447 1.333957,9.3456 0.195493,13.11774 -1.384933,4.58784 -3.86568,9.36259 -11.34216,17.52725 -0.144432,-0.94306 -0.280453,-1.83514 -0.407893,-2.66766 -1.062,-7.04327 -0.790043,-13.21986 0.80712,-18.35994 m -3.3984,88.45194 c -3.942059,-1.0366 -7.705787,-3.1606 -10.900283,-6.1342 -1.112976,-1.04492 -2.701728,-2.8886 -3.95064,-5.76878 -1.164037,-2.6847 -1.724705,-5.59881 -1.682225,-8.64891 0.05949,-3.98457 1.172465,-8.07963 3.304961,-12.1493 2.480747,-4.74077 6.355008,-9.43897 11.503584,-13.96734 1.23192,-1.08757 2.395872,-2.17506 3.491856,-3.26255 0.645696,3.6193 1.350864,7.60392 2.098427,11.74997 -3.27096,1.07899 -7.30656,3.75523 -9.948731,8.55547 -3.007669,5.59039 -2.88864,10.27174 -2.268432,13.22833 0.798624,3.78918 2.948112,6.98373 5.887643,8.75932 0.790213,0.47586 4.299061,2.28551 5.86224,1.79274 0.314437,-0.10195 0.543829,-0.28895 0.662773,-0.56923 0.433296,-0.99412 -0.433296,-1.53786 -1.758672,-2.35344 -0.50976,-0.31437 -1.078992,-0.67122 -1.6992,-1.12149 -2.820672,-2.11545 -4.052592,-5.89617 -3.14352,-9.61749 0.492768,-2.03904 1.580256,-3.87414 3.14352,-5.31846 1.418832,-1.31692 3.152016,-2.25148 5.173979,-2.79522 1.733269,9.54954 3.48336,19.02254 4.876789,26.1252 0.110448,0.58622 0.229392,1.15554 0.33984,1.72477 -3.721248,0.79013 -7.417008,0.71358 -10.993909,-0.22939 m 21.8772,-8.66592 c -0.993947,2.70164 -3.083963,6.1596 -7.442411,7.90969 -0.05947,-0.35683 -0.12744,-0.72216 -0.195408,-1.08749 -1.308384,-7.45097 -2.956608,-16.78802 -4.621824,-26.3376 8.79336,-0.39931 12.421152,5.92177 13.177296,10.02532 0.399227,2.14101 0.390816,5.91318 -0.917653,9.49008"
     class="Clef" />
  <path
     style="stroke-width:0.8496"
     id="path30064"
     d="m 133.62868,231.90552 c 0.50976,-0.085 0.93456,-0.67968 0.93456,-1.18944 v -5.01264 c 0,-0.67968 -0.50976,-1.18944 -1.18944,-1.18944 h -0.16992 l -2.80368,0.59472 v -12.65904 h -2.37888 v 13.1688 l -7.56144,1.52928 V 215.1684 H 118.081 v 12.48912 l -3.31344,0.67968 c -0.50976,0.085 -0.93456,0.67968 -0.93456,1.18944 v 0.16992 4.92768 -0.16992 c 0,0.67968 0.50976,1.18944 1.18944,1.18944 h 0.25488 l 2.80368,-0.59472 v 14.0184 l -3.31344,0.67968 c -0.50976,0.085 -0.93456,0.67968 -0.93456,1.18944 v 4.92768 c 0,0.67968 0.50976,1.18944 1.18944,1.18944 h 0.25488 l 2.80368,-0.59472 V 269.118 h 2.37888 v -13.1688 l 7.56144,-1.52928 v 11.97936 h 2.37888 v -12.48912 l 3.22848,-0.59472 c 0.50976,-0.085 0.93456,-0.67968 0.93456,-1.18944 v -5.01264 c 0,-0.67968 -0.50976,-1.18944 -1.18944,-1.18944 h -0.16992 l -2.80368,0.59472 v -14.0184 l 3.22848,-0.59472 m -13.1688,16.73712 v -14.10336 l 7.56144,-1.52928 v 14.0184 l -7.56144,1.61424"
     class="KeySig" />
  <path
     style="stroke-width:0.8496"
     id="path30066"
     d="m 112.38868,200.04552 c 0.50976,-0.085 0.93456,-0.67968 0.93456,-1.18944 v -5.01264 c 0,-0.67968 -0.50976,-1.18944 -1.18944,-1.18944 h -0.16992 l -2.80368,0.59472 v -12.65904 h -2.37888 v 13.1688 l -7.56144,1.52928 V 183.3084 H 96.841 v 12.48912 l -3.31344,0.67968 c -0.50976,0.085 -0.93456,0.67968 -0.93456,1.18944 v 0.16992 4.92768 -0.16992 c 0,0.67968 0.50976,1.18944 1.18944,1.18944 h 0.25488 l 2.80368,-0.59472 v 14.0184 l -3.31344,0.67968 c -0.50976,0.085 -0.93456,0.67968 -0.93456,1.18944 v 4.92768 c 0,0.67968 0.50976,1.18944 1.18944,1.18944 h 0.25488 L 96.841,224.59896 V 237.258 h 2.37888 v -13.1688 l 7.56144,-1.52928 v 11.97936 h 2.37888 v -12.48912 l 3.22848,-0.59472 c 0.50976,-0.085 0.93456,-0.67968 0.93456,-1.18944 v -5.01264 c 0,-0.67968 -0.50976,-1.18944 -1.18944,-1.18944 h -0.16992 l -2.80368,0.59472 v -14.0184 l 3.22848,-0.59472 m -13.1688,16.73712 v -14.10336 l 7.56144,-1.52928 v 14.0184 l -7.56144,1.61424"
     class="KeySig" />
  <path
     style="stroke-width:0.8496"
     id="path30094"
     d="m 1908.7472,114.28512 v 8.15616 h 2.7187 v -8.15616 c 3.3984,-0.76464 5.9472,-4.33296 5.9472,-8.41104 0,-4.6728 -3.2285,-8.58096 -7.3065,-8.58096 -4.0781,0 -7.3066,3.90816 -7.3066,8.58096 0,4.07808 2.5488,7.6464 5.9472,8.41104 m 1.3594,-15.88752 c 1.4443,0 3.2284,3.22848 3.2284,7.2216 0,3.99312 -1.7841,7.30656 -3.2284,7.30656 -1.4444,0 -3.2285,-3.31344 -3.2285,-7.30656 0,-3.99312 1.7841,-7.2216 3.2285,-7.2216"
     class="Articulation" />
  <path
     style="stroke-width:0.8496"
     id="path30190"
     d="m 195.125,110.81128 h 2.37888 V 93.64936 h 22.00464 v 17.16192 h 2.37888 V 87.10744 c 0,-0.67968 -0.50976,-1.18944 -1.18944,-1.18944 h -24.38352 c -0.67968,0 -1.18944,1.18944 -1.18944,1.18944 v 23.70384"
     class="Articulation" />
  <path
     style="stroke-width:0.8496"
     id="path30192"
     d="m 304.715,110.81128 h 2.37888 V 93.64936 h 22.00464 v 17.16192 h 2.37888 V 87.10744 c 0,-0.67968 -0.50976,-1.18944 -1.18944,-1.18944 h -24.38352 c -0.67968,0 -1.18944,1.18944 -1.18944,1.18944 v 23.70384"
     class="Articulation" />
  <path
     style="stroke-width:0.8496"
     id="path30194"
     d="m 645.4002,92.37512 v 8.15616 h 2.71872 v -8.15616 c 3.3984,-0.76464 5.9472,-4.33296 5.9472,-8.41104 0,-4.6728 -3.22848,-8.58096 -7.30656,-8.58096 -4.07808,0 -7.30656,3.90816 -7.30656,8.58096 0,4.07808 2.5488,7.6464 5.9472,8.41104 m 1.35936,-15.88752 c 1.44432,0 3.22848,3.22848 3.22848,7.2216 0,3.99312 -1.78416,7.30656 -3.22848,7.30656 -1.44432,0 -3.22848,-3.31344 -3.22848,-7.30656 0,-3.99312 1.78416,-7.2216 3.22848,-7.2216"
     class="Articulation" />
  <path
     style="stroke-width:0.8496"
     id="path30196"
     d="M 733.7796,90.14976 C 733.60968,89.89488 733.09992,89.64 732.76008,89.64 h -1.18944 c -0.4248,0 -0.93456,0.33984 -1.10448,0.76464 l -7.6464,21.40992 -7.6464,-21.40992 C 715.00344,89.97984 714.49368,89.64 714.06888,89.64 h -1.18944 c -0.67968,0 -1.18944,0.50976 -1.18944,1.18944 0,0.08496 0.085,0.33984 0.085,0.4248 l 9.94032,26.7624 c 0.16992,0.4248 0.67968,0.76464 1.10448,0.76464 0.4248,0 0.93456,-0.33984 1.10448,-0.76464 l 9.94032,-26.7624 c 0,-0.08496 0.085,-0.33984 0.085,-0.4248 0,-0.16992 -0.085,-0.50976 -0.16992,-0.67968"
     class="Articulation" />
  <path
     style="stroke-width:0.8496"
     id="path30198"
     d="m 1001.6872,125.60512 v 8.15616 h 2.7187 v -8.15616 c 3.3984,-0.76464 5.9472,-4.33296 5.9472,-8.41104 0,-4.6728 -3.2285,-8.58096 -7.3065,-8.58096 -4.07812,0 -7.3066,3.90816 -7.3066,8.58096 0,4.07808 2.5488,7.6464 5.9472,8.41104 m 1.3594,-15.88752 c 1.4443,0 3.2284,3.22848 3.2284,7.2216 0,3.99312 -1.7841,7.30656 -3.2284,7.30656 -1.4444,0 -3.22852,-3.31344 -3.22852,-7.30656 0,-3.99312 1.78412,-7.2216 3.22852,-7.2216"
     class="Articulation" />
  <path
     style="stroke-width:0.8496"
     id="path30200"
     d="m 1014.9296,63.59976 c -0.1699,-0.25488 -0.6797,-0.50976 -1.0195,-0.50976 h -1.1895 c -0.4248,0 -0.9345,0.33984 -1.1044,0.76464 l -7.6464,21.40992 -7.64644,-21.40992 C 996.15344,63.42984 995.64368,63.09 995.21888,63.09 h -1.18944 c -0.67968,0 -1.18944,0.50976 -1.18944,1.18944 0,0.08496 0.085,0.33984 0.085,0.4248 l 9.9403,26.7624 c 0.1699,0.4248 0.6797,0.76464 1.1045,0.76464 0.4248,0 0.9345,-0.33984 1.1044,-0.76464 l 9.9404,-26.7624 c 0,-0.08496 0.085,-0.33984 0.085,-0.4248 0,-0.16992 -0.085,-0.50976 -0.1699,-0.67968"
     class="Articulation" />
  <path
     style="stroke-width:0.8496"
     id="path30202"
     d="m 1116.8672,116.60512 v 8.15616 h 2.7187 v -8.15616 c 3.3984,-0.76464 5.9472,-4.33296 5.9472,-8.41104 0,-4.6728 -3.2285,-8.58096 -7.3065,-8.58096 -4.0781,0 -7.3066,3.90816 -7.3066,8.58096 0,4.07808 2.5488,7.6464 5.9472,8.41104 m 1.3594,-15.88752 c 1.4443,0 3.2284,3.22848 3.2284,7.2216 0,3.99312 -1.7841,7.30656 -3.2284,7.30656 -1.4444,0 -3.2285,-3.31344 -3.2285,-7.30656 0,-3.99312 1.7841,-7.2216 3.2285,-7.2216"
     class="Articulation" />
  <path
     style="stroke-width:0.8496"
     id="path30204"
     d="m 1193.2772,107.45512 v 8.15616 h 2.7187 v -8.15616 c 3.3984,-0.76464 5.9472,-4.33296 5.9472,-8.41104 0,-4.6728 -3.2285,-8.58096 -7.3065,-8.58096 -4.0781,0 -7.3066,3.90816 -7.3066,8.58096 0,4.07808 2.5488,7.6464 5.9472,8.41104 m 1.3594,-15.88752 c 1.4443,0 3.2284,3.22848 3.2284,7.2216 0,3.99312 -1.7841,7.30656 -3.2284,7.30656 -1.4444,0 -3.2285,-3.31344 -3.2285,-7.30656 0,-3.99312 1.7841,-7.2216 3.2285,-7.2216"
     class="Articulation" />
  <path
     style="stroke-width:0.8496"
     id="path30206"
     d="m 1268.7672,151.45512 v 8.15616 h 2.7187 v -8.15616 c 3.3984,-0.76464 5.9472,-4.33296 5.9472,-8.41104 0,-4.6728 -3.2285,-8.58096 -7.3065,-8.58096 -4.0781,0 -7.3066,3.90816 -7.3066,8.58096 0,4.07808 2.5488,7.6464 5.9472,8.41104 m 1.3594,-15.88752 c 1.4443,0 3.2284,3.22848 3.2284,7.2216 0,3.99312 -1.7841,7.30656 -3.2284,7.30656 -1.4444,0 -3.2285,-3.31344 -3.2285,-7.30656 0,-3.99312 1.7841,-7.2216 3.2285,-7.2216"
     class="Articulation" />
  <path
     style="stroke-width:0.8496"
     id="path30208"
     d="m 1282.9396,84.83976 c -0.1699,-0.25488 -0.6797,-0.50976 -1.0195,-0.50976 h -1.1895 c -0.4248,0 -0.9345,0.33984 -1.1044,0.76464 l -7.6464,21.40992 -7.6464,-21.40992 c -0.17,-0.4248 -0.6797,-0.76464 -1.1045,-0.76464 h -1.1895 c -0.6796,0 -1.1894,0.50976 -1.1894,1.18944 0,0.08496 0.085,0.33984 0.085,0.4248 l 9.9403,26.7624 c 0.1699,0.4248 0.6797,0.76464 1.1045,0.76464 0.4248,0 0.9345,-0.33984 1.1044,-0.76464 l 9.9404,-26.7624 c 0,-0.08496 0.085,-0.33984 0.085,-0.4248 0,-0.16992 -0.085,-0.50976 -0.1699,-0.67968"
     class="Articulation" />
  <path
     style="stroke-width:0.8496"
     id="path30210"
     d="m 1560.9796,106.07976 c -0.1699,-0.25488 -0.6797,-0.50976 -1.0195,-0.50976 h -1.1895 c -0.4248,0 -0.9345,0.33984 -1.1044,0.76464 l -7.6464,21.40992 -7.6464,-21.40992 c -0.17,-0.4248 -0.6797,-0.76464 -1.1045,-0.76464 h -1.1895 c -0.6796,0 -1.1894,0.50976 -1.1894,1.18944 0,0.085 0.085,0.33984 0.085,0.4248 l 9.9403,26.7624 c 0.1699,0.4248 0.6797,0.76464 1.1045,0.76464 0.4248,0 0.9345,-0.33984 1.1044,-0.76464 l 9.9404,-26.7624 c 0,-0.085 0.085,-0.33984 0.085,-0.4248 0,-0.16992 -0.085,-0.50976 -0.1699,-0.67968"
     class="Articulation" />
  <path
     style="stroke-width:0.8496"
     id="path30212"
     d="m 1674.8172,121.24512 v 8.15616 h 2.7187 v -8.15616 c 3.3984,-0.76464 5.9472,-4.33296 5.9472,-8.41104 0,-4.6728 -3.2285,-8.58096 -7.3065,-8.58096 -4.0781,0 -7.3066,3.90816 -7.3066,8.58096 0,4.07808 2.5488,7.6464 5.9472,8.41104 m 1.3594,-15.88752 c 1.4443,0 3.2284,3.22848 3.2284,7.2216 0,3.99312 -1.7841,7.30656 -3.2284,7.30656 -1.4444,0 -3.2285,-3.31344 -3.2285,-7.30656 0,-3.99312 1.7841,-7.2216 3.2285,-7.2216"
     class="Articulation" />
  <path
     style="stroke-width:0.8496"
     id="path30214"
     d="m 1752.7872,126.55512 v 8.15616 h 2.7187 v -8.15616 c 3.3984,-0.76464 5.9472,-4.33296 5.9472,-8.41104 0,-4.6728 -3.2285,-8.58096 -7.3065,-8.58096 -4.0781,0 -7.3066,3.90816 -7.3066,8.58096 0,4.07808 2.5488,7.6464 5.9472,8.41104 m 1.3594,-15.88752 c 1.4443,0 3.2284,3.22848 3.2284,7.2216 0,3.99312 -1.7841,7.30656 -3.2284,7.30656 -1.4444,0 -3.2285,-3.31344 -3.2285,-7.30656 0,-3.99312 1.7841,-7.2216 3.2285,-7.2216"
     class="Articulation" />
  <path
     style="stroke-width:0.8496"
     id="path30216"
     d="M 1921.0696,30.40976 C 1920.8997,30.15488 1920.3899,29.9 1920.0501,29.9 h -1.1895 c -0.4248,0 -0.9345,0.33984 -1.1044,0.76464 l -7.6464,21.40992 -7.6464,-21.40992 c -0.17,-0.4248 -0.6797,-0.76464 -1.1045,-0.76464 h -1.1895 c -0.6796,0 -1.1894,0.50976 -1.1894,1.18944 0,0.08496 0.085,0.33984 0.085,0.4248 l 9.9403,26.7624 c 0.1699,0.4248 0.6797,0.76464 1.1045,0.76464 0.4248,0 0.9345,-0.33984 1.1044,-0.76464 l 9.9404,-26.7624 c 0,-0.08496 0.085,-0.33984 0.085,-0.4248 0,-0.16992 -0.085,-0.50976 -0.1699,-0.67968"
     class="Articulation" />
  <path
     style="stroke-width:0.8496"
     id="path30218"
     d="m 1977.64,26.19128 h 2.3789 V 9.02936 h 22.0046 v 17.16192 h 2.3789 V 2.48744 c 0,-0.67968 -0.5098,-1.18944 -1.1894,-1.18944 h -24.3836 c -0.6796,0 -1.1894,1.18944 -1.1894,1.18944 v 23.70384"
     class="Articulation" />
  <path
     style="stroke-width:0.8496"
     id="path30220"
     d="M 2079.9496,0.50976 C 2079.7797,0.25488 2079.2699,0 2078.9301,0 h -1.1895 c -0.4248,0 -0.9345,0.33984 -1.1044,0.76464 l -7.6464,21.40992 -7.6464,-21.40992 C 2061.1734,0.33984 2060.6637,0 2060.2389,0 h -1.1895 c -0.6796,0 -1.1894,0.50976 -1.1894,1.18944 0,0.08496 0.085,0.33984 0.085,0.4248 l 9.9403,26.7624 c 0.1699,0.4248 0.6797,0.76464 1.1045,0.76464 0.4248,0 0.9345,-0.33984 1.1044,-0.76464 l 9.9404,-26.7624 c 0,-0.08496 0.085,-0.33984 0.085,-0.4248 0,-0.16992 -0.085,-0.50976 -0.1699,-0.67968"
     class="Articulation" />
  <path
     id="path30222"
     d="m 1921.57,336.45128 135.95,16.21 v 10.69 l -135.95,-16.21 v -10.69"
     fill-rule="evenodd"
     class="Beam" />
  <path
     id="path30224"
     d="m 2162.47,357.53128 79.79,-21.88 v 11.01 l -79.79,21.88 v -11.01"
     fill-rule="evenodd"
     class="Beam" />
  <path
     id="path30232"
     d="m 755.52,293.98128 236.98,21.45 v 10.67 l -236.98,-21.45 v -10.67"
     fill-rule="evenodd"
     class="Beam" />
  <path
     id="path30234"
     d="m 1304.67,325.84128 233.88,21.46 v 10.66 l -233.88,-21.45 v -10.67"
     fill-rule="evenodd"
     class="Beam" />
  <path
     id="path30236"
     d="m 1843.59,209.05128 h 239.2 v 10.62 h -239.2 v -10.62"
     fill-rule="evenodd"
     class="Beam" />
  <path
     id="path30452"
     d="m 576.507,139.85128 81.223,5.46 v 10.65 l -81.223,-5.47 v -10.64"
     fill-rule="evenodd"
     class="Beam" />
  <path
     id="path30454"
     d="m 1128.76,155.77128 79.68,5.47 v 10.65 l -79.68,-5.47 v -10.65"
     fill-rule="evenodd"
     class="Beam" />
  <path
     id="path30456"
     d="m 1687.63,177.01128 80.32,5.47 v 10.65 l -80.32,-5.47 v -10.65"
     fill-rule="evenodd"
     class="Beam" />
  <path
     id="path30458"
     d="m 1921.57,113.11128 161.22,21.55 v 10.71 l -161.22,-21.55 v -10.71"
     fill-rule="evenodd"
     class="Beam" />
  <path
     style="stroke-width:0.8496"
     id="path30474"
     d="m 440.034,304.97112 c 0,-0.16992 0.76464,-3.05856 0.8496,-3.31344 0.085,-0.33984 1.61424,-5.18256 4.75776,-10.02528 2.29392,-3.56832 10.36512,-14.0184 10.11024,-14.0184 0,0 6.28704,-8.0712 6.71184,-19.03104 v -1.95408 c 0,-5.18256 -0.67968,-12.48912 -3.65328,-19.88064 -0.33984,-0.8496 -0.67968,-1.6992 -1.61424,-1.35936 -0.93456,0.33984 -0.67968,1.35936 -0.4248,2.29392 1.52928,5.9472 2.37888,12.06432 2.37888,18.18144 0,7.13664 -2.5488,10.70496 -4.07808,13.33872 -5.60736,9.43056 -12.91392,14.0184 -16.48224,15.20784 -0.4248,0.16992 -0.67968,0.50976 -0.67968,0.93456 v 5.26752 13.93344 c 0,0.59472 0.50976,1.10448 1.10448,1.10448 0.4248,0 0.93456,-0.33984 1.01952,-0.67968"
     class="Hook" />
  <path
     style="stroke-width:0.8496"
     id="path30488"
     d="m 466.1516,148.30488 c -0.085,-0.25488 -0.8496,-3.22848 -0.8496,-3.3984 -0.085,-0.33984 -0.59472,-0.59472 -1.01952,-0.59472 -0.59472,0 -1.10448,0.50976 -1.10448,1.10448 v 13.93344 5.26752 c 0,0.4248 0.33984,0.76464 0.67968,0.93456 3.56832,1.10448 10.95984,5.77728 16.48224,15.20784 1.52928,2.63376 3.99312,6.20208 3.99312,13.33872 0,6.11712 -0.93456,12.57408 -2.46384,18.52128 -0.25488,0.93456 -0.50976,1.78416 0.4248,2.124 0.93456,0.33984 1.2744,-0.33984 1.61424,-1.18944 3.05856,-7.47648 3.8232,-15.2928 3.8232,-20.56032 v -1.61424 c -0.4248,-10.95984 -6.71184,-19.03104 -6.71184,-19.03104 0.25488,0 -7.81632,-10.45008 -10.11024,-14.0184 -3.14352,-4.84272 -4.6728,-9.68544 -4.75776,-10.02528"
     class="Hook" />
  <path
     style="stroke-width:0.8496"
     id="path30490"
     d="m 1018.4036,158.92488 c -0.085,-0.25488 -0.8496,-3.22848 -0.8496,-3.3984 -0.085,-0.33984 -0.5947,-0.59472 -1.0195,-0.59472 -0.5947,0 -1.1045,0.50976 -1.1045,1.10448 v 13.93344 5.26752 c 0,0.4248 0.3398,0.76464 0.6797,0.93456 3.5683,1.10448 10.9598,5.77728 16.4822,15.20784 1.5293,2.63376 3.9931,6.20208 3.9931,13.33872 0,6.11712 -0.9345,12.57408 -2.4638,18.52128 -0.2549,0.93456 -0.5098,1.78416 0.4248,2.124 0.9346,0.33984 1.2744,-0.33984 1.6142,-1.18944 3.0586,-7.47648 3.8232,-15.2928 3.8232,-20.56032 v -1.61424 c -0.4248,-10.95984 -6.7118,-19.03104 -6.7118,-19.03104 0.2549,0 -7.8163,-10.45008 -10.1102,-14.0184 -3.1436,-4.84272 -4.6728,-9.68544 -4.7578,-10.02528"
     class="Hook" />
  <path
     style="stroke-width:0.8496"
     id="path30492"
     d="m 1564.4536,180.16488 c -0.085,-0.25488 -0.8496,-3.22848 -0.8496,-3.3984 -0.085,-0.33984 -0.5947,-0.59472 -1.0195,-0.59472 -0.5947,0 -1.1045,0.50976 -1.1045,1.10448 v 13.93344 5.26752 c 0,0.4248 0.3398,0.76464 0.6797,0.93456 3.5683,1.10448 10.9598,5.77728 16.4822,15.20784 1.5293,2.63376 3.9931,6.20208 3.9931,13.33872 0,6.11712 -0.9345,12.57408 -2.4638,18.52128 -0.2549,0.93456 -0.5098,1.78416 0.4248,2.124 0.9346,0.33984 1.2744,-0.33984 1.6142,-1.18944 3.0586,-7.47648 3.8232,-15.2928 3.8232,-20.56032 v -1.61424 c -0.4248,-10.95984 -6.7118,-19.03104 -6.7118,-19.03104 0.2549,0 -7.8163,-10.45008 -10.1102,-14.0184 -3.1436,-4.84272 -4.6728,-9.68544 -4.7578,-10.02528"
     class="Hook" />
  <path
     id="path30500"
     d="m 1912.28,144.48128 c 3.09,-1.12 4.52,-2.85 4.52,-5.57 0,-3.57 -2.72,-5.85 -6.93,-5.85 -3.98,0 -7.01,2.34 -7.01,5.44 0,1.39 0.92,2.38 2.25,2.38 1.19,0 2,-0.82 2,-2.04 0,-0.75 -0.27,-1.19 -1.05,-1.74 -0.34,-0.23 -0.44,-0.37 -0.44,-0.61 0,-0.95 1.97,-1.97 3.91,-1.97 2.44,0 3.74,1.53 3.74,4.42 0,3.16 -1.3,4.83 -3.71,4.83 -0.31,0 -0.88,-0.04 -1.39,-0.07 -0.28,-0.03 -0.55,-0.03 -0.75,-0.03 -0.72,0 -1.09,0.3 -1.09,0.91 0,0.58 0.34,0.85 1.09,0.85 0.2,0 0.47,0 0.78,-0.03 0.68,-0.03 1.22,-0.03 1.6,-0.03 2.51,0 3.87,1.8 3.87,5.16 0,3.54 -1.7,5.51 -4.76,5.51 -2.14,0 -4.45,-1.15 -4.45,-2.21 0,-0.3 0.07,-0.37 0.71,-0.75 0.96,-0.57 1.33,-1.15 1.33,-2 0,-1.23 -0.92,-2.14 -2.14,-2.14 -1.46,0 -2.42,1.19 -2.42,2.99 0,3.3 3.03,5.57 7.38,5.57 4.93,0 8.13,-2.72 8.13,-6.9 0,-3.19 -1.63,-5.13 -5.17,-6.12"
     class="Fingering" />
  <path
     id="path30502"
     d="m 1996.66,104.97128 c 3.1,-1.13 4.52,-2.86 4.52,-5.58 0,-3.57 -2.72,-5.85 -6.93,-5.85 -3.98,0 -7.01,2.35 -7.01,5.44 0,1.4 0.92,2.38 2.25,2.38 1.19,0 2,-0.81 2,-2.04 0,-0.75 -0.27,-1.19 -1.05,-1.73 -0.34,-0.24 -0.44,-0.38 -0.44,-0.61 0,-0.96 1.97,-1.98 3.91,-1.98 2.45,0 3.74,1.53 3.74,4.42 0,3.17 -1.29,4.83 -3.71,4.83 -0.3,0 -0.88,-0.03 -1.39,-0.07 -0.27,-0.03 -0.55,-0.03 -0.75,-0.03 -0.71,0 -1.09,0.31 -1.09,0.92 0,0.58 0.34,0.85 1.09,0.85 0.2,0 0.48,0 0.78,-0.04 0.68,-0.03 1.23,-0.03 1.6,-0.03 2.52,0 3.88,1.8 3.88,5.17 0,3.53 -1.7,5.51 -4.76,5.51 -2.15,0 -4.46,-1.16 -4.46,-2.21 0,-0.31 0.07,-0.38 0.72,-0.75 0.95,-0.58 1.32,-1.16 1.32,-2.01 0,-1.22 -0.92,-2.14 -2.14,-2.14 -1.46,0 -2.41,1.19 -2.41,2.99 0,3.3 3.02,5.58 7.37,5.58 4.93,0 8.13,-2.72 8.13,-6.9 0,-3.2 -1.63,-5.14 -5.17,-6.12"
     class="Fingering" />
  <path
     id="path30504"
     d="m 2070.83,98.48128 c -1.15,1.4 -4.28,2.45 -7.41,2.52 v 1.46 h 2.99 c 1.97,0.03 2.18,0.24 2.11,2.14 v 13.64 c 0,1.73 0,1.8 -0.2,2.1 -0.28,0.34 -0.92,0.48 -2.83,0.48 h -2.21 v 1.6 h 13.47 v -1.6 h -1.87 c -1.91,0 -2.55,-0.14 -2.82,-0.48 -0.24,-0.3 -0.24,-0.34 -0.24,-2.1 v -14.05 c 0,-1.9 0.07,-3.5 0.24,-5.71 h -1.23"
     class="Fingering" />
  <path
     id="path30578"
     d="m 772.4,314.22128 -11.56,16.08 v 1.9 h 9.55 v 1.77 c 0,1.73 0,1.8 -0.2,2.11 -0.28,0.37 -0.92,0.47 -2.86,0.47 h -0.37 v 1.6 h 9.92 v -1.6 h -0.13 c -1.94,0 -2.59,-0.1 -2.86,-0.47 -0.2,-0.31 -0.2,-0.34 -0.2,-2.11 v -1.77 h 4.11 v -1.9 h -4.11 v -9.28 c 0,-4.25 0,-4.36 0.17,-6.8 h -1.46 m -2.01,16.08 h -7.48 l 7.48,-10.3 v 10.3"
     class="Fingering" />
  <path
     id="path30580"
     d="m 848.77,331.13128 c 3.09,-1.12 4.52,-2.86 4.52,-5.58 0,-3.57 -2.72,-5.85 -6.94,-5.85 -3.98,0 -7,2.35 -7,5.44 0,1.4 0.92,2.38 2.24,2.38 1.19,0 2.01,-0.81 2.01,-2.04 0,-0.74 -0.27,-1.19 -1.06,-1.73 -0.34,-0.24 -0.44,-0.37 -0.44,-0.61 0,-0.95 1.97,-1.97 3.91,-1.97 2.45,0 3.74,1.53 3.74,4.42 0,3.16 -1.29,4.82 -3.7,4.82 -0.31,0 -0.89,-0.03 -1.4,-0.06 -0.27,-0.04 -0.54,-0.04 -0.75,-0.04 -0.71,0 -1.08,0.31 -1.08,0.92 0,0.58 0.34,0.85 1.08,0.85 0.21,0 0.48,0 0.79,-0.03 0.68,-0.04 1.22,-0.04 1.59,-0.04 2.52,0 3.88,1.8 3.88,5.17 0,3.54 -1.7,5.51 -4.76,5.51 -2.14,0 -4.45,-1.16 -4.45,-2.21 0,-0.31 0.06,-0.38 0.71,-0.75 0.95,-0.58 1.33,-1.16 1.33,-2.01 0,-1.22 -0.92,-2.14 -2.15,-2.14 -1.46,0 -2.41,1.19 -2.41,2.99 0,3.3 3.03,5.58 7.38,5.58 4.93,0 8.12,-2.72 8.12,-6.9 0,-3.2 -1.63,-5.14 -5.16,-6.12"
     class="Fingering" />
  <path
     id="path30582"
     d="m 925.9,326.73128 c -1.15,1.39 -4.28,2.45 -7.41,2.52 v 1.46 h 2.99 c 1.97,0.03 2.18,0.24 2.11,2.14 v 13.63 c 0,1.74 0,1.81 -0.2,2.11 -0.28,0.34 -0.92,0.48 -2.83,0.48 h -2.21 v 1.6 h 13.47 v -1.6 h -1.87 c -1.91,0 -2.55,-0.14 -2.82,-0.48 -0.24,-0.3 -0.24,-0.34 -0.24,-2.11 v -14.04 c 0,-1.9 0.07,-3.5 0.24,-5.71 h -1.23"
     class="Fingering" />
  <path
     id="path30584"
     d="m 993.28,332.34128 -2.18,0.03 v 21.19 l -2.79,-7.14 -1.77,0.78 4.32,9.72 h 2.62 l 4.35,-9.72 -1.8,-0.78 -2.75,7.14 v -21.22 m 22.2,0.65 c -1.16,1.39 -4.29,2.44 -7.41,2.51 v 1.46 h 2.99 c 1.97,0.04 2.17,0.24 2.11,2.15 v 13.63 c 0,1.73 0,1.8 -0.21,2.11 -0.27,0.34 -0.92,0.47 -2.82,0.47 h -2.21 v 1.6 h 13.46 v -1.6 h -1.87 c -1.9,0 -2.55,-0.13 -2.82,-0.47 -0.24,-0.31 -0.24,-0.34 -0.24,-2.11 v -14.04 c 0,-1.91 0.07,-3.5 0.24,-5.71 h -1.22"
     class="Fingering" />
  <path
     id="path30586"
     d="m 1118.41,334.24128 c 3.1,-1.13 4.53,-2.86 4.53,-5.58 0,-3.57 -2.72,-5.85 -6.94,-5.85 -3.98,0 -7,2.35 -7,5.44 0,1.4 0.91,2.38 2.24,2.38 1.19,0 2.01,-0.81 2.01,-2.04 0,-0.75 -0.28,-1.19 -1.06,-1.73 -0.34,-0.24 -0.44,-0.38 -0.44,-0.61 0,-0.96 1.97,-1.98 3.91,-1.98 2.45,0 3.74,1.53 3.74,4.42 0,3.17 -1.29,4.83 -3.71,4.83 -0.3,0 -0.88,-0.03 -1.39,-0.07 -0.27,-0.03 -0.54,-0.03 -0.75,-0.03 -0.71,0 -1.09,0.31 -1.09,0.92 0,0.58 0.34,0.85 1.09,0.85 0.21,0 0.48,0 0.78,-0.04 0.68,-0.03 1.23,-0.03 1.6,-0.03 2.52,0 3.88,1.8 3.88,5.17 0,3.53 -1.7,5.51 -4.76,5.51 -2.14,0 -4.46,-1.16 -4.46,-2.21 0,-0.31 0.07,-0.38 0.72,-0.75 0.95,-0.58 1.32,-1.16 1.32,-2.01 0,-1.22 -0.91,-2.14 -2.14,-2.14 -1.46,0 -2.41,1.19 -2.41,2.99 0,3.3 3.02,5.58 7.38,5.58 4.93,0 8.12,-2.72 8.12,-6.9 0,-3.2 -1.63,-5.14 -5.17,-6.12"
     class="Fingering" />
  <path
     id="path30588"
     d="m 1321.05,357.63128 c 3.09,-1.13 4.52,-2.86 4.52,-5.58 0,-3.57 -2.72,-5.85 -6.94,-5.85 -3.97,0 -7,2.35 -7,5.44 0,1.4 0.92,2.38 2.24,2.38 1.19,0 2.01,-0.81 2.01,-2.04 0,-0.75 -0.27,-1.19 -1.05,-1.73 -0.34,-0.24 -0.45,-0.38 -0.45,-0.61 0,-0.96 1.98,-1.98 3.91,-1.98 2.45,0 3.74,1.53 3.74,4.42 0,3.17 -1.29,4.83 -3.7,4.83 -0.31,0 -0.89,-0.03 -1.4,-0.07 -0.27,-0.03 -0.54,-0.03 -0.74,-0.03 -0.72,0 -1.09,0.31 -1.09,0.92 0,0.58 0.34,0.85 1.09,0.85 0.2,0 0.47,0 0.78,-0.04 0.68,-0.03 1.22,-0.03 1.6,-0.03 2.51,0 3.87,1.8 3.87,5.17 0,3.53 -1.7,5.51 -4.76,5.51 -2.14,0 -4.45,-1.16 -4.45,-2.21 0,-0.31 0.07,-0.38 0.71,-0.75 0.95,-0.58 1.33,-1.16 1.33,-2.01 0,-1.22 -0.92,-2.14 -2.14,-2.14 -1.47,0 -2.42,1.19 -2.42,2.99 0,3.3 3.03,5.58 7.38,5.58 4.93,0 8.13,-2.72 8.13,-6.9 0,-3.2 -1.64,-5.14 -5.17,-6.12"
     class="Fingering" />
  <path
     id="path30590"
     d="m 1403.32,369.82128 h -1.49 l -0.34,1.73 c -0.44,2.21 -0.72,2.42 -2.82,2.42 h -7.62 c 2.35,-2.45 3.13,-3.16 5.3,-4.86 3.1,-2.38 4.42,-3.57 5.21,-4.59 1.08,-1.5 1.63,-3 1.63,-4.66 0,-3.88 -3.2,-6.63 -7.65,-6.63 -4.32,0 -7.62,2.75 -7.62,6.39 0,2.14 1.09,3.6 2.69,3.6 1.26,0 2.11,-0.85 2.11,-2.07 0,-0.85 -0.48,-1.63 -1.19,-1.94 -1.26,-0.51 -1.33,-0.58 -1.33,-1.02 0,-0.51 0.34,-1.29 0.82,-1.87 0.85,-1.05 2.24,-1.63 3.84,-1.63 2.82,0 4.49,1.73 4.49,4.59 0,2.52 -1.19,4.79 -4.02,7.79 -2.51,2.65 -4.08,4.31 -4.65,4.96 -1.23,1.43 -1.84,2.21 -3.34,4.18 v 0.95 h 15.34 l 0.64,-7.34"
     class="Fingering" />
  <path
     id="path30592"
     d="m 1473.5,358.59128 c -1.15,1.4 -4.28,2.45 -7.41,2.52 v 1.46 h 2.99 c 1.97,0.03 2.18,0.24 2.11,2.14 v 13.64 c 0,1.73 0,1.8 -0.2,2.1 -0.28,0.34 -0.92,0.48 -2.83,0.48 h -2.21 v 1.6 h 13.47 v -1.6 h -1.87 c -1.91,0 -2.55,-0.14 -2.82,-0.48 -0.24,-0.3 -0.24,-0.34 -0.24,-2.1 v -14.05 c 0,-1.9 0.07,-3.5 0.24,-5.71 h -1.23"
     class="Fingering" />
  <path
     id="path30594"
     d="m 1539.32,364.20128 -2.17,0.03 v 21.19 l -2.79,-7.14 -1.77,0.78 4.32,9.72 h 2.62 l 4.35,-9.72 -1.8,-0.78 -2.76,7.14 v -21.22 m 22.21,0.65 c -1.16,1.39 -4.29,2.44 -7.42,2.51 v 1.46 h 3 c 1.97,0.04 2.17,0.24 2.1,2.15 v 13.63 c 0,1.73 0,1.8 -0.2,2.11 -0.27,0.34 -0.92,0.47 -2.82,0.47 h -2.21 v 1.6 h 13.46 v -1.6 h -1.87 c -1.9,0 -2.55,-0.13 -2.82,-0.47 -0.24,-0.31 -0.24,-0.34 -0.24,-2.11 v -14.04 c 0,-1.91 0.07,-3.5 0.24,-5.71 h -1.22"
     class="Fingering" />
  <path
     id="path30596"
     d="m 1680.05,334.26128 c 3.1,-1.12 4.53,-2.86 4.53,-5.58 0,-3.57 -2.72,-5.85 -6.94,-5.85 -3.98,0 -7,2.35 -7,5.44 0,1.4 0.91,2.38 2.24,2.38 1.19,0 2.01,-0.81 2.01,-2.04 0,-0.74 -0.28,-1.19 -1.06,-1.73 -0.34,-0.24 -0.44,-0.37 -0.44,-0.61 0,-0.95 1.97,-1.97 3.91,-1.97 2.45,0 3.74,1.53 3.74,4.42 0,3.16 -1.29,4.82 -3.71,4.82 -0.3,0 -0.88,-0.03 -1.39,-0.06 -0.27,-0.04 -0.54,-0.04 -0.75,-0.04 -0.71,0 -1.09,0.31 -1.09,0.92 0,0.58 0.34,0.85 1.09,0.85 0.21,0 0.48,0 0.78,-0.03 0.68,-0.04 1.23,-0.04 1.6,-0.04 2.52,0 3.88,1.8 3.88,5.17 0,3.54 -1.7,5.51 -4.76,5.51 -2.14,0 -4.46,-1.16 -4.46,-2.21 0,-0.31 0.07,-0.38 0.72,-0.75 0.95,-0.58 1.32,-1.16 1.32,-2.01 0,-1.22 -0.91,-2.14 -2.14,-2.14 -1.46,0 -2.41,1.19 -2.41,2.99 0,3.3 3.02,5.58 7.38,5.58 4.93,0 8.12,-2.72 8.12,-6.9 0,-3.2 -1.63,-5.14 -5.17,-6.12"
     class="Fingering" />
  <path
     id="path30598"
     d="m 1832.95,177.92128 c -1.16,1.39 -4.29,2.45 -7.42,2.51 v 1.47 h 3 c 1.97,0.03 2.17,0.23 2.1,2.14 v 13.63 c 0,1.74 0,1.8 -0.2,2.11 -0.27,0.34 -0.92,0.48 -2.82,0.48 h -2.21 v 1.59 h 13.46 v -1.59 h -1.87 c -1.9,0 -2.55,-0.14 -2.82,-0.48 -0.24,-0.31 -0.24,-0.34 -0.24,-2.11 v -14.04 c 0,-1.9 0.07,-3.5 0.24,-5.71 h -1.22"
     class="Fingering" />
  <path
     id="path30600"
     d="m 1994.91,64.54128 c -1.16,1.39 -4.29,2.44 -7.41,2.51 v 1.46 h 2.99 c 1.97,0.04 2.17,0.24 2.11,2.15 v 13.63 c 0,1.73 0,1.8 -0.21,2.11 -0.27,0.34 -0.92,0.47 -2.82,0.47 h -2.21 v 1.6 h 13.46 v -1.6 h -1.87 c -1.9,0 -2.55,-0.13 -2.82,-0.47 -0.24,-0.31 -0.24,-0.34 -0.24,-2.11 v -14.04 c 0,-1.91 0.07,-3.5 0.24,-5.71 h -1.22"
     class="Fingering" />
  <path
     id="path30602"
     d="m 2071.56,81.36128 c 3.09,-1.12 4.52,-2.85 4.52,-5.57 0,-3.57 -2.72,-5.85 -6.94,-5.85 -3.97,0 -7,2.35 -7,5.44 0,1.39 0.92,2.38 2.24,2.38 1.19,0 2.01,-0.82 2.01,-2.04 0,-0.75 -0.27,-1.19 -1.05,-1.73 -0.34,-0.24 -0.45,-0.38 -0.45,-0.62 0,-0.95 1.98,-1.97 3.91,-1.97 2.45,0 3.74,1.53 3.74,4.42 0,3.16 -1.29,4.83 -3.7,4.83 -0.31,0 -0.89,-0.03 -1.4,-0.07 -0.27,-0.03 -0.54,-0.03 -0.74,-0.03 -0.72,0 -1.09,0.3 -1.09,0.92 0,0.57 0.34,0.85 1.09,0.85 0.2,0 0.47,0 0.78,-0.04 0.68,-0.03 1.22,-0.03 1.6,-0.03 2.51,0 3.87,1.8 3.87,5.17 0,3.53 -1.7,5.5 -4.76,5.5 -2.14,0 -4.45,-1.15 -4.45,-2.21 0,-0.3 0.07,-0.37 0.71,-0.74 0.95,-0.58 1.33,-1.16 1.33,-2.01 0,-1.22 -0.92,-2.14 -2.14,-2.14 -1.47,0 -2.42,1.19 -2.42,2.99 0,3.3 3.03,5.58 7.38,5.58 4.93,0 8.13,-2.72 8.13,-6.91 0,-3.19 -1.64,-5.13 -5.17,-6.12"
     class="Fingering" />
  <path
     id="path30902"
     d="m 224.375,173.85128 c 0,9.55 -7.743,17.29 -17.295,17.29 -9.551,0 -17.294,-7.74 -17.294,-17.29 0,-9.55 7.743,-17.3 17.294,-17.3 9.552,0 17.295,7.75 17.295,17.3"
     fill-rule="evenodd"
     stroke-miterlimit="2"
     stroke-linejoin="miter"
     stroke-linecap="square"
     stroke-width="2.12"
     stroke="#000000"
     fill="none"
     class="Fingering" />
  <path
     id="path30904"
     d="m 210.155,161.86128 -11.56,16.09 v 1.9 h 9.554 v 1.77 c 0,1.73 0,1.8 -0.204,2.11 -0.272,0.37 -0.918,0.47 -2.856,0.47 h -0.374 v 1.6 h 9.928 v -1.6 h -0.136 c -1.938,0 -2.584,-0.1 -2.856,-0.47 -0.204,-0.31 -0.204,-0.34 -0.204,-2.11 v -1.77 h 4.114 v -1.9 h -4.114 v -9.29 c 0,-4.25 0,-4.35 0.17,-6.8 h -1.462 m -2.006,16.09 h -7.48 l 7.48,-10.31 v 10.31"
     class="Fingering" />
  <path
     id="path30906"
     d="m 209.316,124.47128 c -1.156,1.39 -4.284,2.45 -7.412,2.52 v 1.46 h 2.992 c 1.972,0.03 2.176,0.24 2.108,2.14 v 13.63 c 0,1.74 0,1.81 -0.204,2.11 -0.272,0.34 -0.918,0.48 -2.822,0.48 h -2.21 v 1.6 h 13.464 v -1.6 h -1.87 c -1.904,0 -2.55,-0.14 -2.822,-0.48 -0.238,-0.3 -0.238,-0.34 -0.238,-2.11 v -14.04 c 0,-1.9 0.068,-3.5 0.238,-5.71 h -1.224"
     class="Fingering" />
  <path
     id="path30908"
     d="m 1910.67,66.64128 -11.56,16.09 v 1.9 h 9.55 v 1.77 c 0,1.73 0,1.8 -0.2,2.11 -0.28,0.37 -0.92,0.47 -2.86,0.47 h -0.37 v 1.6 h 9.92 v -1.6 h -0.13 c -1.94,0 -2.59,-0.1 -2.86,-0.47 -0.2,-0.31 -0.2,-0.34 -0.2,-2.11 v -1.77 h 4.11 v -1.9 h -4.11 v -9.29 c 0,-4.25 0,-4.35 0.17,-6.8 h -1.46 m -2.01,16.09 h -7.48 l 7.48,-10.31 v 10.31"
     class="Fingering" />
  <path
     id="path30910"
     d="m 1994.08,36.82128 -11.56,16.08 v 1.9 h 9.55 v 1.77 c 0,1.73 0,1.8 -0.2,2.11 -0.27,0.37 -0.92,0.47 -2.86,0.47 h -0.37 v 1.6 h 9.93 v -1.6 h -0.14 c -1.94,0 -2.58,-0.1 -2.85,-0.47 -0.21,-0.31 -0.21,-0.34 -0.21,-2.11 v -1.77 h 4.12 v -1.9 h -4.12 v -9.28 c 0,-4.25 0,-4.36 0.17,-6.8 h -1.46 m -2.01,16.08 h -7.48 l 7.48,-10.3 v 10.3"
     class="Fingering" />
  <path
     id="path30912"
     d="m 2076.96,56.36128 h -1.49 l -0.34,1.73 c -0.44,2.21 -0.72,2.42 -2.82,2.42 h -7.62 c 2.35,-2.45 3.13,-3.17 5.3,-4.87 3.1,-2.38 4.42,-3.57 5.21,-4.59 1.08,-1.49 1.63,-2.99 1.63,-4.65 0,-3.88 -3.2,-6.63 -7.65,-6.63 -4.32,0 -7.62,2.75 -7.62,6.39 0,2.14 1.09,3.6 2.69,3.6 1.26,0 2.11,-0.85 2.11,-2.07 0,-0.85 -0.48,-1.63 -1.19,-1.94 -1.26,-0.51 -1.33,-0.58 -1.33,-1.02 0,-0.51 0.34,-1.29 0.82,-1.87 0.85,-1.05 2.24,-1.63 3.84,-1.63 2.82,0 4.49,1.73 4.49,4.59 0,2.51 -1.19,4.79 -4.02,7.78 -2.51,2.66 -4.08,4.32 -4.65,4.97 -1.23,1.43 -1.84,2.21 -3.34,4.18 v 0.95 h 15.34 l 0.64,-7.34"
     class="Fingering" />
  <path
     style="stroke-width:0.8496"
     id="path30962"
     d="m 342.505,240.90987 c 0,2.34611 1.90189,4.248 4.248,4.248 2.34611,0 4.248,-1.90189 4.248,-4.248 0,-2.34611 -1.90189,-4.248 -4.248,-4.248 -2.34611,0 -4.248,1.90189 -4.248,4.248"
     class="NoteDot" />
  <path
     style="stroke-width:0.8496"
     id="path31008"
     d="m 342.505,198.42987 c 0,2.34611 1.90189,4.248 4.248,4.248 2.34611,0 4.248,-1.90189 4.248,-4.248 0,-2.34611 -1.90189,-4.248 -4.248,-4.248 -2.34611,0 -4.248,1.90189 -4.248,4.248"
     class="NoteDot" />
  <path
     style="stroke-width:0.8496"
     id="path31010"
     d="m 747.24,219.66987 c 0,2.34611 1.90189,4.248 4.248,4.248 2.34611,0 4.248,-1.90189 4.248,-4.248 0,-2.34611 -1.90189,-4.248 -4.248,-4.248 -2.34611,0 -4.248,1.90189 -4.248,4.248"
     class="NoteDot" />
  <path
     style="stroke-width:0.8496"
     id="path31012"
     d="m 1296.39,240.90987 c 0,2.34611 1.9019,4.248 4.248,4.248 2.3461,0 4.248,-1.90189 4.248,-4.248 0,-2.34611 -1.9019,-4.248 -4.248,-4.248 -2.3461,0 -4.248,1.90189 -4.248,4.248"
     class="NoteDot" />
</svg>
