<?xml version="1.0" encoding="UTF-8" standalone="no"?>
<svg
   xmlns:dc="http://purl.org/dc/elements/1.1/"
   xmlns:cc="http://creativecommons.org/ns#"
   xmlns:rdf="http://www.w3.org/1999/02/22-rdf-syntax-ns#"
   xmlns:svg="http://www.w3.org/2000/svg"
   xmlns="http://www.w3.org/2000/svg"
   xmlns:sodipodi="http://sodipodi.sourceforge.net/DTD/sodipodi-0.dtd"
   xmlns:inkscape="http://www.inkscape.org/namespaces/inkscape"
   inkscape:version="1.0 (4035a4f, 2020-05-01)"
   sodipodi:docname="snippet4.svg"
   id="svg13986"
   version="1.2"
   viewBox="0 0 2340 309.67368"
   height="309.67368"
   width="2340">
  <metadata
     id="metadata13992">
    <rdf:RDF>
      <cc:Work
         rdf:about="">
        <dc:format>image/svg+xml</dc:format>
        <dc:type
           rdf:resource="http://purl.org/dc/dcmitype/StillImage" />
        <dc:title>Batches6Suite5</dc:title>
      </cc:Work>
    </rdf:RDF>
  </metadata>
  <defs
     id="defs13990" />
  <sodipodi:namedview
     inkscape:current-layer="svg13986"
     inkscape:window-maximized="0"
     inkscape:window-y="23"
     inkscape:window-x="0"
     inkscape:cy="1691.4786"
     inkscape:cx="1352.7946"
     inkscape:zoom="0.13671748"
     showgrid="false"
     id="namedview13988"
     inkscape:window-height="853"
     inkscape:window-width="725"
     inkscape:pageshadow="2"
     inkscape:pageopacity="0"
     guidetolerance="10"
     gridtolerance="10"
     objecttolerance="10"
     borderopacity="1"
     bordercolor="#666666"
     pagecolor="#ffffff" />
  <title
     id="title13316">Batches6Suite5</title>
  <desc
     id="desc13318">Generated by MuseScore 3.6.2</desc>
  <polyline
     transform="translate(-360,-390.12)"
     id="polyline13320"
     points="360,561.054 2700,561.054"
     stroke-linejoin="bevel"
     stroke-width="2.34"
     stroke="#000000"
     fill="none"
     class="StaffLines" />
  <polyline
     transform="translate(-360,-390.12)"
     id="polyline13322"
     points="360,582.294 2700,582.294"
     stroke-linejoin="bevel"
     stroke-width="2.34"
     stroke="#000000"
     fill="none"
     class="StaffLines" />
  <polyline
     transform="translate(-360,-390.12)"
     id="polyline13324"
     points="360,603.534 2700,603.534"
     stroke-linejoin="bevel"
     stroke-width="2.34"
     stroke="#000000"
     fill="none"
     class="StaffLines" />
  <polyline
     transform="translate(-360,-390.12)"
     id="polyline13326"
     points="360,624.774 2700,624.774"
     stroke-linejoin="bevel"
     stroke-width="2.34"
     stroke="#000000"
     fill="none"
     class="StaffLines" />
  <polyline
     transform="translate(-360,-390.12)"
     id="polyline13328"
     points="360,646.014 2700,646.014"
     stroke-linejoin="bevel"
     stroke-width="2.34"
     stroke="#000000"
     fill="none"
     class="StaffLines" />
  <path
     id="path13340"
     d="m 532.219,190.05 c 11.728,15.719 40.078,21.029 56.7,10.62 -17.717,16.255 -46.067,10.945 -56.7,-10.62"
     fill-rule="evenodd"
     stroke-linejoin="round"
     stroke-linecap="round"
     stroke-width="1.49"
     stroke="#000000"
     class="SlurSegment" />
  <path
     id="path13342"
     d="m 673.12,86.356 c 12.41,-20.246 40.76,-22.901 56.71,-5.31 -15.4,-11.67 -43.75,-9.015 -56.71,5.31"
     fill-rule="evenodd"
     stroke-linejoin="round"
     stroke-linecap="round"
     stroke-width="1.49"
     stroke="#000000"
     class="SlurSegment" />
  <path
     id="path13344"
     d="m 906.56,102.286 c 46.28,-33.188 128.94,-22.568 165.32,21.24 -37.14,-37.909 -119.8,-48.529 -165.32,-21.24"
     fill-rule="evenodd"
     stroke-linejoin="round"
     stroke-linecap="round"
     stroke-width="1.49"
     stroke="#000000"
     class="SlurSegment" />
  <path
     id="path13346"
     d="m 1423.63,147.57 c 12.54,16.772 42.6,22.082 60.12,10.62 -18.56,17.319 -48.62,12.009 -60.12,-10.62"
     fill-rule="evenodd"
     stroke-linejoin="round"
     stroke-linecap="round"
     stroke-width="1.49"
     stroke="#000000"
     class="SlurSegment" />
  <path
     id="path13348"
     d="m 1556.5,65.116 c 46.27,-38.931 136.45,-36.276 180.35,5.31 C 1692.77,34.785 1602.6,32.13 1556.5,65.116"
     fill-rule="evenodd"
     stroke-linejoin="round"
     stroke-linecap="round"
     stroke-width="1.49"
     stroke="#000000"
     class="SlurSegment" />
  <path
     id="path13350"
     d="m 1833.71,51.043 c 44.82,-32.476 124.39,-21.856 159.13,21.24 -35.53,-37.201 -115.09,-47.821 -159.13,-21.24"
     fill-rule="evenodd"
     stroke-linejoin="round"
     stroke-linecap="round"
     stroke-width="1.49"
     stroke="#000000"
     class="SlurSegment" />
  <polyline
     transform="translate(-360,-390.12)"
     id="polyline13366"
     points="752.861,559.886 752.861,647.182"
     stroke-linejoin="bevel"
     stroke-width="3.82"
     stroke="#000000"
     class="BarLine" />
  <polyline
     transform="translate(-360,-390.12)"
     id="polyline13368"
     points="1212.72,559.886 1212.72,647.182"
     stroke-linejoin="bevel"
     stroke-width="3.82"
     stroke="#000000"
     class="BarLine" />
  <polyline
     transform="translate(-360,-390.12)"
     id="polyline13370"
     points="1638.81,559.886 1638.81,647.182"
     stroke-linejoin="bevel"
     stroke-width="3.82"
     stroke="#000000"
     class="BarLine" />
  <polyline
     transform="translate(-360,-390.12)"
     id="polyline13372"
     points="2132.44,559.886 2132.44,647.182"
     stroke-linejoin="bevel"
     stroke-width="3.82"
     stroke="#000000"
     class="BarLine" />
  <polyline
     transform="translate(-360,-390.12)"
     id="polyline13374"
     points="2551.09,559.886 2551.09,647.182"
     stroke-linejoin="bevel"
     stroke-width="3.82"
     stroke="#000000"
     class="BarLine" />
  <polyline
     transform="translate(-360,-390.12)"
     id="polyline13386"
     points="1002.39,579.108 975.337,596.1"
     stroke-linejoin="bevel"
     stroke-width="2.34"
     stroke="#000000"
     class="StemSlash" />
  <polyline
     transform="translate(-360,-390.12)"
     id="polyline13394"
     points="780.261,688.494 822.734,688.494"
     stroke-linejoin="bevel"
     stroke-width="3.4"
     stroke="#000000"
     class="LedgerLine" />
  <polyline
     transform="translate(-360,-390.12)"
     id="polyline13396"
     points="780.261,667.254 822.734,667.254"
     stroke-linejoin="bevel"
     stroke-width="3.4"
     stroke="#000000"
     class="LedgerLine" />
  <polyline
     transform="translate(-360,-390.12)"
     id="polyline13398"
     points="1112.65,539.814 1155.13,539.814"
     stroke-linejoin="bevel"
     stroke-width="3.4"
     stroke="#000000"
     class="LedgerLine" />
  <polyline
     transform="translate(-360,-390.12)"
     id="polyline13400"
     points="1453.12,539.814 1495.59,539.814"
     stroke-linejoin="bevel"
     stroke-width="3.4"
     stroke="#000000"
     class="LedgerLine" />
  <polyline
     transform="translate(-360,-390.12)"
     id="polyline13402"
     points="1453.12,688.494 1495.59,688.494"
     stroke-linejoin="bevel"
     stroke-width="3.4"
     stroke="#000000"
     class="LedgerLine" />
  <polyline
     transform="translate(-360,-390.12)"
     id="polyline13404"
     points="1453.12,667.254 1495.59,667.254"
     stroke-linejoin="bevel"
     stroke-width="3.4"
     stroke="#000000"
     class="LedgerLine" />
  <polyline
     transform="translate(-360,-390.12)"
     id="polyline13406"
     points="1541.29,539.814 1583.77,539.814"
     stroke-linejoin="bevel"
     stroke-width="3.4"
     stroke="#000000"
     class="LedgerLine" />
  <polyline
     transform="translate(-360,-390.12)"
     id="polyline13408"
     points="1666.21,539.814 1708.68,539.814"
     stroke-linejoin="bevel"
     stroke-width="3.4"
     stroke="#000000"
     class="LedgerLine" />
  <polyline
     transform="translate(-360,-390.12)"
     id="polyline13410"
     points="1762.4,539.814 1804.87,539.814"
     stroke-linejoin="bevel"
     stroke-width="3.4"
     stroke="#000000"
     class="LedgerLine" />
  <polyline
     transform="translate(-360,-390.12)"
     id="polyline13412"
     points="1762.4,518.574 1804.87,518.574"
     stroke-linejoin="bevel"
     stroke-width="3.4"
     stroke="#000000"
     class="LedgerLine" />
  <polyline
     transform="translate(-360,-390.12)"
     id="polyline13414"
     points="1822.51,539.814 1864.99,539.814"
     stroke-linejoin="bevel"
     stroke-width="3.4"
     stroke="#000000"
     class="LedgerLine" />
  <polyline
     transform="translate(-360,-390.12)"
     id="polyline13416"
     points="1882.63,539.814 1925.1,539.814"
     stroke-linejoin="bevel"
     stroke-width="3.4"
     stroke="#000000"
     class="LedgerLine" />
  <polyline
     transform="translate(-360,-390.12)"
     id="polyline13418"
     points="2159.84,539.814 2202.31,539.814"
     stroke-linejoin="bevel"
     stroke-width="3.4"
     stroke="#000000"
     class="LedgerLine" />
  <polyline
     transform="translate(-360,-390.12)"
     id="polyline13420"
     points="2578.49,688.494 2620.97,688.494"
     stroke-linejoin="bevel"
     stroke-width="3.4"
     stroke="#000000"
     class="LedgerLine" />
  <polyline
     transform="translate(-360,-390.12)"
     id="polyline13422"
     points="2578.49,667.254 2620.97,667.254"
     stroke-linejoin="bevel"
     stroke-width="3.4"
     stroke="#000000"
     class="LedgerLine" />
  <polyline
     transform="translate(-360,-390.12)"
     id="polyline13456"
     points="814.132,685.775 814.132,615.163"
     stroke-linejoin="bevel"
     stroke-width="2.34"
     stroke="#000000"
     class="Stem" />
  <polyline
     transform="translate(-360,-390.12)"
     id="polyline13458"
     points="1486.99,685.775 1486.99,603.534"
     stroke-linejoin="bevel"
     stroke-width="2.34"
     stroke="#000000"
     class="Stem" />
  <polyline
     transform="translate(-360,-390.12)"
     id="polyline13460"
     points="2612.36,685.775 2612.36,615.934"
     stroke-linejoin="bevel"
     stroke-width="2.34"
     stroke="#000000"
     class="Stem" />
  <polyline
     transform="translate(-360,-390.12)"
     id="polyline13464"
     points="605.966,643.295 605.966,571.674"
     stroke-linejoin="bevel"
     stroke-width="2.34"
     stroke="#000000"
     class="Stem" />
  <polyline
     transform="translate(-360,-390.12)"
     id="polyline13466"
     points="814.132,643.295 814.132,571.674"
     stroke-linejoin="bevel"
     stroke-width="2.34"
     stroke="#000000"
     class="Stem" />
  <polyline
     transform="translate(-360,-390.12)"
     id="polyline13468"
     points="1486.99,632.675 1486.99,561.054"
     stroke-linejoin="bevel"
     stroke-width="2.34"
     stroke="#000000"
     class="Stem" />
  <polyline
     transform="translate(-360,-390.12)"
     id="polyline13470"
     points="1674.81,627.628 1674.81,685.839"
     stroke-linejoin="bevel"
     stroke-width="2.34"
     stroke="#000000"
     class="Stem" />
  <polyline
     transform="translate(-360,-390.12)"
     id="polyline13472"
     points="2193.71,643.295 2193.71,571.674"
     stroke-linejoin="bevel"
     stroke-width="2.34"
     stroke="#000000"
     class="Stem" />
  <polyline
     transform="translate(-360,-390.12)"
     id="polyline13474"
     points="2405.88,643.295 2405.88,571.674"
     stroke-linejoin="bevel"
     stroke-width="2.34"
     stroke="#000000"
     class="Stem" />
  <polyline
     transform="translate(-360,-390.12)"
     id="polyline13476"
     points="2612.36,643.295 2612.36,571.674"
     stroke-linejoin="bevel"
     stroke-width="2.34"
     stroke="#000000"
     class="Stem" />
  <polyline
     transform="translate(-360,-390.12)"
     id="polyline13488"
     points="605.966,600.815 605.966,537.159"
     stroke-linejoin="bevel"
     stroke-width="2.34"
     stroke="#000000"
     class="Stem" />
  <polyline
     transform="translate(-360,-390.12)"
     id="polyline13490"
     points="814.132,590.195 814.132,529.194"
     stroke-linejoin="bevel"
     stroke-width="2.34"
     stroke="#000000"
     class="Stem" />
  <polyline
     transform="translate(-360,-390.12)"
     id="polyline13492"
     points="1033.12,590.195 1033.12,529.194"
     stroke-linejoin="bevel"
     stroke-width="2.34"
     stroke="#000000"
     class="Stem" />
  <polyline
     transform="translate(-360,-390.12)"
     id="polyline13494"
     points="985.922,612.251 985.922,562.116"
     stroke-linejoin="bevel"
     stroke-width="1.64"
     stroke="#000000"
     class="Stem" />
  <polyline
     transform="translate(-360,-390.12)"
     id="polyline13496"
     points="1266.56,632.675 1266.56,596.536"
     stroke-linejoin="bevel"
     stroke-width="2.34"
     stroke="#000000"
     class="Stem" />
  <polyline
     transform="translate(-360,-390.12)"
     id="polyline13498"
     points="1486.99,579.575 1486.99,521.229"
     stroke-linejoin="bevel"
     stroke-width="2.34"
     stroke="#000000"
     class="Stem" />
  <polyline
     transform="translate(-360,-390.12)"
     id="polyline13500"
     points="1700.08,568.955 1700.08,513.264"
     stroke-linejoin="bevel"
     stroke-width="2.34"
     stroke="#000000"
     class="Stem" />
  <polyline
     transform="translate(-360,-390.12)"
     id="polyline13502"
     points="1891.23,606.388 1891.23,669.909"
     stroke-linejoin="bevel"
     stroke-width="2.34"
     stroke="#000000"
     class="Stem" />
  <polyline
     transform="translate(-360,-390.12)"
     id="polyline13504"
     points="2193.71,600.815 2193.71,549.559"
     stroke-linejoin="bevel"
     stroke-width="2.34"
     stroke="#000000"
     class="Stem" />
  <polyline
     transform="translate(-360,-390.12)"
     id="polyline13506"
     points="2405.88,600.815 2405.88,537.159"
     stroke-linejoin="bevel"
     stroke-width="2.34"
     stroke="#000000"
     class="Stem" />
  <polyline
     transform="translate(-360,-390.12)"
     id="polyline13508"
     points="2612.36,590.195 2612.36,529.194"
     stroke-linejoin="bevel"
     stroke-width="2.34"
     stroke="#000000"
     class="Stem" />
  <polyline
     transform="translate(-360,-390.12)"
     id="polyline13522"
     points="605.966,547.715 605.966,497.334"
     stroke-linejoin="bevel"
     stroke-width="2.34"
     stroke="#000000"
     class="Stem" />
  <polyline
     transform="translate(-360,-390.12)"
     id="polyline13524"
     points="691.676,547.715 691.676,497.334"
     stroke-linejoin="bevel"
     stroke-width="2.34"
     stroke="#000000"
     class="Stem" />
  <polyline
     transform="translate(-360,-390.12)"
     id="polyline13526"
     points="814.132,547.715 814.132,497.334"
     stroke-linejoin="bevel"
     stroke-width="2.34"
     stroke="#000000"
     class="Stem" />
  <polyline
     transform="translate(-360,-390.12)"
     id="polyline13528"
     points="904.853,558.335 904.853,497.334"
     stroke-linejoin="bevel"
     stroke-width="2.34"
     stroke="#000000"
     class="Stem" />
  <polyline
     transform="translate(-360,-390.12)"
     id="polyline13530"
     points="961.554,568.955 961.554,502.644"
     stroke-linejoin="bevel"
     stroke-width="2.34"
     stroke="#000000"
     class="Stem" />
  <polyline
     transform="translate(-360,-390.12)"
     id="polyline13532"
     points="1033.12,558.335 1033.12,497.334"
     stroke-linejoin="bevel"
     stroke-width="2.34"
     stroke="#000000"
     class="Stem" />
  <polyline
     transform="translate(-360,-390.12)"
     id="polyline13534"
     points="1089.83,547.715 1089.83,492.024"
     stroke-linejoin="bevel"
     stroke-width="2.34"
     stroke="#000000"
     class="Stem" />
  <polyline
     transform="translate(-360,-390.12)"
     id="polyline13536"
     points="1146.53,537.095 1146.53,489.369"
     stroke-linejoin="bevel"
     stroke-width="2.34"
     stroke="#000000"
     class="Stem" />
  <polyline
     transform="translate(-360,-390.12)"
     id="polyline13538"
     points="1266.56,568.955 1266.56,513.264"
     stroke-linejoin="bevel"
     stroke-width="2.34"
     stroke="#000000"
     class="Stem" />
  <polyline
     transform="translate(-360,-390.12)"
     id="polyline13540"
     points="1321.67,579.575 1321.67,520.344"
     stroke-linejoin="bevel"
     stroke-width="2.34"
     stroke="#000000"
     class="Stem" />
  <polyline
     transform="translate(-360,-390.12)"
     id="polyline13542"
     points="1376.77,590.195 1376.77,527.424"
     stroke-linejoin="bevel"
     stroke-width="2.34"
     stroke="#000000"
     class="Stem" />
  <polyline
     transform="translate(-360,-390.12)"
     id="polyline13544"
     points="1431.88,600.815 1431.88,534.504"
     stroke-linejoin="bevel"
     stroke-width="2.34"
     stroke="#000000"
     class="Stem" />
  <polyline
     transform="translate(-360,-390.12)"
     id="polyline13546"
     points="1486.99,526.475 1486.99,481.404"
     stroke-linejoin="bevel"
     stroke-width="2.34"
     stroke="#000000"
     class="Stem" />
  <polyline
     transform="translate(-360,-390.12)"
     id="polyline13548"
     points="1575.16,526.475 1575.16,481.404"
     stroke-linejoin="bevel"
     stroke-width="2.34"
     stroke="#000000"
     class="Stem" />
  <polyline
     transform="translate(-360,-390.12)"
     id="polyline13550"
     points="1700.08,526.475 1700.08,481.404"
     stroke-linejoin="bevel"
     stroke-width="2.34"
     stroke="#000000"
     class="Stem" />
  <polyline
     transform="translate(-360,-390.12)"
     id="polyline13552"
     points="1796.27,515.855 1796.27,454.854"
     stroke-linejoin="bevel"
     stroke-width="2.34"
     stroke="#000000"
     class="Stem" />
  <polyline
     transform="translate(-360,-390.12)"
     id="polyline13554"
     points="1856.38,526.475 1856.38,460.164"
     stroke-linejoin="bevel"
     stroke-width="2.34"
     stroke="#000000"
     class="Stem" />
  <polyline
     transform="translate(-360,-390.12)"
     id="polyline13556"
     points="1916.5,537.095 1916.5,476.094"
     stroke-linejoin="bevel"
     stroke-width="2.34"
     stroke="#000000"
     class="Stem" />
  <polyline
     transform="translate(-360,-390.12)"
     id="polyline13558"
     points="1976.62,547.715 1976.62,477.864"
     stroke-linejoin="bevel"
     stroke-width="2.34"
     stroke="#000000"
     class="Stem" />
  <polyline
     transform="translate(-360,-390.12)"
     id="polyline13560"
     points="2036.73,558.335 2036.73,479.634"
     stroke-linejoin="bevel"
     stroke-width="2.34"
     stroke="#000000"
     class="Stem" />
  <polyline
     transform="translate(-360,-390.12)"
     id="polyline13562"
     points="2096.85,547.715 2096.85,481.404"
     stroke-linejoin="bevel"
     stroke-width="2.34"
     stroke="#000000"
     class="Stem" />
  <polyline
     transform="translate(-360,-390.12)"
     id="polyline13564"
     points="2193.71,537.095 2193.71,476.094"
     stroke-linejoin="bevel"
     stroke-width="2.34"
     stroke="#000000"
     class="Stem" />
  <polyline
     transform="translate(-360,-390.12)"
     id="polyline13566"
     points="2246.75,547.715 2246.75,483.174"
     stroke-linejoin="bevel"
     stroke-width="2.34"
     stroke="#000000"
     class="Stem" />
  <polyline
     transform="translate(-360,-390.12)"
     id="polyline13568"
     points="2299.79,558.335 2299.79,490.254"
     stroke-linejoin="bevel"
     stroke-width="2.34"
     stroke="#000000"
     class="Stem" />
  <polyline
     transform="translate(-360,-390.12)"
     id="polyline13570"
     points="2352.84,568.955 2352.84,497.334"
     stroke-linejoin="bevel"
     stroke-width="2.34"
     stroke="#000000"
     class="Stem" />
  <polyline
     transform="translate(-360,-390.12)"
     id="polyline13572"
     points="2405.88,547.715 2405.88,497.334"
     stroke-linejoin="bevel"
     stroke-width="2.34"
     stroke="#000000"
     class="Stem" />
  <polyline
     transform="translate(-360,-390.12)"
     id="polyline13574"
     points="2490.75,547.715 2490.75,497.334"
     stroke-linejoin="bevel"
     stroke-width="2.34"
     stroke="#000000"
     class="Stem" />
  <polyline
     transform="translate(-360,-390.12)"
     id="polyline13576"
     points="2612.36,547.715 2612.36,497.334"
     stroke-linejoin="bevel"
     stroke-width="2.34"
     stroke="#000000"
     class="Stem" />
  <path
     style="stroke-width:0.8496"
     id="path13644"
     d="m 454.4574,291.49224 c -1.52928,-2.80368 -4.75776,-4.33296 -8.66592,-4.33296 -2.88864,0 -6.03216,0.8496 -9.09072,2.46384 -5.60736,2.9736 -9.00576,7.98624 -9.00576,12.3192 0,1.18944 0.25488,2.37888 0.8496,3.48336 1.52928,2.80368 4.75776,4.248 8.66592,4.248 2.88864,0 6.03216,-0.76464 9.09072,-2.37888 5.60736,-2.9736 9.00576,-7.98624 9.00576,-12.3192 0,-1.18944 -0.25488,-2.37888 -0.8496,-3.48336"
     class="Note" />
  <path
     style="stroke-width:0.8496"
     id="path13646"
     d="m 1127.3124,291.49224 c -1.5293,-2.80368 -4.7578,-4.33296 -8.6659,-4.33296 -2.8887,0 -6.0322,0.8496 -9.0907,2.46384 -5.6074,2.9736 -9.0058,7.98624 -9.0058,12.3192 0,1.18944 0.2549,2.37888 0.8496,3.48336 1.5293,2.80368 4.7578,4.248 8.6659,4.248 2.8887,0 6.0322,-0.76464 9.0907,-2.37888 5.6074,-2.9736 9.0058,-7.98624 9.0058,-12.3192 0,-1.18944 -0.2549,-2.37888 -0.8496,-3.48336"
     class="Note" />
  <path
     style="stroke-width:0.8496"
     id="path13648"
     d="m 2252.6924,291.49224 c -1.5293,-2.80368 -4.7578,-4.33296 -8.6659,-4.33296 -2.8887,0 -6.0322,0.8496 -9.0907,2.46384 -5.6074,2.9736 -9.0058,7.98624 -9.0058,12.3192 0,1.18944 0.2549,2.37888 0.8496,3.48336 1.5293,2.80368 4.7578,4.248 8.6659,4.248 2.8887,0 6.0322,-0.76464 9.0907,-2.37888 5.6074,-2.9736 9.0058,-7.98624 9.0058,-12.3192 0,-1.18944 -0.2549,-2.37888 -0.8496,-3.48336"
     class="Note" />
  <path
     style="stroke-width:0.8496"
     id="path13652"
     d="m 246.2914,249.01224 c -1.52928,-2.80368 -4.75776,-4.33296 -8.66592,-4.33296 -2.88864,0 -6.03216,0.8496 -9.09072,2.46384 -5.60736,2.9736 -9.00576,7.98624 -9.00576,12.3192 0,1.18944 0.25488,2.37888 0.8496,3.48336 1.52928,2.80368 4.75776,4.248 8.66592,4.248 2.88864,0 6.03216,-0.76464 9.09072,-2.37888 5.60736,-2.9736 9.00576,-7.98624 9.00576,-12.3192 0,-1.18944 -0.25488,-2.37888 -0.8496,-3.48336"
     class="Note" />
  <path
     style="stroke-width:0.8496"
     id="path13654"
     d="m 454.4574,249.01224 c -1.52928,-2.80368 -4.75776,-4.33296 -8.66592,-4.33296 -2.88864,0 -6.03216,0.8496 -9.09072,2.46384 -5.60736,2.9736 -9.00576,7.98624 -9.00576,12.3192 0,1.18944 0.25488,2.37888 0.8496,3.48336 1.52928,2.80368 4.75776,4.248 8.66592,4.248 2.88864,0 6.03216,-0.76464 9.09072,-2.37888 5.60736,-2.9736 9.00576,-7.98624 9.00576,-12.3192 0,-1.18944 -0.25488,-2.37888 -0.8496,-3.48336"
     class="Note" />
  <path
     style="stroke-width:0.8496"
     id="path13656"
     d="m 1127.3124,238.39224 c -1.5293,-2.80368 -4.7578,-4.33296 -8.6659,-4.33296 -2.8887,0 -6.0322,0.8496 -9.0907,2.46384 -5.6074,2.9736 -9.0058,7.98624 -9.0058,12.3192 0,1.18944 0.2549,2.37888 0.8496,3.48336 1.5293,2.80368 4.7578,4.248 8.6659,4.248 2.8887,0 6.0322,-0.76464 9.0907,-2.37888 5.6074,-2.9736 9.0058,-7.98624 9.0058,-12.3192 0,-1.18944 -0.2549,-2.37888 -0.8496,-3.48336"
     class="Note" />
  <path
     style="stroke-width:0.8496"
     id="path13658"
     d="m 1340.4124,227.77224 c -1.5293,-2.80368 -4.7578,-4.33296 -8.6659,-4.33296 -2.8887,0 -6.0322,0.8496 -9.0907,2.46384 -5.6074,2.9736 -9.0058,7.98624 -9.0058,12.3192 0,1.18944 0.2549,2.37888 0.8496,3.48336 1.5293,2.80368 4.7578,4.248 8.6659,4.248 2.8887,0 6.0322,-0.76464 9.0907,-2.37888 5.6074,-2.9736 9.0058,-7.98624 9.0058,-12.3192 0,-1.18944 -0.2549,-2.37888 -0.8496,-3.48336"
     class="Note" />
  <path
     style="stroke-width:0.8496"
     id="path13660"
     d="m 1834.0324,249.01224 c -1.5293,-2.80368 -4.7578,-4.33296 -8.6659,-4.33296 -2.8887,0 -6.0322,0.8496 -9.0907,2.46384 -5.6074,2.9736 -9.0058,7.98624 -9.0058,12.3192 0,1.18944 0.2549,2.37888 0.8496,3.48336 1.5293,2.80368 4.7578,4.248 8.6659,4.248 2.8887,0 6.0322,-0.76464 9.0907,-2.37888 5.6074,-2.9736 9.0058,-7.98624 9.0058,-12.3192 0,-1.18944 -0.2549,-2.37888 -0.8496,-3.48336"
     class="Note" />
  <path
     style="stroke-width:0.8496"
     id="path13662"
     d="m 2046.2024,249.01224 c -1.5293,-2.80368 -4.7578,-4.33296 -8.6659,-4.33296 -2.8887,0 -6.0322,0.8496 -9.0907,2.46384 -5.6074,2.9736 -9.0058,7.98624 -9.0058,12.3192 0,1.18944 0.2549,2.37888 0.8496,3.48336 1.5293,2.80368 4.7578,4.248 8.6659,4.248 2.8887,0 6.0322,-0.76464 9.0907,-2.37888 5.6074,-2.9736 9.0058,-7.98624 9.0058,-12.3192 0,-1.18944 -0.2549,-2.37888 -0.8496,-3.48336"
     class="Note" />
  <path
     style="stroke-width:0.8496"
     id="path13664"
     d="m 2252.6924,249.01224 c -1.5293,-2.80368 -4.7578,-4.33296 -8.6659,-4.33296 -2.8887,0 -6.0322,0.8496 -9.0907,2.46384 -5.6074,2.9736 -9.0058,7.98624 -9.0058,12.3192 0,1.18944 0.2549,2.37888 0.8496,3.48336 1.5293,2.80368 4.7578,4.248 8.6659,4.248 2.8887,0 6.0322,-0.76464 9.0907,-2.37888 5.6074,-2.9736 9.0058,-7.98624 9.0058,-12.3192 0,-1.18944 -0.2549,-2.37888 -0.8496,-3.48336"
     class="Note" />
  <path
     style="stroke-width:0.8496"
     id="path13676"
     d="m 246.2914,206.53224 c -1.52928,-2.80368 -4.75776,-4.33296 -8.66592,-4.33296 -2.88864,0 -6.03216,0.8496 -9.09072,2.46384 -5.60736,2.9736 -9.00576,7.98624 -9.00576,12.3192 0,1.18944 0.25488,2.37888 0.8496,3.48336 1.52928,2.80368 4.75776,4.248 8.66592,4.248 2.88864,0 6.03216,-0.76464 9.09072,-2.37888 5.60736,-2.9736 9.00576,-7.98624 9.00576,-12.3192 0,-1.18944 -0.25488,-2.37888 -0.8496,-3.48336"
     class="Note" />
  <path
     style="stroke-width:0.8496"
     id="path13678"
     d="m 454.4574,195.91224 c -1.52928,-2.80368 -4.75776,-4.33296 -8.66592,-4.33296 -2.88864,0 -6.03216,0.8496 -9.09072,2.46384 -5.60736,2.9736 -9.00576,7.98624 -9.00576,12.3192 0,1.18944 0.25488,2.37888 0.8496,3.48336 1.52928,2.80368 4.75776,4.248 8.66592,4.248 2.88864,0 6.03216,-0.76464 9.09072,-2.37888 5.60736,-2.9736 9.00576,-7.98624 9.00576,-12.3192 0,-1.18944 -0.25488,-2.37888 -0.8496,-3.48336"
     class="Note" />
  <path
     style="stroke-width:0.8496"
     id="path13680"
     d="m 673.4524,195.91224 c -1.52928,-2.80368 -4.75776,-4.33296 -8.66592,-4.33296 -2.88864,0 -6.03216,0.8496 -9.09072,2.46384 -5.60736,2.9736 -9.00576,7.98624 -9.00576,12.3192 0,1.18944 0.25488,2.37888 0.8496,3.48336 1.52928,2.80368 4.75776,4.248 8.66592,4.248 2.88864,0 6.03216,-0.76464 9.09072,-2.37888 5.60736,-2.9736 9.00576,-7.98624 9.00576,-12.3192 0,-1.18944 -0.25488,-2.37888 -0.8496,-3.48336"
     class="Note" />
  <path
     style="stroke-width:0.59472"
     id="path13682"
     d="m 626.14968,219.21677 c -1.0705,-1.96258 -3.33043,-3.03307 -6.06614,-3.03307 -2.02205,0 -4.22252,0.59472 -6.36351,1.72468 -3.92515,2.08152 -6.30403,5.59037 -6.30403,8.62344 0,0.83261 0.17842,1.66522 0.59472,2.43836 1.0705,1.96257 3.33043,2.9736 6.06614,2.9736 2.02205,0 4.22252,-0.53525 6.36351,-1.66522 3.92515,-2.08152 6.30403,-5.59037 6.30403,-8.62344 0,-0.83261 -0.17842,-1.66522 -0.59472,-2.43835"
     class="Note" />
  <path
     style="stroke-width:0.8496"
     id="path13684"
     d="m 906.8824,238.39224 c -1.52928,-2.80368 -4.75776,-4.33296 -8.66592,-4.33296 -2.88864,0 -6.03216,0.8496 -9.09072,2.46384 -5.60736,2.9736 -9.00576,7.98624 -9.00576,12.3192 0,1.18944 0.25488,2.37888 0.8496,3.48336 1.52928,2.80368 4.75776,4.248 8.66592,4.248 2.88864,0 6.03216,-0.76464 9.09072,-2.37888 5.60736,-2.9736 9.00576,-7.98624 9.00576,-12.3192 0,-1.18944 -0.25488,-2.37888 -0.8496,-3.48336 m -3.65328,5.77728 c -1.44432,1.44432 -4.33296,3.22848 -7.39152,4.92768 -3.05856,1.6992 -6.11712,2.9736 -8.15616,3.3984 -0.4248,0.085 -0.8496,0.16992 -1.2744,0.16992 -1.35936,0 -2.37888,-0.50976 -2.9736,-1.61424 -0.25488,-0.4248 -0.4248,-0.93456 -0.4248,-1.44432 0,-0.93456 0.59472,-2.03904 1.52928,-2.9736 1.44432,-1.44432 4.248,-3.22848 7.30656,-4.92768 3.05856,-1.6992 6.11712,-2.9736 8.15616,-3.3984 0.4248,-0.085 0.8496,-0.16992 1.2744,-0.16992 1.35936,0 2.46384,0.50976 3.05856,1.61424 0.25488,0.4248 0.33984,0.93456 0.33984,1.44432 0,0.93456 -0.50976,1.95408 -1.44432,2.9736"
     class="Note" />
  <path
     style="stroke-width:0.8496"
     id="path13686"
     d="m 1127.3124,185.29224 c -1.5293,-2.80368 -4.7578,-4.33296 -8.6659,-4.33296 -2.8887,0 -6.0322,0.8496 -9.0907,2.46384 -5.6074,2.9736 -9.0058,7.98624 -9.0058,12.3192 0,1.18944 0.2549,2.37888 0.8496,3.48336 1.5293,2.80368 4.7578,4.248 8.6659,4.248 2.8887,0 6.0322,-0.76464 9.0907,-2.37888 5.6074,-2.9736 9.0058,-7.98624 9.0058,-12.3192 0,-1.18944 -0.2549,-2.37888 -0.8496,-3.48336"
     class="Note" />
  <path
     style="stroke-width:0.8496"
     id="path13688"
     d="m 1340.4124,174.67224 c -1.5293,-2.80368 -4.7578,-4.33296 -8.6659,-4.33296 -2.8887,0 -6.0322,0.8496 -9.0907,2.46384 -5.6074,2.9736 -9.0058,7.98624 -9.0058,12.3192 0,1.18944 0.2549,2.37888 0.8496,3.48336 1.5293,2.80368 4.7578,4.248 8.6659,4.248 2.8887,0 6.0322,-0.76464 9.0907,-2.37888 5.6074,-2.9736 9.0058,-7.98624 9.0058,-12.3192 0,-1.18944 -0.2549,-2.37888 -0.8496,-3.48336"
     class="Note" />
  <path
     style="stroke-width:0.8496"
     id="path13690"
     d="m 1556.8224,206.53224 c -1.5293,-2.80368 -4.7578,-4.33296 -8.6659,-4.33296 -2.8887,0 -6.0322,0.8496 -9.0907,2.46384 -5.6074,2.9736 -9.0058,7.98624 -9.0058,12.3192 0,1.18944 0.2549,2.37888 0.8496,3.48336 1.5293,2.80368 4.7578,4.248 8.6659,4.248 2.8887,0 6.0322,-0.76464 9.0907,-2.37888 5.6074,-2.9736 9.0058,-7.98624 9.0058,-12.3192 0,-1.18944 -0.2549,-2.37888 -0.8496,-3.48336"
     class="Note" />
  <path
     style="stroke-width:0.8496"
     id="path13692"
     d="m 1834.0324,206.53224 c -1.5293,-2.80368 -4.7578,-4.33296 -8.6659,-4.33296 -2.8887,0 -6.0322,0.8496 -9.0907,2.46384 -5.6074,2.9736 -9.0058,7.98624 -9.0058,12.3192 0,1.18944 0.2549,2.37888 0.8496,3.48336 1.5293,2.80368 4.7578,4.248 8.6659,4.248 2.8887,0 6.0322,-0.76464 9.0907,-2.37888 5.6074,-2.9736 9.0058,-7.98624 9.0058,-12.3192 0,-1.18944 -0.2549,-2.37888 -0.8496,-3.48336"
     class="Note" />
  <path
     style="stroke-width:0.8496"
     id="path13694"
     d="m 2046.2024,206.53224 c -1.5293,-2.80368 -4.7578,-4.33296 -8.6659,-4.33296 -2.8887,0 -6.0322,0.8496 -9.0907,2.46384 -5.6074,2.9736 -9.0058,7.98624 -9.0058,12.3192 0,1.18944 0.2549,2.37888 0.8496,3.48336 1.5293,2.80368 4.7578,4.248 8.6659,4.248 2.8887,0 6.0322,-0.76464 9.0907,-2.37888 5.6074,-2.9736 9.0058,-7.98624 9.0058,-12.3192 0,-1.18944 -0.2549,-2.37888 -0.8496,-3.48336"
     class="Note" />
  <path
     style="stroke-width:0.8496"
     id="path13696"
     d="m 2252.6924,195.91224 c -1.5293,-2.80368 -4.7578,-4.33296 -8.6659,-4.33296 -2.8887,0 -6.0322,0.8496 -9.0907,2.46384 -5.6074,2.9736 -9.0058,7.98624 -9.0058,12.3192 0,1.18944 0.2549,2.37888 0.8496,3.48336 1.5293,2.80368 4.7578,4.248 8.6659,4.248 2.8887,0 6.0322,-0.76464 9.0907,-2.37888 5.6074,-2.9736 9.0058,-7.98624 9.0058,-12.3192 0,-1.18944 -0.2549,-2.37888 -0.8496,-3.48336"
     class="Note" />
  <path
     style="stroke-width:0.8496"
     id="path13710"
     d="m 246.2914,153.43224 c -1.52928,-2.80368 -4.75776,-4.33296 -8.66592,-4.33296 -2.88864,0 -6.03216,0.8496 -9.09072,2.46384 -5.60736,2.9736 -9.00576,7.98624 -9.00576,12.3192 0,1.18944 0.25488,2.37888 0.8496,3.48336 1.52928,2.80368 4.75776,4.248 8.66592,4.248 2.88864,0 6.03216,-0.76464 9.09072,-2.37888 5.60736,-2.9736 9.00576,-7.98624 9.00576,-12.3192 0,-1.18944 -0.25488,-2.37888 -0.8496,-3.48336"
     class="Note" />
  <path
     style="stroke-width:0.8496"
     id="path13712"
     d="m 332.0014,153.43224 c -1.52928,-2.80368 -4.75776,-4.33296 -8.66592,-4.33296 -2.88864,0 -6.03216,0.8496 -9.09072,2.46384 -5.60736,2.9736 -9.00576,7.98624 -9.00576,12.3192 0,1.18944 0.25488,2.37888 0.8496,3.48336 1.52928,2.80368 4.75776,4.248 8.66592,4.248 2.88864,0 6.03216,-0.76464 9.09072,-2.37888 5.60736,-2.9736 9.00576,-7.98624 9.00576,-12.3192 0,-1.18944 -0.25488,-2.37888 -0.8496,-3.48336"
     class="Note" />
  <path
     style="stroke-width:0.8496"
     id="path13714"
     d="m 454.4574,153.43224 c -1.52928,-2.80368 -4.75776,-4.33296 -8.66592,-4.33296 -2.88864,0 -6.03216,0.8496 -9.09072,2.46384 -5.60736,2.9736 -9.00576,7.98624 -9.00576,12.3192 0,1.18944 0.25488,2.37888 0.8496,3.48336 1.52928,2.80368 4.75776,4.248 8.66592,4.248 2.88864,0 6.03216,-0.76464 9.09072,-2.37888 5.60736,-2.9736 9.00576,-7.98624 9.00576,-12.3192 0,-1.18944 -0.25488,-2.37888 -0.8496,-3.48336"
     class="Note" />
  <path
     style="stroke-width:0.8496"
     id="path13716"
     d="m 545.1784,164.05224 c -1.52928,-2.80368 -4.75776,-4.33296 -8.66592,-4.33296 -2.88864,0 -6.03216,0.8496 -9.09072,2.46384 -5.60736,2.9736 -9.00576,7.98624 -9.00576,12.3192 0,1.18944 0.25488,2.37888 0.8496,3.48336 1.52928,2.80368 4.75776,4.248 8.66592,4.248 2.88864,0 6.03216,-0.76464 9.09072,-2.37888 5.60736,-2.9736 9.00576,-7.98624 9.00576,-12.3192 0,-1.18944 -0.25488,-2.37888 -0.8496,-3.48336"
     class="Note" />
  <path
     style="stroke-width:0.8496"
     id="path13718"
     d="m 601.8794,174.67224 c -1.52928,-2.80368 -4.75776,-4.33296 -8.66592,-4.33296 -2.88864,0 -6.03216,0.8496 -9.09072,2.46384 -5.60736,2.9736 -9.00576,7.98624 -9.00576,12.3192 0,1.18944 0.25488,2.37888 0.8496,3.48336 1.52928,2.80368 4.75776,4.248 8.66592,4.248 2.88864,0 6.03216,-0.76464 9.09072,-2.37888 5.60736,-2.9736 9.00576,-7.98624 9.00576,-12.3192 0,-1.18944 -0.25488,-2.37888 -0.8496,-3.48336"
     class="Note" />
  <path
     style="stroke-width:0.8496"
     id="path13720"
     d="m 673.4524,164.05224 c -1.52928,-2.80368 -4.75776,-4.33296 -8.66592,-4.33296 -2.88864,0 -6.03216,0.8496 -9.09072,2.46384 -5.60736,2.9736 -9.00576,7.98624 -9.00576,12.3192 0,1.18944 0.25488,2.37888 0.8496,3.48336 1.52928,2.80368 4.75776,4.248 8.66592,4.248 2.88864,0 6.03216,-0.76464 9.09072,-2.37888 5.60736,-2.9736 9.00576,-7.98624 9.00576,-12.3192 0,-1.18944 -0.25488,-2.37888 -0.8496,-3.48336"
     class="Note" />
  <path
     style="stroke-width:0.8496"
     id="path13722"
     d="m 730.1524,153.43224 c -1.52928,-2.80368 -4.75776,-4.33296 -8.66592,-4.33296 -2.88864,0 -6.03216,0.8496 -9.09072,2.46384 -5.60736,2.9736 -9.00576,7.98624 -9.00576,12.3192 0,1.18944 0.25488,2.37888 0.8496,3.48336 1.52928,2.80368 4.75776,4.248 8.66592,4.248 2.88864,0 6.03216,-0.76464 9.09072,-2.37888 5.60736,-2.9736 9.00576,-7.98624 9.00576,-12.3192 0,-1.18944 -0.25488,-2.37888 -0.8496,-3.48336"
     class="Note" />
  <path
     style="stroke-width:0.8496"
     id="path13724"
     d="m 786.8524,142.81224 c -1.52928,-2.80368 -4.75776,-4.33296 -8.66592,-4.33296 -2.88864,0 -6.03216,0.8496 -9.09072,2.46384 -5.60736,2.9736 -9.00576,7.98624 -9.00576,12.3192 0,1.18944 0.25488,2.37888 0.8496,3.48336 1.52928,2.80368 4.75776,4.248 8.66592,4.248 2.88864,0 6.03216,-0.76464 9.09072,-2.37888 5.60736,-2.9736 9.00576,-7.98624 9.00576,-12.3192 0,-1.18944 -0.25488,-2.37888 -0.8496,-3.48336"
     class="Note" />
  <path
     style="stroke-width:0.8496"
     id="path13726"
     d="m 906.8824,174.67224 c -1.52928,-2.80368 -4.75776,-4.33296 -8.66592,-4.33296 -2.88864,0 -6.03216,0.8496 -9.09072,2.46384 -5.60736,2.9736 -9.00576,7.98624 -9.00576,12.3192 0,1.18944 0.25488,2.37888 0.8496,3.48336 1.52928,2.80368 4.75776,4.248 8.66592,4.248 2.88864,0 6.03216,-0.76464 9.09072,-2.37888 5.60736,-2.9736 9.00576,-7.98624 9.00576,-12.3192 0,-1.18944 -0.25488,-2.37888 -0.8496,-3.48336"
     class="Note" />
  <path
     style="stroke-width:0.8496"
     id="path13728"
     d="m 961.9924,185.29224 c -1.52928,-2.80368 -4.75776,-4.33296 -8.66592,-4.33296 -2.88864,0 -6.03216,0.8496 -9.09072,2.46384 -5.60736,2.9736 -9.00576,7.98624 -9.00576,12.3192 0,1.18944 0.25488,2.37888 0.8496,3.48336 1.52928,2.80368 4.75776,4.248 8.66592,4.248 2.88864,0 6.03216,-0.76464 9.09072,-2.37888 5.60736,-2.9736 9.00576,-7.98624 9.00576,-12.3192 0,-1.18944 -0.25488,-2.37888 -0.8496,-3.48336"
     class="Note" />
  <path
     style="stroke-width:0.8496"
     id="path13730"
     d="m 1017.1024,195.91224 c -1.5293,-2.80368 -4.7578,-4.33296 -8.6659,-4.33296 -2.8887,0 -6.0322,0.8496 -9.09074,2.46384 -5.60736,2.9736 -9.00576,7.98624 -9.00576,12.3192 0,1.18944 0.25488,2.37888 0.8496,3.48336 1.52928,2.80368 4.75776,4.248 8.66592,4.248 2.88868,0 6.03218,-0.76464 9.09068,-2.37888 5.6074,-2.9736 9.0058,-7.98624 9.0058,-12.3192 0,-1.18944 -0.2549,-2.37888 -0.8496,-3.48336"
     class="Note" />
  <path
     style="stroke-width:0.8496"
     id="path13732"
     d="m 1072.2124,206.53224 c -1.5293,-2.80368 -4.7578,-4.33296 -8.6659,-4.33296 -2.8887,0 -6.0322,0.8496 -9.0907,2.46384 -5.6074,2.9736 -9.0058,7.98624 -9.0058,12.3192 0,1.18944 0.2549,2.37888 0.8496,3.48336 1.5293,2.80368 4.7578,4.248 8.6659,4.248 2.8887,0 6.0322,-0.76464 9.0907,-2.37888 5.6074,-2.9736 9.0058,-7.98624 9.0058,-12.3192 0,-1.18944 -0.2549,-2.37888 -0.8496,-3.48336"
     class="Note" />
  <path
     style="stroke-width:0.8496"
     id="path13734"
     d="m 1127.3124,132.19224 c -1.5293,-2.80368 -4.7578,-4.33296 -8.6659,-4.33296 -2.8887,0 -6.0322,0.8496 -9.0907,2.46384 -5.6074,2.9736 -9.0058,7.98624 -9.0058,12.3192 0,1.18944 0.2549,2.37888 0.8496,3.48336 1.5293,2.80368 4.7578,4.248 8.6659,4.248 2.8887,0 6.0322,-0.76464 9.0907,-2.37888 5.6074,-2.9736 9.0058,-7.98624 9.0058,-12.3192 0,-1.18944 -0.2549,-2.37888 -0.8496,-3.48336"
     class="Note" />
  <path
     style="stroke-width:0.8496"
     id="path13736"
     d="m 1215.4924,132.19224 c -1.5293,-2.80368 -4.7578,-4.33296 -8.6659,-4.33296 -2.8887,0 -6.0322,0.8496 -9.0907,2.46384 -5.6074,2.9736 -9.0058,7.98624 -9.0058,12.3192 0,1.18944 0.2549,2.37888 0.8496,3.48336 1.5293,2.80368 4.7578,4.248 8.6659,4.248 2.8887,0 6.0322,-0.76464 9.0907,-2.37888 5.6074,-2.9736 9.0058,-7.98624 9.0058,-12.3192 0,-1.18944 -0.2549,-2.37888 -0.8496,-3.48336"
     class="Note" />
  <path
     style="stroke-width:0.8496"
     id="path13738"
     d="m 1340.4124,132.19224 c -1.5293,-2.80368 -4.7578,-4.33296 -8.6659,-4.33296 -2.8887,0 -6.0322,0.8496 -9.0907,2.46384 -5.6074,2.9736 -9.0058,7.98624 -9.0058,12.3192 0,1.18944 0.2549,2.37888 0.8496,3.48336 1.5293,2.80368 4.7578,4.248 8.6659,4.248 2.8887,0 6.0322,-0.76464 9.0907,-2.37888 5.6074,-2.9736 9.0058,-7.98624 9.0058,-12.3192 0,-1.18944 -0.2549,-2.37888 -0.8496,-3.48336"
     class="Note" />
  <path
     style="stroke-width:0.8496"
     id="path13740"
     d="m 1436.5924,121.57224 c -1.5293,-2.80368 -4.7578,-4.33296 -8.6659,-4.33296 -2.8887,0 -6.0322,0.8496 -9.0907,2.46384 -5.6074,2.9736 -9.0058,7.98624 -9.0058,12.3192 0,1.18944 0.2549,2.37888 0.8496,3.48336 1.5293,2.80368 4.7578,4.248 8.6659,4.248 2.8887,0 6.0322,-0.76464 9.0907,-2.37888 5.6074,-2.9736 9.0058,-7.98624 9.0058,-12.3192 0,-1.18944 -0.2549,-2.37888 -0.8496,-3.48336"
     class="Note" />
  <path
     style="stroke-width:0.8496"
     id="path13742"
     d="m 1496.7124,132.19224 c -1.5293,-2.80368 -4.7578,-4.33296 -8.6659,-4.33296 -2.8887,0 -6.0322,0.8496 -9.0907,2.46384 -5.6074,2.9736 -9.0058,7.98624 -9.0058,12.3192 0,1.18944 0.2549,2.37888 0.8496,3.48336 1.5293,2.80368 4.7578,4.248 8.6659,4.248 2.8887,0 6.0322,-0.76464 9.0907,-2.37888 5.6074,-2.9736 9.0058,-7.98624 9.0058,-12.3192 0,-1.18944 -0.2549,-2.37888 -0.8496,-3.48336"
     class="Note" />
  <path
     style="stroke-width:0.8496"
     id="path13744"
     d="m 1556.8224,142.81224 c -1.5293,-2.80368 -4.7578,-4.33296 -8.6659,-4.33296 -2.8887,0 -6.0322,0.8496 -9.0907,2.46384 -5.6074,2.9736 -9.0058,7.98624 -9.0058,12.3192 0,1.18944 0.2549,2.37888 0.8496,3.48336 1.5293,2.80368 4.7578,4.248 8.6659,4.248 2.8887,0 6.0322,-0.76464 9.0907,-2.37888 5.6074,-2.9736 9.0058,-7.98624 9.0058,-12.3192 0,-1.18944 -0.2549,-2.37888 -0.8496,-3.48336"
     class="Note" />
  <path
     style="stroke-width:0.8496"
     id="path13746"
     d="m 1616.9424,153.43224 c -1.5293,-2.80368 -4.7578,-4.33296 -8.6659,-4.33296 -2.8887,0 -6.0322,0.8496 -9.0907,2.46384 -5.6074,2.9736 -9.0058,7.98624 -9.0058,12.3192 0,1.18944 0.2549,2.37888 0.8496,3.48336 1.5293,2.80368 4.7578,4.248 8.6659,4.248 2.8887,0 6.0322,-0.76464 9.0907,-2.37888 5.6074,-2.9736 9.0058,-7.98624 9.0058,-12.3192 0,-1.18944 -0.2549,-2.37888 -0.8496,-3.48336"
     class="Note" />
  <path
     style="stroke-width:0.8496"
     id="path13748"
     d="m 1677.0524,164.05224 c -1.5293,-2.80368 -4.7578,-4.33296 -8.6659,-4.33296 -2.8887,0 -6.0322,0.8496 -9.0907,2.46384 -5.6074,2.9736 -9.0058,7.98624 -9.0058,12.3192 0,1.18944 0.2549,2.37888 0.8496,3.48336 1.5293,2.80368 4.7578,4.248 8.6659,4.248 2.8887,0 6.0322,-0.76464 9.0907,-2.37888 5.6074,-2.9736 9.0058,-7.98624 9.0058,-12.3192 0,-1.18944 -0.2549,-2.37888 -0.8496,-3.48336"
     class="Note" />
  <path
     style="stroke-width:0.8496"
     id="path13750"
     d="m 1737.1724,153.43224 c -1.5293,-2.80368 -4.7578,-4.33296 -8.6659,-4.33296 -2.8887,0 -6.0322,0.8496 -9.0907,2.46384 -5.6074,2.9736 -9.0058,7.98624 -9.0058,12.3192 0,1.18944 0.2549,2.37888 0.8496,3.48336 1.5293,2.80368 4.7578,4.248 8.6659,4.248 2.8887,0 6.0322,-0.76464 9.0907,-2.37888 5.6074,-2.9736 9.0058,-7.98624 9.0058,-12.3192 0,-1.18944 -0.2549,-2.37888 -0.8496,-3.48336"
     class="Note" />
  <path
     style="stroke-width:0.8496"
     id="path13752"
     d="m 1834.0324,142.81224 c -1.5293,-2.80368 -4.7578,-4.33296 -8.6659,-4.33296 -2.8887,0 -6.0322,0.8496 -9.0907,2.46384 -5.6074,2.9736 -9.0058,7.98624 -9.0058,12.3192 0,1.18944 0.2549,2.37888 0.8496,3.48336 1.5293,2.80368 4.7578,4.248 8.6659,4.248 2.8887,0 6.0322,-0.76464 9.0907,-2.37888 5.6074,-2.9736 9.0058,-7.98624 9.0058,-12.3192 0,-1.18944 -0.2549,-2.37888 -0.8496,-3.48336"
     class="Note" />
  <path
     style="stroke-width:0.8496"
     id="path13754"
     d="m 1887.0724,153.43224 c -1.5293,-2.80368 -4.7578,-4.33296 -8.6659,-4.33296 -2.8887,0 -6.0322,0.8496 -9.0907,2.46384 -5.6074,2.9736 -9.0058,7.98624 -9.0058,12.3192 0,1.18944 0.2549,2.37888 0.8496,3.48336 1.5293,2.80368 4.7578,4.248 8.6659,4.248 2.8887,0 6.0322,-0.76464 9.0907,-2.37888 5.6074,-2.9736 9.0058,-7.98624 9.0058,-12.3192 0,-1.18944 -0.2549,-2.37888 -0.8496,-3.48336"
     class="Note" />
  <path
     style="stroke-width:0.8496"
     id="path13756"
     d="m 1940.1224,164.05224 c -1.5293,-2.80368 -4.7578,-4.33296 -8.6659,-4.33296 -2.8887,0 -6.0322,0.8496 -9.0907,2.46384 -5.6074,2.9736 -9.0058,7.98624 -9.0058,12.3192 0,1.18944 0.2549,2.37888 0.8496,3.48336 1.5293,2.80368 4.7578,4.248 8.6659,4.248 2.8887,0 6.0322,-0.76464 9.0907,-2.37888 5.6074,-2.9736 9.0058,-7.98624 9.0058,-12.3192 0,-1.18944 -0.2549,-2.37888 -0.8496,-3.48336"
     class="Note" />
  <path
     style="stroke-width:0.8496"
     id="path13758"
     d="m 1993.1624,174.67224 c -1.5293,-2.80368 -4.7578,-4.33296 -8.6659,-4.33296 -2.8887,0 -6.0322,0.8496 -9.0907,2.46384 -5.6074,2.9736 -9.0058,7.98624 -9.0058,12.3192 0,1.18944 0.2549,2.37888 0.8496,3.48336 1.5293,2.80368 4.7578,4.248 8.6659,4.248 2.8887,0 6.0322,-0.76464 9.0907,-2.37888 5.6074,-2.9736 9.0058,-7.98624 9.0058,-12.3192 0,-1.18944 -0.2549,-2.37888 -0.8496,-3.48336"
     class="Note" />
  <path
     style="stroke-width:0.8496"
     id="path13760"
     d="m 2046.2024,153.43224 c -1.5293,-2.80368 -4.7578,-4.33296 -8.6659,-4.33296 -2.8887,0 -6.0322,0.8496 -9.0907,2.46384 -5.6074,2.9736 -9.0058,7.98624 -9.0058,12.3192 0,1.18944 0.2549,2.37888 0.8496,3.48336 1.5293,2.80368 4.7578,4.248 8.6659,4.248 2.8887,0 6.0322,-0.76464 9.0907,-2.37888 5.6074,-2.9736 9.0058,-7.98624 9.0058,-12.3192 0,-1.18944 -0.2549,-2.37888 -0.8496,-3.48336"
     class="Note" />
  <path
     style="stroke-width:0.8496"
     id="path13762"
     d="m 2131.0724,153.43224 c -1.5293,-2.80368 -4.7578,-4.33296 -8.6659,-4.33296 -2.8887,0 -6.0322,0.8496 -9.0907,2.46384 -5.6074,2.9736 -9.0058,7.98624 -9.0058,12.3192 0,1.18944 0.2549,2.37888 0.8496,3.48336 1.5293,2.80368 4.7578,4.248 8.6659,4.248 2.8887,0 6.0322,-0.76464 9.0907,-2.37888 5.6074,-2.9736 9.0058,-7.98624 9.0058,-12.3192 0,-1.18944 -0.2549,-2.37888 -0.8496,-3.48336"
     class="Note" />
  <path
     style="stroke-width:0.8496"
     id="path13764"
     d="m 2252.6924,153.43224 c -1.5293,-2.80368 -4.7578,-4.33296 -8.6659,-4.33296 -2.8887,0 -6.0322,0.8496 -9.0907,2.46384 -5.6074,2.9736 -9.0058,7.98624 -9.0058,12.3192 0,1.18944 0.2549,2.37888 0.8496,3.48336 1.5293,2.80368 4.7578,4.248 8.6659,4.248 2.8887,0 6.0322,-0.76464 9.0907,-2.37888 5.6074,-2.9736 9.0058,-7.98624 9.0058,-12.3192 0,-1.18944 -0.2549,-2.37888 -0.8496,-3.48336"
     class="Note" />
  <path
     style="stroke-width:0.8496"
     id="path13832"
     d="m 24.2136,152.32776 h -6.11712 c -0.59472,0 -1.10448,0.50976 -1.10448,1.10448 v 77.3136 c 0,0.59472 0.50976,1.10448 1.10448,1.10448 h 6.11712 c 0.59472,0 1.10448,-0.50976 1.10448,-1.10448 v -77.3136 c 0,-0.59472 -0.50976,-1.10448 -1.10448,-1.10448 m 30.5856,43.24464 h -1.2744 c -1.95408,0 -3.3984,0.16992 -6.71184,2.20896 0,0 -1.86912,-3.73824 -4.6728,-5.69232 2.80368,-1.95408 4.6728,-5.69232 4.6728,-5.69232 3.31344,2.03904 4.75776,2.20896 6.71184,2.20896 h 1.2744 c 10.36512,0 15.46272,-9.60048 15.46272,-18.77616 0,-11.8944 -8.75088,-18.60624 -19.03104,-18.60624 -9.3456,0 -13.25376,4.6728 -13.25376,4.6728 -1.52928,1.86912 -2.20896,3.90816 -2.20896,5.77728 0,1.52928 0.4248,2.9736 1.2744,4.248 1.18944,1.6992 3.56832,2.63376 5.77728,2.63376 1.52928,0 2.9736,-0.4248 3.99312,-1.2744 1.44432,-1.2744 2.37888,-3.14352 2.37888,-5.18256 0,-1.18944 -0.33984,-2.37888 -0.93456,-3.48336 -1.35936,-2.46384 -3.90816,-2.80368 -5.26752,-2.80368 -0.50976,0 -0.93456,0.085 -0.93456,0.085 1.95408,-1.35936 4.58784,-2.124 7.2216,-2.124 2.37888,0 4.6728,0.59472 6.28704,1.78416 2.9736,2.20896 4.07808,6.88176 4.07808,12.99888 0,6.54192 -0.16992,16.05744 -7.6464,16.05744 -7.47648,0 -9.17568,-8.9208 -9.17568,-8.9208 0,0 0,-1.18944 -1.18944,-1.18944 -1.18944,0 -1.2744,1.18944 -1.2744,1.18944 0,0 -0.67968,4.33296 -2.9736,9.60048 -1.35936,3.14352 -3.3984,4.58784 -4.84272,5.18256 v -37.04256 c 0,-0.59472 -0.4248,-1.10448 -1.01952,-1.10448 -0.59472,0 -1.10448,0.50976 -1.10448,1.10448 v 77.3136 c 0,0.59472 0.50976,1.10448 1.10448,1.10448 0.59472,0 1.01952,-0.50976 1.01952,-1.10448 v -37.04256 c 1.44432,0.59472 3.48336,2.03904 4.84272,5.18256 2.29392,5.26752 2.9736,9.68544 2.9736,9.68544 0,0 0.08496,1.10448 1.2744,1.10448 1.18944,0 1.18944,-1.10448 1.18944,-1.10448 0,0 1.6992,-9.00576 9.17568,-9.00576 7.47648,0 7.6464,9.51552 7.6464,16.05744 0,6.11712 -1.10448,10.78992 -4.07808,12.99888 -1.61424,1.18944 -3.90816,1.78416 -6.28704,1.78416 -2.63376,0 -5.26752,-0.76464 -7.2216,-2.124 0,0 0.4248,0.085 0.93456,0.085 1.35936,0 3.90816,-0.33984 5.26752,-2.80368 0.59472,-1.10448 0.93456,-2.29392 0.93456,-3.48336 0,-2.03904 -0.93456,-3.90816 -2.37888,-5.18256 -1.01952,-0.8496 -2.46384,-1.2744 -3.99312,-1.2744 -2.20896,0 -4.58784,0.93456 -5.77728,2.63376 -0.8496,1.2744 -1.2744,2.71872 -1.2744,4.248 0,1.86912 0.67968,3.90816 2.20896,5.77728 0,0 3.90816,4.6728 13.25376,4.6728 10.28016,0 19.03104,-6.71184 19.03104,-18.60624 0,-9.17568 -5.0976,-18.77616 -15.46272,-18.77616"
     class="Clef" />
  <path
     style="stroke-width:0.8496"
     id="path13836"
     d="m 132.53368,183.16824 c 0.50976,-0.085 0.93456,-0.67968 0.93456,-1.18944 v -5.01264 c 0,-0.67968 -0.50976,-1.18944 -1.18944,-1.18944 h -0.16992 l -2.80368,0.59472 V 163.7124 h -2.37888 v 13.1688 l -7.56144,1.52928 V 166.43112 H 116.986 v 12.48912 l -3.31344,0.67968 c -0.50976,0.085 -0.93456,0.67968 -0.93456,1.18944 v 0.16992 4.92768 -0.16992 c 0,0.67968 0.50976,1.18944 1.18944,1.18944 h 0.25488 l 2.80368,-0.59472 v 14.0184 l -3.31344,0.67968 c -0.50976,0.085 -0.93456,0.67968 -0.93456,1.18944 v 4.92768 c 0,0.67968 0.50976,1.18944 1.18944,1.18944 h 0.25488 l 2.80368,-0.59472 v 12.65904 h 2.37888 v -13.1688 l 7.56144,-1.52928 V 217.662 h 2.37888 v -12.48912 l 3.22848,-0.59472 c 0.50976,-0.085 0.93456,-0.67968 0.93456,-1.18944 v -5.01264 c 0,-0.67968 -0.50976,-1.18944 -1.18944,-1.18944 h -0.16992 l -2.80368,0.59472 v -14.0184 l 3.22848,-0.59472 m -13.1688,16.73712 V 185.802 l 7.56144,-1.52928 v 14.0184 l -7.56144,1.61424"
     class="KeySig" />
  <path
     style="stroke-width:0.8496"
     id="path13838"
     d="m 111.29368,225.64824 c 0.50976,-0.085 0.93456,-0.67968 0.93456,-1.18944 v -5.01264 c 0,-0.67968 -0.50976,-1.18944 -1.18944,-1.18944 h -0.16992 l -2.80368,0.59472 V 206.1924 h -2.37888 v 13.1688 l -7.56144,1.52928 V 208.91112 H 95.746 v 12.48912 l -3.31344,0.67968 c -0.50976,0.085 -0.93456,0.67968 -0.93456,1.18944 v 0.16992 4.92768 -0.16992 c 0,0.67968 0.50976,1.18944 1.18944,1.18944 h 0.25488 l 2.80368,-0.59472 v 14.0184 l -3.31344,0.67968 c -0.50976,0.085 -0.93456,0.67968 -0.93456,1.18944 v 4.92768 c 0,0.67968 0.50976,1.18944 1.18944,1.18944 h 0.25488 l 2.80368,-0.59472 v 12.65904 h 2.37888 v -13.1688 l 7.56144,-1.52928 V 260.142 h 2.37888 v -12.48912 l 3.22848,-0.59472 c 0.50976,-0.085 0.93456,-0.67968 0.93456,-1.18944 v -5.01264 c 0,-0.67968 -0.50976,-1.18944 -1.18944,-1.18944 h -0.16992 l -2.80368,0.59472 v -14.0184 l 3.22848,-0.59472 m -13.1688,16.73712 V 228.282 l 7.56144,-1.52928 v 14.0184 l -7.56144,1.61424"
     class="KeySig" />
  <path
     style="stroke-width:0.8496"
     id="path13844"
     d="m 191.83452,220.46568 h -1.10448 c -0.33984,0 -0.67968,0.33984 -0.67968,0.67968 -0.33984,7.05168 -5.35248,11.29968 -12.82896,11.29968 h -0.76464 v -37.89216 c 3.48336,0.16992 5.0976,1.61424 5.9472,2.9736 0.16992,0.33984 0.16992,0.50976 -0.085,0.67968 -2.124,1.35936 -3.65328,3.8232 -3.65328,6.54192 0,0.33984 0,0.67968 0.085,1.01952 0.4248,3.48336 3.31344,6.20208 6.7968,6.62688 h 0.8496 c 4.248,0 7.6464,-3.3984 7.6464,-7.6464 v -0.50976 c 0,-0.33984 -0.085,-0.93456 -0.16992,-1.2744 -0.76464,-3.48336 -3.90816,-11.0448 -17.4168,-11.38464 v -10.1952 c 0,-0.50976 -0.4248,-0.93456 -0.93456,-0.93456 h -2.29392 c -0.50976,0 -0.93456,0.4248 -0.93456,0.93456 v 10.28016 c -15.7176,1.61424 -17.58672,15.54768 -17.58672,20.73024 0,9.26064 1.01952,20.73024 17.58672,22.5144 v 9.51552 c 0,0.50976 0.4248,0.93456 0.93456,0.93456 h 2.29392 c 0.50976,0 0.93456,-0.4248 0.93456,-0.93456 v -9.26064 h 0.76464 c 8.41104,0 14.95296,-4.92768 15.2928,-14.0184 0,-0.4248 -0.25488,-0.67968 -0.67968,-0.67968 m -25.57296,0.50976 v -16.22736 c 0,-3.99312 1.18944,-8.41104 6.03216,-9.7704 v 36.70272 c -4.07808,-1.44432 -6.03216,-5.0976 -6.03216,-10.70496"
     class="TimeSig" />
  <path
     style="stroke-width:0.8496"
     id="path13846"
     d="m 1112.1972,111.67684 v 8.15616 h 2.7187 v -8.15616 c 3.3984,-0.76464 5.9472,-4.33296 5.9472,-8.41104 0,-4.6728 -3.2285,-8.58096 -7.3065,-8.58096 -4.0781,0 -7.3066,3.90816 -7.3066,8.58096 0,4.07808 2.5488,7.6464 5.9472,8.41104 m 1.3594,-15.88752 c 1.4443,0 3.2284,3.22848 3.2284,7.2216 0,3.99312 -1.7841,7.30656 -3.2284,7.30656 -1.4444,0 -3.2285,-3.31344 -3.2285,-7.30656 0,-3.99312 1.7841,-7.2216 3.2285,-7.2216"
     class="Articulation" />
  <path
     id="path13854"
     d="m 543.685,101.662 59.037,5.529 v 10.666 l -59.037,-5.529 v -10.666"
     fill-rule="evenodd"
     class="Beam" />
  <path
     id="path13856"
     d="m 671.96,102.099 59.03,-5.528 v 10.666 l -59.03,5.529 v -10.667"
     fill-rule="evenodd"
     class="Beam" />
  <path
     id="path13858"
     d="m 905.39,117.49 167.66,21.54 v 10.707 L 905.39,128.197 V 117.49"
     fill-rule="evenodd"
     class="Beam" />
  <path
     id="path13860"
     d="m 1435.1,59.197 62.45,5.516 V 75.374 L 1435.1,69.858 V 59.197"
     fill-rule="evenodd"
     class="Beam" />
  <path
     id="path13862"
     d="m 1555.33,80.593 182.69,5.378 V 96.596 L 1555.33,91.217 V 80.593"
     fill-rule="evenodd"
     class="Beam" />
  <path
     id="path13864"
     d="m 1832.54,80.305 161.47,21.552 v 10.714 L 1832.54,91.019 V 80.305"
     fill-rule="evenodd"
     class="Beam" />
  <path
     style="stroke-width:0.59472"
     id="path13882"
     d="m 627.18552,174.07752 c -0.0595,-0.17842 -0.59472,-2.25994 -0.59472,-2.37888 -0.0595,-0.23789 -0.4163,-0.4163 -0.71366,-0.4163 -0.41631,0 -0.77314,0.35683 -0.77314,0.77313 v 9.75341 3.68726 c 0,0.29736 0.23789,0.53525 0.47578,0.6542 2.49782,0.77313 7.67188,4.04409 11.53756,10.64548 1.0705,1.84364 2.79519,4.34146 2.79519,9.33711 0,4.28198 -0.65419,8.80185 -1.72469,12.96489 -0.17842,0.6542 -0.35683,1.24892 0.29736,1.4868 0.65419,0.23789 0.89208,-0.23788 1.12997,-0.8326 2.14099,-5.23354 2.67624,-10.70496 2.67624,-14.39223 v -1.12997 c -0.29736,-7.67188 -4.69829,-13.32172 -4.69829,-13.32172 0.17842,0 -5.47142,-7.31506 -7.07717,-9.81288 -2.20046,-3.38991 -3.27096,-6.77981 -3.33043,-7.0177"
     class="Hook" />
  <path
     id="path13884"
     d="m 442.845,120.242 c -1.156,1.394 -4.284,2.448 -7.412,2.516 v 1.462 h 2.992 c 1.972,0.034 2.176,0.238 2.108,2.142 v 13.634 c 0,1.734 0,1.802 -0.204,2.108 -0.272,0.34 -0.918,0.476 -2.822,0.476 h -2.21 v 1.598 h 13.464 v -1.598 h -1.87 c -1.904,0 -2.55,-0.136 -2.822,-0.476 -0.238,-0.306 -0.238,-0.34 -0.238,-2.108 v -14.042 c 0,-1.904 0.068,-3.502 0.238,-5.712 h -1.224"
     class="Fingering" />
  <path
     id="path13888"
     d="m 234.274,120.831 c -1.156,1.394 -4.284,2.448 -7.412,2.516 v 1.462 h 2.992 c 1.972,0.034 2.176,0.238 2.108,2.142 v 13.634 c 0,1.734 0,1.802 -0.204,2.108 -0.272,0.34 -0.918,0.476 -2.822,0.476 h -2.21 v 1.598 h 13.464 v -1.598 h -1.87 c -1.904,0 -2.55,-0.136 -2.822,-0.476 -0.238,-0.306 -0.238,-0.34 -0.238,-2.108 v -14.042 c 0,-1.904 0.068,-3.502 0.238,-5.712 h -1.224"
     class="Fingering" />
  <path
     id="path13890"
     d="m 442.845,100.387 c -1.156,1.394 -4.284,2.448 -7.412,2.516 v 1.462 h 2.992 c 1.972,0.034 2.176,0.238 2.108,2.142 v 13.634 c 0,1.734 0,1.802 -0.204,2.108 -0.272,0.34 -0.918,0.476 -2.822,0.476 h -2.21 v 1.598 h 13.464 v -1.598 h -1.87 c -1.904,0 -2.55,-0.136 -2.822,-0.476 -0.238,-0.306 -0.238,-0.34 -0.238,-2.108 v -14.042 c 0,-1.904 0.068,-3.502 0.238,-5.712 h -1.224"
     class="Fingering" />
  <path
     id="path13892"
     d="m 1114.9,65.918 c -1.15,1.394 -4.28,2.448 -7.41,2.516 v 1.462 h 2.99 c 1.97,0.034 2.18,0.238 2.11,2.142 v 13.634 c 0,1.734 0,1.802 -0.2,2.108 -0.28,0.34 -0.92,0.476 -2.83,0.476 h -2.21 v 1.598 h 13.47 v -1.598 h -1.87 c -1.91,0 -2.55,-0.136 -2.82,-0.476 -0.24,-0.306 -0.24,-0.34 -0.24,-2.108 V 71.63 c 0,-1.904 0.07,-3.502 0.24,-5.712 h -1.23"
     class="Fingering" />
  <path
     id="path13894"
     d="m 1327.49,95.381 c -1.16,1.394 -4.28,2.448 -7.41,2.516 v 1.462 h 2.99 c 1.97,0.034 2.18,0.238 2.11,2.142 v 13.634 c 0,1.734 0,1.802 -0.21,2.108 -0.27,0.34 -0.91,0.476 -2.82,0.476 h -2.21 v 1.598 h 13.47 v -1.598 h -1.87 c -1.91,0 -2.55,-0.136 -2.83,-0.476 -0.23,-0.306 -0.23,-0.34 -0.23,-2.108 v -14.042 c 0,-1.904 0.06,-3.502 0.23,-5.712 h -1.22"
     class="Fingering" />
  <path
     id="path13900"
     d="m 233.949,92.209 c -1.156,1.394 -4.284,2.448 -7.412,2.516 v 1.462 h 2.992 c 1.972,0.034 2.176,0.238 2.108,2.142 v 13.634 c 0,1.734 0,1.802 -0.204,2.108 -0.272,0.34 -0.918,0.476 -2.822,0.476 h -2.21 v 1.598 h 13.464 v -1.598 h -1.87 c -1.904,0 -2.55,-0.136 -2.822,-0.476 -0.238,-0.306 -0.238,-0.34 -0.238,-2.108 V 97.921 c 0,-1.904 0.068,-3.502 0.238,-5.712 h -1.224"
     class="Fingering" />
  <path
     id="path13902"
     d="m 443.139,87.327 c 3.094,-1.122 4.522,-2.856 4.522,-5.576 0,-3.57 -2.72,-5.848 -6.936,-5.848 -3.978,0 -7.004,2.346 -7.004,5.44 0,1.394 0.918,2.38 2.244,2.38 1.19,0 2.006,-0.816 2.006,-2.04 0,-0.748 -0.272,-1.19 -1.054,-1.734 -0.34,-0.238 -0.442,-0.374 -0.442,-0.612 0,-0.952 1.972,-1.972 3.91,-1.972 2.448,0 3.74,1.53 3.74,4.42 0,3.162 -1.292,4.828 -3.706,4.828 -0.306,0 -0.884,-0.034 -1.394,-0.068 -0.272,-0.034 -0.544,-0.034 -0.748,-0.034 -0.714,0 -1.088,0.306 -1.088,0.918 0,0.578 0.34,0.85 1.088,0.85 0.204,0 0.476,0 0.782,-0.034 0.68,-0.034 1.224,-0.034 1.598,-0.034 2.516,0 3.876,1.802 3.876,5.168 0,3.536 -1.7,5.508 -4.76,5.508 -2.142,0 -4.454,-1.156 -4.454,-2.21 0,-0.306 0.068,-0.374 0.714,-0.748 0.952,-0.578 1.326,-1.156 1.326,-2.006 0,-1.224 -0.918,-2.142 -2.142,-2.142 -1.462,0 -2.414,1.19 -2.414,2.992 0,3.298 3.026,5.576 7.378,5.576 4.93,0 8.126,-2.72 8.126,-6.902 0,-3.196 -1.632,-5.134 -5.168,-6.12"
     class="Fingering" />
  <path
     id="path13904"
     d="m 662.31,131.854 c 3.09,-1.122 4.52,-2.856 4.52,-5.576 0,-3.57 -2.72,-5.848 -6.93,-5.848 -3.98,0 -7.01,2.346 -7.01,5.44 0,1.394 0.92,2.38 2.25,2.38 1.19,0 2,-0.816 2,-2.04 0,-0.748 -0.27,-1.19 -1.05,-1.734 -0.34,-0.238 -0.44,-0.374 -0.44,-0.612 0,-0.952 1.97,-1.972 3.91,-1.972 2.44,0 3.74,1.53 3.74,4.42 0,3.162 -1.3,4.828 -3.71,4.828 -0.31,0 -0.88,-0.034 -1.39,-0.068 -0.28,-0.034 -0.55,-0.034 -0.75,-0.034 -0.72,0 -1.09,0.306 -1.09,0.918 0,0.578 0.34,0.85 1.09,0.85 0.2,0 0.47,0 0.78,-0.034 0.68,-0.034 1.22,-0.034 1.6,-0.034 2.51,0 3.87,1.802 3.87,5.168 0,3.536 -1.7,5.508 -4.76,5.508 -2.14,0 -4.45,-1.156 -4.45,-2.21 0,-0.306 0.07,-0.374 0.71,-0.748 0.96,-0.578 1.33,-1.156 1.33,-2.006 0,-1.224 -0.92,-2.142 -2.14,-2.142 -1.46,0 -2.42,1.19 -2.42,2.992 0,3.298 3.03,5.576 7.38,5.576 4.93,0 8.13,-2.72 8.13,-6.902 0,-3.196 -1.63,-5.134 -5.17,-6.12"
     class="Fingering" />
  <path
     id="path13906"
     d="m 643.58,150.928 c 0,9.551 -7.744,17.294 -17.296,17.294 -9.551,0 -17.294,-7.743 -17.294,-17.294 0,-9.552 7.743,-17.295 17.294,-17.295 9.552,0 17.296,7.743 17.296,17.295"
     fill-rule="evenodd"
     stroke-miterlimit="2"
     stroke-linejoin="miter"
     stroke-linecap="square"
     stroke-width="2.12"
     stroke="#000000"
     fill="none"
     class="Fingering" />
  <path
     id="path13908"
     d="m 629.359,138.945 -11.56,16.082 v 1.904 h 9.554 v 1.768 c 0,1.734 0,1.802 -0.204,2.108 -0.272,0.374 -0.918,0.476 -2.856,0.476 h -0.374 v 1.598 h 9.928 v -1.598 h -0.136 c -1.938,0 -2.584,-0.102 -2.856,-0.476 -0.204,-0.306 -0.204,-0.34 -0.204,-2.108 v -1.768 h 4.114 v -1.904 h -4.114 v -9.282 c 0,-4.25 0,-4.352 0.17,-6.8 h -1.462 m -2.006,16.082 h -7.48 l 7.48,-10.302 v 10.302"
     class="Fingering" />
  <path
     id="path13910"
     d="m 1121.5,54.245 h -1.49 l -0.34,1.734 c -0.44,2.21 -0.72,2.414 -2.82,2.414 h -7.62 c 2.35,-2.448 3.13,-3.162 5.3,-4.862 3.1,-2.38 4.42,-3.57 5.21,-4.59 1.08,-1.496 1.63,-2.992 1.63,-4.658 0,-3.876 -3.2,-6.63 -7.65,-6.63 -4.32,0 -7.62,2.754 -7.62,6.392 0,2.142 1.09,3.604 2.69,3.604 1.26,0 2.11,-0.85 2.11,-2.074 0,-0.85 -0.48,-1.632 -1.19,-1.938 -1.26,-0.51 -1.33,-0.578 -1.33,-1.02 0,-0.51 0.34,-1.292 0.82,-1.87 0.85,-1.054 2.24,-1.632 3.84,-1.632 2.82,0 4.49,1.734 4.49,4.59 0,2.516 -1.19,4.794 -4.02,7.786 -2.51,2.652 -4.08,4.318 -4.65,4.964 -1.23,1.428 -1.84,2.21 -3.34,4.182 v 0.952 h 15.34 l 0.64,-7.344"
     class="Fingering" />
  <path
     id="path13912"
     d="m 1332.98,83.211 h -1.5 l -0.34,1.734 c -0.44,2.21 -0.71,2.414 -2.82,2.414 h -7.61 c 2.34,-2.448 3.12,-3.162 5.3,-4.862 3.09,-2.38 4.42,-3.57 5.2,-4.59 1.09,-1.496 1.63,-2.992 1.63,-4.658 0,-3.876 -3.19,-6.63 -7.65,-6.63 -4.31,0 -7.61,2.754 -7.61,6.392 0,2.142 1.09,3.604 2.68,3.604 1.26,0 2.11,-0.85 2.11,-2.074 0,-0.85 -0.47,-1.632 -1.19,-1.938 -1.26,-0.51 -1.32,-0.578 -1.32,-1.02 0,-0.51 0.34,-1.292 0.81,-1.87 0.85,-1.054 2.25,-1.632 3.84,-1.632 2.83,0 4.49,1.734 4.49,4.59 0,2.516 -1.19,4.794 -4.01,7.786 -2.52,2.652 -4.08,4.318 -4.66,4.964 -1.22,1.428 -1.83,2.21 -3.33,4.182 v 0.952 h 15.33 l 0.65,-7.344"
     class="Fingering" />
  <path
     id="path13914"
     d="m 1543.1,103.224 c -1.16,1.394 -4.28,2.448 -7.41,2.516 v 1.462 h 2.99 c 1.97,0.034 2.18,0.238 2.11,2.142 v 13.634 c 0,1.734 0,1.802 -0.21,2.108 -0.27,0.34 -0.91,0.476 -2.82,0.476 h -2.21 v 1.598 h 13.47 v -1.598 h -1.87 c -1.91,0 -2.55,-0.136 -2.83,-0.476 -0.23,-0.306 -0.23,-0.34 -0.23,-2.108 v -14.042 c 0,-1.904 0.06,-3.502 0.23,-5.712 h -1.22"
     class="Fingering" />
  <path
     id="path13920"
     d="m 234.242,75.827 c 3.094,-1.122 4.522,-2.856 4.522,-5.576 0,-3.57 -2.72,-5.848 -6.936,-5.848 -3.978,0 -7.004,2.346 -7.004,5.44 0,1.394 0.918,2.38 2.244,2.38 1.19,0 2.006,-0.816 2.006,-2.04 0,-0.748 -0.272,-1.19 -1.054,-1.734 -0.34,-0.238 -0.442,-0.374 -0.442,-0.612 0,-0.952 1.972,-1.972 3.91,-1.972 2.448,0 3.74,1.53 3.74,4.42 0,3.162 -1.292,4.828 -3.706,4.828 -0.306,0 -0.884,-0.034 -1.394,-0.068 -0.272,-0.034 -0.544,-0.034 -0.748,-0.034 -0.714,0 -1.088,0.306 -1.088,0.918 0,0.578 0.34,0.85 1.088,0.85 0.204,0 0.476,0 0.782,-0.034 0.68,-0.034 1.224,-0.034 1.598,-0.034 2.516,0 3.876,1.802 3.876,5.168 0,3.536 -1.7,5.508 -4.76,5.508 -2.142,0 -4.454,-1.156 -4.454,-2.21 0,-0.306 0.068,-0.374 0.714,-0.748 0.952,-0.578 1.326,-1.156 1.326,-2.006 0,-1.224 -0.918,-2.142 -2.142,-2.142 -1.462,0 -2.414,1.19 -2.414,2.992 0,3.298 3.026,5.576 7.378,5.576 4.93,0 8.126,-2.72 8.126,-6.902 0,-3.196 -1.632,-5.134 -5.168,-6.12"
     class="Fingering" />
  <path
     id="path13922"
     d="m 443.273,64.173 c 3.094,-1.122 4.522,-2.856 4.522,-5.576 0,-3.57 -2.72,-5.848 -6.936,-5.848 -3.978,0 -7.004,2.346 -7.004,5.44 0,1.394 0.918,2.38 2.244,2.38 1.19,0 2.006,-0.816 2.006,-2.04 0,-0.748 -0.272,-1.19 -1.054,-1.734 -0.34,-0.238 -0.442,-0.374 -0.442,-0.612 0,-0.952 1.972,-1.972 3.91,-1.972 2.448,0 3.74,1.53 3.74,4.42 0,3.162 -1.292,4.828 -3.706,4.828 -0.306,0 -0.884,-0.034 -1.394,-0.068 -0.272,-0.034 -0.544,-0.034 -0.748,-0.034 -0.714,0 -1.088,0.306 -1.088,0.918 0,0.578 0.34,0.85 1.088,0.85 0.204,0 0.476,0 0.782,-0.034 0.68,-0.034 1.224,-0.034 1.598,-0.034 2.516,0 3.876,1.802 3.876,5.168 0,3.536 -1.7,5.508 -4.76,5.508 -2.142,0 -4.454,-1.156 -4.454,-2.21 0,-0.306 0.068,-0.374 0.714,-0.748 0.952,-0.578 1.326,-1.156 1.326,-2.006 0,-1.224 -0.918,-2.142 -2.142,-2.142 -1.462,0 -2.414,1.19 -2.414,2.992 0,3.298 3.026,5.576 7.378,5.576 4.93,0 8.126,-2.72 8.126,-6.902 0,-3.196 -1.632,-5.134 -5.168,-6.12"
     class="Fingering" />
  <path
     id="path13924"
     d="m 533.042,71.458 c -1.156,1.394 -4.284,2.448 -7.412,2.516 v 1.462 h 2.992 c 1.972,0.034 2.176,0.238 2.108,2.142 v 13.634 c 0,1.734 0,1.802 -0.204,2.108 -0.272,0.34 -0.918,0.476 -2.822,0.476 h -2.21 v 1.598 h 13.464 v -1.598 h -1.87 c -1.904,0 -2.55,-0.136 -2.822,-0.476 -0.238,-0.306 -0.238,-0.34 -0.238,-2.108 V 77.17 c 0,-1.904 0.068,-3.502 0.238,-5.712 h -1.224"
     class="Fingering" />
  <path
     id="path13926"
     d="m 606.214,84.193 c 0,9.552 -7.743,17.295 -17.295,17.295 -9.551,0 -17.294,-7.743 -17.294,-17.295 0,-9.551 7.743,-17.294 17.294,-17.294 9.552,0 17.295,7.743 17.295,17.294"
     fill-rule="evenodd"
     stroke-miterlimit="2"
     stroke-linejoin="miter"
     stroke-linecap="square"
     stroke-width="2.12"
     stroke="#000000"
     fill="none"
     class="Fingering" />
  <path
     id="path13928"
     d="m 591.994,72.211 -11.56,16.082 v 1.904 h 9.554 v 1.768 c 0,1.734 0,1.802 -0.204,2.108 -0.272,0.374 -0.918,0.476 -2.856,0.476 h -0.374 v 1.598 h 9.928 v -1.598 h -0.136 c -1.938,0 -2.584,-0.102 -2.856,-0.476 -0.204,-0.306 -0.204,-0.34 -0.204,-2.108 v -1.768 h 4.114 v -1.904 h -4.114 v -9.282 c 0,-4.25 0,-4.352 0.17,-6.8 h -1.462 m -2.006,16.082 h -7.48 l 7.48,-10.302 v 10.302"
     class="Fingering" />
  <path
     id="path13930"
     d="m 660.93,92.333 c -1.16,1.394 -4.29,2.448 -7.42,2.516 v 1.462 h 3 c 1.97,0.034 2.17,0.238 2.1,2.142 v 13.634 c 0,1.734 0,1.802 -0.2,2.108 -0.27,0.34 -0.92,0.476 -2.82,0.476 h -2.21 v 1.598 h 13.46 v -1.598 h -1.87 c -1.9,0 -2.55,-0.136 -2.82,-0.476 -0.24,-0.306 -0.24,-0.34 -0.24,-2.108 V 98.045 c 0,-1.904 0.07,-3.502 0.24,-5.712 h -1.22"
     class="Fingering" />
  <path
     id="path13932"
     d="m 1131.09,18.604 c 0,9.689 -7.85,17.544 -17.54,17.544 -9.69,0 -17.55,-7.855 -17.55,-17.544 0,-9.6900001 7.86,-17.5440001 17.55,-17.5440001 9.69,0 17.54,7.854 17.54,17.5440001"
     fill-rule="evenodd"
     stroke-miterlimit="2"
     stroke-linejoin="miter"
     stroke-linecap="square"
     stroke-width="2.12"
     stroke="#000000"
     fill="none"
     class="Fingering" />
  <path
     id="path13934"
     d="m 1116.13,17.795 c 3.09,-1.122 4.52,-2.856 4.52,-5.576 0,-3.5700001 -2.72,-5.8480001 -6.94,-5.8480001 -3.98,0 -7,2.346 -7,5.4400001 0,1.394 0.92,2.38 2.24,2.38 1.19,0 2.01,-0.816 2.01,-2.04 0,-0.748 -0.27,-1.19 -1.06,-1.734 -0.34,-0.238 -0.44,-0.374 -0.44,-0.6120001 0,-0.952 1.97,-1.972 3.91,-1.972 2.45,0 3.74,1.53 3.74,4.4200001 0,3.162 -1.29,4.828 -3.7,4.828 -0.31,0 -0.89,-0.034 -1.4,-0.068 -0.27,-0.034 -0.54,-0.034 -0.75,-0.034 -0.71,0 -1.08,0.306 -1.08,0.918 0,0.578 0.34,0.85 1.08,0.85 0.21,0 0.48,0 0.79,-0.034 0.68,-0.034 1.22,-0.034 1.59,-0.034 2.52,0 3.88,1.802 3.88,5.168 0,3.536 -1.7,5.508 -4.76,5.508 -2.14,0 -4.45,-1.156 -4.45,-2.21 0,-0.306 0.06,-0.374 0.71,-0.748 0.95,-0.578 1.33,-1.156 1.33,-2.006 0,-1.224 -0.92,-2.142 -2.15,-2.142 -1.46,0 -2.41,1.19 -2.41,2.992 0,3.298 3.03,5.576 7.38,5.576 4.93,0 8.12,-2.72 8.12,-6.902 0,-3.196 -1.63,-5.134 -5.16,-6.12"
     class="Fingering" />
  <path
     id="path13936"
     d="m 1327.57,49.046 c 3.1,-1.122 4.53,-2.856 4.53,-5.576 0,-3.57 -2.72,-5.848 -6.94,-5.848 -3.98,0 -7,2.346 -7,5.44 0,1.394 0.91,2.38 2.24,2.38 1.19,0 2.01,-0.816 2.01,-2.04 0,-0.748 -0.28,-1.19 -1.06,-1.734 -0.34,-0.238 -0.44,-0.374 -0.44,-0.612 0,-0.952 1.97,-1.972 3.91,-1.972 2.45,0 3.74,1.53 3.74,4.42 0,3.162 -1.29,4.828 -3.71,4.828 -0.3,0 -0.88,-0.034 -1.39,-0.068 -0.27,-0.034 -0.54,-0.034 -0.75,-0.034 -0.71,0 -1.09,0.306 -1.09,0.918 0,0.578 0.34,0.85 1.09,0.85 0.21,0 0.48,0 0.78,-0.034 0.68,-0.034 1.23,-0.034 1.6,-0.034 2.52,0 3.88,1.802 3.88,5.168 0,3.536 -1.7,5.508 -4.76,5.508 -2.14,0 -4.46,-1.156 -4.46,-2.21 0,-0.306 0.07,-0.374 0.72,-0.748 0.95,-0.578 1.32,-1.156 1.32,-2.006 0,-1.224 -0.91,-2.142 -2.14,-2.142 -1.46,0 -2.41,1.19 -2.41,2.992 0,3.298 3.02,5.576 7.38,5.576 4.93,0 8.12,-2.72 8.12,-6.902 0,-3.196 -1.63,-5.134 -5.17,-6.12"
     class="Fingering" />
  <path
     id="path13938"
     d="m 1405.08,52.631 3.88,-4.522 c 0.85,-0.986 1.63,-1.428 2.55,-1.428 h 0.3 v -1.224 h -7.04 v 1.224 h 0.65 c 1.02,0 1.53,0.238 1.53,0.748 0,0.34 -0.24,0.816 -0.68,1.36 l -2.14,2.584 -2.62,-3.332 c -0.2,-0.272 -0.34,-0.544 -0.34,-0.748 0,-0.442 0.44,-0.612 1.5,-0.612 h 0.47 v -1.224 h -8.06 v 1.224 c 1.26,0.102 1.74,0.408 2.83,1.836 l 4.14,5.202 -3.91,4.556 c -1.15,1.292 -2.14,1.836 -3.06,1.802 h -0.2 v 1.224 h 7.17 v -1.224 h -0.51 c -0.78,0 -0.95,-0.034 -1.19,-0.136 -0.27,-0.17 -0.47,-0.476 -0.47,-0.782 0,-0.238 0.1,-0.544 0.27,-0.748 l 2.86,-3.4 2.58,3.434 c 0.24,0.34 0.44,0.782 0.44,1.02 0,0.442 -0.51,0.612 -1.8,0.612 h -0.24 v 1.224 h 8.57 v -1.224 h -0.24 c -1.19,0 -1.97,-0.442 -2.96,-1.666 l -4.28,-5.78 m 19.51,-3.842 c 3.09,-1.122 4.52,-2.856 4.52,-5.576 0,-3.57 -2.72,-5.848 -6.94,-5.848 -3.97,0 -7,2.346 -7,5.44 0,1.394 0.92,2.38 2.24,2.38 1.19,0 2.01,-0.816 2.01,-2.04 0,-0.748 -0.27,-1.19 -1.05,-1.734 -0.34,-0.238 -0.45,-0.374 -0.45,-0.612 0,-0.952 1.98,-1.972 3.91,-1.972 2.45,0 3.74,1.53 3.74,4.42 0,3.162 -1.29,4.828 -3.7,4.828 -0.31,0 -0.89,-0.034 -1.4,-0.068 -0.27,-0.034 -0.54,-0.034 -0.74,-0.034 -0.72,0 -1.09,0.306 -1.09,0.918 0,0.578 0.34,0.85 1.09,0.85 0.2,0 0.47,0 0.78,-0.034 0.68,-0.034 1.22,-0.034 1.6,-0.034 2.51,0 3.87,1.802 3.87,5.168 0,3.536 -1.7,5.508 -4.76,5.508 -2.14,0 -4.45,-1.156 -4.45,-2.21 0,-0.306 0.07,-0.374 0.71,-0.748 0.95,-0.578 1.33,-1.156 1.33,-2.006 0,-1.224 -0.92,-2.142 -2.14,-2.142 -1.47,0 -2.42,1.19 -2.42,2.992 0,3.298 3.03,5.576 7.38,5.576 4.93,0 8.13,-2.72 8.13,-6.902 0,-3.196 -1.64,-5.134 -5.17,-6.12"
     class="Fingering" />
  <path
     id="path13940"
     d="m 1542.09,74.454 -11.56,16.082 v 1.904 h 9.56 v 1.768 c 0,1.734 0,1.802 -0.21,2.108 -0.27,0.374 -0.92,0.476 -2.85,0.476 h -0.38 v 1.598 h 9.93 v -1.598 h -0.14 c -1.93,0 -2.58,-0.102 -2.85,-0.476 -0.21,-0.306 -0.21,-0.34 -0.21,-2.108 V 92.44 h 4.12 v -1.904 h -4.12 v -9.282 c 0,-4.25 0,-4.352 0.17,-6.8 h -1.46 m -2,16.082 h -7.48 l 7.48,-10.302 v 10.302"
     class="Fingering" />
  <path
     id="path13942"
     d="M 1824.15,50.218 1812.59,66.3 v 1.904 h 9.55 v 1.768 c 0,1.734 0,1.802 -0.2,2.108 -0.27,0.374 -0.92,0.476 -2.86,0.476 h -0.37 v 1.598 h 9.93 v -1.598 h -0.14 c -1.94,0 -2.58,-0.102 -2.86,-0.476 -0.2,-0.306 -0.2,-0.34 -0.2,-2.108 v -1.768 h 4.11 V 66.3 h -4.11 v -9.282 c 0,-4.25 0,-4.352 0.17,-6.8 h -1.46 m -2.01,16.082 h -7.48 l 7.48,-10.302 V 66.3"
     class="Fingering" />
  <path
     id="path13944"
     d="m 1877.19,53.039 -11.56,16.082 v 1.904 h 9.56 v 1.768 c 0,1.734 0,1.802 -0.21,2.108 -0.27,0.374 -0.92,0.476 -2.85,0.476 h -0.38 v 1.598 h 9.93 v -1.598 h -0.14 c -1.93,0 -2.58,-0.102 -2.85,-0.476 -0.21,-0.306 -0.21,-0.34 -0.21,-2.108 v -1.768 h 4.12 v -1.904 h -4.12 v -9.282 c 0,-4.25 0,-4.352 0.17,-6.8 h -1.46 m -2,16.082 h -7.48 l 7.48,-10.302 v 10.302"
     class="Fingering" />
</svg>
