<?xml version="1.0" encoding="UTF-8" standalone="no"?>
<svg
   xmlns:dc="http://purl.org/dc/elements/1.1/"
   xmlns:cc="http://creativecommons.org/ns#"
   xmlns:rdf="http://www.w3.org/1999/02/22-rdf-syntax-ns#"
   xmlns:svg="http://www.w3.org/2000/svg"
   xmlns="http://www.w3.org/2000/svg"
   xmlns:sodipodi="http://sodipodi.sourceforge.net/DTD/sodipodi-0.dtd"
   xmlns:inkscape="http://www.inkscape.org/namespaces/inkscape"
   inkscape:version="1.0 (4035a4f, 2020-05-01)"
   sodipodi:docname="snippet22.svg"
   id="svg27892"
   version="1.2"
   viewBox="0 0 2340 275.82999"
   height="275.82999"
   width="2340">
  <metadata
     id="metadata27898">
    <rdf:RDF>
      <cc:Work
         rdf:about="">
        <dc:format>image/svg+xml</dc:format>
        <dc:type
           rdf:resource="http://purl.org/dc/dcmitype/StillImage" />
        <dc:title>Batches2Partita5</dc:title>
      </cc:Work>
    </rdf:RDF>
  </metadata>
  <defs
     id="defs27896" />
  <sodipodi:namedview
     inkscape:current-layer="svg27892"
     inkscape:window-maximized="0"
     inkscape:window-y="23"
     inkscape:window-x="0"
     inkscape:cy="41.359"
     inkscape:cx="810"
     inkscape:zoom="0.15689774"
     showgrid="false"
     id="namedview27894"
     inkscape:window-height="855"
     inkscape:window-width="1073"
     inkscape:pageshadow="2"
     inkscape:pageopacity="0"
     guidetolerance="10"
     gridtolerance="10"
     objecttolerance="10"
     borderopacity="1"
     bordercolor="#666666"
     pagecolor="#ffffff" />
  <title
     id="title25242">Batches2Partita5</title>
  <desc
     id="desc25244">Generated by MuseScore 3.6.2</desc>
  <polyline
     transform="translate(-360,-1242.39)"
     id="polyline25256"
     points="360,1320.38 2700,1320.38"
     stroke-linejoin="bevel"
     stroke-width="2.34"
     stroke="#000000"
     fill="none"
     class="StaffLines" />
  <polyline
     transform="translate(-360,-1242.39)"
     id="polyline25258"
     points="360,1341.62 2700,1341.62"
     stroke-linejoin="bevel"
     stroke-width="2.34"
     stroke="#000000"
     fill="none"
     class="StaffLines" />
  <polyline
     transform="translate(-360,-1242.39)"
     id="polyline25260"
     points="360,1362.86 2700,1362.86"
     stroke-linejoin="bevel"
     stroke-width="2.34"
     stroke="#000000"
     fill="none"
     class="StaffLines" />
  <polyline
     transform="translate(-360,-1242.39)"
     id="polyline25262"
     points="360,1384.1 2700,1384.1"
     stroke-linejoin="bevel"
     stroke-width="2.34"
     stroke="#000000"
     fill="none"
     class="StaffLines" />
  <polyline
     transform="translate(-360,-1242.39)"
     id="polyline25264"
     points="360,1405.34 2700,1405.34"
     stroke-linejoin="bevel"
     stroke-width="2.34"
     stroke="#000000"
     fill="none"
     class="StaffLines" />
  <path
     id="path25324"
     d="m 176.74,140.15 c 5.08,-41.8 51.073,-73.66 91.985,-63.72 -37.525,-5.05 -83.518,26.81 -91.985,63.72"
     fill-rule="evenodd"
     stroke-linejoin="round"
     stroke-linecap="round"
     stroke-width="1.49"
     stroke="#000000"
     class="SlurSegment" />
  <path
     id="path25326"
     d="M 330.54,58.88 C 360.895,35.74 409.058,46.36 426.866,80.12 407.778,52.16 359.614,41.54 330.54,58.88"
     fill-rule="evenodd"
     stroke-linejoin="round"
     stroke-linecap="round"
     stroke-width="1.49"
     stroke="#000000"
     class="SlurSegment" />
  <path
     id="path25328"
     d="m 457.773,192.69 c 39.836,2.19 86.196,-34.98 92.721,-74.34 -2.804,44 -49.165,81.17 -92.721,74.34"
     fill-rule="evenodd"
     stroke-linejoin="round"
     stroke-linecap="round"
     stroke-width="1.49"
     stroke="#000000"
     class="SlurSegment" />
  <path
     id="path25330"
     d="m 644.58,143.84 c 7.77,-39.7 53.8,-66.25 92.05,-53.1 -35.28,-8 -81.31,18.55 -92.05,53.1"
     fill-rule="evenodd"
     stroke-linejoin="round"
     stroke-linecap="round"
     stroke-width="1.49"
     stroke="#000000"
     class="SlurSegment" />
  <path
     id="path25332"
     d="m 806.2,48.26 c 32.65,-19.53 79.12,-3.6 92.92,31.86 C 883.39,50.29 836.92,34.36 806.2,48.26"
     fill-rule="evenodd"
     stroke-linejoin="round"
     stroke-linecap="round"
     stroke-width="1.49"
     stroke="#000000"
     class="SlurSegment" />
  <path
     id="path25334"
     d="m 930.1,182.07 c 37.73,5.22 84.19,-26.64 92.92,-63.72 -5.37,41.98 -51.83,73.84 -92.92,63.72"
     fill-rule="evenodd"
     stroke-linejoin="round"
     stroke-linecap="round"
     stroke-width="1.49"
     stroke="#000000"
     class="SlurSegment" />
  <path
     id="path25336"
     d="m 1117.11,133.22 c 11.48,-38.14 59.04,-59.38 95.12,-42.48 -33.65,-11.47 -81.21,9.77 -95.12,42.48"
     fill-rule="evenodd"
     stroke-linejoin="round"
     stroke-linecap="round"
     stroke-width="1.49"
     stroke="#000000"
     class="SlurSegment" />
  <path
     id="path25338"
     d="m 1288.57,37.64 c 35.89,-16.73 83,4.51 94.23,42.48 -13.67,-32.55 -60.78,-53.79 -94.23,-42.48"
     fill-rule="evenodd"
     stroke-linejoin="round"
     stroke-linecap="round"
     stroke-width="1.49"
     stroke="#000000"
     class="SlurSegment" />
  <path
     id="path25340"
     d="m 1413.92,171.45 c 35.57,8.24 82.25,-18.31 93.34,-53.1 -8.15,39.96 -54.83,66.51 -93.34,53.1"
     fill-rule="evenodd"
     stroke-linejoin="round"
     stroke-linecap="round"
     stroke-width="1.49"
     stroke="#000000"
     class="SlurSegment" />
  <path
     id="path25342"
     d="m 1601.35,122.6 c 1.81,-30.47 32.72,-51.71 61.81,-42.48 -25.72,-4.33 -56.63,16.91 -61.81,42.48"
     fill-rule="evenodd"
     stroke-linejoin="round"
     stroke-linecap="round"
     stroke-width="1.49"
     stroke="#000000"
     class="SlurSegment" />
  <path
     id="path25344"
     d="m 1731.97,69.5 c 33.59,-30.48 95.04,-25.17 122.9,10.62 -28.38,-29.87 -89.82,-35.18 -122.9,-10.62"
     fill-rule="evenodd"
     stroke-linejoin="round"
     stroke-linecap="round"
     stroke-width="1.49"
     stroke="#000000"
     class="SlurSegment" />
  <path
     id="path25346"
     d="m 1885.77,111.98 c -2.61,-18 12.84,-33.93 30.91,-31.86 -13.8,2.08 -29.25,18.01 -30.91,31.86"
     fill-rule="evenodd"
     stroke-linejoin="round"
     stroke-linecap="round"
     stroke-width="1.49"
     stroke="#000000"
     class="SlurSegment" />
  <path
     id="path25348"
     d="m 2129.09,111.98 c 18.97,-17.83 49.87,-12.52 61.81,10.62 -12.94,-17.28 -43.85,-22.59 -61.81,-10.62"
     fill-rule="evenodd"
     stroke-linejoin="round"
     stroke-linecap="round"
     stroke-width="1.49"
     stroke="#000000"
     class="SlurSegment" />
  <path
     id="path25350"
     d="m 2252.71,192.69 c 13.07,24.48 51.04,36.74 75.95,24.52 -26.74,17.88 -64.71,5.62 -75.95,-24.52"
     fill-rule="evenodd"
     stroke-linejoin="round"
     stroke-linecap="round"
     stroke-width="1.49"
     stroke="#000000"
     class="SlurSegment" />
  <polyline
     transform="translate(-360,-1242.39)"
     id="polyline25406"
     points="958.069,1319.22 958.069,1406.51"
     stroke-linejoin="bevel"
     stroke-width="3.82"
     stroke="#000000"
     class="BarLine" />
  <polyline
     transform="translate(-360,-1242.39)"
     id="polyline25408"
     points="1430.59,1319.22 1430.59,1406.51"
     stroke-linejoin="bevel"
     stroke-width="3.82"
     stroke="#000000"
     class="BarLine" />
  <polyline
     transform="translate(-360,-1242.39)"
     id="polyline25410"
     points="1914.84,1319.22 1914.84,1406.51"
     stroke-linejoin="bevel"
     stroke-width="3.82"
     stroke="#000000"
     class="BarLine" />
  <polyline
     transform="translate(-360,-1242.39)"
     id="polyline25412"
     points="2386.07,1319.22 2386.07,1406.51"
     stroke-linejoin="bevel"
     stroke-width="3.82"
     stroke="#000000"
     class="BarLine" />
  <path
     style="stroke-width:0.8496"
     id="path25484"
     d="m 248.67968,100.84424 c 0.50976,-0.085 0.93456,-0.67968 0.93456,-1.18944 v -5.01264 c 0,-0.67968 -0.50976,-1.18944 -1.18944,-1.18944 h -0.16992 l -2.80368,0.59472 V 81.3884 h -2.37888 v 13.1688 l -7.56144,1.52928 V 84.10712 H 233.132 v 12.48912 l -3.31344,0.67968 c -0.50976,0.08496 -0.93456,0.67968 -0.93456,1.18944 v 0.16992 4.92768 -0.16992 c 0,0.67968 0.50976,1.18944 1.18944,1.18944 h 0.25488 l 2.80368,-0.59472 v 14.0184 l -3.31344,0.67968 c -0.50976,0.085 -0.93456,0.67968 -0.93456,1.18944 v 4.92768 c 0,0.67968 0.50976,1.18944 1.18944,1.18944 h 0.25488 l 2.80368,-0.59472 v 12.65904 h 2.37888 v -13.1688 l 7.56144,-1.52928 V 135.338 h 2.37888 v -12.48912 l 3.22848,-0.59472 c 0.50976,-0.085 0.93456,-0.67968 0.93456,-1.18944 v -5.01264 c 0,-0.67968 -0.50976,-1.18944 -1.18944,-1.18944 h -0.16992 l -2.80368,0.59472 v -14.0184 l 3.22848,-0.59472 m -13.1688,16.73712 V 103.478 l 7.56144,-1.52928 v 14.0184 l -7.56144,1.61424"
     class="Accidental" />
  <path
     style="stroke-width:0.8496"
     id="path25486"
     d="m 716.58568,100.84424 c 0.50976,-0.085 0.93456,-0.67968 0.93456,-1.18944 v -5.01264 c 0,-0.67968 -0.50976,-1.18944 -1.18944,-1.18944 h -0.16992 l -2.80368,0.59472 V 81.3884 h -2.37888 v 13.1688 l -7.56144,1.52928 V 84.10712 H 701.038 v 12.48912 l -3.31344,0.67968 C 697.2148,97.36088 696.79,97.9556 696.79,98.46536 v 0.16992 4.92768 -0.16992 c 0,0.67968 0.50976,1.18944 1.18944,1.18944 h 0.25488 l 2.80368,-0.59472 v 14.0184 l -3.31344,0.67968 c -0.50976,0.085 -0.93456,0.67968 -0.93456,1.18944 v 4.92768 c 0,0.67968 0.50976,1.18944 1.18944,1.18944 h 0.25488 l 2.80368,-0.59472 v 12.65904 h 2.37888 v -13.1688 l 7.56144,-1.52928 V 135.338 h 2.37888 v -12.48912 l 3.22848,-0.59472 c 0.50976,-0.085 0.93456,-0.67968 0.93456,-1.18944 v -5.01264 c 0,-0.67968 -0.50976,-1.18944 -1.18944,-1.18944 h -0.16992 l -2.80368,0.59472 v -14.0184 l 3.22848,-0.59472 m -13.1688,16.73712 V 103.478 l 7.56144,-1.52928 v 14.0184 l -7.56144,1.61424"
     class="Accidental" />
  <path
     style="stroke-width:0.8496"
     id="path25488"
     d="m 1192.1757,100.84424 c 0.5097,-0.085 0.9345,-0.67968 0.9345,-1.18944 v -5.01264 c 0,-0.67968 -0.5097,-1.18944 -1.1894,-1.18944 h -0.1699 l -2.8037,0.59472 V 81.3884 h -2.3789 v 13.1688 l -7.5614,1.52928 V 84.10712 h -2.3789 v 12.48912 l -3.3134,0.67968 c -0.5098,0.08496 -0.9346,0.67968 -0.9346,1.18944 v 0.16992 4.92768 -0.16992 c 0,0.67968 0.5098,1.18944 1.1894,1.18944 h 0.2549 l 2.8037,-0.59472 v 14.0184 l -3.3134,0.67968 c -0.5098,0.085 -0.9346,0.67968 -0.9346,1.18944 v 4.92768 c 0,0.67968 0.5098,1.18944 1.1894,1.18944 h 0.2549 l 2.8037,-0.59472 v 12.65904 h 2.3789 v -13.1688 l 7.5614,-1.52928 V 135.338 h 2.3789 v -12.48912 l 3.2285,-0.59472 c 0.5097,-0.085 0.9345,-0.67968 0.9345,-1.18944 v -5.01264 c 0,-0.67968 -0.5097,-1.18944 -1.1894,-1.18944 h -0.1699 l -2.8037,0.59472 v -14.0184 l 3.2285,-0.59472 m -13.1688,16.73712 V 103.478 l 7.5614,-1.52928 v 14.0184 l -7.5614,1.61424"
     class="Accidental" />
  <path
     style="stroke-width:0.8496"
     id="path25490"
     d="m 1803.9157,100.84424 c 0.5097,-0.085 0.9345,-0.67968 0.9345,-1.18944 v -5.01264 c 0,-0.67968 -0.5097,-1.18944 -1.1894,-1.18944 h -0.1699 l -2.8037,0.59472 V 81.3884 h -2.3789 v 13.1688 l -7.5614,1.52928 V 84.10712 h -2.3789 v 12.48912 l -3.3134,0.67968 c -0.5098,0.08496 -0.9346,0.67968 -0.9346,1.18944 v 0.16992 4.92768 -0.16992 c 0,0.67968 0.5098,1.18944 1.1894,1.18944 h 0.2549 l 2.8037,-0.59472 v 14.0184 l -3.3134,0.67968 c -0.5098,0.085 -0.9346,0.67968 -0.9346,1.18944 v 4.92768 c 0,0.67968 0.5098,1.18944 1.1894,1.18944 h 0.2549 l 2.8037,-0.59472 v 12.65904 h 2.3789 v -13.1688 l 7.5614,-1.52928 V 135.338 h 2.3789 v -12.48912 l 3.2285,-0.59472 c 0.5097,-0.085 0.9345,-0.67968 0.9345,-1.18944 v -5.01264 c 0,-0.67968 -0.5097,-1.18944 -1.1894,-1.18944 h -0.1699 l -2.8037,0.59472 v -14.0184 l 3.2285,-0.59472 m -13.1688,16.73712 V 103.478 l 7.5614,-1.52928 v 14.0184 l -7.5614,1.61424"
     class="Accidental" />
  <polyline
     transform="translate(-360,-1242.39)"
     id="polyline25576"
     points="1107.16,1299.14 1149.63,1299.14"
     stroke-linejoin="bevel"
     stroke-width="3.4"
     stroke="#000000"
     class="LedgerLine" />
  <polyline
     transform="translate(-360,-1242.39)"
     id="polyline25578"
     points="1582.1,1299.14 1624.58,1299.14"
     stroke-linejoin="bevel"
     stroke-width="3.4"
     stroke="#000000"
     class="LedgerLine" />
  <polyline
     transform="translate(-360,-1242.39)"
     id="polyline25580"
     points="1627.34,1299.14 1669.81,1299.14"
     stroke-linejoin="bevel"
     stroke-width="3.4"
     stroke="#000000"
     class="LedgerLine" />
  <polyline
     transform="translate(-360,-1242.39)"
     id="polyline25582"
     points="2032.83,1299.14 2075.31,1299.14"
     stroke-linejoin="bevel"
     stroke-width="3.4"
     stroke="#000000"
     class="LedgerLine" />
  <polyline
     transform="translate(-360,-1242.39)"
     id="polyline25906"
     points="524.106,1418.82 524.106,1484.99"
     stroke-linejoin="bevel"
     stroke-width="2.34"
     stroke="#000000"
     class="Stem" />
  <polyline
     transform="translate(-360,-1242.39)"
     id="polyline25908"
     points="555.013,1376.34 555.013,1475.65"
     stroke-linejoin="bevel"
     stroke-width="2.34"
     stroke="#000000"
     class="Stem" />
  <polyline
     transform="translate(-360,-1242.39)"
     id="polyline25910"
     points="616.091,1355.1 616.091,1457.17"
     stroke-linejoin="bevel"
     stroke-width="2.34"
     stroke="#000000"
     class="Stem" />
  <polyline
     transform="translate(-360,-1242.39)"
     id="polyline25912"
     points="646.998,1312.62 646.998,1447.82"
     stroke-linejoin="bevel"
     stroke-width="2.34"
     stroke="#000000"
     class="Stem" />
  <polyline
     transform="translate(-360,-1242.39)"
     id="polyline25914"
     points="677.905,1323.24 677.905,1421.27"
     stroke-linejoin="bevel"
     stroke-width="2.34"
     stroke="#000000"
     class="Stem" />
  <polyline
     transform="translate(-360,-1242.39)"
     id="polyline25916"
     points="712.417,1344.48 712.417,1421.27"
     stroke-linejoin="bevel"
     stroke-width="2.34"
     stroke="#000000"
     class="Stem" />
  <polyline
     transform="translate(-360,-1242.39)"
     id="polyline25918"
     points="743.324,1355.1 743.324,1421.27"
     stroke-linejoin="bevel"
     stroke-width="2.34"
     stroke="#000000"
     class="Stem" />
  <polyline
     transform="translate(-360,-1242.39)"
     id="polyline25920"
     points="774.232,1344.48 774.232,1421.27"
     stroke-linejoin="bevel"
     stroke-width="2.34"
     stroke="#000000"
     class="Stem" />
  <polyline
     transform="translate(-360,-1242.39)"
     id="polyline25922"
     points="830.408,1413.25 830.408,1283.21"
     stroke-linejoin="bevel"
     stroke-width="2.34"
     stroke="#000000"
     class="Stem" />
  <polyline
     transform="translate(-360,-1242.39)"
     id="polyline25924"
     points="861.315,1338.91 861.315,1274.36"
     stroke-linejoin="bevel"
     stroke-width="2.34"
     stroke="#000000"
     class="Stem" />
  <polyline
     transform="translate(-360,-1242.39)"
     id="polyline25926"
     points="892.222,1349.53 892.222,1265.51"
     stroke-linejoin="bevel"
     stroke-width="2.34"
     stroke="#000000"
     class="Stem" />
  <polyline
     transform="translate(-360,-1242.39)"
     id="polyline25928"
     points="923.129,1338.91 923.129,1256.66"
     stroke-linejoin="bevel"
     stroke-width="2.34"
     stroke="#000000"
     class="Stem" />
  <polyline
     transform="translate(-360,-1242.39)"
     id="polyline25930"
     points="991.946,1408.2 991.946,1469.06"
     stroke-linejoin="bevel"
     stroke-width="2.34"
     stroke="#000000"
     class="Stem" />
  <polyline
     transform="translate(-360,-1242.39)"
     id="polyline25932"
     points="1022.92,1386.96 1022.92,1462.42"
     stroke-linejoin="bevel"
     stroke-width="2.34"
     stroke="#000000"
     class="Stem" />
  <polyline
     transform="translate(-360,-1242.39)"
     id="polyline25934"
     points="1084,1355.1 1084,1449.33"
     stroke-linejoin="bevel"
     stroke-width="2.34"
     stroke="#000000"
     class="Stem" />
  <polyline
     transform="translate(-360,-1242.39)"
     id="polyline25936"
     points="1115.76,1302 1115.76,1442.51"
     stroke-linejoin="bevel"
     stroke-width="2.34"
     stroke="#000000"
     class="Stem" />
  <polyline
     transform="translate(-360,-1242.39)"
     id="polyline25938"
     points="1153.56,1312.62 1153.56,1421.27"
     stroke-linejoin="bevel"
     stroke-width="2.34"
     stroke="#000000"
     class="Stem" />
  <polyline
     transform="translate(-360,-1242.39)"
     id="polyline25940"
     points="1184.54,1344.48 1184.54,1421.27"
     stroke-linejoin="bevel"
     stroke-width="2.34"
     stroke="#000000"
     class="Stem" />
  <polyline
     transform="translate(-360,-1242.39)"
     id="polyline25942"
     points="1215.51,1355.1 1215.51,1421.27"
     stroke-linejoin="bevel"
     stroke-width="2.34"
     stroke="#000000"
     class="Stem" />
  <polyline
     transform="translate(-360,-1242.39)"
     id="polyline25944"
     points="1246.49,1344.48 1246.49,1421.27"
     stroke-linejoin="bevel"
     stroke-width="2.34"
     stroke="#000000"
     class="Stem" />
  <polyline
     transform="translate(-360,-1242.39)"
     id="polyline25946"
     points="1302.73,1402.63 1302.73,1283.21"
     stroke-linejoin="bevel"
     stroke-width="2.34"
     stroke="#000000"
     class="Stem" />
  <polyline
     transform="translate(-360,-1242.39)"
     id="polyline25948"
     points="1333.71,1338.91 1333.71,1274.36"
     stroke-linejoin="bevel"
     stroke-width="2.34"
     stroke="#000000"
     class="Stem" />
  <polyline
     transform="translate(-360,-1242.39)"
     id="polyline25950"
     points="1364.68,1349.53 1364.68,1265.51"
     stroke-linejoin="bevel"
     stroke-width="2.34"
     stroke="#000000"
     class="Stem" />
  <polyline
     transform="translate(-360,-1242.39)"
     id="polyline25952"
     points="1395.66,1338.91 1395.66,1256.66"
     stroke-linejoin="bevel"
     stroke-width="2.34"
     stroke="#000000"
     class="Stem" />
  <polyline
     transform="translate(-360,-1242.39)"
     id="polyline25954"
     points="1464.47,1397.58 1464.47,1463.75"
     stroke-linejoin="bevel"
     stroke-width="2.34"
     stroke="#000000"
     class="Stem" />
  <polyline
     transform="translate(-360,-1242.39)"
     id="polyline25956"
     points="1498.51,1376.34 1498.51,1453.73"
     stroke-linejoin="bevel"
     stroke-width="2.34"
     stroke="#000000"
     class="Stem" />
  <polyline
     transform="translate(-360,-1242.39)"
     id="polyline25958"
     points="1559.59,1355.1 1559.59,1435.75"
     stroke-linejoin="bevel"
     stroke-width="2.34"
     stroke="#000000"
     class="Stem" />
  <polyline
     transform="translate(-360,-1242.39)"
     id="polyline25960"
     points="1590.71,1291.38 1590.71,1426.58"
     stroke-linejoin="bevel"
     stroke-width="2.34"
     stroke="#000000"
     class="Stem" />
  <polyline
     transform="translate(-360,-1242.39)"
     id="polyline25962"
     points="1635.94,1302 1635.94,1421.27"
     stroke-linejoin="bevel"
     stroke-width="2.34"
     stroke="#000000"
     class="Stem" />
  <polyline
     transform="translate(-360,-1242.39)"
     id="polyline25964"
     points="1667.94,1344.48 1667.94,1421.27"
     stroke-linejoin="bevel"
     stroke-width="2.34"
     stroke="#000000"
     class="Stem" />
  <polyline
     transform="translate(-360,-1242.39)"
     id="polyline25966"
     points="1699.05,1355.1 1699.05,1421.27"
     stroke-linejoin="bevel"
     stroke-width="2.34"
     stroke="#000000"
     class="Stem" />
  <polyline
     transform="translate(-360,-1242.39)"
     id="polyline25968"
     points="1730.17,1344.48 1730.17,1421.27"
     stroke-linejoin="bevel"
     stroke-width="2.34"
     stroke="#000000"
     class="Stem" />
  <polyline
     transform="translate(-360,-1242.39)"
     id="polyline25970"
     points="1786.55,1392.01 1786.55,1283.21"
     stroke-linejoin="bevel"
     stroke-width="2.34"
     stroke="#000000"
     class="Stem" />
  <polyline
     transform="translate(-360,-1242.39)"
     id="polyline25972"
     points="1817.67,1338.91 1817.67,1274.36"
     stroke-linejoin="bevel"
     stroke-width="2.34"
     stroke="#000000"
     class="Stem" />
  <polyline
     transform="translate(-360,-1242.39)"
     id="polyline25974"
     points="1848.78,1349.53 1848.78,1265.51"
     stroke-linejoin="bevel"
     stroke-width="2.34"
     stroke="#000000"
     class="Stem" />
  <polyline
     transform="translate(-360,-1242.39)"
     id="polyline25976"
     points="1879.9,1338.91 1879.9,1256.66"
     stroke-linejoin="bevel"
     stroke-width="2.34"
     stroke="#000000"
     class="Stem" />
  <polyline
     transform="translate(-360,-1242.39)"
     id="polyline25978"
     points="1948.71,1386.96 1948.71,1447.82"
     stroke-linejoin="bevel"
     stroke-width="2.34"
     stroke="#000000"
     class="Stem" />
  <polyline
     transform="translate(-360,-1242.39)"
     id="polyline25980"
     points="1979.62,1365.72 1979.62,1438.97"
     stroke-linejoin="bevel"
     stroke-width="2.34"
     stroke="#000000"
     class="Stem" />
  <polyline
     transform="translate(-360,-1242.39)"
     id="polyline25982"
     points="2010.53,1344.48 2010.53,1430.12"
     stroke-linejoin="bevel"
     stroke-width="2.34"
     stroke="#000000"
     class="Stem" />
  <polyline
     transform="translate(-360,-1242.39)"
     id="polyline25984"
     points="2041.44,1291.38 2041.44,1421.27"
     stroke-linejoin="bevel"
     stroke-width="2.34"
     stroke="#000000"
     class="Stem" />
  <polyline
     transform="translate(-360,-1242.39)"
     id="polyline25986"
     points="2079.34,1333.86 2079.34,1421.27"
     stroke-linejoin="bevel"
     stroke-width="2.34"
     stroke="#000000"
     class="Stem" />
  <polyline
     transform="translate(-360,-1242.39)"
     id="polyline25988"
     points="2110.25,1344.48 2110.25,1421.27"
     stroke-linejoin="bevel"
     stroke-width="2.34"
     stroke="#000000"
     class="Stem" />
  <polyline
     transform="translate(-360,-1242.39)"
     id="polyline25990"
     points="2171.32,1355.1 2171.32,1421.27"
     stroke-linejoin="bevel"
     stroke-width="2.34"
     stroke="#000000"
     class="Stem" />
  <polyline
     transform="translate(-360,-1242.39)"
     id="polyline25992"
     points="2202.23,1344.48 2202.23,1421.27"
     stroke-linejoin="bevel"
     stroke-width="2.34"
     stroke="#000000"
     class="Stem" />
  <polyline
     transform="translate(-360,-1242.39)"
     id="polyline25994"
     points="2233.14,1376.34 2233.14,1447.82"
     stroke-linejoin="bevel"
     stroke-width="2.34"
     stroke="#000000"
     class="Stem" />
  <polyline
     transform="translate(-360,-1242.39)"
     id="polyline25996"
     points="2264.05,1344.48 2264.05,1438.97"
     stroke-linejoin="bevel"
     stroke-width="2.34"
     stroke="#000000"
     class="Stem" />
  <polyline
     transform="translate(-360,-1242.39)"
     id="polyline25998"
     points="2294.95,1355.1 2294.95,1430.12"
     stroke-linejoin="bevel"
     stroke-width="2.34"
     stroke="#000000"
     class="Stem" />
  <polyline
     transform="translate(-360,-1242.39)"
     id="polyline26000"
     points="2325.86,1333.86 2325.86,1421.27"
     stroke-linejoin="bevel"
     stroke-width="2.34"
     stroke="#000000"
     class="Stem" />
  <polyline
     transform="translate(-360,-1242.39)"
     id="polyline26002"
     points="2414.64,1323.24 2414.64,1421.27"
     stroke-linejoin="bevel"
     stroke-width="2.34"
     stroke="#000000"
     class="Stem" />
  <polyline
     transform="translate(-360,-1242.39)"
     id="polyline26004"
     points="2445.54,1344.48 2445.54,1430.12"
     stroke-linejoin="bevel"
     stroke-width="2.34"
     stroke="#000000"
     class="Stem" />
  <polyline
     transform="translate(-360,-1242.39)"
     id="polyline26006"
     points="2476.45,1376.34 2476.45,1438.97"
     stroke-linejoin="bevel"
     stroke-width="2.34"
     stroke="#000000"
     class="Stem" />
  <polyline
     transform="translate(-360,-1242.39)"
     id="polyline26008"
     points="2507.36,1386.96 2507.36,1447.82"
     stroke-linejoin="bevel"
     stroke-width="2.34"
     stroke="#000000"
     class="Stem" />
  <polyline
     transform="translate(-360,-1242.39)"
     id="polyline26010"
     points="2563.53,1392.01 2563.53,1304.45"
     stroke-linejoin="bevel"
     stroke-width="2.34"
     stroke="#000000"
     class="Stem" />
  <polyline
     transform="translate(-360,-1242.39)"
     id="polyline26012"
     points="2594.44,1370.77 2594.44,1304.45"
     stroke-linejoin="bevel"
     stroke-width="2.34"
     stroke="#000000"
     class="Stem" />
  <polyline
     transform="translate(-360,-1242.39)"
     id="polyline26014"
     points="2625.35,1413.25 2625.35,1304.45"
     stroke-linejoin="bevel"
     stroke-width="2.34"
     stroke="#000000"
     class="Stem" />
  <path
     style="stroke-width:0.8496"
     id="path26528"
     d="m 189.6994,166.68824 c -1.52928,-2.80368 -4.75776,-4.33296 -8.66592,-4.33296 -2.88864,0 -6.03216,0.8496 -9.09072,2.46384 -5.60736,2.9736 -9.00576,7.98624 -9.00576,12.3192 0,1.18944 0.25488,2.37888 0.8496,3.48336 1.52928,2.80368 4.75776,4.248 8.66592,4.248 2.88864,0 6.03216,-0.76464 9.09072,-2.37888 5.60736,-2.9736 9.00576,-7.98624 9.00576,-12.3192 0,-1.18944 -0.25488,-2.37888 -0.8496,-3.48336"
     class="Note" />
  <path
     style="stroke-width:0.8496"
     id="path26530"
     d="m 220.6064,124.20824 c -1.52928,-2.80368 -4.75776,-4.33296 -8.66592,-4.33296 -2.88864,0 -6.03216,0.8496 -9.09072,2.46384 -5.60736,2.9736 -9.00576,7.98624 -9.00576,12.3192 0,1.18944 0.25488,2.37888 0.8496,3.48336 1.52928,2.80368 4.75776,4.248 8.66592,4.248 2.88864,0 6.03216,-0.76464 9.09072,-2.37888 5.60736,-2.9736 9.00576,-7.98624 9.00576,-12.3192 0,-1.18944 -0.25488,-2.37888 -0.8496,-3.48336"
     class="Note" />
  <path
     style="stroke-width:0.8496"
     id="path26532"
     d="m 281.6854,102.96824 c -1.52928,-2.80368 -4.75776,-4.33296 -8.66592,-4.33296 -2.88864,0 -6.03216,0.8496 -9.09072,2.46384 -5.60736,2.9736 -9.00576,7.98624 -9.00576,12.3192 0,1.18944 0.25488,2.37888 0.8496,3.48336 1.52928,2.80368 4.75776,4.248 8.66592,4.248 2.88864,0 6.03216,-0.76464 9.09072,-2.37888 5.60736,-2.9736 9.00576,-7.98624 9.00576,-12.3192 0,-1.18944 -0.25488,-2.37888 -0.8496,-3.48336"
     class="Note" />
  <path
     style="stroke-width:0.8496"
     id="path26534"
     d="m 312.5924,60.48824 c -1.52928,-2.80368 -4.75776,-4.33296 -8.66592,-4.33296 -2.88864,0 -6.03216,0.8496 -9.09072,2.46384 -5.60736,2.9736 -9.00576,7.98624 -9.00576,12.3192 0,1.18944 0.25488,2.37888 0.8496,3.48336 1.52928,2.80368 4.75776,4.248 8.66592,4.248 2.88864,0 6.03216,-0.76464 9.09072,-2.37888 5.60736,-2.9736 9.00576,-7.98624 9.00576,-12.3192 0,-1.18944 -0.25488,-2.37888 -0.8496,-3.48336"
     class="Note" />
  <path
     style="stroke-width:0.8496"
     id="path26536"
     d="m 343.4994,71.10824 c -1.52928,-2.80368 -4.75776,-4.33296 -8.66592,-4.33296 -2.88864,0 -6.03216,0.8496 -9.09072,2.46384 -5.60736,2.9736 -9.00576,7.98624 -9.00576,12.3192 0,1.18944 0.25488,2.37888 0.8496,3.48336 1.52928,2.80368 4.75776,4.248 8.66592,4.248 2.88864,0 6.03216,-0.76464 9.09072,-2.37888 5.60736,-2.9736 9.00576,-7.98624 9.00576,-12.3192 0,-1.18944 -0.25488,-2.37888 -0.8496,-3.48336"
     class="Note" />
  <path
     style="stroke-width:0.8496"
     id="path26538"
     d="m 378.0114,92.34824 c -1.52928,-2.80368 -4.75776,-4.33296 -8.66592,-4.33296 -2.88864,0 -6.03216,0.8496 -9.09072,2.46384 -5.60736,2.9736 -9.00576,7.98624 -9.00576,12.3192 0,1.18944 0.25488,2.37888 0.8496,3.48336 1.52928,2.80368 4.75776,4.248 8.66592,4.248 2.88864,0 6.03216,-0.76464 9.09072,-2.37888 5.60736,-2.9736 9.00576,-7.98624 9.00576,-12.3192 0,-1.18944 -0.25488,-2.37888 -0.8496,-3.48336"
     class="Note" />
  <path
     style="stroke-width:0.8496"
     id="path26540"
     d="m 408.9184,102.96824 c -1.52928,-2.80368 -4.75776,-4.33296 -8.66592,-4.33296 -2.88864,0 -6.03216,0.8496 -9.09072,2.46384 -5.60736,2.9736 -9.00576,7.98624 -9.00576,12.3192 0,1.18944 0.25488,2.37888 0.8496,3.48336 1.52928,2.80368 4.75776,4.248 8.66592,4.248 2.88864,0 6.03216,-0.76464 9.09072,-2.37888 5.60736,-2.9736 9.00576,-7.98624 9.00576,-12.3192 0,-1.18944 -0.25488,-2.37888 -0.8496,-3.48336"
     class="Note" />
  <path
     style="stroke-width:0.8496"
     id="path26542"
     d="m 439.8254,92.34824 c -1.52928,-2.80368 -4.75776,-4.33296 -8.66592,-4.33296 -2.88864,0 -6.03216,0.8496 -9.09072,2.46384 -5.60736,2.9736 -9.00576,7.98624 -9.00576,12.3192 0,1.18944 0.25488,2.37888 0.8496,3.48336 1.52928,2.80368 4.75776,4.248 8.66592,4.248 2.88864,0 6.03216,-0.76464 9.09072,-2.37888 5.60736,-2.9736 9.00576,-7.98624 9.00576,-12.3192 0,-1.18944 -0.25488,-2.37888 -0.8496,-3.48336"
     class="Note" />
  <path
     style="stroke-width:0.8496"
     id="path26544"
     d="m 470.7324,166.68824 c -1.52928,-2.80368 -4.75776,-4.33296 -8.66592,-4.33296 -2.88864,0 -6.03216,0.8496 -9.09072,2.46384 -5.60736,2.9736 -9.00576,7.98624 -9.00576,12.3192 0,1.18944 0.25488,2.37888 0.8496,3.48336 1.52928,2.80368 4.75776,4.248 8.66592,4.248 2.88864,0 6.03216,-0.76464 9.09072,-2.37888 5.60736,-2.9736 9.00576,-7.98624 9.00576,-12.3192 0,-1.18944 -0.25488,-2.37888 -0.8496,-3.48336"
     class="Note" />
  <path
     style="stroke-width:0.8496"
     id="path26546"
     d="m 501.6404,92.34824 c -1.52928,-2.80368 -4.75776,-4.33296 -8.66592,-4.33296 -2.88864,0 -6.03216,0.8496 -9.09072,2.46384 -5.60736,2.9736 -9.00576,7.98624 -9.00576,12.3192 0,1.18944 0.25488,2.37888 0.8496,3.48336 1.52928,2.80368 4.75776,4.248 8.66592,4.248 2.88864,0 6.03216,-0.76464 9.09072,-2.37888 5.60736,-2.9736 9.00576,-7.98624 9.00576,-12.3192 0,-1.18944 -0.25488,-2.37888 -0.8496,-3.48336"
     class="Note" />
  <path
     style="stroke-width:0.8496"
     id="path26548"
     d="m 532.5474,102.96824 c -1.52928,-2.80368 -4.75776,-4.33296 -8.66592,-4.33296 -2.88864,0 -6.03216,0.8496 -9.09072,2.46384 -5.60736,2.9736 -9.00576,7.98624 -9.00576,12.3192 0,1.18944 0.25488,2.37888 0.8496,3.48336 1.52928,2.80368 4.75776,4.248 8.66592,4.248 2.88864,0 6.03216,-0.76464 9.09072,-2.37888 5.60736,-2.9736 9.00576,-7.98624 9.00576,-12.3192 0,-1.18944 -0.25488,-2.37888 -0.8496,-3.48336"
     class="Note" />
  <path
     style="stroke-width:0.8496"
     id="path26550"
     d="m 563.4544,92.34824 c -1.52928,-2.80368 -4.75776,-4.33296 -8.66592,-4.33296 -2.88864,0 -6.03216,0.8496 -9.09072,2.46384 -5.60736,2.9736 -9.00576,7.98624 -9.00576,12.3192 0,1.18944 0.25488,2.37888 0.8496,3.48336 1.52928,2.80368 4.75776,4.248 8.66592,4.248 2.88864,0 6.03216,-0.76464 9.09072,-2.37888 5.60736,-2.9736 9.00576,-7.98624 9.00576,-12.3192 0,-1.18944 -0.25488,-2.37888 -0.8496,-3.48336"
     class="Note" />
  <path
     style="stroke-width:0.8496"
     id="path26552"
     d="m 657.5404,156.06824 c -1.52928,-2.80368 -4.75776,-4.33296 -8.66592,-4.33296 -2.88864,0 -6.03216,0.8496 -9.09072,2.46384 -5.60736,2.9736 -9.00576,7.98624 -9.00576,12.3192 0,1.18944 0.25488,2.37888 0.8496,3.48336 1.52928,2.80368 4.75776,4.248 8.66592,4.248 2.88864,0 6.03216,-0.76464 9.09072,-2.37888 5.60736,-2.9736 9.00576,-7.98624 9.00576,-12.3192 0,-1.18944 -0.25488,-2.37888 -0.8496,-3.48336"
     class="Note" />
  <path
     style="stroke-width:0.8496"
     id="path26554"
     d="m 688.5124,134.82824 c -1.52928,-2.80368 -4.75776,-4.33296 -8.66592,-4.33296 -2.88864,0 -6.03216,0.8496 -9.09072,2.46384 -5.60736,2.9736 -9.00576,7.98624 -9.00576,12.3192 0,1.18944 0.25488,2.37888 0.8496,3.48336 1.52928,2.80368 4.75776,4.248 8.66592,4.248 2.88864,0 6.03216,-0.76464 9.09072,-2.37888 5.60736,-2.9736 9.00576,-7.98624 9.00576,-12.3192 0,-1.18944 -0.25488,-2.37888 -0.8496,-3.48336"
     class="Note" />
  <path
     style="stroke-width:0.8496"
     id="path26556"
     d="m 749.5924,102.96824 c -1.52928,-2.80368 -4.75776,-4.33296 -8.66592,-4.33296 -2.88864,0 -6.03216,0.8496 -9.09072,2.46384 -5.60736,2.9736 -9.00576,7.98624 -9.00576,12.3192 0,1.18944 0.25488,2.37888 0.8496,3.48336 1.52928,2.80368 4.75776,4.248 8.66592,4.248 2.88864,0 6.03216,-0.76464 9.09072,-2.37888 5.60736,-2.9736 9.00576,-7.98624 9.00576,-12.3192 0,-1.18944 -0.25488,-2.37888 -0.8496,-3.48336"
     class="Note" />
  <path
     style="stroke-width:0.8496"
     id="path26558"
     d="m 781.3524,49.86824 c -1.52928,-2.80368 -4.75776,-4.33296 -8.66592,-4.33296 -2.88864,0 -6.03216,0.8496 -9.09072,2.46384 -5.60736,2.9736 -9.00576,7.98624 -9.00576,12.3192 0,1.18944 0.25488,2.37888 0.8496,3.48336 1.52928,2.80368 4.75776,4.248 8.66592,4.248 2.88864,0 6.03216,-0.76464 9.09072,-2.37888 5.60736,-2.9736 9.00576,-7.98624 9.00576,-12.3192 0,-1.18944 -0.25488,-2.37888 -0.8496,-3.48336"
     class="Note" />
  <path
     style="stroke-width:0.8496"
     id="path26560"
     d="m 819.1624,60.48824 c -1.52928,-2.80368 -4.75776,-4.33296 -8.66592,-4.33296 -2.88864,0 -6.03216,0.8496 -9.09072,2.46384 -5.60736,2.9736 -9.00576,7.98624 -9.00576,12.3192 0,1.18944 0.25488,2.37888 0.8496,3.48336 1.52928,2.80368 4.75776,4.248 8.66592,4.248 2.88864,0 6.03216,-0.76464 9.09072,-2.37888 5.60736,-2.9736 9.00576,-7.98624 9.00576,-12.3192 0,-1.18944 -0.25488,-2.37888 -0.8496,-3.48336"
     class="Note" />
  <path
     style="stroke-width:0.8496"
     id="path26562"
     d="m 850.1324,92.34824 c -1.52928,-2.80368 -4.75776,-4.33296 -8.66592,-4.33296 -2.88864,0 -6.03216,0.8496 -9.09072,2.46384 -5.60736,2.9736 -9.00576,7.98624 -9.00576,12.3192 0,1.18944 0.25488,2.37888 0.8496,3.48336 1.52928,2.80368 4.75776,4.248 8.66592,4.248 2.88864,0 6.03216,-0.76464 9.09072,-2.37888 5.60736,-2.9736 9.00576,-7.98624 9.00576,-12.3192 0,-1.18944 -0.25488,-2.37888 -0.8496,-3.48336"
     class="Note" />
  <path
     style="stroke-width:0.8496"
     id="path26564"
     d="m 881.1024,102.96824 c -1.52928,-2.80368 -4.75776,-4.33296 -8.66592,-4.33296 -2.88864,0 -6.03216,0.8496 -9.09072,2.46384 -5.60736,2.9736 -9.00576,7.98624 -9.00576,12.3192 0,1.18944 0.25488,2.37888 0.8496,3.48336 1.52928,2.80368 4.75776,4.248 8.66592,4.248 2.88864,0 6.03216,-0.76464 9.09072,-2.37888 5.60736,-2.9736 9.00576,-7.98624 9.00576,-12.3192 0,-1.18944 -0.25488,-2.37888 -0.8496,-3.48336"
     class="Note" />
  <path
     style="stroke-width:0.8496"
     id="path26566"
     d="m 912.0824,92.34824 c -1.52928,-2.80368 -4.75776,-4.33296 -8.66592,-4.33296 -2.88864,0 -6.03216,0.8496 -9.09072,2.46384 -5.60736,2.9736 -9.00576,7.98624 -9.00576,12.3192 0,1.18944 0.25488,2.37888 0.8496,3.48336 1.52928,2.80368 4.75776,4.248 8.66592,4.248 2.88864,0 6.03216,-0.76464 9.09072,-2.37888 5.60736,-2.9736 9.00576,-7.98624 9.00576,-12.3192 0,-1.18944 -0.25488,-2.37888 -0.8496,-3.48336"
     class="Note" />
  <path
     style="stroke-width:0.8496"
     id="path26568"
     d="m 943.0524,156.06824 c -1.52928,-2.80368 -4.75776,-4.33296 -8.66592,-4.33296 -2.88864,0 -6.03216,0.8496 -9.09072,2.46384 -5.60736,2.9736 -9.00576,7.98624 -9.00576,12.3192 0,1.18944 0.25488,2.37888 0.8496,3.48336 1.52928,2.80368 4.75776,4.248 8.66592,4.248 2.88864,0 6.03216,-0.76464 9.09072,-2.37888 5.60736,-2.9736 9.00576,-7.98624 9.00576,-12.3192 0,-1.18944 -0.25488,-2.37888 -0.8496,-3.48336"
     class="Note" />
  <path
     style="stroke-width:0.8496"
     id="path26570"
     d="m 974.0324,92.34824 c -1.52928,-2.80368 -4.75776,-4.33296 -8.66592,-4.33296 -2.88864,0 -6.03216,0.8496 -9.09072,2.46384 -5.60736,2.9736 -9.00576,7.98624 -9.00576,12.3192 0,1.18944 0.25488,2.37888 0.8496,3.48336 1.52928,2.80368 4.75776,4.248 8.66592,4.248 2.88864,0 6.03216,-0.76464 9.09072,-2.37888 5.60736,-2.9736 9.00576,-7.98624 9.00576,-12.3192 0,-1.18944 -0.25488,-2.37888 -0.8496,-3.48336"
     class="Note" />
  <path
     style="stroke-width:0.8496"
     id="path26572"
     d="m 1005.0024,102.96824 c -1.5293,-2.80368 -4.7578,-4.33296 -8.66592,-4.33296 -2.88864,0 -6.03216,0.8496 -9.09072,2.46384 -5.60736,2.9736 -9.00576,7.98624 -9.00576,12.3192 0,1.18944 0.25488,2.37888 0.8496,3.48336 1.52928,2.80368 4.75776,4.248 8.66592,4.248 2.88864,0 6.03216,-0.76464 9.09072,-2.37888 5.60736,-2.9736 9.00576,-7.98624 9.00576,-12.3192 0,-1.18944 -0.2549,-2.37888 -0.8496,-3.48336"
     class="Note" />
  <path
     style="stroke-width:0.8496"
     id="path26574"
     d="m 1035.9824,92.34824 c -1.5293,-2.80368 -4.7578,-4.33296 -8.6659,-4.33296 -2.8887,0 -6.0322,0.8496 -9.0907,2.46384 -5.6074,2.9736 -9.0058,7.98624 -9.0058,12.3192 0,1.18944 0.2549,2.37888 0.8496,3.48336 1.5293,2.80368 4.7578,4.248 8.6659,4.248 2.8887,0 6.0322,-0.76464 9.0907,-2.37888 5.6074,-2.9736 9.0058,-7.98624 9.0058,-12.3192 0,-1.18944 -0.2549,-2.37888 -0.8496,-3.48336"
     class="Note" />
  <path
     style="stroke-width:0.8496"
     id="path26576"
     d="m 1130.0624,145.44824 c -1.5293,-2.80368 -4.7578,-4.33296 -8.6659,-4.33296 -2.8887,0 -6.0322,0.8496 -9.0907,2.46384 -5.6074,2.9736 -9.0058,7.98624 -9.0058,12.3192 0,1.18944 0.2549,2.37888 0.8496,3.48336 1.5293,2.80368 4.7578,4.248 8.6659,4.248 2.8887,0 6.0322,-0.76464 9.0907,-2.37888 5.6074,-2.9736 9.0058,-7.98624 9.0058,-12.3192 0,-1.18944 -0.2549,-2.37888 -0.8496,-3.48336"
     class="Note" />
  <path
     style="stroke-width:0.8496"
     id="path26578"
     d="m 1164.1024,124.20824 c -1.5293,-2.80368 -4.7578,-4.33296 -8.6659,-4.33296 -2.8887,0 -6.0322,0.8496 -9.0907,2.46384 -5.6074,2.9736 -9.0058,7.98624 -9.0058,12.3192 0,1.18944 0.2549,2.37888 0.8496,3.48336 1.5293,2.80368 4.7578,4.248 8.6659,4.248 2.8887,0 6.0322,-0.76464 9.0907,-2.37888 5.6074,-2.9736 9.0058,-7.98624 9.0058,-12.3192 0,-1.18944 -0.2549,-2.37888 -0.8496,-3.48336"
     class="Note" />
  <path
     style="stroke-width:0.8496"
     id="path26580"
     d="m 1225.1824,102.96824 c -1.5293,-2.80368 -4.7578,-4.33296 -8.6659,-4.33296 -2.8887,0 -6.0322,0.8496 -9.0907,2.46384 -5.6074,2.9736 -9.0058,7.98624 -9.0058,12.3192 0,1.18944 0.2549,2.37888 0.8496,3.48336 1.5293,2.80368 4.7578,4.248 8.6659,4.248 2.8887,0 6.0322,-0.76464 9.0907,-2.37888 5.6074,-2.9736 9.0058,-7.98624 9.0058,-12.3192 0,-1.18944 -0.2549,-2.37888 -0.8496,-3.48336"
     class="Note" />
  <path
     style="stroke-width:0.8496"
     id="path26582"
     d="m 1256.3024,39.24824 c -1.5293,-2.80368 -4.7578,-4.33296 -8.6659,-4.33296 -2.8887,0 -6.0322,0.8496 -9.0907,2.46384 -5.6074,2.9736 -9.0058,7.98624 -9.0058,12.3192 0,1.18944 0.2549,2.37888 0.8496,3.48336 1.5293,2.80368 4.7578,4.248 8.6659,4.248 2.8887,0 6.0322,-0.76464 9.0907,-2.37888 5.6074,-2.9736 9.0058,-7.98624 9.0058,-12.3192 0,-1.18944 -0.2549,-2.37888 -0.8496,-3.48336"
     class="Note" />
  <path
     style="stroke-width:0.8496"
     id="path26584"
     d="m 1301.5324,49.86824 c -1.5293,-2.80368 -4.7578,-4.33296 -8.6659,-4.33296 -2.8887,0 -6.0322,0.8496 -9.0907,2.46384 -5.6074,2.9736 -9.0058,7.98624 -9.0058,12.3192 0,1.18944 0.2549,2.37888 0.8496,3.48336 1.5293,2.80368 4.7578,4.248 8.6659,4.248 2.8887,0 6.0322,-0.76464 9.0907,-2.37888 5.6074,-2.9736 9.0058,-7.98624 9.0058,-12.3192 0,-1.18944 -0.2549,-2.37888 -0.8496,-3.48336"
     class="Note" />
  <path
     style="stroke-width:0.8496"
     id="path26586"
     d="m 1333.5324,92.34824 c -1.5293,-2.80368 -4.7578,-4.33296 -8.6659,-4.33296 -2.8887,0 -6.0322,0.8496 -9.0907,2.46384 -5.6074,2.9736 -9.0058,7.98624 -9.0058,12.3192 0,1.18944 0.2549,2.37888 0.8496,3.48336 1.5293,2.80368 4.7578,4.248 8.6659,4.248 2.8887,0 6.0322,-0.76464 9.0907,-2.37888 5.6074,-2.9736 9.0058,-7.98624 9.0058,-12.3192 0,-1.18944 -0.2549,-2.37888 -0.8496,-3.48336"
     class="Note" />
  <path
     style="stroke-width:0.8496"
     id="path26588"
     d="m 1364.6424,102.96824 c -1.5293,-2.80368 -4.7578,-4.33296 -8.6659,-4.33296 -2.8887,0 -6.0322,0.8496 -9.0907,2.46384 -5.6074,2.9736 -9.0058,7.98624 -9.0058,12.3192 0,1.18944 0.2549,2.37888 0.8496,3.48336 1.5293,2.80368 4.7578,4.248 8.6659,4.248 2.8887,0 6.0322,-0.76464 9.0907,-2.37888 5.6074,-2.9736 9.0058,-7.98624 9.0058,-12.3192 0,-1.18944 -0.2549,-2.37888 -0.8496,-3.48336"
     class="Note" />
  <path
     style="stroke-width:0.8496"
     id="path26590"
     d="m 1395.7624,92.34824 c -1.5293,-2.80368 -4.7578,-4.33296 -8.6659,-4.33296 -2.8887,0 -6.0322,0.8496 -9.0907,2.46384 -5.6074,2.9736 -9.0058,7.98624 -9.0058,12.3192 0,1.18944 0.2549,2.37888 0.8496,3.48336 1.5293,2.80368 4.7578,4.248 8.6659,4.248 2.8887,0 6.0322,-0.76464 9.0907,-2.37888 5.6074,-2.9736 9.0058,-7.98624 9.0058,-12.3192 0,-1.18944 -0.2549,-2.37888 -0.8496,-3.48336"
     class="Note" />
  <path
     style="stroke-width:0.8496"
     id="path26592"
     d="m 1426.8724,145.44824 c -1.5293,-2.80368 -4.7578,-4.33296 -8.6659,-4.33296 -2.8887,0 -6.0322,0.8496 -9.0907,2.46384 -5.6074,2.9736 -9.0058,7.98624 -9.0058,12.3192 0,1.18944 0.2549,2.37888 0.8496,3.48336 1.5293,2.80368 4.7578,4.248 8.6659,4.248 2.8887,0 6.0322,-0.76464 9.0907,-2.37888 5.6074,-2.9736 9.0058,-7.98624 9.0058,-12.3192 0,-1.18944 -0.2549,-2.37888 -0.8496,-3.48336"
     class="Note" />
  <path
     style="stroke-width:0.8496"
     id="path26594"
     d="m 1457.9924,92.34824 c -1.5293,-2.80368 -4.7578,-4.33296 -8.6659,-4.33296 -2.8887,0 -6.0322,0.8496 -9.0907,2.46384 -5.6074,2.9736 -9.0058,7.98624 -9.0058,12.3192 0,1.18944 0.2549,2.37888 0.8496,3.48336 1.5293,2.80368 4.7578,4.248 8.6659,4.248 2.8887,0 6.0322,-0.76464 9.0907,-2.37888 5.6074,-2.9736 9.0058,-7.98624 9.0058,-12.3192 0,-1.18944 -0.2549,-2.37888 -0.8496,-3.48336"
     class="Note" />
  <path
     style="stroke-width:0.8496"
     id="path26596"
     d="m 1489.1024,102.96824 c -1.5293,-2.80368 -4.7578,-4.33296 -8.6659,-4.33296 -2.8887,0 -6.0322,0.8496 -9.0907,2.46384 -5.6074,2.9736 -9.0058,7.98624 -9.0058,12.3192 0,1.18944 0.2549,2.37888 0.8496,3.48336 1.5293,2.80368 4.7578,4.248 8.6659,4.248 2.8887,0 6.0322,-0.76464 9.0907,-2.37888 5.6074,-2.9736 9.0058,-7.98624 9.0058,-12.3192 0,-1.18944 -0.2549,-2.37888 -0.8496,-3.48336"
     class="Note" />
  <path
     style="stroke-width:0.8496"
     id="path26598"
     d="m 1520.2224,92.34824 c -1.5293,-2.80368 -4.7578,-4.33296 -8.6659,-4.33296 -2.8887,0 -6.0322,0.8496 -9.0907,2.46384 -5.6074,2.9736 -9.0058,7.98624 -9.0058,12.3192 0,1.18944 0.2549,2.37888 0.8496,3.48336 1.5293,2.80368 4.7578,4.248 8.6659,4.248 2.8887,0 6.0322,-0.76464 9.0907,-2.37888 5.6074,-2.9736 9.0058,-7.98624 9.0058,-12.3192 0,-1.18944 -0.2549,-2.37888 -0.8496,-3.48336"
     class="Note" />
  <path
     style="stroke-width:0.8496"
     id="path26600"
     d="m 1614.3124,134.82824 c -1.5293,-2.80368 -4.7578,-4.33296 -8.6659,-4.33296 -2.8887,0 -6.0322,0.8496 -9.0907,2.46384 -5.6074,2.9736 -9.0058,7.98624 -9.0058,12.3192 0,1.18944 0.2549,2.37888 0.8496,3.48336 1.5293,2.80368 4.7578,4.248 8.6659,4.248 2.8887,0 6.0322,-0.76464 9.0907,-2.37888 5.6074,-2.9736 9.0058,-7.98624 9.0058,-12.3192 0,-1.18944 -0.2549,-2.37888 -0.8496,-3.48336"
     class="Note" />
  <path
     style="stroke-width:0.8496"
     id="path26602"
     d="m 1645.2124,113.58824 c -1.5293,-2.80368 -4.7578,-4.33296 -8.6659,-4.33296 -2.8887,0 -6.0322,0.8496 -9.0907,2.46384 -5.6074,2.9736 -9.0058,7.98624 -9.0058,12.3192 0,1.18944 0.2549,2.37888 0.8496,3.48336 1.5293,2.80368 4.7578,4.248 8.6659,4.248 2.8887,0 6.0322,-0.76464 9.0907,-2.37888 5.6074,-2.9736 9.0058,-7.98624 9.0058,-12.3192 0,-1.18944 -0.2549,-2.37888 -0.8496,-3.48336"
     class="Note" />
  <path
     style="stroke-width:0.8496"
     id="path26604"
     d="m 1676.1224,92.34824 c -1.5293,-2.80368 -4.7578,-4.33296 -8.6659,-4.33296 -2.8887,0 -6.0322,0.8496 -9.0907,2.46384 -5.6074,2.9736 -9.0058,7.98624 -9.0058,12.3192 0,1.18944 0.2549,2.37888 0.8496,3.48336 1.5293,2.80368 4.7578,4.248 8.6659,4.248 2.8887,0 6.0322,-0.76464 9.0907,-2.37888 5.6074,-2.9736 9.0058,-7.98624 9.0058,-12.3192 0,-1.18944 -0.2549,-2.37888 -0.8496,-3.48336"
     class="Note" />
  <path
     style="stroke-width:0.8496"
     id="path26606"
     d="m 1707.0324,39.24824 c -1.5293,-2.80368 -4.7578,-4.33296 -8.6659,-4.33296 -2.8887,0 -6.0322,0.8496 -9.0907,2.46384 -5.6074,2.9736 -9.0058,7.98624 -9.0058,12.3192 0,1.18944 0.2549,2.37888 0.8496,3.48336 1.5293,2.80368 4.7578,4.248 8.6659,4.248 2.8887,0 6.0322,-0.76464 9.0907,-2.37888 5.6074,-2.9736 9.0058,-7.98624 9.0058,-12.3192 0,-1.18944 -0.2549,-2.37888 -0.8496,-3.48336"
     class="Note" />
  <path
     style="stroke-width:0.8496"
     id="path26608"
     d="m 1744.9324,81.72824 c -1.5293,-2.80368 -4.7578,-4.33296 -8.6659,-4.33296 -2.8887,0 -6.0322,0.8496 -9.0907,2.46384 -5.6074,2.9736 -9.0058,7.98624 -9.0058,12.3192 0,1.18944 0.2549,2.37888 0.8496,3.48336 1.5293,2.80368 4.7578,4.248 8.6659,4.248 2.8887,0 6.0322,-0.76464 9.0907,-2.37888 5.6074,-2.9736 9.0058,-7.98624 9.0058,-12.3192 0,-1.18944 -0.2549,-2.37888 -0.8496,-3.48336"
     class="Note" />
  <path
     style="stroke-width:0.8496"
     id="path26610"
     d="m 1775.8424,92.34824 c -1.5293,-2.80368 -4.7578,-4.33296 -8.6659,-4.33296 -2.8887,0 -6.0322,0.8496 -9.0907,2.46384 -5.6074,2.9736 -9.0058,7.98624 -9.0058,12.3192 0,1.18944 0.2549,2.37888 0.8496,3.48336 1.5293,2.80368 4.7578,4.248 8.6659,4.248 2.8887,0 6.0322,-0.76464 9.0907,-2.37888 5.6074,-2.9736 9.0058,-7.98624 9.0058,-12.3192 0,-1.18944 -0.2549,-2.37888 -0.8496,-3.48336"
     class="Note" />
  <path
     style="stroke-width:0.8496"
     id="path26612"
     d="m 1836.9224,102.96824 c -1.5293,-2.80368 -4.7578,-4.33296 -8.6659,-4.33296 -2.8887,0 -6.0322,0.8496 -9.0907,2.46384 -5.6074,2.9736 -9.0058,7.98624 -9.0058,12.3192 0,1.18944 0.2549,2.37888 0.8496,3.48336 1.5293,2.80368 4.7578,4.248 8.6659,4.248 2.8887,0 6.0322,-0.76464 9.0907,-2.37888 5.6074,-2.9736 9.0058,-7.98624 9.0058,-12.3192 0,-1.18944 -0.2549,-2.37888 -0.8496,-3.48336"
     class="Note" />
  <path
     style="stroke-width:0.8496"
     id="path26614"
     d="m 1867.8224,92.34824 c -1.5293,-2.80368 -4.7578,-4.33296 -8.6659,-4.33296 -2.8887,0 -6.0322,0.8496 -9.0907,2.46384 -5.6074,2.9736 -9.0058,7.98624 -9.0058,12.3192 0,1.18944 0.2549,2.37888 0.8496,3.48336 1.5293,2.80368 4.7578,4.248 8.6659,4.248 2.8887,0 6.0322,-0.76464 9.0907,-2.37888 5.6074,-2.9736 9.0058,-7.98624 9.0058,-12.3192 0,-1.18944 -0.2549,-2.37888 -0.8496,-3.48336"
     class="Note" />
  <path
     style="stroke-width:0.8496"
     id="path26616"
     d="m 1898.7324,124.20824 c -1.5293,-2.80368 -4.7578,-4.33296 -8.6659,-4.33296 -2.8887,0 -6.0322,0.8496 -9.0907,2.46384 -5.6074,2.9736 -9.0058,7.98624 -9.0058,12.3192 0,1.18944 0.2549,2.37888 0.8496,3.48336 1.5293,2.80368 4.7578,4.248 8.6659,4.248 2.8887,0 6.0322,-0.76464 9.0907,-2.37888 5.6074,-2.9736 9.0058,-7.98624 9.0058,-12.3192 0,-1.18944 -0.2549,-2.37888 -0.8496,-3.48336"
     class="Note" />
  <path
     style="stroke-width:0.8496"
     id="path26618"
     d="m 1929.6424,92.34824 c -1.5293,-2.80368 -4.7578,-4.33296 -8.6659,-4.33296 -2.8887,0 -6.0322,0.8496 -9.0907,2.46384 -5.6074,2.9736 -9.0058,7.98624 -9.0058,12.3192 0,1.18944 0.2549,2.37888 0.8496,3.48336 1.5293,2.80368 4.7578,4.248 8.6659,4.248 2.8887,0 6.0322,-0.76464 9.0907,-2.37888 5.6074,-2.9736 9.0058,-7.98624 9.0058,-12.3192 0,-1.18944 -0.2549,-2.37888 -0.8496,-3.48336"
     class="Note" />
  <path
     style="stroke-width:0.8496"
     id="path26620"
     d="m 1960.5424,102.96824 c -1.5293,-2.80368 -4.7578,-4.33296 -8.6659,-4.33296 -2.8887,0 -6.0322,0.8496 -9.0907,2.46384 -5.6074,2.9736 -9.0058,7.98624 -9.0058,12.3192 0,1.18944 0.2549,2.37888 0.8496,3.48336 1.5293,2.80368 4.7578,4.248 8.6659,4.248 2.8887,0 6.0322,-0.76464 9.0907,-2.37888 5.6074,-2.9736 9.0058,-7.98624 9.0058,-12.3192 0,-1.18944 -0.2549,-2.37888 -0.8496,-3.48336"
     class="Note" />
  <path
     style="stroke-width:0.8496"
     id="path26622"
     d="m 1991.4524,81.72824 c -1.5293,-2.80368 -4.7578,-4.33296 -8.6659,-4.33296 -2.8887,0 -6.0322,0.8496 -9.0907,2.46384 -5.6074,2.9736 -9.0058,7.98624 -9.0058,12.3192 0,1.18944 0.2549,2.37888 0.8496,3.48336 1.5293,2.80368 4.7578,4.248 8.6659,4.248 2.8887,0 6.0322,-0.76464 9.0907,-2.37888 5.6074,-2.9736 9.0058,-7.98624 9.0058,-12.3192 0,-1.18944 -0.2549,-2.37888 -0.8496,-3.48336"
     class="Note" />
  <path
     style="stroke-width:0.8496"
     id="path26624"
     d="m 2080.2324,71.10824 c -1.5293,-2.80368 -4.7578,-4.33296 -8.6659,-4.33296 -2.8887,0 -6.0322,0.8496 -9.0907,2.46384 -5.6074,2.9736 -9.0058,7.98624 -9.0058,12.3192 0,1.18944 0.2549,2.37888 0.8496,3.48336 1.5293,2.80368 4.7578,4.248 8.6659,4.248 2.8887,0 6.0322,-0.76464 9.0907,-2.37888 5.6074,-2.9736 9.0058,-7.98624 9.0058,-12.3192 0,-1.18944 -0.2549,-2.37888 -0.8496,-3.48336"
     class="Note" />
  <path
     style="stroke-width:0.8496"
     id="path26626"
     d="m 2111.1424,92.34824 c -1.5293,-2.80368 -4.7578,-4.33296 -8.6659,-4.33296 -2.8887,0 -6.0322,0.8496 -9.0907,2.46384 -5.6074,2.9736 -9.0058,7.98624 -9.0058,12.3192 0,1.18944 0.2549,2.37888 0.8496,3.48336 1.5293,2.80368 4.7578,4.248 8.6659,4.248 2.8887,0 6.0322,-0.76464 9.0907,-2.37888 5.6074,-2.9736 9.0058,-7.98624 9.0058,-12.3192 0,-1.18944 -0.2549,-2.37888 -0.8496,-3.48336"
     class="Note" />
  <path
     style="stroke-width:0.8496"
     id="path26628"
     d="m 2142.0424,124.20824 c -1.5293,-2.80368 -4.7578,-4.33296 -8.6659,-4.33296 -2.8887,0 -6.0322,0.8496 -9.0907,2.46384 -5.6074,2.9736 -9.0058,7.98624 -9.0058,12.3192 0,1.18944 0.2549,2.37888 0.8496,3.48336 1.5293,2.80368 4.7578,4.248 8.6659,4.248 2.8887,0 6.0322,-0.76464 9.0907,-2.37888 5.6074,-2.9736 9.0058,-7.98624 9.0058,-12.3192 0,-1.18944 -0.2549,-2.37888 -0.8496,-3.48336"
     class="Note" />
  <path
     style="stroke-width:0.8496"
     id="path26630"
     d="m 2172.9524,134.82824 c -1.5293,-2.80368 -4.7578,-4.33296 -8.6659,-4.33296 -2.8887,0 -6.0322,0.8496 -9.0907,2.46384 -5.6074,2.9736 -9.0058,7.98624 -9.0058,12.3192 0,1.18944 0.2549,2.37888 0.8496,3.48336 1.5293,2.80368 4.7578,4.248 8.6659,4.248 2.8887,0 6.0322,-0.76464 9.0907,-2.37888 5.6074,-2.9736 9.0058,-7.98624 9.0058,-12.3192 0,-1.18944 -0.2549,-2.37888 -0.8496,-3.48336"
     class="Note" />
  <path
     style="stroke-width:0.8496"
     id="path26632"
     d="m 2203.8624,145.44824 c -1.5293,-2.80368 -4.7578,-4.33296 -8.6659,-4.33296 -2.8887,0 -6.0322,0.8496 -9.0907,2.46384 -5.6074,2.9736 -9.0058,7.98624 -9.0058,12.3192 0,1.18944 0.2549,2.37888 0.8496,3.48336 1.5293,2.80368 4.7578,4.248 8.6659,4.248 2.8887,0 6.0322,-0.76464 9.0907,-2.37888 5.6074,-2.9736 9.0058,-7.98624 9.0058,-12.3192 0,-1.18944 -0.2549,-2.37888 -0.8496,-3.48336"
     class="Note" />
  <path
     style="stroke-width:0.8496"
     id="path26634"
     d="m 2234.7624,124.20824 c -1.5293,-2.80368 -4.7578,-4.33296 -8.6659,-4.33296 -2.8887,0 -6.0322,0.8496 -9.0907,2.46384 -5.6074,2.9736 -9.0058,7.98624 -9.0058,12.3192 0,1.18944 0.2549,2.37888 0.8496,3.48336 1.5293,2.80368 4.7578,4.248 8.6659,4.248 2.8887,0 6.0322,-0.76464 9.0907,-2.37888 5.6074,-2.9736 9.0058,-7.98624 9.0058,-12.3192 0,-1.18944 -0.2549,-2.37888 -0.8496,-3.48336"
     class="Note" />
  <path
     style="stroke-width:0.8496"
     id="path26636"
     d="m 2265.6724,166.68824 c -1.5293,-2.80368 -4.7578,-4.33296 -8.6659,-4.33296 -2.8887,0 -6.0322,0.8496 -9.0907,2.46384 -5.6074,2.9736 -9.0058,7.98624 -9.0058,12.3192 0,1.18944 0.2549,2.37888 0.8496,3.48336 1.5293,2.80368 4.7578,4.248 8.6659,4.248 2.8887,0 6.0322,-0.76464 9.0907,-2.37888 5.6074,-2.9736 9.0058,-7.98624 9.0058,-12.3192 0,-1.18944 -0.2549,-2.37888 -0.8496,-3.48336"
     class="Note" />
  <path
     style="stroke-width:0.8496"
     id="path26922"
     d="m 52.683696,202.68579 c 0.01699,-1.28281 -0.569317,-2.50632 -1.597248,-3.28795 -1.028016,-0.80712 -2.438352,-1.23192 -4.07808,-1.23192 -1.971072,0 -3.755232,0.6033 -5.021136,1.6992 -1.265904,1.09598 -1.979653,2.65933 -1.979653,4.38402 0,1.58875 0.526837,2.75262 1.792741,3.93356 -0.968544,0.39082 -1.6992,0.79871 -2.344981,1.29148 -1.308299,0.99403 -2.08152,2.46384 -2.08152,3.93356 0,2.7697 2.514901,4.62191 6.270133,4.62191 4.596336,0 7.807824,-2.5488 7.807824,-6.18517 0,-1.89461 -0.8496,-3.54275 -2.404368,-4.68971 2.480832,-1.01952 3.636288,-2.44693 3.636288,-4.46898 m -8.470597,13.5936 c -1.86912,0 -3.109451,-1.20643 -3.109451,-2.99909 0,-1.61424 0.781632,-2.98201 2.200464,-3.85718 0.305856,0.16142 0.38232,0.2039 0.671184,0.34842 1.011024,0.50976 1.011024,0.50976 1.223424,0.6372 h 0.0085 c 1.622736,0.92598 2.276843,1.80115 2.276843,3.0075 0,1.62282 -1.410251,2.86315 -3.27096,2.86315 m 3.203077,-10.20361 c -1.214928,-0.6372 -1.546357,-0.8242 -1.86912,-1.01111 l -0.08496,-0.0509 c -1.31688,-0.79871 -1.724688,-1.37644 -1.724688,-2.44685 0,-1.52928 1.172448,-2.59986 2.837664,-2.59986 1.682208,0 2.650667,1.01952 2.650667,2.78669 0,1.41042 -0.492683,2.31949 -1.809563,3.32202 m 7.111152,-8.74247 -0.33984,-0.17833 v 1.85204 l 0.101952,0.068 c 1.31688,0.93456 1.886112,1.60583 2.455259,2.84616 0.815701,1.75867 1.248997,4.22251 1.248997,7.11965 0,2.65075 -0.348336,4.8852 -1.036597,6.62688 -0.611627,1.59733 -1.23192,2.37888 -2.667659,3.37291 l -0.101952,0.068 v 1.85221 l 0.33984,-0.1785 c 1.852128,-0.96846 2.88864,-1.76717 4.112064,-3.186 2.08152,-2.44685 3.186,-5.40337 3.186,-8.56397 0.0085,-2.90563 -0.968544,-5.7348 -2.769696,-8.01164 -1.265904,-1.63132 -2.489328,-2.63376 -4.528368,-3.68735 M 70.81416,136.72292 c -1.045008,-4.6134 -3.287952,-7.85879 -3.95064,-8.74246 -2.710224,-3.62779 -6.11712,-6.04915 -10.101744,-7.19611 -2.642256,-0.75606 -5.191056,-0.8496 -7.247088,-0.69667 -0.883669,-5.1061 -1.733269,-10.10166 -2.50632,-14.73198 4.63032,-5.24212 7.705872,-10.169796 9.64296,-13.823076 2.948112,-5.590283 3.925152,-9.481451 3.967632,-9.651371 1.461312,-4.426501 1.767168,-10.968421 0.832608,-17.943552 -0.858096,-6.41448 -2.63376,-12.115381 -4.63032,-14.876581 -0.875088,-1.214928 -1.767168,-1.835136 -2.650752,-1.835136 -1.036597,0 -3.169008,1.053504 -5.624437,3.406896 -1.95408,1.86912 -4.732187,5.174064 -6.907163,10.28016 -2.5488,5.998261 -2.727216,14.06088 -2.429856,19.770192 0.322848,6.176592 1.265819,11.010901 1.2744,11.053381 0.01699,0.07638 0.237888,1.350779 0.620208,3.534251 -0.195408,0.195408 -0.399312,0.38232 -0.611712,0.586309 -0.883584,0.8496 -1.894608,1.818059 -3.067056,2.990507 -0.730741,0.730741 -1.537861,1.50379 -2.387461,2.3279 -7.17912,6.91583 -18.045419,17.38282 -18.045419,33.65266 0,3.99312 0.76464,7.74837 2.276911,11.15532 1.350898,3.05856 3.304978,5.84526 5.794289,8.28361 6.567408,6.41448 15.564672,9.14161 21.562848,9.00576 2.50632,-0.0595 4.740768,-0.26346 6.771312,-0.64578 1.554768,8.15616 2.523312,14.12885 2.557296,18.66571 0.03398,5.5309 -1.367856,8.90381 -4.681296,11.2572 -2.064528,1.46981 -4.451904,2.27693 -7.085664,2.40437 -2.200464,0.10195 -4.12056,-0.29736 -5.335488,-0.64561 h -0.0085 c 0,0 -0.246384,-0.068 -0.25488,-0.23789 -0.0085,-0.15301 0.288864,-0.19549 0.29736,-0.19549 h 0.01691 c 1.631317,-0.37374 4.664389,-1.41875 6.66936,-4.22243 1.52928,-2.14099 2.268517,-6.06623 0.705253,-9.41365 -0.943056,-2.03046 -3.075552,-4.53678 -7.850304,-4.9191 -2.115589,-0.16992 -4.044096,0.26329 -5.743296,1.28281 -1.537776,0.91757 -2.812176,2.31091 -3.704256,4.01011 -2.090016,3.99312 -1.6992,8.86133 0.959963,12.12388 1.622821,1.98798 3.840277,3.50876 6.448549,4.46881 l -0.03407,0.017 -0.220811,0.11903 c -1.852128,0.96846 -2.88864,1.76717 -4.112149,3.186 -2.03904,2.37888 -3.168923,5.40337 -3.186,8.5299 -0.0084,2.91413 0.968629,5.75179 2.769781,8.0373 1.299888,1.65672 2.523312,2.65925 4.519872,3.70417 l 0.33984,0.17842 v -1.85213 l -0.09346,-0.068 c -1.31688,-0.93456 -1.894608,-1.59716 -2.46384,-2.84616 -0.815616,-1.75867 -1.248997,-4.23092 -1.248997,-7.15363 0,-2.63376 0.348421,-4.85971 1.036597,-6.60139 0.59472,-1.55477 1.223424,-2.3449 2.667744,-3.37283 l 0.101952,-0.068 v -1.77558 c 1.410336,0.50976 2.922624,0.85801 4.528368,1.02793 0.72216,0.0766 1.44432,0.11045 2.16648,0.11045 3.763728,0 7.501968,-1.01952 10.53504,-2.89714 3.109536,-2.18347 4.910688,-5.56488 5.488416,-10.34804 0.475776,-3.94223 0.144432,-8.96328 -1.045008,-15.81964 -0.305856,-1.77566 -0.76464,-4.34995 -1.325376,-7.54436 4.8852,-1.63132 8.419536,-4.66439 11.622528,-9.63455 2.795099,-4.88518 3.593808,-10.06774 2.37888,-15.41167 M 45.147659,70.51352 c 1.512373,-4.876619 3.840277,-7.637819 5.530981,-9.107627 1.4868,-1.291392 2.88864,-1.894693 3.670272,-1.894693 0.118944,0 0.220896,0.01699 0.305856,0.04248 0.390731,0.118944 0.841104,0.603301 1.240331,1.342453 1.962661,3.644699 1.333957,9.3456 0.195493,13.117739 -1.384933,4.58784 -3.86568,9.362592 -11.34216,17.527248 C 44.604,90.598064 44.467979,89.705984 44.340539,88.873461 43.278539,81.830192 43.550496,75.6536 45.147659,70.51352 m -3.3984,88.45194 c -3.942059,-1.0366 -7.705787,-3.1606 -10.900283,-6.1342 -1.112976,-1.04492 -2.701728,-2.8886 -3.95064,-5.76878 -1.164037,-2.6847 -1.724705,-5.59881 -1.682225,-8.64891 0.05949,-3.98457 1.172465,-8.07963 3.304961,-12.1493 2.480747,-4.74077 6.355008,-9.43897 11.503584,-13.96734 1.23192,-1.08757 2.395872,-2.17506 3.491856,-3.26255 0.645696,3.6193 1.350864,7.60392 2.098427,11.74997 -3.27096,1.07899 -7.30656,3.75523 -9.948731,8.55547 -3.007669,5.59039 -2.88864,10.27174 -2.268432,13.22833 0.798624,3.78918 2.948112,6.98373 5.887643,8.75932 0.790213,0.47586 4.299061,2.28551 5.86224,1.79274 0.314437,-0.10195 0.543829,-0.28895 0.662773,-0.56923 0.433296,-0.99412 -0.433296,-1.53786 -1.758672,-2.35344 -0.50976,-0.31437 -1.078992,-0.67122 -1.6992,-1.12149 -2.820672,-2.11545 -4.052592,-5.89617 -3.14352,-9.61749 0.492768,-2.03904 1.580256,-3.87414 3.14352,-5.31846 1.418832,-1.31692 3.152016,-2.25148 5.173979,-2.79522 1.733269,9.54954 3.48336,19.02254 4.876789,26.1252 0.110448,0.58622 0.229392,1.15554 0.33984,1.72477 -3.721248,0.79013 -7.417008,0.71358 -10.993909,-0.22939 m 21.8772,-8.66592 c -0.993947,2.70164 -3.083963,6.1596 -7.442411,7.90969 -0.05947,-0.35683 -0.12744,-0.72216 -0.195408,-1.08749 -1.308384,-7.45097 -2.956608,-16.78802 -4.621824,-26.3376 8.79336,-0.39931 12.421152,5.92177 13.177296,10.02532 0.399227,2.14101 0.390816,5.91318 -0.917653,9.49008"
     class="Clef" />
  <path
     style="stroke-width:0.8496"
     id="path26934"
     d="m 109.66996,113.75816 c -0.50976,-3.31344 -2.5488,-6.45696 -6.88176,-6.45696 -4.248,0 -6.71184,2.63376 -7.13664,3.14352 L 95.9914,83.17256 c 0,-0.67968 -0.50976,-1.18944 -1.18944,-1.18944 h -1.01952 c -0.67968,0 -1.18944,0.50976 -1.18944,1.18944 l 0.4248,51.06096 c 0,0.67968 0.50976,1.18944 1.18944,1.18944 0.16992,0 0.50976,-0.085 0.67968,-0.16992 0.33984,-0.16992 5.86224,-2.88864 10.45008,-8.0712 3.22848,-3.65328 4.50288,-7.81632 4.50288,-11.29968 0,-0.76464 -0.085,-1.44432 -0.16992,-2.124 m -5.86224,3.31344 c 0,1.2744 -0.33984,5.18256 -2.46384,8.41104 -1.44432,2.20896 -4.33296,4.50288 -5.9472,5.77728 l 0.25488,-16.5672 c 0.16992,-0.76464 1.44432,-3.22848 4.84272,-3.22848 3.05856,0 3.31344,2.88864 3.31344,4.6728 v 0.93456"
     class="KeySig" />
  <path
     id="path27134"
     d="m 162.937,237.06 125.229,-37.88 v 11.1 l -125.229,37.87 v -11.09"
     fill-rule="evenodd"
     class="Beam" />
  <path
     id="path27136"
     d="m 162.937,221.13 125.229,-37.88 v 11.1 l -125.229,37.87 v -11.09"
     fill-rule="evenodd"
     class="Beam" />
  <path
     id="path27138"
     d="M 316.737,173.57 H 415.4 v 10.62 h -98.663 v -10.62"
     fill-rule="evenodd"
     class="Beam" />
  <path
     id="path27140"
     d="M 316.737,157.64 H 415.4 v 10.62 h -98.663 v -10.62"
     fill-rule="evenodd"
     class="Beam" />
  <path
     id="path27142"
     d="M 469.239,35.97 564.297,8.75 V 19.8 L 469.239,47.02 V 35.97"
     fill-rule="evenodd"
     class="Beam" />
  <path
     id="path27144"
     d="M 469.239,51.9 564.297,24.68 V 35.73 L 469.239,62.95 V 51.9"
     fill-rule="evenodd"
     class="Beam" />
  <path
     id="path27146"
     d="M 630.778,221.24 756.93,194.19 v 10.86 l -126.152,27.06 v -10.87"
     fill-rule="evenodd"
     class="Beam" />
  <path
     id="path27148"
     d="M 630.778,205.31 756.93,178.26 v 10.86 l -126.152,27.06 v -10.87"
     fill-rule="evenodd"
     class="Beam" />
  <path
     id="path27150"
     d="m 792.4,173.57 h 95.26 v 10.62 H 792.4 v -10.62"
     fill-rule="evenodd"
     class="Beam" />
  <path
     id="path27152"
     d="m 792.4,157.64 h 95.26 v 10.62 H 792.4 v -10.62"
     fill-rule="evenodd"
     class="Beam" />
  <path
     id="path27154"
     d="M 941.56,35.97 1036.82,8.75 V 19.8 L 941.56,47.01 V 35.97"
     fill-rule="evenodd"
     class="Beam" />
  <path
     id="path27156"
     d="m 941.56,51.9 95.26,-27.22 V 35.73 L 941.56,62.94 V 51.9"
     fill-rule="evenodd"
     class="Beam" />
  <path
     id="path27158"
     d="m 1103.3,215.83 128.57,-37.86 v 11.07 L 1103.3,226.9 v -11.07"
     fill-rule="evenodd"
     class="Beam" />
  <path
     id="path27160"
     d="m 1103.3,199.9 128.57,-37.86 v 11.07 L 1103.3,210.97 V 199.9"
     fill-rule="evenodd"
     class="Beam" />
  <path
     id="path27162"
     d="m 1274.77,173.57 h 96.57 v 10.62 h -96.57 v -10.62"
     fill-rule="evenodd"
     class="Beam" />
  <path
     id="path27164"
     d="m 1274.77,157.64 h 96.57 v 10.62 h -96.57 v -10.62"
     fill-rule="evenodd"
     class="Beam" />
  <path
     id="path27166"
     d="M 1425.38,35.97 1521.06,8.75 V 19.8 l -95.68,27.21 V 35.97"
     fill-rule="evenodd"
     class="Beam" />
  <path
     id="path27168"
     d="m 1425.38,51.9 95.68,-27.22 v 11.05 l -95.68,27.21 V 51.9"
     fill-rule="evenodd"
     class="Beam" />
  <path
     id="path27170"
     d="m 1587.55,199.91 95.05,-27.22 v 11.05 l -95.05,27.22 v -11.05"
     fill-rule="evenodd"
     class="Beam" />
  <path
     id="path27172"
     d="m 1587.55,183.98 95.05,-27.22 v 11.05 l -95.05,27.22 v -11.05"
     fill-rule="evenodd"
     class="Beam" />
  <path
     id="path27174"
     d="m 1718.17,173.57 h 125.23 v 10.62 h -125.23 v -10.62"
     fill-rule="evenodd"
     class="Beam" />
  <path
     id="path27176"
     d="m 1718.17,157.64 h 125.23 v 10.62 h -125.23 v -10.62"
     fill-rule="evenodd"
     class="Beam" />
  <path
     id="path27178"
     d="m 1871.97,199.91 95.06,-27.22 v 11.05 l -95.06,27.22 v -11.05"
     fill-rule="evenodd"
     class="Beam" />
  <path
     id="path27180"
     d="m 1871.97,183.98 95.06,-27.22 v 11.05 l -95.06,27.22 v -11.05"
     fill-rule="evenodd"
     class="Beam" />
  <path
     id="path27182"
     d="m 2053.47,173.36 95.06,27.22 v 11.05 l -95.06,-27.22 v -11.05"
     fill-rule="evenodd"
     class="Beam" />
  <path
     id="path27184"
     d="m 2053.47,157.43 95.06,27.22 v 11.05 l -95.06,-27.22 v -11.05"
     fill-rule="evenodd"
     class="Beam" />
  <path
     id="path27186"
     d="m 2202.37,56.75 h 101.95 V 67.37 H 2202.37 V 56.75"
     fill-rule="evenodd"
     class="Beam" />
  <path
     id="path27188"
     d="m 2202.37,72.68 h 101.95 V 83.3 H 2202.37 V 72.68"
     fill-rule="evenodd"
     class="Beam" />
  <path
     id="path27556"
     d="m 176.943,42.91 c -4.76,0 -8.228,5.17 -8.228,12.31 0,7 3.366,12.13 7.956,12.13 4.76,0 8.092,-4.96 8.092,-12.03 0,-3.61 -0.748,-6.6 -2.176,-8.94 -1.326,-2.15 -3.502,-3.47 -5.644,-3.47 m -0.238,1.46 c 1.122,0 2.21,0.75 3.026,2.11 0.918,1.6 1.224,3.53 1.224,8.19 0,4.8 -0.238,7.04 -0.918,8.54 -0.782,1.66 -2.006,2.68 -3.298,2.68 -1.156,0 -2.21,-0.75 -3.026,-2.11 -0.952,-1.59 -1.224,-3.7 -1.224,-9.28 0,-3.98 0.238,-5.95 0.918,-7.44 0.782,-1.7 2.006,-2.69 3.298,-2.69"
     class="Fingering" />
  <path
     id="path27558"
     d="m 208.858,43.55 c -4.76,0 -8.228,5.17 -8.228,12.31 0,7 3.366,12.14 7.956,12.14 4.76,0 8.092,-4.97 8.092,-12.04 0,-3.6 -0.748,-6.59 -2.176,-8.94 -1.326,-2.14 -3.502,-3.47 -5.644,-3.47 m -0.238,1.46 c 1.122,0 2.21,0.75 3.026,2.11 0.918,1.6 1.224,3.54 1.224,8.2 0,4.79 -0.238,7.03 -0.918,8.53 -0.782,1.67 -2.006,2.69 -3.298,2.69 -1.156,0 -2.21,-0.75 -3.026,-2.11 -0.952,-1.6 -1.224,-3.71 -1.224,-9.28 0,-3.98 0.238,-5.95 0.918,-7.45 0.782,-1.7 2.006,-2.69 3.298,-2.69"
     class="Fingering" />
  <path
     id="path27560"
     d="m 271.8,43.41 -11.56,16.08 v 1.9 h 9.554 v 1.77 c 0,1.74 0,1.8 -0.204,2.11 -0.272,0.37 -0.918,0.48 -2.856,0.48 h -0.374 v 1.59 h 9.928 v -1.59 h -0.136 c -1.938,0 -2.584,-0.11 -2.856,-0.48 -0.204,-0.31 -0.204,-0.34 -0.204,-2.11 v -1.77 h 4.114 v -1.9 h -4.114 v -9.28 c 0,-4.25 0,-4.35 0.17,-6.8 H 271.8 m -2.006,16.08 h -7.48 l 7.48,-10.3 v 10.3"
     class="Fingering" />
  <path
     id="path27562"
     d="m 302.209,32.67 c 3.094,-1.13 4.522,-2.86 4.522,-5.58 0,-3.57 -2.72,-5.85 -6.936,-5.85 -3.978,0 -7.004,2.35 -7.004,5.44 0,1.4 0.918,2.38 2.244,2.38 1.19,0 2.006,-0.81 2.006,-2.04 0,-0.75 -0.272,-1.19 -1.054,-1.73 -0.34,-0.24 -0.442,-0.38 -0.442,-0.61 0,-0.96 1.972,-1.98 3.91,-1.98 2.448,0 3.74,1.53 3.74,4.42 0,3.17 -1.292,4.83 -3.706,4.83 -0.306,0 -0.884,-0.03 -1.394,-0.07 -0.272,-0.03 -0.544,-0.03 -0.748,-0.03 -0.714,0 -1.088,0.31 -1.088,0.92 0,0.58 0.34,0.85 1.088,0.85 0.204,0 0.476,0 0.782,-0.04 0.68,-0.03 1.224,-0.03 1.598,-0.03 2.516,0 3.876,1.8 3.876,5.17 0,3.53 -1.7,5.51 -4.76,5.51 -2.142,0 -4.454,-1.16 -4.454,-2.21 0,-0.31 0.068,-0.38 0.714,-0.75 0.952,-0.58 1.326,-1.16 1.326,-2.01 0,-1.22 -0.918,-2.14 -2.142,-2.14 -1.462,0 -2.414,1.19 -2.414,2.99 0,3.3 3.026,5.58 7.378,5.58 4.93,0 8.126,-2.72 8.126,-6.9 0,-3.2 -1.632,-5.14 -5.168,-6.12"
     class="Fingering" />
  <path
     id="path27564"
     d="m 327.848,21.41 c -1.156,1.39 -4.284,2.45 -7.412,2.52 v 1.46 h 2.992 c 1.972,0.03 2.176,0.24 2.108,2.14 v 13.63 c 0,1.74 0,1.81 -0.204,2.11 -0.272,0.34 -0.918,0.48 -2.822,0.48 h -2.21 v 1.6 h 13.464 v -1.6 h -1.87 c -1.904,0 -2.55,-0.14 -2.822,-0.48 -0.238,-0.3 -0.238,-0.34 -0.238,-2.11 V 27.12 c 0,-1.9 0.068,-3.5 0.238,-5.71 h -1.224 m 18.449,15.27 3.876,-4.53 c 0.85,-0.98 1.632,-1.42 2.55,-1.42 h 0.306 V 29.5 h -7.038 v 1.23 h 0.646 c 1.02,0 1.53,0.23 1.53,0.74 0,0.34 -0.238,0.82 -0.68,1.36 l -2.142,2.59 -2.618,-3.33 c -0.204,-0.28 -0.34,-0.55 -0.34,-0.75 0,-0.44 0.442,-0.61 1.496,-0.61 h 0.476 V 29.5 h -8.058 v 1.23 c 1.258,0.1 1.734,0.4 2.822,1.83 l 4.148,5.2 -3.91,4.56 c -1.156,1.29 -2.142,1.84 -3.06,1.8 h -0.204 v 1.23 h 7.174 v -1.23 h -0.51 c -0.782,0 -0.952,-0.03 -1.19,-0.13 -0.272,-0.17 -0.476,-0.48 -0.476,-0.79 0,-0.23 0.102,-0.54 0.272,-0.74 l 2.856,-3.4 2.584,3.43 c 0.238,0.34 0.442,0.78 0.442,1.02 0,0.44 -0.51,0.61 -1.802,0.61 h -0.238 v 1.23 h 8.568 v -1.23 h -0.238 c -1.19,0 -1.972,-0.44 -2.958,-1.66 l -4.284,-5.78"
     class="Fingering" />
  <path
     id="path27566"
     d="m 368.126,15.72 -11.56,16.08 v 1.9 h 9.554 v 1.77 c 0,1.74 0,1.8 -0.204,2.11 -0.272,0.37 -0.918,0.48 -2.856,0.48 h -0.374 v 1.59 h 9.928 v -1.59 h -0.136 c -1.938,0 -2.584,-0.11 -2.856,-0.48 -0.204,-0.31 -0.204,-0.34 -0.204,-2.11 V 33.7 h 4.114 v -1.9 h -4.114 v -9.28 c 0,-4.25 0,-4.35 0.17,-6.8 h -1.462 M 366.12,31.8 h -7.48 l 7.48,-10.3 v 10.3"
     class="Fingering" />
  <path
     id="path27568"
     d="m 457.976,4.57 c -4.76,0 -8.228,5.17 -8.228,12.31 0,7 3.366,12.14 7.956,12.14 4.76,0 8.092,-4.97 8.092,-12.04 0,-3.6 -0.748,-6.6 -2.176,-8.94 -1.326,-2.14 -3.502,-3.47 -5.644,-3.47 m -0.238,1.46 c 1.122,0 2.21,0.75 3.026,2.11 0.918,1.6 1.224,3.54 1.224,8.19 0,4.8 -0.238,7.04 -0.918,8.54 -0.782,1.66 -2.006,2.68 -3.298,2.68 -1.156,0 -2.21,-0.74 -3.026,-2.1 -0.952,-1.6 -1.224,-3.71 -1.224,-9.29 0,-3.97 0.238,-5.95 0.918,-7.44 0.782,-1.7 2.006,-2.69 3.298,-2.69"
     class="Fingering" />
  <path
     id="path27570"
     d="m 645.4,43.41 c -1.15,1.39 -4.28,2.45 -7.408,2.51 v 1.47 h 2.988 c 1.98,0.03 2.18,0.23 2.11,2.14 v 13.63 c 0,1.74 0,1.8 -0.2,2.11 -0.27,0.34 -0.92,0.48 -2.82,0.48 h -2.214 v 1.59 h 13.464 v -1.59 h -1.87 c -1.9,0 -2.55,-0.14 -2.82,-0.48 -0.24,-0.31 -0.24,-0.34 -0.24,-2.11 V 49.12 c 0,-1.9 0.07,-3.5 0.24,-5.71 h -1.23"
     class="Fingering" />
  <path
     id="path27572"
     d="m 678.63,43.41 -11.56,16.08 v 1.9 h 9.55 v 1.77 c 0,1.74 0,1.8 -0.2,2.11 -0.27,0.37 -0.92,0.48 -2.86,0.48 h -0.37 v 1.59 h 9.93 v -1.59 h -0.14 c -1.94,0 -2.58,-0.11 -2.85,-0.48 -0.21,-0.31 -0.21,-0.34 -0.21,-2.11 v -1.77 h 4.12 v -1.9 h -4.12 v -9.28 c 0,-4.25 0,-4.35 0.17,-6.8 h -1.46 m -2.01,16.08 h -7.48 l 7.48,-10.3 v 10.3"
     class="Fingering" />
  <path
     id="path27574"
     d="m 739.21,54.33 c 3.09,-1.12 4.52,-2.85 4.52,-5.57 0,-3.57 -2.72,-5.85 -6.93,-5.85 -3.98,0 -7.01,2.34 -7.01,5.44 0,1.39 0.92,2.38 2.25,2.38 1.19,0 2,-0.82 2,-2.04 0,-0.75 -0.27,-1.19 -1.05,-1.74 -0.34,-0.23 -0.44,-0.37 -0.44,-0.61 0,-0.95 1.97,-1.97 3.91,-1.97 2.44,0 3.74,1.53 3.74,4.42 0,3.16 -1.3,4.83 -3.71,4.83 -0.31,0 -0.88,-0.04 -1.39,-0.07 -0.28,-0.03 -0.55,-0.03 -0.75,-0.03 -0.72,0 -1.09,0.3 -1.09,0.91 0,0.58 0.34,0.85 1.09,0.85 0.2,0 0.47,0 0.78,-0.03 0.68,-0.03 1.22,-0.03 1.6,-0.03 2.51,0 3.87,1.8 3.87,5.16 0,3.54 -1.7,5.51 -4.76,5.51 -2.14,0 -4.45,-1.15 -4.45,-2.21 0,-0.3 0.07,-0.37 0.71,-0.75 0.96,-0.57 1.33,-1.15 1.33,-2 0,-1.23 -0.92,-2.14 -2.14,-2.14 -1.46,0 -2.42,1.19 -2.42,2.99 0,3.3 3.03,5.57 7.38,5.57 4.93,0 8.13,-2.72 8.13,-6.9 0,-3.19 -1.63,-5.13 -5.17,-6.12"
     class="Fingering" />
  <path
     id="path27576"
     d="M 771.47,11.12 759.91,27.2 v 1.91 h 9.56 v 1.77 c 0,1.73 0,1.8 -0.21,2.1 -0.27,0.38 -0.92,0.48 -2.85,0.48 h -0.38 v 1.6 h 9.93 v -1.6 h -0.14 c -1.93,0 -2.58,-0.1 -2.85,-0.48 -0.21,-0.3 -0.21,-0.34 -0.21,-2.1 v -1.77 h 4.12 V 27.2 h -4.12 v -9.28 c 0,-4.25 0,-4.35 0.17,-6.8 h -1.46 m -2,16.08 h -7.48 l 7.48,-10.3 v 10.3"
     class="Fingering" />
  <path
     id="path27578"
     d="m 814.18,27.39 h -1.5 l -0.34,1.73 c -0.44,2.21 -0.71,2.42 -2.82,2.42 h -7.61 c 2.34,-2.45 3.12,-3.17 5.3,-4.87 3.09,-2.38 4.42,-3.57 5.2,-4.59 1.09,-1.49 1.63,-2.99 1.63,-4.65 0,-3.88 -3.19,-6.63 -7.65,-6.63 -4.31,0 -7.61,2.75 -7.61,6.39 0,2.14 1.09,3.6 2.68,3.6 1.26,0 2.11,-0.85 2.11,-2.07 0,-0.85 -0.47,-1.63 -1.19,-1.94 -1.26,-0.51 -1.32,-0.58 -1.32,-1.02 0,-0.51 0.34,-1.29 0.81,-1.87 0.85,-1.05 2.25,-1.63 3.84,-1.63 2.83,0 4.49,1.73 4.49,4.59 0,2.51 -1.19,4.79 -4.01,7.78 -2.52,2.66 -4.08,4.32 -4.66,4.97 -1.22,1.43 -1.83,2.21 -3.33,4.18 v 0.95 h 15.33 l 0.65,-7.34"
     class="Fingering" />
  <path
     id="path27580"
     d="M 838.96,9.92 827.4,26.01 v 1.9 h 9.55 v 1.77 c 0,1.73 0,1.8 -0.2,2.11 -0.27,0.37 -0.92,0.47 -2.86,0.47 h -0.37 v 1.6 h 9.93 v -1.6 h -0.14 c -1.94,0 -2.58,-0.1 -2.85,-0.47 -0.21,-0.31 -0.21,-0.34 -0.21,-2.11 v -1.77 h 4.12 v -1.9 h -4.12 v -9.29 c 0,-4.25 0,-4.35 0.17,-6.8 h -1.46 m -2.01,16.09 h -7.48 l 7.48,-10.31 v 10.31"
     class="Fingering" />
  <path
     id="path27582"
     d="m 930.92,5.07 c -1.16,1.39 -4.28,2.45 -7.41,2.52 v 1.46 h 2.99 c 1.97,0.03 2.18,0.24 2.11,2.14 v 13.63 c 0,1.74 0,1.81 -0.21,2.11 -0.27,0.34 -0.91,0.48 -2.82,0.48 h -2.21 v 1.6 h 13.47 v -1.6 h -1.87 c -1.91,0 -2.55,-0.14 -2.83,-0.48 -0.23,-0.3 -0.23,-0.34 -0.23,-2.11 V 10.78 c 0,-1.9 0.06,-3.5 0.23,-5.71 h -1.22"
     class="Fingering" />
  <path
     id="path27584"
     d="m 1117.93,43.41 c -1.16,1.39 -4.28,2.45 -7.41,2.51 v 1.47 h 2.99 c 1.97,0.03 2.18,0.23 2.11,2.14 v 13.63 c 0,1.74 0,1.8 -0.21,2.11 -0.27,0.34 -0.91,0.48 -2.82,0.48 h -2.21 v 1.59 h 13.47 v -1.59 h -1.87 c -1.91,0 -2.55,-0.14 -2.83,-0.48 -0.23,-0.31 -0.23,-0.34 -0.23,-2.11 V 49.12 c 0,-1.9 0.06,-3.5 0.23,-5.71 h -1.22"
     class="Fingering" />
  <path
     id="path27586"
     d="m 1136.82,58.17 3.88,-4.52 c 0.85,-0.98 1.63,-1.43 2.55,-1.43 h 0.3 V 51 h -7.04 v 1.22 h 0.65 c 1.02,0 1.53,0.24 1.53,0.75 0,0.34 -0.24,0.82 -0.68,1.36 l -2.14,2.59 -2.62,-3.34 c -0.2,-0.27 -0.34,-0.54 -0.34,-0.74 0,-0.45 0.44,-0.62 1.5,-0.62 h 0.47 V 51 h -8.06 v 1.22 c 1.26,0.11 1.74,0.41 2.83,1.84 l 4.14,5.2 -3.91,4.56 c -1.15,1.29 -2.14,1.83 -3.06,1.8 h -0.2 v 1.22 h 7.17 v -1.22 h -0.51 c -0.78,0 -0.95,-0.03 -1.19,-0.14 -0.27,-0.17 -0.47,-0.47 -0.47,-0.78 0,-0.24 0.1,-0.54 0.27,-0.75 l 2.86,-3.4 2.58,3.44 c 0.24,0.34 0.44,0.78 0.44,1.02 0,0.44 -0.51,0.61 -1.8,0.61 h -0.24 v 1.22 h 8.57 v -1.22 h -0.24 c -1.19,0 -1.97,-0.44 -2.96,-1.67 l -4.28,-5.78 m 19.51,-3.84 c 3.09,-1.12 4.52,-2.85 4.52,-5.57 0,-3.57 -2.72,-5.85 -6.94,-5.85 -3.97,0 -7,2.34 -7,5.44 0,1.39 0.92,2.38 2.24,2.38 1.19,0 2.01,-0.82 2.01,-2.04 0,-0.75 -0.27,-1.19 -1.05,-1.74 -0.34,-0.23 -0.45,-0.37 -0.45,-0.61 0,-0.95 1.98,-1.97 3.91,-1.97 2.45,0 3.74,1.53 3.74,4.42 0,3.16 -1.29,4.83 -3.7,4.83 -0.31,0 -0.89,-0.04 -1.4,-0.07 -0.27,-0.03 -0.54,-0.03 -0.74,-0.03 -0.72,0 -1.09,0.3 -1.09,0.91 0,0.58 0.34,0.85 1.09,0.85 0.2,0 0.47,0 0.78,-0.03 0.68,-0.03 1.22,-0.03 1.6,-0.03 2.51,0 3.87,1.8 3.87,5.16 0,3.54 -1.7,5.51 -4.76,5.51 -2.14,0 -4.45,-1.15 -4.45,-2.21 0,-0.3 0.07,-0.37 0.71,-0.75 0.95,-0.57 1.33,-1.15 1.33,-2 0,-1.23 -0.92,-2.14 -2.14,-2.14 -1.47,0 -2.42,1.19 -2.42,2.99 0,3.3 3.03,5.57 7.38,5.57 4.93,0 8.13,-2.72 8.13,-6.9 0,-3.19 -1.64,-5.13 -5.17,-6.12"
     class="Fingering" />
  <path
     id="path27588"
     d="m 1213.05,43.41 c -1.16,1.39 -4.29,2.45 -7.41,2.51 v 1.47 h 2.99 c 1.97,0.03 2.17,0.23 2.11,2.14 v 13.63 c 0,1.74 0,1.8 -0.21,2.11 -0.27,0.34 -0.92,0.48 -2.82,0.48 h -2.21 v 1.59 h 13.46 v -1.59 h -1.87 c -1.9,0 -2.55,-0.14 -2.82,-0.48 -0.24,-0.31 -0.24,-0.34 -0.24,-2.11 V 49.12 c 0,-1.9 0.07,-3.5 0.24,-5.71 h -1.22"
     class="Fingering" />
  <path
     id="path27590"
     d="m 1245.92,11.43 c 3.09,-1.13 4.52,-2.86 4.52,-5.58 0,-3.57 -2.72,-5.85 -6.94,-5.85 -3.98,0 -7,2.35 -7,5.44 0,1.4 0.92,2.38 2.24,2.38 1.19,0 2.01,-0.81 2.01,-2.04 0,-0.75 -0.27,-1.19 -1.06,-1.73 -0.34,-0.24 -0.44,-0.38 -0.44,-0.61 0,-0.96 1.97,-1.98 3.91,-1.98 2.45,0 3.74,1.53 3.74,4.42 0,3.17 -1.29,4.83 -3.7,4.83 -0.31,0 -0.89,-0.03 -1.4,-0.07 -0.27,-0.03 -0.54,-0.03 -0.75,-0.03 -0.71,0 -1.08,0.31 -1.08,0.92 0,0.58 0.34,0.85 1.08,0.85 0.21,0 0.48,0 0.79,-0.04 0.68,-0.03 1.22,-0.03 1.59,-0.03 2.52,0 3.88,1.8 3.88,5.17 0,3.53 -1.7,5.51 -4.76,5.51 -2.14,0 -4.45,-1.16 -4.45,-2.21 0,-0.31 0.06,-0.38 0.71,-0.75 0.95,-0.58 1.33,-1.16 1.33,-2.01 0,-1.22 -0.92,-2.14 -2.15,-2.14 -1.46,0 -2.41,1.19 -2.41,2.99 0,3.3 3.03,5.58 7.38,5.58 4.93,0 8.12,-2.72 8.12,-6.9 0,-3.2 -1.63,-5.14 -5.16,-6.12"
     class="Fingering" />
  <path
     id="path27592"
     d="m 1296.56,19.34 h -1.5 l -0.34,1.74 c -0.44,2.21 -0.71,2.41 -2.82,2.41 h -7.62 c 2.35,-2.45 3.13,-3.16 5.31,-4.86 3.09,-2.38 4.42,-3.57 5.2,-4.59 1.09,-1.5 1.63,-2.99 1.63,-4.66 0,-3.87 -3.19,-6.63 -7.65,-6.63 -4.32,0 -7.61,2.76 -7.61,6.39 0,2.15 1.08,3.61 2.68,3.61 1.26,0 2.11,-0.85 2.11,-2.08 0,-0.85 -0.48,-1.63 -1.19,-1.93 -1.26,-0.51 -1.33,-0.58 -1.33,-1.02 0,-0.51 0.34,-1.3 0.82,-1.87 0.85,-1.06 2.24,-1.64 3.84,-1.64 2.82,0 4.49,1.74 4.49,4.59 0,2.52 -1.19,4.8 -4.01,7.79 -2.52,2.65 -4.08,4.32 -4.66,4.96 -1.22,1.43 -1.84,2.21 -3.33,4.19 v 0.95 h 15.33 l 0.65,-7.35"
     class="Fingering" />
  <path
     id="path27594"
     d="m 1328.55,60 h -1.49 l -0.34,1.73 c -0.44,2.21 -0.72,2.42 -2.82,2.42 h -7.62 c 2.35,-2.45 3.13,-3.16 5.3,-4.86 3.1,-2.38 4.42,-3.57 5.21,-4.59 1.08,-1.5 1.63,-3 1.63,-4.66 0,-3.88 -3.2,-6.63 -7.65,-6.63 -4.32,0 -7.62,2.75 -7.62,6.39 0,2.14 1.09,3.6 2.69,3.6 1.26,0 2.11,-0.85 2.11,-2.07 0,-0.85 -0.48,-1.63 -1.19,-1.94 -1.26,-0.51 -1.33,-0.58 -1.33,-1.02 0,-0.51 0.34,-1.29 0.82,-1.87 0.85,-1.05 2.24,-1.63 3.84,-1.63 2.82,0 4.49,1.73 4.49,4.59 0,2.52 -1.19,4.79 -4.02,7.79 -2.51,2.65 -4.08,4.31 -4.65,4.96 -1.23,1.43 -1.84,2.21 -3.34,4.18 v 0.95 h 15.34 l 0.64,-7.34"
     class="Fingering" />
  <path
     id="path27596"
     d="m 1350.58,52.42 c -1.16,1.4 -4.29,2.45 -7.41,2.52 v 1.46 h 2.99 c 1.97,0.03 2.17,0.24 2.11,2.14 v 13.64 c 0,1.73 0,1.8 -0.21,2.1 -0.27,0.34 -0.92,0.48 -2.82,0.48 h -2.21 v 1.6 h 13.46 v -1.6 h -1.87 c -1.9,0 -2.55,-0.14 -2.82,-0.48 -0.24,-0.3 -0.24,-0.34 -0.24,-2.1 V 58.13 c 0,-1.9 0.07,-3.5 0.24,-5.71 h -1.22"
     class="Fingering" />
  <path
     id="path27598"
     d="m 1396.42,55.1 3.87,-4.52 c 0.85,-0.99 1.64,-1.43 2.55,-1.43 h 0.31 v -1.22 h -7.04 v 1.22 h 0.65 c 1.02,0 1.53,0.24 1.53,0.75 0,0.34 -0.24,0.82 -0.68,1.36 l -2.14,2.58 -2.62,-3.33 c -0.21,-0.27 -0.34,-0.54 -0.34,-0.75 0,-0.44 0.44,-0.61 1.49,-0.61 h 0.48 v -1.22 h -8.06 v 1.22 c 1.26,0.1 1.74,0.41 2.82,1.84 l 4.15,5.2 -3.91,4.56 c -1.15,1.29 -2.14,1.83 -3.06,1.8 h -0.2 v 1.22 h 7.17 v -1.22 h -0.51 c -0.78,0 -0.95,-0.04 -1.19,-0.14 -0.27,-0.17 -0.47,-0.47 -0.47,-0.78 0,-0.24 0.1,-0.54 0.27,-0.75 l 2.85,-3.4 2.59,3.44 c 0.24,0.34 0.44,0.78 0.44,1.02 0,0.44 -0.51,0.61 -1.8,0.61 h -0.24 v 1.22 h 8.57 v -1.22 h -0.24 c -1.19,0 -1.97,-0.44 -2.96,-1.67 l -4.28,-5.78 m 18.69,-15.26 c -1.16,1.39 -4.28,2.44 -7.41,2.51 v 1.46 h 2.99 c 1.97,0.04 2.18,0.24 2.11,2.15 v 13.63 c 0,1.73 0,1.8 -0.21,2.11 -0.27,0.34 -0.91,0.47 -2.82,0.47 h -2.21 v 1.6 h 13.47 v -1.6 h -1.87 c -1.91,0 -2.55,-0.13 -2.83,-0.47 -0.23,-0.31 -0.23,-0.34 -0.23,-2.11 V 45.55 c 0,-1.91 0.06,-3.5 0.23,-5.71 h -1.22"
     class="Fingering" />
  <path
     id="path27600"
     d="m 1602.17,43.41 c -1.15,1.39 -4.28,2.45 -7.41,2.51 v 1.47 h 2.99 c 1.97,0.03 2.18,0.23 2.11,2.14 v 13.63 c 0,1.74 0,1.8 -0.2,2.11 -0.28,0.34 -0.92,0.48 -2.83,0.48 h -2.21 v 1.59 h 13.47 v -1.59 h -1.87 c -1.91,0 -2.55,-0.14 -2.82,-0.48 -0.24,-0.31 -0.24,-0.34 -0.24,-2.11 V 49.12 c 0,-1.9 0.07,-3.5 0.24,-5.71 h -1.23"
     class="Fingering" />
  <path
     id="path27602"
     d="m 1702.05,17.09 h -1.49 l -0.34,1.74 c -0.45,2.21 -0.72,2.41 -2.83,2.41 h -7.61 c 2.34,-2.45 3.13,-3.16 5.3,-4.86 3.1,-2.38 4.42,-3.57 5.2,-4.59 1.09,-1.5 1.64,-2.99 1.64,-4.66 0,-3.87 -3.2,-6.63 -7.65,-6.63 -4.32,0 -7.62,2.76 -7.62,6.39 0,2.15 1.09,3.61 2.69,3.61 1.25,0 2.1,-0.85 2.1,-2.08 0,-0.85 -0.47,-1.63 -1.19,-1.93 -1.25,-0.51 -1.32,-0.58 -1.32,-1.02 0,-0.51 0.34,-1.3 0.81,-1.87 0.85,-1.06 2.25,-1.64 3.85,-1.64 2.82,0 4.48,1.74 4.48,4.59 0,2.52 -1.19,4.8 -4.01,7.79 -2.51,2.65 -4.08,4.32 -4.66,4.96 -1.22,1.43 -1.83,2.21 -3.33,4.19 v 0.95 h 15.34 l 0.64,-7.35"
     class="Fingering" />
  <path
     id="path27604"
     d="m 1717.39,13.5 -2.18,0.04 v 21.18 l -2.79,-7.14 -1.76,0.78 4.31,9.73 h 2.62 l 4.35,-9.73 -1.8,-0.78 -2.75,7.14 V 13.5 m 23.02,12.07 c 3.09,-1.12 4.52,-2.85 4.52,-5.57 0,-3.57 -2.72,-5.85 -6.94,-5.85 -3.98,0 -7,2.35 -7,5.44 0,1.39 0.92,2.38 2.24,2.38 1.19,0 2.01,-0.82 2.01,-2.04 0,-0.75 -0.27,-1.19 -1.06,-1.73 -0.34,-0.24 -0.44,-0.38 -0.44,-0.62 0,-0.95 1.97,-1.97 3.91,-1.97 2.45,0 3.74,1.53 3.74,4.42 0,3.16 -1.29,4.83 -3.7,4.83 -0.31,0 -0.89,-0.03 -1.4,-0.07 -0.27,-0.03 -0.54,-0.03 -0.75,-0.03 -0.71,0 -1.08,0.3 -1.08,0.92 0,0.57 0.34,0.85 1.08,0.85 0.21,0 0.48,0 0.79,-0.04 0.68,-0.03 1.22,-0.03 1.59,-0.03 2.52,0 3.88,1.8 3.88,5.17 0,3.53 -1.7,5.5 -4.76,5.5 -2.14,0 -4.45,-1.15 -4.45,-2.21 0,-0.3 0.06,-0.37 0.71,-0.74 0.95,-0.58 1.33,-1.16 1.33,-2.01 0,-1.22 -0.92,-2.14 -2.15,-2.14 -1.46,0 -2.41,1.19 -2.41,2.99 0,3.3 3.03,5.58 7.38,5.58 4.93,0 8.12,-2.72 8.12,-6.91 0,-3.19 -1.63,-5.13 -5.16,-6.12"
     class="Fingering" />
  <path
     id="path27606"
     d="m 1770.22,30.38 h -1.5 l -0.34,1.73 c -0.44,2.21 -0.71,2.42 -2.82,2.42 h -7.61 c 2.34,-2.45 3.12,-3.17 5.3,-4.87 3.09,-2.38 4.42,-3.57 5.2,-4.59 1.09,-1.49 1.63,-2.99 1.63,-4.65 0,-3.88 -3.19,-6.63 -7.65,-6.63 -4.31,0 -7.61,2.75 -7.61,6.39 0,2.14 1.09,3.6 2.68,3.6 1.26,0 2.11,-0.85 2.11,-2.07 0,-0.85 -0.47,-1.63 -1.19,-1.94 -1.26,-0.51 -1.32,-0.58 -1.32,-1.02 0,-0.51 0.34,-1.29 0.81,-1.87 0.85,-1.05 2.25,-1.63 3.84,-1.63 2.83,0 4.49,1.73 4.49,4.59 0,2.51 -1.19,4.79 -4.01,7.78 -2.52,2.66 -4.08,4.32 -4.66,4.97 -1.22,1.43 -1.83,2.21 -3.33,4.18 v 0.95 h 15.33 l 0.65,-7.34"
     class="Fingering" />
  <path
     id="path27608"
     d="m 1817.7,14.43 c -1.16,1.39 -4.29,2.45 -7.41,2.52 v 1.46 h 2.99 c 1.97,0.03 2.17,0.24 2.11,2.14 v 13.63 c 0,1.74 0,1.81 -0.21,2.11 -0.27,0.34 -0.92,0.48 -2.82,0.48 h -2.21 v 1.6 h 13.46 v -1.6 h -1.87 c -1.9,0 -2.55,-0.14 -2.82,-0.48 -0.24,-0.3 -0.24,-0.34 -0.24,-2.11 V 20.14 c 0,-1.9 0.07,-3.5 0.24,-5.71 h -1.22"
     class="Fingering" />
  <path
     id="path27610"
     d="m 1862.2,31.67 h -1.49 l -0.34,1.73 c -0.44,2.21 -0.72,2.41 -2.82,2.41 h -7.62 c 2.35,-2.44 3.13,-3.16 5.3,-4.86 3.1,-2.38 4.42,-3.57 5.21,-4.59 1.08,-1.49 1.63,-2.99 1.63,-4.66 0,-3.87 -3.2,-6.63 -7.65,-6.63 -4.32,0 -7.62,2.76 -7.62,6.4 0,2.14 1.09,3.6 2.69,3.6 1.26,0 2.11,-0.85 2.11,-2.07 0,-0.85 -0.48,-1.64 -1.19,-1.94 -1.26,-0.51 -1.33,-0.58 -1.33,-1.02 0,-0.51 0.34,-1.29 0.82,-1.87 0.85,-1.06 2.24,-1.63 3.84,-1.63 2.82,0 4.49,1.73 4.49,4.59 0,2.51 -1.19,4.79 -4.02,7.78 -2.51,2.65 -4.08,4.32 -4.65,4.97 -1.23,1.42 -1.84,2.21 -3.34,4.18 v 0.95 h 15.34 l 0.64,-7.34"
     class="Fingering" />
  <path
     id="path27612"
     d="m 1885.98,42.91 c -4.76,0 -8.23,5.17 -8.23,12.31 0,7 3.36,12.13 7.95,12.13 4.76,0 8.1,-4.96 8.1,-12.03 0,-3.61 -0.75,-6.6 -2.18,-8.94 -1.33,-2.15 -3.5,-3.47 -5.64,-3.47 m -0.24,1.46 c 1.12,0 2.21,0.75 3.02,2.11 0.92,1.6 1.23,3.53 1.23,8.19 0,4.8 -0.24,7.04 -0.92,8.54 -0.78,1.66 -2.01,2.68 -3.3,2.68 -1.15,0 -2.21,-0.75 -3.02,-2.11 -0.96,-1.59 -1.23,-3.7 -1.23,-9.28 0,-3.98 0.24,-5.95 0.92,-7.44 0.78,-1.7 2.01,-2.69 3.3,-2.69"
     class="Fingering" />
  <path
     id="path27614"
     d="m 1924.66,60 h -1.49 l -0.34,1.73 c -0.45,2.21 -0.72,2.42 -2.83,2.42 h -7.61 c 2.34,-2.45 3.13,-3.16 5.3,-4.86 3.1,-2.38 4.42,-3.57 5.2,-4.59 1.09,-1.5 1.64,-3 1.64,-4.66 0,-3.88 -3.2,-6.63 -7.65,-6.63 -4.32,0 -7.62,2.75 -7.62,6.39 0,2.14 1.09,3.6 2.69,3.6 1.25,0 2.1,-0.85 2.1,-2.07 0,-0.85 -0.47,-1.63 -1.19,-1.94 -1.25,-0.51 -1.32,-0.58 -1.32,-1.02 0,-0.51 0.34,-1.29 0.81,-1.87 0.85,-1.05 2.25,-1.63 3.85,-1.63 2.82,0 4.48,1.73 4.48,4.59 0,2.52 -1.19,4.79 -4.01,7.79 -2.51,2.65 -4.08,4.31 -4.66,4.96 -1.22,1.43 -1.83,2.21 -3.33,4.18 v 0.95 h 15.34 l 0.64,-7.34"
     class="Fingering" />
  <path
     id="path27616"
     d="m 1948.41,43.41 c -1.16,1.39 -4.28,2.45 -7.41,2.51 v 1.47 h 2.99 c 1.97,0.03 2.18,0.23 2.11,2.14 v 13.63 c 0,1.74 0,1.8 -0.21,2.11 -0.27,0.34 -0.91,0.48 -2.82,0.48 h -2.21 v 1.59 h 13.47 v -1.59 h -1.87 c -1.91,0 -2.55,-0.14 -2.83,-0.48 -0.23,-0.31 -0.23,-0.34 -0.23,-2.11 V 49.12 c 0,-1.9 0.06,-3.5 0.23,-5.71 h -1.22"
     class="Fingering" />
  <path
     id="path27618"
     d="m 1981.07,53.91 c 3.09,-1.13 4.52,-2.86 4.52,-5.58 0,-3.57 -2.72,-5.85 -6.93,-5.85 -3.98,0 -7.01,2.35 -7.01,5.44 0,1.4 0.92,2.38 2.25,2.38 1.19,0 2,-0.81 2,-2.04 0,-0.75 -0.27,-1.19 -1.05,-1.73 -0.34,-0.24 -0.44,-0.38 -0.44,-0.61 0,-0.96 1.97,-1.98 3.91,-1.98 2.44,0 3.74,1.53 3.74,4.42 0,3.17 -1.3,4.83 -3.71,4.83 -0.31,0 -0.88,-0.03 -1.39,-0.07 -0.28,-0.03 -0.55,-0.03 -0.75,-0.03 -0.72,0 -1.09,0.31 -1.09,0.92 0,0.58 0.34,0.85 1.09,0.85 0.2,0 0.47,0 0.78,-0.04 0.68,-0.03 1.22,-0.03 1.6,-0.03 2.51,0 3.87,1.8 3.87,5.17 0,3.53 -1.7,5.51 -4.76,5.51 -2.14,0 -4.45,-1.16 -4.45,-2.21 0,-0.31 0.07,-0.38 0.71,-0.75 0.96,-0.58 1.33,-1.16 1.33,-2.01 0,-1.22 -0.92,-2.14 -2.14,-2.14 -1.46,0 -2.42,1.19 -2.42,2.99 0,3.3 3.03,5.58 7.38,5.58 4.93,0 8.13,-2.72 8.13,-6.9 0,-3.2 -1.63,-5.14 -5.17,-6.12"
     class="Fingering" />
  <path
     id="path27620"
     d="m 2070.35,32.36 -11.56,16.08 v 1.91 h 9.55 v 1.77 c 0,1.73 0,1.8 -0.2,2.1 -0.28,0.38 -0.92,0.48 -2.86,0.48 h -0.37 v 1.6 h 9.92 v -1.6 h -0.13 c -1.94,0 -2.59,-0.1 -2.86,-0.48 -0.2,-0.3 -0.2,-0.34 -0.2,-2.1 v -1.77 h 4.11 v -1.91 h -4.11 v -9.28 c 0,-4.25 0,-4.35 0.17,-6.8 h -1.46 m -2.01,16.08 h -7.48 l 7.48,-10.3 v 10.3"
     class="Fingering" />
  <path
     id="path27622"
     d="m 2167.97,60 h -1.49 l -0.34,1.73 c -0.44,2.21 -0.72,2.42 -2.82,2.42 h -7.62 c 2.35,-2.45 3.13,-3.16 5.3,-4.86 3.1,-2.38 4.42,-3.57 5.21,-4.59 1.08,-1.5 1.63,-3 1.63,-4.66 0,-3.88 -3.2,-6.63 -7.65,-6.63 -4.32,0 -7.62,2.75 -7.62,6.39 0,2.14 1.09,3.6 2.69,3.6 1.26,0 2.11,-0.85 2.11,-2.07 0,-0.85 -0.48,-1.63 -1.19,-1.94 -1.26,-0.51 -1.33,-0.58 -1.33,-1.02 0,-0.51 0.34,-1.29 0.82,-1.87 0.85,-1.05 2.24,-1.63 3.84,-1.63 2.82,0 4.49,1.73 4.49,4.59 0,2.52 -1.19,4.79 -4.02,7.79 -2.51,2.65 -4.08,4.31 -4.65,4.96 -1.23,1.43 -1.84,2.21 -3.34,4.18 v 0.95 h 15.34 l 0.64,-7.34"
     class="Fingering" />
  <path
     id="path27810"
     d="m 351.26,236.33 h 14.184 v -0.92 h -1.196 c -0.293,0 -0.594,-0.04 -0.903,-0.11 -0.309,-0.08 -0.606,-0.17 -0.891,-0.27 -0.285,-0.11 -0.533,-0.23 -0.745,-0.37 -0.211,-0.14 -0.358,-0.27 -0.439,-0.4 -0.179,-0.29 -0.318,-0.73 -0.415,-1.32 -0.098,-0.58 -0.147,-1.41 -0.147,-2.49 v -21.39 c 0,-0.99 0.057,-1.79 0.171,-2.41 0.114,-0.62 0.26,-1.07 0.439,-1.35 0.652,-0.79 1.628,-1.19 2.93,-1.19 h 1.196 v -0.88 H 351.26 v 0.88 h 1.196 c 0.57,0 1.131,0.11 1.685,0.33 0.553,0.22 0.984,0.52 1.294,0.91 0.13,0.15 0.232,0.32 0.305,0.52 0.073,0.19 0.126,0.43 0.159,0.72 0.032,0.28 0.052,0.62 0.061,1.02 0.008,0.4 0.012,0.88 0.012,1.45 v 21.39 c 0,2.05 -0.196,3.3 -0.586,3.76 -0.326,0.42 -0.724,0.73 -1.196,0.92 -0.472,0.18 -1.05,0.28 -1.734,0.28 h -1.196 v 0.92 m 16.641,0 h 14.184 v -0.92 h -1.196 c -0.293,0 -0.594,-0.04 -0.904,-0.11 -0.309,-0.08 -0.606,-0.17 -0.891,-0.27 -0.284,-0.11 -0.533,-0.23 -0.744,-0.37 -0.212,-0.14 -0.358,-0.27 -0.44,-0.4 -0.179,-0.29 -0.317,-0.73 -0.415,-1.32 -0.097,-0.58 -0.146,-1.41 -0.146,-2.49 v -21.39 c 0,-0.99 0.057,-1.79 0.171,-2.41 0.114,-0.62 0.26,-1.07 0.439,-1.35 0.651,-0.79 1.628,-1.19 2.93,-1.19 h 1.196 v -0.88 h -14.184 v 0.88 h 1.196 c 0.569,0 1.131,0.11 1.684,0.33 0.554,0.22 0.985,0.52 1.294,0.91 0.131,0.15 0.232,0.32 0.305,0.52 0.074,0.19 0.127,0.43 0.159,0.72 0.033,0.28 0.053,0.62 0.061,1.02 0.008,0.4 0.012,0.88 0.012,1.45 v 21.39 c 0,2.05 -0.195,3.3 -0.586,3.76 -0.325,0.42 -0.724,0.73 -1.196,0.92 -0.472,0.18 -1.05,0.28 -1.733,0.28 h -1.196 v 0.92"
     class="Harmony" />
  <path
     id="path27812"
     d="m 427.266,223.86 v 2.42 H 389.18 v -2.42 h 38.086"
     class="Harmony" />
  <path
     id="path27814"
     d="m 630.789,275.83 h 14.181 v -0.92 h -1.19 c -0.3,0 -0.6,-0.04 -0.91,-0.11 -0.31,-0.08 -0.6,-0.17 -0.89,-0.27 -0.28,-0.11 -0.53,-0.23 -0.74,-0.37 -0.21,-0.14 -0.36,-0.27 -0.44,-0.4 -0.18,-0.29 -0.32,-0.73 -0.42,-1.32 -0.09,-0.58 -0.14,-1.41 -0.14,-2.49 v -21.39 c 0,-0.99 0.05,-1.79 0.17,-2.41 0.11,-0.62 0.26,-1.07 0.44,-1.35 0.65,-0.79 1.63,-1.19 2.93,-1.19 h 1.19 v -0.88 h -14.181 v 0.88 h 1.196 c 0.57,0 1.131,0.11 1.685,0.33 0.553,0.22 0.985,0.52 1.294,0.91 0.13,0.15 0.232,0.32 0.305,0.52 0.073,0.19 0.126,0.43 0.159,0.72 0.032,0.28 0.053,0.62 0.061,1.02 0.008,0.4 0.012,0.88 0.012,1.45 v 21.39 c 0,2.05 -0.195,3.31 -0.586,3.76 -0.326,0.42 -0.724,0.73 -1.196,0.92 -0.472,0.18 -1.05,0.28 -1.734,0.28 h -1.196 v 0.92 m 16.641,0 h 14.18 v -0.92 h -1.19 c -0.3,0 -0.6,-0.04 -0.91,-0.11 -0.3,-0.08 -0.6,-0.17 -0.89,-0.27 -0.28,-0.11 -0.53,-0.23 -0.74,-0.37 -0.21,-0.14 -0.36,-0.27 -0.44,-0.4 -0.18,-0.29 -0.32,-0.73 -0.42,-1.32 -0.09,-0.58 -0.14,-1.41 -0.14,-2.49 v -21.39 c 0,-0.99 0.05,-1.79 0.17,-2.41 0.11,-0.62 0.26,-1.07 0.44,-1.35 0.65,-0.79 1.63,-1.19 2.93,-1.19 h 1.19 v -0.88 h -14.18 v 0.88 h 1.2 c 0.57,0 1.13,0.11 1.68,0.33 0.55,0.22 0.99,0.52 1.29,0.91 0.13,0.15 0.24,0.32 0.31,0.52 0.07,0.19 0.13,0.43 0.16,0.72 0.03,0.28 0.05,0.62 0.06,1.02 0.01,0.4 0.01,0.88 0.01,1.45 v 21.39 c 0,2.05 -0.19,3.31 -0.58,3.76 -0.33,0.42 -0.73,0.73 -1.2,0.92 -0.47,0.18 -1.05,0.28 -1.73,0.28 h -1.2 v 0.92 m 16.64,0 h 14.18 v -0.92 h -1.19 c -0.29,0 -0.6,-0.04 -0.9,-0.11 -0.31,-0.08 -0.61,-0.17 -0.9,-0.27 -0.28,-0.11 -0.53,-0.23 -0.74,-0.37 -0.21,-0.14 -0.36,-0.27 -0.44,-0.4 -0.18,-0.29 -0.32,-0.73 -0.42,-1.32 -0.09,-0.58 -0.14,-1.41 -0.14,-2.49 v -21.39 c 0,-0.99 0.06,-1.79 0.17,-2.41 0.11,-0.62 0.26,-1.07 0.44,-1.35 0.65,-0.79 1.63,-1.19 2.93,-1.19 h 1.19 v -0.88 h -14.18 v 0.88 h 1.2 c 0.57,0 1.13,0.11 1.68,0.33 0.55,0.22 0.99,0.52 1.3,0.91 0.13,0.15 0.23,0.32 0.3,0.52 0.07,0.19 0.13,0.43 0.16,0.72 0.03,0.28 0.05,0.62 0.06,1.02 0.01,0.4 0.01,0.88 0.01,1.45 v 21.39 c 0,2.05 -0.19,3.31 -0.58,3.76 -0.33,0.42 -0.73,0.73 -1.2,0.92 -0.47,0.18 -1.05,0.28 -1.73,0.28 h -1.2 v 0.92"
     class="Harmony" />
  <path
     id="path27816"
     d="m 1103.32,270.63 h 14.18 v -0.93 h -1.2 c -0.29,0 -0.59,-0.03 -0.9,-0.11 -0.31,-0.07 -0.61,-0.16 -0.89,-0.27 -0.29,-0.1 -0.53,-0.22 -0.75,-0.36 -0.21,-0.14 -0.35,-0.28 -0.44,-0.41 -0.17,-0.29 -0.31,-0.73 -0.41,-1.31 -0.1,-0.59 -0.15,-1.42 -0.15,-2.49 v -21.39 c 0,-0.99 0.06,-1.8 0.17,-2.42 0.12,-0.62 0.26,-1.06 0.44,-1.34 0.65,-0.8 1.63,-1.2 2.93,-1.2 h 1.2 v -0.88 h -14.18 v 0.88 h 1.19 c 0.57,0 1.13,0.11 1.69,0.33 0.55,0.22 0.98,0.53 1.29,0.92 0.13,0.14 0.23,0.32 0.31,0.51 0.07,0.2 0.12,0.44 0.15,0.72 0.04,0.29 0.06,0.63 0.06,1.03 0.01,0.4 0.02,0.88 0.02,1.45 v 21.39 c 0,2.05 -0.2,3.3 -0.59,3.76 -0.32,0.42 -0.72,0.72 -1.2,0.91 -0.47,0.19 -1.04,0.28 -1.73,0.28 h -1.19 v 0.93 m 16.64,0 h 14.18 v -0.93 h -1.2 c -0.29,0 -0.59,-0.03 -0.9,-0.11 -0.31,-0.07 -0.61,-0.16 -0.89,-0.27 -0.29,-0.1 -0.53,-0.22 -0.74,-0.36 -0.22,-0.14 -0.36,-0.28 -0.44,-0.41 -0.18,-0.29 -0.32,-0.73 -0.42,-1.31 -0.1,-0.59 -0.15,-1.42 -0.15,-2.49 v -21.39 c 0,-0.99 0.06,-1.8 0.17,-2.42 0.12,-0.62 0.27,-1.06 0.44,-1.34 0.66,-0.8 1.63,-1.2 2.93,-1.2 h 1.2 v -0.88 h -14.18 v 0.88 h 1.19 c 0.57,0 1.13,0.11 1.69,0.33 0.55,0.22 0.98,0.53 1.29,0.92 0.13,0.14 0.23,0.32 0.31,0.51 0.07,0.2 0.12,0.44 0.15,0.72 0.04,0.29 0.06,0.63 0.07,1.03 0,0.4 0.01,0.88 0.01,1.45 v 21.39 c 0,2.05 -0.2,3.3 -0.59,3.76 -0.32,0.42 -0.72,0.72 -1.19,0.91 -0.48,0.19 -1.05,0.28 -1.74,0.28 h -1.19 v 0.93 m 16.64,0 h 14.18 v -0.93 h -1.2 c -0.29,0 -0.59,-0.03 -0.9,-0.11 -0.31,-0.07 -0.6,-0.16 -0.89,-0.27 -0.28,-0.1 -0.53,-0.22 -0.74,-0.36 -0.22,-0.14 -0.36,-0.28 -0.44,-0.41 -0.18,-0.29 -0.32,-0.73 -0.42,-1.31 -0.1,-0.59 -0.15,-1.42 -0.15,-2.49 v -21.39 c 0,-0.99 0.06,-1.8 0.18,-2.42 0.11,-0.62 0.26,-1.06 0.44,-1.34 0.65,-0.8 1.62,-1.2 2.92,-1.2 h 1.2 v -0.88 h -14.18 v 0.88 h 1.19 c 0.57,0 1.13,0.11 1.69,0.33 0.55,0.22 0.98,0.53 1.29,0.92 0.13,0.14 0.23,0.32 0.31,0.51 0.07,0.2 0.12,0.44 0.16,0.72 0.03,0.29 0.05,0.63 0.06,1.03 0,0.4 0.01,0.88 0.01,1.45 v 21.39 c 0,2.05 -0.2,3.3 -0.59,3.76 -0.32,0.42 -0.72,0.72 -1.19,0.91 -0.48,0.19 -1.05,0.28 -1.74,0.28 h -1.19 v 0.93"
     class="Harmony" />
  <path
     id="path27818"
     d="m 1587.56,254.69 h 14.18 v -0.93 h -1.2 c -0.29,0 -0.59,-0.04 -0.9,-0.11 -0.31,-0.07 -0.6,-0.16 -0.89,-0.27 -0.28,-0.1 -0.53,-0.23 -0.74,-0.36 -0.22,-0.14 -0.36,-0.28 -0.44,-0.41 -0.18,-0.29 -0.32,-0.73 -0.42,-1.32 -0.1,-0.58 -0.15,-1.41 -0.15,-2.49 v -21.38 c 0,-1 0.06,-1.8 0.18,-2.42 0.11,-0.62 0.26,-1.07 0.43,-1.34 0.66,-0.8 1.63,-1.2 2.93,-1.2 h 1.2 v -0.88 h -14.18 v 0.88 h 1.19 c 0.57,0 1.13,0.11 1.69,0.33 0.55,0.22 0.98,0.53 1.29,0.92 0.13,0.14 0.23,0.31 0.31,0.51 0.07,0.19 0.12,0.43 0.16,0.72 0.03,0.28 0.05,0.63 0.06,1.02 0,0.4 0.01,0.89 0.01,1.46 v 21.38 c 0,2.05 -0.2,3.31 -0.59,3.76 -0.32,0.43 -0.72,0.73 -1.19,0.92 -0.48,0.19 -1.05,0.28 -1.74,0.28 h -1.19 v 0.93 m 16.64,0 h 14.18 v -0.93 h -1.19 c -0.3,0 -0.6,-0.04 -0.91,-0.11 -0.31,-0.07 -0.6,-0.16 -0.89,-0.27 -0.28,-0.1 -0.53,-0.23 -0.74,-0.36 -0.22,-0.14 -0.36,-0.28 -0.44,-0.41 -0.18,-0.29 -0.32,-0.73 -0.42,-1.32 -0.1,-0.58 -0.14,-1.41 -0.14,-2.49 v -21.38 c 0,-1 0.05,-1.8 0.17,-2.42 0.11,-0.62 0.26,-1.07 0.44,-1.34 0.65,-0.8 1.62,-1.2 2.93,-1.2 h 1.19 v -0.88 h -14.18 v 0.88 h 1.19 c 0.57,0 1.13,0.11 1.69,0.33 0.55,0.22 0.98,0.53 1.29,0.92 0.13,0.14 0.23,0.31 0.31,0.51 0.07,0.19 0.12,0.43 0.16,0.72 0.03,0.28 0.05,0.63 0.06,1.02 0,0.4 0.01,0.89 0.01,1.46 v 21.38 c 0,2.05 -0.2,3.31 -0.59,3.76 -0.32,0.43 -0.72,0.73 -1.19,0.92 -0.48,0.19 -1.05,0.28 -1.74,0.28 h -1.19 v 0.93 m 16.64,0 h 14.18 v -0.93 h -1.19 c -0.3,0 -0.6,-0.04 -0.91,-0.11 -0.31,-0.07 -0.6,-0.16 -0.89,-0.27 -0.28,-0.1 -0.53,-0.23 -0.74,-0.36 -0.21,-0.14 -0.36,-0.28 -0.44,-0.41 -0.18,-0.29 -0.32,-0.73 -0.42,-1.32 -0.1,-0.58 -0.14,-1.41 -0.14,-2.49 v -21.38 c 0,-1 0.05,-1.8 0.17,-2.42 0.11,-0.62 0.26,-1.07 0.44,-1.34 0.65,-0.8 1.62,-1.2 2.93,-1.2 h 1.19 v -0.88 h -14.18 v 0.88 h 1.19 c 0.57,0 1.14,0.11 1.69,0.33 0.55,0.22 0.98,0.53 1.29,0.92 0.13,0.14 0.23,0.31 0.31,0.51 0.07,0.19 0.12,0.43 0.16,0.72 0.03,0.28 0.05,0.63 0.06,1.02 0.01,0.4 0.01,0.89 0.01,1.46 v 21.38 c 0,2.05 -0.2,3.31 -0.59,3.76 -0.32,0.43 -0.72,0.73 -1.19,0.92 -0.47,0.19 -1.05,0.28 -1.74,0.28 h -1.19 v 0.93"
     class="Harmony" />
  <path
     id="path27820"
     d="m 1718.18,236.33 h 14.19 v -0.92 h -1.2 c -0.29,0 -0.59,-0.04 -0.9,-0.11 -0.31,-0.08 -0.61,-0.17 -0.89,-0.27 -0.29,-0.11 -0.54,-0.23 -0.75,-0.37 -0.21,-0.14 -0.36,-0.27 -0.44,-0.4 -0.18,-0.29 -0.32,-0.73 -0.41,-1.32 -0.1,-0.58 -0.15,-1.41 -0.15,-2.49 v -21.39 c 0,-0.99 0.06,-1.79 0.17,-2.41 0.11,-0.62 0.26,-1.07 0.44,-1.35 0.65,-0.79 1.63,-1.19 2.93,-1.19 h 1.2 v -0.88 h -14.19 v 0.88 h 1.2 c 0.57,0 1.13,0.11 1.68,0.33 0.56,0.22 0.99,0.52 1.3,0.91 0.13,0.15 0.23,0.32 0.3,0.52 0.07,0.19 0.13,0.43 0.16,0.72 0.03,0.28 0.05,0.62 0.06,1.02 0.01,0.4 0.01,0.88 0.01,1.45 v 21.39 c 0,2.05 -0.19,3.3 -0.58,3.76 -0.33,0.42 -0.73,0.73 -1.2,0.92 -0.47,0.18 -1.05,0.28 -1.73,0.28 h -1.2 v 0.92 m 16.64,0 h 14.19 v -0.92 h -1.2 c -0.29,0 -0.59,-0.04 -0.9,-0.11 -0.31,-0.08 -0.61,-0.17 -0.89,-0.27 -0.29,-0.11 -0.54,-0.23 -0.75,-0.37 -0.21,-0.14 -0.36,-0.27 -0.44,-0.4 -0.18,-0.29 -0.32,-0.73 -0.41,-1.32 -0.1,-0.58 -0.15,-1.41 -0.15,-2.49 v -21.39 c 0,-0.99 0.06,-1.79 0.17,-2.41 0.12,-0.62 0.26,-1.07 0.44,-1.35 0.65,-0.79 1.63,-1.19 2.93,-1.19 h 1.2 v -0.88 h -14.19 v 0.88 h 1.2 c 0.57,0 1.13,0.11 1.68,0.33 0.56,0.22 0.99,0.52 1.3,0.91 0.13,0.15 0.23,0.32 0.3,0.52 0.08,0.19 0.13,0.43 0.16,0.72 0.03,0.28 0.05,0.62 0.06,1.02 0.01,0.4 0.01,0.88 0.01,1.45 v 21.39 c 0,2.05 -0.19,3.3 -0.58,3.76 -0.33,0.42 -0.73,0.73 -1.2,0.92 -0.47,0.18 -1.05,0.28 -1.73,0.28 h -1.2 v 0.92"
     class="Harmony" />
  <path
     id="path27822"
     d="m 1871.98,254.69 h 14.19 v -0.93 h -1.2 c -0.29,0 -0.59,-0.04 -0.9,-0.11 -0.31,-0.07 -0.61,-0.16 -0.89,-0.27 -0.29,-0.1 -0.54,-0.23 -0.75,-0.36 -0.21,-0.14 -0.36,-0.28 -0.44,-0.41 -0.18,-0.29 -0.32,-0.73 -0.41,-1.32 -0.1,-0.58 -0.15,-1.41 -0.15,-2.49 v -21.38 c 0,-1 0.06,-1.8 0.17,-2.42 0.11,-0.62 0.26,-1.07 0.44,-1.34 0.65,-0.8 1.63,-1.2 2.93,-1.2 h 1.2 v -0.88 h -14.19 v 0.88 h 1.2 c 0.57,0 1.13,0.11 1.68,0.33 0.56,0.22 0.99,0.53 1.3,0.92 0.13,0.14 0.23,0.31 0.3,0.51 0.07,0.19 0.13,0.43 0.16,0.72 0.03,0.28 0.05,0.63 0.06,1.02 0.01,0.4 0.01,0.89 0.01,1.46 v 21.38 c 0,2.05 -0.19,3.31 -0.58,3.76 -0.33,0.43 -0.73,0.73 -1.2,0.92 -0.47,0.19 -1.05,0.28 -1.73,0.28 h -1.2 v 0.93"
     class="Harmony" />
  <path
     id="path27824"
     d="m 1931.35,242.21 v 2.42 h -38.09 v -2.42 h 38.09"
     class="Harmony" />
</svg>
