<?xml version="1.0" encoding="UTF-8" standalone="no"?>
<svg
   xmlns:dc="http://purl.org/dc/elements/1.1/"
   xmlns:cc="http://creativecommons.org/ns#"
   xmlns:rdf="http://www.w3.org/1999/02/22-rdf-syntax-ns#"
   xmlns:svg="http://www.w3.org/2000/svg"
   xmlns="http://www.w3.org/2000/svg"
   xmlns:sodipodi="http://sodipodi.sourceforge.net/DTD/sodipodi-0.dtd"
   xmlns:inkscape="http://www.inkscape.org/namespaces/inkscape"
   inkscape:version="1.0 (4035a4f, 2020-05-01)"
   sodipodi:docname="snippet13.svg"
   id="svg16214"
   version="1.2"
   viewBox="0 0 2340 290.608"
   height="290.608"
   width="2340">
  <metadata
     id="metadata16220">
    <rdf:RDF>
      <cc:Work
         rdf:about="">
        <dc:format>image/svg+xml</dc:format>
        <dc:type
           rdf:resource="http://purl.org/dc/dcmitype/StillImage" />
        <dc:title>Batches6Suite7</dc:title>
      </cc:Work>
    </rdf:RDF>
  </metadata>
  <defs
     id="defs16218" />
  <sodipodi:namedview
     inkscape:current-layer="svg16214"
     inkscape:window-maximized="0"
     inkscape:window-y="23"
     inkscape:window-x="0"
     inkscape:cy="368.16027"
     inkscape:cx="1104.8128"
     inkscape:zoom="0.17584583"
     showgrid="false"
     id="namedview16216"
     inkscape:window-height="760"
     inkscape:window-width="876"
     inkscape:pageshadow="2"
     inkscape:pageopacity="0"
     guidetolerance="10"
     gridtolerance="10"
     objecttolerance="10"
     borderopacity="1"
     bordercolor="#666666"
     pagecolor="#ffffff" />
  <title
     id="title15500">Batches6Suite7</title>
  <desc
     id="desc15502">Generated by MuseScore 3.6.2</desc>
  <polyline
     transform="translate(-360,-453.281)"
     id="polyline15504"
     points="360,583.796 2700,583.796"
     stroke-linejoin="bevel"
     stroke-width="2.34"
     stroke="#000000"
     fill="none"
     class="StaffLines" />
  <polyline
     transform="translate(-360,-453.281)"
     id="polyline15506"
     points="360,605.036 2700,605.036"
     stroke-linejoin="bevel"
     stroke-width="2.34"
     stroke="#000000"
     fill="none"
     class="StaffLines" />
  <polyline
     transform="translate(-360,-453.281)"
     id="polyline15508"
     points="360,626.276 2700,626.276"
     stroke-linejoin="bevel"
     stroke-width="2.34"
     stroke="#000000"
     fill="none"
     class="StaffLines" />
  <polyline
     transform="translate(-360,-453.281)"
     id="polyline15510"
     points="360,647.516 2700,647.516"
     stroke-linejoin="bevel"
     stroke-width="2.34"
     stroke="#000000"
     fill="none"
     class="StaffLines" />
  <polyline
     transform="translate(-360,-453.281)"
     id="polyline15512"
     points="360,668.756 2700,668.756"
     stroke-linejoin="bevel"
     stroke-width="2.34"
     stroke="#000000"
     fill="none"
     class="StaffLines" />
  <path
     id="path15524"
     d="m 646.82,257.437 c 16.64,15.933 49.93,15.933 66.57,0 -16.64,21.88 -49.93,21.88 -66.57,0"
     fill-rule="evenodd"
     stroke-linejoin="round"
     stroke-linecap="round"
     stroke-width="1.49"
     stroke="#000000"
     class="SlurSegment" />
  <path
     id="path15526"
     d="m 779.95,257.437 c 16.64,15.933 49.93,15.933 66.57,0 -16.64,21.88 -49.93,21.88 -66.57,0"
     fill-rule="evenodd"
     stroke-linejoin="round"
     stroke-linecap="round"
     stroke-width="1.49"
     stroke="#000000"
     class="SlurSegment" />
  <path
     id="path15546"
     d="m 1369.44,223.971 c 12.19,16.323 41.51,21.633 58.64,10.62 -18.19,16.865 -47.51,11.555 -58.64,-10.62"
     fill-rule="evenodd"
     stroke-linejoin="round"
     stroke-linecap="round"
     stroke-width="1.49"
     stroke="#000000"
     class="SlurSegment" />
  <path
     id="path15548"
     d="m 1486.71,223.971 c 17.14,11.013 46.46,5.703 58.64,-10.62 -11.12,22.175 -40.44,27.485 -58.64,10.62"
     fill-rule="evenodd"
     stroke-linejoin="round"
     stroke-linecap="round"
     stroke-width="1.49"
     stroke="#000000"
     class="SlurSegment" />
  <path
     id="path15550"
     d="m 1748.59,202.731 c 11.03,14.744 37.88,20.054 53.69,10.62 -16.97,15.268 -43.82,9.958 -53.69,-10.62"
     fill-rule="evenodd"
     stroke-linejoin="round"
     stroke-linecap="round"
     stroke-width="1.49"
     stroke="#000000"
     class="SlurSegment" />
  <path
     id="path15552"
     d="m 1855.98,202.731 c 15.81,9.434 42.66,4.124 53.69,-10.62 -9.88,20.578 -36.72,25.888 -53.69,10.62"
     fill-rule="evenodd"
     stroke-linejoin="round"
     stroke-linecap="round"
     stroke-width="1.49"
     stroke="#000000"
     class="SlurSegment" />
  <path
     id="path15554"
     d="m 2049.28,143.259 c 16.97,-15.268 43.82,-9.958 53.7,10.62 -11.03,-14.743 -37.88,-20.053 -53.7,-10.62"
     fill-rule="evenodd"
     stroke-linejoin="round"
     stroke-linecap="round"
     stroke-width="1.49"
     stroke="#000000"
     class="SlurSegment" />
  <path
     id="path15556"
     d="m 2156.67,143.259 c 9.88,-20.578 36.73,-25.888 53.7,-10.62 -15.81,-9.433 -42.66,-4.123 -53.7,10.62"
     fill-rule="evenodd"
     stroke-linejoin="round"
     stroke-linecap="round"
     stroke-width="1.49"
     stroke="#000000"
     class="SlurSegment" />
  <polyline
     transform="translate(-360,-453.281)"
     id="polyline15570"
     points="631.986,582.628 631.986,669.925"
     stroke-linejoin="bevel"
     stroke-width="3.82"
     stroke="#000000"
     class="BarLine" />
  <polyline
     transform="translate(-360,-453.281)"
     id="polyline15572"
     points="1380.33,582.628 1380.33,669.925"
     stroke-linejoin="bevel"
     stroke-width="3.82"
     stroke="#000000"
     class="BarLine" />
  <polyline
     transform="translate(-360,-453.281)"
     id="polyline15574"
     points="2048.35,582.628 2048.35,669.925"
     stroke-linejoin="bevel"
     stroke-width="3.82"
     stroke="#000000"
     class="BarLine" />
  <polyline
     transform="translate(-360,-453.281)"
     id="polyline15576"
     points="2698.09,582.628 2698.09,669.925"
     stroke-linejoin="bevel"
     stroke-width="3.82"
     stroke="#000000"
     class="BarLine" />
  <path
     style="stroke-width:0.8496"
     id="path15586"
     d="m 307.49968,174.60924 c 0.50976,-0.085 0.93456,-0.67968 0.93456,-1.18944 v -5.01264 c 0,-0.67968 -0.50976,-1.18944 -1.18944,-1.18944 h -0.16992 l -2.80368,0.59472 V 155.1534 h -2.37888 v 13.1688 l -7.56144,1.52928 V 157.87212 H 291.952 v 12.48912 l -3.31344,0.67968 c -0.50976,0.085 -0.93456,0.67968 -0.93456,1.18944 v 0.16992 4.92768 -0.16992 c 0,0.67968 0.50976,1.18944 1.18944,1.18944 h 0.25488 l 2.80368,-0.59472 v 14.0184 l -3.31344,0.67968 c -0.50976,0.085 -0.93456,0.67968 -0.93456,1.18944 v 4.92768 c 0,0.67968 0.50976,1.18944 1.18944,1.18944 h 0.25488 l 2.80368,-0.59472 v 12.65904 h 2.37888 v -13.1688 l 7.56144,-1.52928 V 209.103 h 2.37888 v -12.48912 l 3.22848,-0.59472 c 0.50976,-0.085 0.93456,-0.67968 0.93456,-1.18944 v -5.01264 c 0,-0.67968 -0.50976,-1.18944 -1.18944,-1.18944 h -0.16992 l -2.80368,0.59472 v -14.0184 l 3.22848,-0.59472 m -13.1688,16.73712 V 177.243 l 7.56144,-1.52928 v 14.0184 l -7.56144,1.61424"
     class="Accidental" />
  <path
     style="stroke-width:0.8496"
     id="path15590"
     d="m 1060.5157,100.26924 c 0.5097,-0.085 0.9345,-0.67968 0.9345,-1.18944 v -5.01264 c 0,-0.67968 -0.5097,-1.18944 -1.1894,-1.18944 h -0.1699 l -2.8037,0.59472 V 80.8134 h -2.3789 v 13.1688 l -7.5614,1.52928 V 83.53212 h -2.3789 v 12.48912 l -3.3134,0.67968 c -0.5098,0.08496 -0.9346,0.67968 -0.9346,1.18944 v 0.16992 4.92768 -0.16992 c 0,0.67968 0.5098,1.18944 1.1894,1.18944 h 0.2549 l 2.8037,-0.59472 v 14.0184 l -3.3134,0.67968 c -0.5098,0.085 -0.9346,0.67968 -0.9346,1.18944 v 4.92768 c 0,0.67968 0.5098,1.18944 1.1894,1.18944 h 0.2549 l 2.8037,-0.59472 v 12.65904 h 2.3789 v -13.1688 l 7.5614,-1.52928 V 134.763 h 2.3789 v -12.48912 l 3.2285,-0.59472 c 0.5097,-0.085 0.9345,-0.67968 0.9345,-1.18944 v -5.01264 c 0,-0.67968 -0.5097,-1.18944 -1.1894,-1.18944 h -0.1699 l -2.8037,0.59472 v -14.0184 l 3.2285,-0.59472 m -13.1688,16.73712 V 102.903 l 7.5614,-1.52928 v 14.0184 l -7.5614,1.61424"
     class="Accidental" />
  <path
     style="stroke-width:0.8496"
     id="path15592"
     d="m 1586.3857,174.60924 c 0.5097,-0.085 0.9345,-0.67968 0.9345,-1.18944 v -5.01264 c 0,-0.67968 -0.5097,-1.18944 -1.1894,-1.18944 h -0.1699 l -2.8037,0.59472 V 155.1534 h -2.3789 v 13.1688 l -7.5614,1.52928 v -11.97936 h -2.3789 v 12.48912 l -3.3134,0.67968 c -0.5098,0.085 -0.9346,0.67968 -0.9346,1.18944 v 0.16992 4.92768 -0.16992 c 0,0.67968 0.5098,1.18944 1.1894,1.18944 h 0.2549 l 2.8037,-0.59472 v 14.0184 l -3.3134,0.67968 c -0.5098,0.085 -0.9346,0.67968 -0.9346,1.18944 v 4.92768 c 0,0.67968 0.5098,1.18944 1.1894,1.18944 h 0.2549 l 2.8037,-0.59472 v 12.65904 h 2.3789 v -13.1688 l 7.5614,-1.52928 V 209.103 h 2.3789 v -12.48912 l 3.2285,-0.59472 c 0.5097,-0.085 0.9345,-0.67968 0.9345,-1.18944 v -5.01264 c 0,-0.67968 -0.5097,-1.18944 -1.1894,-1.18944 h -0.1699 l -2.8037,0.59472 v -14.0184 l 3.2285,-0.59472 m -13.1688,16.73712 V 177.243 l 7.5614,-1.52928 v 14.0184 l -7.5614,1.61424"
     class="Accidental" />
  <path
     style="stroke-width:0.8496"
     id="path15594"
     d="m 1728.5357,174.60924 c 0.5097,-0.085 0.9345,-0.67968 0.9345,-1.18944 v -5.01264 c 0,-0.67968 -0.5097,-1.18944 -1.1894,-1.18944 h -0.1699 l -2.8037,0.59472 V 155.1534 h -2.3789 v 13.1688 l -7.5614,1.52928 v -11.97936 h -2.3789 v 12.48912 l -3.3134,0.67968 c -0.5098,0.085 -0.9346,0.67968 -0.9346,1.18944 v 0.16992 4.92768 -0.16992 c 0,0.67968 0.5098,1.18944 1.1894,1.18944 h 0.2549 l 2.8037,-0.59472 v 14.0184 l -3.3134,0.67968 c -0.5098,0.085 -0.9346,0.67968 -0.9346,1.18944 v 4.92768 c 0,0.67968 0.5098,1.18944 1.1894,1.18944 h 0.2549 l 2.8037,-0.59472 v 12.65904 h 2.3789 v -13.1688 l 7.5614,-1.52928 V 209.103 h 2.3789 v -12.48912 l 3.2285,-0.59472 c 0.5097,-0.085 0.9345,-0.67968 0.9345,-1.18944 v -5.01264 c 0,-0.67968 -0.5097,-1.18944 -1.1894,-1.18944 h -0.1699 l -2.8037,0.59472 v -14.0184 l 3.2285,-0.59472 m -13.1688,16.73712 V 177.243 l 7.5614,-1.52928 v 14.0184 l -7.5614,1.61424"
     class="Accidental" />
  <polyline
     transform="translate(-360,-453.281)"
     id="polyline15600"
     points="1426.76,562.556 1469.23,562.556"
     stroke-linejoin="bevel"
     stroke-width="3.4"
     stroke="#000000"
     class="LedgerLine" />
  <polyline
     transform="translate(-360,-453.281)"
     id="polyline15602"
     points="1520.57,562.556 1563.05,562.556"
     stroke-linejoin="bevel"
     stroke-width="3.4"
     stroke="#000000"
     class="LedgerLine" />
  <polyline
     transform="translate(-360,-453.281)"
     id="polyline15604"
     points="1614.39,562.556 1656.86,562.556"
     stroke-linejoin="bevel"
     stroke-width="3.4"
     stroke="#000000"
     class="LedgerLine" />
  <polyline
     transform="translate(-360,-453.281)"
     id="polyline15646"
     points="675.38,639.751 675.38,711.236"
     stroke-linejoin="bevel"
     stroke-width="2.34"
     stroke="#000000"
     class="Stem" />
  <polyline
     transform="translate(-360,-453.281)"
     id="polyline15648"
     points="1435.36,660.991 1435.36,732.476"
     stroke-linejoin="bevel"
     stroke-width="2.34"
     stroke="#000000"
     class="Stem" />
  <polyline
     transform="translate(-360,-453.281)"
     id="polyline15650"
     points="712.58,597.271 712.58,652.826"
     stroke-linejoin="bevel"
     stroke-width="2.34"
     stroke="#000000"
     class="Stem" />
  <polyline
     transform="translate(-360,-453.281)"
     id="polyline15652"
     points="819.084,597.271 819.084,652.826"
     stroke-linejoin="bevel"
     stroke-width="2.34"
     stroke="#000000"
     class="Stem" />
  <polyline
     transform="translate(-360,-453.281)"
     id="polyline15654"
     points="925.588,597.271 925.588,652.826"
     stroke-linejoin="bevel"
     stroke-width="2.34"
     stroke="#000000"
     class="Stem" />
  <polyline
     transform="translate(-360,-453.281)"
     id="polyline15656"
     points="1006.82,618.511 1006.82,689.996"
     stroke-linejoin="bevel"
     stroke-width="2.34"
     stroke="#000000"
     class="Stem" />
  <polyline
     transform="translate(-360,-453.281)"
     id="polyline15658"
     points="1073.39,629.131 1073.39,689.996"
     stroke-linejoin="bevel"
     stroke-width="2.34"
     stroke="#000000"
     class="Stem" />
  <polyline
     transform="translate(-360,-453.281)"
     id="polyline15660"
     points="1139.95,618.511 1139.95,689.996"
     stroke-linejoin="bevel"
     stroke-width="2.34"
     stroke="#000000"
     class="Stem" />
  <polyline
     transform="translate(-360,-453.281)"
     id="polyline15662"
     points="1206.52,607.891 1206.52,689.996"
     stroke-linejoin="bevel"
     stroke-width="2.34"
     stroke="#000000"
     class="Stem" />
  <polyline
     transform="translate(-360,-453.281)"
     id="polyline15664"
     points="1273.08,597.271 1273.08,689.996"
     stroke-linejoin="bevel"
     stroke-width="2.34"
     stroke="#000000"
     class="Stem" />
  <polyline
     transform="translate(-360,-453.281)"
     id="polyline15666"
     points="1435.36,597.271 1435.36,644.709"
     stroke-linejoin="bevel"
     stroke-width="2.34"
     stroke="#000000"
     class="Stem" />
  <polyline
     transform="translate(-360,-453.281)"
     id="polyline15668"
     points="1529.18,597.271 1529.18,644.709"
     stroke-linejoin="bevel"
     stroke-width="2.34"
     stroke="#000000"
     class="Stem" />
  <polyline
     transform="translate(-360,-453.281)"
     id="polyline15670"
     points="1622.99,597.271 1622.99,644.709"
     stroke-linejoin="bevel"
     stroke-width="2.34"
     stroke="#000000"
     class="Stem" />
  <polyline
     transform="translate(-360,-453.281)"
     id="polyline15732"
     points="563.114,629.131 563.114,700.616"
     stroke-linejoin="bevel"
     stroke-width="2.34"
     stroke="#000000"
     class="Stem" />
  <polyline
     transform="translate(-360,-453.281)"
     id="polyline15734"
     points="712.58,581.078 712.58,520.076"
     stroke-linejoin="bevel"
     stroke-width="2.34"
     stroke="#000000"
     class="Stem" />
  <polyline
     transform="translate(-360,-453.281)"
     id="polyline15736"
     points="819.084,581.078 819.084,520.076"
     stroke-linejoin="bevel"
     stroke-width="2.34"
     stroke="#000000"
     class="Stem" />
  <polyline
     transform="translate(-360,-453.281)"
     id="polyline15738"
     points="925.588,581.078 925.588,520.076"
     stroke-linejoin="bevel"
     stroke-width="2.34"
     stroke="#000000"
     class="Stem" />
  <polyline
     transform="translate(-360,-453.281)"
     id="polyline15740"
     points="1460.63,559.838 1460.63,498.836"
     stroke-linejoin="bevel"
     stroke-width="2.34"
     stroke="#000000"
     class="Stem" />
  <polyline
     transform="translate(-360,-453.281)"
     id="polyline15742"
     points="1554.45,559.838 1554.45,498.836"
     stroke-linejoin="bevel"
     stroke-width="2.34"
     stroke="#000000"
     class="Stem" />
  <polyline
     transform="translate(-360,-453.281)"
     id="polyline15744"
     points="1648.26,559.838 1648.26,498.836"
     stroke-linejoin="bevel"
     stroke-width="2.34"
     stroke="#000000"
     class="Stem" />
  <polyline
     transform="translate(-360,-453.281)"
     id="polyline15746"
     points="1742.08,655.418 1742.08,583.796"
     stroke-linejoin="bevel"
     stroke-width="2.34"
     stroke="#000000"
     class="Stem" />
  <polyline
     transform="translate(-360,-453.281)"
     id="polyline15748"
     points="1800.71,666.038 1800.71,579.855"
     stroke-linejoin="bevel"
     stroke-width="2.34"
     stroke="#000000"
     class="Stem" />
  <polyline
     transform="translate(-360,-453.281)"
     id="polyline15750"
     points="1859.35,655.418 1859.35,575.914"
     stroke-linejoin="bevel"
     stroke-width="2.34"
     stroke="#000000"
     class="Stem" />
  <polyline
     transform="translate(-360,-453.281)"
     id="polyline15752"
     points="1917.98,644.798 1917.98,571.972"
     stroke-linejoin="bevel"
     stroke-width="2.34"
     stroke="#000000"
     class="Stem" />
  <polyline
     transform="translate(-360,-453.281)"
     id="polyline15754"
     points="1979.06,634.178 1979.06,567.866"
     stroke-linejoin="bevel"
     stroke-width="2.34"
     stroke="#000000"
     class="Stem" />
  <polyline
     transform="translate(-360,-453.281)"
     id="polyline15756"
     points="2121.22,634.178 2121.22,562.556"
     stroke-linejoin="bevel"
     stroke-width="2.34"
     stroke="#000000"
     class="Stem" />
  <polyline
     transform="translate(-360,-453.281)"
     id="polyline15758"
     points="2174.92,644.798 2174.92,558.574"
     stroke-linejoin="bevel"
     stroke-width="2.34"
     stroke="#000000"
     class="Stem" />
  <polyline
     transform="translate(-360,-453.281)"
     id="polyline15760"
     points="2228.61,634.178 2228.61,554.591"
     stroke-linejoin="bevel"
     stroke-width="2.34"
     stroke="#000000"
     class="Stem" />
  <polyline
     transform="translate(-360,-453.281)"
     id="polyline15762"
     points="2282.31,623.558 2282.31,550.609"
     stroke-linejoin="bevel"
     stroke-width="2.34"
     stroke="#000000"
     class="Stem" />
  <polyline
     transform="translate(-360,-453.281)"
     id="polyline15764"
     points="2336,612.938 2336,546.626"
     stroke-linejoin="bevel"
     stroke-width="2.34"
     stroke="#000000"
     class="Stem" />
  <polyline
     transform="translate(-360,-453.281)"
     id="polyline15766"
     points="2396.65,618.511 2396.65,689.996"
     stroke-linejoin="bevel"
     stroke-width="2.34"
     stroke="#000000"
     class="Stem" />
  <polyline
     transform="translate(-360,-453.281)"
     id="polyline15768"
     points="2450.34,629.131 2450.34,689.996"
     stroke-linejoin="bevel"
     stroke-width="2.34"
     stroke="#000000"
     class="Stem" />
  <polyline
     transform="translate(-360,-453.281)"
     id="polyline15770"
     points="2504.04,618.511 2504.04,689.996"
     stroke-linejoin="bevel"
     stroke-width="2.34"
     stroke="#000000"
     class="Stem" />
  <polyline
     transform="translate(-360,-453.281)"
     id="polyline15772"
     points="2557.74,607.891 2557.74,689.996"
     stroke-linejoin="bevel"
     stroke-width="2.34"
     stroke="#000000"
     class="Stem" />
  <polyline
     transform="translate(-360,-453.281)"
     id="polyline15774"
     points="2611.43,597.271 2611.43,689.996"
     stroke-linejoin="bevel"
     stroke-width="2.34"
     stroke="#000000"
     class="Stem" />
  <path
     style="stroke-width:0.8496"
     id="path15846"
     d="m 340.9744,176.73324 c -1.52928,-2.80368 -4.75776,-4.33296 -8.66592,-4.33296 -2.88864,0 -6.03216,0.8496 -9.09072,2.46384 -5.60736,2.9736 -9.00576,7.98624 -9.00576,12.3192 0,1.18944 0.25488,2.37888 0.8496,3.48336 1.52928,2.80368 4.75776,4.248 8.66592,4.248 2.88864,0 6.03216,-0.76464 9.09072,-2.37888 5.60736,-2.9736 9.00576,-7.98624 9.00576,-12.3192 0,-1.18944 -0.25488,-2.37888 -0.8496,-3.48336"
     class="Note" />
  <path
     style="stroke-width:0.8496"
     id="path15848"
     d="m 1100.9524,197.97324 c -1.5293,-2.80368 -4.7578,-4.33296 -8.6659,-4.33296 -2.8887,0 -6.0322,0.8496 -9.0907,2.46384 -5.6074,2.9736 -9.0058,7.98624 -9.0058,12.3192 0,1.18944 0.2549,2.37888 0.8496,3.48336 1.5293,2.80368 4.7578,4.248 8.6659,4.248 2.8887,0 6.0322,-0.76464 9.0907,-2.37888 5.6074,-2.9736 9.0058,-7.98624 9.0058,-12.3192 0,-1.18944 -0.2549,-2.37888 -0.8496,-3.48336"
     class="Note" />
  <path
     style="stroke-width:0.8496"
     id="path15850"
     d="m 378.1744,134.25324 c -1.52928,-2.80368 -4.75776,-4.33296 -8.66592,-4.33296 -2.88864,0 -6.03216,0.8496 -9.09072,2.46384 -5.60736,2.9736 -9.00576,7.98624 -9.00576,12.3192 0,1.18944 0.25488,2.37888 0.8496,3.48336 1.52928,2.80368 4.75776,4.248 8.66592,4.248 2.88864,0 6.03216,-0.76464 9.09072,-2.37888 5.60736,-2.9736 9.00576,-7.98624 9.00576,-12.3192 0,-1.18944 -0.25488,-2.37888 -0.8496,-3.48336"
     class="Note" />
  <path
     style="stroke-width:0.8496"
     id="path15852"
     d="m 484.6784,134.25324 c -1.52928,-2.80368 -4.75776,-4.33296 -8.66592,-4.33296 -2.88864,0 -6.03216,0.8496 -9.09072,2.46384 -5.60736,2.9736 -9.00576,7.98624 -9.00576,12.3192 0,1.18944 0.25488,2.37888 0.8496,3.48336 1.52928,2.80368 4.75776,4.248 8.66592,4.248 2.88864,0 6.03216,-0.76464 9.09072,-2.37888 5.60736,-2.9736 9.00576,-7.98624 9.00576,-12.3192 0,-1.18944 -0.25488,-2.37888 -0.8496,-3.48336"
     class="Note" />
  <path
     style="stroke-width:0.8496"
     id="path15854"
     d="m 591.1814,134.25324 c -1.52928,-2.80368 -4.75776,-4.33296 -8.66592,-4.33296 -2.88864,0 -6.03216,0.8496 -9.09072,2.46384 -5.60736,2.9736 -9.00576,7.98624 -9.00576,12.3192 0,1.18944 0.25488,2.37888 0.8496,3.48336 1.52928,2.80368 4.75776,4.248 8.66592,4.248 2.88864,0 6.03216,-0.76464 9.09072,-2.37888 5.60736,-2.9736 9.00576,-7.98624 9.00576,-12.3192 0,-1.18944 -0.25488,-2.37888 -0.8496,-3.48336"
     class="Note" />
  <path
     style="stroke-width:0.8496"
     id="path15856"
     d="m 672.4124,155.49324 c -1.52928,-2.80368 -4.75776,-4.33296 -8.66592,-4.33296 -2.88864,0 -6.03216,0.8496 -9.09072,2.46384 -5.60736,2.9736 -9.00576,7.98624 -9.00576,12.3192 0,1.18944 0.25488,2.37888 0.8496,3.48336 1.52928,2.80368 4.75776,4.248 8.66592,4.248 2.88864,0 6.03216,-0.76464 9.09072,-2.37888 5.60736,-2.9736 9.00576,-7.98624 9.00576,-12.3192 0,-1.18944 -0.25488,-2.37888 -0.8496,-3.48336"
     class="Note" />
  <path
     style="stroke-width:0.8496"
     id="path15858"
     d="m 738.9824,166.11324 c -1.52928,-2.80368 -4.75776,-4.33296 -8.66592,-4.33296 -2.88864,0 -6.03216,0.8496 -9.09072,2.46384 -5.60736,2.9736 -9.00576,7.98624 -9.00576,12.3192 0,1.18944 0.25488,2.37888 0.8496,3.48336 1.52928,2.80368 4.75776,4.248 8.66592,4.248 2.88864,0 6.03216,-0.76464 9.09072,-2.37888 5.60736,-2.9736 9.00576,-7.98624 9.00576,-12.3192 0,-1.18944 -0.25488,-2.37888 -0.8496,-3.48336"
     class="Note" />
  <path
     style="stroke-width:0.8496"
     id="path15860"
     d="m 805.5424,155.49324 c -1.52928,-2.80368 -4.75776,-4.33296 -8.66592,-4.33296 -2.88864,0 -6.03216,0.8496 -9.09072,2.46384 -5.60736,2.9736 -9.00576,7.98624 -9.00576,12.3192 0,1.18944 0.25488,2.37888 0.8496,3.48336 1.52928,2.80368 4.75776,4.248 8.66592,4.248 2.88864,0 6.03216,-0.76464 9.09072,-2.37888 5.60736,-2.9736 9.00576,-7.98624 9.00576,-12.3192 0,-1.18944 -0.25488,-2.37888 -0.8496,-3.48336"
     class="Note" />
  <path
     style="stroke-width:0.8496"
     id="path15862"
     d="m 872.1124,144.87324 c -1.52928,-2.80368 -4.75776,-4.33296 -8.66592,-4.33296 -2.88864,0 -6.03216,0.8496 -9.09072,2.46384 -5.60736,2.9736 -9.00576,7.98624 -9.00576,12.3192 0,1.18944 0.25488,2.37888 0.8496,3.48336 1.52928,2.80368 4.75776,4.248 8.66592,4.248 2.88864,0 6.03216,-0.76464 9.09072,-2.37888 5.60736,-2.9736 9.00576,-7.98624 9.00576,-12.3192 0,-1.18944 -0.25488,-2.37888 -0.8496,-3.48336"
     class="Note" />
  <path
     style="stroke-width:0.8496"
     id="path15864"
     d="m 938.6724,134.25324 c -1.52928,-2.80368 -4.75776,-4.33296 -8.66592,-4.33296 -2.88864,0 -6.03216,0.8496 -9.09072,2.46384 -5.60736,2.9736 -9.00576,7.98624 -9.00576,12.3192 0,1.18944 0.25488,2.37888 0.8496,3.48336 1.52928,2.80368 4.75776,4.248 8.66592,4.248 2.88864,0 6.03216,-0.76464 9.09072,-2.37888 5.60736,-2.9736 9.00576,-7.98624 9.00576,-12.3192 0,-1.18944 -0.25488,-2.37888 -0.8496,-3.48336"
     class="Note" />
  <path
     style="stroke-width:0.8496"
     id="path15866"
     d="m 1100.9524,134.25324 c -1.5293,-2.80368 -4.7578,-4.33296 -8.6659,-4.33296 -2.8887,0 -6.0322,0.8496 -9.0907,2.46384 -5.6074,2.9736 -9.0058,7.98624 -9.0058,12.3192 0,1.18944 0.2549,2.37888 0.8496,3.48336 1.5293,2.80368 4.7578,4.248 8.6659,4.248 2.8887,0 6.0322,-0.76464 9.0907,-2.37888 5.6074,-2.9736 9.0058,-7.98624 9.0058,-12.3192 0,-1.18944 -0.2549,-2.37888 -0.8496,-3.48336"
     class="Note" />
  <path
     style="stroke-width:0.8496"
     id="path15868"
     d="m 1194.7724,134.25324 c -1.5293,-2.80368 -4.7578,-4.33296 -8.6659,-4.33296 -2.8887,0 -6.0322,0.8496 -9.0907,2.46384 -5.6074,2.9736 -9.0058,7.98624 -9.0058,12.3192 0,1.18944 0.2549,2.37888 0.8496,3.48336 1.5293,2.80368 4.7578,4.248 8.6659,4.248 2.8887,0 6.0322,-0.76464 9.0907,-2.37888 5.6074,-2.9736 9.0058,-7.98624 9.0058,-12.3192 0,-1.18944 -0.2549,-2.37888 -0.8496,-3.48336"
     class="Note" />
  <path
     style="stroke-width:0.8496"
     id="path15870"
     d="m 1288.5924,134.25324 c -1.5293,-2.80368 -4.7578,-4.33296 -8.6659,-4.33296 -2.8887,0 -6.0322,0.8496 -9.0907,2.46384 -5.6074,2.9736 -9.0058,7.98624 -9.0058,12.3192 0,1.18944 0.2549,2.37888 0.8496,3.48336 1.5293,2.80368 4.7578,4.248 8.6659,4.248 2.8887,0 6.0322,-0.76464 9.0907,-2.37888 5.6074,-2.9736 9.0058,-7.98624 9.0058,-12.3192 0,-1.18944 -0.2549,-2.37888 -0.8496,-3.48336"
     class="Note" />
  <path
     style="stroke-width:0.8496"
     id="path15932"
     d="m 228.7084,166.11324 c -1.52928,-2.80368 -4.75776,-4.33296 -8.66592,-4.33296 -2.88864,0 -6.03216,0.8496 -9.09072,2.46384 -5.60736,2.9736 -9.00576,7.98624 -9.00576,12.3192 0,1.18944 0.25488,2.37888 0.8496,3.48336 1.52928,2.80368 4.75776,4.248 8.66592,4.248 2.88864,0 6.03216,-0.76464 9.09072,-2.37888 5.60736,-2.9736 9.00576,-7.98624 9.00576,-12.3192 0,-1.18944 -0.25488,-2.37888 -0.8496,-3.48336"
     class="Note" />
  <path
     style="stroke-width:0.8496"
     id="path15934"
     d="m 352.9054,123.63324 c -1.52928,-2.80368 -4.75776,-4.33296 -8.66592,-4.33296 -2.88864,0 -6.03216,0.8496 -9.09072,2.46384 -5.60736,2.9736 -9.00576,7.98624 -9.00576,12.3192 0,1.18944 0.25488,2.37888 0.8496,3.48336 1.52928,2.80368 4.75776,4.248 8.66592,4.248 2.88864,0 6.03216,-0.76464 9.09072,-2.37888 5.60736,-2.9736 9.00576,-7.98624 9.00576,-12.3192 0,-1.18944 -0.25488,-2.37888 -0.8496,-3.48336"
     class="Note" />
  <path
     style="stroke-width:0.8496"
     id="path15936"
     d="m 459.4094,123.63324 c -1.52928,-2.80368 -4.75776,-4.33296 -8.66592,-4.33296 -2.88864,0 -6.03216,0.8496 -9.09072,2.46384 -5.60736,2.9736 -9.00576,7.98624 -9.00576,12.3192 0,1.18944 0.25488,2.37888 0.8496,3.48336 1.52928,2.80368 4.75776,4.248 8.66592,4.248 2.88864,0 6.03216,-0.76464 9.09072,-2.37888 5.60736,-2.9736 9.00576,-7.98624 9.00576,-12.3192 0,-1.18944 -0.25488,-2.37888 -0.8496,-3.48336"
     class="Note" />
  <path
     style="stroke-width:0.8496"
     id="path15938"
     d="m 565.9124,123.63324 c -1.52928,-2.80368 -4.75776,-4.33296 -8.66592,-4.33296 -2.88864,0 -6.03216,0.8496 -9.09072,2.46384 -5.60736,2.9736 -9.00576,7.98624 -9.00576,12.3192 0,1.18944 0.25488,2.37888 0.8496,3.48336 1.52928,2.80368 4.75776,4.248 8.66592,4.248 2.88864,0 6.03216,-0.76464 9.09072,-2.37888 5.60736,-2.9736 9.00576,-7.98624 9.00576,-12.3192 0,-1.18944 -0.25488,-2.37888 -0.8496,-3.48336"
     class="Note" />
  <path
     style="stroke-width:0.8496"
     id="path15940"
     d="m 1100.9524,102.39324 c -1.5293,-2.80368 -4.7578,-4.33296 -8.6659,-4.33296 -2.8887,0 -6.0322,0.8496 -9.0907,2.46384 -5.6074,2.9736 -9.0058,7.98624 -9.0058,12.3192 0,1.18944 0.2549,2.37888 0.8496,3.48336 1.5293,2.80368 4.7578,4.248 8.6659,4.248 2.8887,0 6.0322,-0.76464 9.0907,-2.37888 5.6074,-2.9736 9.0058,-7.98624 9.0058,-12.3192 0,-1.18944 -0.2549,-2.37888 -0.8496,-3.48336"
     class="Note" />
  <path
     style="stroke-width:0.8496"
     id="path15942"
     d="m 1194.7724,102.39324 c -1.5293,-2.80368 -4.7578,-4.33296 -8.6659,-4.33296 -2.8887,0 -6.0322,0.8496 -9.0907,2.46384 -5.6074,2.9736 -9.0058,7.98624 -9.0058,12.3192 0,1.18944 0.2549,2.37888 0.8496,3.48336 1.5293,2.80368 4.7578,4.248 8.6659,4.248 2.8887,0 6.0322,-0.76464 9.0907,-2.37888 5.6074,-2.9736 9.0058,-7.98624 9.0058,-12.3192 0,-1.18944 -0.2549,-2.37888 -0.8496,-3.48336"
     class="Note" />
  <path
     style="stroke-width:0.8496"
     id="path15944"
     d="m 1288.5924,102.39324 c -1.5293,-2.80368 -4.7578,-4.33296 -8.6659,-4.33296 -2.8887,0 -6.0322,0.8496 -9.0907,2.46384 -5.6074,2.9736 -9.0058,7.98624 -9.0058,12.3192 0,1.18944 0.2549,2.37888 0.8496,3.48336 1.5293,2.80368 4.7578,4.248 8.6659,4.248 2.8887,0 6.0322,-0.76464 9.0907,-2.37888 5.6074,-2.9736 9.0058,-7.98624 9.0058,-12.3192 0,-1.18944 -0.2549,-2.37888 -0.8496,-3.48336"
     class="Note" />
  <path
     style="stroke-width:0.8496"
     id="path15946"
     d="m 1382.4024,197.97324 c -1.5293,-2.80368 -4.7578,-4.33296 -8.6659,-4.33296 -2.8887,0 -6.0322,0.8496 -9.0907,2.46384 -5.6074,2.9736 -9.0058,7.98624 -9.0058,12.3192 0,1.18944 0.2549,2.37888 0.8496,3.48336 1.5293,2.80368 4.7578,4.248 8.6659,4.248 2.8887,0 6.0322,-0.76464 9.0907,-2.37888 5.6074,-2.9736 9.0058,-7.98624 9.0058,-12.3192 0,-1.18944 -0.2549,-2.37888 -0.8496,-3.48336"
     class="Note" />
  <path
     style="stroke-width:0.8496"
     id="path15948"
     d="m 1441.0424,208.59324 c -1.5293,-2.80368 -4.7578,-4.33296 -8.6659,-4.33296 -2.8887,0 -6.0322,0.8496 -9.0907,2.46384 -5.6074,2.9736 -9.0058,7.98624 -9.0058,12.3192 0,1.18944 0.2549,2.37888 0.8496,3.48336 1.5293,2.80368 4.7578,4.248 8.6659,4.248 2.8887,0 6.0322,-0.76464 9.0907,-2.37888 5.6074,-2.9736 9.0058,-7.98624 9.0058,-12.3192 0,-1.18944 -0.2549,-2.37888 -0.8496,-3.48336"
     class="Note" />
  <path
     style="stroke-width:0.8496"
     id="path15950"
     d="m 1499.6724,197.97324 c -1.5293,-2.80368 -4.7578,-4.33296 -8.6659,-4.33296 -2.8887,0 -6.0322,0.8496 -9.0907,2.46384 -5.6074,2.9736 -9.0058,7.98624 -9.0058,12.3192 0,1.18944 0.2549,2.37888 0.8496,3.48336 1.5293,2.80368 4.7578,4.248 8.6659,4.248 2.8887,0 6.0322,-0.76464 9.0907,-2.37888 5.6074,-2.9736 9.0058,-7.98624 9.0058,-12.3192 0,-1.18944 -0.2549,-2.37888 -0.8496,-3.48336"
     class="Note" />
  <path
     style="stroke-width:0.8496"
     id="path15952"
     d="m 1558.3124,187.35324 c -1.5293,-2.80368 -4.7578,-4.33296 -8.6659,-4.33296 -2.8887,0 -6.0322,0.8496 -9.0907,2.46384 -5.6074,2.9736 -9.0058,7.98624 -9.0058,12.3192 0,1.18944 0.2549,2.37888 0.8496,3.48336 1.5293,2.80368 4.7578,4.248 8.6659,4.248 2.8887,0 6.0322,-0.76464 9.0907,-2.37888 5.6074,-2.9736 9.0058,-7.98624 9.0058,-12.3192 0,-1.18944 -0.2549,-2.37888 -0.8496,-3.48336"
     class="Note" />
  <path
     style="stroke-width:0.8496"
     id="path15954"
     d="m 1619.3924,176.73324 c -1.5293,-2.80368 -4.7578,-4.33296 -8.6659,-4.33296 -2.8887,0 -6.0322,0.8496 -9.0907,2.46384 -5.6074,2.9736 -9.0058,7.98624 -9.0058,12.3192 0,1.18944 0.2549,2.37888 0.8496,3.48336 1.5293,2.80368 4.7578,4.248 8.6659,4.248 2.8887,0 6.0322,-0.76464 9.0907,-2.37888 5.6074,-2.9736 9.0058,-7.98624 9.0058,-12.3192 0,-1.18944 -0.2549,-2.37888 -0.8496,-3.48336"
     class="Note" />
  <path
     style="stroke-width:0.8496"
     id="path15956"
     d="m 1761.5424,176.73324 c -1.5293,-2.80368 -4.7578,-4.33296 -8.6659,-4.33296 -2.8887,0 -6.0322,0.8496 -9.0907,2.46384 -5.6074,2.9736 -9.0058,7.98624 -9.0058,12.3192 0,1.18944 0.2549,2.37888 0.8496,3.48336 1.5293,2.80368 4.7578,4.248 8.6659,4.248 2.8887,0 6.0322,-0.76464 9.0907,-2.37888 5.6074,-2.9736 9.0058,-7.98624 9.0058,-12.3192 0,-1.18944 -0.2549,-2.37888 -0.8496,-3.48336"
     class="Note" />
  <path
     style="stroke-width:0.8496"
     id="path15958"
     d="m 1815.2424,187.35324 c -1.5293,-2.80368 -4.7578,-4.33296 -8.6659,-4.33296 -2.8887,0 -6.0322,0.8496 -9.0907,2.46384 -5.6074,2.9736 -9.0058,7.98624 -9.0058,12.3192 0,1.18944 0.2549,2.37888 0.8496,3.48336 1.5293,2.80368 4.7578,4.248 8.6659,4.248 2.8887,0 6.0322,-0.76464 9.0907,-2.37888 5.6074,-2.9736 9.0058,-7.98624 9.0058,-12.3192 0,-1.18944 -0.2549,-2.37888 -0.8496,-3.48336"
     class="Note" />
  <path
     style="stroke-width:0.8496"
     id="path15960"
     d="m 1868.9324,176.73324 c -1.5293,-2.80368 -4.7578,-4.33296 -8.6659,-4.33296 -2.8887,0 -6.0322,0.8496 -9.0907,2.46384 -5.6074,2.9736 -9.0058,7.98624 -9.0058,12.3192 0,1.18944 0.2549,2.37888 0.8496,3.48336 1.5293,2.80368 4.7578,4.248 8.6659,4.248 2.8887,0 6.0322,-0.76464 9.0907,-2.37888 5.6074,-2.9736 9.0058,-7.98624 9.0058,-12.3192 0,-1.18944 -0.2549,-2.37888 -0.8496,-3.48336"
     class="Note" />
  <path
     style="stroke-width:0.8496"
     id="path15962"
     d="m 1922.6324,166.11324 c -1.5293,-2.80368 -4.7578,-4.33296 -8.6659,-4.33296 -2.8887,0 -6.0322,0.8496 -9.0907,2.46384 -5.6074,2.9736 -9.0058,7.98624 -9.0058,12.3192 0,1.18944 0.2549,2.37888 0.8496,3.48336 1.5293,2.80368 4.7578,4.248 8.6659,4.248 2.8887,0 6.0322,-0.76464 9.0907,-2.37888 5.6074,-2.9736 9.0058,-7.98624 9.0058,-12.3192 0,-1.18944 -0.2549,-2.37888 -0.8496,-3.48336"
     class="Note" />
  <path
     style="stroke-width:0.8496"
     id="path15964"
     d="m 1976.3324,155.49324 c -1.5293,-2.80368 -4.7578,-4.33296 -8.6659,-4.33296 -2.8887,0 -6.0322,0.8496 -9.0907,2.46384 -5.6074,2.9736 -9.0058,7.98624 -9.0058,12.3192 0,1.18944 0.2549,2.37888 0.8496,3.48336 1.5293,2.80368 4.7578,4.248 8.6659,4.248 2.8887,0 6.0322,-0.76464 9.0907,-2.37888 5.6074,-2.9736 9.0058,-7.98624 9.0058,-12.3192 0,-1.18944 -0.2549,-2.37888 -0.8496,-3.48336"
     class="Note" />
  <path
     style="stroke-width:0.8496"
     id="path15966"
     d="m 2062.2424,155.49324 c -1.5293,-2.80368 -4.7578,-4.33296 -8.6659,-4.33296 -2.8887,0 -6.0322,0.8496 -9.0907,2.46384 -5.6074,2.9736 -9.0058,7.98624 -9.0058,12.3192 0,1.18944 0.2549,2.37888 0.8496,3.48336 1.5293,2.80368 4.7578,4.248 8.6659,4.248 2.8887,0 6.0322,-0.76464 9.0907,-2.37888 5.6074,-2.9736 9.0058,-7.98624 9.0058,-12.3192 0,-1.18944 -0.2549,-2.37888 -0.8496,-3.48336"
     class="Note" />
  <path
     style="stroke-width:0.8496"
     id="path15968"
     d="m 2115.9424,166.11324 c -1.5293,-2.80368 -4.7578,-4.33296 -8.6659,-4.33296 -2.8887,0 -6.0322,0.8496 -9.0907,2.46384 -5.6074,2.9736 -9.0058,7.98624 -9.0058,12.3192 0,1.18944 0.2549,2.37888 0.8496,3.48336 1.5293,2.80368 4.7578,4.248 8.6659,4.248 2.8887,0 6.0322,-0.76464 9.0907,-2.37888 5.6074,-2.9736 9.0058,-7.98624 9.0058,-12.3192 0,-1.18944 -0.2549,-2.37888 -0.8496,-3.48336"
     class="Note" />
  <path
     style="stroke-width:0.8496"
     id="path15970"
     d="m 2169.6324,155.49324 c -1.5293,-2.80368 -4.7578,-4.33296 -8.6659,-4.33296 -2.8887,0 -6.0322,0.8496 -9.0907,2.46384 -5.6074,2.9736 -9.0058,7.98624 -9.0058,12.3192 0,1.18944 0.2549,2.37888 0.8496,3.48336 1.5293,2.80368 4.7578,4.248 8.6659,4.248 2.8887,0 6.0322,-0.76464 9.0907,-2.37888 5.6074,-2.9736 9.0058,-7.98624 9.0058,-12.3192 0,-1.18944 -0.2549,-2.37888 -0.8496,-3.48336"
     class="Note" />
  <path
     style="stroke-width:0.8496"
     id="path15972"
     d="m 2223.3324,144.87324 c -1.5293,-2.80368 -4.7578,-4.33296 -8.6659,-4.33296 -2.8887,0 -6.0322,0.8496 -9.0907,2.46384 -5.6074,2.9736 -9.0058,7.98624 -9.0058,12.3192 0,1.18944 0.2549,2.37888 0.8496,3.48336 1.5293,2.80368 4.7578,4.248 8.6659,4.248 2.8887,0 6.0322,-0.76464 9.0907,-2.37888 5.6074,-2.9736 9.0058,-7.98624 9.0058,-12.3192 0,-1.18944 -0.2549,-2.37888 -0.8496,-3.48336"
     class="Note" />
  <path
     style="stroke-width:0.8496"
     id="path15974"
     d="m 2277.0224,134.25324 c -1.5293,-2.80368 -4.7578,-4.33296 -8.6659,-4.33296 -2.8887,0 -6.0322,0.8496 -9.0907,2.46384 -5.6074,2.9736 -9.0058,7.98624 -9.0058,12.3192 0,1.18944 0.2549,2.37888 0.8496,3.48336 1.5293,2.80368 4.7578,4.248 8.6659,4.248 2.8887,0 6.0322,-0.76464 9.0907,-2.37888 5.6074,-2.9736 9.0058,-7.98624 9.0058,-12.3192 0,-1.18944 -0.2549,-2.37888 -0.8496,-3.48336"
     class="Note" />
  <path
     style="stroke-width:0.8496"
     id="path16046"
     d="m 24.2136,111.90876 h -6.11712 c -0.59472,0 -1.10448,0.50976 -1.10448,1.10448 v 77.3136 c 0,0.59472 0.50976,1.10448 1.10448,1.10448 h 6.11712 c 0.59472,0 1.10448,-0.50976 1.10448,-1.10448 v -77.3136 c 0,-0.59472 -0.50976,-1.10448 -1.10448,-1.10448 m 30.5856,43.24464 h -1.2744 c -1.95408,0 -3.3984,0.16992 -6.71184,2.20896 0,0 -1.86912,-3.73824 -4.6728,-5.69232 2.80368,-1.95408 4.6728,-5.69232 4.6728,-5.69232 3.31344,2.03904 4.75776,2.20896 6.71184,2.20896 h 1.2744 c 10.36512,0 15.46272,-9.60048 15.46272,-18.77616 0,-11.8944 -8.75088,-18.60624 -19.03104,-18.60624 -9.3456,0 -13.25376,4.6728 -13.25376,4.6728 -1.52928,1.86912 -2.20896,3.90816 -2.20896,5.77728 0,1.52928 0.4248,2.9736 1.2744,4.248 1.18944,1.6992 3.56832,2.63376 5.77728,2.63376 1.52928,0 2.9736,-0.4248 3.99312,-1.2744 1.44432,-1.2744 2.37888,-3.14352 2.37888,-5.18256 0,-1.18944 -0.33984,-2.37888 -0.93456,-3.48336 -1.35936,-2.46384 -3.90816,-2.80368 -5.26752,-2.80368 -0.50976,0 -0.93456,0.085 -0.93456,0.085 1.95408,-1.35936 4.58784,-2.124 7.2216,-2.124 2.37888,0 4.6728,0.59472 6.28704,1.78416 2.9736,2.20896 4.07808,6.88176 4.07808,12.99888 0,6.54192 -0.16992,16.05744 -7.6464,16.05744 -7.47648,0 -9.17568,-8.9208 -9.17568,-8.9208 0,0 0,-1.18944 -1.18944,-1.18944 -1.18944,0 -1.2744,1.18944 -1.2744,1.18944 0,0 -0.67968,4.33296 -2.9736,9.60048 -1.35936,3.14352 -3.3984,4.58784 -4.84272,5.18256 v -37.04256 c 0,-0.59472 -0.4248,-1.10448 -1.01952,-1.10448 -0.59472,0 -1.10448,0.50976 -1.10448,1.10448 v 77.3136 c 0,0.59472 0.50976,1.10448 1.10448,1.10448 0.59472,0 1.01952,-0.50976 1.01952,-1.10448 v -37.04256 c 1.44432,0.59472 3.48336,2.03904 4.84272,5.18256 2.29392,5.26752 2.9736,9.68544 2.9736,9.68544 0,0 0.08496,1.10448 1.2744,1.10448 1.18944,0 1.18944,-1.10448 1.18944,-1.10448 0,0 1.6992,-9.00576 9.17568,-9.00576 7.47648,0 7.6464,9.51552 7.6464,16.05744 0,6.11712 -1.10448,10.78992 -4.07808,12.99888 -1.61424,1.18944 -3.90816,1.78416 -6.28704,1.78416 -2.63376,0 -5.26752,-0.76464 -7.2216,-2.124 0,0 0.4248,0.085 0.93456,0.085 1.35936,0 3.90816,-0.33984 5.26752,-2.80368 0.59472,-1.10448 0.93456,-2.29392 0.93456,-3.48336 0,-2.03904 -0.93456,-3.90816 -2.37888,-5.18256 -1.01952,-0.8496 -2.46384,-1.2744 -3.99312,-1.2744 -2.20896,0 -4.58784,0.93456 -5.77728,2.63376 -0.8496,1.2744 -1.2744,2.71872 -1.2744,4.248 0,1.86912 0.67968,3.90816 2.20896,5.77728 0,0 3.90816,4.6728 13.25376,4.6728 10.28016,0 19.03104,-6.71184 19.03104,-18.60624 0,-9.17568 -5.0976,-18.77616 -15.46272,-18.77616"
     class="Clef" />
  <path
     style="stroke-width:0.8496"
     id="path16052"
     d="m 132.53368,142.74924 c 0.50976,-0.085 0.93456,-0.67968 0.93456,-1.18944 v -5.01264 c 0,-0.67968 -0.50976,-1.18944 -1.18944,-1.18944 h -0.16992 l -2.80368,0.59472 V 123.2934 h -2.37888 v 13.1688 l -7.56144,1.52928 V 126.01212 H 116.986 v 12.48912 l -3.31344,0.67968 c -0.50976,0.085 -0.93456,0.67968 -0.93456,1.18944 v 0.16992 4.92768 -0.16992 c 0,0.67968 0.50976,1.18944 1.18944,1.18944 h 0.25488 l 2.80368,-0.59472 v 14.0184 l -3.31344,0.67968 c -0.50976,0.085 -0.93456,0.67968 -0.93456,1.18944 v 4.92768 c 0,0.67968 0.50976,1.18944 1.18944,1.18944 h 0.25488 l 2.80368,-0.59472 v 12.65904 h 2.37888 v -13.1688 l 7.56144,-1.52928 V 177.243 h 2.37888 v -12.48912 l 3.22848,-0.59472 c 0.50976,-0.085 0.93456,-0.67968 0.93456,-1.18944 v -5.01264 c 0,-0.67968 -0.50976,-1.18944 -1.18944,-1.18944 h -0.16992 l -2.80368,0.59472 v -14.0184 l 3.22848,-0.59472 m -13.1688,16.73712 V 145.383 l 7.56144,-1.52928 v 14.0184 l -7.56144,1.61424"
     class="KeySig" />
  <path
     style="stroke-width:0.8496"
     id="path16054"
     d="m 111.29368,185.22924 c 0.50976,-0.085 0.93456,-0.67968 0.93456,-1.18944 v -5.01264 c 0,-0.67968 -0.50976,-1.18944 -1.18944,-1.18944 h -0.16992 l -2.80368,0.59472 V 165.7734 h -2.37888 v 13.1688 l -7.56144,1.52928 V 168.49212 H 95.746 v 12.48912 l -3.31344,0.67968 c -0.50976,0.085 -0.93456,0.67968 -0.93456,1.18944 v 0.16992 4.92768 -0.16992 c 0,0.67968 0.50976,1.18944 1.18944,1.18944 h 0.25488 l 2.80368,-0.59472 v 14.0184 l -3.31344,0.67968 c -0.50976,0.085 -0.93456,0.67968 -0.93456,1.18944 v 4.92768 c 0,0.67968 0.50976,1.18944 1.18944,1.18944 h 0.25488 l 2.80368,-0.59472 v 12.65904 h 2.37888 v -13.1688 l 7.56144,-1.52928 V 219.723 h 2.37888 v -12.48912 l 3.22848,-0.59472 c 0.50976,-0.085 0.93456,-0.67968 0.93456,-1.18944 v -5.01264 c 0,-0.67968 -0.50976,-1.18944 -1.18944,-1.18944 h -0.16992 l -2.80368,0.59472 v -14.0184 l 3.22848,-0.59472 m -13.1688,16.73712 V 187.863 l 7.56144,-1.52928 v 14.0184 l -7.56144,1.61424"
     class="KeySig" />
  <path
     style="stroke-width:0.8496"
     id="path16060"
     d="m 723.2872,113.18484 v 8.15616 h 2.71872 v -8.15616 c 3.3984,-0.76464 5.9472,-4.33296 5.9472,-8.41104 0,-4.6728 -3.22848,-8.58096 -7.30656,-8.58096 -4.07808,0 -7.30656,3.90816 -7.30656,8.58096 0,4.07808 2.5488,7.6464 5.9472,8.41104 m 1.35936,-15.88752 c 1.44432,0 3.22848,3.22848 3.22848,7.2216 0,3.99312 -1.78416,7.30656 -3.22848,7.30656 -1.44432,0 -3.22848,-3.31344 -3.22848,-7.30656 0,-3.99312 1.78416,-7.2216 3.22848,-7.2216"
     class="Articulation" />
  <path
     style="stroke-width:0.8496"
     id="path16062"
     d="M 338.5912,27.67884 V 35.835 h 2.71872 v -8.15616 c 3.3984,-0.76464 5.9472,-4.33296 5.9472,-8.41104 0,-4.6728 -3.22848,-8.58096 -7.30656,-8.58096 -4.07808,0 -7.30656,3.90816 -7.30656,8.58096 0,4.07808 2.5488,7.6464 5.9472,8.41104 m 1.35936,-15.88752 c 1.44432,0 3.22848,3.22848 3.22848,7.2216 0,3.99312 -1.78416,7.30656 -3.22848,7.30656 -1.44432,0 -3.22848,-3.31344 -3.22848,-7.30656 0,-3.99312 1.78416,-7.2216 3.22848,-7.2216"
     class="Articulation" />
  <path
     id="path16070"
     d="m 351.412,194.235 h 215.344 v 10.62 H 351.412 v -10.62"
     fill-rule="evenodd"
     class="Beam" />
  <path
     id="path16072"
     d="m 645.65,231.405 h 268.6 v 10.62 h -268.6 v -10.62"
     fill-rule="evenodd"
     class="Beam" />
  <path
     id="path16074"
     d="m 645.65,215.475 h 202.04 v 10.62 H 645.65 v -10.62"
     fill-rule="evenodd"
     class="Beam" />
  <path
     id="path16076"
     d="m 1074.19,186.118 h 189.97 v 10.62 h -189.97 v -10.62"
     fill-rule="evenodd"
     class="Beam" />
  <path
     id="path16098"
     d="m 351.412,61.485 h 215.344 v 10.62 H 351.412 v -10.62"
     fill-rule="evenodd"
     class="Beam" />
  <path
     id="path16100"
     d="m 1099.46,40.245 h 189.97 v 10.62 h -189.97 v -10.62"
     fill-rule="evenodd"
     class="Beam" />
  <path
     id="path16102"
     d="m 1380.91,125.35 239.32,-16.087 v 10.644 l -239.32,16.087 V 125.35"
     fill-rule="evenodd"
     class="Beam" />
  <path
     id="path16104"
     d="m 1380.91,141.28 178.24,-11.981 v 10.644 l -178.24,11.981 V 141.28"
     fill-rule="evenodd"
     class="Beam" />
  <path
     id="path16106"
     d="M 1760.05,104.124 1977.17,88.021 V 98.67 l -217.12,16.103 v -10.649"
     fill-rule="evenodd"
     class="Beam" />
  <path
     id="path16108"
     d="m 1760.05,120.054 163.43,-12.121 v 10.649 l -163.43,12.121 v -10.649"
     fill-rule="evenodd"
     class="Beam" />
  <path
     id="path16110"
     d="m 2035.48,231.405 h 217.12 v 10.62 h -217.12 v -10.62"
     fill-rule="evenodd"
     class="Beam" />
  <path
     id="path16112"
     d="m 2035.48,215.475 h 163.42 v 10.62 h -163.42 v -10.62"
     fill-rule="evenodd"
     class="Beam" />
  <path
     style="stroke-width:0.8496"
     id="path16136"
     d="m 316.336,258.29484 c 0,-0.16992 0.76464,-3.05856 0.8496,-3.31344 0.085,-0.33984 1.61424,-5.18256 4.75776,-10.02528 2.29392,-3.56832 10.36512,-14.0184 10.11024,-14.0184 0,0 6.28704,-8.0712 6.71184,-19.03104 v -1.95408 c 0,-5.18256 -0.67968,-12.48912 -3.65328,-19.88064 -0.33984,-0.8496 -0.67968,-1.6992 -1.61424,-1.35936 -0.93456,0.33984 -0.67968,1.35936 -0.4248,2.29392 1.52928,5.9472 2.37888,12.06432 2.37888,18.18144 0,7.13664 -2.5488,10.70496 -4.07808,13.33872 -5.60736,9.43056 -12.91392,14.0184 -16.48224,15.20784 -0.4248,0.16992 -0.67968,0.50976 -0.67968,0.93456 v 5.26752 13.93344 c 0,0.59472 0.50976,1.10448 1.10448,1.10448 0.4248,0 0.93456,-0.33984 1.01952,-0.67968"
     class="Hook" />
  <path
     style="stroke-width:0.8496"
     id="path16138"
     d="m 1076.314,279.53484 c 0,-0.16992 0.7646,-3.05856 0.8496,-3.31344 0.085,-0.33984 1.6142,-5.18256 4.7578,-10.02528 2.2939,-3.56832 10.3651,-14.0184 10.1102,-14.0184 0,0 6.287,-8.0712 6.7118,-19.03104 v -1.95408 c 0,-5.18256 -0.6796,-12.48912 -3.6532,-19.88064 -0.3399,-0.8496 -0.6797,-1.6992 -1.6143,-1.35936 -0.9345,0.33984 -0.6797,1.35936 -0.4248,2.29392 1.5293,5.9472 2.3789,12.06432 2.3789,18.18144 0,7.13664 -2.5488,10.70496 -4.0781,13.33872 -5.6073,9.43056 -12.9139,14.0184 -16.4822,15.20784 -0.4248,0.16992 -0.6797,0.50976 -0.6797,0.93456 v 5.26752 13.93344 c 0,0.59472 0.5098,1.10448 1.1045,1.10448 0.4248,0 0.9345,-0.33984 1.0195,-0.67968"
     class="Hook" />
  <path
     style="stroke-width:0.8496"
     id="path16140"
     d="m 204.07,247.67484 c 0,-0.16992 0.76464,-3.05856 0.8496,-3.31344 0.085,-0.33984 1.61424,-5.18256 4.75776,-10.02528 2.29392,-3.56832 10.36512,-14.0184 10.11024,-14.0184 0,0 6.28704,-8.0712 6.71184,-19.03104 v -1.95408 c 0,-5.18256 -0.67968,-12.48912 -3.65328,-19.88064 -0.33984,-0.8496 -0.67968,-1.6992 -1.61424,-1.35936 -0.93456,0.33984 -0.67968,1.35936 -0.4248,2.29392 1.52928,5.9472 2.37888,12.06432 2.37888,18.18144 0,7.13664 -2.5488,10.70496 -4.07808,13.33872 -5.60736,9.43056 -12.91392,14.0184 -16.48224,15.20784 -0.4248,0.16992 -0.67968,0.50976 -0.67968,0.93456 v 5.26752 13.93344 c 0,0.59472 0.50976,1.10448 1.10448,1.10448 0.4248,0 0.93456,-0.33984 1.01952,-0.67968"
     class="Hook" />
  <path
     id="path16144"
     d="m 342.048,94.284 c 3.094,-1.122 4.522,-2.856 4.522,-5.576 0,-3.57 -2.72,-5.848 -6.936,-5.848 -3.978,0 -7.004,2.346 -7.004,5.44 0,1.394 0.918,2.38 2.244,2.38 1.19,0 2.006,-0.816 2.006,-2.04 0,-0.748 -0.272,-1.19 -1.054,-1.734 -0.34,-0.238 -0.442,-0.374 -0.442,-0.612 0,-0.952 1.972,-1.972 3.91,-1.972 2.448,0 3.74,1.53 3.74,4.42 0,3.162 -1.292,4.828 -3.706,4.828 -0.306,0 -0.884,-0.034 -1.394,-0.068 -0.272,-0.034 -0.544,-0.034 -0.748,-0.034 -0.714,0 -1.088,0.306 -1.088,0.918 0,0.578 0.34,0.85 1.088,0.85 0.204,0 0.476,0 0.782,-0.034 0.68,-0.034 1.224,-0.034 1.598,-0.034 2.516,0 3.876,1.802 3.876,5.168 0,3.536 -1.7,5.508 -4.76,5.508 -2.142,0 -4.454,-1.156 -4.454,-2.21 0,-0.306 0.068,-0.374 0.714,-0.748 0.952,-0.578 1.326,-1.156 1.326,-2.006 0,-1.224 -0.918,-2.142 -2.142,-2.142 -1.462,0 -2.414,1.19 -2.414,2.992 0,3.298 3.026,5.576 7.378,5.576 4.93,0 8.126,-2.72 8.126,-6.902 0,-3.196 -1.632,-5.134 -5.168,-6.12"
     class="Fingering" />
  <path
     id="path16146"
     d="m 1089.21,62.839 c -1.16,1.394 -4.29,2.448 -7.42,2.516 v 1.462 h 3 c 1.97,0.034 2.17,0.238 2.1,2.142 v 13.634 c 0,1.734 0,1.802 -0.2,2.108 -0.27,0.34 -0.92,0.476 -2.82,0.476 h -2.21 v 1.598 h 13.46 v -1.598 h -1.87 c -1.9,0 -2.55,-0.136 -2.82,-0.476 -0.24,-0.306 -0.24,-0.34 -0.24,-2.108 V 68.551 c 0,-1.904 0.07,-3.502 0.24,-5.712 h -1.22"
     class="Fingering" />
  <path
     id="path16148"
     d="m 348.29,63.498 h -1.496 l -0.34,1.734 c -0.442,2.21 -0.714,2.414 -2.822,2.414 h -7.616 c 2.346,-2.448 3.128,-3.162 5.304,-4.862 3.094,-2.38 4.42,-3.57 5.202,-4.59 1.088,-1.496 1.632,-2.992 1.632,-4.658 0,-3.876 -3.196,-6.63 -7.65,-6.63 -4.318,0 -7.616,2.754 -7.616,6.392 0,2.142 1.088,3.604 2.686,3.604 1.258,0 2.108,-0.85 2.108,-2.074 0,-0.85 -0.476,-1.632 -1.19,-1.938 -1.258,-0.51 -1.326,-0.578 -1.326,-1.02 0,-0.51 0.34,-1.292 0.816,-1.87 0.85,-1.054 2.244,-1.632 3.842,-1.632 2.822,0 4.488,1.734 4.488,4.59 0,2.516 -1.19,4.794 -4.012,7.786 -2.516,2.652 -4.08,4.318 -4.658,4.964 -1.224,1.428 -1.836,2.21 -3.332,4.182 v 0.952 h 15.334 l 0.646,-7.344"
     class="Fingering" />
  <path
     id="path16150"
     d="m 660.28,97.681 c -1.16,1.394 -4.28,2.448 -7.41,2.516 v 1.462 h 2.99 c 1.97,0.034 2.18,0.238 2.11,2.142 v 13.634 c 0,1.734 0,1.802 -0.21,2.108 -0.27,0.34 -0.91,0.476 -2.82,0.476 h -2.21 v 1.598 h 13.47 v -1.598 h -1.87 c -1.91,0 -2.55,-0.136 -2.83,-0.476 -0.23,-0.306 -0.23,-0.34 -0.23,-2.108 v -14.042 c 0,-1.904 0.06,-3.502 0.23,-5.712 h -1.22"
     class="Fingering" />
  <path
     id="path16152"
     d="m 1089.55,42.702 c 3.09,-1.122 4.52,-2.856 4.52,-5.576 0,-3.57 -2.72,-5.848 -6.94,-5.848 -3.97,0 -7,2.346 -7,5.44 0,1.394 0.92,2.38 2.24,2.38 1.19,0 2.01,-0.816 2.01,-2.04 0,-0.748 -0.27,-1.19 -1.05,-1.734 -0.34,-0.238 -0.45,-0.374 -0.45,-0.612 0,-0.952 1.98,-1.972 3.91,-1.972 2.45,0 3.74,1.53 3.74,4.42 0,3.162 -1.29,4.828 -3.7,4.828 -0.31,0 -0.89,-0.034 -1.4,-0.068 -0.27,-0.034 -0.54,-0.034 -0.74,-0.034 -0.72,0 -1.09,0.306 -1.09,0.918 0,0.578 0.34,0.85 1.09,0.85 0.2,0 0.47,0 0.78,-0.034 0.68,-0.034 1.22,-0.034 1.6,-0.034 2.51,0 3.87,1.802 3.87,5.168 0,3.536 -1.7,5.508 -4.76,5.508 -2.14,0 -4.45,-1.156 -4.45,-2.21 0,-0.306 0.07,-0.374 0.71,-0.748 0.95,-0.578 1.33,-1.156 1.33,-2.006 0,-1.224 -0.92,-2.142 -2.14,-2.142 -1.47,0 -2.42,1.19 -2.42,2.992 0,3.298 3.03,5.576 7.38,5.576 4.93,0 8.13,-2.72 8.13,-6.902 0,-3.196 -1.64,-5.134 -5.17,-6.12"
     class="Fingering" />
  <path
     id="path16164"
     d="m 1095.98,16.592 h -1.5 l -0.34,1.734 c -0.44,2.21 -0.71,2.414 -2.82,2.414 h -7.62 c 2.35,-2.448 3.13,-3.162 5.31,-4.862 3.09,-2.38 4.42,-3.57 5.2,-4.59 1.09,-1.496 1.63,-2.992 1.63,-4.658 0,-3.876 -3.19,-6.63 -7.65,-6.63 -4.32,0 -7.61,2.754 -7.61,6.392 0,2.142 1.08,3.604 2.68,3.604 1.26,0 2.11,-0.85 2.11,-2.074 0,-0.85 -0.48,-1.632 -1.19,-1.938 -1.26,-0.51 -1.33,-0.578 -1.33,-1.02 0,-0.51 0.34,-1.292 0.82,-1.87 0.85,-1.054 2.24,-1.632 3.84,-1.632 2.82,0 4.49,1.734 4.49,4.59 0,2.516 -1.19,4.794 -4.01,7.786 -2.52,2.652 -4.08,4.318 -4.66,4.964 -1.22,1.428 -1.84,2.21 -3.33,4.182 v 0.952 h 15.33 l 0.65,-7.344"
     class="Fingering" />
  <path
     id="path16166"
     d="m 1370.27,94.76 c -1.16,1.394 -4.29,2.448 -7.41,2.516 v 1.462 h 2.99 c 1.97,0.034 2.17,0.238 2.11,2.142 v 13.634 c 0,1.734 0,1.802 -0.21,2.108 -0.27,0.34 -0.92,0.476 -2.82,0.476 h -2.21 v 1.598 h 13.46 v -1.598 h -1.87 c -1.9,0 -2.55,-0.136 -2.82,-0.476 -0.24,-0.306 -0.24,-0.34 -0.24,-2.108 v -14.042 c 0,-1.904 0.07,-3.502 0.24,-5.712 h -1.22"
     class="Fingering" />
  <path
     id="path16168"
     d="m 1491.15,85.035 c -1.16,1.394 -4.29,2.448 -7.42,2.516 v 1.462 h 3 c 1.97,0.034 2.17,0.238 2.1,2.142 v 13.634 c 0,1.734 0,1.802 -0.2,2.108 -0.27,0.34 -0.92,0.476 -2.82,0.476 h -2.21 v 1.598 h 13.46 v -1.598 h -1.87 c -1.9,0 -2.55,-0.136 -2.82,-0.476 -0.24,-0.306 -0.24,-0.34 -0.24,-2.108 V 90.747 c 0,-1.904 0.07,-3.502 0.24,-5.712 h -1.22 m 18.44,15.266 3.88,-4.522 c 0.85,-0.986 1.63,-1.428 2.55,-1.428 h 0.31 v -1.224 h -7.04 v 1.224 h 0.64 c 1.02,0 1.53,0.238 1.53,0.748 0,0.34 -0.23,0.816 -0.68,1.36 l -2.14,2.584 -2.62,-3.332 c -0.2,-0.272 -0.34,-0.544 -0.34,-0.748 0,-0.442 0.45,-0.612 1.5,-0.612 h 0.48 v -1.224 h -8.06 v 1.224 c 1.26,0.102 1.73,0.408 2.82,1.836 l 4.15,5.202 -3.91,4.556 c -1.16,1.292 -2.14,1.836 -3.06,1.802 h -0.21 v 1.224 h 7.18 v -1.224 h -0.51 c -0.78,0 -0.95,-0.034 -1.19,-0.136 -0.27,-0.17 -0.48,-0.476 -0.48,-0.782 0,-0.238 0.1,-0.544 0.27,-0.748 l 2.86,-3.4 2.58,3.434 c 0.24,0.34 0.45,0.782 0.45,1.02 0,0.442 -0.51,0.612 -1.81,0.612 h -0.23 v 1.224 h 8.56 v -1.224 h -0.23 c -1.19,0 -1.98,-0.442 -2.96,-1.666 l -4.29,-5.78"
     class="Fingering" />
  <path
     id="path16170"
     d="m 1553.33,99.528 h -1.49 l -0.34,1.734 c -0.45,2.21 -0.72,2.414 -2.83,2.414 h -7.61 c 2.34,-2.448 3.13,-3.162 5.3,-4.862 3.1,-2.38 4.42,-3.57 5.2,-4.59 1.09,-1.496 1.64,-2.992 1.64,-4.658 0,-3.876 -3.2,-6.63 -7.65,-6.63 -4.32,0 -7.62,2.754 -7.62,6.392 0,2.142 1.09,3.604 2.69,3.604 1.25,0 2.1,-0.85 2.1,-2.074 0,-0.85 -0.47,-1.632 -1.19,-1.938 -1.25,-0.51 -1.32,-0.578 -1.32,-1.02 0,-0.51 0.34,-1.292 0.81,-1.87 0.85,-1.054 2.25,-1.632 3.85,-1.632 2.82,0 4.48,1.734 4.48,4.59 0,2.516 -1.19,4.794 -4.01,7.786 -2.51,2.652 -4.08,4.318 -4.66,4.964 -1.22,1.428 -1.83,2.21 -3.33,4.182 v 0.952 h 15.34 l 0.64,-7.344"
     class="Fingering" />
  <path
     id="path16172"
     d="m 1609.5,78.83 -11.56,16.082 v 1.904 h 9.56 v 1.768 c 0,1.734 0,1.802 -0.21,2.108 -0.27,0.374 -0.92,0.476 -2.85,0.476 h -0.38 v 1.598 h 9.93 v -1.598 h -0.14 c -1.93,0 -2.58,-0.102 -2.85,-0.476 -0.21,-0.306 -0.21,-0.34 -0.21,-2.108 v -1.768 h 4.12 v -1.904 h -4.12 V 85.63 c 0,-4.25 0,-4.352 0.17,-6.8 h -1.46 m -2,16.082 h -7.48 l 7.48,-10.302 v 10.302"
     class="Fingering" />
  <path
     id="path16174"
     d="m 1751.66,73.52 -11.56,16.082 v 1.904 h 9.55 v 1.768 c 0,1.734 0,1.802 -0.2,2.108 -0.27,0.374 -0.92,0.476 -2.86,0.476 h -0.37 v 1.598 h 9.93 v -1.598 h -0.14 c -1.94,0 -2.58,-0.102 -2.85,-0.476 -0.21,-0.306 -0.21,-0.34 -0.21,-2.108 v -1.768 h 4.12 v -1.904 h -4.12 V 80.32 c 0,-4.25 0,-4.352 0.17,-6.8 h -1.46 m -2.01,16.082 h -7.48 l 7.48,-10.302 v 10.302"
     class="Fingering" />
  <path
     id="path16176"
     d="m 1856.8,65.381 c -1.16,1.394 -4.28,2.448 -7.41,2.516 v 1.462 h 2.99 c 1.97,0.034 2.18,0.238 2.11,2.142 v 13.634 c 0,1.734 0,1.802 -0.21,2.108 -0.27,0.34 -0.91,0.476 -2.82,0.476 h -2.21 v 1.598 h 13.47 v -1.598 h -1.87 c -1.91,0 -2.55,-0.136 -2.83,-0.476 -0.23,-0.306 -0.23,-0.34 -0.23,-2.108 V 71.093 c 0,-1.904 0.06,-3.502 0.23,-5.712 h -1.22"
     class="Fingering" />
  <path
     id="path16178"
     d="m 2052.36,95.928 -11.56,16.082 v 1.904 h 9.55 v 1.768 c 0,1.734 0,1.802 -0.2,2.108 -0.27,0.374 -0.92,0.476 -2.86,0.476 h -0.37 v 1.598 h 9.93 v -1.598 h -0.14 c -1.94,0 -2.58,-0.102 -2.86,-0.476 -0.2,-0.306 -0.2,-0.34 -0.2,-2.108 v -1.768 h 4.11 v -1.904 h -4.11 v -9.282 c 0,-4.25 0,-4.352 0.17,-6.8 h -1.46 m -2.01,16.082 h -7.48 l 7.48,-10.302 v 10.302"
     class="Fingering" />
  <path
     id="path16180"
     d="m 2157.5,95.928 c -1.16,1.394 -4.29,2.448 -7.41,2.516 v 1.462 h 2.99 c 1.97,0.034 2.17,0.238 2.11,2.142 v 13.634 c 0,1.734 0,1.802 -0.21,2.108 -0.27,0.34 -0.92,0.476 -2.82,0.476 h -2.21 v 1.598 h 13.46 v -1.598 h -1.87 c -1.9,0 -2.55,-0.136 -2.82,-0.476 -0.24,-0.306 -0.24,-0.34 -0.24,-2.108 V 101.64 c 0,-1.904 0.07,-3.502 0.24,-5.712 h -1.22"
     class="Fingering" />
  <path
     id="path16182"
     d="m 2281.61,99.802 c 0,9.69 -7.85,17.545 -17.54,17.545 -9.69,0 -17.55,-7.855 -17.55,-17.545 0,-9.689 7.86,-17.544 17.55,-17.544 9.69,0 17.54,7.855 17.54,17.544"
     fill-rule="evenodd"
     stroke-miterlimit="2"
     stroke-linejoin="miter"
     stroke-linecap="square"
     stroke-width="2.12"
     stroke="#000000"
     fill="none"
     class="Fingering" />
  <path
     id="path16184"
     d="m 2266.64,98.993 c 3.1,-1.122 4.52,-2.856 4.52,-5.576 0,-3.57 -2.72,-5.848 -6.93,-5.848 -3.98,0 -7.01,2.346 -7.01,5.44 0,1.394 0.92,2.38 2.25,2.38 1.19,0 2,-0.816 2,-2.04 0,-0.748 -0.27,-1.19 -1.05,-1.734 -0.34,-0.238 -0.44,-0.374 -0.44,-0.612 0,-0.952 1.97,-1.972 3.91,-1.972 2.45,0 3.74,1.53 3.74,4.42 0,3.162 -1.29,4.828 -3.71,4.828 -0.3,0 -0.88,-0.034 -1.39,-0.068 -0.27,-0.034 -0.55,-0.034 -0.75,-0.034 -0.71,0 -1.09,0.306 -1.09,0.918 0,0.578 0.34,0.85 1.09,0.85 0.2,0 0.48,0 0.78,-0.034 0.68,-0.034 1.23,-0.034 1.6,-0.034 2.52,0 3.88,1.802 3.88,5.168 0,3.536 -1.7,5.508 -4.76,5.508 -2.15,0 -4.46,-1.156 -4.46,-2.21 0,-0.306 0.07,-0.374 0.72,-0.748 0.95,-0.578 1.32,-1.156 1.32,-2.006 0,-1.224 -0.92,-2.142 -2.14,-2.142 -1.46,0 -2.41,1.19 -2.41,2.992 0,3.298 3.02,5.576 7.37,5.576 4.93,0 8.13,-2.72 8.13,-6.902 0,-3.196 -1.63,-5.134 -5.17,-6.12"
     class="Fingering" />
  <path
     id="path16186"
     d="m 2325,99.159 c 0,9.552 -7.74,17.295 -17.3,17.295 -9.55,0 -17.29,-7.743 -17.29,-17.295 0,-9.551 7.74,-17.294 17.29,-17.294 9.56,0 17.3,7.743 17.3,17.294"
     fill-rule="evenodd"
     stroke-miterlimit="2"
     stroke-linejoin="miter"
     stroke-linecap="square"
     stroke-width="2.12"
     stroke="#000000"
     fill="none"
     class="Fingering" />
  <path
     id="path16188"
     d="m 2315.69,103.768 h -1.5 l -0.34,1.734 c -0.44,2.21 -0.71,2.414 -2.82,2.414 h -7.62 c 2.35,-2.448 3.13,-3.162 5.31,-4.862 3.09,-2.38 4.42,-3.57 5.2,-4.59 1.09,-1.496 1.63,-2.992 1.63,-4.658 0,-3.876 -3.19,-6.63 -7.65,-6.63 -4.32,0 -7.61,2.754 -7.61,6.392 0,2.142 1.08,3.604 2.68,3.604 1.26,0 2.11,-0.85 2.11,-2.074 0,-0.85 -0.48,-1.632 -1.19,-1.938 -1.26,-0.51 -1.33,-0.578 -1.33,-1.02 0,-0.51 0.34,-1.292 0.82,-1.87 0.85,-1.054 2.24,-1.632 3.84,-1.632 2.82,0 4.49,1.734 4.49,4.59 0,2.516 -1.19,4.794 -4.01,7.786 -2.52,2.652 -4.08,4.318 -4.66,4.964 -1.22,1.428 -1.84,2.21 -3.33,4.182 v 0.952 h 15.33 l 0.65,-7.344"
     class="Fingering" />
  <path
     id="path16208"
     d="m 1355.65,290.608 h 14.19 v -0.927 h -1.2 c -0.29,0 -0.59,-0.037 -0.9,-0.11 -0.31,-0.074 -0.61,-0.163 -0.89,-0.269 -0.29,-0.106 -0.54,-0.228 -0.75,-0.366 -0.21,-0.138 -0.36,-0.273 -0.44,-0.403 -0.18,-0.293 -0.32,-0.732 -0.41,-1.318 -0.1,-0.586 -0.15,-1.416 -0.15,-2.491 v -21.386 c 0,-0.993 0.06,-1.799 0.17,-2.417 0.12,-0.619 0.26,-1.066 0.44,-1.343 0.65,-0.798 1.63,-1.196 2.93,-1.196 h 1.2 v -0.879 h -14.19 v 0.879 h 1.2 c 0.57,0 1.13,0.11 1.68,0.329 0.56,0.22 0.99,0.525 1.3,0.916 0.13,0.146 0.23,0.317 0.3,0.513 0.08,0.195 0.13,0.435 0.16,0.72 0.03,0.285 0.05,0.626 0.06,1.025 0.01,0.399 0.01,0.883 0.01,1.453 v 21.386 c 0,2.051 -0.19,3.305 -0.58,3.76 -0.33,0.423 -0.73,0.729 -1.2,0.916 -0.47,0.187 -1.05,0.281 -1.73,0.281 h -1.2 v 0.927 m 16.64,0 h 14.19 v -0.927 h -1.2 c -0.29,0 -0.59,-0.037 -0.9,-0.11 -0.31,-0.074 -0.61,-0.163 -0.89,-0.269 -0.29,-0.106 -0.54,-0.228 -0.75,-0.366 -0.21,-0.138 -0.36,-0.273 -0.44,-0.403 -0.18,-0.293 -0.31,-0.732 -0.41,-1.318 -0.1,-0.586 -0.15,-1.416 -0.15,-2.491 v -21.386 c 0,-0.993 0.06,-1.799 0.17,-2.417 0.12,-0.619 0.26,-1.066 0.44,-1.343 0.65,-0.798 1.63,-1.196 2.93,-1.196 h 1.2 v -0.879 h -14.19 v 0.879 h 1.2 c 0.57,0 1.13,0.11 1.68,0.329 0.56,0.22 0.99,0.525 1.3,0.916 0.13,0.146 0.23,0.317 0.3,0.513 0.08,0.195 0.13,0.435 0.16,0.72 0.03,0.285 0.05,0.626 0.06,1.025 0.01,0.399 0.01,0.883 0.01,1.453 v 21.386 c 0,2.051 -0.19,3.305 -0.58,3.76 -0.33,0.423 -0.73,0.729 -1.2,0.916 -0.47,0.187 -1.05,0.281 -1.73,0.281 h -1.2 v 0.927"
     class="Harmony" />
  <path
     id="path16210"
     d="m 1431.66,278.133 v 2.417 h -38.09 v -2.417 h 38.09"
     class="Harmony" />
</svg>
