<?xml version="1.0" encoding="UTF-8" standalone="no"?>
<svg
   xmlns:dc="http://purl.org/dc/elements/1.1/"
   xmlns:cc="http://creativecommons.org/ns#"
   xmlns:rdf="http://www.w3.org/1999/02/22-rdf-syntax-ns#"
   xmlns:svg="http://www.w3.org/2000/svg"
   xmlns="http://www.w3.org/2000/svg"
   xmlns:sodipodi="http://sodipodi.sourceforge.net/DTD/sodipodi-0.dtd"
   xmlns:inkscape="http://www.inkscape.org/namespaces/inkscape"
   inkscape:version="1.0 (4035a4f, 2020-05-01)"
   sodipodi:docname="snippet05.svg"
   id="svg1262"
   version="1.2"
   viewBox="0 0 2340 325.68134"
   height="325.68134"
   width="2340">
  <metadata
     id="metadata1268">
    <rdf:RDF>
      <cc:Work
         rdf:about="">
        <dc:format>image/svg+xml</dc:format>
        <dc:type
           rdf:resource="http://purl.org/dc/dcmitype/StillImage" />
        <dc:title>Batches2Partita3</dc:title>
      </cc:Work>
    </rdf:RDF>
  </metadata>
  <defs
     id="defs1266" />
  <sodipodi:namedview
     inkscape:current-layer="svg1262"
     inkscape:window-maximized="0"
     inkscape:window-y="23"
     inkscape:window-x="0"
     inkscape:cy="128.80686"
     inkscape:cx="1104.1104"
     inkscape:zoom="0.2129994"
     showgrid="false"
     id="namedview1264"
     inkscape:window-height="480"
     inkscape:window-width="712"
     inkscape:pageshadow="2"
     inkscape:pageopacity="0"
     guidetolerance="10"
     gridtolerance="10"
     objecttolerance="10"
     borderopacity="1"
     bordercolor="#666666"
     pagecolor="#ffffff" />
  <title
     id="title10">Batches2Partita3</title>
  <desc
     id="desc12">Generated by MuseScore 3.6.2</desc>
  <polyline
     transform="translate(-360,-411.99472)"
     id="polyline14"
     points="360,579.196 2700,579.196"
     stroke-linejoin="bevel"
     stroke-width="2.34"
     stroke="#000000"
     fill="none"
     class="StaffLines" />
  <polyline
     transform="translate(-360,-411.99472)"
     id="polyline16"
     points="360,600.436 2700,600.436"
     stroke-linejoin="bevel"
     stroke-width="2.34"
     stroke="#000000"
     fill="none"
     class="StaffLines" />
  <polyline
     transform="translate(-360,-411.99472)"
     id="polyline18"
     points="360,621.676 2700,621.676"
     stroke-linejoin="bevel"
     stroke-width="2.34"
     stroke="#000000"
     fill="none"
     class="StaffLines" />
  <polyline
     transform="translate(-360,-411.99472)"
     id="polyline20"
     points="360,642.916 2700,642.916"
     stroke-linejoin="bevel"
     stroke-width="2.34"
     stroke="#000000"
     fill="none"
     class="StaffLines" />
  <polyline
     transform="translate(-360,-411.99472)"
     id="polyline22"
     points="360,664.156 2700,664.156"
     stroke-linejoin="bevel"
     stroke-width="2.34"
     stroke="#000000"
     fill="none"
     class="StaffLines" />
  <path
     id="path54"
     d="m 1667.97,169.32528 c 72.59,-48.028 280.77,-35.284 346.97,21.24 -66.56,-50.588 -274.74,-63.332 -346.97,-21.24"
     fill-rule="evenodd"
     stroke-linejoin="round"
     stroke-linecap="round"
     stroke-width="1.49"
     stroke="#000000"
     class="SlurSegment" />
  <path
     id="path56"
     d="m 184.174,324.37728 c 77.87,3.962 239.815,-97.99 269.908,-169.92 -26.924,76.963 -188.869,178.915 -269.908,169.92"
     fill-rule="evenodd"
     stroke-linejoin="round"
     stroke-linecap="round"
     stroke-width="1.49"
     stroke="#000000"
     class="SlurSegment" />
  <path
     id="path58"
     d="m 1356.89,61.38428 c 45.22,-42.932 177.7,-39.746 220.8,5.31 -43.24,-39.111 -175.72,-42.297 -220.8,-5.31"
     fill-rule="evenodd"
     stroke-linejoin="round"
     stroke-linecap="round"
     stroke-width="1.49"
     stroke="#000000"
     class="SlurSegment" />
  <polyline
     transform="translate(-360,-411.99472)"
     id="polyline112"
     points="1265.62,578.028 1265.62,665.325"
     stroke-linejoin="bevel"
     stroke-width="3.82"
     stroke="#000000"
     class="BarLine" />
  <polyline
     transform="translate(-360,-411.99472)"
     id="polyline114"
     points="1986.76,578.028 1986.76,665.325"
     stroke-linejoin="bevel"
     stroke-width="3.82"
     stroke="#000000"
     class="BarLine" />
  <polyline
     transform="translate(-360,-411.99472)"
     id="polyline116"
     points="2698.09,578.028 2698.09,665.325"
     stroke-linejoin="bevel"
     stroke-width="3.82"
     stroke="#000000"
     class="BarLine" />
  <path
     style="stroke-width:0.8496"
     id="path146"
     d="m 1162.2957,190.05552 c 0.5097,-0.085 0.9345,-0.67968 0.9345,-1.18944 v -5.01264 c 0,-0.67968 -0.5097,-1.18944 -1.1894,-1.18944 h -0.1699 l -2.8037,0.59472 v -12.65904 h -2.3789 v 13.1688 l -7.5614,1.52928 V 173.3184 h -2.3789 v 12.48912 l -3.3134,0.67968 c -0.5098,0.085 -0.9346,0.67968 -0.9346,1.18944 v 0.16992 4.92768 -0.16992 c 0,0.67968 0.5098,1.18944 1.1894,1.18944 h 0.2549 l 2.8037,-0.59472 v 14.0184 l -3.3134,0.67968 c -0.5098,0.085 -0.9346,0.67968 -0.9346,1.18944 v 4.92768 c 0,0.67968 0.5098,1.18944 1.1894,1.18944 h 0.2549 l 2.8037,-0.59472 V 227.268 h 2.3789 v -13.1688 l 7.5614,-1.52928 v 11.97936 h 2.3789 v -12.48912 l 3.2285,-0.59472 c 0.5097,-0.085 0.9345,-0.67968 0.9345,-1.18944 v -5.01264 c 0,-0.67968 -0.5097,-1.18944 -1.1894,-1.18944 h -0.1699 l -2.8037,0.59472 v -14.0184 l 3.2285,-0.59472 m -13.1688,16.73712 v -14.10336 l 7.5614,-1.52928 v 14.0184 l -7.5614,1.61424"
     class="Accidental" />
  <path
     style="stroke-width:0.8496"
     id="path148"
     d="m 1866.0257,190.05552 c 0.5097,-0.085 0.9345,-0.67968 0.9345,-1.18944 v -5.01264 c 0,-0.67968 -0.5097,-1.18944 -1.1894,-1.18944 h -0.1699 l -2.8037,0.59472 v -12.65904 h -2.3789 v 13.1688 l -7.5614,1.52928 V 173.3184 h -2.3789 v 12.48912 l -3.3134,0.67968 c -0.5098,0.085 -0.9346,0.67968 -0.9346,1.18944 v 0.16992 4.92768 -0.16992 c 0,0.67968 0.5098,1.18944 1.1894,1.18944 h 0.2549 l 2.8037,-0.59472 v 14.0184 l -3.3134,0.67968 c -0.5098,0.085 -0.9346,0.67968 -0.9346,1.18944 v 4.92768 c 0,0.67968 0.5098,1.18944 1.1894,1.18944 h 0.2549 l 2.8037,-0.59472 V 227.268 h 2.3789 v -13.1688 l 7.5614,-1.52928 v 11.97936 h 2.3789 v -12.48912 l 3.2285,-0.59472 c 0.5097,-0.085 0.9345,-0.67968 0.9345,-1.18944 v -5.01264 c 0,-0.67968 -0.5097,-1.18944 -1.1894,-1.18944 h -0.1699 l -2.8037,0.59472 v -14.0184 l 3.2285,-0.59472 m -13.1688,16.73712 v -14.10336 l 7.5614,-1.52928 v 14.0184 l -7.5614,1.61424"
     class="Accidental" />
  <path
     style="stroke-width:0.8496"
     id="path150"
     d="m 1995.4034,194.1336 c -0.17,-0.16992 -0.4248,-0.25488 -0.6797,-0.25488 -0.085,0 -0.2549,0.085 -0.3399,0.085 l -10.7049,2.9736 v -14.868 H 1981.3 v 42.0552 c 0,0.67968 0.5098,1.10448 1.1894,1.10448 h 0.3399 l 10.7049,-2.9736 v 14.868 h 2.294 v -42.0552 c 0,-0.33984 -0.17,-0.76464 -0.4248,-0.93456 m -1.8692,21.07008 -9.8553,2.71872 V 203.989 l 9.8553,-2.80368 v 14.0184"
     class="Accidental" />
  <path
     style="stroke-width:0.8496"
     id="path160"
     d="m 344.06668,190.05552 c 0.50976,-0.085 0.93456,-0.67968 0.93456,-1.18944 v -5.01264 c 0,-0.67968 -0.50976,-1.18944 -1.18944,-1.18944 h -0.16992 l -2.80368,0.59472 v -12.65904 h -2.37888 v 13.1688 l -7.56144,1.52928 V 173.3184 H 328.519 v 12.48912 l -3.31344,0.67968 c -0.50976,0.085 -0.93456,0.67968 -0.93456,1.18944 v 0.16992 4.92768 -0.16992 c 0,0.67968 0.50976,1.18944 1.18944,1.18944 h 0.25488 l 2.80368,-0.59472 v 14.0184 l -3.31344,0.67968 c -0.50976,0.085 -0.93456,0.67968 -0.93456,1.18944 v 4.92768 c 0,0.67968 0.50976,1.18944 1.18944,1.18944 h 0.25488 l 2.80368,-0.59472 V 227.268 h 2.37888 v -13.1688 l 7.56144,-1.52928 v 11.97936 h 2.37888 v -12.48912 l 3.22848,-0.59472 c 0.50976,-0.085 0.93456,-0.67968 0.93456,-1.18944 v -5.01264 c 0,-0.67968 -0.50976,-1.18944 -1.18944,-1.18944 h -0.16992 l -2.80368,0.59472 v -14.0184 l 3.22848,-0.59472 m -13.1688,16.73712 v -14.10336 l 7.56144,-1.52928 v 14.0184 l -7.56144,1.61424"
     class="Accidental" />
  <path
     style="stroke-width:0.8496"
     id="path162"
     d="m 753.51568,190.05552 c 0.50976,-0.085 0.93456,-0.67968 0.93456,-1.18944 v -5.01264 c 0,-0.67968 -0.50976,-1.18944 -1.18944,-1.18944 h -0.16992 l -2.80368,0.59472 v -12.65904 h -2.37888 v 13.1688 l -7.56144,1.52928 V 173.3184 H 737.968 v 12.48912 l -3.31344,0.67968 c -0.50976,0.085 -0.93456,0.67968 -0.93456,1.18944 v 0.16992 4.92768 -0.16992 c 0,0.67968 0.50976,1.18944 1.18944,1.18944 h 0.25488 l 2.80368,-0.59472 v 14.0184 l -3.31344,0.67968 c -0.50976,0.085 -0.93456,0.67968 -0.93456,1.18944 v 4.92768 c 0,0.67968 0.50976,1.18944 1.18944,1.18944 h 0.25488 l 2.80368,-0.59472 V 227.268 h 2.37888 v -13.1688 l 7.56144,-1.52928 v 11.97936 h 2.37888 v -12.48912 l 3.22848,-0.59472 c 0.50976,-0.085 0.93456,-0.67968 0.93456,-1.18944 v -5.01264 c 0,-0.67968 -0.50976,-1.18944 -1.18944,-1.18944 h -0.16992 l -2.80368,0.59472 v -14.0184 l 3.22848,-0.59472 m -13.1688,16.73712 v -14.10336 l 7.56144,-1.52928 v 14.0184 l -7.56144,1.61424"
     class="Accidental" />
  <polyline
     transform="translate(-360,-411.99472)"
     id="polyline212"
     points="522.937,706.636 565.411,706.636"
     stroke-linejoin="bevel"
     stroke-width="3.4"
     stroke="#000000"
     class="LedgerLine" />
  <polyline
     transform="translate(-360,-411.99472)"
     id="polyline214"
     points="522.937,685.396 565.411,685.396"
     stroke-linejoin="bevel"
     stroke-width="3.4"
     stroke="#000000"
     class="LedgerLine" />
  <polyline
     transform="translate(-360,-411.99472)"
     id="polyline216"
     points="792.846,557.956 835.319,557.956"
     stroke-linejoin="bevel"
     stroke-width="3.4"
     stroke="#000000"
     class="LedgerLine" />
  <polyline
     transform="translate(-360,-411.99472)"
     id="polyline218"
     points="882.815,557.956 925.288,557.956"
     stroke-linejoin="bevel"
     stroke-width="3.4"
     stroke="#000000"
     class="LedgerLine" />
  <polyline
     transform="translate(-360,-411.99472)"
     id="polyline266"
     points="1542.11,667.011 1542.11,719.911"
     stroke-linejoin="bevel"
     stroke-width="2.34"
     stroke="#000000"
     class="Stem" />
  <polyline
     transform="translate(-360,-411.99472)"
     id="polyline268"
     points="1704.02,677.631 1704.02,727.876"
     stroke-linejoin="bevel"
     stroke-width="2.34"
     stroke="#000000"
     class="Stem" />
  <polyline
     transform="translate(-360,-411.99472)"
     id="polyline270"
     points="2052.53,635.151 2052.53,696.016"
     stroke-linejoin="bevel"
     stroke-width="2.34"
     stroke="#000000"
     class="Stem" />
  <polyline
     transform="translate(-360,-411.99472)"
     id="polyline284"
     points="1120.93,645.771 1120.93,717.256"
     stroke-linejoin="bevel"
     stroke-width="2.34"
     stroke="#000000"
     class="Stem" />
  <polyline
     transform="translate(-360,-411.99472)"
     id="polyline286"
     points="1294.19,656.391 1294.19,711.946"
     stroke-linejoin="bevel"
     stroke-width="2.34"
     stroke="#000000"
     class="Stem" />
  <polyline
     transform="translate(-360,-411.99472)"
     id="polyline288"
     points="1529.71,613.911 1529.71,680.086"
     stroke-linejoin="bevel"
     stroke-width="2.34"
     stroke="#000000"
     class="Stem" />
  <polyline
     transform="translate(-360,-411.99472)"
     id="polyline290"
     points="1691.62,603.291 1691.62,672.121"
     stroke-linejoin="bevel"
     stroke-width="2.34"
     stroke="#000000"
     class="Stem" />
  <polyline
     transform="translate(-360,-411.99472)"
     id="polyline292"
     points="2015.33,603.291 2015.33,672.121"
     stroke-linejoin="bevel"
     stroke-width="2.34"
     stroke="#000000"
     class="Stem" />
  <polyline
     transform="translate(-360,-411.99472)"
     id="polyline294"
     points="2233.44,613.911 2233.44,680.086"
     stroke-linejoin="bevel"
     stroke-width="2.34"
     stroke="#000000"
     class="Stem" />
  <polyline
     transform="translate(-360,-411.99472)"
     id="polyline296"
     points="2362.3,624.531 2362.3,685.396"
     stroke-linejoin="bevel"
     stroke-width="2.34"
     stroke="#000000"
     class="Stem" />
  <polyline
     transform="translate(-360,-411.99472)"
     id="polyline298"
     points="2491.17,613.911 2491.17,680.086"
     stroke-linejoin="bevel"
     stroke-width="2.34"
     stroke="#000000"
     class="Stem" />
  <polyline
     transform="translate(-360,-411.99472)"
     id="polyline328"
     points="556.809,714.538 556.809,515.476"
     stroke-linejoin="bevel"
     stroke-width="2.34"
     stroke="#000000"
     class="Stem" />
  <polyline
     transform="translate(-360,-411.99472)"
     id="polyline330"
     points="646.778,661.438 646.778,503.086"
     stroke-linejoin="bevel"
     stroke-width="2.34"
     stroke="#000000"
     class="Stem" />
  <polyline
     transform="translate(-360,-411.99472)"
     id="polyline332"
     points="736.747,608.338 736.747,490.696"
     stroke-linejoin="bevel"
     stroke-width="2.34"
     stroke="#000000"
     class="Stem" />
  <polyline
     transform="translate(-360,-411.99472)"
     id="polyline334"
     points="826.717,544.618 826.717,478.306"
     stroke-linejoin="bevel"
     stroke-width="2.34"
     stroke="#000000"
     class="Stem" />
  <polyline
     transform="translate(-360,-411.99472)"
     id="polyline336"
     points="891.417,560.811 891.417,632.296"
     stroke-linejoin="bevel"
     stroke-width="2.34"
     stroke="#000000"
     class="Stem" />
  <polyline
     transform="translate(-360,-411.99472)"
     id="polyline338"
     points="1146.2,608.338 1146.2,547.336"
     stroke-linejoin="bevel"
     stroke-width="2.34"
     stroke="#000000"
     class="Stem" />
  <polyline
     transform="translate(-360,-411.99472)"
     id="polyline340"
     points="1319.46,597.718 1319.46,536.716"
     stroke-linejoin="bevel"
     stroke-width="2.34"
     stroke="#000000"
     class="Stem" />
  <polyline
     transform="translate(-360,-411.99472)"
     id="polyline342"
     points="1437.22,629.578 1437.22,557.956"
     stroke-linejoin="bevel"
     stroke-width="2.34"
     stroke="#000000"
     class="Stem" />
  <polyline
     transform="translate(-360,-411.99472)"
     id="polyline344"
     points="1554.98,565.858 1554.98,515.476"
     stroke-linejoin="bevel"
     stroke-width="2.34"
     stroke="#000000"
     class="Stem" />
  <polyline
     transform="translate(-360,-411.99472)"
     id="polyline346"
     points="1716.89,565.858 1716.89,494.236"
     stroke-linejoin="bevel"
     stroke-width="2.34"
     stroke="#000000"
     class="Stem" />
  <polyline
     transform="translate(-360,-411.99472)"
     id="polyline348"
     points="1790.49,576.478 1790.49,496.006"
     stroke-linejoin="bevel"
     stroke-width="2.34"
     stroke="#000000"
     class="Stem" />
  <polyline
     transform="translate(-360,-411.99472)"
     id="polyline350"
     points="1864.09,587.098 1864.09,497.776"
     stroke-linejoin="bevel"
     stroke-width="2.34"
     stroke="#000000"
     class="Stem" />
  <polyline
     transform="translate(-360,-411.99472)"
     id="polyline352"
     points="1937.69,576.478 1937.69,499.546"
     stroke-linejoin="bevel"
     stroke-width="2.34"
     stroke="#000000"
     class="Stem" />
  <polyline
     transform="translate(-360,-411.99472)"
     id="polyline354"
     points="2077.33,587.098 2077.33,531.406"
     stroke-linejoin="bevel"
     stroke-width="2.34"
     stroke="#000000"
     class="Stem" />
  <path
     style="stroke-width:0.8496"
     id="path552"
     d="m 1207.7024,245.27952 c -1.5293,-2.80368 -4.7578,-4.33296 -8.6659,-4.33296 -2.8887,0 -6.0322,0.8496 -9.0907,2.46384 -5.6074,2.9736 -9.0058,7.98624 -9.0058,12.3192 0,1.18944 0.2549,2.37888 0.8496,3.48336 1.5293,2.80368 4.7578,4.248 8.6659,4.248 2.8887,0 6.0322,-0.76464 9.0907,-2.37888 5.6074,-2.9736 9.0058,-7.98624 9.0058,-12.3192 0,-1.18944 -0.2549,-2.37888 -0.8496,-3.48336"
     class="Note" />
  <path
     style="stroke-width:0.8496"
     id="path554"
     d="m 1369.6224,255.89952 c -1.5293,-2.80368 -4.7578,-4.33296 -8.6659,-4.33296 -2.8887,0 -6.0322,0.8496 -9.0907,2.46384 -5.6074,2.9736 -9.0058,7.98624 -9.0058,12.3192 0,1.18944 0.2549,2.37888 0.8496,3.48336 1.5293,2.80368 4.7578,4.248 8.6659,4.248 2.8887,0 6.0322,-0.76464 9.0907,-2.37888 5.6074,-2.9736 9.0058,-7.98624 9.0058,-12.3192 0,-1.18944 -0.2549,-2.37888 -0.8496,-3.48336"
     class="Note" />
  <path
     style="stroke-width:0.8496"
     id="path556"
     d="m 1718.1224,213.41952 c -1.5293,-2.80368 -4.7578,-4.33296 -8.6659,-4.33296 -2.8887,0 -6.0322,0.8496 -9.0907,2.46384 -5.6074,2.9736 -9.0058,7.98624 -9.0058,12.3192 0,1.18944 0.2549,2.37888 0.8496,3.48336 1.5293,2.80368 4.7578,4.248 8.6659,4.248 2.8887,0 6.0322,-0.76464 9.0907,-2.37888 5.6074,-2.9736 9.0058,-7.98624 9.0058,-12.3192 0,-1.18944 -0.2549,-2.37888 -0.8496,-3.48336 m -3.6533,5.77728 c -1.4443,1.44432 -4.3329,3.22848 -7.3915,4.92768 -3.0586,1.6992 -6.1171,2.9736 -8.1562,3.3984 -0.4248,0.085 -0.8496,0.16992 -1.2744,0.16992 -1.3593,0 -2.3788,-0.50976 -2.9736,-1.61424 -0.2548,-0.4248 -0.4248,-0.93456 -0.4248,-1.44432 0,-0.93456 0.5948,-2.03904 1.5293,-2.9736 1.4443,-1.44432 4.248,-3.22848 7.3066,-4.92768 3.0585,-1.6992 6.1171,-2.9736 8.1561,-3.3984 0.4248,-0.085 0.8496,-0.16992 1.2744,-0.16992 1.3594,0 2.4639,0.50976 3.0586,1.61424 0.2549,0.4248 0.3398,0.93456 0.3398,1.44432 0,0.93456 -0.5097,1.95408 -1.4443,2.9736"
     class="Note" />
  <path
     style="stroke-width:0.8496"
     id="path570"
     d="m 786.5224,224.03952 c -1.52928,-2.80368 -4.75776,-4.33296 -8.66592,-4.33296 -2.88864,0 -6.03216,0.8496 -9.09072,2.46384 -5.60736,2.9736 -9.00576,7.98624 -9.00576,12.3192 0,1.18944 0.25488,2.37888 0.8496,3.48336 1.52928,2.80368 4.75776,4.248 8.66592,4.248 2.88864,0 6.03216,-0.76464 9.09072,-2.37888 5.60736,-2.9736 9.00576,-7.98624 9.00576,-12.3192 0,-1.18944 -0.25488,-2.37888 -0.8496,-3.48336"
     class="Note" />
  <path
     style="stroke-width:0.8496"
     id="path572"
     d="m 959.7824,234.65952 c -1.52928,-2.80368 -4.75776,-4.33296 -8.66592,-4.33296 -2.88864,0 -6.03216,0.8496 -9.09072,2.46384 -5.60736,2.9736 -9.00576,7.98624 -9.00576,12.3192 0,1.18944 0.25488,2.37888 0.8496,3.48336 1.52928,2.80368 4.75776,4.248 8.66592,4.248 2.88864,0 6.03216,-0.76464 9.09072,-2.37888 5.60736,-2.9736 9.00576,-7.98624 9.00576,-12.3192 0,-1.18944 -0.25488,-2.37888 -0.8496,-3.48336"
     class="Note" />
  <path
     style="stroke-width:0.8496"
     id="path574"
     d="m 1195.3024,192.17952 c -1.5293,-2.80368 -4.7578,-4.33296 -8.6659,-4.33296 -2.8887,0 -6.0322,0.8496 -9.0907,2.46384 -5.6074,2.9736 -9.0058,7.98624 -9.0058,12.3192 0,1.18944 0.2549,2.37888 0.8496,3.48336 1.5293,2.80368 4.7578,4.248 8.6659,4.248 2.8887,0 6.0322,-0.76464 9.0907,-2.37888 5.6074,-2.9736 9.0058,-7.98624 9.0058,-12.3192 0,-1.18944 -0.2549,-2.37888 -0.8496,-3.48336"
     class="Note" />
  <path
     style="stroke-width:0.8496"
     id="path576"
     d="m 1357.2224,181.55952 c -1.5293,-2.80368 -4.7578,-4.33296 -8.6659,-4.33296 -2.8887,0 -6.0322,0.8496 -9.0907,2.46384 -5.6074,2.9736 -9.0058,7.98624 -9.0058,12.3192 0,1.18944 0.2549,2.37888 0.8496,3.48336 1.5293,2.80368 4.7578,4.248 8.6659,4.248 2.8887,0 6.0322,-0.76464 9.0907,-2.37888 5.6074,-2.9736 9.0058,-7.98624 9.0058,-12.3192 0,-1.18944 -0.2549,-2.37888 -0.8496,-3.48336"
     class="Note" />
  <path
     style="stroke-width:0.8496"
     id="path578"
     d="m 1680.9224,181.55952 c -1.5293,-2.80368 -4.7578,-4.33296 -8.6659,-4.33296 -2.8887,0 -6.0322,0.8496 -9.0907,2.46384 -5.6074,2.9736 -9.0058,7.98624 -9.0058,12.3192 0,1.18944 0.2549,2.37888 0.8496,3.48336 1.5293,2.80368 4.7578,4.248 8.6659,4.248 2.8887,0 6.0322,-0.76464 9.0907,-2.37888 5.6074,-2.9736 9.0058,-7.98624 9.0058,-12.3192 0,-1.18944 -0.2549,-2.37888 -0.8496,-3.48336"
     class="Note" />
  <path
     style="stroke-width:0.8496"
     id="path580"
     d="m 1899.0324,192.17952 c -1.5293,-2.80368 -4.7578,-4.33296 -8.6659,-4.33296 -2.8887,0 -6.0322,0.8496 -9.0907,2.46384 -5.6074,2.9736 -9.0058,7.98624 -9.0058,12.3192 0,1.18944 0.2549,2.37888 0.8496,3.48336 1.5293,2.80368 4.7578,4.248 8.6659,4.248 2.8887,0 6.0322,-0.76464 9.0907,-2.37888 5.6074,-2.9736 9.0058,-7.98624 9.0058,-12.3192 0,-1.18944 -0.2549,-2.37888 -0.8496,-3.48336"
     class="Note" />
  <path
     style="stroke-width:0.8496"
     id="path582"
     d="m 2027.9024,202.79952 c -1.5293,-2.80368 -4.7578,-4.33296 -8.6659,-4.33296 -2.8887,0 -6.0322,0.8496 -9.0907,2.46384 -5.6074,2.9736 -9.0058,7.98624 -9.0058,12.3192 0,1.18944 0.2549,2.37888 0.8496,3.48336 1.5293,2.80368 4.7578,4.248 8.6659,4.248 2.8887,0 6.0322,-0.76464 9.0907,-2.37888 5.6074,-2.9736 9.0058,-7.98624 9.0058,-12.3192 0,-1.18944 -0.2549,-2.37888 -0.8496,-3.48336"
     class="Note" />
  <path
     style="stroke-width:0.8496"
     id="path584"
     d="m 2156.7624,192.17952 c -1.5293,-2.80368 -4.7578,-4.33296 -8.6659,-4.33296 -2.8887,0 -6.0322,0.8496 -9.0907,2.46384 -5.6074,2.9736 -9.0058,7.98624 -9.0058,12.3192 0,1.18944 0.2549,2.37888 0.8496,3.48336 1.5293,2.80368 4.7578,4.248 8.6659,4.248 2.8887,0 6.0322,-0.76464 9.0907,-2.37888 5.6074,-2.9736 9.0058,-7.98624 9.0058,-12.3192 0,-1.18944 -0.2549,-2.37888 -0.8496,-3.48336"
     class="Note" />
  <path
     style="stroke-width:0.8496"
     id="path614"
     d="m 197.1334,298.37952 c -1.52928,-2.80368 -4.75776,-4.33296 -8.66592,-4.33296 -2.88864,0 -6.03216,0.8496 -9.09072,2.46384 -5.60736,2.9736 -9.00576,7.98624 -9.00576,12.3192 0,1.18944 0.25488,2.37888 0.8496,3.48336 1.52928,2.80368 4.75776,4.248 8.66592,4.248 2.88864,0 6.03216,-0.76464 9.09072,-2.37888 5.60736,-2.9736 9.00576,-7.98624 9.00576,-12.3192 0,-1.18944 -0.25488,-2.37888 -0.8496,-3.48336"
     class="Note" />
  <path
     style="stroke-width:0.8496"
     id="path616"
     d="m 287.1034,245.27952 c -1.52928,-2.80368 -4.75776,-4.33296 -8.66592,-4.33296 -2.88864,0 -6.03216,0.8496 -9.09072,2.46384 -5.60736,2.9736 -9.00576,7.98624 -9.00576,12.3192 0,1.18944 0.25488,2.37888 0.8496,3.48336 1.52928,2.80368 4.75776,4.248 8.66592,4.248 2.88864,0 6.03216,-0.76464 9.09072,-2.37888 5.60736,-2.9736 9.00576,-7.98624 9.00576,-12.3192 0,-1.18944 -0.25488,-2.37888 -0.8496,-3.48336"
     class="Note" />
  <path
     style="stroke-width:0.8496"
     id="path618"
     d="m 377.0724,192.17952 c -1.52928,-2.80368 -4.75776,-4.33296 -8.66592,-4.33296 -2.88864,0 -6.03216,0.8496 -9.09072,2.46384 -5.60736,2.9736 -9.00576,7.98624 -9.00576,12.3192 0,1.18944 0.25488,2.37888 0.8496,3.48336 1.52928,2.80368 4.75776,4.248 8.66592,4.248 2.88864,0 6.03216,-0.76464 9.09072,-2.37888 5.60736,-2.9736 9.00576,-7.98624 9.00576,-12.3192 0,-1.18944 -0.25488,-2.37888 -0.8496,-3.48336"
     class="Note" />
  <path
     style="stroke-width:0.8496"
     id="path620"
     d="m 467.0424,128.45952 c -1.52928,-2.80368 -4.75776,-4.33296 -8.66592,-4.33296 -2.88864,0 -6.03216,0.8496 -9.09072,2.46384 -5.60736,2.9736 -9.00576,7.98624 -9.00576,12.3192 0,1.18944 0.25488,2.37888 0.8496,3.48336 1.52928,2.80368 4.75776,4.248 8.66592,4.248 2.88864,0 6.03216,-0.76464 9.09072,-2.37888 5.60736,-2.9736 9.00576,-7.98624 9.00576,-12.3192 0,-1.18944 -0.25488,-2.37888 -0.8496,-3.48336"
     class="Note" />
  <path
     style="stroke-width:0.8496"
     id="path622"
     d="m 557.0114,139.07952 c -1.52928,-2.80368 -4.75776,-4.33296 -8.66592,-4.33296 -2.88864,0 -6.03216,0.8496 -9.09072,2.46384 -5.60736,2.9736 -9.00576,7.98624 -9.00576,12.3192 0,1.18944 0.25488,2.37888 0.8496,3.48336 1.52928,2.80368 4.75776,4.248 8.66592,4.248 2.88864,0 6.03216,-0.76464 9.09072,-2.37888 5.60736,-2.9736 9.00576,-7.98624 9.00576,-12.3192 0,-1.18944 -0.25488,-2.37888 -0.8496,-3.48336"
     class="Note" />
  <path
     style="stroke-width:0.8496"
     id="path624"
     d="m 786.5224,192.17952 c -1.52928,-2.80368 -4.75776,-4.33296 -8.66592,-4.33296 -2.88864,0 -6.03216,0.8496 -9.09072,2.46384 -5.60736,2.9736 -9.00576,7.98624 -9.00576,12.3192 0,1.18944 0.25488,2.37888 0.8496,3.48336 1.52928,2.80368 4.75776,4.248 8.66592,4.248 2.88864,0 6.03216,-0.76464 9.09072,-2.37888 5.60736,-2.9736 9.00576,-7.98624 9.00576,-12.3192 0,-1.18944 -0.25488,-2.37888 -0.8496,-3.48336"
     class="Note" />
  <path
     style="stroke-width:0.8496"
     id="path626"
     d="m 959.7824,181.55952 c -1.52928,-2.80368 -4.75776,-4.33296 -8.66592,-4.33296 -2.88864,0 -6.03216,0.8496 -9.09072,2.46384 -5.60736,2.9736 -9.00576,7.98624 -9.00576,12.3192 0,1.18944 0.25488,2.37888 0.8496,3.48336 1.52928,2.80368 4.75776,4.248 8.66592,4.248 2.88864,0 6.03216,-0.76464 9.09072,-2.37888 5.60736,-2.9736 9.00576,-7.98624 9.00576,-12.3192 0,-1.18944 -0.25488,-2.37888 -0.8496,-3.48336"
     class="Note" />
  <path
     style="stroke-width:0.8496"
     id="path628"
     d="m 1077.5424,213.41952 c -1.5293,-2.80368 -4.7578,-4.33296 -8.6659,-4.33296 -2.8887,0 -6.0322,0.8496 -9.0907,2.46384 -5.6074,2.9736 -9.0058,7.98624 -9.0058,12.3192 0,1.18944 0.2549,2.37888 0.8496,3.48336 1.5293,2.80368 4.7578,4.248 8.6659,4.248 2.8887,0 6.0322,-0.76464 9.0907,-2.37888 5.6074,-2.9736 9.0058,-7.98624 9.0058,-12.3192 0,-1.18944 -0.2549,-2.37888 -0.8496,-3.48336"
     class="Note" />
  <path
     style="stroke-width:0.8496"
     id="path630"
     d="m 1195.3024,149.69952 c -1.5293,-2.80368 -4.7578,-4.33296 -8.6659,-4.33296 -2.8887,0 -6.0322,0.8496 -9.0907,2.46384 -5.6074,2.9736 -9.0058,7.98624 -9.0058,12.3192 0,1.18944 0.2549,2.37888 0.8496,3.48336 1.5293,2.80368 4.7578,4.248 8.6659,4.248 2.8887,0 6.0322,-0.76464 9.0907,-2.37888 5.6074,-2.9736 9.0058,-7.98624 9.0058,-12.3192 0,-1.18944 -0.2549,-2.37888 -0.8496,-3.48336"
     class="Note" />
  <path
     style="stroke-width:0.8496"
     id="path632"
     d="m 1357.2224,149.69952 c -1.5293,-2.80368 -4.7578,-4.33296 -8.6659,-4.33296 -2.8887,0 -6.0322,0.8496 -9.0907,2.46384 -5.6074,2.9736 -9.0058,7.98624 -9.0058,12.3192 0,1.18944 0.2549,2.37888 0.8496,3.48336 1.5293,2.80368 4.7578,4.248 8.6659,4.248 2.8887,0 6.0322,-0.76464 9.0907,-2.37888 5.6074,-2.9736 9.0058,-7.98624 9.0058,-12.3192 0,-1.18944 -0.2549,-2.37888 -0.8496,-3.48336"
     class="Note" />
  <path
     style="stroke-width:0.8496"
     id="path634"
     d="m 1430.8124,160.31952 c -1.5293,-2.80368 -4.7578,-4.33296 -8.6659,-4.33296 -2.8887,0 -6.0322,0.8496 -9.0907,2.46384 -5.6074,2.9736 -9.0058,7.98624 -9.0058,12.3192 0,1.18944 0.2549,2.37888 0.8496,3.48336 1.5293,2.80368 4.7578,4.248 8.6659,4.248 2.8887,0 6.0322,-0.76464 9.0907,-2.37888 5.6074,-2.9736 9.0058,-7.98624 9.0058,-12.3192 0,-1.18944 -0.2549,-2.37888 -0.8496,-3.48336"
     class="Note" />
  <path
     style="stroke-width:0.8496"
     id="path636"
     d="m 1504.4124,170.93952 c -1.5293,-2.80368 -4.7578,-4.33296 -8.6659,-4.33296 -2.8887,0 -6.0322,0.8496 -9.0907,2.46384 -5.6074,2.9736 -9.0058,7.98624 -9.0058,12.3192 0,1.18944 0.2549,2.37888 0.8496,3.48336 1.5293,2.80368 4.7578,4.248 8.6659,4.248 2.8887,0 6.0322,-0.76464 9.0907,-2.37888 5.6074,-2.9736 9.0058,-7.98624 9.0058,-12.3192 0,-1.18944 -0.2549,-2.37888 -0.8496,-3.48336"
     class="Note" />
  <path
     style="stroke-width:0.8496"
     id="path638"
     d="m 1578.0124,160.31952 c -1.5293,-2.80368 -4.7578,-4.33296 -8.6659,-4.33296 -2.8887,0 -6.0322,0.8496 -9.0907,2.46384 -5.6074,2.9736 -9.0058,7.98624 -9.0058,12.3192 0,1.18944 0.2549,2.37888 0.8496,3.48336 1.5293,2.80368 4.7578,4.248 8.6659,4.248 2.8887,0 6.0322,-0.76464 9.0907,-2.37888 5.6074,-2.9736 9.0058,-7.98624 9.0058,-12.3192 0,-1.18944 -0.2549,-2.37888 -0.8496,-3.48336"
     class="Note" />
  <path
     style="stroke-width:0.8496"
     id="path640"
     d="m 1717.6524,170.93952 c -1.5293,-2.80368 -4.7578,-4.33296 -8.6659,-4.33296 -2.8887,0 -6.0322,0.8496 -9.0907,2.46384 -5.6074,2.9736 -9.0058,7.98624 -9.0058,12.3192 0,1.18944 0.2549,2.37888 0.8496,3.48336 1.5293,2.80368 4.7578,4.248 8.6659,4.248 2.8887,0 6.0322,-0.76464 9.0907,-2.37888 5.6074,-2.9736 9.0058,-7.98624 9.0058,-12.3192 0,-1.18944 -0.2549,-2.37888 -0.8496,-3.48336 m -3.6533,5.77728 c -1.4443,1.44432 -4.3329,3.22848 -7.3915,4.92768 -3.0586,1.6992 -6.1171,2.9736 -8.1562,3.3984 -0.4248,0.085 -0.8496,0.16992 -1.2744,0.16992 -1.3593,0 -2.3788,-0.50976 -2.9736,-1.61424 -0.2548,-0.4248 -0.4248,-0.93456 -0.4248,-1.44432 0,-0.93456 0.5948,-2.03904 1.5293,-2.9736 1.4443,-1.44432 4.248,-3.22848 7.3066,-4.92768 3.0585,-1.6992 6.1171,-2.9736 8.1561,-3.3984 0.4248,-0.085 0.8496,-0.16992 1.2744,-0.16992 1.3594,0 2.4639,0.50976 3.0586,1.61424 0.2549,0.4248 0.3398,0.93456 0.3398,1.44432 0,0.93456 -0.5097,1.95408 -1.4443,2.9736"
     class="Note" />
  <path
     style="stroke-width:0.8496"
     id="path836"
     d="m 70.81416,225.9342 c -1.045008,-4.6134 -3.287952,-7.85879 -3.95064,-8.74246 -2.710224,-3.62779 -6.11712,-6.04915 -10.101744,-7.19611 -2.642256,-0.75606 -5.191056,-0.8496 -7.247088,-0.69667 -0.883584,-5.1061 -1.733184,-10.10166 -2.50632,-14.73198 4.63032,-5.24212 7.705872,-10.1698 9.64296,-13.82308 2.948112,-5.59028 3.925152,-9.48145 3.967632,-9.65137 1.461312,-4.4265 1.767168,-10.96842 0.832608,-17.94355 -0.858096,-6.41448 -2.63376,-12.11538 -4.63032,-14.87658 -0.875088,-1.21493 -1.767168,-1.83514 -2.650752,-1.83514 -1.036512,0 -3.169008,1.05351 -5.624352,3.4069 -1.95408,1.86912 -4.732272,5.17406 -6.907248,10.28016 -2.5488,5.99826 -2.727216,14.06088 -2.429856,19.77019 0.322848,6.17659 1.265904,11.0109 1.2744,11.05338 0.01699,0.0764 0.237888,1.35078 0.620208,3.53425 -0.195408,0.19541 -0.399312,0.38232 -0.611712,0.58631 -0.883584,0.8496 -1.894608,1.81806 -3.067056,2.99051 -0.730656,0.73074 -1.537776,1.50379 -2.387376,2.3279 -7.17912,6.91583 -18.045504,17.38282 -18.045504,33.65266 0,3.99312 0.76464,7.74837 2.276911,11.15532 1.350898,3.05856 3.304978,5.84526 5.794289,8.28361 6.567408,6.41448 15.564672,9.14161 21.562848,9.00576 2.50632,-0.0595 4.740768,-0.26346 6.771312,-0.64578 1.554768,8.15616 2.523312,14.12885 2.557296,18.66571 0.03398,5.5309 -1.367856,8.90381 -4.681296,11.2572 -2.064528,1.46981 -4.451904,2.27693 -7.085664,2.40437 -2.200464,0.10195 -4.12056,-0.29736 -5.335488,-0.64561 h -0.0085 c 0,0 -0.246384,-0.068 -0.25488,-0.23789 -0.0085,-0.15301 0.288864,-0.19549 0.29736,-0.19549 h 0.01699 c 1.631232,-0.37374 4.664304,-1.41875 6.66936,-4.22243 1.52928,-2.14099 2.268432,-6.06623 0.705168,-9.41365 -0.943056,-2.03046 -3.075552,-4.53678 -7.850304,-4.9191 -2.115504,-0.16992 -4.044096,0.26329 -5.743296,1.28281 -1.537776,0.91757 -2.812176,2.31091 -3.704256,4.01011 -2.090016,3.99312 -1.6992,8.86133 0.960048,12.12388 2.514816,3.07555 6.439968,5.03804 11.053296,5.53081 0.72216,0.0765 1.44432,0.11045 2.16648,0.11045 3.763728,0 7.501968,-1.01952 10.53504,-2.89714 3.109536,-2.18347 4.910688,-5.56488 5.488416,-10.34804 0.475776,-3.94223 0.144432,-8.96328 -1.045008,-15.81964 -0.305856,-1.77566 -0.76464,-4.34995 -1.325376,-7.54436 4.8852,-1.63132 8.419536,-4.66439 11.622528,-9.63455 2.795184,-4.87663 3.593808,-10.0592 2.37888,-15.41167 m -29.064816,22.25095 c -3.942144,-1.03651 -7.705872,-3.16051 -10.900368,-6.13411 -1.112976,-1.04501 -2.701728,-2.88864 -3.95064,-5.76873 -1.163952,-2.68479 -1.724705,-5.5989 -1.682225,-8.64891 0.05949,-3.98466 1.172465,-8.07977 3.304961,-12.14927 2.480832,-4.74085 6.355008,-9.43914 11.503584,-13.96751 1.23192,-1.0874 2.395872,-2.17489 3.491856,-3.26246 0.645696,3.61938 1.350864,7.60392 2.098512,11.75005 -3.27096,1.07891 -7.30656,3.75515 -9.948816,8.55539 -3.007584,5.58189 -2.88864,10.2717 -2.268432,13.22829 0.798624,3.78927 2.948112,6.98373 5.887728,8.75944 0.790128,0.47569 4.298976,2.28534 5.86224,1.79257 0.314352,-0.10195 0.543744,-0.28886 0.662688,-0.56923 0.433296,-0.99403 -0.433296,-1.53769 -1.758672,-2.35339 -0.50976,-0.31428 -1.078992,-0.67113 -1.6992,-1.1214 -2.820672,-2.11554 -4.052592,-5.89626 -3.14352,-9.61749 0.492768,-2.03904 1.580256,-3.87423 3.14352,-5.31855 1.418832,-1.31688 3.152016,-2.25144 5.174064,-2.7951 1.733184,9.54942 3.48336,19.02246 4.876704,26.1252 0.110448,0.58614 0.229392,1.15537 0.33984,1.7246 -3.721248,0.79013 -7.417008,0.71375 -10.993824,-0.22939 m 9.617472,-28.18973 c 8.79336,-0.39931 12.421152,5.92177 13.177296,10.02532 0.399312,2.14947 0.390816,5.92173 -0.917568,9.49849 -0.994032,2.70173 -3.084048,6.1596 -7.442496,7.90986 -0.05947,-0.35683 -0.12744,-0.72216 -0.195408,-1.08757 -1.308384,-7.45092 -2.956608,-16.78806 -4.621824,-26.3461 M 45.147744,159.7248 c 1.512288,-4.87662 3.840192,-7.63782 5.530896,-9.10763 1.4868,-1.29139 2.88864,-1.89469 3.670272,-1.89469 0.118944,0 0.220896,0.017 0.305856,0.0425 0.390816,0.11894 0.841104,0.6033 1.240416,1.34245 1.962576,3.6447 1.333872,9.3456 0.195408,13.11774 -1.384848,4.58784 -3.86568,9.36259 -11.34216,17.52725 -0.144432,-0.94306 -0.280368,-1.83514 -0.407808,-2.66766 -1.062,-7.04327 -0.790128,-13.21986 0.80712,-18.35994"
     class="Clef" />
  <path
     style="stroke-width:0.8496"
     id="path844"
     d="m 109.66996,202.96944 c -0.50976,-3.31344 -2.5488,-6.45696 -6.88176,-6.45696 -4.248,0 -6.71184,2.63376 -7.13664,3.14352 l 0.33984,-27.27216 c 0,-0.67968 -0.50976,-1.18944 -1.18944,-1.18944 h -1.01952 c -0.67968,0 -1.18944,0.50976 -1.18944,1.18944 l 0.4248,51.06096 c 0,0.67968 0.50976,1.18944 1.18944,1.18944 0.16992,0 0.50976,-0.085 0.67968,-0.16992 0.33984,-0.16992 5.86224,-2.88864 10.45008,-8.0712 3.22848,-3.65328 4.50288,-7.81632 4.50288,-11.29968 0,-0.76464 -0.085,-1.44432 -0.16992,-2.124 m -5.86224,3.31344 c 0,1.2744 -0.33984,5.18256 -2.46384,8.41104 -1.44432,2.20896 -4.33296,4.50288 -5.9472,5.77728 l 0.25488,-16.5672 c 0.16992,-0.76464 1.44432,-3.22848 4.84272,-3.22848 3.05856,0 3.31344,2.88864 3.31344,4.6728 v 0.93456"
     class="KeySig" />
  <path
     style="stroke-width:0.8496"
     id="path856"
     d="m 2154.7696,99.81676 c -0.1699,-0.25488 -0.6797,-0.50976 -1.0195,-0.50976 h -1.1895 c -0.4248,0 -0.9345,0.33984 -1.1044,0.76464 l -7.6464,21.40992 -7.6464,-21.40992 c -0.17,-0.4248 -0.6797,-0.76464 -1.1045,-0.76464 h -1.1895 c -0.6796,0 -1.1894,0.50976 -1.1894,1.18944 0,0.085 0.085,0.33984 0.085,0.4248 l 9.9403,26.7624 c 0.1699,0.4248 0.6797,0.76464 1.1045,0.76464 0.4248,0 0.9345,-0.33984 1.1044,-0.76464 l 9.9404,-26.7624 c 0,-0.085 0.085,-0.33984 0.085,-0.4248 0,-0.16992 -0.085,-0.50976 -0.1699,-0.67968"
     class="Articulation" />
  <path
     style="stroke-width:0.8496"
     id="path858"
     d="M 555.0166,60.57676 C 554.84668,60.32188 554.33692,60.067 553.99708,60.067 h -1.18944 c -0.4248,0 -0.93456,0.33984 -1.10448,0.76464 l -7.6464,21.40992 -7.6464,-21.40992 c -0.16992,-0.4248 -0.67968,-0.76464 -1.10448,-0.76464 h -1.18944 c -0.67968,0 -1.18944,0.50976 -1.18944,1.18944 0,0.08496 0.085,0.33984 0.085,0.4248 l 9.94032,26.7624 c 0.16992,0.4248 0.67968,0.76464 1.10448,0.76464 0.4248,0 0.93456,-0.33984 1.10448,-0.76464 l 9.94032,-26.7624 c 0,-0.08496 0.085,-0.33984 0.085,-0.4248 0,-0.16992 -0.085,-0.50976 -0.16992,-0.67968"
     class="Articulation" />
  <path
     style="stroke-width:0.8496"
     id="path860"
     d="M 784.5296,46.59176 C 784.35968,46.33688 783.84992,46.082 783.51008,46.082 h -1.18944 c -0.4248,0 -0.93456,0.33984 -1.10448,0.76464 l -7.6464,21.40992 -7.6464,-21.40992 c -0.16992,-0.4248 -0.67968,-0.76464 -1.10448,-0.76464 h -1.18944 c -0.67968,0 -1.18944,0.50976 -1.18944,1.18944 0,0.08496 0.085,0.33984 0.085,0.4248 l 9.94032,26.7624 c 0.16992,0.4248 0.67968,0.76464 1.10448,0.76464 0.4248,0 0.93456,-0.33984 1.10448,-0.76464 l 9.94032,-26.7624 c 0,-0.08496 0.085,-0.33984 0.085,-0.4248 0,-0.16992 -0.085,-0.50976 -0.16992,-0.67968"
     class="Articulation" />
  <path
     style="stroke-width:0.8496"
     id="path862"
     d="m 933.46,71.62128 h 2.37888 V 54.45936 h 22.00464 v 17.16192 h 2.37888 V 47.91744 c 0,-0.67968 -0.50976,-1.18944 -1.18944,-1.18944 h -24.38352 c -0.67968,0 -1.18944,1.18944 -1.18944,1.18944 v 23.70384"
     class="Articulation" />
  <path
     style="stroke-width:0.8496"
     id="path864"
     d="m 1075.5496,64.22976 c -0.1699,-0.25488 -0.6797,-0.50976 -1.0195,-0.50976 h -1.1895 c -0.4248,0 -0.9345,0.33984 -1.1044,0.76464 l -7.6464,21.40992 -7.6464,-21.40992 c -0.17,-0.4248 -0.6797,-0.76464 -1.1045,-0.76464 h -1.1895 c -0.6796,0 -1.1894,0.50976 -1.1894,1.18944 0,0.08496 0.085,0.33984 0.085,0.4248 l 9.9403,26.7624 c 0.1699,0.4248 0.6797,0.76464 1.1045,0.76464 0.4248,0 0.9345,-0.33984 1.1044,-0.76464 l 9.9404,-26.7624 c 0,-0.08496 0.085,-0.33984 0.085,-0.4248 0,-0.16992 -0.085,-0.50976 -0.1699,-0.67968"
     class="Articulation" />
  <path
     style="stroke-width:0.8496"
     id="path866"
     d="m 1168.97,38.79228 h 2.3789 V 21.63036 h 22.0046 v 17.16192 h 2.3789 V 15.08844 c 0,-0.67968 -0.5098,-1.18944 -1.1894,-1.18944 h -24.3836 c -0.6796,0 -1.1894,1.18944 -1.1894,1.18944 v 23.70384"
     class="Articulation" />
  <path
     style="stroke-width:0.8496"
     id="path868"
     d="M 1355.2196,0.50976 C 1355.0497,0.25488 1354.5399,0 1354.2001,0 h -1.1895 c -0.4248,0 -0.9345,0.33984 -1.1044,0.76464 l -7.6464,21.40992 -7.6464,-21.40992 C 1336.4434,0.33984 1335.9337,0 1335.5089,0 h -1.1895 c -0.6796,0 -1.1894,0.50976 -1.1894,1.18944 0,0.08496 0.085,0.33984 0.085,0.4248 l 9.9403,26.7624 c 0.1699,0.4248 0.6797,0.76464 1.1045,0.76464 0.4248,0 0.9345,-0.33984 1.1044,-0.76464 l 9.9404,-26.7624 c 0,-0.08496 0.085,-0.33984 0.085,-0.4248 0,-0.16992 -0.085,-0.50976 -0.1699,-0.67968"
     class="Articulation" />
  <path
     id="path896"
     d="m 1872.27,262.77728 131.2,5.406 v 10.629 l -131.2,-5.406 v -10.629"
     fill-rule="evenodd"
     class="Beam" />
  <path
     id="path898"
     d="m 195.64,98.44328 272.245,-37.492 v 10.72 l -272.245,37.492 v -10.72"
     fill-rule="evenodd"
     class="Beam" />
  <path
     id="path900"
     d="m 195.64,114.37328 272.245,-37.492 v 10.72 l -272.245,37.492 v -10.72"
     fill-rule="evenodd"
     class="Beam" />
  <path
     id="path902"
     d="m 958.29,118.90428 120.09,21.662 v 10.791 l -120.09,-21.661 v -10.792"
     fill-rule="evenodd"
     class="Beam" />
  <path
     id="path904"
     d="m 1355.72,76.87428 223.14,5.366 v 10.623 l -223.14,-5.366 v -10.623"
     fill-rule="evenodd"
     class="Beam" />
  <path
     id="path906"
     d="m 1355.72,92.80428 223.14,5.366 v 10.623 l -223.14,-5.366 v -10.623"
     fill-rule="evenodd"
     class="Beam" />
  <path
     style="stroke-width:0.8496"
     id="path1010"
     d="m 761.884,305.60112 c 0,-0.16992 0.76464,-3.05856 0.8496,-3.31344 0.085,-0.33984 1.61424,-5.18256 4.75776,-10.02528 2.29392,-3.56832 10.36512,-14.0184 10.11024,-14.0184 0,0 6.28704,-8.0712 6.71184,-19.03104 v -1.95408 c 0,-5.18256 -0.67968,-12.48912 -3.65328,-19.88064 -0.33984,-0.8496 -0.67968,-1.6992 -1.61424,-1.35936 -0.93456,0.33984 -0.67968,1.35936 -0.4248,2.29392 C 780.1504,244.26 781,250.37712 781,256.49424 c 0,7.13664 -2.5488,10.70496 -4.07808,13.33872 -5.60736,9.43056 -12.91392,14.0184 -16.48224,15.20784 -0.4248,0.16992 -0.67968,0.50976 -0.67968,0.93456 v 5.26752 13.93344 c 0,0.59472 0.50976,1.10448 1.10448,1.10448 0.4248,0 0.93456,-0.33984 1.01952,-0.67968"
     class="Hook" />
  <path
     style="stroke-width:0.8496"
     id="path1026"
     d="m 788.0036,138.31488 c -0.085,-0.25488 -0.8496,-3.22848 -0.8496,-3.3984 -0.085,-0.33984 -0.59472,-0.59472 -1.01952,-0.59472 -0.59472,0 -1.10448,0.50976 -1.10448,1.10448 v 13.93344 5.26752 c 0,0.4248 0.33984,0.76464 0.67968,0.93456 3.56832,1.10448 10.95984,5.77728 16.48224,15.20784 1.52928,2.63376 3.99312,6.20208 3.99312,13.33872 0,6.11712 -0.93456,12.57408 -2.46384,18.52128 -0.25488,0.93456 -0.50976,1.78416 0.4248,2.124 0.93456,0.33984 1.2744,-0.33984 1.61424,-1.18944 3.05856,-7.47648 3.8232,-15.2928 3.8232,-20.56032 v -1.61424 c -0.4248,-10.95984 -6.71184,-19.03104 -6.71184,-19.03104 0.25488,0 -7.81632,-10.45008 -10.11024,-14.0184 -3.14352,-4.84272 -4.6728,-9.68544 -4.75776,-10.02528"
     class="Hook" />
  <path
     id="path1050"
     d="m 1188.61,129.64628 h -1.5 l -0.34,1.734 c -0.44,2.21 -0.71,2.414 -2.82,2.414 h -7.61 c 2.34,-2.448 3.12,-3.162 5.3,-4.862 3.09,-2.38 4.42,-3.57 5.2,-4.59 1.09,-1.496 1.63,-2.992 1.63,-4.658 0,-3.876 -3.19,-6.63 -7.65,-6.63 -4.31,0 -7.61,2.754 -7.61,6.392 0,2.142 1.09,3.604 2.68,3.604 1.26,0 2.11,-0.85 2.11,-2.074 0,-0.85 -0.47,-1.632 -1.19,-1.938 -1.26,-0.51 -1.32,-0.578 -1.32,-1.02 0,-0.51 0.34,-1.292 0.81,-1.87 0.85,-1.054 2.25,-1.632 3.84,-1.632 2.83,0 4.49,1.734 4.49,4.59 0,2.516 -1.19,4.794 -4.01,7.786 -2.52,2.652 -4.08,4.318 -4.66,4.964 -1.22,1.428 -1.83,2.21 -3.33,4.182 v 0.952 h 15.33 l 0.65,-7.344"
     class="Fingering" />
  <path
     id="path1052"
     d="m 1342.23,114.02928 c -4.76,0 -8.22,5.168 -8.22,12.308 0,7.004 3.36,12.138 7.95,12.138 4.76,0 8.09,-4.964 8.09,-12.036 0,-3.604 -0.74,-6.596 -2.17,-8.942 -1.33,-2.142 -3.5,-3.468 -5.65,-3.468 m -0.23,1.462 c 1.12,0 2.21,0.748 3.02,2.108 0.92,1.598 1.23,3.536 1.23,8.194 0,4.794 -0.24,7.038 -0.92,8.534 -0.78,1.666 -2.01,2.686 -3.3,2.686 -1.16,0 -2.21,-0.748 -3.03,-2.108 -0.95,-1.598 -1.22,-3.706 -1.22,-9.282 0,-3.978 0.24,-5.95 0.92,-7.446 0.78,-1.7 2,-2.686 3.3,-2.686"
     class="Fingering" />
  <path
     id="path1054"
     d="m 1702.03,120.85028 c -4.76,0 -8.23,5.168 -8.23,12.308 0,7.004 3.37,12.138 7.96,12.138 4.76,0 8.09,-4.964 8.09,-12.036 0,-3.604 -0.75,-6.596 -2.18,-8.942 -1.32,-2.142 -3.5,-3.468 -5.64,-3.468 m -0.24,1.462 c 1.12,0 2.21,0.748 3.03,2.108 0.92,1.598 1.22,3.536 1.22,8.194 0,4.794 -0.24,7.038 -0.92,8.534 -0.78,1.666 -2,2.686 -3.29,2.686 -1.16,0 -2.21,-0.748 -3.03,-2.108 -0.95,-1.598 -1.22,-3.706 -1.22,-9.282 0,-3.978 0.23,-5.95 0.91,-7.446 0.79,-1.7 2.01,-2.686 3.3,-2.686"
     class="Fingering" />
  <path
     id="path1074"
     d="m 774.62,118.59928 -11.56,16.082 v 1.904 h 9.55 v 1.768 c 0,1.734 0,1.802 -0.2,2.108 -0.27,0.374 -0.92,0.476 -2.86,0.476 h -0.37 v 1.598 h 9.93 v -1.598 h -0.14 c -1.94,0 -2.58,-0.102 -2.85,-0.476 -0.21,-0.306 -0.21,-0.34 -0.21,-2.108 v -1.768 h 4.12 v -1.904 h -4.12 v -9.282 c 0,-4.25 0,-4.352 0.17,-6.8 h -1.46 m -2.01,16.082 h -7.48 l 7.48,-10.302 v 10.302"
     class="Fingering" />
  <path
     id="path1076"
     d="m 1183.4,80.69128 -11.56,16.082 v 1.904 h 9.55 v 1.768 c 0,1.734 0,1.802 -0.2,2.108 -0.27,0.374 -0.92,0.476 -2.86,0.476 h -0.37 v 1.598 h 9.93 v -1.598 h -0.14 c -1.94,0 -2.58,-0.102 -2.86,-0.476 -0.2,-0.306 -0.2,-0.34 -0.2,-2.108 v -1.768 h 4.11 v -1.904 h -4.11 v -9.282 c 0,-4.25 0,-4.352 0.17,-6.8 h -1.46 m -2.01,16.082 h -7.48 l 7.48,-10.302 v 10.302"
     class="Fingering" />
  <path
     id="path1078"
     d="m 1358.96,91.28428 c 0,9.551 -7.74,17.294 -17.29,17.294 -9.56,0 -17.3,-7.743 -17.3,-17.294 0,-9.552 7.74,-17.295 17.3,-17.295 9.55,0 17.29,7.743 17.29,17.295"
     fill-rule="evenodd"
     stroke-miterlimit="2"
     stroke-linejoin="miter"
     stroke-linecap="square"
     stroke-width="2.12"
     stroke="#000000"
     fill="none"
     class="Fingering" />
  <path
     id="path1080"
     d="m 1342.49,79.30128 c -1.16,1.394 -4.28,2.448 -7.41,2.516 v 1.462 h 2.99 c 1.97,0.034 2.18,0.238 2.11,2.142 v 13.634 c 0,1.734 0,1.802 -0.21,2.108 -0.27,0.34 -0.91,0.476 -2.82,0.476 h -2.21 v 1.598 h 13.47 v -1.598 h -1.87 c -1.91,0 -2.55,-0.136 -2.83,-0.476 -0.23,-0.306 -0.23,-0.34 -0.23,-2.108 v -14.042 c 0,-1.904 0.06,-3.502 0.23,-5.712 h -1.22"
     class="Fingering" />
  <path
     id="path1082"
     d="m 1718.66,94.37928 c 0,9.551 -7.74,17.294 -17.29,17.294 -9.56,0 -17.3,-7.743 -17.3,-17.294 0,-9.552 7.74,-17.294 17.3,-17.294 9.55,0 17.29,7.742 17.29,17.294"
     fill-rule="evenodd"
     stroke-miterlimit="2"
     stroke-linejoin="miter"
     stroke-linecap="square"
     stroke-width="2.12"
     stroke="#000000"
     fill="none"
     class="Fingering" />
  <path
     id="path1084"
     d="m 1704.44,82.39628 -11.56,16.082 v 1.904 h 9.55 v 1.768 c 0,1.734 0,1.802 -0.2,2.108 -0.27,0.374 -0.92,0.476 -2.86,0.476 H 1699 v 1.598 h 9.93 v -1.598 h -0.14 c -1.94,0 -2.58,-0.102 -2.85,-0.476 -0.21,-0.306 -0.21,-0.34 -0.21,-2.108 v -1.768 h 4.12 v -1.904 h -4.12 v -9.282 c 0,-4.25 0,-4.352 0.17,-6.8 h -1.46 m -2.01,16.082 h -7.48 l 7.48,-10.302 v 10.302"
     class="Fingering" />
  <path
     id="path1086"
     d="m 1889.15,109.58828 -11.56,16.082 v 1.904 h 9.55 v 1.768 c 0,1.734 0,1.802 -0.2,2.108 -0.27,0.374 -0.92,0.476 -2.86,0.476 h -0.37 v 1.598 h 9.93 v -1.598 h -0.14 c -1.94,0 -2.58,-0.102 -2.85,-0.476 -0.21,-0.306 -0.21,-0.34 -0.21,-2.108 v -1.768 h 4.12 v -1.904 h -4.12 v -9.282 c 0,-4.25 0,-4.352 0.17,-6.8 h -1.46 m -2.01,16.082 h -7.48 l 7.48,-10.302 v 10.302"
     class="Fingering" />
  <path
     id="path1088"
     d="m 2020.02,128.97528 h -1.5 l -0.34,1.734 c -0.44,2.21 -0.71,2.414 -2.82,2.414 h -7.62 c 2.35,-2.448 3.13,-3.162 5.31,-4.862 3.09,-2.38 4.42,-3.57 5.2,-4.59 1.09,-1.496 1.63,-2.992 1.63,-4.658 0,-3.876 -3.2,-6.63 -7.65,-6.63 -4.32,0 -7.62,2.754 -7.62,6.392 0,2.142 1.09,3.604 2.69,3.604 1.26,0 2.11,-0.85 2.11,-2.074 0,-0.85 -0.48,-1.632 -1.19,-1.938 -1.26,-0.51 -1.33,-0.578 -1.33,-1.02 0,-0.51 0.34,-1.292 0.82,-1.87 0.85,-1.054 2.24,-1.632 3.84,-1.632 2.82,0 4.49,1.734 4.49,4.59 0,2.516 -1.19,4.794 -4.01,7.786 -2.52,2.652 -4.08,4.318 -4.66,4.964 -1.23,1.428 -1.84,2.21 -3.33,4.182 v 0.952 h 15.33 l 0.65,-7.344"
     class="Fingering" />
  <path
     id="path1090"
     d="m 2144.99,139.06928 -11.56,16.082 v 1.904 h 9.55 v 1.768 c 0,1.734 0,1.802 -0.2,2.108 -0.27,0.374 -0.92,0.476 -2.86,0.476 h -0.37 v 1.598 h 9.93 v -1.598 h -0.14 c -1.94,0 -2.58,-0.102 -2.86,-0.476 -0.2,-0.306 -0.2,-0.34 -0.2,-2.108 v -1.768 h 4.11 v -1.904 h -4.11 v -9.282 c 0,-4.25 0,-4.352 0.17,-6.8 h -1.46 m -2.01,16.082 h -7.48 l 7.48,-10.302 v 10.302"
     class="Fingering" />
  <path
     id="path1108"
     d="m 184.377,67.22628 c -4.76,0 -8.228,5.168 -8.228,12.308 0,7.004 3.366,12.138 7.956,12.138 4.76,0 8.092,-4.964 8.092,-12.036 0,-3.604 -0.748,-6.596 -2.176,-8.942 -1.326,-2.142 -3.502,-3.468 -5.644,-3.468 m -0.238,1.462 c 1.122,0 2.21,0.748 3.026,2.108 0.918,1.598 1.224,3.536 1.224,8.194 0,4.794 -0.238,7.038 -0.918,8.534 -0.782,1.666 -2.006,2.686 -3.298,2.686 -1.156,0 -2.21,-0.748 -3.026,-2.108 -0.952,-1.598 -1.224,-3.706 -1.224,-9.282 0,-3.978 0.238,-5.95 0.918,-7.446 0.782,-1.7 2.006,-2.686 3.298,-2.686"
     class="Fingering" />
  <path
     id="path1110"
     d="m 274.966,54.06428 c -1.156,1.394 -4.284,2.448 -7.412,2.516 v 1.462 h 2.992 c 1.972,0.034 2.176,0.238 2.108,2.142 v 13.634 c 0,1.734 0,1.802 -0.204,2.108 -0.272,0.34 -0.918,0.476 -2.822,0.476 h -2.21 v 1.598 h 13.464 v -1.598 h -1.87 c -1.904,0 -2.55,-0.136 -2.822,-0.476 -0.238,-0.306 -0.238,-0.34 -0.238,-2.108 v -14.042 c 0,-1.904 0.068,-3.502 0.238,-5.712 h -1.224"
     class="Fingering" />
  <path
     id="path1112"
     d="m 372.095,59.12028 h -1.496 l -0.34,1.734 c -0.442,2.21 -0.714,2.414 -2.822,2.414 h -7.616 c 2.346,-2.448 3.128,-3.162 5.304,-4.862 3.094,-2.38 4.42,-3.57 5.202,-4.59 1.088,-1.496 1.632,-2.992 1.632,-4.658 0,-3.876 -3.196,-6.63 -7.65,-6.63 -4.318,0 -7.616,2.754 -7.616,6.392 0,2.142 1.088,3.604 2.686,3.604 1.258,0 2.108,-0.85 2.108,-2.074 0,-0.85 -0.476,-1.632 -1.19,-1.938 -1.258,-0.51 -1.326,-0.578 -1.326,-1.02 0,-0.51 0.34,-1.292 0.816,-1.87 0.85,-1.054 2.244,-1.632 3.842,-1.632 2.822,0 4.488,1.734 4.488,4.59 0,2.516 -1.19,4.794 -4.012,7.786 -2.516,2.652 -4.08,4.318 -4.658,4.964 -1.224,1.428 -1.836,2.21 -3.332,4.182 v 0.952 h 15.334 l 0.646,-7.344"
     class="Fingering" />
  <path
     id="path1114"
     d="m 457.157,30.55628 -11.56,16.082 v 1.904 h 9.554 v 1.768 c 0,1.734 0,1.802 -0.204,2.108 -0.272,0.374 -0.918,0.476 -2.856,0.476 h -0.374 v 1.598 h 9.928 v -1.598 h -0.136 c -1.938,0 -2.584,-0.102 -2.856,-0.476 -0.204,-0.306 -0.204,-0.34 -0.204,-2.108 v -1.768 h 4.114 v -1.904 h -4.114 v -9.282 c 0,-4.25 0,-4.352 0.17,-6.8 h -1.462 m -2.006,16.082 h -7.48 l 7.48,-10.302 v 10.302"
     class="Fingering" />
  <path
     id="path1116"
     d="m 546.628,111.25328 c 3.094,-1.122 4.522,-2.856 4.522,-5.576 0,-3.57 -2.72,-5.848 -6.936,-5.848 -3.978,0 -7.004,2.346 -7.004,5.44 0,1.394 0.918,2.38 2.244,2.38 1.19,0 2.006,-0.816 2.006,-2.04 0,-0.748 -0.272,-1.19 -1.054,-1.734 -0.34,-0.238 -0.442,-0.374 -0.442,-0.612 0,-0.952 1.972,-1.972 3.91,-1.972 2.448,0 3.74,1.53 3.74,4.42 0,3.162 -1.292,4.828 -3.706,4.828 -0.306,0 -0.884,-0.034 -1.394,-0.068 -0.272,-0.034 -0.544,-0.034 -0.748,-0.034 -0.714,0 -1.088,0.306 -1.088,0.918 0,0.578 0.34,0.85 1.088,0.85 0.204,0 0.476,0 0.782,-0.034 0.68,-0.034 1.224,-0.034 1.598,-0.034 2.516,0 3.876,1.802 3.876,5.168 0,3.536 -1.7,5.508 -4.76,5.508 -2.142,0 -4.454,-1.156 -4.454,-2.21 0,-0.306 0.068,-0.374 0.714,-0.748 0.952,-0.578 1.326,-1.156 1.326,-2.006 0,-1.224 -0.918,-2.142 -2.142,-2.142 -1.462,0 -2.414,1.19 -2.414,2.992 0,3.298 3.026,5.576 7.378,5.576 4.93,0 8.126,-2.72 8.126,-6.902 0,-3.196 -1.632,-5.134 -5.168,-6.12"
     class="Fingering" />
  <path
     id="path1118"
     d="m 774.7,97.26928 c 3.09,-1.122 4.52,-2.856 4.52,-5.576 0,-3.57 -2.72,-5.848 -6.94,-5.848 -3.97,0 -7,2.346 -7,5.44 0,1.394 0.92,2.38 2.24,2.38 1.19,0 2.01,-0.816 2.01,-2.04 0,-0.748 -0.27,-1.19 -1.05,-1.734 -0.34,-0.238 -0.45,-0.374 -0.45,-0.612 0,-0.952 1.98,-1.972 3.91,-1.972 2.45,0 3.74,1.53 3.74,4.42 0,3.162 -1.29,4.828 -3.7,4.828 -0.31,0 -0.89,-0.034 -1.4,-0.068 -0.27,-0.034 -0.54,-0.034 -0.74,-0.034 -0.72,0 -1.09,0.306 -1.09,0.918 0,0.578 0.34,0.85 1.09,0.85 0.2,0 0.47,0 0.78,-0.034 0.68,-0.034 1.22,-0.034 1.6,-0.034 2.51,0 3.87,1.802 3.87,5.168 0,3.536 -1.7,5.508 -4.76,5.508 -2.14,0 -4.45,-1.156 -4.45,-2.21 0,-0.306 0.07,-0.374 0.71,-0.748 0.95,-0.578 1.33,-1.156 1.33,-2.006 0,-1.224 -0.92,-2.142 -2.14,-2.142 -1.47,0 -2.42,1.19 -2.42,2.992 0,3.298 3.03,5.576 7.38,5.576 4.93,0 8.13,-2.72 8.13,-6.902 0,-3.196 -1.64,-5.134 -5.17,-6.12"
     class="Fingering" />
  <path
     id="path1120"
     d="m 1181.75,60.83728 c 3.09,-1.122 4.52,-2.856 4.52,-5.576 0,-3.57 -2.72,-5.848 -6.93,-5.848 -3.98,0 -7.01,2.346 -7.01,5.44 0,1.394 0.92,2.38 2.25,2.38 1.19,0 2,-0.816 2,-2.04 0,-0.748 -0.27,-1.19 -1.05,-1.734 -0.34,-0.238 -0.44,-0.374 -0.44,-0.612 0,-0.952 1.97,-1.972 3.91,-1.972 2.44,0 3.74,1.53 3.74,4.42 0,3.162 -1.3,4.828 -3.71,4.828 -0.31,0 -0.88,-0.034 -1.39,-0.068 -0.28,-0.034 -0.55,-0.034 -0.75,-0.034 -0.72,0 -1.09,0.306 -1.09,0.918 0,0.578 0.34,0.85 1.09,0.85 0.2,0 0.47,0 0.78,-0.034 0.68,-0.034 1.22,-0.034 1.6,-0.034 2.51,0 3.87,1.802 3.87,5.168 0,3.536 -1.7,5.508 -4.76,5.508 -2.14,0 -4.45,-1.156 -4.45,-2.21 0,-0.306 0.07,-0.374 0.71,-0.748 0.96,-0.578 1.33,-1.156 1.33,-2.006 0,-1.224 -0.92,-2.142 -2.14,-2.142 -1.46,0 -2.42,1.19 -2.42,2.992 0,3.298 3.03,5.576 7.38,5.576 4.93,0 8.13,-2.72 8.13,-6.902 0,-3.196 -1.63,-5.134 -5.17,-6.12"
     class="Fingering" />
  <path
     id="path1122"
     d="m 1343.01,46.48628 -11.56,16.082 v 1.904 h 9.56 v 1.768 c 0,1.734 0,1.802 -0.21,2.108 -0.27,0.374 -0.92,0.476 -2.85,0.476 h -0.38 v 1.598 h 9.93 v -1.598 h -0.14 c -1.93,0 -2.58,-0.102 -2.85,-0.476 -0.21,-0.306 -0.21,-0.34 -0.21,-2.108 v -1.768 h 4.12 v -1.904 h -4.12 v -9.282 c 0,-4.25 0,-4.352 0.17,-6.8 h -1.46 m -2,16.082 h -7.48 l 7.48,-10.302 v 10.302"
     class="Fingering" />
  <path
     id="path1124"
     d="m 1704.5,46.84828 c -1.15,1.394 -4.28,2.448 -7.41,2.516 v 1.462 h 2.99 c 1.97,0.034 2.18,0.238 2.11,2.142 v 13.634 c 0,1.734 0,1.802 -0.2,2.108 -0.28,0.34 -0.92,0.476 -2.83,0.476 h -2.21 v 1.598 h 13.47 v -1.598 h -1.87 c -1.91,0 -2.55,-0.136 -2.82,-0.476 -0.24,-0.306 -0.24,-0.34 -0.24,-2.108 v -14.042 c 0,-1.904 0.07,-3.502 0.24,-5.712 h -1.23"
     class="Fingering" />
  <path
     style="stroke-width:0.8496"
     id="path1252"
     d="m 1729.59,220.29987 c 0,2.34611 1.9019,4.248 4.248,4.248 2.3461,0 4.248,-1.90189 4.248,-4.248 0,-2.34611 -1.9019,-4.248 -4.248,-4.248 -2.3461,0 -4.248,1.90189 -4.248,4.248"
     class="NoteDot" />
  <path
     style="stroke-width:0.8496"
     id="path1254"
     d="m 568.474,135.33987 c 0,2.34611 1.90189,4.248 4.248,4.248 2.34611,0 4.248,-1.90189 4.248,-4.248 0,-2.34611 -1.90189,-4.248 -4.248,-4.248 -2.34611,0 -4.248,1.90189 -4.248,4.248"
     class="NoteDot" />
  <path
     style="stroke-width:0.8496"
     id="path1256"
     d="m 1729.59,177.81987 c 0,2.34611 1.9019,4.248 4.248,4.248 2.3461,0 4.248,-1.90189 4.248,-4.248 0,-2.34611 -1.9019,-4.248 -4.248,-4.248 -2.3461,0 -4.248,1.90189 -4.248,4.248"
     class="NoteDot" />
</svg>
