<?xml version="1.0" encoding="UTF-8" standalone="no"?>
<svg
   xmlns:dc="http://purl.org/dc/elements/1.1/"
   xmlns:cc="http://creativecommons.org/ns#"
   xmlns:rdf="http://www.w3.org/1999/02/22-rdf-syntax-ns#"
   xmlns:svg="http://www.w3.org/2000/svg"
   xmlns="http://www.w3.org/2000/svg"
   xmlns:sodipodi="http://sodipodi.sourceforge.net/DTD/sodipodi-0.dtd"
   xmlns:inkscape="http://www.inkscape.org/namespaces/inkscape"
   inkscape:version="1.0 (4035a4f, 2020-05-01)"
   sodipodi:docname="snippet25.svg"
   id="svg4254"
   version="1.2"
   viewBox="0 0 2340 276.84415"
   height="276.84415"
   width="2340">
  <metadata
     id="metadata4260">
    <rdf:RDF>
      <cc:Work
         rdf:about="">
        <dc:format>image/svg+xml</dc:format>
        <dc:type
           rdf:resource="http://purl.org/dc/dcmitype/StillImage" />
        <dc:title>Batches2Partita3</dc:title>
      </cc:Work>
    </rdf:RDF>
  </metadata>
  <defs
     id="defs4258" />
  <sodipodi:namedview
     inkscape:current-layer="svg4254"
     inkscape:window-maximized="0"
     inkscape:window-y="23"
     inkscape:window-x="0"
     inkscape:cy="-11.370393"
     inkscape:cx="1375.4402"
     inkscape:zoom="0.18795799"
     showgrid="false"
     id="namedview4256"
     inkscape:window-height="480"
     inkscape:window-width="735"
     inkscape:pageshadow="2"
     inkscape:pageopacity="0"
     guidetolerance="10"
     gridtolerance="10"
     objecttolerance="10"
     borderopacity="1"
     bordercolor="#666666"
     pagecolor="#ffffff" />
  <title
     id="title3006">Batches2Partita3</title>
  <desc
     id="desc3008">Generated by MuseScore 3.6.2</desc>
  <polyline
     transform="translate(-360,-2349.4156)"
     id="polyline3040"
     points="360,2448.43 2700,2448.43"
     stroke-linejoin="bevel"
     stroke-width="2.34"
     stroke="#000000"
     fill="none"
     class="StaffLines" />
  <polyline
     transform="translate(-360,-2349.4156)"
     id="polyline3042"
     points="360,2469.67 2700,2469.67"
     stroke-linejoin="bevel"
     stroke-width="2.34"
     stroke="#000000"
     fill="none"
     class="StaffLines" />
  <polyline
     transform="translate(-360,-2349.4156)"
     id="polyline3044"
     points="360,2490.91 2700,2490.91"
     stroke-linejoin="bevel"
     stroke-width="2.34"
     stroke="#000000"
     fill="none"
     class="StaffLines" />
  <polyline
     transform="translate(-360,-2349.4156)"
     id="polyline3046"
     points="360,2512.15 2700,2512.15"
     stroke-linejoin="bevel"
     stroke-width="2.34"
     stroke="#000000"
     fill="none"
     class="StaffLines" />
  <polyline
     transform="translate(-360,-2349.4156)"
     id="polyline3048"
     points="360,2533.39 2700,2533.39"
     stroke-linejoin="bevel"
     stroke-width="2.34"
     stroke="#000000"
     fill="none"
     class="StaffLines" />
  <path
     id="path3090"
     d="m 254.043,14.804358 c 72.594,-36.52 259.018,2.76 310.706,65.47 -52.914,-56.89 -239.338,-96.17 -310.706,-65.47"
     fill-rule="evenodd"
     stroke-linejoin="round"
     stroke-linecap="round"
     stroke-width="1.49"
     stroke="#000000"
     class="SlurSegment" />
  <path
     id="path3092"
     d="m 629.418,90.524358 c 12.672,-23.96 45.002,-29.27 64.672,-10.62 -18.71,-12.78 -51.04,-7.47 -64.672,10.62"
     fill-rule="evenodd"
     stroke-linejoin="round"
     stroke-linecap="round"
     stroke-width="1.49"
     stroke="#000000"
     class="SlurSegment" />
  <path
     id="path3094"
     d="m 758.75,111.76436 c 12.67,-23.960002 45.01,-29.270002 64.67,-10.62 -18.7,-12.780002 -51.03,-7.470002 -64.67,10.62"
     fill-rule="evenodd"
     stroke-linejoin="round"
     stroke-linecap="round"
     stroke-width="1.49"
     stroke="#000000"
     class="SlurSegment" />
  <path
     id="path3096"
     d="m 888.09,143.62436 c 20.31,-30.84 67.3,-36.15 93.98,-10.62 -26.01,-19.62 -73,-14.31 -93.98,10.62"
     fill-rule="evenodd"
     stroke-linejoin="round"
     stroke-linecap="round"
     stroke-width="1.49"
     stroke="#000000"
     class="SlurSegment" />
  <path
     id="path3098"
     d="m 1050.42,160.61436 c 35.24,40.49 118.21,56.42 165.94,31.86 -48.85,30.4 -131.82,14.47 -165.94,-31.86"
     fill-rule="evenodd"
     stroke-linejoin="round"
     stroke-linecap="round"
     stroke-width="1.49"
     stroke="#000000"
     class="SlurSegment" />
  <path
     id="path3100"
     d="m 1284.71,215.37436 c 42.87,36.87 132.66,42.18 179.58,10.62 -47.27,37.5 -137.06,32.19 -179.58,-10.62"
     fill-rule="evenodd"
     stroke-linejoin="round"
     stroke-linecap="round"
     stroke-width="1.49"
     stroke="#000000"
     class="SlurSegment" />
  <path
     id="path3102"
     d="m 1601.16,245.57436 c 47.28,12.19 115.63,-19.67 136.7,-63.72 -18.56,49.44 -86.91,81.3 -136.7,63.72"
     fill-rule="evenodd"
     stroke-linejoin="round"
     stroke-linecap="round"
     stroke-width="1.49"
     stroke="#000000"
     class="SlurSegment" />
  <polyline
     transform="translate(-360,-2349.4156)"
     id="polyline3134"
     points="1300.87,2447.27 1300.87,2534.56"
     stroke-linejoin="bevel"
     stroke-width="3.82"
     stroke="#000000"
     class="BarLine" />
  <polyline
     transform="translate(-360,-2349.4156)"
     id="polyline3136"
     points="2222.67,2447.27 2222.67,2534.56"
     stroke-linejoin="bevel"
     stroke-width="3.82"
     stroke="#000000"
     class="BarLine" />
  <polyline
     transform="translate(-360,-2349.4156)"
     id="polyline3138"
     points="2679.29,2447.27 2679.29,2534.56"
     stroke-linejoin="bevel"
     stroke-width="3.82"
     stroke="#000000"
     class="BarLine" />
  <polyline
     transform="translate(-360,-2349.4156)"
     id="polyline3140"
     points="2694.16,2447.27 2694.16,2534.56"
     stroke-linejoin="bevel"
     stroke-width="11.68"
     stroke="#000000"
     class="BarLine" />
  <path
     style="stroke-width:0.8496"
     id="path3184"
     d="m 214.44236,200.28668 c -0.16992,-0.16992 -0.4248,-0.25488 -0.67968,-0.25488 -0.085,0 -0.25488,0.085 -0.33984,0.085 l -10.70496,2.9736 v -14.868 H 200.339 v 42.0552 c 0,0.67968 0.50976,1.10448 1.18944,1.10448 h 0.33984 l 10.70496,-2.9736 v 14.868 h 2.29392 v -42.0552 c 0,-0.33984 -0.16992,-0.76464 -0.4248,-0.93456 m -1.86912,21.07008 -9.85536,2.71872 v -13.93344 l 9.85536,-2.80368 v 14.0184"
     class="Accidental" />
  <path
     style="stroke-width:0.8496"
     id="path3186"
     d="m 351.21236,157.80668 c -0.16992,-0.16992 -0.4248,-0.25488 -0.67968,-0.25488 -0.085,0 -0.25488,0.085 -0.33984,0.085 l -10.70496,2.9736 v -14.868 H 337.109 v 42.0552 c 0,0.67968 0.50976,1.10448 1.18944,1.10448 h 0.33984 l 10.70496,-2.9736 v 14.868 h 2.29392 v -42.0552 c 0,-0.33984 -0.16992,-0.76464 -0.4248,-0.93456 m -1.86912,21.07008 -9.85536,2.71872 v -13.93344 l 9.85536,-2.80368 v 14.0184"
     class="Accidental" />
  <path
     style="stroke-width:0.8496"
     id="path3188"
     d="m 415.36668,153.7286 c 0.50976,-0.085 0.93456,-0.67968 0.93456,-1.18944 v -5.01264 c 0,-0.67968 -0.50976,-1.18944 -1.18944,-1.18944 h -0.16992 l -2.80368,0.59472 v -12.65904 h -2.37888 v 13.1688 l -7.56144,1.52928 V 136.99148 H 399.819 v 12.48912 l -3.31344,0.67968 c -0.50976,0.085 -0.93456,0.67968 -0.93456,1.18944 v 0.16992 4.92768 -0.16992 c 0,0.67968 0.50976,1.18944 1.18944,1.18944 h 0.25488 l 2.80368,-0.59472 v 14.0184 l -3.31344,0.67968 c -0.50976,0.085 -0.93456,0.67968 -0.93456,1.18944 v 4.92768 c 0,0.67968 0.50976,1.18944 1.18944,1.18944 h 0.25488 l 2.80368,-0.59472 v 12.65904 h 2.37888 v -13.1688 l 7.56144,-1.52928 v 11.97936 h 2.37888 v -12.48912 l 3.22848,-0.59472 c 0.50976,-0.085 0.93456,-0.67968 0.93456,-1.18944 v -5.01264 c 0,-0.67968 -0.50976,-1.18944 -1.18944,-1.18944 h -0.16992 l -2.80368,0.59472 v -14.0184 l 3.22848,-0.59472 m -13.1688,16.73712 v -14.10336 l 7.56144,-1.52928 v 14.0184 l -7.56144,1.61424"
     class="Accidental" />
  <path
     style="stroke-width:0.8496"
     id="path3190"
     d="m 480.54936,125.94668 c -0.16992,-0.16992 -0.4248,-0.25488 -0.67968,-0.25488 -0.085,0 -0.25488,0.085 -0.33984,0.085 l -10.70496,2.9736 v -14.868 H 466.446 v 42.0552 c 0,0.67968 0.50976,1.10448 1.18944,1.10448 h 0.33984 l 10.70496,-2.9736 v 14.868 h 2.29392 v -42.0552 c 0,-0.33984 -0.16992,-0.76464 -0.4248,-0.93456 m -1.86912,21.07008 -9.85536,2.71872 v -13.93344 l 9.85536,-2.80368 v 14.0184"
     class="Accidental" />
  <path
     style="stroke-width:0.8496"
     id="path3192"
     d="m 738.70568,121.8686 c 0.50976,-0.085 0.93456,-0.67968 0.93456,-1.18944 v -5.01264 c 0,-0.67968 -0.50976,-1.18944 -1.18944,-1.18944 h -0.16992 l -2.80368,0.59472 v -12.65904 h -2.37888 v 13.1688 l -7.56144,1.52928 V 105.13148 H 723.158 v 12.48912 l -3.31344,0.67968 c -0.50976,0.085 -0.93456,0.67968 -0.93456,1.18944 v 0.16992 4.92768 -0.16992 c 0,0.67968 0.50976,1.18944 1.18944,1.18944 h 0.25488 l 2.80368,-0.59472 v 14.0184 l -3.31344,0.67968 c -0.50976,0.085 -0.93456,0.67968 -0.93456,1.18944 v 4.92768 c 0,0.67968 0.50976,1.18944 1.18944,1.18944 h 0.25488 l 2.80368,-0.59472 v 12.65904 h 2.37888 v -13.1688 l 7.56144,-1.52928 v 11.97936 h 2.37888 v -12.48912 l 3.22848,-0.59472 c 0.50976,-0.085 0.93456,-0.67968 0.93456,-1.18944 v -5.01264 c 0,-0.67968 -0.50976,-1.18944 -1.18944,-1.18944 h -0.16992 l -2.80368,0.59472 v -14.0184 l 3.22848,-0.59472 m -13.1688,16.73712 v -14.10336 l 7.56144,-1.52928 v 14.0184 l -7.56144,1.61424"
     class="Accidental" />
  <path
     style="stroke-width:0.8496"
     id="path3194"
     d="m 1031.137,134.78252 c -0.5098,-3.31344 -2.5488,-6.45696 -6.8818,-6.45696 -4.248,0 -6.7118,2.63376 -7.1366,3.14352 l 0.3398,-27.27216 c 0,-0.67968 -0.5098,-1.18944 -1.1894,-1.18944 h -1.0196 c -0.6796,0 -1.1894,0.50976 -1.1894,1.18944 l 0.4248,51.06096 c 0,0.67968 0.5098,1.18944 1.1894,1.18944 0.17,0 0.5098,-0.085 0.6797,-0.16992 0.3399,-0.16992 5.8623,-2.88864 10.4501,-8.0712 3.2285,-3.65328 4.5029,-7.81632 4.5029,-11.29968 0,-0.76464 -0.085,-1.44432 -0.1699,-2.124 m -5.8623,3.31344 c 0,1.2744 -0.3398,5.18256 -2.4638,8.41104 -1.4443,2.20896 -4.333,4.50288 -5.9472,5.77728 l 0.2549,-16.5672 c 0.1699,-0.76464 1.4443,-3.22848 4.8427,-3.22848 3.0585,0 3.3134,2.88864 3.3134,4.6728 v 0.93456"
     class="Accidental" />
  <path
     style="stroke-width:0.8496"
     id="path3196"
     d="m 1128.4834,147.18668 c -0.17,-0.16992 -0.4248,-0.25488 -0.6797,-0.25488 -0.085,0 -0.2549,0.085 -0.3399,0.085 l -10.7049,2.9736 v -14.868 h -2.3789 v 42.0552 c 0,0.67968 0.5098,1.10448 1.1894,1.10448 h 0.3399 l 10.7049,-2.9736 v 14.868 h 2.294 v -42.0552 c 0,-0.33984 -0.17,-0.76464 -0.4248,-0.93456 m -1.8692,21.07008 -9.8553,2.71872 v -13.93344 l 9.8553,-2.80368 v 14.0184"
     class="Accidental" />
  <path
     style="stroke-width:0.8496"
     id="path3198"
     d="m 1394.0957,196.2086 c 0.5097,-0.085 0.9345,-0.67968 0.9345,-1.18944 v -5.01264 c 0,-0.67968 -0.5097,-1.18944 -1.1894,-1.18944 h -0.1699 l -2.8037,0.59472 v -12.65904 h -2.3789 v 13.1688 l -7.5614,1.52928 v -11.97936 h -2.3789 v 12.48912 l -3.3134,0.67968 c -0.5098,0.085 -0.9346,0.67968 -0.9346,1.18944 v 0.16992 4.92768 -0.16992 c 0,0.67968 0.5098,1.18944 1.1894,1.18944 h 0.2549 l 2.8037,-0.59472 v 14.0184 l -3.3134,0.67968 c -0.5098,0.085 -0.9346,0.67968 -0.9346,1.18944 v 4.92768 c 0,0.67968 0.5098,1.18944 1.1894,1.18944 h 0.2549 l 2.8037,-0.59472 v 12.65904 h 2.3789 v -13.1688 l 7.5614,-1.52928 v 11.97936 h 2.3789 v -12.48912 l 3.2285,-0.59472 c 0.5097,-0.085 0.9345,-0.67968 0.9345,-1.18944 v -5.01264 c 0,-0.67968 -0.5097,-1.18944 -1.1894,-1.18944 h -0.1699 l -2.8037,0.59472 v -14.0184 l 3.2285,-0.59472 m -13.1688,16.73712 v -14.10336 l 7.5614,-1.52928 v 14.0184 l -7.5614,1.61424"
     class="Accidental" />
  <path
     style="stroke-width:0.8496"
     id="path3200"
     d="m 1505.3257,228.0686 c 0.5097,-0.085 0.9345,-0.67968 0.9345,-1.18944 v -5.01264 c 0,-0.67968 -0.5097,-1.18944 -1.1894,-1.18944 h -0.1699 l -2.8037,0.59472 v -12.65904 h -2.3789 v 13.1688 l -7.5614,1.52928 v -11.97936 h -2.3789 v 12.48912 l -3.3134,0.67968 c -0.5098,0.085 -0.9346,0.67968 -0.9346,1.18944 v 0.16992 4.92768 -0.16992 c 0,0.67968 0.5098,1.18944 1.1894,1.18944 h 0.2549 l 2.8037,-0.59472 v 14.0184 l -3.3134,0.67968 c -0.5098,0.085 -0.9346,0.67968 -0.9346,1.18944 v 4.92768 c 0,0.67968 0.5098,1.18944 1.1894,1.18944 h 0.2549 l 2.8037,-0.59472 v 12.65904 h 2.3789 v -13.1688 l 7.5614,-1.52928 v 11.97936 h 2.3789 v -12.48912 l 3.2285,-0.59472 c 0.5097,-0.085 0.9345,-0.67968 0.9345,-1.18944 v -5.01264 c 0,-0.67968 -0.5097,-1.18944 -1.1894,-1.18944 h -0.1699 l -2.8037,0.59472 v -14.0184 l 3.2285,-0.59472 m -13.1688,16.73712 v -14.10336 l 7.5614,-1.52928 v 14.0184 l -7.5614,1.61424"
     class="Accidental" />
  <path
     style="stroke-width:0.8496"
     id="path3202"
     d="m 1718.3234,147.18668 c -0.17,-0.16992 -0.4248,-0.25488 -0.6797,-0.25488 -0.085,0 -0.2549,0.085 -0.3399,0.085 l -10.7049,2.9736 v -14.868 h -2.3789 v 42.0552 c 0,0.67968 0.5098,1.10448 1.1894,1.10448 h 0.3399 l 10.7049,-2.9736 v 14.868 h 2.294 v -42.0552 c 0,-0.33984 -0.17,-0.76464 -0.4248,-0.93456 m -1.8692,21.07008 -9.8553,2.71872 v -13.93344 l 9.8553,-2.80368 v 14.0184"
     class="Accidental" />
  <path
     style="stroke-width:0.8496"
     id="path3204"
     d="m 1786.1557,121.8686 c 0.5097,-0.085 0.9345,-0.67968 0.9345,-1.18944 v -5.01264 c 0,-0.67968 -0.5097,-1.18944 -1.1894,-1.18944 h -0.1699 l -2.8037,0.59472 v -12.65904 h -2.3789 v 13.1688 l -7.5614,1.52928 v -11.97936 h -2.3789 v 12.48912 l -3.3134,0.67968 c -0.5098,0.085 -0.9346,0.67968 -0.9346,1.18944 v 0.16992 4.92768 -0.16992 c 0,0.67968 0.5098,1.18944 1.1894,1.18944 h 0.2549 l 2.8037,-0.59472 v 14.0184 l -3.3134,0.67968 c -0.5098,0.085 -0.9346,0.67968 -0.9346,1.18944 v 4.92768 c 0,0.67968 0.5098,1.18944 1.1894,1.18944 h 0.2549 l 2.8037,-0.59472 v 12.65904 h 2.3789 v -13.1688 l 7.5614,-1.52928 v 11.97936 h 2.3789 v -12.48912 l 3.2285,-0.59472 c 0.5097,-0.085 0.9345,-0.67968 0.9345,-1.18944 v -5.01264 c 0,-0.67968 -0.5097,-1.18944 -1.1894,-1.18944 h -0.1699 l -2.8037,0.59472 v -14.0184 l 3.2285,-0.59472 m -13.1688,16.73712 v -14.10336 l 7.5614,-1.52928 v 14.0184 l -7.5614,1.61424"
     class="Accidental" />
  <path
     style="stroke-width:0.59472"
     id="path3206"
     d="m 1910.527,124.57033 c 0.3568,-0.0595 0.6542,-0.47578 0.6542,-0.83261 v -3.50885 c 0,-0.47578 -0.3569,-0.83261 -0.8326,-0.83261 h -0.119 l -1.9626,0.41631 v -8.86133 h -1.6652 v 9.21816 l -5.293,1.07049 v -8.38555 h -1.6652 v 8.74239 l -2.3194,0.47577 c -0.3568,0.0595 -0.6542,0.47578 -0.6542,0.83261 v 0.11894 3.44938 -0.11894 c 0,0.47577 0.3568,0.8326 0.8326,0.8326 h 0.1784 l 1.9626,-0.4163 v 9.81288 l -2.3194,0.47578 c -0.3568,0.0595 -0.6542,0.47577 -0.6542,0.8326 v 3.44938 c 0,0.47578 0.3568,0.83261 0.8326,0.83261 h 0.1784 l 1.9626,-0.41631 v 8.86133 h 1.6652 v -9.21816 l 5.293,-1.07049 v 8.38555 h 1.6652 v -8.74239 l 2.26,-0.4163 c 0.3568,-0.0595 0.6542,-0.47578 0.6542,-0.83261 v -3.50885 c 0,-0.47577 -0.3569,-0.8326 -0.8326,-0.8326 h -0.119 l -1.9626,0.4163 v -9.81288 l 2.26,-0.4163 m -9.2182,11.71598 v -9.87235 l 5.293,-1.0705 v 9.81288 l -5.293,1.12997"
     class="Accidental" />
  <polyline
     transform="translate(-360,-2349.4156)"
     id="polyline3238"
     points="580.172,2554.63 622.645,2554.63"
     stroke-linejoin="bevel"
     stroke-width="3.4"
     stroke="#000000"
     class="LedgerLine" />
  <polyline
     transform="translate(-360,-2349.4156)"
     id="polyline3240"
     points="1760.34,2554.63 1802.81,2554.63"
     stroke-linejoin="bevel"
     stroke-width="3.4"
     stroke="#000000"
     class="LedgerLine" />
  <polyline
     transform="translate(-360,-2349.4156)"
     id="polyline3242"
     points="1871.57,2575.87 1914.04,2575.87"
     stroke-linejoin="bevel"
     stroke-width="3.4"
     stroke="#000000"
     class="LedgerLine" />
  <polyline
     transform="translate(-360,-2349.4156)"
     id="polyline3244"
     points="1871.57,2554.63 1914.04,2554.63"
     stroke-linejoin="bevel"
     stroke-width="3.4"
     stroke="#000000"
     class="LedgerLine" />
  <polyline
     transform="translate(-360,-2349.4156)"
     id="polyline3246"
     points="1939.92,2575.87 1982.39,2575.87"
     stroke-linejoin="bevel"
     stroke-width="3.4"
     stroke="#000000"
     class="LedgerLine" />
  <polyline
     transform="translate(-360,-2349.4156)"
     id="polyline3248"
     points="1939.92,2554.63 1982.39,2554.63"
     stroke-linejoin="bevel"
     stroke-width="3.4"
     stroke="#000000"
     class="LedgerLine" />
  <polyline
     transform="translate(-360,-2349.4156)"
     id="polyline3250"
     points="2406.83,2618.35 2441.02,2618.35"
     stroke-linejoin="bevel"
     stroke-width="2.38"
     stroke="#000000"
     class="LedgerLine" />
  <polyline
     transform="translate(-360,-2349.4156)"
     id="polyline3252"
     points="2406.83,2597.11 2441.02,2597.11"
     stroke-linejoin="bevel"
     stroke-width="2.38"
     stroke="#000000"
     class="LedgerLine" />
  <polyline
     transform="translate(-360,-2349.4156)"
     id="polyline3254"
     points="2406.83,2575.87 2441.02,2575.87"
     stroke-linejoin="bevel"
     stroke-width="2.38"
     stroke="#000000"
     class="LedgerLine" />
  <polyline
     transform="translate(-360,-2349.4156)"
     id="polyline3256"
     points="2406.83,2554.63 2441.02,2554.63"
     stroke-linejoin="bevel"
     stroke-width="2.38"
     stroke="#000000"
     class="LedgerLine" />
  <polyline
     transform="translate(-360,-2349.4156)"
     id="polyline3484"
     points="614.043,2562.54 614.043,2405.95"
     stroke-linejoin="bevel"
     stroke-width="2.34"
     stroke="#000000"
     class="Stem" />
  <polyline
     transform="translate(-360,-2349.4156)"
     id="polyline3486"
     points="678.711,2541.3 678.711,2405.95"
     stroke-linejoin="bevel"
     stroke-width="2.34"
     stroke="#000000"
     class="Stem" />
  <polyline
     transform="translate(-360,-2349.4156)"
     id="polyline3488"
     points="743.379,2520.06 743.379,2405.95"
     stroke-linejoin="bevel"
     stroke-width="2.34"
     stroke="#000000"
     class="Stem" />
  <polyline
     transform="translate(-360,-2349.4156)"
     id="polyline3490"
     points="782.778,2515.01 782.778,2575.87"
     stroke-linejoin="bevel"
     stroke-width="2.34"
     stroke="#000000"
     class="Stem" />
  <polyline
     transform="translate(-360,-2349.4156)"
     id="polyline3492"
     points="847.447,2493.77 847.447,2567.02"
     stroke-linejoin="bevel"
     stroke-width="2.34"
     stroke="#000000"
     class="Stem" />
  <polyline
     transform="translate(-360,-2349.4156)"
     id="polyline3494"
     points="912.115,2472.53 912.115,2558.17"
     stroke-linejoin="bevel"
     stroke-width="2.34"
     stroke="#000000"
     class="Stem" />
  <polyline
     transform="translate(-360,-2349.4156)"
     id="polyline3496"
     points="976.783,2461.91 976.783,2549.32"
     stroke-linejoin="bevel"
     stroke-width="2.34"
     stroke="#000000"
     class="Stem" />
  <polyline
     transform="translate(-360,-2349.4156)"
     id="polyline3498"
     points="1041.45,2451.29 1041.45,2549.32"
     stroke-linejoin="bevel"
     stroke-width="2.34"
     stroke="#000000"
     class="Stem" />
  <polyline
     transform="translate(-360,-2349.4156)"
     id="polyline3500"
     points="1106.12,2483.15 1106.12,2558.17"
     stroke-linejoin="bevel"
     stroke-width="2.34"
     stroke="#000000"
     class="Stem" />
  <polyline
     transform="translate(-360,-2349.4156)"
     id="polyline3502"
     points="1170.79,2472.53 1170.79,2567.02"
     stroke-linejoin="bevel"
     stroke-width="2.34"
     stroke="#000000"
     class="Stem" />
  <polyline
     transform="translate(-360,-2349.4156)"
     id="polyline3504"
     points="1235.46,2515.01 1235.46,2575.87"
     stroke-linejoin="bevel"
     stroke-width="2.34"
     stroke="#000000"
     class="Stem" />
  <polyline
     transform="translate(-360,-2349.4156)"
     id="polyline3506"
     points="1354.7,2498.82 1354.7,2411.26"
     stroke-linejoin="bevel"
     stroke-width="2.34"
     stroke="#000000"
     class="Stem" />
  <polyline
     transform="translate(-360,-2349.4156)"
     id="polyline3508"
     points="1423.05,2488.2 1423.05,2411.26"
     stroke-linejoin="bevel"
     stroke-width="2.34"
     stroke="#000000"
     class="Stem" />
  <polyline
     transform="translate(-360,-2349.4156)"
     id="polyline3510"
     points="1465.77,2498.82 1465.77,2411.26"
     stroke-linejoin="bevel"
     stroke-width="2.34"
     stroke="#000000"
     class="Stem" />
  <polyline
     transform="translate(-360,-2349.4156)"
     id="polyline3512"
     points="1520.65,2509.44 1520.65,2411.26"
     stroke-linejoin="bevel"
     stroke-width="2.34"
     stroke="#000000"
     class="Stem" />
  <polyline
     transform="translate(-360,-2349.4156)"
     id="polyline3514"
     points="1589,2520.06 1589,2411.26"
     stroke-linejoin="bevel"
     stroke-width="2.34"
     stroke="#000000"
     class="Stem" />
  <polyline
     transform="translate(-360,-2349.4156)"
     id="polyline3516"
     points="1657.35,2530.68 1657.35,2432.5"
     stroke-linejoin="bevel"
     stroke-width="2.34"
     stroke="#000000"
     class="Stem" />
  <polyline
     transform="translate(-360,-2349.4156)"
     id="polyline3518"
     points="1725.7,2541.3 1725.7,2438.36"
     stroke-linejoin="bevel"
     stroke-width="2.34"
     stroke="#000000"
     class="Stem" />
  <polyline
     transform="translate(-360,-2349.4156)"
     id="polyline3520"
     points="1794.21,2551.92 1794.21,2444.22"
     stroke-linejoin="bevel"
     stroke-width="2.34"
     stroke="#000000"
     class="Stem" />
  <polyline
     transform="translate(-360,-2349.4156)"
     id="polyline3522"
     points="1836.93,2541.3 1836.93,2447.88"
     stroke-linejoin="bevel"
     stroke-width="2.34"
     stroke="#000000"
     class="Stem" />
  <polyline
     transform="translate(-360,-2349.4156)"
     id="polyline3524"
     points="1905.44,2583.78 1905.44,2453.74"
     stroke-linejoin="bevel"
     stroke-width="2.34"
     stroke="#000000"
     class="Stem" />
  <polyline
     transform="translate(-360,-2349.4156)"
     id="polyline3526"
     points="1973.79,2573.16 1973.79,2448.43"
     stroke-linejoin="bevel"
     stroke-width="2.34"
     stroke="#000000"
     class="Stem" />
  <polyline
     transform="translate(-360,-2349.4156)"
     id="polyline3528"
     points="2042.14,2530.68 2042.14,2436.04"
     stroke-linejoin="bevel"
     stroke-width="2.34"
     stroke="#000000"
     class="Stem" />
  <polyline
     transform="translate(-360,-2349.4156)"
     id="polyline3530"
     points="2110.49,2509.44 2110.49,2423.65"
     stroke-linejoin="bevel"
     stroke-width="2.34"
     stroke="#000000"
     class="Stem" />
  <polyline
     transform="translate(-360,-2349.4156)"
     id="polyline3532"
     points="2178.84,2477.58 2178.84,2411.26"
     stroke-linejoin="bevel"
     stroke-width="2.34"
     stroke="#000000"
     class="Stem" />
  <polyline
     transform="translate(-360,-2349.4156)"
     id="polyline3534"
     points="2314.8,2472.53 2314.8,2541.36"
     stroke-linejoin="bevel"
     stroke-width="2.34"
     stroke="#000000"
     class="Stem" />
  <polyline
     transform="translate(-360,-2349.4156)"
     id="polyline3536"
     points="2293.4,2478.39 2293.4,2428.26"
     stroke-linejoin="bevel"
     stroke-width="1.64"
     stroke="#000000"
     class="Stem" />
  <polyline
     transform="translate(-360,-2349.4156)"
     id="polyline3538"
     points="2479.97,2541.3 2479.97,2469.67"
     stroke-linejoin="bevel"
     stroke-width="2.34"
     stroke="#000000"
     class="Stem" />
  <polyline
     transform="translate(-360,-2349.4156)"
     id="polyline3540"
     points="2432.77,2616.45 2432.77,2523.84"
     stroke-linejoin="bevel"
     stroke-width="1.64"
     stroke="#000000"
     class="Stem" />
  <path
     style="stroke-width:0.8496"
     id="path3768"
     d="m 254.3684,208.9526 c -1.52928,-2.80368 -4.75776,-4.33296 -8.66592,-4.33296 -2.88864,0 -6.03216,0.8496 -9.09072,2.46384 -5.60736,2.9736 -9.00576,7.98624 -9.00576,12.3192 0,1.18944 0.25488,2.37888 0.8496,3.48336 1.52928,2.80368 4.75776,4.248 8.66592,4.248 2.88864,0 6.03216,-0.76464 9.09072,-2.37888 5.60736,-2.9736 9.00576,-7.98624 9.00576,-12.3192 0,-1.18944 -0.25488,-2.37888 -0.8496,-3.48336"
     class="Note" />
  <path
     style="stroke-width:0.8496"
     id="path3770"
     d="m 319.0364,187.7126 c -1.52928,-2.80368 -4.75776,-4.33296 -8.66592,-4.33296 -2.88864,0 -6.03216,0.8496 -9.09072,2.46384 -5.60736,2.9736 -9.00576,7.98624 -9.00576,12.3192 0,1.18944 0.25488,2.37888 0.8496,3.48336 1.52928,2.80368 4.75776,4.248 8.66592,4.248 2.88864,0 6.03216,-0.76464 9.09072,-2.37888 5.60736,-2.9736 9.00576,-7.98624 9.00576,-12.3192 0,-1.18944 -0.25488,-2.37888 -0.8496,-3.48336"
     class="Note" />
  <path
     style="stroke-width:0.8496"
     id="path3772"
     d="m 383.7044,166.4726 c -1.52928,-2.80368 -4.75776,-4.33296 -8.66592,-4.33296 -2.88864,0 -6.03216,0.8496 -9.09072,2.46384 -5.60736,2.9736 -9.00576,7.98624 -9.00576,12.3192 0,1.18944 0.25488,2.37888 0.8496,3.48336 1.52928,2.80368 4.75776,4.248 8.66592,4.248 2.88864,0 6.03216,-0.76464 9.09072,-2.37888 5.60736,-2.9736 9.00576,-7.98624 9.00576,-12.3192 0,-1.18944 -0.25488,-2.37888 -0.8496,-3.48336"
     class="Note" />
  <path
     style="stroke-width:0.8496"
     id="path3774"
     d="m 448.3724,155.8526 c -1.52928,-2.80368 -4.75776,-4.33296 -8.66592,-4.33296 -2.88864,0 -6.03216,0.8496 -9.09072,2.46384 -5.60736,2.9736 -9.00576,7.98624 -9.00576,12.3192 0,1.18944 0.25488,2.37888 0.8496,3.48336 1.52928,2.80368 4.75776,4.248 8.66592,4.248 2.88864,0 6.03216,-0.76464 9.09072,-2.37888 5.60736,-2.9736 9.00576,-7.98624 9.00576,-12.3192 0,-1.18944 -0.25488,-2.37888 -0.8496,-3.48336"
     class="Note" />
  <path
     style="stroke-width:0.8496"
     id="path3776"
     d="m 513.0404,134.6126 c -1.52928,-2.80368 -4.75776,-4.33296 -8.66592,-4.33296 -2.88864,0 -6.03216,0.8496 -9.09072,2.46384 -5.60736,2.9736 -9.00576,7.98624 -9.00576,12.3192 0,1.18944 0.25488,2.37888 0.8496,3.48336 1.52928,2.80368 4.75776,4.248 8.66592,4.248 2.88864,0 6.03216,-0.76464 9.09072,-2.37888 5.60736,-2.9736 9.00576,-7.98624 9.00576,-12.3192 0,-1.18944 -0.25488,-2.37888 -0.8496,-3.48336"
     class="Note" />
  <path
     style="stroke-width:0.8496"
     id="path3778"
     d="m 577.7094,113.3726 c -1.52928,-2.80368 -4.75776,-4.33296 -8.66592,-4.33296 -2.88864,0 -6.03216,0.8496 -9.09072,2.46384 -5.60736,2.9736 -9.00576,7.98624 -9.00576,12.3192 0,1.18944 0.25488,2.37888 0.8496,3.48336 1.52928,2.80368 4.75776,4.248 8.66592,4.248 2.88864,0 6.03216,-0.76464 9.09072,-2.37888 5.60736,-2.9736 9.00576,-7.98624 9.00576,-12.3192 0,-1.18944 -0.25488,-2.37888 -0.8496,-3.48336"
     class="Note" />
  <path
     style="stroke-width:0.8496"
     id="path3780"
     d="m 642.3774,102.7526 c -1.52928,-2.803682 -4.75776,-4.332962 -8.66592,-4.332962 -2.88864,0 -6.03216,0.8496 -9.09072,2.463842 -5.60736,2.9736 -9.00576,7.98624 -9.00576,12.3192 0,1.18944 0.25488,2.37888 0.8496,3.48336 1.52928,2.80368 4.75776,4.248 8.66592,4.248 2.88864,0 6.03216,-0.76464 9.09072,-2.37888 5.60736,-2.9736 9.00576,-7.98624 9.00576,-12.3192 0,-1.18944 -0.25488,-2.37888 -0.8496,-3.48336"
     class="Note" />
  <path
     style="stroke-width:0.8496"
     id="path3782"
     d="m 707.0424,92.132598 c -1.52928,-2.80368 -4.75776,-4.33296 -8.66592,-4.33296 -2.88864,0 -6.03216,0.8496 -9.09072,2.46384 -5.60736,2.9736 -9.00576,7.98624 -9.00576,12.319202 0,1.18944 0.25488,2.37888 0.8496,3.48336 1.52928,2.80368 4.75776,4.248 8.66592,4.248 2.88864,0 6.03216,-0.76464 9.09072,-2.37888 5.60736,-2.9736 9.00576,-7.986242 9.00576,-12.319202 0,-1.18944 -0.25488,-2.37888 -0.8496,-3.48336"
     class="Note" />
  <path
     style="stroke-width:0.8496"
     id="path3784"
     d="m 771.7124,123.9926 c -1.52928,-2.80368 -4.75776,-4.33296 -8.66592,-4.33296 -2.88864,0 -6.03216,0.8496 -9.09072,2.46384 -5.60736,2.9736 -9.00576,7.98624 -9.00576,12.3192 0,1.18944 0.25488,2.37888 0.8496,3.48336 1.52928,2.80368 4.75776,4.248 8.66592,4.248 2.88864,0 6.03216,-0.76464 9.09072,-2.37888 5.60736,-2.9736 9.00576,-7.98624 9.00576,-12.3192 0,-1.18944 -0.25488,-2.37888 -0.8496,-3.48336"
     class="Note" />
  <path
     style="stroke-width:0.8496"
     id="path3786"
     d="m 836.3824,113.3726 c -1.52928,-2.80368 -4.75776,-4.33296 -8.66592,-4.33296 -2.88864,0 -6.03216,0.8496 -9.09072,2.46384 -5.60736,2.9736 -9.00576,7.98624 -9.00576,12.3192 0,1.18944 0.25488,2.37888 0.8496,3.48336 1.52928,2.80368 4.75776,4.248 8.66592,4.248 2.88864,0 6.03216,-0.76464 9.09072,-2.37888 5.60736,-2.9736 9.00576,-7.98624 9.00576,-12.3192 0,-1.18944 -0.25488,-2.37888 -0.8496,-3.48336"
     class="Note" />
  <path
     style="stroke-width:0.8496"
     id="path3788"
     d="m 901.0524,155.8526 c -1.52928,-2.80368 -4.75776,-4.33296 -8.66592,-4.33296 -2.88864,0 -6.03216,0.8496 -9.09072,2.46384 -5.60736,2.9736 -9.00576,7.98624 -9.00576,12.3192 0,1.18944 0.25488,2.37888 0.8496,3.48336 1.52928,2.80368 4.75776,4.248 8.66592,4.248 2.88864,0 6.03216,-0.76464 9.09072,-2.37888 5.60736,-2.9736 9.00576,-7.98624 9.00576,-12.3192 0,-1.18944 -0.25488,-2.37888 -0.8496,-3.48336"
     class="Note" />
  <path
     style="stroke-width:0.8496"
     id="path3790"
     d="m 995.0324,145.2326 c -1.52928,-2.80368 -4.75776,-4.33296 -8.66592,-4.33296 -2.88864,0 -6.03216,0.8496 -9.09072,2.46384 -5.60736,2.9736 -9.00576,7.98624 -9.00576,12.3192 0,1.18944 0.25488,2.37888 0.8496,3.48336 1.52928,2.80368 4.75776,4.248 8.66592,4.248 2.88864,0 6.03216,-0.76464 9.09072,-2.37888 5.60736,-2.9736 9.00576,-7.98624 9.00576,-12.3192 0,-1.18944 -0.25488,-2.37888 -0.8496,-3.48336"
     class="Note" />
  <path
     style="stroke-width:0.8496"
     id="path3792"
     d="m 1063.3824,134.6126 c -1.5293,-2.80368 -4.7578,-4.33296 -8.6659,-4.33296 -2.8887,0 -6.0322,0.8496 -9.0907,2.46384 -5.6074,2.9736 -9.0058,7.98624 -9.0058,12.3192 0,1.18944 0.2549,2.37888 0.8496,3.48336 1.5293,2.80368 4.7578,4.248 8.6659,4.248 2.8887,0 6.0322,-0.76464 9.0907,-2.37888 5.6074,-2.9736 9.0058,-7.98624 9.0058,-12.3192 0,-1.18944 -0.2549,-2.37888 -0.8496,-3.48336"
     class="Note" />
  <path
     style="stroke-width:0.8496"
     id="path3794"
     d="m 1106.1024,145.2326 c -1.5293,-2.80368 -4.7578,-4.33296 -8.6659,-4.33296 -2.8887,0 -6.0322,0.8496 -9.0907,2.46384 -5.6074,2.9736 -9.0058,7.98624 -9.0058,12.3192 0,1.18944 0.2549,2.37888 0.8496,3.48336 1.5293,2.80368 4.7578,4.248 8.6659,4.248 2.8887,0 6.0322,-0.76464 9.0907,-2.37888 5.6074,-2.9736 9.0058,-7.98624 9.0058,-12.3192 0,-1.18944 -0.2549,-2.37888 -0.8496,-3.48336"
     class="Note" />
  <path
     style="stroke-width:0.8496"
     id="path3796"
     d="m 1160.9724,155.8526 c -1.5293,-2.80368 -4.7578,-4.33296 -8.6659,-4.33296 -2.8887,0 -6.0322,0.8496 -9.0907,2.46384 -5.6074,2.9736 -9.0058,7.98624 -9.0058,12.3192 0,1.18944 0.2549,2.37888 0.8496,3.48336 1.5293,2.80368 4.7578,4.248 8.6659,4.248 2.8887,0 6.0322,-0.76464 9.0907,-2.37888 5.6074,-2.9736 9.0058,-7.98624 9.0058,-12.3192 0,-1.18944 -0.2549,-2.37888 -0.8496,-3.48336"
     class="Note" />
  <path
     style="stroke-width:0.8496"
     id="path3798"
     d="m 1229.3224,166.4726 c -1.5293,-2.80368 -4.7578,-4.33296 -8.6659,-4.33296 -2.8887,0 -6.0322,0.8496 -9.0907,2.46384 -5.6074,2.9736 -9.0058,7.98624 -9.0058,12.3192 0,1.18944 0.2549,2.37888 0.8496,3.48336 1.5293,2.80368 4.7578,4.248 8.6659,4.248 2.8887,0 6.0322,-0.76464 9.0907,-2.37888 5.6074,-2.9736 9.0058,-7.98624 9.0058,-12.3192 0,-1.18944 -0.2549,-2.37888 -0.8496,-3.48336"
     class="Note" />
  <path
     style="stroke-width:0.8496"
     id="path3800"
     d="m 1297.6724,177.0926 c -1.5293,-2.80368 -4.7578,-4.33296 -8.6659,-4.33296 -2.8887,0 -6.0322,0.8496 -9.0907,2.46384 -5.6074,2.9736 -9.0058,7.98624 -9.0058,12.3192 0,1.18944 0.2549,2.37888 0.8496,3.48336 1.5293,2.80368 4.7578,4.248 8.6659,4.248 2.8887,0 6.0322,-0.76464 9.0907,-2.37888 5.6074,-2.9736 9.0058,-7.98624 9.0058,-12.3192 0,-1.18944 -0.2549,-2.37888 -0.8496,-3.48336"
     class="Note" />
  <path
     style="stroke-width:0.8496"
     id="path3802"
     d="m 1366.0224,187.7126 c -1.5293,-2.80368 -4.7578,-4.33296 -8.6659,-4.33296 -2.8887,0 -6.0322,0.8496 -9.0907,2.46384 -5.6074,2.9736 -9.0058,7.98624 -9.0058,12.3192 0,1.18944 0.2549,2.37888 0.8496,3.48336 1.5293,2.80368 4.7578,4.248 8.6659,4.248 2.8887,0 6.0322,-0.76464 9.0907,-2.37888 5.6074,-2.9736 9.0058,-7.98624 9.0058,-12.3192 0,-1.18944 -0.2549,-2.37888 -0.8496,-3.48336"
     class="Note" />
  <path
     style="stroke-width:0.8496"
     id="path3804"
     d="m 1434.5324,198.3326 c -1.5293,-2.80368 -4.7578,-4.33296 -8.6659,-4.33296 -2.8887,0 -6.0322,0.8496 -9.0907,2.46384 -5.6074,2.9736 -9.0058,7.98624 -9.0058,12.3192 0,1.18944 0.2549,2.37888 0.8496,3.48336 1.5293,2.80368 4.7578,4.248 8.6659,4.248 2.8887,0 6.0322,-0.76464 9.0907,-2.37888 5.6074,-2.9736 9.0058,-7.98624 9.0058,-12.3192 0,-1.18944 -0.2549,-2.37888 -0.8496,-3.48336"
     class="Note" />
  <path
     style="stroke-width:0.8496"
     id="path3806"
     d="m 1477.2524,187.7126 c -1.5293,-2.80368 -4.7578,-4.33296 -8.6659,-4.33296 -2.8887,0 -6.0322,0.8496 -9.0907,2.46384 -5.6074,2.9736 -9.0058,7.98624 -9.0058,12.3192 0,1.18944 0.2549,2.37888 0.8496,3.48336 1.5293,2.80368 4.7578,4.248 8.6659,4.248 2.8887,0 6.0322,-0.76464 9.0907,-2.37888 5.6074,-2.9736 9.0058,-7.98624 9.0058,-12.3192 0,-1.18944 -0.2549,-2.37888 -0.8496,-3.48336"
     class="Note" />
  <path
     style="stroke-width:0.8496"
     id="path3808"
     d="m 1545.7624,230.1926 c -1.5293,-2.80368 -4.7578,-4.33296 -8.6659,-4.33296 -2.8887,0 -6.0322,0.8496 -9.0907,2.46384 -5.6074,2.9736 -9.0058,7.98624 -9.0058,12.3192 0,1.18944 0.2549,2.37888 0.8496,3.48336 1.5293,2.80368 4.7578,4.248 8.6659,4.248 2.8887,0 6.0322,-0.76464 9.0907,-2.37888 5.6074,-2.9736 9.0058,-7.98624 9.0058,-12.3192 0,-1.18944 -0.2549,-2.37888 -0.8496,-3.48336"
     class="Note" />
  <path
     style="stroke-width:0.8496"
     id="path3810"
     d="m 1614.1124,219.5726 c -1.5293,-2.80368 -4.7578,-4.33296 -8.6659,-4.33296 -2.8887,0 -6.0322,0.8496 -9.0907,2.46384 -5.6074,2.9736 -9.0058,7.98624 -9.0058,12.3192 0,1.18944 0.2549,2.37888 0.8496,3.48336 1.5293,2.80368 4.7578,4.248 8.6659,4.248 2.8887,0 6.0322,-0.76464 9.0907,-2.37888 5.6074,-2.9736 9.0058,-7.98624 9.0058,-12.3192 0,-1.18944 -0.2549,-2.37888 -0.8496,-3.48336"
     class="Note" />
  <path
     style="stroke-width:0.8496"
     id="path3812"
     d="m 1682.4624,177.0926 c -1.5293,-2.80368 -4.7578,-4.33296 -8.6659,-4.33296 -2.8887,0 -6.0322,0.8496 -9.0907,2.46384 -5.6074,2.9736 -9.0058,7.98624 -9.0058,12.3192 0,1.18944 0.2549,2.37888 0.8496,3.48336 1.5293,2.80368 4.7578,4.248 8.6659,4.248 2.8887,0 6.0322,-0.76464 9.0907,-2.37888 5.6074,-2.9736 9.0058,-7.98624 9.0058,-12.3192 0,-1.18944 -0.2549,-2.37888 -0.8496,-3.48336"
     class="Note" />
  <path
     style="stroke-width:0.8496"
     id="path3814"
     d="m 1750.8124,155.8526 c -1.5293,-2.80368 -4.7578,-4.33296 -8.6659,-4.33296 -2.8887,0 -6.0322,0.8496 -9.0907,2.46384 -5.6074,2.9736 -9.0058,7.98624 -9.0058,12.3192 0,1.18944 0.2549,2.37888 0.8496,3.48336 1.5293,2.80368 4.7578,4.248 8.6659,4.248 2.8887,0 6.0322,-0.76464 9.0907,-2.37888 5.6074,-2.9736 9.0058,-7.98624 9.0058,-12.3192 0,-1.18944 -0.2549,-2.37888 -0.8496,-3.48336"
     class="Note" />
  <path
     style="stroke-width:0.8496"
     id="path3816"
     d="m 1819.1624,123.9926 c -1.5293,-2.80368 -4.7578,-4.33296 -8.6659,-4.33296 -2.8887,0 -6.0322,0.8496 -9.0907,2.46384 -5.6074,2.9736 -9.0058,7.98624 -9.0058,12.3192 0,1.18944 0.2549,2.37888 0.8496,3.48336 1.5293,2.80368 4.7578,4.248 8.6659,4.248 2.8887,0 6.0322,-0.76464 9.0907,-2.37888 5.6074,-2.9736 9.0058,-7.98624 9.0058,-12.3192 0,-1.18944 -0.2549,-2.37888 -0.8496,-3.48336"
     class="Note" />
  <path
     style="stroke-width:0.8496"
     id="path3818"
     d="m 1980.3924,113.3726 c -1.5293,-2.80368 -4.7578,-4.33296 -8.6659,-4.33296 -2.8887,0 -6.0322,0.8496 -9.0907,2.46384 -5.6074,2.9736 -9.0058,7.98624 -9.0058,12.3192 0,1.18944 0.2549,2.37888 0.8496,3.48336 1.5293,2.80368 4.7578,4.248 8.6659,4.248 2.8887,0 6.0322,-0.76464 9.0907,-2.37888 5.6074,-2.9736 9.0058,-7.98624 9.0058,-12.3192 0,-1.18944 -0.2549,-2.37888 -0.8496,-3.48336"
     class="Note" />
  <path
     style="stroke-width:0.59472"
     id="path3820"
     d="m 1933.6337,126.05713 c -1.0705,-1.96258 -3.3305,-3.03308 -6.0662,-3.03308 -2.022,0 -4.2225,0.59472 -6.3635,1.72469 -3.9251,2.08152 -6.304,5.59037 -6.304,8.62344 0,0.83261 0.1784,1.66522 0.5947,2.43835 1.0705,1.96258 3.3305,2.9736 6.0662,2.9736 2.022,0 4.2225,-0.53524 6.3635,-1.66521 3.9251,-2.08152 6.304,-5.59037 6.304,-8.62344 0,-0.83261 -0.1784,-1.66522 -0.5947,-2.43835"
     class="Note" />
  <path
     style="stroke-width:0.8496"
     id="path3822"
     d="m 2120.2924,187.7126 c -1.5293,-2.80368 -4.7578,-4.33296 -8.6659,-4.33296 -2.8887,0 -6.0322,0.8496 -9.0907,2.46384 -5.6074,2.9736 -9.0058,7.98624 -9.0058,12.3192 0,1.18944 0.2549,2.37888 0.8496,3.48336 1.5293,2.80368 4.7578,4.248 8.6659,4.248 2.8887,0 6.0322,-0.76464 9.0907,-2.37888 5.6074,-2.9736 9.0058,-7.98624 9.0058,-12.3192 0,-1.18944 -0.2549,-2.37888 -0.8496,-3.48336 m -3.6533,5.77728 c -1.4443,1.44432 -4.3329,3.22848 -7.3915,4.92768 -3.0586,1.6992 -6.1171,2.9736 -8.1562,3.3984 -0.4248,0.085 -0.8496,0.16992 -1.2744,0.16992 -1.3593,0 -2.3788,-0.50976 -2.9736,-1.61424 -0.2548,-0.4248 -0.4248,-0.93456 -0.4248,-1.44432 0,-0.93456 0.5948,-2.03904 1.5293,-2.9736 1.4443,-1.44432 4.248,-3.22848 7.3066,-4.92768 3.0585,-1.6992 6.1171,-2.9736 8.1561,-3.3984 0.4248,-0.085 0.8496,-0.16992 1.2744,-0.16992 1.3594,0 2.4639,0.50976 3.0586,1.61424 0.2549,0.4248 0.3398,0.93456 0.3398,1.44432 0,0.93456 -0.5097,1.95408 -1.4443,2.9736"
     class="Note" />
  <path
     style="stroke-width:0.59472"
     id="path3824"
     d="m 2072.9937,264.11713 c -1.0705,-1.96258 -3.3305,-3.03308 -6.0662,-3.03308 -2.022,0 -4.2225,0.59472 -6.3635,1.72469 -3.9251,2.08152 -6.304,5.59037 -6.304,8.62344 0,0.83261 0.1784,1.66522 0.5947,2.43835 1.0705,1.96258 3.3305,2.9736 6.0662,2.9736 2.022,0 4.2225,-0.53524 6.3635,-1.66521 3.9251,-2.08152 6.304,-5.59037 6.304,-8.62344 0,-0.83261 -0.1784,-1.66522 -0.5947,-2.43835"
     class="Note" />
  <path
     style="stroke-width:0.59472"
     id="path3826"
     d="m 2072.9937,221.63713 c -1.0705,-1.96258 -3.3305,-3.03308 -6.0662,-3.03308 -2.022,0 -4.2225,0.59472 -6.3635,1.72469 -3.9251,2.08152 -6.304,5.59037 -6.304,8.62344 0,0.83261 0.1784,1.66522 0.5947,2.43835 1.0705,1.96258 3.3305,2.9736 6.0662,2.9736 2.022,0 4.2225,-0.53524 6.3635,-1.66521 3.9251,-2.08152 6.304,-5.59037 6.304,-8.62344 0,-0.83261 -0.1784,-1.66522 -0.5947,-2.43835"
     class="Note" />
  <path
     style="stroke-width:0.8496"
     id="path3834"
     d="m 70.81416,157.74727 c -1.045008,-4.61339 -3.287952,-7.85878 -3.95064,-8.74245 -2.710224,-3.62779 -6.11712,-6.04915 -10.101744,-7.19611 -2.642256,-0.75606 -5.191056,-0.8496 -7.247088,-0.69667 -0.883584,-5.1061 -1.733184,-10.10166 -2.50632,-14.73198 4.63032,-5.24212 7.705872,-10.1698 9.64296,-13.82308 2.948112,-5.59028 3.925152,-9.48145 3.967632,-9.65137 1.461312,-4.4265 1.767168,-10.96842 0.832608,-17.943551 -0.858096,-6.41448 -2.63376,-12.115381 -4.63032,-14.876581 -0.875088,-1.214928 -1.767168,-1.835136 -2.650752,-1.835136 -1.036512,0 -3.169008,1.053504 -5.624352,3.406896 -1.95408,1.86912 -4.732272,5.174064 -6.907248,10.28016 -2.5488,5.998261 -2.727216,14.06088 -2.429856,19.770192 0.322848,6.17659 1.265904,11.0109 1.2744,11.05338 0.01699,0.0764 0.237888,1.35078 0.620208,3.53425 -0.195408,0.19541 -0.399312,0.38232 -0.611712,0.58631 -0.883584,0.8496 -1.894608,1.81806 -3.067056,2.99051 -0.730656,0.73074 -1.537776,1.50379 -2.387376,2.3279 -7.17912,6.91583 -18.045504,17.38282 -18.045504,33.65266 0,3.99312 0.76464,7.74837 2.276911,11.15531 1.350898,3.05856 3.304978,5.84527 5.794289,8.28362 6.567408,6.41448 15.564672,9.14161 21.562848,9.00576 2.50632,-0.0595 4.740768,-0.26346 6.771312,-0.64578 1.554768,8.15616 2.523312,14.12885 2.557296,18.66571 0.03398,5.5309 -1.367856,8.90381 -4.681296,11.2572 -2.064528,1.46981 -4.451904,2.27693 -7.085664,2.40437 -2.200464,0.10195 -4.12056,-0.29736 -5.335488,-0.64561 h -0.0085 c 0,0 -0.246384,-0.068 -0.25488,-0.23789 -0.0085,-0.15301 0.288864,-0.19549 0.29736,-0.19549 h 0.01699 c 1.631232,-0.37374 4.664304,-1.41875 6.66936,-4.22243 1.52928,-2.14099 2.268432,-6.06623 0.705168,-9.41365 -0.943056,-2.03046 -3.075552,-4.53678 -7.850304,-4.9191 -2.115504,-0.16992 -4.044096,0.26329 -5.743296,1.28281 -1.537776,0.91757 -2.812176,2.31091 -3.704256,4.01011 -2.090016,3.99312 -1.6992,8.86133 0.960048,12.12388 2.514816,3.07555 6.439968,5.03804 11.053296,5.53081 0.72216,0.0765 1.44432,0.11045 2.16648,0.11045 3.763728,0 7.501968,-1.01952 10.53504,-2.89714 3.109536,-2.18347 4.910688,-5.56488 5.488416,-10.34804 0.475776,-3.94223 0.144432,-8.96328 -1.045008,-15.81964 -0.305856,-1.77566 -0.76464,-4.34995 -1.325376,-7.54436 4.8852,-1.63132 8.419536,-4.66439 11.622528,-9.63455 2.795184,-4.87664 3.593808,-10.0592 2.37888,-15.41168 m -29.064816,22.25096 c -3.942144,-1.03651 -7.705872,-3.16051 -10.900368,-6.13411 -1.112976,-1.04501 -2.701728,-2.88864 -3.95064,-5.76874 -1.163952,-2.68478 -1.724705,-5.59889 -1.682225,-8.64891 0.05949,-3.98465 1.172465,-8.07976 3.304961,-12.14926 2.480832,-4.74085 6.355008,-9.43914 11.503584,-13.96751 1.23192,-1.0874 2.395872,-2.17489 3.491856,-3.26246 0.645696,3.61938 1.350864,7.60392 2.098512,11.75005 -3.27096,1.07891 -7.30656,3.75515 -9.948816,8.55539 -3.007584,5.58189 -2.88864,10.2717 -2.268432,13.22829 0.798624,3.78926 2.948112,6.98373 5.887728,8.75944 0.790128,0.47569 4.298976,2.28534 5.86224,1.79257 0.314352,-0.10195 0.543744,-0.28886 0.662688,-0.56923 0.433296,-0.99403 -0.433296,-1.53769 -1.758672,-2.35339 -0.50976,-0.31429 -1.078992,-0.67114 -1.6992,-1.12141 -2.820672,-2.11553 -4.052592,-5.89625 -3.14352,-9.61749 0.492768,-2.03904 1.580256,-3.87422 3.14352,-5.31854 1.418832,-1.31688 3.152016,-2.25144 5.174064,-2.7951 1.733184,9.54942 3.48336,19.02246 4.876704,26.1252 0.110448,0.58614 0.229392,1.15537 0.33984,1.7246 -3.721248,0.79013 -7.417008,0.71375 -10.993824,-0.22939 M 51.36681,151.8085 c 8.79336,-0.39931 12.421152,5.92176 13.177296,10.02532 0.399312,2.14947 0.390816,5.92172 -0.917568,9.49849 -0.994032,2.70173 -3.084048,6.1596 -7.442496,7.90986 -0.05947,-0.35683 -0.12744,-0.72216 -0.195408,-1.08757 -1.308384,-7.45093 -2.956608,-16.78806 -4.621824,-26.3461 M 45.147744,91.537878 c 1.512288,-4.876619 3.840192,-7.637819 5.530896,-9.107627 1.4868,-1.291392 2.88864,-1.894693 3.670272,-1.894693 0.118944,0 0.220896,0.01699 0.305856,0.04248 0.390816,0.118944 0.841104,0.603301 1.240416,1.342453 1.962576,3.644699 1.333872,9.3456 0.195408,13.117739 -1.384848,4.58784 -3.86568,9.36259 -11.34216,17.52725 -0.144432,-0.94306 -0.280368,-1.83514 -0.407808,-2.66766 -1.062,-7.04327 -0.790128,-13.219862 0.80712,-18.359942"
     class="Clef" />
  <path
     style="stroke-width:0.8496"
     id="path3842"
     d="m 109.66996,134.78252 c -0.50976,-3.31344 -2.5488,-6.45696 -6.88176,-6.45696 -4.248,0 -6.71184,2.63376 -7.13664,3.14352 l 0.33984,-27.27216 c 0,-0.67968 -0.50976,-1.18944 -1.18944,-1.18944 h -1.01952 c -0.67968,0 -1.18944,0.50976 -1.18944,1.18944 l 0.4248,51.06096 c 0,0.67968 0.50976,1.18944 1.18944,1.18944 0.16992,0 0.50976,-0.085 0.67968,-0.16992 0.33984,-0.16992 5.86224,-2.88864 10.45008,-8.0712 3.22848,-3.65328 4.50288,-7.81632 4.50288,-11.29968 0,-0.76464 -0.085,-1.44432 -0.16992,-2.124 m -5.86224,3.31344 c 0,1.2744 -0.33984,5.18256 -2.46384,8.41104 -1.44432,2.20896 -4.33296,4.50288 -5.9472,5.77728 l 0.25488,-16.5672 c 0.16992,-0.76464 1.44432,-3.22848 4.84272,-3.22848 3.05856,0 3.31344,2.88864 3.31344,4.6728 v 0.93456"
     class="KeySig" />
  <path
     style="stroke-width:0.8496"
     id="path3886"
     d="m 1987.5361,44.037158 -2.0391,-1.2744 -5.0126,8.0712 -6.7968,-10.70496 c -0.1699,-0.33984 -0.6797,-0.59472 -1.0195,-0.59472 -0.3399,0 -0.7647,0.25488 -0.9346,0.59472 l -2.9736,5.01264 v -10.1952 c 0,-0.67968 -0.5097,-1.18944 -1.1894,-1.18944 h -0.6797 c -0.6797,0 -1.1894,0.50976 -1.1894,1.18944 v 15.46272 l -0.085,0.08496 -6.287,-10.36512 c -0.17,-0.33984 -0.6797,-0.59472 -1.0196,-0.59472 -0.3398,0 -0.8496,0.25488 -1.0195,0.59472 l -9.9403,16.39728 2.039,1.2744 5.0127,-8.32608 6.287,10.53504 c 0.1699,0.33984 0.6797,0.59472 1.0195,0.59472 0.3399,0 0.8496,-0.25488 1.0196,-0.59472 l 2.9736,-5.01264 v 10.95984 c 0,0.67968 0.5097,1.18944 1.1894,1.18944 h 0.6797 c 0.6797,0 1.1894,-0.50976 1.1894,-1.18944 v -16.22736 l 0.1699,-0.25488 6.6269,10.53504 c 0.1699,0.33984 0.6797,0.59472 1.0195,0.59472 0.3399,0 0.8496,-0.25488 1.0196,-0.59472 l 9.9403,-15.97248"
     class="Articulation" />
  <path
     id="path3966"
     d="m 188.206,51.224358 h 196.341 v 10.62 H 188.206 v -10.62"
     fill-rule="evenodd"
     class="Beam" />
  <path
     id="path3968"
     d="m 188.206,67.154358 h 196.341 v 10.62 H 188.206 v -10.62"
     fill-rule="evenodd"
     class="Beam" />
  <path
     id="path3970"
     d="m 421.61,221.10436 196.341,-26.87 v 10.71 l -196.341,26.87 v -10.71"
     fill-rule="evenodd"
     class="Beam" />
  <path
     id="path3972"
     d="m 421.61,205.17436 196.341,-26.87 v 10.71 l -196.341,26.87 v -10.71"
     fill-rule="evenodd"
     class="Beam" />
  <path
     id="path3974"
     d="m 680.28,194.55436 196.34,26.87 v 10.71 l -196.34,-26.87 v -10.71"
     fill-rule="evenodd"
     class="Beam" />
  <path
     id="path3976"
     d="m 680.28,178.62436 196.34,26.87 v 10.71 l -196.34,-26.87 v -10.71"
     fill-rule="evenodd"
     class="Beam" />
  <path
     id="path3978"
     d="m 993.54,56.534358 h 236.62 v 10.62 H 993.54 v -10.62"
     fill-rule="evenodd"
     class="Beam" />
  <path
     id="path3980"
     d="m 993.54,72.464358 h 236.62 v 10.62 H 993.54 v -10.62"
     fill-rule="evenodd"
     class="Beam" />
  <path
     id="path3982"
     d="m 1061.89,88.394358 h 45.05 v 10.62 h -45.05 v -10.62"
     fill-rule="evenodd"
     class="Beam" />
  <path
     id="path3984"
     d="m 1296.18,77.564358 250.43,21.44 V 109.65436 L 1296.18,88.214358 v -10.65"
     fill-rule="evenodd"
     class="Beam" />
  <path
     id="path3986"
     d="m 1296.18,93.494358 250.43,21.440002 v 10.65 l -250.43,-21.44 V 93.494358"
     fill-rule="evenodd"
     class="Beam" />
  <path
     id="path3988"
     d="m 1364.53,115.27436 70.85,6.06 v 10.66 l -70.85,-6.06 v -10.66"
     fill-rule="evenodd"
     class="Beam" />
  <path
     id="path3990"
     d="m 1612.62,94.044358 207.39,-37.59 v 10.79 L 1612.62,104.83436 V 94.044358"
     fill-rule="evenodd"
     class="Beam" />
  <path
     id="path3992"
     d="m 1612.62,109.97436 207.39,-37.590002 v 10.79 l -207.39,37.590002 v -10.79"
     fill-rule="evenodd"
     class="Beam" />
  <path
     style="stroke-width:0.59472"
     id="path4030"
     d="m 1949.2422,105.90412 c -0.059,-3.09255 -0.7732,-6.304034 -2.8547,-8.980274 -2.8547,-3.687264 -6.6014,-5.530896 -8.8613,-8.801856 -2.26,-3.27096 -3.2115,-9.634464 -3.2115,-9.634464 -0.059,-0.416304 -0.1784,-0.713664 -0.8921,-0.713664 -0.7137,0 -0.8326,0.29736 -0.8326,0.713664 v 9.456048 3.508848 6.958224 2.854654 c 0,0.11895 0.4163,0.47578 0.8326,0.59472 1.5463,0.59472 6.2446,3.50885 9.8129,8.80186 2.141,3.27096 2.4978,5.47142 2.4978,7.61241 v 0.6542 c -0.06,1.4868 -0.4163,4.51987 -1.3084,6.89875 -0.1784,0.53525 -0.4757,1.30838 0.119,1.60574 0.5947,0.29736 0.9515,-0.35683 1.2489,-0.77313 1.0705,-1.72469 2.6168,-4.87671 2.6168,-8.26661 0,-1.66522 -0.119,-3.15202 -0.2974,-4.40093 0.5947,-2.14099 1.13,-4.81723 1.13,-7.61242 v -0.47577 m -4.2226,0.83261 c -1.6057,-2.08152 -3.3899,-3.98463 -6.304,-6.898756 -2.3194,-2.319408 -3.3899,-4.341456 -3.8062,-5.887728 -0.06,-0.118944 -0.06,-0.356832 -0.1189,-0.535248 l 0.059,0.237888 c 2.6763,0.237888 6.3041,2.914128 8.564,5.64984 2.6762,3.211484 3.2115,5.709314 3.2115,8.028724 0,0.59472 0,1.12996 -0.059,1.72468 -0.3568,-0.65419 -1.0705,-1.72468 -1.5463,-2.3194"
     class="Hook" />
  <path
     style="stroke-width:0.59472"
     id="path4032"
     d="m 2074.0315,176.50588 c -0.059,-0.17842 -0.5947,-2.25994 -0.5947,-2.37888 -0.059,-0.23789 -0.4163,-0.41631 -0.7137,-0.41631 -0.4163,0 -0.7731,0.35684 -0.7731,0.77314 v 9.75341 3.68726 c 0,0.29736 0.2379,0.53525 0.4758,0.65419 2.4978,0.77314 7.6719,4.0441 11.5375,10.64549 1.0705,1.84363 2.7952,4.34146 2.7952,9.33711 0,4.28198 -0.6542,8.80185 -1.7247,12.96489 -0.1784,0.65419 -0.3568,1.24891 0.2974,1.4868 0.6542,0.23789 0.8921,-0.23789 1.13,-0.83261 2.141,-5.23353 2.6762,-10.70496 2.6762,-14.39222 v -1.12997 c -0.2974,-7.67189 -4.6983,-13.32173 -4.6983,-13.32173 0.1784,0 -5.4714,-7.31505 -7.0771,-9.81288 -2.2005,-3.3899 -3.271,-6.7798 -3.3305,-7.01769"
     class="Hook" />
  <path
     id="path4194"
     d="m 249.391,37.374358 h -1.496 l -0.34,1.74 c -0.442,2.21 -0.714,2.41 -2.822,2.41 h -7.616 c 2.346,-2.45 3.128,-3.16 5.304,-4.86 3.094,-2.38 4.42,-3.57 5.202,-4.59 1.088,-1.5 1.632,-2.99 1.632,-4.66 0,-3.88 -3.196,-6.63 -7.65,-6.63 -4.318,0 -7.616,2.75 -7.616,6.39 0,2.14 1.088,3.61 2.686,3.61 1.258,0 2.108,-0.85 2.108,-2.08 0,-0.85 -0.476,-1.63 -1.19,-1.94 -1.258,-0.51 -1.326,-0.57 -1.326,-1.02 0,-0.51 0.34,-1.29 0.816,-1.87 0.85,-1.05 2.244,-1.63 3.842,-1.63 2.822,0 4.488,1.74 4.488,4.59 0,2.52 -1.19,4.8 -4.012,7.79 -2.516,2.65 -4.08,4.32 -4.658,4.96 -1.224,1.43 -1.836,2.21 -3.332,4.18 v 0.96 h 15.334 l 0.646,-7.35"
     class="Fingering" />
  <path
     id="path4196"
     d="m 371.568,20.784358 c -1.156,1.39 -4.284,2.45 -7.412,2.52 v 1.46 h 2.992 c 1.972,0.03 2.176,0.24 2.108,2.14 v 13.63 c 0,1.74 0,1.81 -0.204,2.11 -0.272,0.34 -0.918,0.48 -2.822,0.48 h -2.21 v 1.6 h 13.464 v -1.6 h -1.87 c -1.904,0 -2.55,-0.14 -2.822,-0.48 -0.238,-0.3 -0.238,-0.34 -0.238,-2.11 v -14.04 c 0,-1.9 0.068,-3.5 0.238,-5.71 h -1.224"
     class="Fingering" />
  <path
     id="path4198"
     d="m 436.236,64.434358 c -1.156,1.39 -4.284,2.45 -7.412,2.51 v 1.47 h 2.992 c 1.972,0.03 2.176,0.23 2.108,2.14 v 13.63 c 0,1.74 0,1.8 -0.204,2.11 -0.272,0.34 -0.918,0.48 -2.822,0.48 h -2.21 v 1.59 h 13.464 v -1.59 h -1.87 c -1.904,0 -2.55,-0.14 -2.822,-0.48 -0.238,-0.31 -0.238,-0.34 -0.238,-2.11 v -14.04 c 0,-1.9 0.068,-3.5 0.238,-5.71 h -1.224"
     class="Fingering" />
  <path
     id="path4200"
     d="m 503.156,64.434358 -11.56,16.08 v 1.9 h 9.554 v 1.77 c 0,1.74 0,1.8 -0.204,2.11 -0.272,0.37 -0.918,0.48 -2.856,0.48 h -0.374 v 1.59 h 9.928 v -1.59 h -0.136 c -1.938,0 -2.584,-0.11 -2.856,-0.48 -0.204,-0.31 -0.204,-0.34 -0.204,-2.11 v -1.77 h 4.114 v -1.9 h -4.114 v -9.28 c 0,-4.25 0,-4.35 0.17,-6.8 h -1.462 m -2.006,16.08 h -7.48 l 7.48,-10.3 v 10.3"
     class="Fingering" />
  <path
     id="path4202"
     d="m 547.845,51.364358 3.876,-4.52 c 0.85,-0.99 1.632,-1.43 2.55,-1.43 h 0.306 v -1.22 h -7.038 v 1.22 h 0.646 c 1.02,0 1.53,0.24 1.53,0.75 0,0.34 -0.238,0.82 -0.68,1.36 l -2.142,2.58 -2.618,-3.33 c -0.204,-0.27 -0.34,-0.54 -0.34,-0.75 0,-0.44 0.442,-0.61 1.496,-0.61 h 0.476 v -1.22 h -8.058 v 1.22 c 1.258,0.1 1.734,0.41 2.822,1.84 l 4.148,5.2 -3.91,4.56 c -1.156,1.29 -2.142,1.83 -3.06,1.8 h -0.204 v 1.22 h 7.174 v -1.22 h -0.51 c -0.782,0 -0.952,-0.04 -1.19,-0.14 -0.272,-0.17 -0.476,-0.47 -0.476,-0.78 0,-0.24 0.102,-0.54 0.272,-0.75 l 2.856,-3.4 2.584,3.44 c 0.238,0.34 0.442,0.78 0.442,1.02 0,0.44 -0.51,0.61 -1.802,0.61 h -0.238 v 1.22 h 8.568 v -1.22 h -0.238 c -1.19,0 -1.972,-0.44 -2.958,-1.67 l -4.284,-5.78 m 18.692,-15.26 c -1.156,1.39 -4.284,2.44 -7.412,2.51 v 1.46 h 2.992 c 1.972,0.04 2.176,0.24 2.108,2.15 v 13.63 c 0,1.73 0,1.8 -0.204,2.11 -0.272,0.34 -0.918,0.47 -2.822,0.47 h -2.21 v 1.6 h 13.464 v -1.6 h -1.87 c -1.904,0 -2.55,-0.13 -2.822,-0.47 -0.238,-0.31 -0.238,-0.34 -0.238,-2.11 v -14.04 c 0,-1.91 0.068,-3.5 0.238,-5.71 h -1.224"
     class="Fingering" />
  <path
     id="path4204"
     d="m 631.994,74.934358 c 3.094,-1.13 4.522,-2.86 4.522,-5.58 0,-3.57 -2.72,-5.85 -6.936,-5.85 -3.978,0 -7.004,2.35 -7.004,5.44 0,1.4 0.918,2.38 2.244,2.38 1.19,0 2.006,-0.81 2.006,-2.04 0,-0.75 -0.272,-1.19 -1.054,-1.73 -0.34,-0.24 -0.442,-0.38 -0.442,-0.61 0,-0.96 1.972,-1.98 3.91,-1.98 2.448,0 3.74,1.53 3.74,4.42 0,3.17 -1.292,4.83 -3.706,4.83 -0.306,0 -0.884,-0.03 -1.394,-0.07 -0.272,-0.03 -0.544,-0.03 -0.748,-0.03 -0.714,0 -1.088,0.31 -1.088,0.92 0,0.58 0.34,0.85 1.088,0.85 0.204,0 0.476,0 0.782,-0.04 0.68,-0.03 1.224,-0.03 1.598,-0.03 2.516,0 3.876,1.8 3.876,5.17 0,3.53 -1.7,5.51 -4.76,5.51 -2.142,0 -4.454,-1.16 -4.454,-2.21 0,-0.31 0.068,-0.38 0.714,-0.75 0.952,-0.58 1.326,-1.16 1.326,-2.01 0,-1.22 -0.918,-2.14 -2.142,-2.14 -1.462,0 -2.414,1.19 -2.414,2.99 0,3.3 3.026,5.58 7.378,5.58 4.93,0 8.126,-2.72 8.126,-6.9 0,-3.2 -1.632,-5.14 -5.168,-6.12"
     class="Fingering" />
  <path
     id="path4206"
     d="m 697.16,53.384358 -11.56,16.08 v 1.91 h 9.55 v 1.77 c 0,1.73 0,1.8 -0.2,2.1 -0.27,0.38 -0.92,0.48 -2.86,0.48 h -0.37 v 1.6 h 9.93 v -1.6 h -0.14 c -1.94,0 -2.58,-0.1 -2.85,-0.48 -0.21,-0.3 -0.21,-0.34 -0.21,-2.1 v -1.77 h 4.12 v -1.91 h -4.12 v -9.28 c 0,-4.25 0,-4.35 0.17,-6.8 h -1.46 m -2.01,16.08 h -7.48 l 7.48,-10.3 v 10.3"
     class="Fingering" />
  <path
     id="path4208"
     d="m 759.58,64.434358 c -1.16,1.39 -4.29,2.45 -7.42,2.51 v 1.47 h 3 c 1.97,0.03 2.17,0.23 2.1,2.14 v 13.63 c 0,1.74 0,1.8 -0.2,2.11 -0.27,0.34 -0.92,0.48 -2.82,0.48 h -2.21 v 1.59 h 13.46 v -1.59 h -1.87 c -1.9,0 -2.55,-0.14 -2.82,-0.48 -0.24,-0.31 -0.24,-0.34 -0.24,-2.11 v -14.04 c 0,-1.9 0.07,-3.5 0.24,-5.71 h -1.22"
     class="Fingering" />
  <path
     id="path4210"
     d="m 869.31,86.754358 v -21.19 l 2.75,7.14 1.81,-0.81 -4.36,-9.73 -2.61,0.04 -4.32,9.69 1.77,0.81 2.78,-7.14 v 21.19 h 2.18 m 22.2,-23.94 c -1.15,1.39 -4.28,2.45 -7.41,2.52 v 1.46 h 2.99 c 1.97,0.03 2.18,0.24 2.11,2.14 v 13.63 c 0,1.74 0,1.81 -0.2,2.11 -0.28,0.34 -0.92,0.48 -2.83,0.48 h -2.21 v 1.6 h 13.47 v -1.6 h -1.87 c -1.91,0 -2.55,-0.14 -2.82,-0.48 -0.24,-0.3 -0.24,-0.34 -0.24,-2.11 v -14.04 c 0,-1.9 0.07,-3.5 0.24,-5.71 h -1.23"
     class="Fingering" />
  <path
     id="path4212"
     d="m 1053,37.014358 c 3.09,-1.12 4.52,-2.85 4.52,-5.57 0,-3.57 -2.72,-5.85 -6.94,-5.85 -3.98,0 -7,2.35 -7,5.44 0,1.39 0.92,2.38 2.24,2.38 1.19,0 2.01,-0.82 2.01,-2.04 0,-0.75 -0.27,-1.19 -1.06,-1.73 -0.34,-0.24 -0.44,-0.38 -0.44,-0.62 0,-0.95 1.97,-1.97 3.91,-1.97 2.45,0 3.74,1.53 3.74,4.42 0,3.16 -1.29,4.83 -3.7,4.83 -0.31,0 -0.89,-0.03 -1.4,-0.07 -0.27,-0.03 -0.54,-0.03 -0.75,-0.03 -0.71,0 -1.08,0.3 -1.08,0.92 0,0.57 0.34,0.85 1.08,0.85 0.21,0 0.48,0 0.79,-0.04 0.68,-0.03 1.22,-0.03 1.59,-0.03 2.52,0 3.88,1.8 3.88,5.17 0,3.53 -1.7,5.5 -4.76,5.5 -2.14,0 -4.45,-1.15 -4.45,-2.21 0,-0.3 0.06,-0.37 0.71,-0.74 0.95,-0.58 1.33,-1.16 1.33,-2.01 0,-1.22 -0.92,-2.14 -2.15,-2.14 -1.46,0 -2.41,1.19 -2.41,2.99 0,3.3 3.03,5.58 7.38,5.58 4.93,0 8.12,-2.72 8.12,-6.91 0,-3.19 -1.63,-5.13 -5.16,-6.12"
     class="Fingering" />
  <path
     id="path4214"
     d="m 1101.12,42.684358 h -1.49 l -0.34,1.74 c -0.45,2.21 -0.72,2.41 -2.83,2.41 h -7.61 c 2.34,-2.45 3.13,-3.16 5.3,-4.86 3.1,-2.38 4.42,-3.57 5.2,-4.59 1.09,-1.5 1.64,-2.99 1.64,-4.66 0,-3.88 -3.2,-6.63 -7.65,-6.63 -4.32,0 -7.62,2.75 -7.62,6.39 0,2.14 1.09,3.61 2.69,3.61 1.25,0 2.1,-0.85 2.1,-2.08 0,-0.85 -0.47,-1.63 -1.19,-1.94 -1.25,-0.51 -1.32,-0.57 -1.32,-1.02 0,-0.51 0.34,-1.29 0.81,-1.87 0.85,-1.05 2.25,-1.63 3.85,-1.63 2.82,0 4.48,1.74 4.48,4.59 0,2.52 -1.19,4.8 -4.01,7.79 -2.51,2.65 -4.08,4.32 -4.66,4.96 -1.22,1.43 -1.83,2.21 -3.33,4.18 v 0.96 h 15.34 l 0.64,-7.35"
     class="Fingering" />
  <path
     id="path4216"
     d="m 1134.34,39.744358 3.88,-4.52 c 0.85,-0.99 1.63,-1.43 2.55,-1.43 h 0.3 v -1.23 h -7.03 v 1.23 h 0.64 c 1.02,0 1.53,0.24 1.53,0.75 0,0.34 -0.24,0.81 -0.68,1.36 l -2.14,2.58 -2.62,-3.33 c -0.2,-0.27 -0.34,-0.55 -0.34,-0.75 0,-0.44 0.44,-0.61 1.5,-0.61 h 0.47 v -1.23 h -8.05 v 1.23 c 1.25,0.1 1.73,0.41 2.82,1.83 l 4.15,5.21 -3.91,4.55 c -1.16,1.29 -2.15,1.84 -3.06,1.8 h -0.21 v 1.23 h 7.18 v -1.23 h -0.51 c -0.79,0 -0.96,-0.03 -1.19,-0.13 -0.28,-0.17 -0.48,-0.48 -0.48,-0.78 0,-0.24 0.1,-0.55 0.27,-0.75 l 2.86,-3.4 2.58,3.43 c 0.24,0.34 0.44,0.78 0.44,1.02 0,0.44 -0.51,0.61 -1.8,0.61 h -0.24 v 1.23 h 8.57 v -1.23 h -0.24 c -1.19,0 -1.97,-0.44 -2.95,-1.66 l -4.29,-5.78 m 18.69,-15.27 c -1.15,1.4 -4.28,2.45 -7.41,2.52 v 1.46 h 2.99 c 1.98,0.03 2.18,0.24 2.11,2.14 v 13.64 c 0,1.73 0,1.8 -0.2,2.1 -0.27,0.34 -0.92,0.48 -2.82,0.48 h -2.21 v 1.6 h 13.46 v -1.6 h -1.87 c -1.9,0 -2.55,-0.14 -2.82,-0.48 -0.24,-0.3 -0.24,-0.34 -0.24,-2.1 v -14.05 c 0,-1.9 0.07,-3.5 0.24,-5.71 h -1.23"
     class="Fingering" />
  <path
     id="path4218"
     d="m 1219.44,26.094358 -11.56,16.08 v 1.91 h 9.55 v 1.76 c 0,1.74 0,1.81 -0.2,2.11 -0.28,0.38 -0.92,0.48 -2.86,0.48 H 1214 v 1.6 h 9.92 v -1.6 h -0.13 c -1.94,0 -2.59,-0.1 -2.86,-0.48 -0.2,-0.3 -0.2,-0.34 -0.2,-2.11 v -1.76 h 4.11 v -1.91 h -4.11 v -9.28 c 0,-4.25 0,-4.35 0.17,-6.8 h -1.46 m -2.01,16.08 h -7.48 l 7.48,-10.3 v 10.3"
     class="Fingering" />
  <path
     id="path4220"
     d="m 1287.29,58.254358 c 3.09,-1.12 4.52,-2.85 4.52,-5.57 0,-3.57 -2.72,-5.85 -6.94,-5.85 -3.97,0 -7,2.35 -7,5.44 0,1.39 0.92,2.38 2.24,2.38 1.19,0 2.01,-0.82 2.01,-2.04 0,-0.75 -0.27,-1.19 -1.05,-1.73 -0.34,-0.24 -0.45,-0.38 -0.45,-0.62 0,-0.95 1.98,-1.97 3.91,-1.97 2.45,0 3.74,1.53 3.74,4.42 0,3.16 -1.29,4.83 -3.7,4.83 -0.31,0 -0.89,-0.03 -1.4,-0.07 -0.27,-0.03 -0.54,-0.03 -0.74,-0.03 -0.72,0 -1.09,0.3 -1.09,0.92 0,0.57 0.34,0.85 1.09,0.85 0.2,0 0.47,0 0.78,-0.04 0.68,-0.03 1.22,-0.03 1.6,-0.03 2.51,0 3.87,1.8 3.87,5.17 0,3.53 -1.7,5.5 -4.76,5.5 -2.14,0 -4.45,-1.15 -4.45,-2.21 0,-0.3 0.07,-0.37 0.71,-0.74 0.95,-0.58 1.33,-1.16 1.33,-2.01 0,-1.22 -0.92,-2.14 -2.14,-2.14 -1.47,0 -2.42,1.19 -2.42,2.99 0,3.3 3.03,5.58 7.38,5.58 4.93,0 8.13,-2.72 8.13,-6.91 0,-3.19 -1.64,-5.13 -5.17,-6.12"
     class="Fingering" />
  <path
     id="path4222"
     d="m 1342.22,48.584358 -2.18,0.03 v 21.18 l -2.79,-7.14 -1.77,0.78 4.32,9.73 h 2.62 l 4.35,-9.73 -1.8,-0.78 -2.75,7.14 v -21.21 m 28.42,17.23 h -1.5 l -0.34,1.74 c -0.44,2.21 -0.71,2.41 -2.82,2.41 h -7.62 c 2.35,-2.45 3.13,-3.16 5.31,-4.86 3.09,-2.38 4.42,-3.57 5.2,-4.59 1.09,-1.5 1.63,-2.99 1.63,-4.66 0,-3.87 -3.19,-6.63 -7.65,-6.63 -4.32,0 -7.61,2.76 -7.61,6.39 0,2.15 1.08,3.61 2.68,3.61 1.26,0 2.11,-0.85 2.11,-2.08 0,-0.85 -0.48,-1.63 -1.19,-1.93 -1.26,-0.51 -1.33,-0.58 -1.33,-1.02 0,-0.51 0.34,-1.3 0.82,-1.87 0.85,-1.06 2.24,-1.64 3.84,-1.64 2.82,0 4.49,1.74 4.49,4.59 0,2.52 -1.19,4.8 -4.01,7.79 -2.52,2.65 -4.08,4.32 -4.66,4.96 -1.22,1.43 -1.84,2.21 -3.33,4.19 v 0.95 h 15.33 l 0.65,-7.35"
     class="Fingering" />
  <path
     id="path4224"
     d="m 1535.38,76.264358 c 3.1,-1.12 4.52,-2.85 4.52,-5.57 0,-3.57 -2.72,-5.85 -6.93,-5.85 -3.98,0 -7.01,2.34 -7.01,5.44 0,1.39 0.92,2.38 2.25,2.38 1.19,0 2,-0.82 2,-2.04 0,-0.75 -0.27,-1.19 -1.05,-1.74 -0.34,-0.23 -0.44,-0.37 -0.44,-0.61 0,-0.95 1.97,-1.97 3.91,-1.97 2.45,0 3.74,1.53 3.74,4.42 0,3.16 -1.29,4.83 -3.71,4.83 -0.3,0 -0.88,-0.04 -1.39,-0.07 -0.27,-0.03 -0.55,-0.03 -0.75,-0.03 -0.71,0 -1.09,0.3 -1.09,0.91 0,0.58 0.34,0.85 1.09,0.85 0.2,0 0.48,0 0.78,-0.03 0.68,-0.03 1.23,-0.03 1.6,-0.03 2.52,0 3.88,1.8 3.88,5.16 0,3.54 -1.7,5.51 -4.76,5.51 -2.15,0 -4.46,-1.15 -4.46,-2.21 0,-0.3 0.07,-0.37 0.72,-0.75 0.95,-0.57 1.32,-1.15 1.32,-2 0,-1.23 -0.92,-2.14 -2.14,-2.14 -1.46,0 -2.41,1.19 -2.41,2.99 0,3.3 3.02,5.57 7.37,5.57 4.93,0 8.13,-2.72 8.13,-6.9 0,-3.19 -1.63,-5.13 -5.17,-6.12"
     class="Fingering" />
  <path
     id="path4226"
     d="m 1604.23,63.264358 -11.56,16.08 v 1.91 h 9.55 v 1.76 c 0,1.74 0,1.81 -0.2,2.11 -0.27,0.38 -0.92,0.48 -2.86,0.48 h -0.37 v 1.6 h 9.93 v -1.6 h -0.14 c -1.94,0 -2.58,-0.1 -2.85,-0.48 -0.21,-0.3 -0.21,-0.34 -0.21,-2.11 v -1.76 h 4.12 v -1.91 h -4.12 v -9.28 c 0,-4.25 0,-4.35 0.17,-6.8 h -1.46 m -2.01,16.08 h -7.48 l 7.48,-10.3 v 10.3"
     class="Fingering" />
  <path
     id="path4228"
     d="m 1670.33,49.044358 c -1.16,1.4 -4.29,2.45 -7.41,2.52 v 1.46 h 2.99 c 1.97,0.04 2.17,0.24 2.11,2.14 v 13.64 c 0,1.73 0,1.8 -0.21,2.11 -0.27,0.34 -0.92,0.47 -2.82,0.47 h -2.21 v 1.6 h 13.46 v -1.6 h -1.87 c -1.9,0 -2.55,-0.13 -2.82,-0.47 -0.24,-0.31 -0.24,-0.34 -0.24,-2.11 v -14.04 c 0,-1.91 0.07,-3.51 0.24,-5.72 h -1.22"
     class="Fingering" />
</svg>
