<?xml version="1.0" encoding="UTF-8" standalone="no"?>
<svg
   xmlns:dc="http://purl.org/dc/elements/1.1/"
   xmlns:cc="http://creativecommons.org/ns#"
   xmlns:rdf="http://www.w3.org/1999/02/22-rdf-syntax-ns#"
   xmlns:svg="http://www.w3.org/2000/svg"
   xmlns="http://www.w3.org/2000/svg"
   xmlns:sodipodi="http://sodipodi.sourceforge.net/DTD/sodipodi-0.dtd"
   xmlns:inkscape="http://www.inkscape.org/namespaces/inkscape"
   inkscape:version="1.0 (4035a4f, 2020-05-01)"
   sodipodi:docname="snippet30.svg"
   id="svg18512"
   version="1.2"
   viewBox="0 0 2340 242.45769"
   height="242.45769"
   width="2340">
  <metadata
     id="metadata18518">
    <rdf:RDF>
      <cc:Work
         rdf:about="">
        <dc:format>image/svg+xml</dc:format>
        <dc:type
           rdf:resource="http://purl.org/dc/dcmitype/StillImage" />
        <dc:title>Batches2Partita1</dc:title>
      </cc:Work>
    </rdf:RDF>
  </metadata>
  <defs
     id="defs18516" />
  <sodipodi:namedview
     inkscape:current-layer="svg18512"
     inkscape:window-maximized="0"
     inkscape:window-y="23"
     inkscape:window-x="0"
     inkscape:cy="395.19979"
     inkscape:cx="1514.0747"
     inkscape:zoom="0.11466881"
     showgrid="false"
     id="namedview18514"
     inkscape:window-height="480"
     inkscape:window-width="735"
     inkscape:pageshadow="2"
     inkscape:pageopacity="0"
     guidetolerance="10"
     gridtolerance="10"
     objecttolerance="10"
     borderopacity="1"
     bordercolor="#666666"
     pagecolor="#ffffff" />
  <title
     id="title17402">Batches2Partita1</title>
  <desc
     id="desc17404">Generated by MuseScore 3.6.2</desc>
  <polyline
     transform="translate(-360,-1035.45)"
     id="polyline17416"
     points="360,1134.92 2700,1134.92"
     stroke-linejoin="bevel"
     stroke-width="2.34"
     stroke="#000000"
     fill="none"
     class="StaffLines" />
  <polyline
     transform="translate(-360,-1035.45)"
     id="polyline17418"
     points="360,1156.16 2700,1156.16"
     stroke-linejoin="bevel"
     stroke-width="2.34"
     stroke="#000000"
     fill="none"
     class="StaffLines" />
  <polyline
     transform="translate(-360,-1035.45)"
     id="polyline17420"
     points="360,1177.4 2700,1177.4"
     stroke-linejoin="bevel"
     stroke-width="2.34"
     stroke="#000000"
     fill="none"
     class="StaffLines" />
  <polyline
     transform="translate(-360,-1035.45)"
     id="polyline17422"
     points="360,1198.64 2700,1198.64"
     stroke-linejoin="bevel"
     stroke-width="2.34"
     stroke="#000000"
     fill="none"
     class="StaffLines" />
  <polyline
     transform="translate(-360,-1035.45)"
     id="polyline17424"
     points="360,1219.88 2700,1219.88"
     stroke-linejoin="bevel"
     stroke-width="2.34"
     stroke="#000000"
     fill="none"
     class="StaffLines" />
  <path
     id="path17452"
     d="m 527.552,171.69 c 31.963,23.86 91.129,18.55 118.328,-10.62 -26.668,35.09 -85.834,40.4 -118.328,10.62"
     fill-rule="evenodd"
     stroke-linejoin="round"
     stroke-linecap="round"
     stroke-width="1.49"
     stroke="#000000"
     class="SlurSegment" />
  <path
     id="path17454"
     d="m 886.52,182.31 c 3.91,8.31 22.13,14.68 30.37,10.62 -9.22,6.87 -27.44,0.5 -30.37,-10.62"
     fill-rule="evenodd"
     stroke-linejoin="round"
     stroke-linecap="round"
     stroke-width="1.49"
     stroke="#000000"
     class="SlurSegment" />
  <path
     id="path17456"
     d="m 947.26,203.55 c 3.91,8.31 22.14,14.68 30.38,10.62 -9.22,6.87 -27.45,0.5 -30.38,-10.62"
     fill-rule="evenodd"
     stroke-linejoin="round"
     stroke-linecap="round"
     stroke-width="1.49"
     stroke="#000000"
     class="SlurSegment" />
  <path
     id="path17458"
     d="m 1136.92,224.79 c 30.45,-1.38 60.82,-33.24 60.74,-63.72 4.39,34.58 -25.98,66.44 -60.74,63.72"
     fill-rule="evenodd"
     stroke-linejoin="round"
     stroke-linecap="round"
     stroke-width="1.49"
     stroke="#000000"
     class="SlurSegment" />
  <path
     id="path17460"
     d="m 1491.7,101.6 c 22.2,-14.76 52.58,-4.14 60.75,21.24 -10.14,-19.77 -40.51,-30.39 -60.75,-21.24"
     fill-rule="evenodd"
     stroke-linejoin="round"
     stroke-linecap="round"
     stroke-width="1.49"
     stroke="#000000"
     class="SlurSegment" />
  <path
     id="path17462"
     d="m 1937.85,59.12 c 30.94,-23.63 80.38,-13.01 98.88,21.24 -19.75,-28.44 -69.19,-39.06 -98.88,-21.24"
     fill-rule="evenodd"
     stroke-linejoin="round"
     stroke-linecap="round"
     stroke-width="1.49"
     stroke="#000000"
     class="SlurSegment" />
  <path
     id="path17464"
     d="m 2067.1,69.74 c 27.83,-20.89 70.45,-10.27 85.23,21.24 -16.22,-25.74 -58.83,-36.36 -85.23,-21.24"
     fill-rule="evenodd"
     stroke-linejoin="round"
     stroke-linecap="round"
     stroke-width="1.49"
     stroke="#000000"
     class="SlurSegment" />
  <path
     id="path17466"
     d="m 2260.14,80.36 c 17.89,-21.11 51.37,-19.36 66.96,3.5 -15.9,-16.92 -49.38,-18.67 -66.96,-3.5"
     fill-rule="evenodd"
     stroke-linejoin="round"
     stroke-linecap="round"
     stroke-width="1.49"
     stroke="#000000"
     class="SlurSegment" />
  <polyline
     transform="translate(-360,-1035.45)"
     id="polyline17486"
     points="584.364,1133.75 584.364,1221.05"
     stroke-linejoin="bevel"
     stroke-width="3.82"
     stroke="#000000"
     class="BarLine" />
  <polyline
     transform="translate(-360,-1035.45)"
     id="polyline17488"
     points="1205.32,1133.75 1205.32,1221.05"
     stroke-linejoin="bevel"
     stroke-width="3.82"
     stroke="#000000"
     class="BarLine" />
  <polyline
     transform="translate(-360,-1035.45)"
     id="polyline17490"
     points="1810.5,1133.75 1810.5,1221.05"
     stroke-linejoin="bevel"
     stroke-width="3.82"
     stroke="#000000"
     class="BarLine" />
  <polyline
     transform="translate(-360,-1035.45)"
     id="polyline17492"
     points="2559.91,1133.75 2559.91,1221.05"
     stroke-linejoin="bevel"
     stroke-width="3.82"
     stroke="#000000"
     class="BarLine" />
  <path
     style="stroke-width:0.8496"
     id="path17520"
     d="m 422.26168,122.32424 c 0.50976,-0.085 0.93456,-0.67968 0.93456,-1.18944 v -5.01264 c 0,-0.67968 -0.50976,-1.18944 -1.18944,-1.18944 h -0.16992 l -2.80368,0.59472 V 102.8684 h -2.37888 v 13.1688 l -7.56144,1.52928 V 105.58712 H 406.714 v 12.48912 l -3.31344,0.67968 c -0.50976,0.085 -0.93456,0.67968 -0.93456,1.18944 v 0.16992 4.92768 -0.16992 c 0,0.67968 0.50976,1.18944 1.18944,1.18944 h 0.25488 l 2.80368,-0.59472 v 14.0184 l -3.31344,0.67968 c -0.50976,0.085 -0.93456,0.67968 -0.93456,1.18944 v 4.92768 c 0,0.67968 0.50976,1.18944 1.18944,1.18944 h 0.25488 l 2.80368,-0.59472 v 12.65904 h 2.37888 v -13.1688 l 7.56144,-1.52928 V 156.818 h 2.37888 v -12.48912 l 3.22848,-0.59472 c 0.50976,-0.085 0.93456,-0.67968 0.93456,-1.18944 v -5.01264 c 0,-0.67968 -0.50976,-1.18944 -1.18944,-1.18944 h -0.16992 l -2.80368,0.59472 v -14.0184 l 3.22848,-0.59472 m -13.1688,16.73712 V 124.958 l 7.56144,-1.52928 v 14.0184 l -7.56144,1.61424"
     class="Accidental" />
  <path
     style="stroke-width:0.8496"
     id="path17522"
     d="m 477.64736,126.40232 c -0.16992,-0.16992 -0.4248,-0.25488 -0.67968,-0.25488 -0.085,0 -0.25488,0.085 -0.33984,0.085 l -10.70496,2.9736 V 114.338 H 463.544 v 42.0552 c 0,0.67968 0.50976,1.10448 1.18944,1.10448 h 0.33984 l 10.70496,-2.9736 v 14.868 h 2.29392 v -42.0552 c 0,-0.33984 -0.16992,-0.76464 -0.4248,-0.93456 m -1.86912,21.07008 -9.85536,2.71872 v -13.93344 l 9.85536,-2.80368 v 14.0184"
     class="Accidental" />
  <path
     style="stroke-width:0.8496"
     id="path17524"
     d="m 626.60496,135.23816 c -0.50976,-3.31344 -2.5488,-6.45696 -6.88176,-6.45696 -4.248,0 -6.71184,2.63376 -7.13664,3.14352 l 0.33984,-27.27216 c 0,-0.67968 -0.50976,-1.18944 -1.18944,-1.18944 h -1.01952 c -0.67968,0 -1.18944,0.50976 -1.18944,1.18944 l 0.4248,51.06096 c 0,0.67968 0.50976,1.18944 1.18944,1.18944 0.16992,0 0.50976,-0.085 0.67968,-0.16992 0.33984,-0.16992 5.86224,-2.88864 10.45008,-8.0712 3.22848,-3.65328 4.50288,-7.81632 4.50288,-11.29968 0,-0.76464 -0.085,-1.44432 -0.16992,-2.124 m -5.86224,3.31344 c 0,1.2744 -0.33984,5.18256 -2.46384,8.41104 -1.44432,2.20896 -4.33296,4.50288 -5.9472,5.77728 l 0.25488,-16.5672 c 0.16992,-0.76464 1.44432,-3.22848 4.84272,-3.22848 3.05856,0 3.31344,2.88864 3.31344,4.6728 v 0.93456"
     class="Accidental" />
  <path
     style="stroke-width:0.8496"
     id="path17526"
     d="m 1235.977,103.37816 c -0.5098,-3.31344 -2.5488,-6.45696 -6.8818,-6.45696 -4.248,0 -6.7118,2.63376 -7.1366,3.14352 l 0.3398,-27.27216 c 0,-0.67968 -0.5098,-1.18944 -1.1894,-1.18944 h -1.0196 c -0.6796,0 -1.1894,0.50976 -1.1894,1.18944 l 0.4248,51.06096 c 0,0.67968 0.5098,1.18944 1.1894,1.18944 0.17,0 0.5098,-0.085 0.6797,-0.16992 0.3399,-0.16992 5.8623,-2.88864 10.4501,-8.0712 3.2285,-3.65328 4.5029,-7.81632 4.5029,-11.29968 0,-0.76464 -0.085,-1.44432 -0.1699,-2.124 m -5.8623,3.31344 c 0,1.2744 -0.3398,5.18256 -2.4638,8.41104 -1.4443,2.20896 -4.333,4.50288 -5.9472,5.77728 l 0.2549,-16.5672 c 0.1699,-0.76464 1.4443,-3.22848 4.8427,-3.22848 3.0585,0 3.3134,2.88864 3.3134,4.6728 v 0.93456"
     class="Accidental" />
  <path
     style="stroke-width:0.8496"
     id="path17528"
     d="m 1320.9634,115.78232 c -0.17,-0.16992 -0.4248,-0.25488 -0.6797,-0.25488 -0.085,0 -0.2549,0.085 -0.3399,0.085 l -10.7049,2.9736 v -14.868 h -2.3789 v 42.0552 c 0,0.67968 0.5098,1.10448 1.1894,1.10448 h 0.3399 l 10.7049,-2.9736 v 14.868 h 2.294 v -42.0552 c 0,-0.33984 -0.17,-0.76464 -0.4248,-0.93456 m -1.8692,21.07008 -9.8553,2.71872 v -13.93344 l 9.8553,-2.80368 v 14.0184"
     class="Accidental" />
  <path
     style="stroke-width:0.8496"
     id="path17530"
     d="m 1621.137,177.71816 c -0.5098,-3.31344 -2.5488,-6.45696 -6.8818,-6.45696 -4.248,0 -6.7118,2.63376 -7.1366,3.14352 l 0.3398,-27.27216 c 0,-0.67968 -0.5098,-1.18944 -1.1894,-1.18944 h -1.0196 c -0.6796,0 -1.1894,0.50976 -1.1894,1.18944 l 0.4248,51.06096 c 0,0.67968 0.5098,1.18944 1.1894,1.18944 0.17,0 0.5098,-0.085 0.6797,-0.16992 0.3399,-0.16992 5.8623,-2.88864 10.4501,-8.0712 3.2285,-3.65328 4.5029,-7.81632 4.5029,-11.29968 0,-0.76464 -0.085,-1.44432 -0.1699,-2.124 m -5.8623,3.31344 c 0,1.2744 -0.3398,5.18256 -2.4638,8.41104 -1.4443,2.20896 -4.333,4.50288 -5.9472,5.77728 l 0.2549,-16.5672 c 0.1699,-0.76464 1.4443,-3.22848 4.8427,-3.22848 3.0585,0 3.3134,2.88864 3.3134,4.6728 v 0.93456"
     class="Accidental" />
  <path
     style="stroke-width:0.8496"
     id="path17532"
     d="m 1738.8634,126.40232 c -0.17,-0.16992 -0.4248,-0.25488 -0.6797,-0.25488 -0.085,0 -0.2549,0.085 -0.3399,0.085 l -10.7049,2.9736 v -14.868 h -2.3789 v 42.0552 c 0,0.67968 0.5098,1.10448 1.1894,1.10448 h 0.3399 l 10.7049,-2.9736 v 14.868 h 2.294 v -42.0552 c 0,-0.33984 -0.17,-0.76464 -0.4248,-0.93456 m -1.8692,21.07008 -9.8553,2.71872 v -13.93344 l 9.8553,-2.80368 v 14.0184"
     class="Accidental" />
  <path
     style="stroke-width:0.8496"
     id="path17534"
     d="m 1857.457,103.37816 c -0.5098,-3.31344 -2.5488,-6.45696 -6.8818,-6.45696 -4.248,0 -6.7118,2.63376 -7.1366,3.14352 l 0.3398,-27.27216 c 0,-0.67968 -0.5098,-1.18944 -1.1894,-1.18944 h -1.0196 c -0.6796,0 -1.1894,0.50976 -1.1894,1.18944 l 0.4248,51.06096 c 0,0.67968 0.5098,1.18944 1.1894,1.18944 0.17,0 0.5098,-0.085 0.6797,-0.16992 0.3399,-0.16992 5.8623,-2.88864 10.4501,-8.0712 3.2285,-3.65328 4.5029,-7.81632 4.5029,-11.29968 0,-0.76464 -0.085,-1.44432 -0.1699,-2.124 m -5.8623,3.31344 c 0,1.2744 -0.3398,5.18256 -2.4638,8.41104 -1.4443,2.20896 -4.333,4.50288 -5.9472,5.77728 l 0.2549,-16.5672 c 0.1699,-0.76464 1.4443,-3.22848 4.8427,-3.22848 3.0585,0 3.3134,2.88864 3.3134,4.6728 v 0.93456"
     class="Accidental" />
  <path
     style="stroke-width:0.8496"
     id="path17536"
     d="m 2016.6857,90.46424 c 0.5097,-0.08496 0.9345,-0.67968 0.9345,-1.18944 v -5.01264 c 0,-0.67968 -0.5097,-1.18944 -1.1894,-1.18944 h -0.1699 l -2.8037,0.59472 V 71.0084 h -2.3789 v 13.1688 l -7.5614,1.52928 V 73.72712 h -2.3789 v 12.48912 l -3.3134,0.67968 c -0.5098,0.08496 -0.9346,0.67968 -0.9346,1.18944 v 0.16992 4.92768 -0.16992 c 0,0.67968 0.5098,1.18944 1.1894,1.18944 h 0.2549 l 2.8037,-0.59472 v 14.0184 l -3.3134,0.67968 c -0.5098,0.085 -0.9346,0.67968 -0.9346,1.18944 v 4.92768 c 0,0.67968 0.5098,1.18944 1.1894,1.18944 h 0.2549 l 2.8037,-0.59472 v 12.65904 h 2.3789 v -13.1688 l 7.5614,-1.52928 V 124.958 h 2.3789 v -12.48912 l 3.2285,-0.59472 c 0.5097,-0.085 0.9345,-0.67968 0.9345,-1.18944 v -5.01264 c 0,-0.67968 -0.5097,-1.18944 -1.1894,-1.18944 h -0.1699 l -2.8037,0.59472 v -14.0184 l 3.2285,-0.59472 m -13.1688,16.73712 V 93.098 l 7.5614,-1.52928 v 14.0184 l -7.5614,1.61424"
     class="Accidental" />
  <path
     style="stroke-width:0.8496"
     id="path17538"
     d="m 2132.8034,94.54232 c -0.17,-0.16992 -0.4248,-0.25488 -0.6797,-0.25488 -0.085,0 -0.2549,0.08496 -0.3399,0.08496 l -10.7049,2.9736 V 82.478 H 2118.7 v 42.0552 c 0,0.67968 0.5098,1.10448 1.1894,1.10448 h 0.3399 l 10.7049,-2.9736 v 14.868 h 2.294 v -42.0552 c 0,-0.33984 -0.17,-0.76464 -0.4248,-0.93456 m -1.8692,21.07008 -9.8553,2.71872 v -13.93344 l 9.8553,-2.80368 v 14.0184"
     class="Accidental" />
  <path
     style="stroke-width:0.8496"
     id="path17540"
     d="m 2240.0957,90.46424 c 0.5097,-0.08496 0.9345,-0.67968 0.9345,-1.18944 v -5.01264 c 0,-0.67968 -0.5097,-1.18944 -1.1894,-1.18944 h -0.1699 l -2.8037,0.59472 V 71.0084 h -2.3789 v 13.1688 l -7.5614,1.52928 V 73.72712 h -2.3789 v 12.48912 l -3.3134,0.67968 c -0.5098,0.08496 -0.9346,0.67968 -0.9346,1.18944 v 0.16992 4.92768 -0.16992 c 0,0.67968 0.5098,1.18944 1.1894,1.18944 h 0.2549 l 2.8037,-0.59472 v 14.0184 l -3.3134,0.67968 c -0.5098,0.085 -0.9346,0.67968 -0.9346,1.18944 v 4.92768 c 0,0.67968 0.5098,1.18944 1.1894,1.18944 h 0.2549 l 2.8037,-0.59472 v 12.65904 h 2.3789 v -13.1688 l 7.5614,-1.52928 V 124.958 h 2.3789 v -12.48912 l 3.2285,-0.59472 c 0.5097,-0.085 0.9345,-0.67968 0.9345,-1.18944 v -5.01264 c 0,-0.67968 -0.5097,-1.18944 -1.1894,-1.18944 h -0.1699 l -2.8037,0.59472 v -14.0184 l 3.2285,-0.59472 m -13.1688,16.73712 V 93.098 l 7.5614,-1.52928 v 14.0184 l -7.5614,1.61424"
     class="Accidental" />
  <polyline
     transform="translate(-360,-1035.45)"
     id="polyline17576"
     points="1475.68,1241.12 1518.16,1241.12"
     stroke-linejoin="bevel"
     stroke-width="3.4"
     stroke="#000000"
     class="LedgerLine" />
  <polyline
     transform="translate(-360,-1035.45)"
     id="polyline17578"
     points="2276.61,1113.68 2319.09,1113.68"
     stroke-linejoin="bevel"
     stroke-width="3.4"
     stroke="#000000"
     class="LedgerLine" />
  <polyline
     transform="translate(-360,-1035.45)"
     id="polyline17596"
     points="638.201,1142.82 638.201,1071.2"
     stroke-linejoin="bevel"
     stroke-width="2.34"
     stroke="#000000"
     class="Stem" />
  <polyline
     transform="translate(-360,-1035.45)"
     id="polyline17676"
     points="524.152,1148.4 524.152,1219.88"
     stroke-linejoin="bevel"
     stroke-width="2.34"
     stroke="#000000"
     class="Stem" />
  <polyline
     transform="translate(-360,-1035.45)"
     id="polyline17678"
     points="612.932,1148.4 612.932,1219.88"
     stroke-linejoin="bevel"
     stroke-width="2.34"
     stroke="#000000"
     class="Stem" />
  <polyline
     transform="translate(-360,-1035.45)"
     id="polyline17680"
     points="667.85,1137.78 667.85,1214.57"
     stroke-linejoin="bevel"
     stroke-width="2.34"
     stroke="#000000"
     class="Stem" />
  <polyline
     transform="translate(-360,-1035.45)"
     id="polyline17682"
     points="698.223,1148.4 698.223,1219.88"
     stroke-linejoin="bevel"
     stroke-width="2.34"
     stroke="#000000"
     class="Stem" />
  <polyline
     transform="translate(-360,-1035.45)"
     id="polyline17684"
     points="728.595,1159.02 728.595,1224.29"
     stroke-linejoin="bevel"
     stroke-width="2.34"
     stroke="#000000"
     class="Stem" />
  <polyline
     transform="translate(-360,-1035.45)"
     id="polyline17686"
     points="789.673,1169.64 789.673,1233.16"
     stroke-linejoin="bevel"
     stroke-width="2.34"
     stroke="#000000"
     class="Stem" />
  <polyline
     transform="translate(-360,-1035.45)"
     id="polyline17688"
     points="844.545,1180.26 844.545,1241.12"
     stroke-linejoin="bevel"
     stroke-width="2.34"
     stroke="#000000"
     class="Stem" />
  <polyline
     transform="translate(-360,-1035.45)"
     id="polyline17690"
     points="900.187,1185.3 900.187,1097.75"
     stroke-linejoin="bevel"
     stroke-width="2.34"
     stroke="#000000"
     class="Stem" />
  <polyline
     transform="translate(-360,-1035.45)"
     id="polyline17692"
     points="930.559,1195.92 930.559,1097.75"
     stroke-linejoin="bevel"
     stroke-width="2.34"
     stroke="#000000"
     class="Stem" />
  <polyline
     transform="translate(-360,-1035.45)"
     id="polyline17694"
     points="960.925,1185.3 960.925,1097.75"
     stroke-linejoin="bevel"
     stroke-width="2.34"
     stroke="#000000"
     class="Stem" />
  <polyline
     transform="translate(-360,-1035.45)"
     id="polyline17696"
     points="1018.52,1174.68 1018.52,1097.75"
     stroke-linejoin="bevel"
     stroke-width="2.34"
     stroke="#000000"
     class="Stem" />
  <polyline
     transform="translate(-360,-1035.45)"
     id="polyline17698"
     points="1048.89,1185.3 1048.89,1097.75"
     stroke-linejoin="bevel"
     stroke-width="2.34"
     stroke="#000000"
     class="Stem" />
  <polyline
     transform="translate(-360,-1035.45)"
     id="polyline17700"
     points="1079.26,1195.92 1079.26,1134.92"
     stroke-linejoin="bevel"
     stroke-width="2.34"
     stroke="#000000"
     class="Stem" />
  <polyline
     transform="translate(-360,-1035.45)"
     id="polyline17702"
     points="1109.64,1206.54 1109.64,1136.69"
     stroke-linejoin="bevel"
     stroke-width="2.34"
     stroke="#000000"
     class="Stem" />
  <polyline
     transform="translate(-360,-1035.45)"
     id="polyline17704"
     points="1140.01,1217.16 1140.01,1138.46"
     stroke-linejoin="bevel"
     stroke-width="2.34"
     stroke="#000000"
     class="Stem" />
  <polyline
     transform="translate(-360,-1035.45)"
     id="polyline17706"
     points="1170.38,1206.54 1170.38,1140.23"
     stroke-linejoin="bevel"
     stroke-width="2.34"
     stroke="#000000"
     class="Stem" />
  <polyline
     transform="translate(-360,-1035.45)"
     id="polyline17708"
     points="1259.16,1195.92 1259.16,1134.92"
     stroke-linejoin="bevel"
     stroke-width="2.34"
     stroke="#000000"
     class="Stem" />
  <polyline
     transform="translate(-360,-1035.45)"
     id="polyline17710"
     points="1289.53,1206.54 1289.53,1142"
     stroke-linejoin="bevel"
     stroke-width="2.34"
     stroke="#000000"
     class="Stem" />
  <polyline
     transform="translate(-360,-1035.45)"
     id="polyline17712"
     points="1319.9,1217.16 1319.9,1149.08"
     stroke-linejoin="bevel"
     stroke-width="2.34"
     stroke="#000000"
     class="Stem" />
  <polyline
     transform="translate(-360,-1035.45)"
     id="polyline17714"
     points="1350.27,1227.78 1350.27,1156.16"
     stroke-linejoin="bevel"
     stroke-width="2.34"
     stroke="#000000"
     class="Stem" />
  <polyline
     transform="translate(-360,-1035.45)"
     id="polyline17716"
     points="1380.64,1132.2 1380.64,1071.2"
     stroke-linejoin="bevel"
     stroke-width="2.34"
     stroke="#000000"
     class="Stem" />
  <polyline
     transform="translate(-360,-1035.45)"
     id="polyline17718"
     points="1411.01,1185.3 1411.01,1080.05"
     stroke-linejoin="bevel"
     stroke-width="2.34"
     stroke="#000000"
     class="Stem" />
  <polyline
     transform="translate(-360,-1035.45)"
     id="polyline17720"
     points="1441.38,1174.68 1441.38,1088.9"
     stroke-linejoin="bevel"
     stroke-width="2.34"
     stroke="#000000"
     class="Stem" />
  <polyline
     transform="translate(-360,-1035.45)"
     id="polyline17722"
     points="1471.75,1227.78 1471.75,1097.75"
     stroke-linejoin="bevel"
     stroke-width="2.34"
     stroke="#000000"
     class="Stem" />
  <polyline
     transform="translate(-360,-1035.45)"
     id="polyline17724"
     points="1509.56,1238.4 1509.56,1113.68"
     stroke-linejoin="bevel"
     stroke-width="2.34"
     stroke="#000000"
     class="Stem" />
  <polyline
     transform="translate(-360,-1035.45)"
     id="polyline17726"
     points="1539.93,1195.92 1539.93,1104.14"
     stroke-linejoin="bevel"
     stroke-width="2.34"
     stroke="#000000"
     class="Stem" />
  <polyline
     transform="translate(-360,-1035.45)"
     id="polyline17728"
     points="1570.3,1174.68 1570.3,1094.6"
     stroke-linejoin="bevel"
     stroke-width="2.34"
     stroke="#000000"
     class="Stem" />
  <polyline
     transform="translate(-360,-1035.45)"
     id="polyline17730"
     points="1627.89,1142.82 1627.89,1076.51"
     stroke-linejoin="bevel"
     stroke-width="2.34"
     stroke="#000000"
     class="Stem" />
  <polyline
     transform="translate(-360,-1035.45)"
     id="polyline17732"
     points="1632.99,1190.88 1632.99,1262.36"
     stroke-linejoin="bevel"
     stroke-width="2.34"
     stroke="#000000"
     class="Stem" />
  <polyline
     transform="translate(-360,-1035.45)"
     id="polyline17734"
     points="1687.87,1169.64 1687.87,1249.94"
     stroke-linejoin="bevel"
     stroke-width="2.34"
     stroke="#000000"
     class="Stem" />
  <polyline
     transform="translate(-360,-1035.45)"
     id="polyline17736"
     points="1718.24,1137.78 1718.24,1243.07"
     stroke-linejoin="bevel"
     stroke-width="2.34"
     stroke="#000000"
     class="Stem" />
  <polyline
     transform="translate(-360,-1035.45)"
     id="polyline17738"
     points="1750.29,1148.4 1750.29,1235.81"
     stroke-linejoin="bevel"
     stroke-width="2.34"
     stroke="#000000"
     class="Stem" />
  <polyline
     transform="translate(-360,-1035.45)"
     id="polyline17740"
     points="1839.06,1159.02 1839.06,1257.05"
     stroke-linejoin="bevel"
     stroke-width="2.34"
     stroke="#000000"
     class="Stem" />
  <polyline
     transform="translate(-360,-1035.45)"
     id="polyline17742"
     points="1869.44,1190.88 1869.44,1257.05"
     stroke-linejoin="bevel"
     stroke-width="2.34"
     stroke="#000000"
     class="Stem" />
  <polyline
     transform="translate(-360,-1035.45)"
     id="polyline17744"
     points="1899.81,1180.26 1899.81,1257.05"
     stroke-linejoin="bevel"
     stroke-width="2.34"
     stroke="#000000"
     class="Stem" />
  <polyline
     transform="translate(-360,-1035.45)"
     id="polyline17746"
     points="1930.19,1159.02 1930.19,1257.05"
     stroke-linejoin="bevel"
     stroke-width="2.34"
     stroke="#000000"
     class="Stem" />
  <polyline
     transform="translate(-360,-1035.45)"
     id="polyline17748"
     points="2013.05,1217.16 2013.05,1140.23"
     stroke-linejoin="bevel"
     stroke-width="2.34"
     stroke="#000000"
     class="Stem" />
  <polyline
     transform="translate(-360,-1035.45)"
     id="polyline17750"
     points="2043.42,1195.92 2043.42,1133.4"
     stroke-linejoin="bevel"
     stroke-width="2.34"
     stroke="#000000"
     class="Stem" />
  <polyline
     transform="translate(-360,-1035.45)"
     id="polyline17752"
     points="2076.16,1185.3 2076.16,1126.03"
     stroke-linejoin="bevel"
     stroke-width="2.34"
     stroke="#000000"
     class="Stem" />
  <polyline
     transform="translate(-360,-1035.45)"
     id="polyline17754"
     points="2131.03,1174.68 2131.03,1113.68"
     stroke-linejoin="bevel"
     stroke-width="2.34"
     stroke="#000000"
     class="Stem" />
  <polyline
     transform="translate(-360,-1035.45)"
     id="polyline17756"
     points="2136.13,1169.64 2136.13,1235.81"
     stroke-linejoin="bevel"
     stroke-width="2.34"
     stroke="#000000"
     class="Stem" />
  <polyline
     transform="translate(-360,-1035.45)"
     id="polyline17758"
     points="2166.51,1159.02 2166.51,1235.81"
     stroke-linejoin="bevel"
     stroke-width="2.34"
     stroke="#000000"
     class="Stem" />
  <polyline
     transform="translate(-360,-1035.45)"
     id="polyline17760"
     points="2224.1,1148.4 2224.1,1235.81"
     stroke-linejoin="bevel"
     stroke-width="2.34"
     stroke="#000000"
     class="Stem" />
  <polyline
     transform="translate(-360,-1035.45)"
     id="polyline17762"
     points="2254.48,1169.64 2254.48,1235.81"
     stroke-linejoin="bevel"
     stroke-width="2.34"
     stroke="#000000"
     class="Stem" />
  <polyline
     transform="translate(-360,-1035.45)"
     id="polyline17764"
     points="2285.22,1116.54 2285.22,1177.4"
     stroke-linejoin="bevel"
     stroke-width="2.34"
     stroke="#000000"
     class="Stem" />
  <polyline
     transform="translate(-360,-1035.45)"
     id="polyline17766"
     points="2323.02,1127.16 2323.02,1185.52"
     stroke-linejoin="bevel"
     stroke-width="2.34"
     stroke="#000000"
     class="Stem" />
  <polyline
     transform="translate(-360,-1035.45)"
     id="polyline17768"
     points="2384.1,1137.78 2384.1,1198.64"
     stroke-linejoin="bevel"
     stroke-width="2.34"
     stroke="#000000"
     class="Stem" />
  <polyline
     transform="translate(-360,-1035.45)"
     id="polyline17770"
     points="2414.46,1127.16 2414.46,1193.33"
     stroke-linejoin="bevel"
     stroke-width="2.34"
     stroke="#000000"
     class="Stem" />
  <polyline
     transform="translate(-360,-1035.45)"
     id="polyline17772"
     points="2444.83,1137.78 2444.83,1200.9"
     stroke-linejoin="bevel"
     stroke-width="2.34"
     stroke="#000000"
     class="Stem" />
  <polyline
     transform="translate(-360,-1035.45)"
     id="polyline17774"
     points="2499.7,1148.4 2499.7,1214.57"
     stroke-linejoin="bevel"
     stroke-width="2.34"
     stroke="#000000"
     class="Stem" />
  <polyline
     transform="translate(-360,-1035.45)"
     id="polyline17776"
     points="2607.51,1137.78 2607.51,1209.26"
     stroke-linejoin="bevel"
     stroke-width="2.34"
     stroke="#000000"
     class="Stem" />
  <path
     style="stroke-width:0.8496"
     id="path17874"
     d="m 278.5264,103.20824 c -1.52928,-2.80368 -4.75776,-4.33296 -8.66592,-4.33296 -2.88864,0 -6.03216,0.8496 -9.09072,2.46384 -5.60736,2.9736 -9.00576,7.98624 -9.00576,12.3192 0,1.18944 0.25488,2.37888 0.8496,3.48336 1.52928,2.80368 4.75776,4.248 8.66592,4.248 2.88864,0 6.03216,-0.76464 9.09072,-2.37888 5.60736,-2.9736 9.00576,-7.98624 9.00576,-12.3192 0,-1.18944 -0.25488,-2.37888 -0.8496,-3.48336"
     class="Note" />
  <path
     style="stroke-width:0.8496"
     id="path17954"
     d="m 189.7464,103.20824 c -1.52928,-2.80368 -4.75776,-4.33296 -8.66592,-4.33296 -2.88864,0 -6.03216,0.8496 -9.09072,2.46384 -5.60736,2.9736 -9.00576,7.98624 -9.00576,12.3192 0,1.18944 0.25488,2.37888 0.8496,3.48336 1.52928,2.80368 4.75776,4.248 8.66592,4.248 2.88864,0 6.03216,-0.76464 9.09072,-2.37888 5.60736,-2.9736 9.00576,-7.98624 9.00576,-12.3192 0,-1.18944 -0.25488,-2.37888 -0.8496,-3.48336"
     class="Note" />
  <path
     style="stroke-width:0.8496"
     id="path17956"
     d="m 278.5264,103.20824 c -1.52928,-2.80368 -4.75776,-4.33296 -8.66592,-4.33296 -2.88864,0 -6.03216,0.8496 -9.09072,2.46384 -5.60736,2.9736 -9.00576,7.98624 -9.00576,12.3192 0,1.18944 0.25488,2.37888 0.8496,3.48336 1.52928,2.80368 4.75776,4.248 8.66592,4.248 2.88864,0 6.03216,-0.76464 9.09072,-2.37888 5.60736,-2.9736 9.00576,-7.98624 9.00576,-12.3192 0,-1.18944 -0.25488,-2.37888 -0.8496,-3.48336"
     class="Note" />
  <path
     style="stroke-width:0.8496"
     id="path17958"
     d="m 333.4444,92.58824 c -1.52928,-2.80368 -4.75776,-4.33296 -8.66592,-4.33296 -2.88864,0 -6.03216,0.8496 -9.09072,2.46384 -5.60736,2.9736 -9.00576,7.98624 -9.00576,12.3192 0,1.18944 0.25488,2.37888 0.8496,3.48336 1.52928,2.80368 4.75776,4.248 8.66592,4.248 2.88864,0 6.03216,-0.76464 9.09072,-2.37888 5.60736,-2.9736 9.00576,-7.98624 9.00576,-12.3192 0,-1.18944 -0.25488,-2.37888 -0.8496,-3.48336"
     class="Note" />
  <path
     style="stroke-width:0.8496"
     id="path17960"
     d="m 363.8164,103.20824 c -1.52928,-2.80368 -4.75776,-4.33296 -8.66592,-4.33296 -2.88864,0 -6.03216,0.8496 -9.09072,2.46384 -5.60736,2.9736 -9.00576,7.98624 -9.00576,12.3192 0,1.18944 0.25488,2.37888 0.8496,3.48336 1.52928,2.80368 4.75776,4.248 8.66592,4.248 2.88864,0 6.03216,-0.76464 9.09072,-2.37888 5.60736,-2.9736 9.00576,-7.98624 9.00576,-12.3192 0,-1.18944 -0.25488,-2.37888 -0.8496,-3.48336"
     class="Note" />
  <path
     style="stroke-width:0.8496"
     id="path17962"
     d="m 394.1894,113.82824 c -1.52928,-2.80368 -4.75776,-4.33296 -8.66592,-4.33296 -2.88864,0 -6.03216,0.8496 -9.09072,2.46384 -5.60736,2.9736 -9.00576,7.98624 -9.00576,12.3192 0,1.18944 0.25488,2.37888 0.8496,3.48336 1.52928,2.80368 4.75776,4.248 8.66592,4.248 2.88864,0 6.03216,-0.76464 9.09072,-2.37888 5.60736,-2.9736 9.00576,-7.98624 9.00576,-12.3192 0,-1.18944 -0.25488,-2.37888 -0.8496,-3.48336"
     class="Note" />
  <path
     style="stroke-width:0.8496"
     id="path17964"
     d="m 455.2674,124.44824 c -1.52928,-2.80368 -4.75776,-4.33296 -8.66592,-4.33296 -2.88864,0 -6.03216,0.8496 -9.09072,2.46384 -5.60736,2.9736 -9.00576,7.98624 -9.00576,12.3192 0,1.18944 0.25488,2.37888 0.8496,3.48336 1.52928,2.80368 4.75776,4.248 8.66592,4.248 2.88864,0 6.03216,-0.76464 9.09072,-2.37888 5.60736,-2.9736 9.00576,-7.98624 9.00576,-12.3192 0,-1.18944 -0.25488,-2.37888 -0.8496,-3.48336"
     class="Note" />
  <path
     style="stroke-width:0.8496"
     id="path17966"
     d="m 510.1394,135.06824 c -1.52928,-2.80368 -4.75776,-4.33296 -8.66592,-4.33296 -2.88864,0 -6.03216,0.8496 -9.09072,2.46384 -5.60736,2.9736 -9.00576,7.98624 -9.00576,12.3192 0,1.18944 0.25488,2.37888 0.8496,3.48336 1.52928,2.80368 4.75776,4.248 8.66592,4.248 2.88864,0 6.03216,-0.76464 9.09072,-2.37888 5.60736,-2.9736 9.00576,-7.98624 9.00576,-12.3192 0,-1.18944 -0.25488,-2.37888 -0.8496,-3.48336"
     class="Note" />
  <path
     style="stroke-width:0.8496"
     id="path17968"
     d="m 540.5114,145.68824 c -1.52928,-2.80368 -4.75776,-4.33296 -8.66592,-4.33296 -2.88864,0 -6.03216,0.8496 -9.09072,2.46384 -5.60736,2.9736 -9.00576,7.98624 -9.00576,12.3192 0,1.18944 0.25488,2.37888 0.8496,3.48336 1.52928,2.80368 4.75776,4.248 8.66592,4.248 2.88864,0 6.03216,-0.76464 9.09072,-2.37888 5.60736,-2.9736 9.00576,-7.98624 9.00576,-12.3192 0,-1.18944 -0.25488,-2.37888 -0.8496,-3.48336"
     class="Note" />
  <path
     style="stroke-width:0.8496"
     id="path17970"
     d="m 570.8844,156.30824 c -1.52928,-2.80368 -4.75776,-4.33296 -8.66592,-4.33296 -2.88864,0 -6.03216,0.8496 -9.09072,2.46384 -5.60736,2.9736 -9.00576,7.98624 -9.00576,12.3192 0,1.18944 0.25488,2.37888 0.8496,3.48336 1.52928,2.80368 4.75776,4.248 8.66592,4.248 2.88864,0 6.03216,-0.76464 9.09072,-2.37888 5.60736,-2.9736 9.00576,-7.98624 9.00576,-12.3192 0,-1.18944 -0.25488,-2.37888 -0.8496,-3.48336"
     class="Note" />
  <path
     style="stroke-width:0.8496"
     id="path17972"
     d="m 601.2504,145.68824 c -1.52928,-2.80368 -4.75776,-4.33296 -8.66592,-4.33296 -2.88864,0 -6.03216,0.8496 -9.09072,2.46384 -5.60736,2.9736 -9.00576,7.98624 -9.00576,12.3192 0,1.18944 0.25488,2.37888 0.8496,3.48336 1.52928,2.80368 4.75776,4.248 8.66592,4.248 2.88864,0 6.03216,-0.76464 9.09072,-2.37888 5.60736,-2.9736 9.00576,-7.98624 9.00576,-12.3192 0,-1.18944 -0.25488,-2.37888 -0.8496,-3.48336"
     class="Note" />
  <path
     style="stroke-width:0.8496"
     id="path17974"
     d="m 658.8444,135.06824 c -1.52928,-2.80368 -4.75776,-4.33296 -8.66592,-4.33296 -2.88864,0 -6.03216,0.8496 -9.09072,2.46384 -5.60736,2.9736 -9.00576,7.98624 -9.00576,12.3192 0,1.18944 0.25488,2.37888 0.8496,3.48336 1.52928,2.80368 4.75776,4.248 8.66592,4.248 2.88864,0 6.03216,-0.76464 9.09072,-2.37888 5.60736,-2.9736 9.00576,-7.98624 9.00576,-12.3192 0,-1.18944 -0.25488,-2.37888 -0.8496,-3.48336"
     class="Note" />
  <path
     style="stroke-width:0.8496"
     id="path17976"
     d="m 689.2124,145.68824 c -1.52928,-2.80368 -4.75776,-4.33296 -8.66592,-4.33296 -2.88864,0 -6.03216,0.8496 -9.09072,2.46384 -5.60736,2.9736 -9.00576,7.98624 -9.00576,12.3192 0,1.18944 0.25488,2.37888 0.8496,3.48336 1.52928,2.80368 4.75776,4.248 8.66592,4.248 2.88864,0 6.03216,-0.76464 9.09072,-2.37888 5.60736,-2.9736 9.00576,-7.98624 9.00576,-12.3192 0,-1.18944 -0.25488,-2.37888 -0.8496,-3.48336"
     class="Note" />
  <path
     style="stroke-width:0.8496"
     id="path17978"
     d="m 719.5924,156.30824 c -1.52928,-2.80368 -4.75776,-4.33296 -8.66592,-4.33296 -2.88864,0 -6.03216,0.8496 -9.09072,2.46384 -5.60736,2.9736 -9.00576,7.98624 -9.00576,12.3192 0,1.18944 0.25488,2.37888 0.8496,3.48336 1.52928,2.80368 4.75776,4.248 8.66592,4.248 2.88864,0 6.03216,-0.76464 9.09072,-2.37888 5.60736,-2.9736 9.00576,-7.98624 9.00576,-12.3192 0,-1.18944 -0.25488,-2.37888 -0.8496,-3.48336"
     class="Note" />
  <path
     style="stroke-width:0.8496"
     id="path17980"
     d="m 749.9624,166.92824 c -1.52928,-2.80368 -4.75776,-4.33296 -8.66592,-4.33296 -2.88864,0 -6.03216,0.8496 -9.09072,2.46384 -5.60736,2.9736 -9.00576,7.98624 -9.00576,12.3192 0,1.18944 0.25488,2.37888 0.8496,3.48336 1.52928,2.80368 4.75776,4.248 8.66592,4.248 2.88864,0 6.03216,-0.76464 9.09072,-2.37888 5.60736,-2.9736 9.00576,-7.98624 9.00576,-12.3192 0,-1.18944 -0.25488,-2.37888 -0.8496,-3.48336"
     class="Note" />
  <path
     style="stroke-width:0.8496"
     id="path17982"
     d="m 780.3324,177.54824 c -1.52928,-2.80368 -4.75776,-4.33296 -8.66592,-4.33296 -2.88864,0 -6.03216,0.8496 -9.09072,2.46384 -5.60736,2.9736 -9.00576,7.98624 -9.00576,12.3192 0,1.18944 0.25488,2.37888 0.8496,3.48336 1.52928,2.80368 4.75776,4.248 8.66592,4.248 2.88864,0 6.03216,-0.76464 9.09072,-2.37888 5.60736,-2.9736 9.00576,-7.98624 9.00576,-12.3192 0,-1.18944 -0.25488,-2.37888 -0.8496,-3.48336"
     class="Note" />
  <path
     style="stroke-width:0.8496"
     id="path17984"
     d="m 810.7024,166.92824 c -1.52928,-2.80368 -4.75776,-4.33296 -8.66592,-4.33296 -2.88864,0 -6.03216,0.8496 -9.09072,2.46384 -5.60736,2.9736 -9.00576,7.98624 -9.00576,12.3192 0,1.18944 0.25488,2.37888 0.8496,3.48336 1.52928,2.80368 4.75776,4.248 8.66592,4.248 2.88864,0 6.03216,-0.76464 9.09072,-2.37888 5.60736,-2.9736 9.00576,-7.98624 9.00576,-12.3192 0,-1.18944 -0.25488,-2.37888 -0.8496,-3.48336"
     class="Note" />
  <path
     style="stroke-width:0.8496"
     id="path17986"
     d="m 899.4824,156.30824 c -1.52928,-2.80368 -4.75776,-4.33296 -8.66592,-4.33296 -2.88864,0 -6.03216,0.8496 -9.09072,2.46384 -5.60736,2.9736 -9.00576,7.98624 -9.00576,12.3192 0,1.18944 0.25488,2.37888 0.8496,3.48336 1.52928,2.80368 4.75776,4.248 8.66592,4.248 2.88864,0 6.03216,-0.76464 9.09072,-2.37888 5.60736,-2.9736 9.00576,-7.98624 9.00576,-12.3192 0,-1.18944 -0.25488,-2.37888 -0.8496,-3.48336"
     class="Note" />
  <path
     style="stroke-width:0.8496"
     id="path17988"
     d="m 929.8524,166.92824 c -1.52928,-2.80368 -4.75776,-4.33296 -8.66592,-4.33296 -2.88864,0 -6.03216,0.8496 -9.09072,2.46384 -5.60736,2.9736 -9.00576,7.98624 -9.00576,12.3192 0,1.18944 0.25488,2.37888 0.8496,3.48336 1.52928,2.80368 4.75776,4.248 8.66592,4.248 2.88864,0 6.03216,-0.76464 9.09072,-2.37888 5.60736,-2.9736 9.00576,-7.98624 9.00576,-12.3192 0,-1.18944 -0.25488,-2.37888 -0.8496,-3.48336"
     class="Note" />
  <path
     style="stroke-width:0.8496"
     id="path17990"
     d="m 960.2224,177.54824 c -1.52928,-2.80368 -4.75776,-4.33296 -8.66592,-4.33296 -2.88864,0 -6.03216,0.8496 -9.09072,2.46384 -5.60736,2.9736 -9.00576,7.98624 -9.00576,12.3192 0,1.18944 0.25488,2.37888 0.8496,3.48336 1.52928,2.80368 4.75776,4.248 8.66592,4.248 2.88864,0 6.03216,-0.76464 9.09072,-2.37888 5.60736,-2.9736 9.00576,-7.98624 9.00576,-12.3192 0,-1.18944 -0.25488,-2.37888 -0.8496,-3.48336"
     class="Note" />
  <path
     style="stroke-width:0.8496"
     id="path17992"
     d="m 990.5924,188.16824 c -1.52928,-2.80368 -4.75776,-4.33296 -8.66592,-4.33296 -2.88864,0 -6.03216,0.8496 -9.09072,2.46384 -5.60736,2.9736 -9.00576,7.98624 -9.00576,12.3192 0,1.18944 0.25488,2.37888 0.8496,3.48336 1.52928,2.80368 4.75776,4.248 8.66592,4.248 2.88864,0 6.03216,-0.76464 9.09072,-2.37888 5.60736,-2.9736 9.00576,-7.98624 9.00576,-12.3192 0,-1.18944 -0.25488,-2.37888 -0.8496,-3.48336"
     class="Note" />
  <path
     style="stroke-width:0.8496"
     id="path17994"
     d="m 1020.9624,92.58824 c -1.5293,-2.80368 -4.7578,-4.33296 -8.6659,-4.33296 -2.8887,0 -6.0322,0.8496 -9.0907,2.46384 -5.6074,2.9736 -9.0058,7.98624 -9.0058,12.3192 0,1.18944 0.25488,2.37888 0.8496,3.48336 1.52928,2.80368 4.75776,4.248 8.6659,4.248 2.8887,0 6.0322,-0.76464 9.0907,-2.37888 5.6074,-2.9736 9.0058,-7.98624 9.0058,-12.3192 0,-1.18944 -0.2549,-2.37888 -0.8496,-3.48336"
     class="Note" />
  <path
     style="stroke-width:0.8496"
     id="path17996"
     d="m 1051.3424,145.68824 c -1.5293,-2.80368 -4.7578,-4.33296 -8.6659,-4.33296 -2.8887,0 -6.0322,0.8496 -9.0907,2.46384 -5.6074,2.9736 -9.0058,7.98624 -9.0058,12.3192 0,1.18944 0.2549,2.37888 0.8496,3.48336 1.5293,2.80368 4.7578,4.248 8.6659,4.248 2.8887,0 6.0322,-0.76464 9.0907,-2.37888 5.6074,-2.9736 9.0058,-7.98624 9.0058,-12.3192 0,-1.18944 -0.2549,-2.37888 -0.8496,-3.48336"
     class="Note" />
  <path
     style="stroke-width:0.8496"
     id="path17998"
     d="m 1081.7124,135.06824 c -1.5293,-2.80368 -4.7578,-4.33296 -8.6659,-4.33296 -2.8887,0 -6.0322,0.8496 -9.0907,2.46384 -5.6074,2.9736 -9.0058,7.98624 -9.0058,12.3192 0,1.18944 0.2549,2.37888 0.8496,3.48336 1.5293,2.80368 4.7578,4.248 8.6659,4.248 2.8887,0 6.0322,-0.76464 9.0907,-2.37888 5.6074,-2.9736 9.0058,-7.98624 9.0058,-12.3192 0,-1.18944 -0.2549,-2.37888 -0.8496,-3.48336"
     class="Note" />
  <path
     style="stroke-width:0.8496"
     id="path18000"
     d="m 1112.0824,188.16824 c -1.5293,-2.80368 -4.7578,-4.33296 -8.6659,-4.33296 -2.8887,0 -6.0322,0.8496 -9.0907,2.46384 -5.6074,2.9736 -9.0058,7.98624 -9.0058,12.3192 0,1.18944 0.2549,2.37888 0.8496,3.48336 1.5293,2.80368 4.7578,4.248 8.6659,4.248 2.8887,0 6.0322,-0.76464 9.0907,-2.37888 5.6074,-2.9736 9.0058,-7.98624 9.0058,-12.3192 0,-1.18944 -0.2549,-2.37888 -0.8496,-3.48336"
     class="Note" />
  <path
     style="stroke-width:0.8496"
     id="path18002"
     d="m 1149.8824,198.78824 c -1.5293,-2.80368 -4.7578,-4.33296 -8.6659,-4.33296 -2.8887,0 -6.0322,0.8496 -9.0907,2.46384 -5.6074,2.9736 -9.0058,7.98624 -9.0058,12.3192 0,1.18944 0.2549,2.37888 0.8496,3.48336 1.5293,2.80368 4.7578,4.248 8.6659,4.248 2.8887,0 6.0322,-0.76464 9.0907,-2.37888 5.6074,-2.9736 9.0058,-7.98624 9.0058,-12.3192 0,-1.18944 -0.2549,-2.37888 -0.8496,-3.48336"
     class="Note" />
  <path
     style="stroke-width:0.8496"
     id="path18004"
     d="m 1180.2524,156.30824 c -1.5293,-2.80368 -4.7578,-4.33296 -8.6659,-4.33296 -2.8887,0 -6.0322,0.8496 -9.0907,2.46384 -5.6074,2.9736 -9.0058,7.98624 -9.0058,12.3192 0,1.18944 0.2549,2.37888 0.8496,3.48336 1.5293,2.80368 4.7578,4.248 8.6659,4.248 2.8887,0 6.0322,-0.76464 9.0907,-2.37888 5.6074,-2.9736 9.0058,-7.98624 9.0058,-12.3192 0,-1.18944 -0.2549,-2.37888 -0.8496,-3.48336"
     class="Note" />
  <path
     style="stroke-width:0.8496"
     id="path18006"
     d="m 1210.6224,135.06824 c -1.5293,-2.80368 -4.7578,-4.33296 -8.6659,-4.33296 -2.8887,0 -6.0322,0.8496 -9.0907,2.46384 -5.6074,2.9736 -9.0058,7.98624 -9.0058,12.3192 0,1.18944 0.2549,2.37888 0.8496,3.48336 1.5293,2.80368 4.7578,4.248 8.6659,4.248 2.8887,0 6.0322,-0.76464 9.0907,-2.37888 5.6074,-2.9736 9.0058,-7.98624 9.0058,-12.3192 0,-1.18944 -0.2549,-2.37888 -0.8496,-3.48336"
     class="Note" />
  <path
     style="stroke-width:0.8496"
     id="path18008"
     d="m 1268.2124,103.20824 c -1.5293,-2.80368 -4.7578,-4.33296 -8.6659,-4.33296 -2.8887,0 -6.0322,0.8496 -9.0907,2.46384 -5.6074,2.9736 -9.0058,7.98624 -9.0058,12.3192 0,1.18944 0.2549,2.37888 0.8496,3.48336 1.5293,2.80368 4.7578,4.248 8.6659,4.248 2.8887,0 6.0322,-0.76464 9.0907,-2.37888 5.6074,-2.9736 9.0058,-7.98624 9.0058,-12.3192 0,-1.18944 -0.2549,-2.37888 -0.8496,-3.48336"
     class="Note" />
  <path
     style="stroke-width:0.8496"
     id="path18010"
     d="m 1298.5924,145.68824 c -1.5293,-2.80368 -4.7578,-4.33296 -8.6659,-4.33296 -2.8887,0 -6.0322,0.8496 -9.0907,2.46384 -5.6074,2.9736 -9.0058,7.98624 -9.0058,12.3192 0,1.18944 0.2549,2.37888 0.8496,3.48336 1.5293,2.80368 4.7578,4.248 8.6659,4.248 2.8887,0 6.0322,-0.76464 9.0907,-2.37888 5.6074,-2.9736 9.0058,-7.98624 9.0058,-12.3192 0,-1.18944 -0.2549,-2.37888 -0.8496,-3.48336"
     class="Note" />
  <path
     style="stroke-width:0.8496"
     id="path18012"
     d="m 1353.4624,124.44824 c -1.5293,-2.80368 -4.7578,-4.33296 -8.6659,-4.33296 -2.8887,0 -6.0322,0.8496 -9.0907,2.46384 -5.6074,2.9736 -9.0058,7.98624 -9.0058,12.3192 0,1.18944 0.2549,2.37888 0.8496,3.48336 1.5293,2.80368 4.7578,4.248 8.6659,4.248 2.8887,0 6.0322,-0.76464 9.0907,-2.37888 5.6074,-2.9736 9.0058,-7.98624 9.0058,-12.3192 0,-1.18944 -0.2549,-2.37888 -0.8496,-3.48336"
     class="Note" />
  <path
     style="stroke-width:0.8496"
     id="path18014"
     d="m 1383.8324,92.58824 c -1.5293,-2.80368 -4.7578,-4.33296 -8.6659,-4.33296 -2.8887,0 -6.0322,0.8496 -9.0907,2.46384 -5.6074,2.9736 -9.0058,7.98624 -9.0058,12.3192 0,1.18944 0.2549,2.37888 0.8496,3.48336 1.5293,2.80368 4.7578,4.248 8.6659,4.248 2.8887,0 6.0322,-0.76464 9.0907,-2.37888 5.6074,-2.9736 9.0058,-7.98624 9.0058,-12.3192 0,-1.18944 -0.2549,-2.37888 -0.8496,-3.48336"
     class="Note" />
  <path
     style="stroke-width:0.8496"
     id="path18016"
     d="m 1415.8824,103.20824 c -1.5293,-2.80368 -4.7578,-4.33296 -8.6659,-4.33296 -2.8887,0 -6.0322,0.8496 -9.0907,2.46384 -5.6074,2.9736 -9.0058,7.98624 -9.0058,12.3192 0,1.18944 0.2549,2.37888 0.8496,3.48336 1.5293,2.80368 4.7578,4.248 8.6659,4.248 2.8887,0 6.0322,-0.76464 9.0907,-2.37888 5.6074,-2.9736 9.0058,-7.98624 9.0058,-12.3192 0,-1.18944 -0.2549,-2.37888 -0.8496,-3.48336"
     class="Note" />
  <path
     style="stroke-width:0.8496"
     id="path18018"
     d="m 1504.6624,113.82824 c -1.5293,-2.80368 -4.7578,-4.33296 -8.6659,-4.33296 -2.8887,0 -6.0322,0.8496 -9.0907,2.46384 -5.6074,2.9736 -9.0058,7.98624 -9.0058,12.3192 0,1.18944 0.2549,2.37888 0.8496,3.48336 1.5293,2.80368 4.7578,4.248 8.6659,4.248 2.8887,0 6.0322,-0.76464 9.0907,-2.37888 5.6074,-2.9736 9.0058,-7.98624 9.0058,-12.3192 0,-1.18944 -0.2549,-2.37888 -0.8496,-3.48336"
     class="Note" />
  <path
     style="stroke-width:0.8496"
     id="path18020"
     d="m 1535.0324,145.68824 c -1.5293,-2.80368 -4.7578,-4.33296 -8.6659,-4.33296 -2.8887,0 -6.0322,0.8496 -9.0907,2.46384 -5.6074,2.9736 -9.0058,7.98624 -9.0058,12.3192 0,1.18944 0.2549,2.37888 0.8496,3.48336 1.5293,2.80368 4.7578,4.248 8.6659,4.248 2.8887,0 6.0322,-0.76464 9.0907,-2.37888 5.6074,-2.9736 9.0058,-7.98624 9.0058,-12.3192 0,-1.18944 -0.2549,-2.37888 -0.8496,-3.48336"
     class="Note" />
  <path
     style="stroke-width:0.8496"
     id="path18022"
     d="m 1565.4024,135.06824 c -1.5293,-2.80368 -4.7578,-4.33296 -8.6659,-4.33296 -2.8887,0 -6.0322,0.8496 -9.0907,2.46384 -5.6074,2.9736 -9.0058,7.98624 -9.0058,12.3192 0,1.18944 0.2549,2.37888 0.8496,3.48336 1.5293,2.80368 4.7578,4.248 8.6659,4.248 2.8887,0 6.0322,-0.76464 9.0907,-2.37888 5.6074,-2.9736 9.0058,-7.98624 9.0058,-12.3192 0,-1.18944 -0.2549,-2.37888 -0.8496,-3.48336"
     class="Note" />
  <path
     style="stroke-width:0.8496"
     id="path18024"
     d="m 1595.7824,113.82824 c -1.5293,-2.80368 -4.7578,-4.33296 -8.6659,-4.33296 -2.8887,0 -6.0322,0.8496 -9.0907,2.46384 -5.6074,2.9736 -9.0058,7.98624 -9.0058,12.3192 0,1.18944 0.2549,2.37888 0.8496,3.48336 1.5293,2.80368 4.7578,4.248 8.6659,4.248 2.8887,0 6.0322,-0.76464 9.0907,-2.37888 5.6074,-2.9736 9.0058,-7.98624 9.0058,-12.3192 0,-1.18944 -0.2549,-2.37888 -0.8496,-3.48336"
     class="Note" />
  <path
     style="stroke-width:0.8496"
     id="path18026"
     d="m 1653.3724,177.54824 c -1.5293,-2.80368 -4.7578,-4.33296 -8.6659,-4.33296 -2.8887,0 -6.0322,0.8496 -9.0907,2.46384 -5.6074,2.9736 -9.0058,7.98624 -9.0058,12.3192 0,1.18944 0.2549,2.37888 0.8496,3.48336 1.5293,2.80368 4.7578,4.248 8.6659,4.248 2.8887,0 6.0322,-0.76464 9.0907,-2.37888 5.6074,-2.9736 9.0058,-7.98624 9.0058,-12.3192 0,-1.18944 -0.2549,-2.37888 -0.8496,-3.48336"
     class="Note" />
  <path
     style="stroke-width:0.8496"
     id="path18028"
     d="m 1683.7524,156.30824 c -1.5293,-2.80368 -4.7578,-4.33296 -8.6659,-4.33296 -2.8887,0 -6.0322,0.8496 -9.0907,2.46384 -5.6074,2.9736 -9.0058,7.98624 -9.0058,12.3192 0,1.18944 0.2549,2.37888 0.8496,3.48336 1.5293,2.80368 4.7578,4.248 8.6659,4.248 2.8887,0 6.0322,-0.76464 9.0907,-2.37888 5.6074,-2.9736 9.0058,-7.98624 9.0058,-12.3192 0,-1.18944 -0.2549,-2.37888 -0.8496,-3.48336"
     class="Note" />
  <path
     style="stroke-width:0.8496"
     id="path18030"
     d="m 1716.4824,145.68824 c -1.5293,-2.80368 -4.7578,-4.33296 -8.6659,-4.33296 -2.8887,0 -6.0322,0.8496 -9.0907,2.46384 -5.6074,2.9736 -9.0058,7.98624 -9.0058,12.3192 0,1.18944 0.2549,2.37888 0.8496,3.48336 1.5293,2.80368 4.7578,4.248 8.6659,4.248 2.8887,0 6.0322,-0.76464 9.0907,-2.37888 5.6074,-2.9736 9.0058,-7.98624 9.0058,-12.3192 0,-1.18944 -0.2549,-2.37888 -0.8496,-3.48336"
     class="Note" />
  <path
     style="stroke-width:0.8496"
     id="path18032"
     d="m 1771.3524,135.06824 c -1.5293,-2.80368 -4.7578,-4.33296 -8.6659,-4.33296 -2.8887,0 -6.0322,0.8496 -9.0907,2.46384 -5.6074,2.9736 -9.0058,7.98624 -9.0058,12.3192 0,1.18944 0.2549,2.37888 0.8496,3.48336 1.5293,2.80368 4.7578,4.248 8.6659,4.248 2.8887,0 6.0322,-0.76464 9.0907,-2.37888 5.6074,-2.9736 9.0058,-7.98624 9.0058,-12.3192 0,-1.18944 -0.2549,-2.37888 -0.8496,-3.48336"
     class="Note" />
  <path
     style="stroke-width:0.8496"
     id="path18034"
     d="m 1801.7324,124.44824 c -1.5293,-2.80368 -4.7578,-4.33296 -8.6659,-4.33296 -2.8887,0 -6.0322,0.8496 -9.0907,2.46384 -5.6074,2.9736 -9.0058,7.98624 -9.0058,12.3192 0,1.18944 0.2549,2.37888 0.8496,3.48336 1.5293,2.80368 4.7578,4.248 8.6659,4.248 2.8887,0 6.0322,-0.76464 9.0907,-2.37888 5.6074,-2.9736 9.0058,-7.98624 9.0058,-12.3192 0,-1.18944 -0.2549,-2.37888 -0.8496,-3.48336"
     class="Note" />
  <path
     style="stroke-width:0.8496"
     id="path18036"
     d="m 1832.1024,113.82824 c -1.5293,-2.80368 -4.7578,-4.33296 -8.6659,-4.33296 -2.8887,0 -6.0322,0.8496 -9.0907,2.46384 -5.6074,2.9736 -9.0058,7.98624 -9.0058,12.3192 0,1.18944 0.2549,2.37888 0.8496,3.48336 1.5293,2.80368 4.7578,4.248 8.6659,4.248 2.8887,0 6.0322,-0.76464 9.0907,-2.37888 5.6074,-2.9736 9.0058,-7.98624 9.0058,-12.3192 0,-1.18944 -0.2549,-2.37888 -0.8496,-3.48336"
     class="Note" />
  <path
     style="stroke-width:0.8496"
     id="path18038"
     d="m 1889.6924,103.20824 c -1.5293,-2.80368 -4.7578,-4.33296 -8.6659,-4.33296 -2.8887,0 -6.0322,0.8496 -9.0907,2.46384 -5.6074,2.9736 -9.0058,7.98624 -9.0058,12.3192 0,1.18944 0.2549,2.37888 0.8496,3.48336 1.5293,2.80368 4.7578,4.248 8.6659,4.248 2.8887,0 6.0322,-0.76464 9.0907,-2.37888 5.6074,-2.9736 9.0058,-7.98624 9.0058,-12.3192 0,-1.18944 -0.2549,-2.37888 -0.8496,-3.48336"
     class="Note" />
  <path
     style="stroke-width:0.8496"
     id="path18040"
     d="m 1920.0724,124.44824 c -1.5293,-2.80368 -4.7578,-4.33296 -8.6659,-4.33296 -2.8887,0 -6.0322,0.8496 -9.0907,2.46384 -5.6074,2.9736 -9.0058,7.98624 -9.0058,12.3192 0,1.18944 0.2549,2.37888 0.8496,3.48336 1.5293,2.80368 4.7578,4.248 8.6659,4.248 2.8887,0 6.0322,-0.76464 9.0907,-2.37888 5.6074,-2.9736 9.0058,-7.98624 9.0058,-12.3192 0,-1.18944 -0.2549,-2.37888 -0.8496,-3.48336"
     class="Note" />
  <path
     style="stroke-width:0.8496"
     id="path18042"
     d="m 1950.8124,71.34824 c -1.5293,-2.80368 -4.7578,-4.33296 -8.6659,-4.33296 -2.8887,0 -6.0322,0.8496 -9.0907,2.46384 -5.6074,2.9736 -9.0058,7.98624 -9.0058,12.3192 0,1.18944 0.2549,2.37888 0.8496,3.48336 1.5293,2.80368 4.7578,4.248 8.6659,4.248 2.8887,0 6.0322,-0.76464 9.0907,-2.37888 5.6074,-2.9736 9.0058,-7.98624 9.0058,-12.3192 0,-1.18944 -0.2549,-2.37888 -0.8496,-3.48336"
     class="Note" />
  <path
     style="stroke-width:0.8496"
     id="path18044"
     d="m 1988.6124,81.96824 c -1.5293,-2.80368 -4.7578,-4.33296 -8.6659,-4.33296 -2.8887,0 -6.0322,0.8496 -9.0907,2.46384 -5.6074,2.9736 -9.0058,7.98624 -9.0058,12.3192 0,1.18944 0.2549,2.37888 0.8496,3.48336 1.5293,2.80368 4.7578,4.248 8.6659,4.248 2.8887,0 6.0322,-0.76464 9.0907,-2.37888 5.6074,-2.9736 9.0058,-7.98624 9.0058,-12.3192 0,-1.18944 -0.2549,-2.37888 -0.8496,-3.48336"
     class="Note" />
  <path
     style="stroke-width:0.8496"
     id="path18046"
     d="m 2049.6924,92.58824 c -1.5293,-2.80368 -4.7578,-4.33296 -8.6659,-4.33296 -2.8887,0 -6.0322,0.8496 -9.0907,2.46384 -5.6074,2.9736 -9.0058,7.98624 -9.0058,12.3192 0,1.18944 0.2549,2.37888 0.8496,3.48336 1.5293,2.80368 4.7578,4.248 8.6659,4.248 2.8887,0 6.0322,-0.76464 9.0907,-2.37888 5.6074,-2.9736 9.0058,-7.98624 9.0058,-12.3192 0,-1.18944 -0.2549,-2.37888 -0.8496,-3.48336"
     class="Note" />
  <path
     style="stroke-width:0.8496"
     id="path18048"
     d="m 2080.0524,81.96824 c -1.5293,-2.80368 -4.7578,-4.33296 -8.6659,-4.33296 -2.8887,0 -6.0322,0.8496 -9.0907,2.46384 -5.6074,2.9736 -9.0058,7.98624 -9.0058,12.3192 0,1.18944 0.2549,2.37888 0.8496,3.48336 1.5293,2.80368 4.7578,4.248 8.6659,4.248 2.8887,0 6.0322,-0.76464 9.0907,-2.37888 5.6074,-2.9736 9.0058,-7.98624 9.0058,-12.3192 0,-1.18944 -0.2549,-2.37888 -0.8496,-3.48336"
     class="Note" />
  <path
     style="stroke-width:0.8496"
     id="path18050"
     d="m 2110.4224,92.58824 c -1.5293,-2.80368 -4.7578,-4.33296 -8.6659,-4.33296 -2.8887,0 -6.0322,0.8496 -9.0907,2.46384 -5.6074,2.9736 -9.0058,7.98624 -9.0058,12.3192 0,1.18944 0.2549,2.37888 0.8496,3.48336 1.5293,2.80368 4.7578,4.248 8.6659,4.248 2.8887,0 6.0322,-0.76464 9.0907,-2.37888 5.6074,-2.9736 9.0058,-7.98624 9.0058,-12.3192 0,-1.18944 -0.2549,-2.37888 -0.8496,-3.48336"
     class="Note" />
  <path
     style="stroke-width:0.8496"
     id="path18052"
     d="m 2165.2924,103.20824 c -1.5293,-2.80368 -4.7578,-4.33296 -8.6659,-4.33296 -2.8887,0 -6.0322,0.8496 -9.0907,2.46384 -5.6074,2.9736 -9.0058,7.98624 -9.0058,12.3192 0,1.18944 0.2549,2.37888 0.8496,3.48336 1.5293,2.80368 4.7578,4.248 8.6659,4.248 2.8887,0 6.0322,-0.76464 9.0907,-2.37888 5.6074,-2.9736 9.0058,-7.98624 9.0058,-12.3192 0,-1.18944 -0.2549,-2.37888 -0.8496,-3.48336"
     class="Note" />
  <path
     style="stroke-width:0.8496"
     id="path18054"
     d="m 2273.1024,92.58824 c -1.5293,-2.80368 -4.7578,-4.33296 -8.6659,-4.33296 -2.8887,0 -6.0322,0.8496 -9.0907,2.46384 -5.6074,2.9736 -9.0058,7.98624 -9.0058,12.3192 0,1.18944 0.2549,2.37888 0.8496,3.48336 1.5293,2.80368 4.7578,4.248 8.6659,4.248 2.8887,0 6.0322,-0.76464 9.0907,-2.37888 5.6074,-2.9736 9.0058,-7.98624 9.0058,-12.3192 0,-1.18944 -0.2549,-2.37888 -0.8496,-3.48336"
     class="Note" />
  <path
     style="stroke-width:0.8496"
     id="path18146"
     d="m 52.683696,224.16579 c 0.01699,-1.28281 -0.569317,-2.50632 -1.597248,-3.28795 -1.028016,-0.80712 -2.438352,-1.23192 -4.07808,-1.23192 -1.971072,0 -3.755232,0.6033 -5.021136,1.6992 -1.265904,1.09598 -1.979653,2.65933 -1.979653,4.38402 0,1.58875 0.526837,2.75262 1.792741,3.93356 -0.968544,0.39082 -1.6992,0.79871 -2.344981,1.29148 -1.308299,0.99403 -2.08152,2.46384 -2.08152,3.93356 0,2.7697 2.514901,4.62191 6.270133,4.62191 4.596336,0 7.807824,-2.5488 7.807824,-6.18517 0,-1.89461 -0.8496,-3.54275 -2.404368,-4.68971 2.480832,-1.01952 3.636288,-2.44693 3.636288,-4.46898 m -8.470597,13.5936 c -1.86912,0 -3.109451,-1.20643 -3.109451,-2.99909 0,-1.61424 0.781632,-2.98201 2.200464,-3.85718 0.305856,0.16142 0.38232,0.2039 0.671184,0.34842 1.011024,0.50976 1.011024,0.50976 1.223424,0.6372 h 0.0085 c 1.622736,0.92598 2.276843,1.80115 2.276843,3.0075 0,1.62282 -1.410251,2.86315 -3.27096,2.86315 m 3.203077,-10.20361 c -1.214928,-0.6372 -1.546357,-0.8242 -1.86912,-1.01111 l -0.08496,-0.0509 c -1.31688,-0.79871 -1.724688,-1.37644 -1.724688,-2.44685 0,-1.52928 1.172448,-2.59986 2.837664,-2.59986 1.682208,0 2.650667,1.01952 2.650667,2.78669 0,1.41042 -0.492683,2.31949 -1.809563,3.32202 m 7.111152,-8.74247 -0.33984,-0.17833 v 1.85204 l 0.101952,0.068 c 1.31688,0.93456 1.886112,1.60583 2.455259,2.84616 0.815701,1.75867 1.248997,4.22251 1.248997,7.11965 0,2.65075 -0.348336,4.8852 -1.036597,6.62688 -0.611627,1.59733 -1.23192,2.37888 -2.667659,3.37291 l -0.101952,0.068 v 1.85221 l 0.33984,-0.1785 c 1.852128,-0.96846 2.88864,-1.76717 4.112064,-3.186 2.08152,-2.44685 3.186,-5.40337 3.186,-8.56397 0.0085,-2.90563 -0.968544,-5.7348 -2.769696,-8.01164 -1.265904,-1.63132 -2.489328,-2.63376 -4.528368,-3.68735 M 70.81416,158.20292 c -1.045008,-4.6134 -3.287952,-7.85879 -3.95064,-8.74246 -2.710224,-3.62779 -6.11712,-6.04915 -10.101744,-7.19611 -2.642256,-0.75606 -5.191056,-0.8496 -7.247088,-0.69667 -0.883669,-5.1061 -1.733269,-10.10166 -2.50632,-14.73198 4.63032,-5.24212 7.705872,-10.1698 9.64296,-13.82308 2.948112,-5.59028 3.925152,-9.48145 3.967632,-9.65137 1.461312,-4.426498 1.767168,-10.968418 0.832608,-17.943549 -0.858096,-6.41448 -2.63376,-12.115381 -4.63032,-14.876581 -0.875088,-1.214928 -1.767168,-1.835136 -2.650752,-1.835136 -1.036597,0 -3.169008,1.053504 -5.624437,3.406896 -1.95408,1.86912 -4.732187,5.174064 -6.907163,10.28016 -2.5488,5.998261 -2.727216,14.06088 -2.429856,19.77019 0.322848,6.17659 1.265819,11.0109 1.2744,11.05338 0.01699,0.0764 0.237888,1.35078 0.620208,3.53425 -0.195408,0.19541 -0.399312,0.38232 -0.611712,0.58631 -0.883584,0.8496 -1.894608,1.81806 -3.067056,2.99051 -0.730741,0.73074 -1.537861,1.50379 -2.387461,2.3279 -7.17912,6.91583 -18.045419,17.38282 -18.045419,33.65266 0,3.99312 0.76464,7.74837 2.276911,11.15532 1.350898,3.05856 3.304978,5.84526 5.794289,8.28361 6.567408,6.41448 15.564672,9.14161 21.562848,9.00576 2.50632,-0.0595 4.740768,-0.26346 6.771312,-0.64578 1.554768,8.15616 2.523312,14.12885 2.557296,18.66571 0.03398,5.5309 -1.367856,8.90381 -4.681296,11.2572 -2.064528,1.46981 -4.451904,2.27693 -7.085664,2.40437 -2.200464,0.10195 -4.12056,-0.29736 -5.335488,-0.64561 h -0.0085 c 0,0 -0.246384,-0.068 -0.25488,-0.23789 -0.0085,-0.15301 0.288864,-0.19549 0.29736,-0.19549 h 0.01691 c 1.631317,-0.37374 4.664389,-1.41875 6.66936,-4.22243 1.52928,-2.14099 2.268517,-6.06623 0.705253,-9.41365 -0.943056,-2.03046 -3.075552,-4.53678 -7.850304,-4.9191 -2.115589,-0.16992 -4.044096,0.26329 -5.743296,1.28281 -1.537776,0.91757 -2.812176,2.31091 -3.704256,4.01011 -2.090016,3.99312 -1.6992,8.86133 0.959963,12.12388 1.622821,1.98798 3.840277,3.50876 6.448549,4.46881 l -0.03407,0.017 -0.220811,0.11903 c -1.852128,0.96846 -2.88864,1.76717 -4.112149,3.186 -2.03904,2.37888 -3.168923,5.40337 -3.186,8.5299 -0.0084,2.91413 0.968629,5.75179 2.769781,8.0373 1.299888,1.65672 2.523312,2.65925 4.519872,3.70417 l 0.33984,0.17842 v -1.85213 l -0.09346,-0.068 c -1.31688,-0.93456 -1.894608,-1.59716 -2.46384,-2.84616 -0.815616,-1.75867 -1.248997,-4.23092 -1.248997,-7.15363 0,-2.63376 0.348421,-4.85971 1.036597,-6.60139 0.59472,-1.55477 1.223424,-2.3449 2.667744,-3.37283 l 0.101952,-0.068 v -1.77558 c 1.410336,0.50976 2.922624,0.85801 4.528368,1.02793 0.72216,0.0765 1.44432,0.11045 2.16648,0.11045 3.763728,0 7.501968,-1.01952 10.53504,-2.89714 3.109536,-2.18347 4.910688,-5.56488 5.488416,-10.34804 0.475776,-3.94223 0.144432,-8.96328 -1.045008,-15.81964 -0.305856,-1.77566 -0.76464,-4.34995 -1.325376,-7.54436 4.8852,-1.63132 8.419536,-4.66439 11.622528,-9.63455 2.795099,-4.88518 3.593808,-10.06774 2.37888,-15.41167 M 45.147659,91.99352 c 1.512373,-4.876619 3.840277,-7.637819 5.530981,-9.107627 1.4868,-1.291392 2.88864,-1.894693 3.670272,-1.894693 0.118944,0 0.220896,0.01699 0.305856,0.04248 0.390731,0.118944 0.841104,0.603301 1.240331,1.342453 1.962661,3.644699 1.333957,9.3456 0.195493,13.117739 -1.384933,4.587838 -3.86568,9.362588 -11.34216,17.527248 -0.144432,-0.94306 -0.280453,-1.83514 -0.407893,-2.66766 -1.062,-7.04327 -0.790043,-13.21986 0.80712,-18.35994 m -3.3984,88.45194 c -3.942059,-1.0366 -7.705787,-3.1606 -10.900283,-6.1342 -1.112976,-1.04492 -2.701728,-2.8886 -3.95064,-5.76878 -1.164037,-2.6847 -1.724705,-5.59881 -1.682225,-8.64891 0.05949,-3.98457 1.172465,-8.07963 3.304961,-12.1493 2.480747,-4.74077 6.355008,-9.43897 11.503584,-13.96734 1.23192,-1.08757 2.395872,-2.17506 3.491856,-3.26255 0.645696,3.6193 1.350864,7.60392 2.098427,11.74997 -3.27096,1.07899 -7.30656,3.75523 -9.948731,8.55547 -3.007669,5.59039 -2.88864,10.27174 -2.268432,13.22833 0.798624,3.78918 2.948112,6.98373 5.887643,8.75932 0.790213,0.47586 4.299061,2.28551 5.86224,1.79274 0.314437,-0.10195 0.543829,-0.28895 0.662773,-0.56923 0.433296,-0.99412 -0.433296,-1.53786 -1.758672,-2.35344 -0.50976,-0.31437 -1.078992,-0.67122 -1.6992,-1.12149 -2.820672,-2.11545 -4.052592,-5.89617 -3.14352,-9.61749 0.492768,-2.03904 1.580256,-3.87414 3.14352,-5.31846 1.418832,-1.31692 3.152016,-2.25148 5.173979,-2.79522 1.733269,9.54954 3.48336,19.02254 4.876789,26.1252 0.110448,0.58622 0.229392,1.15554 0.33984,1.72477 -3.721248,0.79013 -7.417008,0.71358 -10.993909,-0.22939 m 21.8772,-8.66592 c -0.993947,2.70164 -3.083963,6.1596 -7.442411,7.90969 -0.05947,-0.35683 -0.12744,-0.72216 -0.195408,-1.08749 -1.308384,-7.45097 -2.956608,-16.78802 -4.621824,-26.3376 8.79336,-0.39931 12.421152,5.92177 13.177296,10.02532 0.399227,2.14101 0.390816,5.91318 -0.917653,9.49008"
     class="Clef" />
  <path
     style="stroke-width:0.8496"
     id="path18152"
     d="m 109.66996,135.23816 c -0.50976,-3.31344 -2.5488,-6.45696 -6.88176,-6.45696 -4.248,0 -6.71184,2.63376 -7.13664,3.14352 l 0.33984,-27.27216 c 0,-0.67968 -0.50976,-1.18944 -1.18944,-1.18944 h -1.01952 c -0.67968,0 -1.18944,0.50976 -1.18944,1.18944 l 0.4248,51.06096 c 0,0.67968 0.50976,1.18944 1.18944,1.18944 0.16992,0 0.50976,-0.085 0.67968,-0.16992 0.33984,-0.16992 5.86224,-2.88864 10.45008,-8.0712 3.22848,-3.65328 4.50288,-7.81632 4.50288,-11.29968 0,-0.76464 -0.085,-1.44432 -0.16992,-2.124 m -5.86224,3.31344 c 0,1.2744 -0.33984,5.18256 -2.46384,8.41104 -1.44432,2.20896 -4.33296,4.50288 -5.9472,5.77728 l 0.25488,-16.5672 c 0.16992,-0.76464 1.44432,-3.22848 4.84272,-3.22848 3.05856,0 3.31344,2.88864 3.31344,4.6728 v 0.93456"
     class="KeySig" />
  <path
     style="stroke-width:0.8496"
     id="path18156"
     d="M 175.4322,61.46384 V 69.62 h 2.71872 v -8.15616 c 3.3984,-0.76464 5.9472,-4.33296 5.9472,-8.41104 0,-4.6728 -3.22848,-8.58096 -7.30656,-8.58096 -4.07808,0 -7.30656,3.90816 -7.30656,8.58096 0,4.07808 2.5488,7.6464 5.9472,8.41104 m 1.35936,-15.88752 c 1.44432,0 3.22848,3.22848 3.22848,7.2216 0,3.99312 -1.78416,7.30656 -3.22848,7.30656 -1.44432,0 -3.22848,-3.31344 -3.22848,-7.30656 0,-3.99312 1.78416,-7.2216 3.22848,-7.2216"
     class="Articulation" />
  <path
     style="stroke-width:0.8496"
     id="path18158"
     d="M 264.2122,48.83384 V 56.99 h 2.71872 v -8.15616 c 3.3984,-0.76464 5.9472,-4.33296 5.9472,-8.41104 0,-4.6728 -3.22848,-8.58096 -7.30656,-8.58096 -4.07808,0 -7.30656,3.90816 -7.30656,8.58096 0,4.07808 2.5488,7.6464 5.9472,8.41104 m 1.35936,-15.88752 c 1.44432,0 3.22848,3.22848 3.22848,7.2216 0,3.99312 -1.78416,7.30656 -3.22848,7.30656 -1.44432,0 -3.22848,-3.31344 -3.22848,-7.30656 0,-3.99312 1.78416,-7.2216 3.22848,-7.2216"
     class="Articulation" />
  <path
     style="stroke-width:0.8496"
     id="path18160"
     d="M 319.1312,38.21384 V 46.37 h 2.71872 v -8.15616 c 3.3984,-0.76464 5.9472,-4.33296 5.9472,-8.41104 0,-4.6728 -3.22848,-8.58096 -7.30656,-8.58096 -4.07808,0 -7.30656,3.90816 -7.30656,8.58096 0,4.07808 2.5488,7.6464 5.9472,8.41104 m 1.35936,-15.88752 c 1.44432,0 3.22848,3.22848 3.22848,7.2216 0,3.99312 -1.78416,7.30656 -3.22848,7.30656 -1.44432,0 -3.22848,-3.31344 -3.22848,-7.30656 0,-3.99312 1.78416,-7.2216 3.22848,-7.2216"
     class="Articulation" />
  <path
     id="path18208"
     d="m 251.764,179.1 57.255,-5.54 v 10.67 l -57.255,5.54 V 179.1"
     fill-rule="evenodd"
     class="Beam" />
  <path
     id="path18210"
     d="m 309.019,157.63 -27.612,2.67 v 10.67 l 27.612,-2.67 v -10.67"
     fill-rule="evenodd"
     class="Beam" />
  <path
     id="path18212"
     d="m 337.054,179.07 148.66,21.58 v 10.73 L 337.054,189.8 v -10.73"
     fill-rule="evenodd"
     class="Beam" />
  <path
     id="path18214"
     d="m 337.054,163.14 148.66,21.58 v 10.73 l -148.66,-21.58 v -10.73"
     fill-rule="evenodd"
     class="Beam" />
  <path
     id="path18216"
     d="M 539.018,56.99 H 690.06 V 67.61 H 539.018 V 56.99"
     fill-rule="evenodd"
     class="Beam" />
  <path
     id="path18218"
     d="M 539.018,72.92 H 690.06 V 83.54 H 539.018 V 72.92"
     fill-rule="evenodd"
     class="Beam" />
  <path
     id="path18220"
     d="m 569.391,88.85 h 32.703 V 99.47 H 569.391 V 88.85"
     fill-rule="evenodd"
     class="Beam" />
  <path
     id="path18222"
     d="m 718.1,94.02 93.45,5.44 V 110.1 L 718.1,104.66 V 94.02"
     fill-rule="evenodd"
     class="Beam" />
  <path
     id="path18224"
     d="m 718.1,109.95 93.45,5.44 v 10.64 l -93.45,-5.44 v -10.64"
     fill-rule="evenodd"
     class="Beam" />
  <path
     id="path18226"
     d="m 897.99,93.48 93.45,21.78 v 10.9 l -93.45,-21.78 v -10.9"
     fill-rule="evenodd"
     class="Beam" />
  <path
     id="path18228"
     d="m 897.99,109.41 93.45,21.78 v 10.9 l -93.45,-21.78 v -10.9"
     fill-rule="evenodd"
     class="Beam" />
  <path
     id="path18230"
     d="m 1019.47,29.54 93.45,27.23 V 67.83 L 1019.47,40.6 V 29.54"
     fill-rule="evenodd"
     class="Beam" />
  <path
     id="path18232"
     d="m 1019.47,45.47 93.45,27.23 V 83.76 L 1019.47,56.53 V 45.47"
     fill-rule="evenodd"
     class="Beam" />
  <path
     id="path18234"
     d="m 1148.39,73.4 120.67,-37.9 v 11.13 l -120.67,37.9 V 73.4"
     fill-rule="evenodd"
     class="Beam" />
  <path
     id="path18236"
     d="m 1148.39,89.33 120.67,-37.9 v 11.13 l -120.67,37.9 V 89.33"
     fill-rule="evenodd"
     class="Beam" />
  <path
     id="path18238"
     d="m 1271.83,221.47 119.63,-27.08 v 10.89 l -119.63,27.08 v -10.89"
     fill-rule="evenodd"
     class="Beam" />
  <path
     id="path18240"
     d="m 1271.83,205.54 119.63,-27.08 v 10.89 l -119.63,27.08 v -10.89"
     fill-rule="evenodd"
     class="Beam" />
  <path
     id="path18242"
     d="m 1477.9,216.29 h 93.45 v 10.62 h -93.45 v -10.62"
     fill-rule="evenodd"
     class="Beam" />
  <path
     id="path18244"
     d="m 1477.9,200.36 h 93.45 v 10.62 h -93.45 v -10.62"
     fill-rule="evenodd"
     class="Beam" />
  <path
     id="path18246"
     d="M 1651.88,99.87 1772.2,72.79 v 10.88 l -120.32,27.08 V 99.87"
     fill-rule="evenodd"
     class="Beam" />
  <path
     id="path18248"
     d="M 1651.88,115.8 1772.2,88.72 V 99.6 l -120.32,27.08 V 115.8"
     fill-rule="evenodd"
     class="Beam" />
  <path
     id="path18250"
     d="m 1774.97,195.05 h 120.67 v 10.62 h -120.67 v -10.62"
     fill-rule="evenodd"
     class="Beam" />
  <path
     id="path18252"
     d="m 1774.97,179.12 h 120.67 v 10.62 h -120.67 v -10.62"
     fill-rule="evenodd"
     class="Beam" />
  <path
     id="path18254"
     d="m 1924.05,136.52 101.21,21.74 v 10.87 l -101.21,-21.75 v -10.86"
     fill-rule="evenodd"
     class="Beam" />
  <path
     id="path18256"
     d="m 1924.05,120.59 101.21,21.74 v 10.87 l -101.21,-21.75 v -10.86"
     fill-rule="evenodd"
     class="Beam" />
  <path
     id="path18258"
     d="m 2053.29,152.41 87.58,21.82 v 10.95 l -87.58,-21.83 v -10.94"
     fill-rule="evenodd"
     class="Beam" />
  <path
     id="path18260"
     d="m 2053.29,136.48 87.58,21.82 v 10.95 l -87.58,-21.83 v -10.94"
     fill-rule="evenodd"
     class="Beam" />
  <path
     style="stroke-width:0.8496"
     id="path18312"
     d="m 280.0066,38.7236 c -0.085,-0.25488 -0.8496,-3.22848 -0.8496,-3.3984 -0.085,-0.33984 -0.59472,-0.59472 -1.01952,-0.59472 -0.59472,0 -1.10448,0.50976 -1.10448,1.10448 v 13.93344 5.26752 c 0,0.4248 0.33984,0.76464 0.67968,0.93456 3.56832,1.10448 10.95984,5.77728 16.48224,15.20784 1.52928,2.63376 3.99312,6.20208 3.99312,13.33872 0,6.11712 -0.93456,12.57408 -2.46384,18.52128 -0.25488,0.93456 -0.50976,1.78416 0.4248,2.124 0.93456,0.33984 1.2744,-0.33984 1.61424,-1.18944 3.05856,-7.47648 3.8232,-15.2928 3.8232,-20.56032 v -1.61424 c -0.4248,-10.95984 -6.71184,-19.03104 -6.71184,-19.03104 0.25488,0 -7.81632,-10.45008 -10.11024,-14.0184 -3.14352,-4.84272 -4.6728,-9.68544 -4.75776,-10.02528"
     class="Hook" />
  <path
     style="stroke-width:0.8496"
     id="path18318"
     d="m 162.94152,185.08761 c 0,0.57854 0.27446,1.05179 1.2549,1.05179 0.98044,0 1.15717,-0.4316 1.25482,-1.05179 0,0 1.32368,-9.02534 4.57175,-13.7372 3.24797,-4.71188 8.51634,-7.39152 12.62585,-12.62676 2.97793,-3.79176 4.04325,-8.34562 4.12396,-12.78053 0.0765,-4.22506 -0.7451,-8.31682 -1.65579,-11.56476 0.28377,-1.79775 0.45276,-3.86483 0.45276,-6.28704 0,-4.81043 -2.19877,-9.40507 -3.76033,-11.84002 -0.40271,-0.62701 -0.83261,-1.52928 -1.72724,-1.0671 -0.89454,0.4621 -0.49617,1.4936 -0.20815,2.29392 1.23871,3.42126 1.81899,7.73136 1.88704,9.84772 0.10867,3.38735 -0.14783,6.69399 -3.55481,11.78055 -5.08222,7.58693 -11.80945,11.80944 -14.00986,12.62251 -0.57605,0.19872 -1.2549,0.60321 -1.2549,0.81306 v 32.54565 m 19.9656,-43.72808 c 0.29991,4.09082 0.35428,8.17655 -4.44502,13.99877 -3.22848,3.91419 -8.41961,7.77308 -12.22921,8.078 l -0.085,0.34927 c 0.0535,-0.28215 0.10703,-0.53703 0.15971,-0.74 0.55739,-2.16487 2.11803,-5.12139 5.44423,-8.46202 4.17409,-4.19201 6.70165,-6.88176 8.99897,-9.87065 0.6784,-0.87254 1.64593,-2.37489 2.15968,-3.35337 h -0.003"
     class="Hook" />
  <path
     style="stroke-width:0.8496"
     id="path18320"
     d="m 2246.2975,174.46761 c 0,0.57854 0.2745,1.05179 1.2549,1.05179 0.9805,0 1.1572,-0.4316 1.2548,-1.05179 0,0 1.3237,-9.02534 4.5718,-13.7372 3.248,-4.71188 8.5163,-7.39152 12.6258,-12.62676 2.978,-3.79176 4.0433,-8.34562 4.124,-12.78053 0.077,-4.22506 -0.7451,-8.31682 -1.6558,-11.56476 0.2838,-1.79775 0.4528,-3.86483 0.4528,-6.28704 0,-4.81043 -2.1988,-9.40507 -3.7604,-11.84002 -0.4027,-0.62701 -0.8326,-1.52928 -1.7272,-1.0671 -0.8945,0.4621 -0.4962,1.4936 -0.2082,2.29392 1.2388,3.42126 1.819,7.73136 1.8871,9.84772 0.1087,3.38735 -0.1478,6.69399 -3.5548,11.78055 -5.0822,7.58693 -11.8095,11.80944 -14.0099,12.62251 -0.576,0.19872 -1.2549,0.60321 -1.2549,0.81306 v 32.54565 m 19.9656,-43.72808 c 0.2999,4.09082 0.3543,8.17655 -4.445,13.99877 -3.2285,3.91419 -8.4196,7.77308 -12.2292,8.078 l -0.085,0.34927 c 0.053,-0.28215 0.1071,-0.53703 0.1597,-0.74 0.5574,-2.16487 2.1181,-5.12139 5.4443,-8.46202 4.1741,-4.19201 6.7016,-6.88176 8.9989,-9.87065 0.6784,-0.87254 1.646,-2.37489 2.1597,-3.35337 v 0"
     class="Hook" />
  <path
     id="path18328"
     d="m 267.571,81.21 c 3.094,-1.12 4.522,-2.85 4.522,-5.57 0,-3.57 -2.72,-5.85 -6.936,-5.85 -3.978,0 -7.004,2.34 -7.004,5.44 0,1.39 0.918,2.38 2.244,2.38 1.19,0 2.006,-0.82 2.006,-2.04 0,-0.75 -0.272,-1.19 -1.054,-1.74 -0.34,-0.23 -0.442,-0.37 -0.442,-0.61 0,-0.95 1.972,-1.97 3.91,-1.97 2.448,0 3.74,1.53 3.74,4.42 0,3.16 -1.292,4.83 -3.706,4.83 -0.306,0 -0.884,-0.04 -1.394,-0.07 -0.272,-0.03 -0.544,-0.03 -0.748,-0.03 -0.714,0 -1.088,0.3 -1.088,0.91 0,0.58 0.34,0.85 1.088,0.85 0.204,0 0.476,0 0.782,-0.03 0.68,-0.03 1.224,-0.03 1.598,-0.03 2.516,0 3.876,1.8 3.876,5.16 0,3.54 -1.7,5.51 -4.76,5.51 -2.142,0 -4.454,-1.15 -4.454,-2.21 0,-0.3 0.068,-0.37 0.714,-0.75 0.952,-0.57 1.326,-1.15 1.326,-2 0,-1.23 -0.918,-2.14 -2.142,-2.14 -1.462,0 -2.414,1.19 -2.414,2.99 0,3.3 3.026,5.57 7.378,5.57 4.93,0 8.126,-2.72 8.126,-6.9 0,-3.19 -1.632,-5.13 -5.168,-6.12"
     class="Fingering" />
  <path
     id="path18388"
     d="m 353.434,75.38 c 3.094,-1.12 4.522,-2.85 4.522,-5.57 0,-3.57 -2.72,-5.85 -6.936,-5.85 -3.978,0 -7.004,2.35 -7.004,5.44 0,1.39 0.918,2.38 2.244,2.38 1.19,0 2.006,-0.82 2.006,-2.04 0,-0.75 -0.272,-1.19 -1.054,-1.73 -0.34,-0.24 -0.442,-0.38 -0.442,-0.62 0,-0.95 1.972,-1.97 3.91,-1.97 2.448,0 3.74,1.53 3.74,4.42 0,3.16 -1.292,4.83 -3.706,4.83 -0.306,0 -0.884,-0.03 -1.394,-0.07 -0.272,-0.03 -0.544,-0.03 -0.748,-0.03 -0.714,0 -1.088,0.3 -1.088,0.92 0,0.57 0.34,0.85 1.088,0.85 0.204,0 0.476,0 0.782,-0.04 0.68,-0.03 1.224,-0.03 1.598,-0.03 2.516,0 3.876,1.8 3.876,5.17 0,3.53 -1.7,5.5 -4.76,5.5 -2.142,0 -4.454,-1.15 -4.454,-2.21 0,-0.3 0.068,-0.37 0.714,-0.74 0.952,-0.58 1.326,-1.16 1.326,-2.01 0,-1.22 -0.918,-2.14 -2.142,-2.14 -1.462,0 -2.414,1.19 -2.414,2.99 0,3.3 3.026,5.58 7.378,5.58 4.93,0 8.126,-2.72 8.126,-6.91 0,-3.19 -1.632,-5.13 -5.168,-6.12"
     class="Fingering" />
  <path
     id="path18390"
     d="m 500.254,64.88 -11.56,16.09 v 1.9 h 9.554 v 1.77 c 0,1.73 0,1.8 -0.204,2.11 -0.272,0.37 -0.918,0.47 -2.856,0.47 h -0.374 v 1.6 h 9.928 v -1.6 h -0.136 c -1.938,0 -2.584,-0.1 -2.856,-0.47 -0.204,-0.31 -0.204,-0.34 -0.204,-2.11 v -1.77 h 4.114 v -1.9 h -4.114 v -9.29 c 0,-4.25 0,-4.35 0.17,-6.8 h -1.462 m -2.006,16.09 h -7.48 l 7.48,-10.31 v 10.31"
     class="Fingering" />
  <path
     id="path18392"
     d="m 535.535,43.14 h -1.496 l -0.34,1.73 c -0.442,2.21 -0.714,2.42 -2.822,2.42 h -7.616 c 2.346,-2.45 3.128,-3.17 5.304,-4.87 3.094,-2.38 4.42,-3.57 5.202,-4.59 1.088,-1.49 1.632,-2.99 1.632,-4.65 0,-3.88 -3.196,-6.63 -7.65,-6.63 -4.318,0 -7.616,2.75 -7.616,6.39 0,2.14 1.088,3.6 2.686,3.6 1.258,0 2.108,-0.85 2.108,-2.07 0,-0.85 -0.476,-1.63 -1.19,-1.94 -1.258,-0.51 -1.326,-0.58 -1.326,-1.02 0,-0.51 0.34,-1.29 0.816,-1.87 0.85,-1.05 2.244,-1.63 3.842,-1.63 2.822,0 4.488,1.73 4.488,4.59 0,2.51 -1.19,4.79 -4.012,7.78 -2.516,2.66 -4.08,4.32 -4.658,4.97 -1.224,1.43 -1.836,2.21 -3.332,4.18 v 0.95 h 15.334 l 0.646,-7.34"
     class="Fingering" />
  <path
     id="path18394"
     d="m 634.764,39.37 3.876,-4.52 c 0.85,-0.98 1.63,-1.43 2.55,-1.43 h 0.31 V 32.2 h -7.042 v 1.22 h 0.646 c 1.02,0 1.53,0.24 1.53,0.75 0,0.34 -0.238,0.82 -0.68,1.36 l -2.142,2.59 -2.618,-3.34 c -0.204,-0.27 -0.34,-0.54 -0.34,-0.74 0,-0.45 0.442,-0.62 1.496,-0.62 h 0.476 V 32.2 h -8.058 v 1.22 c 1.258,0.11 1.734,0.41 2.822,1.84 l 4.148,5.2 -3.91,4.56 c -1.156,1.29 -2.142,1.83 -3.06,1.8 h -0.204 v 1.22 h 7.174 v -1.22 h -0.51 c -0.782,0 -0.952,-0.03 -1.19,-0.14 -0.272,-0.17 -0.476,-0.47 -0.476,-0.78 0,-0.24 0.102,-0.54 0.272,-0.75 l 2.856,-3.4 2.584,3.44 c 0.238,0.34 0.442,0.78 0.442,1.02 0,0.44 -0.51,0.61 -1.802,0.61 h -0.238 v 1.22 h 8.564 v -1.22 h -0.23 c -1.19,0 -1.98,-0.44 -2.962,-1.67 l -4.284,-5.78 m 19.506,-3.84 c 3.1,-1.12 4.52,-2.85 4.52,-5.57 0,-3.57 -2.72,-5.85 -6.93,-5.85 -3.98,0 -7.01,2.34 -7.01,5.44 0,1.39 0.92,2.38 2.25,2.38 1.19,0 2,-0.82 2,-2.04 0,-0.75 -0.27,-1.19 -1.05,-1.74 -0.34,-0.23 -0.44,-0.37 -0.44,-0.61 0,-0.95 1.97,-1.97 3.91,-1.97 2.45,0 3.74,1.53 3.74,4.42 0,3.16 -1.29,4.83 -3.71,4.83 -0.3,0 -0.88,-0.04 -1.39,-0.07 -0.27,-0.03 -0.55,-0.03 -0.75,-0.03 -0.71,0 -1.09,0.3 -1.09,0.91 0,0.58 0.34,0.85 1.09,0.85 0.2,0 0.48,0 0.78,-0.03 0.68,-0.03 1.23,-0.03 1.6,-0.03 2.52,0 3.88,1.8 3.88,5.16 0,3.54 -1.7,5.51 -4.76,5.51 -2.15,0 -4.46,-1.15 -4.46,-2.21 0,-0.3 0.07,-0.37 0.72,-0.75 0.95,-0.57 1.32,-1.15 1.32,-2 0,-1.23 -0.92,-2.14 -2.14,-2.14 -1.46,0 -2.41,1.19 -2.41,2.99 0,3.3 3.02,5.57 7.37,5.57 4.93,0 8.13,-2.72 8.13,-6.9 0,-3.19 -1.63,-5.13 -5.17,-6.12"
     class="Fingering" />
  <path
     id="path18396"
     d="M 709.7,63.72 698.14,79.8 v 1.9 h 9.56 v 1.77 c 0,1.73 0,1.8 -0.21,2.11 -0.27,0.37 -0.91,0.47 -2.85,0.47 h -0.38 v 1.6 h 9.93 v -1.6 h -0.13 c -1.94,0 -2.59,-0.1 -2.86,-0.47 C 711,85.27 711,85.24 711,83.47 V 81.7 h 4.11 V 79.8 H 711 v -9.28 c 0,-4.25 0,-4.36 0.17,-6.8 h -1.47 m -2,16.08 h -7.48 l 7.48,-10.3 v 10.3"
     class="Fingering" />
  <path
     id="path18398"
     d="m 1011.08,0 -11.56,16.08 v 1.9 h 9.56 v 1.77 c 0,1.73 0,1.8 -0.21,2.11 -0.27,0.37 -0.92,0.47 -2.85,0.47 h -0.38 v 1.6 h 9.93 v -1.6 h -0.14 c -1.93,0 -2.58,-0.1 -2.85,-0.47 -0.21,-0.31 -0.21,-0.34 -0.21,-2.11 v -1.77 h 4.12 v -1.9 h -4.12 V 6.8 c 0,-4.25 0,-4.36 0.17,-6.8 h -1.46 m -2,16.08 h -7.48 l 7.48,-10.3 v 10.3"
     class="Fingering" />
  <path
     id="path18400"
     d="m 1137.74,42.48 c -1.15,1.39 -4.28,2.44 -7.41,2.51 v 1.46 h 2.99 c 1.98,0.04 2.18,0.24 2.11,2.15 v 13.63 c 0,1.73 0,1.8 -0.2,2.11 -0.27,0.34 -0.92,0.47 -2.82,0.47 h -2.21 v 1.6 h 13.46 v -1.6 h -1.87 c -1.9,0 -2.55,-0.13 -2.82,-0.47 -0.24,-0.31 -0.24,-0.34 -0.24,-2.11 V 48.19 c 0,-1.91 0.07,-3.5 0.24,-5.71 h -1.23"
     class="Fingering" />
  <path
     id="path18402"
     d="m 1263.24,21.9 h -1.5 l -0.34,1.73 c -0.44,2.21 -0.71,2.42 -2.82,2.42 h -7.61 c 2.34,-2.45 3.12,-3.17 5.3,-4.87 3.09,-2.38 4.42,-3.57 5.2,-4.59 1.09,-1.49 1.63,-2.99 1.63,-4.65 0,-3.88 -3.19,-6.63 -7.65,-6.63 -4.31,0 -7.61,2.75 -7.61,6.39 0,2.14 1.09,3.6 2.68,3.6 1.26,0 2.11,-0.85 2.11,-2.07 0,-0.85 -0.47,-1.63 -1.19,-1.94 -1.26,-0.51 -1.32,-0.58 -1.32,-1.02 0,-0.51 0.34,-1.29 0.81,-1.87 0.85,-1.05 2.25,-1.63 3.84,-1.63 2.83,0 4.49,1.73 4.49,4.59 0,2.51 -1.19,4.79 -4.01,7.78 -2.52,2.66 -4.08,4.32 -4.66,4.97 -1.22,1.43 -1.83,2.21 -3.33,4.18 v 0.95 h 15.33 l 0.65,-7.34"
     class="Fingering" />
  <path
     id="path18404"
     d="m 1286.45,64.88 c -1.15,1.4 -4.28,2.45 -7.41,2.52 v 1.46 h 2.99 c 1.97,0.04 2.18,0.24 2.11,2.14 v 13.64 c 0,1.73 0,1.8 -0.2,2.11 -0.28,0.34 -0.92,0.47 -2.83,0.47 h -2.21 v 1.6 h 13.47 v -1.6 h -1.87 c -1.91,0 -2.55,-0.13 -2.82,-0.47 -0.24,-0.31 -0.24,-0.34 -0.24,-2.11 V 70.6 c 0,-1.91 0.07,-3.51 0.24,-5.72 h -1.23"
     class="Fingering" />
  <path
     id="path18406"
     d="m 1378.85,70.43 h -1.49 l -0.34,1.74 c -0.44,2.21 -0.72,2.41 -2.82,2.41 h -7.62 c 2.35,-2.45 3.13,-3.16 5.3,-4.86 3.1,-2.38 4.42,-3.57 5.21,-4.59 1.08,-1.5 1.63,-2.99 1.63,-4.66 0,-3.88 -3.2,-6.63 -7.65,-6.63 -4.32,0 -7.62,2.75 -7.62,6.39 0,2.14 1.09,3.61 2.69,3.61 1.26,0 2.11,-0.85 2.11,-2.08 0,-0.85 -0.48,-1.63 -1.19,-1.94 -1.26,-0.51 -1.33,-0.57 -1.33,-1.02 0,-0.51 0.34,-1.29 0.82,-1.87 0.85,-1.05 2.24,-1.63 3.84,-1.63 2.82,0 4.49,1.74 4.49,4.59 0,2.52 -1.19,4.8 -4.02,7.79 -2.51,2.65 -4.08,4.32 -4.65,4.96 -1.23,1.43 -1.84,2.21 -3.34,4.18 v 0.96 h 15.34 l 0.64,-7.35"
     class="Fingering" />
  <path
     id="path18408"
     d="m 1391.85,69.86 3.88,-4.52 c 0.85,-0.99 1.63,-1.43 2.55,-1.43 h 0.3 v -1.23 h -7.04 v 1.23 h 0.65 c 1.02,0 1.53,0.24 1.53,0.75 0,0.34 -0.24,0.81 -0.68,1.36 l -2.14,2.58 -2.62,-3.33 c -0.2,-0.27 -0.34,-0.55 -0.34,-0.75 0,-0.44 0.44,-0.61 1.5,-0.61 h 0.47 v -1.23 h -8.06 v 1.23 c 1.26,0.1 1.74,0.41 2.83,1.83 l 4.14,5.21 -3.91,4.55 c -1.15,1.29 -2.14,1.84 -3.06,1.8 h -0.2 v 1.23 h 7.17 V 77.3 h -0.51 c -0.78,0 -0.95,-0.03 -1.19,-0.13 -0.27,-0.17 -0.47,-0.48 -0.47,-0.78 0,-0.24 0.1,-0.55 0.27,-0.75 l 2.86,-3.4 2.58,3.43 c 0.24,0.34 0.44,0.78 0.44,1.02 0,0.44 -0.51,0.61 -1.8,0.61 h -0.24 v 1.23 h 8.57 V 77.3 h -0.24 c -1.19,0 -1.97,-0.44 -2.96,-1.66 l -4.28,-5.78 m 18.69,-15.27 c -1.15,1.4 -4.28,2.45 -7.41,2.52 v 1.46 h 2.99 c 1.97,0.03 2.18,0.24 2.11,2.14 v 13.64 c 0,1.73 0,1.8 -0.2,2.1 -0.28,0.34 -0.92,0.48 -2.83,0.48 h -2.21 v 1.6 h 13.47 v -1.6 h -1.87 c -1.91,0 -2.55,-0.14 -2.82,-0.48 -0.24,-0.3 -0.24,-0.34 -0.24,-2.1 V 60.3 c 0,-1.9 0.07,-3.5 0.24,-5.71 h -1.23"
     class="Fingering" />
  <path
     id="path18410"
     d="m 1470.42,64.42 -2.17,0.03 v 21.18 l -2.79,-7.14 -1.77,0.79 4.32,9.72 h 2.62 l 4.35,-9.72 -1.8,-0.79 -2.76,7.14 V 64.42 m 22.21,0.64 c -1.16,1.4 -4.29,2.45 -7.42,2.52 v 1.46 h 3 c 1.97,0.04 2.17,0.24 2.1,2.14 v 13.64 c 0,1.73 0,1.8 -0.2,2.11 -0.27,0.34 -0.92,0.47 -2.82,0.47 h -2.21 V 89 h 13.46 v -1.6 h -1.87 c -1.9,0 -2.55,-0.13 -2.82,-0.47 -0.24,-0.31 -0.24,-0.34 -0.24,-2.11 V 70.78 c 0,-1.91 0.07,-3.51 0.24,-5.72 h -1.22"
     class="Fingering" />
  <path
     id="path18412"
     d="m 1643.49,68.34 -11.56,16.09 v 1.9 h 9.55 v 1.77 c 0,1.73 0,1.8 -0.2,2.11 -0.27,0.37 -0.92,0.47 -2.86,0.47 h -0.37 v 1.6 h 9.93 v -1.6 h -0.14 c -1.94,0 -2.58,-0.1 -2.86,-0.47 -0.2,-0.31 -0.2,-0.34 -0.2,-2.11 v -1.77 h 4.11 v -1.9 h -4.11 v -9.29 c 0,-4.25 0,-4.35 0.17,-6.8 h -1.46 m -2.01,16.09 H 1634 l 7.48,-10.31 v 10.31"
     class="Fingering" />
  <path
     id="path18414"
     d="m 1672.79,54.06 c -1.16,1.4 -4.28,2.45 -7.41,2.52 v 1.46 h 2.99 c 1.97,0.04 2.18,0.24 2.11,2.14 v 13.64 c 0,1.73 0,1.8 -0.21,2.11 -0.27,0.34 -0.91,0.47 -2.82,0.47 h -2.21 V 78 h 13.47 v -1.6 h -1.87 c -1.91,0 -2.55,-0.13 -2.83,-0.47 -0.23,-0.31 -0.23,-0.34 -0.23,-2.11 V 59.78 c 0,-1.91 0.06,-3.51 0.23,-5.72 h -1.22 m 18.45,15.27 3.87,-4.52 c 0.85,-0.99 1.64,-1.43 2.55,-1.43 h 0.31 v -1.22 h -7.04 v 1.22 h 0.65 c 1.02,0 1.53,0.24 1.53,0.75 0,0.34 -0.24,0.81 -0.68,1.36 l -2.14,2.58 -2.62,-3.33 c -0.21,-0.27 -0.34,-0.54 -0.34,-0.75 0,-0.44 0.44,-0.61 1.49,-0.61 h 0.48 v -1.22 h -8.06 v 1.22 c 1.26,0.1 1.74,0.41 2.82,1.84 l 4.15,5.2 -3.91,4.55 c -1.15,1.3 -2.14,1.84 -3.06,1.81 h -0.2 V 78 h 7.17 v -1.22 h -0.51 c -0.78,0 -0.95,-0.04 -1.19,-0.14 -0.27,-0.17 -0.47,-0.48 -0.47,-0.78 0,-0.24 0.1,-0.55 0.27,-0.75 l 2.85,-3.4 2.59,3.43 c 0.24,0.34 0.44,0.79 0.44,1.02 0,0.45 -0.51,0.62 -1.8,0.62 h -0.24 V 78 h 8.57 v -1.22 h -0.24 c -1.19,0 -1.97,-0.45 -2.96,-1.67 l -4.28,-5.78"
     class="Fingering" />
  <path
     id="path18416"
     d="m 1717.48,70.51 h -1.5 l -0.34,1.74 c -0.44,2.21 -0.71,2.41 -2.82,2.41 h -7.62 c 2.35,-2.45 3.13,-3.16 5.31,-4.86 3.09,-2.38 4.42,-3.57 5.2,-4.59 1.09,-1.5 1.63,-2.99 1.63,-4.66 0,-3.87 -3.2,-6.63 -7.65,-6.63 -4.32,0 -7.62,2.76 -7.62,6.39 0,2.15 1.09,3.61 2.69,3.61 1.26,0 2.11,-0.85 2.11,-2.08 0,-0.85 -0.48,-1.63 -1.19,-1.93 -1.26,-0.51 -1.33,-0.58 -1.33,-1.02 0,-0.51 0.34,-1.3 0.82,-1.87 0.85,-1.06 2.24,-1.64 3.84,-1.64 2.82,0 4.49,1.74 4.49,4.59 0,2.52 -1.19,4.8 -4.01,7.79 -2.52,2.65 -4.08,4.32 -4.66,4.96 -1.23,1.43 -1.84,2.21 -3.33,4.19 v 0.95 h 15.33 l 0.65,-7.35"
     class="Fingering" />
  <path
     id="path18418"
     d="m 1761.47,42.48 -11.56,16.08 v 1.9 h 9.55 v 1.77 c 0,1.73 0,1.8 -0.2,2.11 -0.27,0.37 -0.92,0.47 -2.86,0.47 h -0.37 v 1.6 h 9.93 v -1.6 h -0.14 c -1.94,0 -2.58,-0.1 -2.85,-0.47 -0.21,-0.31 -0.21,-0.34 -0.21,-2.11 v -1.77 h 4.12 v -1.9 h -4.12 v -9.28 c 0,-4.25 0,-4.36 0.17,-6.8 h -1.46 m -2.01,16.08 h -7.48 l 7.48,-10.3 v 10.3"
     class="Fingering" />
  <path
     id="path18420"
     d="m 1789.59,64.88 c -1.15,1.4 -4.28,2.45 -7.41,2.52 v 1.46 h 2.99 c 1.97,0.04 2.18,0.24 2.11,2.14 v 13.64 c 0,1.73 0,1.8 -0.2,2.11 -0.28,0.34 -0.92,0.47 -2.83,0.47 h -2.21 v 1.6 h 13.47 v -1.6 h -1.87 c -1.91,0 -2.55,-0.13 -2.82,-0.47 -0.24,-0.31 -0.24,-0.34 -0.24,-2.11 V 70.6 c 0,-1.91 0.07,-3.51 0.24,-5.72 h -1.23"
     class="Fingering" />
  <path
     id="path18422"
     d="m 1907.93,64.88 c -1.15,1.4 -4.28,2.45 -7.41,2.52 v 1.46 h 2.99 c 1.98,0.04 2.18,0.24 2.11,2.14 v 13.64 c 0,1.73 0,1.8 -0.2,2.11 -0.27,0.34 -0.92,0.47 -2.82,0.47 h -2.21 v 1.6 h 13.46 v -1.6 h -1.87 c -1.9,0 -2.55,-0.13 -2.82,-0.47 -0.24,-0.31 -0.24,-0.34 -0.24,-2.11 V 70.6 c 0,-1.91 0.07,-3.51 0.24,-5.72 h -1.23"
     class="Fingering" />
  <path
     id="path18424"
     d="m 1940.43,43.52 c 3.09,-1.12 4.52,-2.85 4.52,-5.57 0,-3.57 -2.72,-5.85 -6.94,-5.85 -3.97,0 -7,2.35 -7,5.44 0,1.39 0.92,2.38 2.24,2.38 1.19,0 2.01,-0.82 2.01,-2.04 0,-0.75 -0.27,-1.19 -1.05,-1.73 -0.34,-0.24 -0.45,-0.38 -0.45,-0.62 0,-0.95 1.98,-1.97 3.91,-1.97 2.45,0 3.74,1.53 3.74,4.42 0,3.16 -1.29,4.83 -3.7,4.83 -0.31,0 -0.89,-0.03 -1.4,-0.07 -0.27,-0.03 -0.54,-0.03 -0.74,-0.03 -0.72,0 -1.09,0.3 -1.09,0.92 0,0.57 0.34,0.85 1.09,0.85 0.2,0 0.47,0 0.78,-0.04 0.68,-0.03 1.22,-0.03 1.6,-0.03 2.51,0 3.87,1.8 3.87,5.17 0,3.53 -1.7,5.5 -4.76,5.5 -2.14,0 -4.45,-1.15 -4.45,-2.21 0,-0.3 0.07,-0.37 0.71,-0.74 0.95,-0.58 1.33,-1.16 1.33,-2.01 0,-1.22 -0.92,-2.14 -2.14,-2.14 -1.47,0 -2.42,1.19 -2.42,2.99 0,3.3 3.03,5.58 7.38,5.58 4.93,0 8.13,-2.72 8.13,-6.91 0,-3.19 -1.64,-5.13 -5.17,-6.12"
     class="Fingering" />
  <path
     id="path18426"
     d="m 2070.17,43.22 -11.56,16.08 v 1.91 h 9.55 v 1.76 c 0,1.74 0,1.81 -0.2,2.11 -0.27,0.38 -0.92,0.48 -2.86,0.48 h -0.37 v 1.6 h 9.93 v -1.6 h -0.14 c -1.94,0 -2.58,-0.1 -2.85,-0.48 -0.21,-0.3 -0.21,-0.34 -0.21,-2.11 v -1.76 h 4.12 V 59.3 h -4.12 v -9.28 c 0,-4.25 0,-4.35 0.17,-6.8 h -1.46 m -2.01,16.08 h -7.48 l 7.48,-10.3 v 10.3"
     class="Fingering" />
  <path
     id="path18490"
     d="m 1976.81,210.24 c 1.79,-0.57 2.51,-0.88 3.42,-1.49 1.79,-1.17 2.89,-3.26 2.89,-5.39 0,-3.61 -2.89,-6.04 -7.14,-6.04 -4.14,0 -7.64,2.58 -7.64,5.7 0,1.55 0.95,2.62 2.39,2.62 1.26,0 2.17,-0.91 2.17,-2.17 0,-0.64 -0.19,-1.1 -0.8,-1.71 -0.38,-0.34 -0.53,-0.61 -0.53,-0.87 0,-0.91 1.9,-1.86 3.69,-1.86 2.54,0 4.06,1.4 4.06,3.76 0,3.38 -2.39,6.57 -4.94,6.57 -0.11,0 -0.45,-0.04 -0.87,-0.07 -1.1,-0.08 -1.1,-0.08 -1.33,-0.08 -0.84,0 -1.29,0.38 -1.29,1.06 0,0.61 0.41,0.99 1.1,0.99 0.19,0 0.45,-0.04 0.76,-0.07 0.53,-0.12 1.1,-0.16 1.44,-0.16 1.79,0 3,1.6 3,3.96 0,1.82 -0.41,3.57 -1.25,5.01 -1.14,2.05 -2.89,3.04 -5.36,3.04 -2.13,0 -3.95,-1.06 -3.95,-2.28 0,-0.42 0.15,-0.57 0.76,-0.83 1.1,-0.5 1.56,-1.18 1.56,-2.21 0,-1.33 -1.07,-2.35 -2.43,-2.35 -1.64,0 -2.7,1.29 -2.7,3.26 0,3.69 2.81,6.01 7.37,6.01 5.74,0 10.11,-3.84 10.11,-8.93 0,-1.37 -0.42,-2.55 -1.22,-3.5 -0.83,-0.99 -1.59,-1.44 -3.27,-1.97"
     class="Tuplet" />
  <path
     id="path18492"
     d="m 2099.24,210.53 c 1.79,-0.57 2.51,-0.88 3.42,-1.48 1.79,-1.18 2.89,-3.27 2.89,-5.4 0,-3.61 -2.89,-6.04 -7.15,-6.04 -4.14,0 -7.63,2.58 -7.63,5.7 0,1.56 0.95,2.62 2.39,2.62 1.25,0 2.17,-0.91 2.17,-2.17 0,-0.64 -0.19,-1.1 -0.8,-1.71 -0.38,-0.34 -0.53,-0.6 -0.53,-0.87 0,-0.91 1.9,-1.86 3.68,-1.86 2.55,0 4.07,1.4 4.07,3.76 0,3.38 -2.4,6.57 -4.94,6.57 -0.12,0 -0.46,-0.03 -0.88,-0.07 -1.1,-0.08 -1.1,-0.08 -1.33,-0.08 -0.83,0 -1.29,0.38 -1.29,1.07 0,0.6 0.42,0.98 1.1,0.98 0.19,0 0.46,-0.03 0.76,-0.07 0.54,-0.12 1.11,-0.15 1.45,-0.15 1.78,0 3,1.59 3,3.95 0,1.82 -0.42,3.57 -1.25,5.01 -1.14,2.06 -2.89,3.04 -5.36,3.04 -2.13,0 -3.95,-1.06 -3.95,-2.28 0,-0.41 0.15,-0.57 0.76,-0.83 1.1,-0.5 1.55,-1.18 1.55,-2.21 0,-1.33 -1.06,-2.35 -2.43,-2.35 -1.63,0 -2.7,1.29 -2.7,3.27 0,3.68 2.82,6 7.38,6 5.73,0 10.1,-3.84 10.1,-8.93 0,-1.37 -0.41,-2.55 -1.21,-3.5 -0.84,-0.98 -1.6,-1.44 -3.27,-1.97"
     class="Tuplet" />
  <path
     style="stroke-width:0.8496"
     id="path18508"
     d="m 289.989,131.32859 c 0,2.34611 1.90189,4.248 4.248,4.248 2.34611,0 4.248,-1.90189 4.248,-4.248 0,-2.34611 -1.90189,-4.248 -4.248,-4.248 -2.34611,0 -4.248,1.90189 -4.248,4.248"
     class="NoteDot" />
</svg>
